<svg width="93" height="70" viewBox="0 0 93 70" fill="none" xmlns="http://www.w3.org/2000/svg">
<path d="M74.6338 69.2754C84.3166 69.2754 92.0938 60.7934 92.0938 50.4154V19.3854C92.0938 9.00739 84.3166 0.525391 74.6338 0.525391H18.8838C9.20102 0.525391 1.42383 9.00739 1.42383 19.3854V50.4154C1.42383 60.7934 9.20103 69.2754 18.8838 69.2754H74.6338Z" fill="#056DE2" stroke="#056DE2"/>
<path d="M90.044 49.5271C90.044 59.3371 82.704 67.2771 73.654 67.2771H19.754C10.694 67.2771 3.354 59.3271 3.354 49.5271V19.5371C3.354 9.73711 10.694 1.78711 19.754 1.78711H73.654C82.704 1.78711 90.044 9.73711 90.044 19.5371V49.5271Z" fill="#00005B"/>
<path d="M57.844 41.0669C56.184 46.6769 52.064 51.9769 45.704 51.9769C42.384 51.9769 39.124 50.2669 36.984 47.8069C33.504 43.8469 32.604 38.3969 32.604 33.3169C32.604 28.2369 33.514 22.5669 36.984 18.7169C39.174 16.2569 42.334 14.5469 45.704 14.5469C52.064 14.5469 56.184 19.8469 57.844 25.4569C58.594 27.9669 58.914 30.6469 58.914 33.2669C58.914 35.8869 58.594 38.5669 57.844 41.0769V41.0669ZM45.764 22.5069C41.434 22.5069 40.954 30.3169 40.954 33.2569C40.954 36.1969 41.434 43.9469 45.714 43.9469C49.994 43.9469 50.574 36.0869 50.574 33.2569C50.574 30.4269 49.824 22.5069 45.764 22.5069Z" fill="#ED1C24"/>
</svg>
