<svg width="136" height="136" viewBox="0 0 136 136" fill="none" xmlns="http://www.w3.org/2000/svg">
<circle cx="67.9039" cy="67.904" r="67.9039" fill="#DE195B"/>
<path d="M51.9123 107.136C51.5656 107.136 51.2789 107.043 51.0523 106.856C50.8256 106.67 50.6923 106.423 50.6523 106.116C50.6123 105.823 50.6656 105.51 50.8123 105.176L52.1523 102.216V103.456L48.6123 95.3364C48.4789 94.9897 48.4323 94.6697 48.4723 94.3764C48.5256 94.0697 48.6723 93.8297 48.9123 93.6564C49.1656 93.4697 49.5123 93.3764 49.9523 93.3764C50.3123 93.3764 50.5989 93.4631 50.8123 93.6364C51.0389 93.7964 51.2456 94.1097 51.4323 94.5764L53.7923 100.576H53.1523L55.5923 94.5564C55.7789 94.1031 55.9856 93.7964 56.2123 93.6364C56.4523 93.4631 56.7723 93.3764 57.1723 93.3764C57.5189 93.3764 57.7923 93.4697 57.9923 93.6564C58.2056 93.8297 58.3323 94.0631 58.3723 94.3564C58.4256 94.6497 58.3723 94.9697 58.2123 95.3164L53.5123 105.976C53.3123 106.43 53.0856 106.736 52.8323 106.896C52.5923 107.056 52.2856 107.136 51.9123 107.136ZM64.762 103.576C63.602 103.576 62.602 103.37 61.762 102.956C60.9353 102.53 60.2953 101.936 59.842 101.176C59.402 100.403 59.182 99.4964 59.182 98.4564C59.182 97.4431 59.3953 96.5564 59.822 95.7964C60.2486 95.0231 60.842 94.4231 61.602 93.9964C62.3753 93.5564 63.2486 93.3364 64.222 93.3364C64.9286 93.3364 65.5686 93.4564 66.142 93.6964C66.7153 93.9231 67.2086 94.2564 67.622 94.6964C68.0353 95.1231 68.3486 95.6497 68.562 96.2764C68.7753 96.8897 68.882 97.5764 68.882 98.3364C68.882 98.5897 68.802 98.7831 68.642 98.9164C68.482 99.0364 68.2486 99.0964 67.942 99.0964H61.662V97.5364H66.702L66.382 97.8164C66.382 97.2697 66.302 96.8164 66.142 96.4564C65.982 96.0831 65.7486 95.8031 65.442 95.6164C65.1486 95.4297 64.782 95.3364 64.342 95.3364C63.8486 95.3364 63.4286 95.4497 63.082 95.6764C62.7353 95.9031 62.4686 96.2297 62.282 96.6564C62.0953 97.0831 62.002 97.5964 62.002 98.1964V98.3564C62.002 99.3697 62.2353 100.116 62.702 100.596C63.182 101.076 63.8886 101.316 64.822 101.316C65.142 101.316 65.5086 101.276 65.922 101.196C66.3353 101.116 66.722 100.99 67.082 100.816C67.3886 100.67 67.662 100.623 67.902 100.676C68.142 100.716 68.3286 100.823 68.462 100.996C68.5953 101.17 68.6686 101.37 68.682 101.596C68.7086 101.823 68.662 102.05 68.542 102.276C68.422 102.49 68.222 102.67 67.942 102.816C67.4886 103.07 66.9753 103.256 66.402 103.376C65.842 103.51 65.2953 103.576 64.762 103.576ZM74.4585 103.576C73.6052 103.576 72.8518 103.37 72.1985 102.956C71.5585 102.543 71.0585 101.95 70.6985 101.176C70.3385 100.403 70.1585 99.4897 70.1585 98.4364C70.1585 97.3831 70.3385 96.4764 70.6985 95.7164C71.0585 94.9564 71.5585 94.3697 72.1985 93.9564C72.8518 93.5431 73.6052 93.3364 74.4585 93.3364C75.2318 93.3364 75.9118 93.5231 76.4985 93.8964C77.0985 94.2697 77.5052 94.7564 77.7185 95.3564L77.5185 96.0164V94.8964C77.5185 94.4031 77.6518 94.0297 77.9185 93.7764C78.1852 93.5097 78.5518 93.3764 79.0185 93.3764C79.4985 93.3764 79.8652 93.5097 80.1185 93.7764C80.3852 94.0297 80.5185 94.4031 80.5185 94.8964V101.996C80.5185 102.49 80.3852 102.87 80.1185 103.136C79.8652 103.403 79.4985 103.536 79.0185 103.536C78.5385 103.536 78.1652 103.403 77.8985 103.136C77.6452 102.87 77.5185 102.49 77.5185 101.996V100.896L77.7385 101.416C77.5518 102.07 77.1518 102.596 76.5385 102.996C75.9385 103.383 75.2452 103.576 74.4585 103.576ZM75.3585 101.316C75.7985 101.316 76.1785 101.21 76.4985 100.996C76.8185 100.783 77.0718 100.47 77.2585 100.056C77.4452 99.6297 77.5385 99.0897 77.5385 98.4364C77.5385 97.4631 77.3385 96.7497 76.9385 96.2964C76.5385 95.8297 76.0118 95.5964 75.3585 95.5964C74.9318 95.5964 74.5518 95.6964 74.2185 95.8964C73.8985 96.0964 73.6452 96.4097 73.4585 96.8364C73.2852 97.2497 73.1985 97.7831 73.1985 98.4364C73.1985 99.4097 73.3985 100.136 73.7985 100.616C74.1985 101.083 74.7185 101.316 75.3585 101.316ZM84.4055 103.536C83.8989 103.536 83.5122 103.403 83.2455 103.136C82.9789 102.87 82.8455 102.49 82.8455 101.996V94.8964C82.8455 94.4031 82.9722 94.0297 83.2255 93.7764C83.4922 93.5097 83.8589 93.3764 84.3255 93.3764C84.8055 93.3764 85.1722 93.5097 85.4255 93.7764C85.6789 94.0297 85.8055 94.4031 85.8055 94.8964V95.9364H85.6055C85.7655 95.1364 86.1189 94.5164 86.6655 94.0764C87.2122 93.6364 87.9189 93.3897 88.7855 93.3364C89.1189 93.3097 89.3722 93.3964 89.5455 93.5964C89.7322 93.7831 89.8322 94.0964 89.8455 94.5364C89.8722 94.9497 89.7855 95.2764 89.5855 95.5164C89.3989 95.7564 89.0789 95.9031 88.6255 95.9564L88.1655 95.9964C87.4055 96.0631 86.8389 96.2831 86.4655 96.6564C86.1055 97.0297 85.9255 97.5697 85.9255 98.2764V101.996C85.9255 102.49 85.7922 102.87 85.5255 103.136C85.2722 103.403 84.8989 103.536 84.4055 103.536ZM59.6066 121.576C58.5532 121.576 57.6332 121.37 56.8466 120.956C56.0732 120.543 55.4732 119.95 55.0466 119.176C54.6199 118.403 54.4066 117.49 54.4066 116.436C54.4066 115.65 54.5266 114.943 54.7666 114.316C55.0066 113.69 55.3532 113.156 55.8066 112.716C56.2732 112.263 56.8266 111.923 57.4666 111.696C58.1066 111.456 58.8199 111.336 59.6066 111.336C60.6599 111.336 61.5732 111.543 62.3466 111.956C63.1332 112.37 63.7399 112.956 64.1666 113.716C64.6066 114.476 64.8266 115.383 64.8266 116.436C64.8266 117.236 64.6999 117.95 64.4466 118.576C64.2066 119.203 63.8599 119.743 63.4066 120.196C62.9532 120.65 62.3999 120.996 61.7466 121.236C61.1066 121.463 60.3932 121.576 59.6066 121.576ZM59.6066 119.316C60.0466 119.316 60.4266 119.21 60.7466 118.996C61.0666 118.783 61.3199 118.47 61.5066 118.056C61.6932 117.63 61.7866 117.09 61.7866 116.436C61.7866 115.463 61.5866 114.75 61.1866 114.296C60.7866 113.83 60.2599 113.596 59.6066 113.596C59.1799 113.596 58.7999 113.696 58.4666 113.896C58.1466 114.096 57.8932 114.41 57.7066 114.836C57.5332 115.25 57.4466 115.783 57.4466 116.436C57.4466 117.41 57.6466 118.136 58.0466 118.616C58.4466 119.083 58.9666 119.316 59.6066 119.316ZM70.2039 121.576C69.0172 121.576 68.1306 121.25 67.5439 120.596C66.9572 119.93 66.6639 118.943 66.6639 117.636V108.616C66.6639 108.11 66.7906 107.73 67.0439 107.476C67.3106 107.21 67.6906 107.076 68.1839 107.076C68.6639 107.076 69.0306 107.21 69.2839 107.476C69.5506 107.73 69.6839 108.11 69.6839 108.616V117.516C69.6839 118.063 69.7972 118.47 70.0239 118.736C70.2639 118.99 70.5772 119.116 70.9639 119.116C71.0706 119.116 71.1706 119.11 71.2639 119.096C71.3572 119.083 71.4572 119.076 71.5639 119.076C71.7772 119.05 71.9239 119.116 72.0039 119.276C72.0972 119.423 72.1439 119.723 72.1439 120.176C72.1439 120.576 72.0639 120.883 71.9039 121.096C71.7439 121.296 71.4972 121.43 71.1639 121.496C71.0306 121.51 70.8772 121.523 70.7039 121.536C70.5306 121.563 70.3639 121.576 70.2039 121.576ZM77.0464 121.576C76.1931 121.576 75.4397 121.37 74.7864 120.956C74.1464 120.543 73.6464 119.95 73.2864 119.176C72.9264 118.403 72.7464 117.49 72.7464 116.436C72.7464 115.383 72.9264 114.476 73.2864 113.716C73.6464 112.956 74.1464 112.37 74.7864 111.956C75.4397 111.543 76.1931 111.336 77.0464 111.336C77.8197 111.336 78.4997 111.523 79.0864 111.896C79.6864 112.27 80.0931 112.756 80.3064 113.356H80.0864V108.616C80.0864 108.11 80.2131 107.73 80.4664 107.476C80.7197 107.21 81.0931 107.076 81.5864 107.076C82.0664 107.076 82.4397 107.21 82.7064 107.476C82.9731 107.73 83.1064 108.11 83.1064 108.616V119.996C83.1064 120.49 82.9731 120.87 82.7064 121.136C82.4531 121.403 82.0864 121.536 81.6064 121.536C81.1264 121.536 80.7531 121.403 80.4864 121.136C80.2331 120.87 80.1064 120.49 80.1064 119.996V118.636L80.3264 119.416C80.1397 120.07 79.7397 120.596 79.1264 120.996C78.5264 121.383 77.8331 121.576 77.0464 121.576ZM77.9464 119.316C78.3864 119.316 78.7664 119.21 79.0864 118.996C79.4064 118.783 79.6597 118.47 79.8464 118.056C80.0331 117.63 80.1264 117.09 80.1264 116.436C80.1264 115.463 79.9264 114.75 79.5264 114.296C79.1264 113.83 78.5997 113.596 77.9464 113.596C77.5197 113.596 77.1397 113.696 76.8064 113.896C76.4864 114.096 76.2331 114.41 76.0464 114.836C75.8731 115.25 75.7864 115.783 75.7864 116.436C75.7864 117.41 75.9864 118.136 76.3864 118.616C76.7864 119.083 77.3064 119.316 77.9464 119.316Z" fill="white"/>
<path d="M89.3696 73.0121C90.6455 74.0923 91.2834 75.7286 91.2834 77.905C91.2834 82.3689 88.6519 84.6089 83.3727 84.6089H51.8097C46.5305 84.6089 43.899 82.3689 43.899 77.905C43.899 75.7286 44.5369 74.1082 45.8128 73.0121C47.0888 71.9318 49.0824 71.3758 51.8097 71.3758H59.1781V38.6824L51.9054 42.9398C50.8687 43.5435 49.816 43.8453 48.7156 43.8453C47.009 43.8453 45.5577 43.1146 44.3455 41.6213C43.1334 40.1439 42.5273 38.4917 42.5273 36.6807C42.5273 34.2025 43.5959 32.328 45.7171 31.0571L60.2626 22.6375C62.9261 21.1283 65.4461 20.3658 67.8065 20.3658C70.167 20.3658 72.1925 21.0965 73.6757 22.5422C75.159 23.9878 75.9086 25.9577 75.9086 28.4359V71.3758H83.3727C86.1 71.3758 88.0936 71.9159 89.3696 73.0121Z" fill="white"/>
</svg>
