<svg width="88" height="67" viewBox="0 0 88 67" fill="none" xmlns="http://www.w3.org/2000/svg">
<path d="M87.5738 48.4666C87.5738 58.2666 80.2338 66.2166 71.1838 66.2166H17.2738C8.22379 66.2166 0.883789 58.2666 0.883789 48.4666V18.4766C0.883789 8.66656 8.22379 0.726562 17.2738 0.726562H71.1738C80.2238 0.726562 87.5638 8.67656 87.5638 18.4766V48.4666H87.5738Z" fill="#00005B"/>
<path d="M44.1337 53.077C41.5137 53.077 40.0737 51.047 40.0737 48.587V24.097H37.5637C35.4237 24.097 33.5537 22.817 33.5537 20.517C33.5537 18.217 35.3737 16.877 37.5637 16.877H43.8237C46.6537 16.877 48.2037 18.427 48.2037 21.257V48.587C48.2037 51.047 46.7637 53.077 44.1437 53.077H44.1337Z" fill="#FFFF00"/>
</svg>
