<svg width="93" height="70" viewBox="0 0 93 70" fill="none" xmlns="http://www.w3.org/2000/svg">
<path d="M74.6338 68.6562C84.3166 68.6562 92.0938 60.1742 92.0938 49.7962V18.7663C92.0938 8.38825 84.3166 -0.09375 74.6338 -0.09375H18.8838C9.20102 -0.09375 1.42383 8.38825 1.42383 18.7663V49.7962C1.42383 60.1742 9.20102 68.6562 18.8838 68.6562H74.6338Z" fill="#056DE2" stroke="#056DE2"/>
<path d="M90.044 49.4666C90.044 59.2666 82.704 67.2166 73.654 67.2166H19.754C10.694 67.2166 3.354 59.2666 3.354 49.4666V19.4766C3.354 9.67656 10.694 1.72656 19.754 1.72656H73.654C82.704 1.72656 90.044 9.67656 90.044 19.4766V49.4666Z" fill="#00005B"/>
<path d="M54.0538 53.5359H37.9538C35.6538 53.5359 33.4038 52.7859 33.4038 50.1159C33.4038 48.4559 34.5238 47.2859 35.5938 46.1559C38.3738 43.1059 41.0538 39.9559 43.7238 36.8459C45.4938 34.8159 48.9638 30.8559 48.9638 27.9659C48.9638 25.9859 47.5238 24.4359 45.5438 24.4359C43.2938 24.4359 42.1738 26.0359 41.5838 28.0159C40.8938 30.3659 40.6738 32.5659 37.7338 32.5659C35.3238 32.5659 33.9338 30.8559 33.9338 28.5559C33.9338 22.0859 39.6538 17.0059 45.9638 17.0059C52.2738 17.0059 57.3038 21.3859 57.3038 27.7559C57.3038 32.8859 54.4138 36.5259 51.2138 40.2159C49.3938 42.3559 47.5238 44.3859 45.5438 46.3159H54.0438C56.2938 46.3159 58.0538 47.5959 58.0538 49.9559C58.0538 52.3159 56.2338 53.5359 54.0438 53.5359H54.0538Z" fill="#ED1C24"/>
</svg>
