<svg width="137" height="136" viewBox="0 0 137 136" fill="none" xmlns="http://www.w3.org/2000/svg">
<circle cx="68.7121" cy="67.9039" r="67.9039" fill="#96CC16"/>
<path d="M46.8473 107.136C46.5007 107.136 46.214 107.043 45.9873 106.856C45.7607 106.67 45.6273 106.423 45.5873 106.116C45.5473 105.823 45.6007 105.51 45.7473 105.176L47.0873 102.216V103.456L43.5473 95.3363C43.414 94.9897 43.3673 94.6697 43.4073 94.3763C43.4607 94.0697 43.6073 93.8297 43.8473 93.6563C44.1007 93.4697 44.4473 93.3763 44.8873 93.3763C45.2473 93.3763 45.534 93.463 45.7473 93.6363C45.974 93.7963 46.1807 94.1097 46.3673 94.5763L48.7273 100.576H48.0873L50.5273 94.5563C50.714 94.103 50.9207 93.7963 51.1473 93.6363C51.3873 93.463 51.7073 93.3763 52.1073 93.3763C52.454 93.3763 52.7273 93.4697 52.9273 93.6563C53.1407 93.8297 53.2673 94.063 53.3073 94.3563C53.3607 94.6497 53.3073 94.9697 53.1473 95.3163L48.4473 105.976C48.2473 106.43 48.0207 106.736 47.7673 106.896C47.5273 107.056 47.2207 107.136 46.8473 107.136ZM59.697 103.576C58.537 103.576 57.537 103.37 56.697 102.956C55.8703 102.53 55.2303 101.936 54.777 101.176C54.337 100.403 54.117 99.4963 54.117 98.4563C54.117 97.443 54.3303 96.5563 54.757 95.7963C55.1837 95.023 55.777 94.423 56.537 93.9963C57.3103 93.5563 58.1837 93.3363 59.157 93.3363C59.8637 93.3363 60.5037 93.4563 61.077 93.6963C61.6503 93.923 62.1437 94.2563 62.557 94.6963C62.9703 95.123 63.2837 95.6497 63.497 96.2763C63.7103 96.8897 63.817 97.5763 63.817 98.3363C63.817 98.5897 63.737 98.783 63.577 98.9163C63.417 99.0363 63.1837 99.0963 62.877 99.0963H56.597V97.5363H61.637L61.317 97.8163C61.317 97.2697 61.237 96.8163 61.077 96.4563C60.917 96.083 60.6837 95.803 60.377 95.6163C60.0837 95.4297 59.717 95.3363 59.277 95.3363C58.7837 95.3363 58.3637 95.4497 58.017 95.6763C57.6703 95.903 57.4037 96.2297 57.217 96.6563C57.0303 97.083 56.937 97.5963 56.937 98.1963V98.3563C56.937 99.3697 57.1703 100.116 57.637 100.596C58.117 101.076 58.8237 101.316 59.757 101.316C60.077 101.316 60.4437 101.276 60.857 101.196C61.2703 101.116 61.657 100.99 62.017 100.816C62.3237 100.67 62.597 100.623 62.837 100.676C63.077 100.716 63.2637 100.823 63.397 100.996C63.5303 101.17 63.6037 101.37 63.617 101.596C63.6437 101.823 63.597 102.05 63.477 102.276C63.357 102.49 63.157 102.67 62.877 102.816C62.4237 103.07 61.9103 103.256 61.337 103.376C60.777 103.51 60.2303 103.576 59.697 103.576ZM69.3936 103.576C68.5402 103.576 67.7869 103.37 67.1336 102.956C66.4936 102.543 65.9936 101.95 65.6336 101.176C65.2736 100.403 65.0936 99.4897 65.0936 98.4363C65.0936 97.383 65.2736 96.4763 65.6336 95.7163C65.9936 94.9563 66.4936 94.3697 67.1336 93.9563C67.7869 93.543 68.5402 93.3363 69.3936 93.3363C70.1669 93.3363 70.8469 93.523 71.4336 93.8963C72.0336 94.2697 72.4402 94.7563 72.6536 95.3563L72.4536 96.0163V94.8963C72.4536 94.403 72.5869 94.0297 72.8536 93.7763C73.1202 93.5097 73.4869 93.3763 73.9536 93.3763C74.4336 93.3763 74.8002 93.5097 75.0536 93.7763C75.3202 94.0297 75.4536 94.403 75.4536 94.8963V101.996C75.4536 102.49 75.3202 102.87 75.0536 103.136C74.8002 103.403 74.4336 103.536 73.9536 103.536C73.4736 103.536 73.1002 103.403 72.8336 103.136C72.5802 102.87 72.4536 102.49 72.4536 101.996V100.896L72.6736 101.416C72.4869 102.07 72.0869 102.596 71.4736 102.996C70.8736 103.383 70.1802 103.576 69.3936 103.576ZM70.2936 101.316C70.7336 101.316 71.1136 101.21 71.4336 100.996C71.7536 100.783 72.0069 100.47 72.1936 100.056C72.3802 99.6297 72.4736 99.0897 72.4736 98.4363C72.4736 97.463 72.2736 96.7497 71.8736 96.2963C71.4736 95.8297 70.9469 95.5963 70.2936 95.5963C69.8669 95.5963 69.4869 95.6963 69.1536 95.8963C68.8336 96.0963 68.5802 96.4097 68.3936 96.8363C68.2202 97.2497 68.1336 97.783 68.1336 98.4363C68.1336 99.4097 68.3336 100.136 68.7336 100.616C69.1336 101.083 69.6536 101.316 70.2936 101.316ZM79.3406 103.536C78.8339 103.536 78.4473 103.403 78.1806 103.136C77.9139 102.87 77.7806 102.49 77.7806 101.996V94.8963C77.7806 94.403 77.9073 94.0297 78.1606 93.7763C78.4273 93.5097 78.7939 93.3763 79.2606 93.3763C79.7406 93.3763 80.1073 93.5097 80.3606 93.7763C80.6139 94.0297 80.7406 94.403 80.7406 94.8963V95.9363H80.5406C80.7006 95.1363 81.0539 94.5163 81.6006 94.0763C82.1473 93.6363 82.8539 93.3897 83.7206 93.3363C84.0539 93.3097 84.3073 93.3963 84.4806 93.5963C84.6673 93.783 84.7673 94.0963 84.7806 94.5363C84.8073 94.9497 84.7206 95.2763 84.5206 95.5163C84.3339 95.7563 84.0139 95.903 83.5606 95.9563L83.1006 95.9963C82.3406 96.063 81.7739 96.283 81.4006 96.6563C81.0406 97.0297 80.8606 97.5697 80.8606 98.2763V101.996C80.8606 102.49 80.7273 102.87 80.4606 103.136C80.2073 103.403 79.8339 103.536 79.3406 103.536ZM89.6851 103.576C89.0985 103.576 88.4918 103.523 87.8651 103.416C87.2518 103.31 86.6918 103.13 86.1851 102.876C85.9185 102.743 85.7251 102.576 85.6051 102.376C85.4985 102.163 85.4518 101.95 85.4651 101.736C85.4785 101.523 85.5451 101.33 85.6651 101.156C85.7985 100.983 85.9651 100.87 86.1651 100.816C86.3785 100.75 86.6118 100.77 86.8651 100.876C87.4118 101.103 87.9118 101.263 88.3651 101.356C88.8185 101.45 89.2651 101.496 89.7051 101.496C90.2785 101.496 90.6918 101.41 90.9451 101.236C91.2118 101.05 91.3451 100.81 91.3451 100.516C91.3451 100.25 91.2585 100.05 91.0851 99.9163C90.9118 99.783 90.6585 99.6897 90.3251 99.6363L88.2251 99.2563C87.3985 99.1097 86.7585 98.8097 86.3051 98.3563C85.8651 97.8897 85.6451 97.2963 85.6451 96.5763C85.6451 95.9097 85.8318 95.3363 86.2051 94.8563C86.5785 94.363 87.0918 93.9897 87.7451 93.7363C88.4118 93.4697 89.1651 93.3363 90.0051 93.3363C90.6051 93.3363 91.1585 93.3897 91.6651 93.4963C92.1718 93.603 92.6585 93.7763 93.1251 94.0163C93.3651 94.1363 93.5318 94.2963 93.6251 94.4963C93.7318 94.6963 93.7651 94.903 93.7251 95.1163C93.6985 95.3297 93.6185 95.523 93.4851 95.6963C93.3518 95.8697 93.1785 95.983 92.9651 96.0363C92.7651 96.0897 92.5318 96.063 92.2651 95.9563C91.8385 95.7563 91.4451 95.6163 91.0851 95.5363C90.7251 95.443 90.3785 95.3963 90.0451 95.3963C89.4451 95.3963 89.0118 95.4963 88.7451 95.6963C88.4785 95.883 88.3451 96.123 88.3451 96.4163C88.3451 96.643 88.4185 96.8363 88.5651 96.9963C88.7251 97.143 88.9651 97.243 89.2851 97.2963L91.3851 97.6763C92.2518 97.823 92.9118 98.1163 93.3651 98.5563C93.8185 98.983 94.0451 99.5697 94.0451 100.316C94.0451 101.33 93.6451 102.13 92.8451 102.716C92.0585 103.29 91.0051 103.576 89.6851 103.576ZM59.4147 121.576C58.3613 121.576 57.4413 121.37 56.6547 120.956C55.8813 120.543 55.2813 119.95 54.8547 119.176C54.428 118.403 54.2147 117.49 54.2147 116.436C54.2147 115.65 54.3347 114.943 54.5747 114.316C54.8147 113.69 55.1613 113.156 55.6147 112.716C56.0813 112.263 56.6347 111.923 57.2747 111.696C57.9147 111.456 58.628 111.336 59.4147 111.336C60.468 111.336 61.3813 111.543 62.1547 111.956C62.9413 112.37 63.548 112.956 63.9747 113.716C64.4147 114.476 64.6347 115.383 64.6347 116.436C64.6347 117.236 64.508 117.95 64.2547 118.576C64.0147 119.203 63.668 119.743 63.2147 120.196C62.7613 120.65 62.208 120.996 61.5547 121.236C60.9147 121.463 60.2013 121.576 59.4147 121.576ZM59.4147 119.316C59.8547 119.316 60.2347 119.21 60.5547 118.996C60.8747 118.783 61.128 118.47 61.3147 118.056C61.5013 117.63 61.5947 117.09 61.5947 116.436C61.5947 115.463 61.3947 114.75 60.9947 114.296C60.5947 113.83 60.068 113.596 59.4147 113.596C58.988 113.596 58.608 113.696 58.2747 113.896C57.9547 114.096 57.7013 114.41 57.5147 114.836C57.3413 115.25 57.2547 115.783 57.2547 116.436C57.2547 117.41 57.4547 118.136 57.8547 118.616C58.2547 119.083 58.7747 119.316 59.4147 119.316ZM70.012 121.576C68.8253 121.576 67.9387 121.25 67.352 120.596C66.7653 119.93 66.472 118.943 66.472 117.636V108.616C66.472 108.11 66.5987 107.73 66.852 107.476C67.1187 107.21 67.4987 107.076 67.992 107.076C68.472 107.076 68.8387 107.21 69.092 107.476C69.3587 107.73 69.492 108.11 69.492 108.616V117.516C69.492 118.063 69.6053 118.47 69.832 118.736C70.072 118.99 70.3853 119.116 70.772 119.116C70.8787 119.116 70.9787 119.11 71.072 119.096C71.1653 119.083 71.2653 119.076 71.372 119.076C71.5853 119.05 71.732 119.116 71.812 119.276C71.9053 119.423 71.952 119.723 71.952 120.176C71.952 120.576 71.872 120.883 71.712 121.096C71.552 121.296 71.3053 121.43 70.972 121.496C70.8387 121.51 70.6853 121.523 70.512 121.536C70.3387 121.563 70.172 121.576 70.012 121.576ZM76.8545 121.576C76.0012 121.576 75.2478 121.37 74.5945 120.956C73.9545 120.543 73.4545 119.95 73.0945 119.176C72.7345 118.403 72.5545 117.49 72.5545 116.436C72.5545 115.383 72.7345 114.476 73.0945 113.716C73.4545 112.956 73.9545 112.37 74.5945 111.956C75.2478 111.543 76.0012 111.336 76.8545 111.336C77.6278 111.336 78.3078 111.523 78.8945 111.896C79.4945 112.27 79.9012 112.756 80.1145 113.356H79.8945V108.616C79.8945 108.11 80.0212 107.73 80.2745 107.476C80.5278 107.21 80.9012 107.076 81.3945 107.076C81.8745 107.076 82.2478 107.21 82.5145 107.476C82.7812 107.73 82.9145 108.11 82.9145 108.616V119.996C82.9145 120.49 82.7812 120.87 82.5145 121.136C82.2612 121.403 81.8945 121.536 81.4145 121.536C80.9345 121.536 80.5612 121.403 80.2945 121.136C80.0412 120.87 79.9145 120.49 79.9145 119.996V118.636L80.1345 119.416C79.9478 120.07 79.5478 120.596 78.9345 120.996C78.3345 121.383 77.6412 121.576 76.8545 121.576ZM77.7545 119.316C78.1945 119.316 78.5745 119.21 78.8945 118.996C79.2145 118.783 79.4678 118.47 79.6545 118.056C79.8412 117.63 79.9345 117.09 79.9345 116.436C79.9345 115.463 79.7345 114.75 79.3345 114.296C78.9345 113.83 78.4078 113.596 77.7545 113.596C77.3278 113.596 76.9478 113.696 76.6145 113.896C76.2945 114.096 76.0412 114.41 75.8545 114.836C75.6812 115.25 75.5945 115.783 75.5945 116.436C75.5945 117.41 75.7945 118.136 76.1945 118.616C76.5945 119.083 77.1145 119.316 77.7545 119.316Z" fill="white"/>
<path d="M91.1686 75.5703C92.4764 76.6347 93.1303 78.2709 93.1303 80.5108C93.1303 82.7508 92.4764 84.4982 91.1686 85.5785C89.8607 86.6587 87.883 87.2148 85.2196 87.2148H52.0297C49.8447 87.2148 48.1222 86.5634 46.8463 85.2608C45.5704 83.9581 44.9324 82.3219 44.9324 80.3202C44.9324 77.7308 45.9691 75.3638 48.0265 73.2509L67.3088 53.2345C71.312 49.0724 73.3057 45.228 73.3057 41.7331C73.3057 39.6838 72.7156 38.111 71.5353 37.0308C70.3551 35.9505 68.6645 35.3945 66.4795 35.3945C64.7251 35.3945 63.0983 35.6487 61.615 36.1571C60.1318 36.6654 58.4093 37.4121 56.4795 38.3811L54.6613 39.2866C54.422 39.4137 53.9436 39.6679 53.2578 40.0491C52.556 40.4463 51.934 40.7322 51.3917 40.907C50.8495 41.0817 50.2753 41.177 49.6693 41.177C48.1541 41.177 46.8782 40.4939 45.8415 39.1436C44.8048 37.7933 44.2944 36.173 44.2944 34.2984C44.2944 32.9799 44.4858 31.8837 44.8846 31.0418C45.2833 30.1998 46.0169 29.4055 47.1174 28.6906C49.9723 26.7525 53.1621 25.2434 56.7187 24.1631C60.2753 23.0829 63.7682 22.5269 67.2132 22.5269C71.6948 22.5269 75.6342 23.2735 79.0314 24.7509C82.4285 26.2283 85.0441 28.3411 86.8942 31.0894C88.7443 33.8377 89.6693 36.999 89.6693 40.5575C89.6693 44.116 88.9197 47.6109 87.4365 50.661C85.9532 53.7111 83.4173 57.1107 79.8448 60.8598L66.9261 73.9976H85.2036C87.8671 73.9976 89.8607 74.5218 91.1526 75.5862L91.1686 75.5703Z" fill="white"/>
</svg>
