<svg width="91" height="70" viewBox="0 0 91 70" fill="none" xmlns="http://www.w3.org/2000/svg">
<path d="M73.7439 68.6562C83.4267 68.6562 91.2039 60.1742 91.2039 49.7962V18.7663C91.2039 8.38825 83.4267 -0.09375 73.7439 -0.09375H17.9839C8.30113 -0.09375 0.523926 8.38825 0.523926 18.7663V49.7962C0.523926 60.1742 8.30113 68.6562 17.9839 68.6562H73.7439Z" fill="#056DE2" stroke="#056DE2"/>
<path d="M89.4036 49.4666C89.4036 59.2666 82.0636 67.2166 73.0136 67.2166H19.1136C10.0636 67.2166 2.72363 59.2666 2.72363 49.4666V19.4766C2.72363 9.67656 10.0636 1.72656 19.1136 1.72656H73.0136C82.0636 1.72656 89.4036 9.67656 89.4036 19.4766V49.4666Z" fill="#00005B"/>
<path d="M45.8637 54.4463C43.2937 54.4463 40.6237 53.8063 38.4337 52.4163C36.0237 50.8663 33.3037 47.5463 33.3037 44.5563C33.3037 42.5263 35.2237 40.9163 37.1537 40.9163C39.4537 40.9163 40.0437 42.4663 41.0537 44.1763C42.0137 45.7863 43.6737 46.8463 45.5437 46.8463C48.2137 46.8463 50.0937 44.9763 50.0937 42.2963C50.0937 35.8263 41.5337 40.6963 41.5337 34.6463C41.5337 31.9163 43.1937 31.7063 45.4937 31.0063C47.2537 30.4763 48.8637 29.5663 48.8637 27.4763C48.8637 25.6063 47.4237 24.4763 45.6037 24.4763C41.5937 24.4763 41.1637 28.9163 37.8537 28.9163C35.9237 28.9163 34.3737 27.2563 34.3737 25.3863C34.3737 20.0363 41.3837 16.9863 45.9237 16.9863C51.5337 16.9863 56.5137 20.6263 56.5137 26.5563C56.5137 29.9763 55.2337 31.8463 52.5537 33.8263C54.4237 34.8463 55.6537 35.5863 56.8837 37.4063C58.0037 39.0663 58.4937 40.8263 58.4937 42.8063C58.4937 49.9163 52.6637 54.4063 45.8737 54.4063L45.8637 54.4463Z" fill="#F15A24"/>
</svg>
