<svg width="137" height="136" viewBox="0 0 137 136" fill="none" xmlns="http://www.w3.org/2000/svg">
<circle cx="68.5192" cy="67.9039" r="67.9039" fill="#AB3BFF"/>
<path d="M46.6545 107.136C46.3078 107.136 46.0211 107.043 45.7945 106.856C45.5678 106.67 45.4345 106.423 45.3945 106.116C45.3545 105.823 45.4078 105.51 45.5545 105.176L46.8945 102.216V103.456L43.3545 95.3363C43.2211 94.9897 43.1745 94.6697 43.2145 94.3763C43.2678 94.0697 43.4145 93.8297 43.6545 93.6563C43.9078 93.4697 44.2545 93.3763 44.6945 93.3763C45.0545 93.3763 45.3411 93.463 45.5545 93.6363C45.7811 93.7963 45.9878 94.1097 46.1745 94.5763L48.5345 100.576H47.8945L50.3345 94.5563C50.5211 94.103 50.7278 93.7963 50.9545 93.6363C51.1945 93.463 51.5145 93.3763 51.9145 93.3763C52.2611 93.3763 52.5345 93.4697 52.7345 93.6563C52.9478 93.8297 53.0745 94.063 53.1145 94.3563C53.1678 94.6497 53.1145 94.9697 52.9545 95.3163L48.2545 105.976C48.0545 106.43 47.8278 106.736 47.5745 106.896C47.3345 107.056 47.0278 107.136 46.6545 107.136ZM59.5041 103.576C58.3441 103.576 57.3441 103.37 56.5041 102.956C55.6775 102.53 55.0375 101.936 54.5841 101.176C54.1441 100.403 53.9241 99.4963 53.9241 98.4563C53.9241 97.443 54.1375 96.5563 54.5641 95.7963C54.9908 95.023 55.5841 94.423 56.3441 93.9963C57.1175 93.5563 57.9908 93.3363 58.9641 93.3363C59.6708 93.3363 60.3108 93.4563 60.8841 93.6963C61.4575 93.923 61.9508 94.2563 62.3641 94.6963C62.7775 95.123 63.0908 95.6497 63.3041 96.2763C63.5175 96.8897 63.6241 97.5763 63.6241 98.3363C63.6241 98.5897 63.5441 98.783 63.3841 98.9163C63.2241 99.0363 62.9908 99.0963 62.6841 99.0963H56.4041V97.5363H61.4441L61.1241 97.8163C61.1241 97.2697 61.0441 96.8163 60.8841 96.4563C60.7241 96.083 60.4908 95.803 60.1841 95.6163C59.8908 95.4297 59.5241 95.3363 59.0841 95.3363C58.5908 95.3363 58.1708 95.4497 57.8241 95.6763C57.4775 95.903 57.2108 96.2297 57.0241 96.6563C56.8375 97.083 56.7441 97.5963 56.7441 98.1963V98.3563C56.7441 99.3697 56.9775 100.116 57.4441 100.596C57.9241 101.076 58.6308 101.316 59.5641 101.316C59.8841 101.316 60.2508 101.276 60.6641 101.196C61.0775 101.116 61.4641 100.99 61.8241 100.816C62.1308 100.67 62.4041 100.623 62.6441 100.676C62.8841 100.716 63.0708 100.823 63.2041 100.996C63.3375 101.17 63.4108 101.37 63.4241 101.596C63.4508 101.823 63.4041 102.05 63.2841 102.276C63.1641 102.49 62.9641 102.67 62.6841 102.816C62.2308 103.07 61.7175 103.256 61.1441 103.376C60.5841 103.51 60.0375 103.576 59.5041 103.576ZM69.2007 103.576C68.3474 103.576 67.594 103.37 66.9407 102.956C66.3007 102.543 65.8007 101.95 65.4407 101.176C65.0807 100.403 64.9007 99.4897 64.9007 98.4363C64.9007 97.383 65.0807 96.4763 65.4407 95.7163C65.8007 94.9563 66.3007 94.3697 66.9407 93.9563C67.594 93.543 68.3474 93.3363 69.2007 93.3363C69.974 93.3363 70.654 93.523 71.2407 93.8963C71.8407 94.2697 72.2474 94.7563 72.4607 95.3563L72.2607 96.0163V94.8963C72.2607 94.403 72.394 94.0297 72.6607 93.7763C72.9274 93.5097 73.294 93.3763 73.7607 93.3763C74.2407 93.3763 74.6074 93.5097 74.8607 93.7763C75.1274 94.0297 75.2607 94.403 75.2607 94.8963V101.996C75.2607 102.49 75.1274 102.87 74.8607 103.136C74.6074 103.403 74.2407 103.536 73.7607 103.536C73.2807 103.536 72.9074 103.403 72.6407 103.136C72.3874 102.87 72.2607 102.49 72.2607 101.996V100.896L72.4807 101.416C72.294 102.07 71.894 102.596 71.2807 102.996C70.6807 103.383 69.9874 103.576 69.2007 103.576ZM70.1007 101.316C70.5407 101.316 70.9207 101.21 71.2407 100.996C71.5607 100.783 71.814 100.47 72.0007 100.056C72.1874 99.6297 72.2807 99.0897 72.2807 98.4363C72.2807 97.463 72.0807 96.7497 71.6807 96.2963C71.2807 95.8297 70.754 95.5963 70.1007 95.5963C69.674 95.5963 69.294 95.6963 68.9607 95.8963C68.6407 96.0963 68.3874 96.4097 68.2007 96.8363C68.0274 97.2497 67.9407 97.783 67.9407 98.4363C67.9407 99.4097 68.1407 100.136 68.5407 100.616C68.9407 101.083 69.4607 101.316 70.1007 101.316ZM79.1477 103.536C78.6411 103.536 78.2544 103.403 77.9877 103.136C77.7211 102.87 77.5877 102.49 77.5877 101.996V94.8963C77.5877 94.403 77.7144 94.0297 77.9677 93.7763C78.2344 93.5097 78.6011 93.3763 79.0677 93.3763C79.5477 93.3763 79.9144 93.5097 80.1677 93.7763C80.4211 94.0297 80.5477 94.403 80.5477 94.8963V95.9363H80.3477C80.5077 95.1363 80.8611 94.5163 81.4077 94.0763C81.9544 93.6363 82.6611 93.3897 83.5277 93.3363C83.8611 93.3097 84.1144 93.3963 84.2877 93.5963C84.4744 93.783 84.5744 94.0963 84.5877 94.5363C84.6144 94.9497 84.5277 95.2763 84.3277 95.5163C84.1411 95.7563 83.8211 95.903 83.3677 95.9563L82.9077 95.9963C82.1477 96.063 81.5811 96.283 81.2077 96.6563C80.8477 97.0297 80.6677 97.5697 80.6677 98.2763V101.996C80.6677 102.49 80.5344 102.87 80.2677 103.136C80.0144 103.403 79.6411 103.536 79.1477 103.536ZM89.4923 103.576C88.9056 103.576 88.2989 103.523 87.6723 103.416C87.0589 103.31 86.4989 103.13 85.9923 102.876C85.7256 102.743 85.5323 102.576 85.4123 102.376C85.3056 102.163 85.2589 101.95 85.2723 101.736C85.2856 101.523 85.3523 101.33 85.4723 101.156C85.6056 100.983 85.7723 100.87 85.9723 100.816C86.1856 100.75 86.4189 100.77 86.6723 100.876C87.2189 101.103 87.7189 101.263 88.1723 101.356C88.6256 101.45 89.0723 101.496 89.5123 101.496C90.0856 101.496 90.4989 101.41 90.7523 101.236C91.0189 101.05 91.1523 100.81 91.1523 100.516C91.1523 100.25 91.0656 100.05 90.8923 99.9163C90.7189 99.783 90.4656 99.6897 90.1323 99.6363L88.0323 99.2563C87.2056 99.1097 86.5656 98.8097 86.1123 98.3563C85.6723 97.8897 85.4523 97.2963 85.4523 96.5763C85.4523 95.9097 85.6389 95.3363 86.0123 94.8563C86.3856 94.363 86.8989 93.9897 87.5523 93.7363C88.2189 93.4697 88.9723 93.3363 89.8123 93.3363C90.4123 93.3363 90.9656 93.3897 91.4723 93.4963C91.9789 93.603 92.4656 93.7763 92.9323 94.0163C93.1723 94.1363 93.3389 94.2963 93.4323 94.4963C93.5389 94.6963 93.5723 94.903 93.5323 95.1163C93.5056 95.3297 93.4256 95.523 93.2923 95.6963C93.1589 95.8697 92.9856 95.983 92.7723 96.0363C92.5723 96.0897 92.3389 96.063 92.0723 95.9563C91.6456 95.7563 91.2523 95.6163 90.8923 95.5363C90.5323 95.443 90.1856 95.3963 89.8523 95.3963C89.2523 95.3963 88.8189 95.4963 88.5523 95.6963C88.2856 95.883 88.1523 96.123 88.1523 96.4163C88.1523 96.643 88.2256 96.8363 88.3723 96.9963C88.5323 97.143 88.7723 97.243 89.0923 97.2963L91.1923 97.6763C92.0589 97.823 92.7189 98.1163 93.1723 98.5563C93.6256 98.983 93.8523 99.5697 93.8523 100.316C93.8523 101.33 93.4523 102.13 92.6523 102.716C91.8656 103.29 90.8123 103.576 89.4923 103.576ZM59.2218 121.576C58.1685 121.576 57.2485 121.37 56.4618 120.956C55.6885 120.543 55.0885 119.95 54.6618 119.176C54.2351 118.403 54.0218 117.49 54.0218 116.436C54.0218 115.65 54.1418 114.943 54.3818 114.316C54.6218 113.69 54.9685 113.156 55.4218 112.716C55.8885 112.263 56.4418 111.923 57.0818 111.696C57.7218 111.456 58.4351 111.336 59.2218 111.336C60.2751 111.336 61.1885 111.543 61.9618 111.956C62.7485 112.37 63.3551 112.956 63.7818 113.716C64.2218 114.476 64.4418 115.383 64.4418 116.436C64.4418 117.236 64.3151 117.95 64.0618 118.576C63.8218 119.203 63.4751 119.743 63.0218 120.196C62.5685 120.65 62.0151 120.996 61.3618 121.236C60.7218 121.463 60.0085 121.576 59.2218 121.576ZM59.2218 119.316C59.6618 119.316 60.0418 119.21 60.3618 118.996C60.6818 118.783 60.9351 118.47 61.1218 118.056C61.3085 117.63 61.4018 117.09 61.4018 116.436C61.4018 115.463 61.2018 114.75 60.8018 114.296C60.4018 113.83 59.8751 113.596 59.2218 113.596C58.7951 113.596 58.4151 113.696 58.0818 113.896C57.7618 114.096 57.5085 114.41 57.3218 114.836C57.1485 115.25 57.0618 115.783 57.0618 116.436C57.0618 117.41 57.2618 118.136 57.6618 118.616C58.0618 119.083 58.5818 119.316 59.2218 119.316ZM69.8191 121.576C68.6325 121.576 67.7458 121.25 67.1591 120.596C66.5725 119.93 66.2791 118.943 66.2791 117.636V108.616C66.2791 108.11 66.4058 107.73 66.6591 107.476C66.9258 107.21 67.3058 107.076 67.7991 107.076C68.2791 107.076 68.6458 107.21 68.8991 107.476C69.1658 107.73 69.2991 108.11 69.2991 108.616V117.516C69.2991 118.063 69.4125 118.47 69.6391 118.736C69.8791 118.99 70.1925 119.116 70.5791 119.116C70.6858 119.116 70.7858 119.11 70.8791 119.096C70.9725 119.083 71.0725 119.076 71.1791 119.076C71.3925 119.05 71.5391 119.116 71.6191 119.276C71.7125 119.423 71.7591 119.723 71.7591 120.176C71.7591 120.576 71.6791 120.883 71.5191 121.096C71.3591 121.296 71.1125 121.43 70.7791 121.496C70.6458 121.51 70.4925 121.523 70.3191 121.536C70.1458 121.563 69.9791 121.576 69.8191 121.576ZM76.6616 121.576C75.8083 121.576 75.055 121.37 74.4016 120.956C73.7616 120.543 73.2616 119.95 72.9016 119.176C72.5416 118.403 72.3616 117.49 72.3616 116.436C72.3616 115.383 72.5416 114.476 72.9016 113.716C73.2616 112.956 73.7616 112.37 74.4016 111.956C75.055 111.543 75.8083 111.336 76.6616 111.336C77.435 111.336 78.115 111.523 78.7016 111.896C79.3016 112.27 79.7083 112.756 79.9216 113.356H79.7016V108.616C79.7016 108.11 79.8283 107.73 80.0816 107.476C80.335 107.21 80.7083 107.076 81.2016 107.076C81.6816 107.076 82.055 107.21 82.3216 107.476C82.5883 107.73 82.7216 108.11 82.7216 108.616V119.996C82.7216 120.49 82.5883 120.87 82.3216 121.136C82.0683 121.403 81.7016 121.536 81.2216 121.536C80.7416 121.536 80.3683 121.403 80.1016 121.136C79.8483 120.87 79.7216 120.49 79.7216 119.996V118.636L79.9416 119.416C79.755 120.07 79.355 120.596 78.7416 120.996C78.1416 121.383 77.4483 121.576 76.6616 121.576ZM77.5616 119.316C78.0016 119.316 78.3816 119.21 78.7016 118.996C79.0216 118.783 79.275 118.47 79.4616 118.056C79.6483 117.63 79.7416 117.09 79.7416 116.436C79.7416 115.463 79.5416 114.75 79.1416 114.296C78.7416 113.83 78.215 113.596 77.5616 113.596C77.135 113.596 76.755 113.696 76.4216 113.896C76.1016 114.096 75.8483 114.41 75.6616 114.836C75.4883 115.25 75.4016 115.783 75.4016 116.436C75.4016 117.41 75.6016 118.136 76.0016 118.616C76.4016 119.083 76.9216 119.316 77.5616 119.316Z" fill="white"/>
<path d="M89.6695 59.7997C91.6951 62.5162 92.7158 65.8046 92.7158 69.6649C92.7158 73.5252 91.711 76.5436 89.7174 79.2601C87.7238 81.9766 84.8848 84.0735 81.2166 85.5509C77.5483 87.0283 73.258 87.775 68.3457 87.775C64.4063 87.775 60.6105 87.2507 56.9741 86.1864C53.3377 85.1379 50.1798 83.6128 47.5163 81.6112C46.4796 80.8328 45.7619 79.9908 45.3313 79.1171C44.9007 78.2434 44.6934 77.1949 44.6934 75.9875C44.6934 74.113 45.2037 72.5244 46.2404 71.2376C47.2771 69.9509 48.5371 69.2836 50.0522 69.2836C50.8975 69.2836 51.6631 69.4266 52.3329 69.6967C53.0028 69.9667 53.9119 70.4115 55.0602 71.0152C55.2994 71.1423 55.5865 71.2694 55.9214 71.4282C56.2564 71.5871 56.6392 71.746 57.0538 71.9207C58.9996 72.8898 60.7381 73.6364 62.2851 74.1448C63.8322 74.6531 65.5706 74.9073 67.5164 74.9073C70.9135 74.9073 73.3537 74.3672 74.837 73.271C76.3202 72.1908 77.0698 70.3798 77.0698 67.838C77.0698 65.4869 76.3043 63.7871 74.8051 62.7704C73.2899 61.7378 70.8019 61.2294 67.3409 61.2294H61.695C59.8768 61.2294 58.4573 60.594 57.4207 59.3231C56.384 58.0522 55.8736 56.543 55.8736 54.7956C55.8736 53.0481 56.384 51.5389 57.4207 50.2681C58.4573 48.9972 59.8768 48.3617 61.695 48.3617H65.6982C69.0315 48.3617 71.4558 47.8852 72.9709 46.9161C74.4861 45.9471 75.2357 44.4061 75.2357 42.2933C75.2357 40.0534 74.5658 38.3218 73.2421 37.0827C71.9023 35.8436 70.0523 35.224 67.6918 35.224C66.0012 35.224 64.4063 35.4941 62.9231 36.0342C61.4398 36.5743 59.7811 37.3051 57.9629 38.2106L56.049 39.1161C54.9007 39.7197 53.9916 40.1646 53.3217 40.4346C52.6519 40.7047 51.9023 40.8477 51.057 40.8477C49.5418 40.8477 48.2659 40.1963 47.2292 38.8937C46.1926 37.591 45.6822 36.0024 45.6822 34.1438C45.6822 32.8729 45.8895 31.8244 46.3201 30.9665C46.7348 30.1246 47.4685 29.3144 48.5052 28.5201C51.1049 26.582 54.183 25.0728 57.7396 23.9926C61.2963 22.9123 64.8848 22.3563 68.5212 22.3563C73.0028 22.3563 76.9582 23.0871 80.3872 24.5327C83.8162 25.9783 86.4478 28.0435 88.2979 30.6965C90.148 33.3495 91.0731 36.4313 91.0731 39.9422C91.0731 43.2623 90.2118 46.1854 88.4893 48.6795C86.7668 51.1895 84.3585 53.0163 81.2644 54.1601C84.837 55.1927 87.644 57.0514 89.6695 59.7838V59.7997Z" fill="white"/>
</svg>
