<svg width="91" height="71" viewBox="0 0 91 71" fill="none" xmlns="http://www.w3.org/2000/svg">
<path d="M72.9339 69.5254C82.6167 69.5254 90.3939 61.0434 90.3939 50.6654V19.6354C90.3939 9.25739 82.6167 0.775391 72.9339 0.775391H17.1739C7.49106 0.775391 -0.286133 9.25739 -0.286133 19.6354V50.6654C-0.286133 61.0434 7.49106 69.5254 17.1739 69.5254H72.9339Z" fill="#056DE2" stroke="#056DE2"/>
<path d="M88.5738 50.156C88.5738 59.956 81.2338 67.906 72.1838 67.906H18.2738C9.22379 67.906 1.88379 59.956 1.88379 50.156V20.166C1.88379 10.366 9.22379 2.41602 18.2738 2.41602H72.1738C81.2238 2.41602 88.5638 10.366 88.5638 20.166V50.156H88.5738Z" fill="#00005B"/>
<path d="M52.6137 47.6164V51.5764C52.6137 53.8764 51.2737 55.8064 48.8137 55.8064C44.2637 55.8064 45.0137 50.6164 45.0137 47.6264H34.6337C32.4937 47.6264 30.3037 46.7164 30.3037 44.2564C30.3037 43.7164 30.4637 42.9764 30.7337 42.4864L41.2637 22.9664C42.4437 20.7764 44.4737 19.0664 47.0937 19.0664C50.4637 19.0664 52.6037 21.8964 52.6037 25.1064V40.4564H53.4637C55.5537 40.4564 57.2037 41.7964 57.2037 43.9364C57.2037 46.5564 54.8537 47.6264 52.6037 47.6264L52.6137 47.6164ZM45.0237 29.2264L39.0837 40.4564H45.0237V29.2264Z" fill="#29ABE2"/>
</svg>
