<svg width="137" height="136" viewBox="0 0 137 136" fill="none" xmlns="http://www.w3.org/2000/svg">
<circle cx="68.3278" cy="67.9039" r="67.9039" fill="#FF8000"/>
<path d="M46.463 109.136C46.1164 109.136 45.8297 109.043 45.603 108.856C45.3764 108.67 45.243 108.423 45.203 108.116C45.163 107.823 45.2164 107.51 45.363 107.176L46.703 104.216V105.456L43.163 97.3363C43.0297 96.9897 42.983 96.6697 43.023 96.3763C43.0764 96.0697 43.223 95.8297 43.463 95.6563C43.7164 95.4697 44.063 95.3763 44.503 95.3763C44.863 95.3763 45.1497 95.463 45.363 95.6363C45.5897 95.7963 45.7964 96.1097 45.983 96.5763L48.343 102.576H47.703L50.143 96.5563C50.3297 96.103 50.5364 95.7963 50.763 95.6363C51.003 95.463 51.323 95.3763 51.723 95.3763C52.0697 95.3763 52.343 95.4697 52.543 95.6563C52.7564 95.8297 52.883 96.063 52.923 96.3563C52.9764 96.6497 52.923 96.9697 52.763 97.3163L48.063 107.976C47.863 108.43 47.6364 108.736 47.383 108.896C47.143 109.056 46.8364 109.136 46.463 109.136ZM59.3127 105.576C58.1527 105.576 57.1527 105.37 56.3127 104.956C55.4861 104.53 54.8461 103.936 54.3927 103.176C53.9527 102.403 53.7327 101.496 53.7327 100.456C53.7327 99.443 53.9461 98.5563 54.3727 97.7963C54.7994 97.023 55.3927 96.423 56.1527 95.9963C56.9261 95.5563 57.7994 95.3363 58.7727 95.3363C59.4794 95.3363 60.1194 95.4563 60.6927 95.6963C61.2661 95.923 61.7594 96.2563 62.1727 96.6963C62.5861 97.123 62.8994 97.6497 63.1127 98.2763C63.3261 98.8897 63.4327 99.5763 63.4327 100.336C63.4327 100.59 63.3527 100.783 63.1927 100.916C63.0327 101.036 62.7994 101.096 62.4927 101.096H56.2127V99.5363H61.2527L60.9327 99.8163C60.9327 99.2697 60.8527 98.8163 60.6927 98.4563C60.5327 98.083 60.2994 97.803 59.9927 97.6163C59.6994 97.4297 59.3327 97.3363 58.8927 97.3363C58.3994 97.3363 57.9794 97.4497 57.6327 97.6763C57.2861 97.903 57.0194 98.2297 56.8327 98.6563C56.6461 99.083 56.5527 99.5963 56.5527 100.196V100.356C56.5527 101.37 56.7861 102.116 57.2527 102.596C57.7327 103.076 58.4394 103.316 59.3727 103.316C59.6927 103.316 60.0594 103.276 60.4727 103.196C60.8861 103.116 61.2727 102.99 61.6327 102.816C61.9394 102.67 62.2127 102.623 62.4527 102.676C62.6927 102.716 62.8794 102.823 63.0127 102.996C63.1461 103.17 63.2194 103.37 63.2327 103.596C63.2594 103.823 63.2127 104.05 63.0927 104.276C62.9727 104.49 62.7727 104.67 62.4927 104.816C62.0394 105.07 61.5261 105.256 60.9527 105.376C60.3927 105.51 59.8461 105.576 59.3127 105.576ZM69.0093 105.576C68.156 105.576 67.4026 105.37 66.7493 104.956C66.1093 104.543 65.6093 103.95 65.2493 103.176C64.8893 102.403 64.7093 101.49 64.7093 100.436C64.7093 99.383 64.8893 98.4763 65.2493 97.7163C65.6093 96.9563 66.1093 96.3697 66.7493 95.9563C67.4026 95.543 68.156 95.3363 69.0093 95.3363C69.7826 95.3363 70.4626 95.523 71.0493 95.8963C71.6493 96.2697 72.056 96.7563 72.2693 97.3563L72.0693 98.0163V96.8963C72.0693 96.403 72.2026 96.0297 72.4693 95.7763C72.736 95.5097 73.1026 95.3763 73.5693 95.3763C74.0493 95.3763 74.416 95.5097 74.6693 95.7763C74.936 96.0297 75.0693 96.403 75.0693 96.8963V103.996C75.0693 104.49 74.936 104.87 74.6693 105.136C74.416 105.403 74.0493 105.536 73.5693 105.536C73.0893 105.536 72.716 105.403 72.4493 105.136C72.196 104.87 72.0693 104.49 72.0693 103.996V102.896L72.2893 103.416C72.1026 104.07 71.7026 104.596 71.0893 104.996C70.4893 105.383 69.796 105.576 69.0093 105.576ZM69.9093 103.316C70.3493 103.316 70.7293 103.21 71.0493 102.996C71.3693 102.783 71.6226 102.47 71.8093 102.056C71.996 101.63 72.0893 101.09 72.0893 100.436C72.0893 99.463 71.8893 98.7497 71.4893 98.2963C71.0893 97.8297 70.5626 97.5963 69.9093 97.5963C69.4826 97.5963 69.1026 97.6963 68.7693 97.8963C68.4493 98.0963 68.196 98.4097 68.0093 98.8363C67.836 99.2497 67.7493 99.783 67.7493 100.436C67.7493 101.41 67.9493 102.136 68.3493 102.616C68.7493 103.083 69.2693 103.316 69.9093 103.316ZM78.9563 105.536C78.4497 105.536 78.063 105.403 77.7963 105.136C77.5297 104.87 77.3963 104.49 77.3963 103.996V96.8963C77.3963 96.403 77.523 96.0297 77.7763 95.7763C78.043 95.5097 78.4097 95.3763 78.8763 95.3763C79.3563 95.3763 79.723 95.5097 79.9763 95.7763C80.2297 96.0297 80.3563 96.403 80.3563 96.8963V97.9363H80.1563C80.3163 97.1363 80.6697 96.5163 81.2163 96.0763C81.763 95.6363 82.4697 95.3897 83.3363 95.3363C83.6697 95.3097 83.923 95.3963 84.0963 95.5963C84.283 95.783 84.383 96.0963 84.3963 96.5363C84.423 96.9497 84.3363 97.2763 84.1363 97.5163C83.9497 97.7563 83.6297 97.903 83.1763 97.9563L82.7163 97.9963C81.9563 98.063 81.3897 98.283 81.0163 98.6563C80.6563 99.0297 80.4763 99.5697 80.4763 100.276V103.996C80.4763 104.49 80.343 104.87 80.0763 105.136C79.823 105.403 79.4497 105.536 78.9563 105.536ZM89.3009 105.576C88.7142 105.576 88.1075 105.523 87.4809 105.416C86.8675 105.31 86.3075 105.13 85.8009 104.876C85.5342 104.743 85.3409 104.576 85.2209 104.376C85.1142 104.163 85.0675 103.95 85.0809 103.736C85.0942 103.523 85.1609 103.33 85.2809 103.156C85.4142 102.983 85.5809 102.87 85.7809 102.816C85.9942 102.75 86.2275 102.77 86.4809 102.876C87.0275 103.103 87.5275 103.263 87.9809 103.356C88.4342 103.45 88.8809 103.496 89.3209 103.496C89.8942 103.496 90.3075 103.41 90.5609 103.236C90.8275 103.05 90.9609 102.81 90.9609 102.516C90.9609 102.25 90.8742 102.05 90.7009 101.916C90.5275 101.783 90.2742 101.69 89.9409 101.636L87.8409 101.256C87.0142 101.11 86.3742 100.81 85.9209 100.356C85.4809 99.8897 85.2609 99.2963 85.2609 98.5763C85.2609 97.9097 85.4475 97.3363 85.8209 96.8563C86.1942 96.363 86.7075 95.9897 87.3609 95.7363C88.0275 95.4697 88.7809 95.3363 89.6209 95.3363C90.2209 95.3363 90.7742 95.3897 91.2809 95.4963C91.7875 95.603 92.2742 95.7763 92.7409 96.0163C92.9809 96.1363 93.1475 96.2963 93.2409 96.4963C93.3475 96.6963 93.3809 96.903 93.3409 97.1163C93.3142 97.3297 93.2342 97.523 93.1009 97.6963C92.9675 97.8697 92.7942 97.983 92.5809 98.0363C92.3809 98.0897 92.1475 98.063 91.8809 97.9563C91.4542 97.7563 91.0609 97.6163 90.7009 97.5363C90.3409 97.443 89.9942 97.3963 89.6609 97.3963C89.0609 97.3963 88.6275 97.4963 88.3609 97.6963C88.0942 97.883 87.9609 98.123 87.9609 98.4163C87.9609 98.643 88.0342 98.8363 88.1809 98.9963C88.3409 99.143 88.5809 99.243 88.9009 99.2963L91.0009 99.6763C91.8675 99.823 92.5275 100.116 92.9809 100.556C93.4342 100.983 93.6609 101.57 93.6609 102.316C93.6609 103.33 93.2609 104.13 92.4609 104.716C91.6742 105.29 90.6209 105.576 89.3009 105.576ZM59.0304 123.576C57.9771 123.576 57.0571 123.37 56.2704 122.956C55.4971 122.543 54.8971 121.95 54.4704 121.176C54.0437 120.403 53.8304 119.49 53.8304 118.436C53.8304 117.65 53.9504 116.943 54.1904 116.316C54.4304 115.69 54.7771 115.156 55.2304 114.716C55.6971 114.263 56.2504 113.923 56.8904 113.696C57.5304 113.456 58.2437 113.336 59.0304 113.336C60.0837 113.336 60.9971 113.543 61.7704 113.956C62.5571 114.37 63.1637 114.956 63.5904 115.716C64.0304 116.476 64.2504 117.383 64.2504 118.436C64.2504 119.236 64.1237 119.95 63.8704 120.576C63.6304 121.203 63.2837 121.743 62.8304 122.196C62.3771 122.65 61.8237 122.996 61.1704 123.236C60.5304 123.463 59.8171 123.576 59.0304 123.576ZM59.0304 121.316C59.4704 121.316 59.8504 121.21 60.1704 120.996C60.4904 120.783 60.7437 120.47 60.9304 120.056C61.1171 119.63 61.2104 119.09 61.2104 118.436C61.2104 117.463 61.0104 116.75 60.6104 116.296C60.2104 115.83 59.6837 115.596 59.0304 115.596C58.6037 115.596 58.2237 115.696 57.8904 115.896C57.5704 116.096 57.3171 116.41 57.1304 116.836C56.9571 117.25 56.8704 117.783 56.8704 118.436C56.8704 119.41 57.0704 120.136 57.4704 120.616C57.8704 121.083 58.3904 121.316 59.0304 121.316ZM69.6277 123.576C68.4411 123.576 67.5544 123.25 66.9677 122.596C66.3811 121.93 66.0877 120.943 66.0877 119.636V110.616C66.0877 110.11 66.2144 109.73 66.4677 109.476C66.7344 109.21 67.1144 109.076 67.6077 109.076C68.0877 109.076 68.4544 109.21 68.7077 109.476C68.9744 109.73 69.1077 110.11 69.1077 110.616V119.516C69.1077 120.063 69.2211 120.47 69.4477 120.736C69.6877 120.99 70.0011 121.116 70.3877 121.116C70.4944 121.116 70.5944 121.11 70.6877 121.096C70.7811 121.083 70.8811 121.076 70.9877 121.076C71.2011 121.05 71.3477 121.116 71.4277 121.276C71.5211 121.423 71.5677 121.723 71.5677 122.176C71.5677 122.576 71.4877 122.883 71.3277 123.096C71.1677 123.296 70.9211 123.43 70.5877 123.496C70.4544 123.51 70.3011 123.523 70.1277 123.536C69.9544 123.563 69.7877 123.576 69.6277 123.576ZM76.4702 123.576C75.6169 123.576 74.8636 123.37 74.2102 122.956C73.5702 122.543 73.0702 121.95 72.7102 121.176C72.3502 120.403 72.1702 119.49 72.1702 118.436C72.1702 117.383 72.3502 116.476 72.7102 115.716C73.0702 114.956 73.5702 114.37 74.2102 113.956C74.8636 113.543 75.6169 113.336 76.4702 113.336C77.2436 113.336 77.9236 113.523 78.5102 113.896C79.1102 114.27 79.5169 114.756 79.7302 115.356H79.5102V110.616C79.5102 110.11 79.6369 109.73 79.8902 109.476C80.1436 109.21 80.5169 109.076 81.0102 109.076C81.4902 109.076 81.8636 109.21 82.1302 109.476C82.3969 109.73 82.5302 110.11 82.5302 110.616V121.996C82.5302 122.49 82.3969 122.87 82.1302 123.136C81.8769 123.403 81.5102 123.536 81.0302 123.536C80.5502 123.536 80.1769 123.403 79.9102 123.136C79.6569 122.87 79.5302 122.49 79.5302 121.996V120.636L79.7502 121.416C79.5636 122.07 79.1636 122.596 78.5502 122.996C77.9502 123.383 77.2569 123.576 76.4702 123.576ZM77.3702 121.316C77.8102 121.316 78.1902 121.21 78.5102 120.996C78.8302 120.783 79.0836 120.47 79.2702 120.056C79.4569 119.63 79.5502 119.09 79.5502 118.436C79.5502 117.463 79.3502 116.75 78.9502 116.296C78.5502 115.83 78.0236 115.596 77.3702 115.596C76.9436 115.596 76.5636 115.696 76.2302 115.896C75.9102 116.096 75.6569 116.41 75.4702 116.836C75.2969 117.25 75.2102 117.783 75.2102 118.436C75.2102 119.41 75.4102 120.136 75.8102 120.616C76.2102 121.083 76.7302 121.316 77.3702 121.316Z" fill="white"/>
<path d="M89.3507 71.5378C89.3507 75.827 86.7191 77.9716 81.44 77.9716H79.4464V81.0535C79.4464 83.7701 78.6808 85.8193 77.1816 87.2173C75.6665 88.6153 73.6888 89.2984 71.2646 89.2984C68.8403 89.2984 66.8785 88.5994 65.3953 87.2173C63.912 85.8352 63.1624 83.7701 63.1624 81.0535V77.9716H42.8913C40.7063 77.9716 38.9838 77.3044 37.7078 75.9859C36.4319 74.6515 35.7939 72.9993 35.7939 70.9977C35.7939 68.8848 36.4638 66.8991 37.7876 65.0245L63.8004 28.0737C64.6457 26.8663 65.7302 25.9449 67.0221 25.3095C68.3299 24.674 69.6697 24.3563 71.0732 24.3563C73.3698 24.3563 75.3475 25.0871 76.9902 26.5327C78.633 27.9783 79.4464 30.0117 79.4464 32.6012V65.2946H81.44C86.7191 65.2946 89.3507 67.3757 89.3507 71.5378ZM63.1624 65.2787V49.6151L52.2533 65.2787H63.1624Z" fill="white"/>
</svg>
