<svg width="93" height="71" viewBox="0 0 93 71" fill="none" xmlns="http://www.w3.org/2000/svg">
<path d="M74.6338 69.5254C84.3166 69.5254 92.0938 61.0434 92.0938 50.6654V19.6354C92.0938 9.25739 84.3166 0.775391 74.6338 0.775391H18.8838C9.20102 0.775391 1.42383 9.25739 1.42383 19.6354V50.6654C1.42383 61.0434 9.20102 69.5254 18.8838 69.5254H74.6338Z" fill="#056DE2" stroke="#056DE2"/>
<path d="M90.044 50.156C90.044 59.956 82.704 67.906 73.654 67.906H19.754C10.694 67.906 3.354 59.956 3.354 50.156V20.166C3.354 10.366 10.694 2.41602 19.754 2.41602H73.654C82.704 2.41602 90.044 10.366 90.044 20.166V50.156Z" fill="#00005B"/>
<path d="M45.0637 56.1757C43.5137 56.1757 42.0137 55.9657 40.5137 55.5357C37.7837 54.7857 33.2437 52.4857 33.2437 49.1157C33.2437 47.0857 34.7937 45.2657 36.8837 45.2657C39.3937 45.2657 41.1637 48.1557 45.0137 48.1557C48.1137 48.1557 49.7737 45.2657 49.7737 42.4357C49.7737 39.6057 48.2736 37.4057 45.3336 37.4057C42.7136 37.4057 41.4837 39.1657 39.3437 39.1657C37.5237 39.1657 36.0237 37.8857 36.0237 36.0157C36.0237 35.6357 36.0237 35.2657 36.0737 34.8957L37.4137 23.5557C37.6837 21.4157 38.8537 19.5957 41.2137 19.5957H53.7837C55.9737 19.5957 57.7437 20.9357 57.7437 23.2357C57.7437 25.5357 55.9837 26.8157 53.7837 26.8157H44.5836L44.0437 31.3657C45.2237 31.0457 46.3437 30.8257 47.5737 30.8257C54.3637 30.8257 58.1637 35.9057 58.1637 42.3757C58.1637 50.2357 53.1337 56.1757 45.0637 56.1757Z" fill="#39B54A"/>
</svg>
