<svg width="137" height="136" viewBox="0 0 137 136" fill="none" xmlns="http://www.w3.org/2000/svg">
<circle cx="68.1354" cy="67.9039" r="67.9039" fill="#FF10FF"/>
<path d="M45.2707 109.136C44.924 109.136 44.6373 109.043 44.4107 108.856C44.184 108.67 44.0507 108.423 44.0107 108.116C43.9707 107.823 44.024 107.51 44.1707 107.176L45.5107 104.216V105.456L41.9707 97.3363C41.8373 96.9897 41.7907 96.6697 41.8307 96.3763C41.884 96.0697 42.0307 95.8297 42.2707 95.6563C42.524 95.4697 42.8707 95.3763 43.3107 95.3763C43.6707 95.3763 43.9573 95.463 44.1707 95.6363C44.3973 95.7963 44.604 96.1097 44.7907 96.5763L47.1507 102.576H46.5107L48.9507 96.5563C49.1373 96.103 49.344 95.7963 49.5707 95.6363C49.8107 95.463 50.1307 95.3763 50.5307 95.3763C50.8773 95.3763 51.1507 95.4697 51.3507 95.6563C51.564 95.8297 51.6907 96.063 51.7307 96.3563C51.784 96.6497 51.7307 96.9697 51.5707 97.3163L46.8707 107.976C46.6707 108.43 46.444 108.736 46.1907 108.896C45.9507 109.056 45.644 109.136 45.2707 109.136ZM58.1204 105.576C56.9604 105.576 55.9604 105.37 55.1204 104.956C54.2937 104.53 53.6537 103.936 53.2004 103.176C52.7604 102.403 52.5404 101.496 52.5404 100.456C52.5404 99.443 52.7537 98.5563 53.1804 97.7963C53.607 97.023 54.2004 96.423 54.9604 95.9963C55.7337 95.5563 56.607 95.3363 57.5804 95.3363C58.287 95.3363 58.927 95.4563 59.5004 95.6963C60.0737 95.923 60.567 96.2563 60.9804 96.6963C61.3937 97.123 61.707 97.6497 61.9204 98.2763C62.1337 98.8897 62.2404 99.5763 62.2404 100.336C62.2404 100.59 62.1604 100.783 62.0004 100.916C61.8404 101.036 61.607 101.096 61.3004 101.096H55.0204V99.5363H60.0604L59.7404 99.8163C59.7404 99.2697 59.6604 98.8163 59.5004 98.4563C59.3404 98.083 59.107 97.803 58.8004 97.6163C58.507 97.4297 58.1404 97.3363 57.7004 97.3363C57.207 97.3363 56.787 97.4497 56.4404 97.6763C56.0937 97.903 55.827 98.2297 55.6404 98.6563C55.4537 99.083 55.3604 99.5963 55.3604 100.196V100.356C55.3604 101.37 55.5937 102.116 56.0604 102.596C56.5404 103.076 57.247 103.316 58.1804 103.316C58.5004 103.316 58.867 103.276 59.2804 103.196C59.6937 103.116 60.0804 102.99 60.4404 102.816C60.747 102.67 61.0204 102.623 61.2604 102.676C61.5004 102.716 61.687 102.823 61.8204 102.996C61.9537 103.17 62.027 103.37 62.0404 103.596C62.067 103.823 62.0204 104.05 61.9004 104.276C61.7804 104.49 61.5804 104.67 61.3004 104.816C60.847 105.07 60.3337 105.256 59.7604 105.376C59.2004 105.51 58.6537 105.576 58.1204 105.576ZM67.8169 105.576C66.9636 105.576 66.2102 105.37 65.5569 104.956C64.9169 104.543 64.4169 103.95 64.0569 103.176C63.6969 102.403 63.5169 101.49 63.5169 100.436C63.5169 99.383 63.6969 98.4763 64.0569 97.7163C64.4169 96.9563 64.9169 96.3697 65.5569 95.9563C66.2102 95.543 66.9636 95.3363 67.8169 95.3363C68.5902 95.3363 69.2702 95.523 69.8569 95.8963C70.4569 96.2697 70.8636 96.7563 71.0769 97.3563L70.8769 98.0163V96.8963C70.8769 96.403 71.0102 96.0297 71.2769 95.7763C71.5436 95.5097 71.9102 95.3763 72.3769 95.3763C72.8569 95.3763 73.2236 95.5097 73.4769 95.7763C73.7436 96.0297 73.8769 96.403 73.8769 96.8963V103.996C73.8769 104.49 73.7436 104.87 73.4769 105.136C73.2236 105.403 72.8569 105.536 72.3769 105.536C71.8969 105.536 71.5236 105.403 71.2569 105.136C71.0036 104.87 70.8769 104.49 70.8769 103.996V102.896L71.0969 103.416C70.9102 104.07 70.5102 104.596 69.8969 104.996C69.2969 105.383 68.6036 105.576 67.8169 105.576ZM68.7169 103.316C69.1569 103.316 69.5369 103.21 69.8569 102.996C70.1769 102.783 70.4302 102.47 70.6169 102.056C70.8036 101.63 70.8969 101.09 70.8969 100.436C70.8969 99.463 70.6969 98.7497 70.2969 98.2963C69.8969 97.8297 69.3702 97.5963 68.7169 97.5963C68.2902 97.5963 67.9102 97.6963 67.5769 97.8963C67.2569 98.0963 67.0036 98.4097 66.8169 98.8363C66.6436 99.2497 66.5569 99.783 66.5569 100.436C66.5569 101.41 66.7569 102.136 67.1569 102.616C67.5569 103.083 68.0769 103.316 68.7169 103.316ZM77.7639 105.536C77.2573 105.536 76.8706 105.403 76.6039 105.136C76.3373 104.87 76.2039 104.49 76.2039 103.996V96.8963C76.2039 96.403 76.3306 96.0297 76.5839 95.7763C76.8506 95.5097 77.2173 95.3763 77.6839 95.3763C78.1639 95.3763 78.5306 95.5097 78.7839 95.7763C79.0373 96.0297 79.1639 96.403 79.1639 96.8963V97.9363H78.9639C79.1239 97.1363 79.4773 96.5163 80.0239 96.0763C80.5706 95.6363 81.2773 95.3897 82.1439 95.3363C82.4773 95.3097 82.7306 95.3963 82.9039 95.5963C83.0906 95.783 83.1906 96.0963 83.2039 96.5363C83.2306 96.9497 83.1439 97.2763 82.9439 97.5163C82.7573 97.7563 82.4373 97.903 81.9839 97.9563L81.5239 97.9963C80.7639 98.063 80.1973 98.283 79.8239 98.6563C79.4639 99.0297 79.2839 99.5697 79.2839 100.276V103.996C79.2839 104.49 79.1506 104.87 78.8839 105.136C78.6306 105.403 78.2573 105.536 77.7639 105.536ZM88.1085 105.576C87.5218 105.576 86.9151 105.523 86.2885 105.416C85.6751 105.31 85.1151 105.13 84.6085 104.876C84.3418 104.743 84.1485 104.576 84.0285 104.376C83.9218 104.163 83.8751 103.95 83.8885 103.736C83.9018 103.523 83.9685 103.33 84.0885 103.156C84.2218 102.983 84.3885 102.87 84.5885 102.816C84.8018 102.75 85.0351 102.77 85.2885 102.876C85.8351 103.103 86.3351 103.263 86.7885 103.356C87.2418 103.45 87.6885 103.496 88.1285 103.496C88.7018 103.496 89.1151 103.41 89.3685 103.236C89.6351 103.05 89.7685 102.81 89.7685 102.516C89.7685 102.25 89.6818 102.05 89.5085 101.916C89.3351 101.783 89.0818 101.69 88.7485 101.636L86.6485 101.256C85.8218 101.11 85.1818 100.81 84.7285 100.356C84.2885 99.8897 84.0685 99.2963 84.0685 98.5763C84.0685 97.9097 84.2551 97.3363 84.6285 96.8563C85.0018 96.363 85.5151 95.9897 86.1685 95.7363C86.8351 95.4697 87.5885 95.3363 88.4285 95.3363C89.0285 95.3363 89.5818 95.3897 90.0885 95.4963C90.5951 95.603 91.0818 95.7763 91.5485 96.0163C91.7885 96.1363 91.9551 96.2963 92.0485 96.4963C92.1551 96.6963 92.1885 96.903 92.1485 97.1163C92.1218 97.3297 92.0418 97.523 91.9085 97.6963C91.7751 97.8697 91.6018 97.983 91.3885 98.0363C91.1885 98.0897 90.9551 98.063 90.6885 97.9563C90.2618 97.7563 89.8685 97.6163 89.5085 97.5363C89.1485 97.443 88.8018 97.3963 88.4685 97.3963C87.8685 97.3963 87.4351 97.4963 87.1685 97.6963C86.9018 97.883 86.7685 98.123 86.7685 98.4163C86.7685 98.643 86.8418 98.8363 86.9885 98.9963C87.1485 99.143 87.3885 99.243 87.7085 99.2963L89.8085 99.6763C90.6751 99.823 91.3351 100.116 91.7885 100.556C92.2418 100.983 92.4685 101.57 92.4685 102.316C92.4685 103.33 92.0685 104.13 91.2685 104.716C90.4818 105.29 89.4285 105.576 88.1085 105.576ZM57.838 123.576C56.7847 123.576 55.8647 123.37 55.078 122.956C54.3047 122.543 53.7047 121.95 53.278 121.176C52.8513 120.403 52.638 119.49 52.638 118.436C52.638 117.65 52.758 116.943 52.998 116.316C53.238 115.69 53.5847 115.156 54.038 114.716C54.5047 114.263 55.058 113.923 55.698 113.696C56.338 113.456 57.0513 113.336 57.838 113.336C58.8913 113.336 59.8047 113.543 60.578 113.956C61.3647 114.37 61.9713 114.956 62.398 115.716C62.838 116.476 63.058 117.383 63.058 118.436C63.058 119.236 62.9313 119.95 62.678 120.576C62.438 121.203 62.0913 121.743 61.638 122.196C61.1847 122.65 60.6313 122.996 59.978 123.236C59.338 123.463 58.6247 123.576 57.838 123.576ZM57.838 121.316C58.278 121.316 58.658 121.21 58.978 120.996C59.298 120.783 59.5513 120.47 59.738 120.056C59.9247 119.63 60.018 119.09 60.018 118.436C60.018 117.463 59.818 116.75 59.418 116.296C59.018 115.83 58.4913 115.596 57.838 115.596C57.4113 115.596 57.0313 115.696 56.698 115.896C56.378 116.096 56.1247 116.41 55.938 116.836C55.7647 117.25 55.678 117.783 55.678 118.436C55.678 119.41 55.878 120.136 56.278 120.616C56.678 121.083 57.198 121.316 57.838 121.316ZM68.4354 123.576C67.2487 123.576 66.362 123.25 65.7754 122.596C65.1887 121.93 64.8954 120.943 64.8954 119.636V110.616C64.8954 110.11 65.022 109.73 65.2754 109.476C65.542 109.21 65.922 109.076 66.4154 109.076C66.8954 109.076 67.262 109.21 67.5154 109.476C67.782 109.73 67.9154 110.11 67.9154 110.616V119.516C67.9154 120.063 68.0287 120.47 68.2554 120.736C68.4954 120.99 68.8087 121.116 69.1954 121.116C69.302 121.116 69.402 121.11 69.4954 121.096C69.5887 121.083 69.6887 121.076 69.7954 121.076C70.0087 121.05 70.1554 121.116 70.2354 121.276C70.3287 121.423 70.3754 121.723 70.3754 122.176C70.3754 122.576 70.2954 122.883 70.1354 123.096C69.9754 123.296 69.7287 123.43 69.3954 123.496C69.262 123.51 69.1087 123.523 68.9354 123.536C68.762 123.563 68.5954 123.576 68.4354 123.576ZM75.2779 123.576C74.4245 123.576 73.6712 123.37 73.0179 122.956C72.3779 122.543 71.8779 121.95 71.5179 121.176C71.1579 120.403 70.9779 119.49 70.9779 118.436C70.9779 117.383 71.1579 116.476 71.5179 115.716C71.8779 114.956 72.3779 114.37 73.0179 113.956C73.6712 113.543 74.4245 113.336 75.2779 113.336C76.0512 113.336 76.7312 113.523 77.3179 113.896C77.9179 114.27 78.3245 114.756 78.5379 115.356H78.3179V110.616C78.3179 110.11 78.4445 109.73 78.6979 109.476C78.9512 109.21 79.3245 109.076 79.8179 109.076C80.2979 109.076 80.6712 109.21 80.9379 109.476C81.2045 109.73 81.3379 110.11 81.3379 110.616V121.996C81.3379 122.49 81.2045 122.87 80.9379 123.136C80.6845 123.403 80.3179 123.536 79.8379 123.536C79.3579 123.536 78.9845 123.403 78.7179 123.136C78.4645 122.87 78.3379 122.49 78.3379 121.996V120.636L78.5579 121.416C78.3712 122.07 77.9712 122.596 77.3579 122.996C76.7579 123.383 76.0645 123.576 75.2779 123.576ZM76.1779 121.316C76.6179 121.316 76.9979 121.21 77.3179 120.996C77.6379 120.783 77.8912 120.47 78.0779 120.056C78.2645 119.63 78.3579 119.09 78.3579 118.436C78.3579 117.463 78.1579 116.75 77.7579 116.296C77.3579 115.83 76.8312 115.596 76.1779 115.596C75.7512 115.596 75.3712 115.696 75.0379 115.896C74.7179 116.096 74.4645 116.41 74.2779 116.836C74.1045 117.25 74.0179 117.783 74.0179 118.436C74.0179 119.41 74.2179 120.136 74.6179 120.616C75.0179 121.083 75.5379 121.316 76.1779 121.316Z" fill="white"/>
<path d="M67.4781 89.2984C64.5594 89.2984 61.4971 88.9648 58.2754 88.2976C55.0537 87.6304 52.0872 86.5978 49.36 85.2157C47.7172 84.3737 46.5849 83.2617 45.9469 81.9114C45.3089 80.5452 45.1016 79.179 45.309 77.781C45.5163 76.383 46.0745 75.1439 46.9517 74.0637C47.8289 72.9834 48.9612 72.2686 50.3169 71.935C51.6885 71.6014 53.1878 71.8555 54.8305 72.6975C56.8401 73.6665 58.9134 74.3973 61.0665 74.8739C63.2196 75.3663 65.2452 75.6046 67.1272 75.6046C69.1846 75.6046 70.9549 75.3028 72.4063 74.6991C73.8576 74.0955 74.9741 73.2217 75.7237 72.062C76.4892 70.9183 76.8561 69.5521 76.8561 67.9793C76.8561 65.5647 76.0427 63.6583 74.3999 62.2604C72.7572 60.8624 70.5721 60.1793 67.8448 60.1793C66.6327 60.1793 65.309 60.354 63.8895 60.7194C62.4701 61.0848 60.9868 61.7838 59.4716 62.8005C58.8018 63.1659 57.8927 63.5789 56.7444 64.0237C55.596 64.4844 54.3999 64.7068 53.1878 64.7068C51.0027 64.7068 49.3919 64.1985 48.3552 63.1659C47.3185 62.1333 46.8082 60.6877 46.8082 58.8131V31.4256C46.8082 29.1221 47.4301 27.3747 48.6742 26.1673C49.9182 24.96 51.6566 24.3563 53.9054 24.3563H82.502C84.7508 24.3563 86.4733 24.9282 87.6854 26.072C88.8975 27.2158 89.5036 28.9156 89.5036 31.1555C89.5036 33.3955 88.8975 35 87.6854 36.1438C86.4733 37.2875 84.7348 37.8594 82.502 37.8594H62.5657V52.0933H58.738C60.1893 50.3935 62.1032 49.1226 64.4796 48.233C66.8401 47.3593 69.4238 46.9145 72.2149 46.9145C76.2819 46.9145 79.8704 47.7723 82.9645 49.5039C86.0586 51.2196 88.4669 53.6343 90.2054 56.7162C91.9279 59.798 92.8051 63.4042 92.8051 67.5028C92.8051 71.8555 91.7843 75.6841 89.7588 78.9725C87.7173 82.2768 84.8146 84.8026 81.0187 86.5978C77.2229 88.377 72.7252 89.2666 67.494 89.2666L67.4781 89.2984Z" fill="white"/>
</svg>
