<svg width="91" height="71" viewBox="0 0 91 71" fill="none" xmlns="http://www.w3.org/2000/svg">
<path d="M73.7439 69.5254C83.4267 69.5254 91.2039 61.0434 91.2039 50.6654V19.6354C91.2039 9.25739 83.4267 0.775391 73.7439 0.775391H17.9839C8.30113 0.775391 0.523926 9.25739 0.523926 19.6354V50.6654C0.523926 61.0434 8.30113 69.5254 17.9839 69.5254H73.7439Z" fill="#056DE2" stroke="#056DE2"/>
<path d="M89.4036 50.156C89.4036 59.956 82.0636 67.906 73.0136 67.906H19.1136C10.0636 67.906 2.72363 59.956 2.72363 50.156V20.166C2.72363 10.366 10.0636 2.41602 19.1136 2.41602H73.0136C82.0636 2.41602 89.4036 10.366 89.4036 20.166V50.156Z" fill="#00005B"/>
<path d="M46.3438 56.1763C39.2838 56.1763 33.4038 51.2063 33.4038 43.9263C33.4038 39.7063 35.1638 35.0463 37.4138 31.5163C39.6638 27.9363 42.4438 24.4063 45.2738 21.2463C46.4538 19.9663 47.6838 18.7363 49.4938 18.7363C51.3038 18.7363 53.3438 20.2363 53.3438 22.2163C53.3438 23.5563 52.5938 24.7263 51.7338 25.6963C51.2038 26.2863 50.6138 26.9263 50.0238 27.5163C48.5238 29.1263 47.1838 30.8863 45.8538 32.7063C46.8738 32.3863 47.6738 32.2263 48.6838 32.2263C54.9438 32.2263 59.3238 37.5263 59.3238 43.5663C59.3238 51.0563 53.7038 56.1863 46.3238 56.1863L46.3438 56.1763ZM46.3438 38.9563C43.8338 38.9563 41.7938 41.0463 41.7938 43.5563C41.7938 46.0663 43.8238 48.1563 46.3438 48.1563C48.8638 48.1563 50.9438 46.0663 50.9438 43.5563C50.9438 41.0463 48.9138 38.9563 46.3438 38.9563Z" fill="#ED1E79"/>
</svg>
