<svg width="88" height="66" viewBox="0 0 88 66" fill="none" xmlns="http://www.w3.org/2000/svg">
<path d="M87.5738 47.8357C87.5738 57.6357 80.2338 65.5857 71.1838 65.5857H17.2738C8.22379 65.5857 0.883789 57.6357 0.883789 47.8357V17.8457C0.883789 8.0457 8.22379 0.0957031 17.2738 0.0957031H71.1738C80.2238 0.0957031 87.5638 8.0457 87.5638 17.8457V47.8357H87.5738Z" fill="#00005B"/>
<path d="M54.074 23.4061L42.524 49.9861C41.664 51.9161 40.654 53.3561 38.354 53.3561C36.374 53.3561 34.184 51.6961 34.184 49.6161C34.184 49.1861 34.454 47.9561 34.614 47.5861L45.254 24.2161H34.344C32.204 24.2161 30.334 22.9361 30.334 20.6361C30.334 18.3361 32.094 16.9961 34.344 16.9961H50.334C52.844 16.9961 54.774 18.4961 54.774 21.1161C54.774 21.9761 54.394 22.6661 54.074 23.4161V23.4061Z" fill="#D4145A"/>
</svg>
