<svg width="93" height="70" viewBox="0 0 93 70" fill="none" xmlns="http://www.w3.org/2000/svg">
<path d="M74.6338 69.4062C84.3166 69.4062 92.0938 60.9242 92.0938 50.5462V19.5163C92.0938 9.13825 84.3166 0.65625 74.6338 0.65625H18.8838C9.20102 0.65625 1.42383 9.13825 1.42383 19.5163V50.5462C1.42383 60.9242 9.20102 69.4062 18.8838 69.4062H74.6338Z" fill="#056DE2" stroke="#056DE2"/>
<path d="M90.044 49.8357C90.044 59.6357 82.704 67.5857 73.654 67.5857H19.754C10.694 67.5857 3.354 59.6357 3.354 49.8357V19.8457C3.354 10.0457 10.694 2.0957 19.754 2.0957H73.654C82.704 2.0957 90.044 10.0457 90.044 19.8457V49.8357Z" fill="#00005B"/>
<path d="M45.7638 55.5667C38.7638 55.5667 32.6138 51.2867 32.6138 43.8567C32.6138 39.8467 34.2738 37.2767 37.5838 35.0867C35.3338 32.9967 34.2138 31.2367 34.2138 28.1367C34.2138 21.6167 39.7238 18.1367 45.7638 18.1367C51.8038 18.1367 57.2638 21.6167 57.2638 28.1367C57.2638 31.2367 56.1438 33.0067 53.8938 35.0867C57.2138 37.2767 58.8638 39.8467 58.8638 43.8567C58.8638 51.2867 52.7138 55.5667 45.7638 55.5667ZM45.7638 38.1267C43.1438 38.1267 41.0038 40.2667 41.0038 42.8867C41.0038 45.5067 43.1438 47.6467 45.7638 47.6467C48.3838 47.6467 50.5238 45.5067 50.5238 42.8867C50.5238 40.2667 48.3838 38.1267 45.7638 38.1267ZM45.7638 25.0267C43.7338 25.0267 42.1338 26.6367 42.1338 28.6667C42.1338 30.6967 43.7938 32.2467 45.7638 32.2467C47.7338 32.2467 49.3438 30.6367 49.3438 28.6667C49.3438 26.6967 47.7938 25.0267 45.7638 25.0267Z" fill="#F15A24"/>
</svg>
