<svg width="91" height="70" viewBox="0 0 91 70" fill="none" xmlns="http://www.w3.org/2000/svg">
<path d="M73.7439 69.4062C83.4267 69.4062 91.2039 60.9242 91.2039 50.5462V19.5163C91.2039 9.13825 83.4267 0.65625 73.7439 0.65625H17.9839C8.30113 0.65625 0.523926 9.13825 0.523926 19.5163V50.5462C0.523926 60.9242 8.30113 69.4062 17.9839 69.4062H73.7439Z" fill="#056DE2" stroke="#056DE2"/>
<path d="M89.4036 49.8357C89.4036 59.6357 82.0636 67.5857 73.0136 67.5857H19.1136C10.0636 67.5857 2.72363 59.6357 2.72363 49.8357V19.8457C2.72363 10.0457 10.0636 2.0957 19.1136 2.0957H73.0136C82.0636 2.0957 89.4036 10.0457 89.4036 19.8457V49.8357Z" fill="#00005B"/>
<path d="M54.9539 42.7769C52.7039 46.3569 49.9839 49.887 47.0939 53.047C45.9739 54.277 44.6839 55.5569 42.8639 55.5569C41.0439 55.5569 39.0139 54.0069 39.0139 52.0269C39.0139 50.6869 39.7639 49.5669 40.6139 48.6069C42.8639 46.0969 44.4639 44.277 46.4939 41.547C45.4739 41.867 44.6739 42.0269 43.6639 42.0269C37.4039 42.0269 33.0239 36.7869 33.0239 30.7469C33.0239 23.2069 38.6339 18.127 46.0139 18.127C53.3939 18.127 58.9539 23.047 58.9539 30.317C58.9539 34.597 57.1939 39.1969 54.9439 42.7769H54.9539ZM46.0139 26.147C43.5039 26.147 41.4139 28.1269 41.4139 30.6969C41.4139 33.2669 43.4439 35.297 46.0139 35.297C48.5839 35.297 50.5639 33.2069 50.5639 30.6969C50.5639 28.1869 48.5339 26.147 46.0139 26.147Z" fill="#FFFF00"/>
</svg>
