<svg width="1440" height="300" viewBox="0 0 1440 300" fill="none" xmlns="http://www.w3.org/2000/svg">
<rect width="1440" height="300" fill="#652D88"/>
<g clip-path="url(#clip0_1325_6190)">
<path d="M1163.43 250.21C1175.03 250.21 1184.43 240.808 1184.43 229.21C1184.43 217.612 1175.03 208.21 1163.43 208.21C1151.83 208.21 1142.43 217.612 1142.43 229.21C1142.43 240.808 1151.83 250.21 1163.43 250.21Z" fill="#FFBD00"/>
<path d="M1174.29 218.55H1152.18V240.66H1174.29V218.55Z" fill="#FF0000"/>
<path d="M1104.54 250.21C1116.14 250.21 1125.54 240.808 1125.54 229.21C1125.54 217.612 1116.14 208.21 1104.54 208.21C1092.94 208.21 1083.54 217.612 1083.54 229.21C1083.54 240.808 1092.94 250.21 1104.54 250.21Z" fill="#99CF16"/>
<path d="M1104.54 242.55C1111.91 242.55 1117.88 236.578 1117.88 229.21C1117.88 221.843 1111.91 215.87 1104.54 215.87C1097.17 215.87 1091.2 221.843 1091.2 229.21C1091.2 236.578 1097.17 242.55 1104.54 242.55Z" fill="#00A84E"/>
<path d="M1222.32 250.21C1233.92 250.21 1243.32 240.808 1243.32 229.21C1243.32 217.612 1233.92 208.21 1222.32 208.21C1210.72 208.21 1201.32 217.612 1201.32 229.21C1201.32 240.808 1210.72 250.21 1222.32 250.21Z" fill="#002C8D"/>
<path d="M1222.32 213.9L1208.03 238.66H1236.62L1222.32 213.9Z" fill="#2FBDEB"/>
<path d="M1281.22 250.21C1292.82 250.21 1302.22 240.808 1302.22 229.21C1302.22 217.612 1292.82 208.21 1281.22 208.21C1269.62 208.21 1260.22 217.612 1260.22 229.21C1260.22 240.808 1269.62 250.21 1281.22 250.21Z" fill="#A220DF"/>
<path d="M1271.08 240.13C1270 240.13 1269.2 239.76 1268.69 239.02C1268.18 238.28 1268.18 237.36 1268.69 236.25L1277.3 217.72C1277.71 216.82 1278.22 216.16 1278.82 215.75C1279.42 215.34 1280.12 215.13 1280.93 215.13C1281.74 215.13 1282.4 215.34 1283 215.75C1283.6 216.16 1284.11 216.82 1284.52 217.72L1293.13 236.25C1293.66 237.38 1293.68 238.31 1293.2 239.03C1292.72 239.75 1291.96 240.12 1290.92 240.12C1290 240.12 1289.29 239.91 1288.79 239.5C1288.29 239.09 1287.85 238.42 1287.46 237.49L1286.35 234.86H1275.46L1274.35 237.49C1273.94 238.41 1273.51 239.08 1273.07 239.5C1272.63 239.91 1271.96 240.12 1271.06 240.12L1271.08 240.13ZM1280.87 222.08L1277.55 230H1284.26L1280.94 222.08H1280.87Z" fill="#CA8FFF"/>
<path d="M1340.11 250.21C1351.71 250.21 1361.11 240.808 1361.11 229.21C1361.11 217.612 1351.71 208.21 1340.11 208.21C1328.51 208.21 1319.11 217.612 1319.11 229.21C1319.11 240.808 1328.51 250.21 1340.11 250.21Z" fill="#00A84E"/>
<path d="M1333.61 241.13C1331.4 241.13 1330.29 240.04 1330.29 237.84V220.03C1330.29 217.84 1331.4 216.74 1333.61 216.74H1342.05C1344.68 216.74 1346.71 217.31 1348.15 218.45C1349.59 219.59 1350.31 221.12 1350.31 223.03C1350.31 224.3 1349.99 225.4 1349.36 226.35C1348.73 227.3 1347.84 228 1346.71 228.46C1348.07 228.87 1349.12 229.57 1349.86 230.55C1350.6 231.53 1350.97 232.75 1350.97 234.2C1350.97 236.34 1350.2 238.03 1348.67 239.27C1347.14 240.5 1345.04 241.12 1342.39 241.12H1333.61V241.13ZM1336.37 226.44H1340.9C1342.05 226.44 1342.9 226.23 1343.44 225.82C1343.98 225.41 1344.25 224.77 1344.25 223.92C1344.25 223.07 1343.98 222.44 1343.44 222.04C1342.9 221.64 1342.05 221.43 1340.9 221.43H1336.37V226.44ZM1336.37 236.46H1341.52C1342.7 236.46 1343.55 236.24 1344.1 235.79C1344.64 235.34 1344.91 234.67 1344.91 233.77C1344.91 232.87 1344.64 232.2 1344.1 231.76C1343.56 231.32 1342.7 231.1 1341.52 231.1H1336.37V236.46Z" fill="#BBED16"/>
<path d="M1399 250.21C1410.6 250.21 1420 240.808 1420 229.21C1420 217.612 1410.6 208.21 1399 208.21C1387.4 208.21 1378 217.612 1378 229.21C1378 240.808 1387.4 250.21 1399 250.21Z" fill="#FF8000"/>
<path d="M1399.54 241.21C1396.84 241.21 1394.53 240.69 1392.59 239.65C1390.65 238.61 1389.17 237.15 1388.15 235.26C1387.12 233.37 1386.61 231.16 1386.61 228.62C1386.61 226.08 1387.12 223.88 1388.15 222C1389.18 220.12 1390.66 218.66 1392.59 217.63C1394.53 216.59 1396.84 216.07 1399.54 216.07C1400.6 216.07 1401.7 216.19 1402.84 216.43C1403.98 216.67 1404.99 217.03 1405.87 217.52C1406.51 217.87 1406.96 218.3 1407.22 218.83C1407.47 219.36 1407.57 219.9 1407.5 220.46C1407.43 221.01 1407.23 221.51 1406.89 221.95C1406.56 222.39 1406.13 222.68 1405.63 222.83C1405.12 222.98 1404.57 222.9 1403.97 222.61C1402.61 221.94 1401.22 221.61 1399.79 221.61C1397.65 221.61 1396.03 222.22 1394.95 223.43C1393.87 224.64 1393.32 226.38 1393.32 228.63C1393.32 230.88 1393.86 232.66 1394.95 233.87C1396.03 235.08 1397.65 235.69 1399.79 235.69C1400.39 235.69 1401.03 235.62 1401.73 235.47C1402.42 235.32 1403.1 235.08 1403.77 234.76C1404.46 234.46 1405.08 234.38 1405.62 234.52C1406.16 234.66 1406.61 234.93 1406.95 235.35C1407.3 235.76 1407.51 236.24 1407.59 236.79C1407.67 237.33 1407.59 237.87 1407.37 238.4C1407.14 238.93 1406.71 239.36 1406.09 239.68C1405.28 240.16 1404.29 240.54 1403.1 240.82C1401.91 241.1 1400.73 241.23 1399.56 241.23L1399.54 241.21Z" fill="#FFDC00"/>
<path d="M1104.54 197.47C1116.14 197.47 1125.54 188.068 1125.54 176.47C1125.54 164.872 1116.14 155.47 1104.54 155.47C1092.94 155.47 1083.54 164.872 1083.54 176.47C1083.54 188.068 1092.94 197.47 1104.54 197.47Z" fill="#FF0000"/>
<path d="M1097.86 188.82C1095.96 188.82 1095.01 187.88 1095.01 186.01C1095.01 184.14 1095.96 183.24 1097.86 183.24H1101.23V169.88L1098.95 171.27C1098.3 171.67 1097.69 171.83 1097.12 171.74C1096.55 171.65 1096.06 171.41 1095.66 171.01C1095.26 170.61 1095 170.12 1094.87 169.55C1094.74 168.98 1094.8 168.4 1095.02 167.83C1095.24 167.26 1095.69 166.77 1096.37 166.37L1101.54 163.15C1102.66 162.45 1103.85 162.1 1105.1 162.1C1106.05 162.1 1106.78 162.34 1107.31 162.83C1107.83 163.32 1108.1 164.02 1108.1 164.94V183.25H1111.09C1112.99 183.25 1113.94 184.17 1113.94 186.02C1113.94 187.87 1112.99 188.83 1111.09 188.83H1097.88L1097.86 188.82Z" fill="#FFBD00"/>
<path d="M1163.43 197.47C1175.03 197.47 1184.43 188.068 1184.43 176.47C1184.43 164.872 1175.03 155.47 1163.43 155.47C1151.83 155.47 1142.43 164.872 1142.43 176.47C1142.43 188.068 1151.83 197.47 1163.43 197.47Z" fill="#6600BD"/>
<path d="M1157.86 189.18C1156.76 189.18 1155.97 188.92 1155.48 188.41C1154.99 187.9 1154.75 187.14 1154.75 186.15C1154.75 185.45 1154.9 184.83 1155.2 184.28C1155.5 183.73 1155.91 183.19 1156.44 182.67L1162.99 175.82C1163.96 174.8 1164.66 173.91 1165.07 173.14C1165.48 172.38 1165.69 171.62 1165.69 170.88C1165.69 168.98 1164.48 168.03 1162.06 168.03C1161.46 168.03 1160.82 168.11 1160.13 168.27C1159.44 168.43 1158.73 168.71 1157.98 169.11C1157.31 169.43 1156.69 169.53 1156.15 169.39C1155.6 169.25 1155.15 168.97 1154.8 168.55C1154.45 168.13 1154.23 167.64 1154.14 167.09C1154.05 166.54 1154.14 166 1154.38 165.46C1154.63 164.92 1155.08 164.48 1155.73 164.13C1156.88 163.53 1158.07 163.09 1159.3 162.8C1160.54 162.51 1161.78 162.37 1163.02 162.37C1166.06 162.37 1168.39 163.03 1170 164.35C1171.61 165.67 1172.41 167.58 1172.41 170.08C1172.41 171.68 1172.05 173.2 1171.32 174.65C1170.6 176.1 1169.39 177.66 1167.69 179.33L1163.42 183.6H1170.87C1172.77 183.6 1173.71 184.52 1173.71 186.37C1173.71 188.22 1172.76 189.18 1170.87 189.18H1157.84H1157.86Z" fill="#E93594"/>
<path d="M1222.32 197.47C1233.92 197.47 1243.32 188.068 1243.32 176.47C1243.32 164.872 1233.92 155.47 1222.32 155.47C1210.72 155.47 1201.32 164.872 1201.32 176.47C1201.32 188.068 1210.72 197.47 1222.32 197.47Z" fill="#2FBDEB"/>
<path d="M1221.65 189.59C1220.35 189.59 1219.07 189.46 1217.81 189.22C1216.55 188.97 1215.46 188.62 1214.53 188.17C1213.76 187.8 1213.21 187.33 1212.88 186.78C1212.56 186.23 1212.42 185.67 1212.47 185.1C1212.52 184.53 1212.73 184.01 1213.09 183.57C1213.45 183.12 1213.93 182.82 1214.51 182.65C1215.1 182.49 1215.76 182.57 1216.51 182.89C1217.43 183.29 1218.28 183.56 1219.06 183.71C1219.83 183.86 1220.61 183.93 1221.38 183.93C1224.08 183.93 1225.42 183.01 1225.42 181.16C1225.42 179.46 1224.22 178.61 1221.83 178.61H1219.81C1218.86 178.61 1218.14 178.37 1217.64 177.9C1217.14 177.43 1216.89 176.75 1216.89 175.88C1216.89 175.01 1217.14 174.33 1217.64 173.86C1218.14 173.39 1218.86 173.15 1219.81 173.15H1221.16C1222.23 173.15 1223.08 172.93 1223.69 172.48C1224.3 172.03 1224.61 171.38 1224.61 170.53C1224.61 168.86 1223.45 168.02 1221.13 168.02C1220.43 168.02 1219.72 168.09 1219 168.24C1218.28 168.39 1217.5 168.65 1216.68 169.03C1216.03 169.3 1215.44 169.37 1214.9 169.22C1214.36 169.07 1213.92 168.78 1213.57 168.36C1213.22 167.94 1213.01 167.44 1212.93 166.88C1212.86 166.32 1212.95 165.78 1213.23 165.27C1213.5 164.76 1213.98 164.33 1214.65 163.98C1216.8 162.91 1219.18 162.37 1221.8 162.37C1224.74 162.37 1227.04 163.01 1228.69 164.3C1230.34 165.59 1231.16 167.36 1231.16 169.63C1231.16 170.98 1230.82 172.16 1230.15 173.19C1229.48 174.21 1228.54 174.96 1227.34 175.44C1228.81 175.86 1229.95 176.64 1230.77 177.76C1231.58 178.88 1231.99 180.24 1231.99 181.84C1231.99 184.24 1231.07 186.13 1229.24 187.51C1227.41 188.89 1224.88 189.59 1221.66 189.59H1221.65Z" fill="#0078FF"/>
<path d="M1340.11 197.47C1351.71 197.47 1361.11 188.068 1361.11 176.47C1361.11 164.872 1351.71 155.47 1340.11 155.47C1328.51 155.47 1319.11 164.872 1319.11 176.47C1319.11 188.068 1328.51 197.47 1340.11 197.47Z" fill="#FFBD00"/>
<path d="M1350.96 165.81H1328.85V187.92H1350.96V165.81Z" fill="#FF0000"/>
<path d="M1281.22 197.47C1292.82 197.47 1302.22 188.068 1302.22 176.47C1302.22 164.872 1292.82 155.47 1281.22 155.47C1269.62 155.47 1260.22 164.872 1260.22 176.47C1260.22 188.068 1269.62 197.47 1281.22 197.47Z" fill="#99CF16"/>
<path d="M1281.22 189.81C1288.59 189.81 1294.56 183.837 1294.56 176.47C1294.56 169.102 1288.59 163.13 1281.22 163.13C1273.85 163.13 1267.88 169.102 1267.88 176.47C1267.88 183.837 1273.85 189.81 1281.22 189.81Z" fill="#00A84E"/>
<path d="M1399 197.47C1410.6 197.47 1420 188.068 1420 176.47C1420 164.872 1410.6 155.47 1399 155.47C1387.4 155.47 1378 164.872 1378 176.47C1378 188.068 1387.4 197.47 1399 197.47Z" fill="#002C8D"/>
<path d="M1399 161.16L1384.7 185.92H1413.29L1399 161.16Z" fill="#2FBDEB"/>
<path d="M1222.32 144.74C1233.92 144.74 1243.32 135.338 1243.32 123.74C1243.32 112.142 1233.92 102.74 1222.32 102.74C1210.72 102.74 1201.32 112.142 1201.32 123.74C1201.32 135.338 1210.72 144.74 1222.32 144.74Z" fill="#0078FF"/>
<path d="M1222.69 107.89C1222.5 107.85 1222.31 107.83 1222.11 107.83C1221.03 107.85 1220.09 108.56 1219.78 109.59L1217.41 117.37L1209.28 117.52C1208.2 117.54 1207.26 118.25 1206.95 119.28C1206.64 120.31 1207.02 121.42 1207.9 122.04L1214.57 126.7L1212.2 134.48C1211.89 135.51 1212.27 136.62 1213.15 137.24C1213.42 137.43 1213.72 137.56 1214.03 137.63C1214.73 137.78 1215.47 137.63 1216.07 137.19L1222.56 132.29L1229.23 136.95C1229.5 137.14 1229.8 137.27 1230.11 137.34C1230.81 137.49 1231.55 137.34 1232.14 136.9C1233 136.25 1233.34 135.12 1232.99 134.11L1230.33 126.42L1236.76 121.56C1237.24 121.22 1237.6 120.7 1237.74 120.08C1238.03 118.77 1237.23 117.47 1235.94 117.14C1235.91 117.14 1235.88 117.13 1235.85 117.12C1235.79 117.11 1235.72 117.09 1235.66 117.08C1235.51 117.06 1235.36 117.05 1235.21 117.06L1227.14 117.21L1224.49 109.53C1224.2 108.7 1223.51 108.1 1222.68 107.92L1222.69 107.89Z" fill="#2FBDEB"/>
<path d="M1163.43 144.74C1175.03 144.74 1184.43 135.338 1184.43 123.74C1184.43 112.142 1175.03 102.74 1163.43 102.74C1151.83 102.74 1142.43 112.142 1142.43 123.74C1142.43 135.338 1151.83 144.74 1163.43 144.74Z" fill="#FF92FF"/>
<path d="M1163.25 117.63C1163.25 117.63 1156.66 109.52 1151.45 113.64C1142.63 120.6 1163.25 137.58 1163.25 137.58C1163.25 137.58 1183 121.52 1174.65 114.1C1168.27 108.43 1163.25 117.63 1163.25 117.63Z" fill="#FF0000"/>
<path d="M1104.54 144.74C1116.14 144.74 1125.54 135.338 1125.54 123.74C1125.54 112.142 1116.14 102.74 1104.54 102.74C1092.94 102.74 1083.54 112.142 1083.54 123.74C1083.54 135.338 1092.94 144.74 1104.54 144.74Z" fill="#FFDC00"/>
<path d="M1102.13 113.28L1103.49 125.2C1101.3 124.78 1098.49 125.69 1096.21 127.82C1092.98 130.83 1092.06 135.08 1094.14 137.31C1096.22 139.54 1100.52 138.91 1103.75 135.9C1106.25 133.57 1107.35 130.51 1106.76 128.2L1105.46 117.64C1105.46 117.64 1107.63 117.41 1111.29 115.94C1114.95 114.47 1113.35 107.56 1113.35 107.56L1102.13 113.27V113.28Z" fill="#FF8000"/>
<path d="M1281.22 144.74C1292.82 144.74 1302.22 135.338 1302.22 123.74C1302.22 112.142 1292.82 102.74 1281.22 102.74C1269.62 102.74 1260.22 112.142 1260.22 123.74C1260.22 135.338 1269.62 144.74 1281.22 144.74Z" fill="#FF0000"/>
<path d="M1274.53 136.08C1272.63 136.08 1271.68 135.14 1271.68 133.27C1271.68 131.4 1272.63 130.5 1274.53 130.5H1277.9V117.14L1275.62 118.53C1274.97 118.93 1274.36 119.09 1273.79 119C1273.22 118.91 1272.73 118.67 1272.33 118.27C1271.93 117.87 1271.67 117.38 1271.54 116.81C1271.41 116.24 1271.47 115.66 1271.69 115.09C1271.91 114.52 1272.36 114.03 1273.04 113.63L1278.21 110.41C1279.33 109.71 1280.52 109.36 1281.77 109.36C1282.72 109.36 1283.45 109.6 1283.98 110.09C1284.5 110.58 1284.77 111.28 1284.77 112.2V130.51H1287.76C1289.66 130.51 1290.61 131.43 1290.61 133.28C1290.61 135.13 1289.66 136.09 1287.76 136.09H1274.55L1274.53 136.08Z" fill="#FFBD00"/>
<path d="M1340.11 144.74C1351.71 144.74 1361.11 135.338 1361.11 123.74C1361.11 112.142 1351.71 102.74 1340.11 102.74C1328.51 102.74 1319.11 112.142 1319.11 123.74C1319.11 135.338 1328.51 144.74 1340.11 144.74Z" fill="#6600BD"/>
<path d="M1334.53 136.44C1333.43 136.44 1332.64 136.18 1332.15 135.67C1331.66 135.16 1331.42 134.4 1331.42 133.41C1331.42 132.71 1331.57 132.09 1331.87 131.54C1332.17 130.99 1332.58 130.45 1333.11 129.93L1339.66 123.08C1340.63 122.06 1341.33 121.17 1341.74 120.4C1342.15 119.64 1342.36 118.88 1342.36 118.14C1342.36 116.24 1341.15 115.29 1338.73 115.29C1338.13 115.29 1337.49 115.37 1336.8 115.53C1336.11 115.69 1335.4 115.97 1334.65 116.37C1333.98 116.69 1333.36 116.79 1332.82 116.65C1332.27 116.51 1331.82 116.23 1331.47 115.81C1331.12 115.39 1330.9 114.9 1330.81 114.35C1330.72 113.8 1330.81 113.26 1331.05 112.72C1331.3 112.18 1331.75 111.74 1332.4 111.39C1333.55 110.79 1334.74 110.35 1335.97 110.06C1337.21 109.77 1338.45 109.63 1339.69 109.63C1342.73 109.63 1345.06 110.29 1346.67 111.61C1348.28 112.93 1349.08 114.84 1349.08 117.34C1349.08 118.94 1348.72 120.46 1347.99 121.91C1347.27 123.36 1346.06 124.92 1344.36 126.59L1340.09 130.86H1347.54C1349.44 130.86 1350.38 131.78 1350.38 133.63C1350.38 135.48 1349.43 136.44 1347.54 136.44H1334.51H1334.53Z" fill="#E93594"/>
<path d="M1399 144.74C1410.6 144.74 1420 135.338 1420 123.74C1420 112.142 1410.6 102.74 1399 102.74C1387.4 102.74 1378 112.142 1378 123.74C1378 135.338 1387.4 144.74 1399 144.74Z" fill="#2FBDEB"/>
<path d="M1398.32 136.85C1397.02 136.85 1395.74 136.72 1394.48 136.48C1393.22 136.23 1392.13 135.88 1391.2 135.43C1390.43 135.06 1389.88 134.59 1389.55 134.04C1389.23 133.49 1389.09 132.93 1389.14 132.36C1389.19 131.79 1389.4 131.27 1389.76 130.83C1390.12 130.38 1390.6 130.08 1391.18 129.91C1391.77 129.75 1392.43 129.83 1393.18 130.15C1394.1 130.55 1394.95 130.82 1395.73 130.97C1396.5 131.12 1397.28 131.19 1398.05 131.19C1400.75 131.19 1402.09 130.27 1402.09 128.42C1402.09 126.72 1400.89 125.87 1398.5 125.87H1396.48C1395.53 125.87 1394.81 125.63 1394.31 125.16C1393.81 124.69 1393.56 124.01 1393.56 123.14C1393.56 122.27 1393.81 121.59 1394.31 121.12C1394.81 120.65 1395.53 120.41 1396.48 120.41H1397.83C1398.9 120.41 1399.75 120.19 1400.36 119.74C1400.97 119.29 1401.28 118.64 1401.28 117.79C1401.28 116.12 1400.12 115.28 1397.8 115.28C1397.1 115.28 1396.39 115.35 1395.67 115.5C1394.95 115.65 1394.17 115.91 1393.35 116.29C1392.7 116.56 1392.11 116.63 1391.57 116.48C1391.03 116.33 1390.59 116.04 1390.24 115.62C1389.89 115.2 1389.68 114.7 1389.6 114.14C1389.53 113.58 1389.62 113.04 1389.9 112.53C1390.17 112.02 1390.65 111.59 1391.32 111.24C1393.47 110.17 1395.85 109.63 1398.47 109.63C1401.41 109.63 1403.71 110.27 1405.36 111.56C1407.01 112.85 1407.83 114.62 1407.83 116.89C1407.83 118.24 1407.49 119.42 1406.82 120.45C1406.15 121.47 1405.21 122.22 1404.01 122.7C1405.48 123.12 1406.62 123.9 1407.44 125.02C1408.25 126.14 1408.66 127.5 1408.66 129.1C1408.66 131.5 1407.74 133.39 1405.91 134.77C1404.08 136.16 1401.55 136.85 1398.33 136.85H1398.32Z" fill="#0078FF"/>
<path d="M1103.22 92C1114.82 92 1124.22 82.598 1124.22 71C1124.22 59.402 1114.82 50 1103.22 50C1091.62 50 1082.22 59.402 1082.22 71C1082.22 82.598 1091.62 92 1103.22 92Z" fill="#A220DF"/>
<path d="M1093.08 81.9199C1092 81.9199 1091.2 81.5499 1090.69 80.8099C1090.18 80.0699 1090.18 79.1499 1090.69 78.0399L1099.3 59.5099C1099.71 58.6099 1100.22 57.9499 1100.82 57.5399C1101.42 57.1299 1102.12 56.9199 1102.93 56.9199C1103.74 56.9199 1104.4 57.1299 1105 57.5399C1105.6 57.9499 1106.11 58.6099 1106.52 59.5099L1115.13 78.0399C1115.66 79.1699 1115.68 80.0999 1115.2 80.8199C1114.72 81.5399 1113.96 81.9099 1112.92 81.9099C1112 81.9099 1111.29 81.6999 1110.79 81.2899C1110.29 80.8799 1109.85 80.2099 1109.46 79.2799L1108.35 76.6499H1097.46L1096.35 79.2799C1095.94 80.1999 1095.51 80.8699 1095.07 81.2899C1094.63 81.6999 1093.96 81.9099 1093.06 81.9099L1093.08 81.9199ZM1102.87 63.8699L1099.55 71.7899H1106.26L1102.94 63.8699H1102.87Z" fill="#CA8FFF"/>
<path d="M1162.11 92C1173.71 92 1183.11 82.598 1183.11 71C1183.11 59.402 1173.71 50 1162.11 50C1150.51 50 1141.11 59.402 1141.11 71C1141.11 82.598 1150.51 92 1162.11 92Z" fill="#00A84E"/>
<path d="M1155.61 82.92C1153.4 82.92 1152.29 81.83 1152.29 79.63V61.83C1152.29 59.64 1153.4 58.54 1155.61 58.54H1164.05C1166.68 58.54 1168.71 59.11 1170.15 60.25C1171.59 61.39 1172.31 62.92 1172.31 64.83C1172.31 66.1 1171.99 67.2 1171.36 68.15C1170.73 69.1 1169.84 69.8 1168.71 70.26C1170.07 70.67 1171.12 71.37 1171.86 72.35C1172.6 73.33 1172.97 74.55 1172.97 76C1172.97 78.14 1172.2 79.83 1170.67 81.07C1169.14 82.3 1167.04 82.92 1164.39 82.92H1155.61ZM1158.37 68.23H1162.9C1164.05 68.23 1164.9 68.02 1165.44 67.61C1165.98 67.2 1166.25 66.56 1166.25 65.71C1166.25 64.86 1165.98 64.23 1165.44 63.83C1164.9 63.43 1164.05 63.22 1162.9 63.22H1158.37V68.23ZM1158.37 78.25H1163.52C1164.7 78.25 1165.55 78.03 1166.1 77.58C1166.64 77.13 1166.91 76.46 1166.91 75.56C1166.91 74.66 1166.64 73.99 1166.1 73.55C1165.56 73.11 1164.7 72.89 1163.52 72.89H1158.37V78.25Z" fill="#BBED16"/>
<path d="M1221 92C1232.6 92 1242 82.598 1242 71C1242 59.402 1232.6 50 1221 50C1209.4 50 1200 59.402 1200 71C1200 82.598 1209.4 92 1221 92Z" fill="#FF8000"/>
<path d="M1221.54 83.0004C1218.84 83.0004 1216.53 82.4804 1214.59 81.4404C1212.65 80.4004 1211.17 78.9403 1210.15 77.0504C1209.12 75.1604 1208.61 72.9504 1208.61 70.4104C1208.61 67.8704 1209.12 65.6704 1210.15 63.7904C1211.18 61.9104 1212.66 60.4504 1214.59 59.4204C1216.53 58.3804 1218.84 57.8604 1221.54 57.8604C1222.6 57.8604 1223.7 57.9804 1224.84 58.2204C1225.98 58.4604 1226.99 58.8204 1227.87 59.3104C1228.51 59.6604 1228.96 60.0904 1229.22 60.6204C1229.47 61.1504 1229.57 61.6904 1229.5 62.2504C1229.43 62.8004 1229.23 63.3004 1228.89 63.7404C1228.56 64.1804 1228.13 64.4704 1227.63 64.6204C1227.12 64.7704 1226.57 64.6904 1225.97 64.4004C1224.61 63.7304 1223.22 63.4004 1221.79 63.4004C1219.65 63.4004 1218.03 64.0104 1216.95 65.2204C1215.87 66.4304 1215.32 68.1704 1215.32 70.4204C1215.32 72.6704 1215.86 74.4504 1216.95 75.6604C1218.03 76.8703 1219.65 77.4804 1221.79 77.4804C1222.39 77.4804 1223.03 77.4104 1223.73 77.2604C1224.42 77.1104 1225.1 76.8703 1225.77 76.5504C1226.46 76.2504 1227.08 76.1704 1227.62 76.3104C1228.16 76.4503 1228.61 76.7204 1228.95 77.1404C1229.3 77.5504 1229.51 78.0304 1229.59 78.5804C1229.67 79.1204 1229.59 79.6604 1229.37 80.1904C1229.14 80.7204 1228.71 81.1504 1228.09 81.4704C1227.28 81.9503 1226.29 82.3304 1225.1 82.6104C1223.91 82.8904 1222.73 83.0204 1221.56 83.0204L1221.54 83.0004Z" fill="#FFDC00"/>
<path d="M1397.67 92C1409.27 92 1418.67 82.598 1418.67 71C1418.67 59.402 1409.27 50 1397.67 50C1386.07 50 1376.67 59.402 1376.67 71C1376.67 82.598 1386.07 92 1397.67 92Z" fill="#0078FF"/>
<path d="M1398.03 55.1596C1397.84 55.1196 1397.65 55.0996 1397.45 55.0996C1396.37 55.1196 1395.43 55.8296 1395.12 56.8596L1392.75 64.6396L1384.62 64.7896C1383.54 64.8096 1382.6 65.5196 1382.29 66.5496C1381.98 67.5796 1382.36 68.6896 1383.24 69.3096L1389.91 73.9696L1387.54 81.7496C1387.23 82.7796 1387.61 83.8896 1388.49 84.5096C1388.76 84.6996 1389.06 84.8296 1389.37 84.8996C1390.07 85.0496 1390.81 84.8996 1391.41 84.4596L1397.9 79.5596L1404.57 84.2196C1404.84 84.4096 1405.14 84.5396 1405.45 84.6096C1406.15 84.7596 1406.89 84.6096 1407.48 84.1696C1408.34 83.5196 1408.68 82.3896 1408.33 81.3796L1405.67 73.6896L1412.1 68.8296C1412.58 68.4896 1412.94 67.9696 1413.08 67.3496C1413.37 66.0396 1412.57 64.7396 1411.28 64.4096C1411.25 64.4096 1411.22 64.3996 1411.19 64.3896C1411.13 64.3796 1411.06 64.3596 1411 64.3496C1410.85 64.3296 1410.7 64.3196 1410.55 64.3296L1402.48 64.4796L1399.83 56.7996C1399.54 55.9696 1398.85 55.3696 1398.02 55.1896L1398.03 55.1596Z" fill="#2FBDEB"/>
<path d="M1338.78 92C1350.38 92 1359.78 82.598 1359.78 71C1359.78 59.402 1350.38 50 1338.78 50C1327.18 50 1317.78 59.402 1317.78 71C1317.78 82.598 1327.18 92 1338.78 92Z" fill="#FF92FF"/>
<path d="M1338.6 64.8898C1338.6 64.8898 1332.01 56.7798 1326.8 60.8998C1317.98 67.8598 1338.6 84.8398 1338.6 84.8398C1338.6 84.8398 1358.35 68.7798 1350 61.3598C1343.62 55.6898 1338.6 64.8898 1338.6 64.8898Z" fill="#FF0000"/>
<path d="M1279.89 92C1291.49 92 1300.89 82.598 1300.89 71C1300.89 59.402 1291.49 50 1279.89 50C1268.29 50 1258.89 59.402 1258.89 71C1258.89 82.598 1268.29 92 1279.89 92Z" fill="#FFDC00"/>
<path d="M1277.48 60.5501L1278.84 72.4701C1276.65 72.0501 1273.84 72.9601 1271.56 75.0901C1268.33 78.1001 1267.41 82.3501 1269.49 84.5801C1271.57 86.8101 1275.87 86.1801 1279.1 83.1701C1281.6 80.8401 1282.7 77.7801 1282.11 75.4701L1280.81 64.9101C1280.81 64.9101 1282.98 64.6801 1286.64 63.2101C1290.3 61.7401 1288.7 54.8301 1288.7 54.8301L1277.48 60.5401V60.5501Z" fill="#FF8000"/>
<path d="M808.49 250.21C820.088 250.21 829.49 240.808 829.49 229.21C829.49 217.612 820.088 208.21 808.49 208.21C796.892 208.21 787.49 217.612 787.49 229.21C787.49 240.808 796.892 250.21 808.49 250.21Z" fill="#FFBD00"/>
<path d="M819.35 218.55H797.24V240.66H819.35V218.55Z" fill="#FF0000"/>
<path d="M749.6 250.21C761.198 250.21 770.6 240.808 770.6 229.21C770.6 217.612 761.198 208.21 749.6 208.21C738.002 208.21 728.6 217.612 728.6 229.21C728.6 240.808 738.002 250.21 749.6 250.21Z" fill="#99CF16"/>
<path d="M749.6 242.55C756.968 242.55 762.94 236.578 762.94 229.21C762.94 221.843 756.968 215.87 749.6 215.87C742.233 215.87 736.26 221.843 736.26 229.21C736.26 236.578 742.233 242.55 749.6 242.55Z" fill="#00A84E"/>
<path d="M867.38 250.21C878.978 250.21 888.38 240.808 888.38 229.21C888.38 217.612 878.978 208.21 867.38 208.21C855.782 208.21 846.38 217.612 846.38 229.21C846.38 240.808 855.782 250.21 867.38 250.21Z" fill="#002C8D"/>
<path d="M867.38 213.9L853.09 238.66H881.67L867.38 213.9Z" fill="#2FBDEB"/>
<path d="M926.27 250.21C937.868 250.21 947.27 240.808 947.27 229.21C947.27 217.612 937.868 208.21 926.27 208.21C914.672 208.21 905.27 217.612 905.27 229.21C905.27 240.808 914.672 250.21 926.27 250.21Z" fill="#A220DF"/>
<path d="M916.14 240.13C915.06 240.13 914.26 239.76 913.75 239.02C913.24 238.28 913.24 237.36 913.75 236.25L922.36 217.72C922.77 216.82 923.28 216.16 923.88 215.75C924.48 215.34 925.18 215.13 925.99 215.13C926.8 215.13 927.46 215.34 928.06 215.75C928.66 216.16 929.17 216.82 929.58 217.72L938.19 236.25C938.72 237.38 938.74 238.31 938.26 239.03C937.78 239.75 937.02 240.12 935.98 240.12C935.06 240.12 934.35 239.91 933.85 239.5C933.35 239.09 932.91 238.42 932.52 237.49L931.41 234.86H920.52L919.41 237.49C919 238.41 918.57 239.08 918.13 239.5C917.69 239.91 917.02 240.12 916.12 240.12L916.14 240.13ZM925.92 222.08L922.6 230H929.31L925.99 222.08H925.92Z" fill="#CA8FFF"/>
<path d="M985.16 250.21C996.758 250.21 1006.16 240.808 1006.16 229.21C1006.16 217.612 996.758 208.21 985.16 208.21C973.562 208.21 964.16 217.612 964.16 229.21C964.16 240.808 973.562 250.21 985.16 250.21Z" fill="#00A84E"/>
<path d="M978.66 241.13C976.45 241.13 975.34 240.04 975.34 237.84V220.03C975.34 217.84 976.45 216.74 978.66 216.74H987.1C989.73 216.74 991.76 217.31 993.2 218.45C994.64 219.59 995.36 221.12 995.36 223.03C995.36 224.3 995.04 225.4 994.41 226.35C993.78 227.3 992.89 228 991.76 228.46C993.12 228.87 994.17 229.57 994.91 230.55C995.65 231.53 996.02 232.75 996.02 234.2C996.02 236.34 995.25 238.03 993.72 239.27C992.19 240.5 990.09 241.12 987.44 241.12H978.66V241.13ZM981.43 226.44H985.96C987.11 226.44 987.96 226.23 988.5 225.82C989.04 225.41 989.31 224.77 989.31 223.92C989.31 223.07 989.04 222.44 988.5 222.04C987.96 221.64 987.11 221.43 985.96 221.43H981.43V226.44ZM981.43 236.46H986.58C987.76 236.46 988.61 236.24 989.16 235.79C989.7 235.34 989.97 234.67 989.97 233.77C989.97 232.87 989.7 232.2 989.16 231.76C988.62 231.32 987.76 231.1 986.58 231.1H981.43V236.46Z" fill="#BBED16"/>
<path d="M1044.05 250.21C1055.65 250.21 1065.05 240.808 1065.05 229.21C1065.05 217.612 1055.65 208.21 1044.05 208.21C1032.45 208.21 1023.05 217.612 1023.05 229.21C1023.05 240.808 1032.45 250.21 1044.05 250.21Z" fill="#FF8000"/>
<path d="M1044.6 241.21C1041.9 241.21 1039.59 240.69 1037.65 239.65C1035.71 238.61 1034.23 237.15 1033.21 235.26C1032.18 233.37 1031.67 231.16 1031.67 228.62C1031.67 226.08 1032.18 223.88 1033.21 222C1034.24 220.12 1035.72 218.66 1037.65 217.63C1039.59 216.59 1041.9 216.07 1044.6 216.07C1045.66 216.07 1046.76 216.19 1047.9 216.43C1049.04 216.67 1050.05 217.03 1050.93 217.52C1051.57 217.87 1052.02 218.3 1052.28 218.83C1052.53 219.36 1052.63 219.9 1052.56 220.46C1052.49 221.01 1052.29 221.51 1051.95 221.95C1051.62 222.39 1051.19 222.68 1050.69 222.83C1050.18 222.98 1049.63 222.9 1049.03 222.61C1047.67 221.94 1046.28 221.61 1044.85 221.61C1042.71 221.61 1041.09 222.22 1040.01 223.43C1038.93 224.64 1038.38 226.38 1038.38 228.63C1038.38 230.88 1038.92 232.66 1040.01 233.87C1041.09 235.08 1042.71 235.69 1044.85 235.69C1045.45 235.69 1046.09 235.62 1046.79 235.47C1047.48 235.32 1048.16 235.08 1048.83 234.76C1049.52 234.46 1050.14 234.38 1050.68 234.52C1051.22 234.66 1051.67 234.93 1052.01 235.35C1052.36 235.76 1052.57 236.24 1052.65 236.79C1052.73 237.33 1052.65 237.87 1052.43 238.4C1052.2 238.93 1051.77 239.36 1051.15 239.68C1050.34 240.16 1049.35 240.54 1048.16 240.82C1046.97 241.1 1045.79 241.23 1044.62 241.23L1044.6 241.21Z" fill="#FFDC00"/>
<path d="M749.6 197.47C761.198 197.47 770.6 188.068 770.6 176.47C770.6 164.872 761.198 155.47 749.6 155.47C738.002 155.47 728.6 164.872 728.6 176.47C728.6 188.068 738.002 197.47 749.6 197.47Z" fill="#FF0000"/>
<path d="M742.91 188.82C741.01 188.82 740.06 187.88 740.06 186.01C740.06 184.14 741.01 183.24 742.91 183.24H746.28V169.88L744 171.27C743.35 171.67 742.74 171.83 742.17 171.74C741.6 171.65 741.11 171.41 740.71 171.01C740.31 170.61 740.05 170.12 739.92 169.55C739.79 168.98 739.85 168.4 740.07 167.83C740.29 167.26 740.74 166.77 741.42 166.37L746.59 163.15C747.71 162.45 748.9 162.1 750.15 162.1C751.1 162.1 751.83 162.34 752.36 162.83C752.88 163.32 753.15 164.02 753.15 164.94V183.25H756.14C758.04 183.25 758.99 184.17 758.99 186.02C758.99 187.87 758.04 188.83 756.14 188.83H742.93L742.91 188.82Z" fill="#FFBD00"/>
<path d="M808.49 197.47C820.088 197.47 829.49 188.068 829.49 176.47C829.49 164.872 820.088 155.47 808.49 155.47C796.892 155.47 787.49 164.872 787.49 176.47C787.49 188.068 796.892 197.47 808.49 197.47Z" fill="#6600BD"/>
<path d="M802.91 189.18C801.81 189.18 801.02 188.92 800.53 188.41C800.04 187.9 799.8 187.14 799.8 186.15C799.8 185.45 799.95 184.83 800.25 184.28C800.55 183.73 800.96 183.19 801.49 182.67L808.04 175.82C809.01 174.8 809.71 173.91 810.12 173.14C810.53 172.38 810.74 171.62 810.74 170.88C810.74 168.98 809.53 168.03 807.11 168.03C806.51 168.03 805.87 168.11 805.18 168.27C804.49 168.43 803.78 168.71 803.03 169.11C802.36 169.43 801.74 169.53 801.2 169.39C800.65 169.25 800.2 168.97 799.85 168.55C799.5 168.13 799.28 167.64 799.19 167.09C799.1 166.54 799.19 166 799.43 165.46C799.68 164.92 800.13 164.48 800.78 164.13C801.93 163.53 803.12 163.09 804.35 162.8C805.59 162.51 806.83 162.37 808.07 162.37C811.11 162.37 813.44 163.03 815.05 164.35C816.66 165.67 817.46 167.58 817.46 170.08C817.46 171.68 817.1 173.2 816.37 174.65C815.65 176.1 814.44 177.66 812.74 179.33L808.47 183.6H815.92C817.82 183.6 818.76 184.52 818.76 186.37C818.76 188.22 817.81 189.18 815.92 189.18H802.89H802.91Z" fill="#E93594"/>
<path d="M867.38 197.47C878.978 197.47 888.38 188.068 888.38 176.47C888.38 164.872 878.978 155.47 867.38 155.47C855.782 155.47 846.38 164.872 846.38 176.47C846.38 188.068 855.782 197.47 867.38 197.47Z" fill="#2FBDEB"/>
<path d="M866.71 189.59C865.41 189.59 864.13 189.46 862.87 189.22C861.61 188.97 860.52 188.62 859.59 188.17C858.82 187.8 858.27 187.33 857.94 186.78C857.62 186.23 857.48 185.67 857.53 185.1C857.58 184.53 857.79 184.01 858.15 183.57C858.51 183.12 858.99 182.82 859.57 182.65C860.16 182.49 860.82 182.57 861.57 182.89C862.49 183.29 863.34 183.56 864.12 183.71C864.89 183.86 865.67 183.93 866.44 183.93C869.14 183.93 870.48 183.01 870.48 181.16C870.48 179.46 869.28 178.61 866.89 178.61H864.87C863.92 178.61 863.2 178.37 862.7 177.9C862.2 177.43 861.95 176.75 861.95 175.88C861.95 175.01 862.2 174.33 862.7 173.86C863.2 173.39 863.92 173.15 864.87 173.15H866.22C867.29 173.15 868.14 172.93 868.75 172.48C869.36 172.03 869.67 171.38 869.67 170.53C869.67 168.86 868.51 168.02 866.19 168.02C865.49 168.02 864.78 168.09 864.06 168.24C863.34 168.39 862.56 168.65 861.74 169.03C861.09 169.3 860.5 169.37 859.96 169.22C859.42 169.07 858.98 168.78 858.63 168.36C858.28 167.94 858.07 167.44 857.99 166.88C857.92 166.32 858.01 165.78 858.29 165.27C858.56 164.76 859.04 164.33 859.71 163.98C861.86 162.91 864.24 162.37 866.86 162.37C869.8 162.37 872.1 163.01 873.75 164.3C875.4 165.59 876.22 167.36 876.22 169.63C876.22 170.98 875.88 172.16 875.21 173.19C874.54 174.21 873.6 174.96 872.4 175.44C873.87 175.86 875.01 176.64 875.83 177.76C876.64 178.88 877.05 180.24 877.05 181.84C877.05 184.24 876.13 186.13 874.3 187.51C872.47 188.89 869.94 189.59 866.72 189.59H866.71Z" fill="#0078FF"/>
<path d="M985.16 197.47C996.758 197.47 1006.16 188.068 1006.16 176.47C1006.16 164.872 996.758 155.47 985.16 155.47C973.562 155.47 964.16 164.872 964.16 176.47C964.16 188.068 973.562 197.47 985.16 197.47Z" fill="#FFBD00"/>
<path d="M996.02 165.81H973.91V187.92H996.02V165.81Z" fill="#FF0000"/>
<path d="M926.27 197.47C937.868 197.47 947.27 188.068 947.27 176.47C947.27 164.872 937.868 155.47 926.27 155.47C914.672 155.47 905.27 164.872 905.27 176.47C905.27 188.068 914.672 197.47 926.27 197.47Z" fill="#99CF16"/>
<path d="M926.27 189.81C933.637 189.81 939.61 183.837 939.61 176.47C939.61 169.102 933.637 163.13 926.27 163.13C918.902 163.13 912.93 169.102 912.93 176.47C912.93 183.837 918.902 189.81 926.27 189.81Z" fill="#00A84E"/>
<path d="M1044.05 197.47C1055.65 197.47 1065.05 188.068 1065.05 176.47C1065.05 164.872 1055.65 155.47 1044.05 155.47C1032.45 155.47 1023.05 164.872 1023.05 176.47C1023.05 188.068 1032.45 197.47 1044.05 197.47Z" fill="#002C8D"/>
<path d="M1044.05 161.16L1029.76 185.92H1058.35L1044.05 161.16Z" fill="#2FBDEB"/>
<path d="M867.38 144.74C878.978 144.74 888.38 135.338 888.38 123.74C888.38 112.142 878.978 102.74 867.38 102.74C855.782 102.74 846.38 112.142 846.38 123.74C846.38 135.338 855.782 144.74 867.38 144.74Z" fill="#0078FF"/>
<path d="M867.74 107.89C867.55 107.85 867.36 107.83 867.16 107.83C866.08 107.85 865.14 108.56 864.83 109.59L862.46 117.37L854.33 117.52C853.25 117.54 852.31 118.25 852 119.28C851.69 120.31 852.07 121.42 852.95 122.04L859.62 126.7L857.25 134.48C856.94 135.51 857.32 136.62 858.2 137.24C858.47 137.43 858.77 137.56 859.08 137.63C859.78 137.78 860.52 137.63 861.12 137.19L867.61 132.29L874.28 136.95C874.55 137.14 874.85 137.27 875.16 137.34C875.86 137.49 876.6 137.34 877.19 136.9C878.05 136.25 878.39 135.12 878.04 134.11L875.38 126.42L881.81 121.56C882.29 121.22 882.65 120.7 882.79 120.08C883.08 118.77 882.28 117.47 880.99 117.14C880.96 117.14 880.93 117.13 880.9 117.12C880.84 117.11 880.77 117.09 880.71 117.08C880.56 117.06 880.41 117.05 880.26 117.06L872.19 117.21L869.54 109.53C869.25 108.7 868.56 108.1 867.73 107.92L867.74 107.89Z" fill="#2FBDEB"/>
<path d="M808.49 144.74C820.088 144.74 829.49 135.338 829.49 123.74C829.49 112.142 820.088 102.74 808.49 102.74C796.892 102.74 787.49 112.142 787.49 123.74C787.49 135.338 796.892 144.74 808.49 144.74Z" fill="#FF92FF"/>
<path d="M808.31 117.63C808.31 117.63 801.72 109.52 796.51 113.64C787.69 120.6 808.31 137.58 808.31 137.58C808.31 137.58 828.06 121.52 819.71 114.1C813.33 108.43 808.31 117.63 808.31 117.63Z" fill="#FF0000"/>
<path d="M749.6 144.74C761.198 144.74 770.6 135.338 770.6 123.74C770.6 112.142 761.198 102.74 749.6 102.74C738.002 102.74 728.6 112.142 728.6 123.74C728.6 135.338 738.002 144.74 749.6 144.74Z" fill="#FFDC00"/>
<path d="M747.18 113.28L748.54 125.2C746.35 124.78 743.54 125.69 741.26 127.82C738.03 130.83 737.11 135.08 739.19 137.31C741.27 139.54 745.57 138.91 748.8 135.9C751.3 133.57 752.4 130.51 751.81 128.2L750.51 117.64C750.51 117.64 752.68 117.41 756.34 115.94C760 114.47 758.4 107.56 758.4 107.56L747.18 113.27V113.28Z" fill="#FF8000"/>
<path d="M926.27 144.74C937.868 144.74 947.27 135.338 947.27 123.74C947.27 112.142 937.868 102.74 926.27 102.74C914.672 102.74 905.27 112.142 905.27 123.74C905.27 135.338 914.672 144.74 926.27 144.74Z" fill="#FF0000"/>
<path d="M919.59 136.08C917.69 136.08 916.74 135.14 916.74 133.27C916.74 131.4 917.69 130.5 919.59 130.5H922.96V117.14L920.68 118.53C920.03 118.93 919.42 119.09 918.85 119C918.28 118.91 917.79 118.67 917.39 118.27C916.99 117.87 916.73 117.38 916.6 116.81C916.47 116.24 916.53 115.66 916.75 115.09C916.97 114.52 917.42 114.03 918.1 113.63L923.27 110.41C924.39 109.71 925.58 109.36 926.83 109.36C927.78 109.36 928.51 109.6 929.04 110.09C929.56 110.58 929.83 111.28 929.83 112.2V130.51H932.82C934.72 130.51 935.67 131.43 935.67 133.28C935.67 135.13 934.72 136.09 932.82 136.09H919.61L919.59 136.08Z" fill="#FFBD00"/>
<path d="M985.16 144.74C996.758 144.74 1006.16 135.338 1006.16 123.74C1006.16 112.142 996.758 102.74 985.16 102.74C973.562 102.74 964.16 112.142 964.16 123.74C964.16 135.338 973.562 144.74 985.16 144.74Z" fill="#6600BD"/>
<path d="M979.59 136.44C978.49 136.44 977.7 136.18 977.21 135.67C976.72 135.16 976.48 134.4 976.48 133.41C976.48 132.71 976.63 132.09 976.93 131.54C977.23 130.99 977.64 130.45 978.17 129.93L984.72 123.08C985.69 122.06 986.39 121.17 986.8 120.4C987.21 119.64 987.42 118.88 987.42 118.14C987.42 116.24 986.21 115.29 983.79 115.29C983.19 115.29 982.55 115.37 981.86 115.53C981.17 115.69 980.46 115.97 979.71 116.37C979.04 116.69 978.42 116.79 977.88 116.65C977.33 116.51 976.88 116.23 976.53 115.81C976.18 115.39 975.96 114.9 975.87 114.35C975.78 113.8 975.87 113.26 976.11 112.72C976.36 112.18 976.81 111.74 977.46 111.39C978.61 110.79 979.8 110.35 981.03 110.06C982.27 109.77 983.51 109.63 984.75 109.63C987.79 109.63 990.12 110.29 991.73 111.61C993.34 112.93 994.14 114.84 994.14 117.34C994.14 118.94 993.78 120.46 993.05 121.91C992.33 123.36 991.12 124.92 989.42 126.59L985.15 130.86H992.6C994.5 130.86 995.44 131.78 995.44 133.63C995.44 135.48 994.49 136.44 992.6 136.44H979.57H979.59Z" fill="#E93594"/>
<path d="M1044.05 144.74C1055.65 144.74 1065.05 135.338 1065.05 123.74C1065.05 112.142 1055.65 102.74 1044.05 102.74C1032.45 102.74 1023.05 112.142 1023.05 123.74C1023.05 135.338 1032.45 144.74 1044.05 144.74Z" fill="#2FBDEB"/>
<path d="M1043.38 136.85C1042.08 136.85 1040.8 136.72 1039.54 136.48C1038.28 136.23 1037.19 135.88 1036.26 135.43C1035.49 135.06 1034.94 134.59 1034.61 134.04C1034.29 133.49 1034.15 132.93 1034.2 132.36C1034.25 131.79 1034.46 131.27 1034.82 130.83C1035.18 130.38 1035.66 130.08 1036.24 129.91C1036.83 129.75 1037.49 129.83 1038.24 130.15C1039.16 130.55 1040.01 130.82 1040.79 130.97C1041.56 131.12 1042.34 131.19 1043.11 131.19C1045.81 131.19 1047.15 130.27 1047.15 128.42C1047.15 126.72 1045.95 125.87 1043.56 125.87H1041.54C1040.59 125.87 1039.87 125.63 1039.37 125.16C1038.87 124.69 1038.62 124.01 1038.62 123.14C1038.62 122.27 1038.87 121.59 1039.37 121.12C1039.87 120.65 1040.59 120.41 1041.54 120.41H1042.89C1043.96 120.41 1044.81 120.19 1045.42 119.74C1046.03 119.29 1046.34 118.64 1046.34 117.79C1046.34 116.12 1045.18 115.28 1042.86 115.28C1042.16 115.28 1041.45 115.35 1040.73 115.5C1040.01 115.65 1039.23 115.91 1038.41 116.29C1037.76 116.56 1037.17 116.63 1036.63 116.48C1036.09 116.33 1035.65 116.04 1035.3 115.62C1034.95 115.2 1034.74 114.7 1034.66 114.14C1034.59 113.58 1034.68 113.04 1034.96 112.53C1035.23 112.02 1035.71 111.59 1036.38 111.24C1038.53 110.17 1040.91 109.63 1043.53 109.63C1046.47 109.63 1048.77 110.27 1050.42 111.56C1052.07 112.85 1052.89 114.62 1052.89 116.89C1052.89 118.24 1052.55 119.42 1051.88 120.45C1051.21 121.47 1050.27 122.22 1049.07 122.7C1050.54 123.12 1051.68 123.9 1052.5 125.02C1053.31 126.14 1053.72 127.5 1053.72 129.1C1053.72 131.5 1052.8 133.39 1050.97 134.77C1049.14 136.16 1046.61 136.85 1043.39 136.85H1043.38Z" fill="#0078FF"/>
<path d="M748.27 92C759.868 92 769.27 82.598 769.27 71C769.27 59.402 759.868 50 748.27 50C736.672 50 727.27 59.402 727.27 71C727.27 82.598 736.672 92 748.27 92Z" fill="#A220DF"/>
<path d="M738.14 81.9199C737.06 81.9199 736.26 81.5499 735.75 80.8099C735.24 80.0699 735.24 79.1499 735.75 78.0399L744.36 59.5099C744.77 58.6099 745.28 57.9499 745.88 57.5399C746.48 57.1299 747.18 56.9199 747.99 56.9199C748.8 56.9199 749.46 57.1299 750.06 57.5399C750.66 57.9499 751.17 58.6099 751.58 59.5099L760.19 78.0399C760.72 79.1699 760.74 80.0999 760.26 80.8199C759.78 81.5399 759.02 81.9099 757.98 81.9099C757.06 81.9099 756.35 81.6999 755.85 81.2899C755.35 80.8799 754.91 80.2099 754.52 79.2799L753.41 76.6499H742.52L741.41 79.2799C741 80.1999 740.57 80.8699 740.13 81.2899C739.69 81.6999 739.02 81.9099 738.12 81.9099L738.14 81.9199ZM747.93 63.8699L744.61 71.7899H751.32L748 63.8699H747.93Z" fill="#CA8FFF"/>
<path d="M807.16 92C818.758 92 828.16 82.598 828.16 71C828.16 59.402 818.758 50 807.16 50C795.562 50 786.16 59.402 786.16 71C786.16 82.598 795.562 92 807.16 92Z" fill="#00A84E"/>
<path d="M800.66 82.92C798.45 82.92 797.34 81.83 797.34 79.63V61.83C797.34 59.64 798.45 58.54 800.66 58.54H809.1C811.73 58.54 813.76 59.11 815.2 60.25C816.64 61.39 817.36 62.92 817.36 64.83C817.36 66.1 817.04 67.2 816.41 68.15C815.78 69.1 814.89 69.8 813.76 70.26C815.12 70.67 816.17 71.37 816.91 72.35C817.65 73.33 818.02 74.55 818.02 76C818.02 78.14 817.25 79.83 815.72 81.07C814.19 82.3 812.09 82.92 809.44 82.92H800.66ZM803.43 68.23H807.96C809.11 68.23 809.96 68.02 810.5 67.61C811.04 67.2 811.31 66.56 811.31 65.71C811.31 64.86 811.04 64.23 810.5 63.83C809.96 63.43 809.11 63.22 807.96 63.22H803.43V68.23ZM803.43 78.25H808.58C809.76 78.25 810.61 78.03 811.16 77.58C811.7 77.13 811.97 76.46 811.97 75.56C811.97 74.66 811.7 73.99 811.16 73.55C810.62 73.11 809.76 72.89 808.58 72.89H803.43V78.25Z" fill="#BBED16"/>
<path d="M866.06 92C877.658 92 887.06 82.598 887.06 71C887.06 59.402 877.658 50 866.06 50C854.462 50 845.06 59.402 845.06 71C845.06 82.598 854.462 92 866.06 92Z" fill="#FF8000"/>
<path d="M866.6 83.0004C863.9 83.0004 861.59 82.4804 859.65 81.4404C857.71 80.4004 856.23 78.9403 855.21 77.0504C854.18 75.1604 853.67 72.9504 853.67 70.4104C853.67 67.8704 854.18 65.6704 855.21 63.7904C856.24 61.9104 857.72 60.4504 859.65 59.4204C861.59 58.3804 863.9 57.8604 866.6 57.8604C867.66 57.8604 868.76 57.9804 869.9 58.2204C871.04 58.4604 872.05 58.8204 872.93 59.3104C873.57 59.6604 874.02 60.0904 874.28 60.6204C874.53 61.1504 874.63 61.6904 874.56 62.2504C874.49 62.8004 874.29 63.3004 873.95 63.7404C873.62 64.1804 873.19 64.4704 872.69 64.6204C872.18 64.7704 871.63 64.6904 871.03 64.4004C869.67 63.7304 868.28 63.4004 866.85 63.4004C864.71 63.4004 863.09 64.0104 862.01 65.2204C860.93 66.4304 860.38 68.1704 860.38 70.4204C860.38 72.6704 860.92 74.4504 862.01 75.6604C863.09 76.8703 864.71 77.4804 866.85 77.4804C867.45 77.4804 868.09 77.4104 868.79 77.2604C869.48 77.1104 870.16 76.8703 870.83 76.5504C871.52 76.2504 872.14 76.1704 872.68 76.3104C873.22 76.4503 873.67 76.7204 874.01 77.1404C874.36 77.5504 874.57 78.0304 874.65 78.5804C874.73 79.1204 874.65 79.6604 874.43 80.1904C874.2 80.7204 873.77 81.1504 873.15 81.4704C872.34 81.9503 871.35 82.3304 870.16 82.6104C868.97 82.8904 867.79 83.0204 866.62 83.0204L866.6 83.0004Z" fill="#FFDC00"/>
<path d="M1042.73 92C1054.33 92 1063.73 82.598 1063.73 71C1063.73 59.402 1054.33 50 1042.73 50C1031.13 50 1021.73 59.402 1021.73 71C1021.73 82.598 1031.13 92 1042.73 92Z" fill="#0078FF"/>
<path d="M1043.09 55.1596C1042.9 55.1196 1042.71 55.0996 1042.51 55.0996C1041.43 55.1196 1040.49 55.8296 1040.18 56.8596L1037.81 64.6396L1029.68 64.7896C1028.6 64.8096 1027.66 65.5196 1027.35 66.5496C1027.04 67.5796 1027.42 68.6896 1028.3 69.3096L1034.97 73.9696L1032.6 81.7496C1032.29 82.7796 1032.67 83.8896 1033.55 84.5096C1033.82 84.6996 1034.12 84.8296 1034.43 84.8996C1035.13 85.0496 1035.87 84.8996 1036.47 84.4596L1042.96 79.5596L1049.63 84.2196C1049.9 84.4096 1050.2 84.5396 1050.51 84.6096C1051.21 84.7596 1051.95 84.6096 1052.54 84.1696C1053.4 83.5196 1053.74 82.3896 1053.39 81.3796L1050.73 73.6896L1057.16 68.8296C1057.64 68.4896 1058 67.9696 1058.14 67.3496C1058.43 66.0396 1057.63 64.7396 1056.34 64.4096C1056.31 64.4096 1056.28 64.3996 1056.25 64.3896C1056.19 64.3796 1056.12 64.3596 1056.06 64.3496C1055.91 64.3296 1055.76 64.3196 1055.61 64.3296L1047.54 64.4796L1044.89 56.7996C1044.6 55.9696 1043.91 55.3696 1043.08 55.1896L1043.09 55.1596Z" fill="#2FBDEB"/>
<path d="M983.84 92C995.438 92 1004.84 82.598 1004.84 71C1004.84 59.402 995.438 50 983.84 50C972.242 50 962.84 59.402 962.84 71C962.84 82.598 972.242 92 983.84 92Z" fill="#FF92FF"/>
<path d="M983.66 64.8898C983.66 64.8898 977.07 56.7798 971.86 60.8998C963.04 67.8598 983.66 84.8398 983.66 84.8398C983.66 84.8398 1003.41 68.7798 995.06 61.3598C988.68 55.6898 983.66 64.8898 983.66 64.8898Z" fill="#FF0000"/>
<path d="M924.95 92C936.548 92 945.95 82.598 945.95 71C945.95 59.402 936.548 50 924.95 50C913.352 50 903.95 59.402 903.95 71C903.95 82.598 913.352 92 924.95 92Z" fill="#FFDC00"/>
<path d="M922.53 60.5501L923.89 72.4701C921.7 72.0501 918.89 72.9601 916.61 75.0901C913.38 78.1001 912.46 82.3501 914.54 84.5801C916.62 86.8101 920.92 86.1801 924.15 83.1701C926.65 80.8401 927.75 77.7801 927.16 75.4701L925.86 64.9101C925.86 64.9101 928.03 64.6801 931.69 63.2101C935.35 61.7401 933.75 54.8301 933.75 54.8301L922.53 60.5401V60.5501Z" fill="#FF8000"/>
<path d="M455.87 250.21C467.468 250.21 476.87 240.808 476.87 229.21C476.87 217.612 467.468 208.21 455.87 208.21C444.272 208.21 434.87 217.612 434.87 229.21C434.87 240.808 444.272 250.21 455.87 250.21Z" fill="#FFBD00"/>
<path d="M466.73 218.55H444.62V240.66H466.73V218.55Z" fill="#FF0000"/>
<path d="M396.98 250.21C408.578 250.21 417.98 240.808 417.98 229.21C417.98 217.612 408.578 208.21 396.98 208.21C385.382 208.21 375.98 217.612 375.98 229.21C375.98 240.808 385.382 250.21 396.98 250.21Z" fill="#99CF16"/>
<path d="M396.98 242.55C404.347 242.55 410.32 236.578 410.32 229.21C410.32 221.843 404.347 215.87 396.98 215.87C389.612 215.87 383.64 221.843 383.64 229.21C383.64 236.578 389.612 242.55 396.98 242.55Z" fill="#00A84E"/>
<path d="M514.76 250.21C526.358 250.21 535.76 240.808 535.76 229.21C535.76 217.612 526.358 208.21 514.76 208.21C503.162 208.21 493.76 217.612 493.76 229.21C493.76 240.808 503.162 250.21 514.76 250.21Z" fill="#002C8D"/>
<path d="M514.76 213.9L500.47 238.66H529.06L514.76 213.9Z" fill="#2FBDEB"/>
<path d="M573.65 250.21C585.248 250.21 594.65 240.808 594.65 229.21C594.65 217.612 585.248 208.21 573.65 208.21C562.052 208.21 552.65 217.612 552.65 229.21C552.65 240.808 562.052 250.21 573.65 250.21Z" fill="#A220DF"/>
<path d="M563.52 240.13C562.44 240.13 561.64 239.76 561.13 239.02C560.62 238.28 560.62 237.36 561.13 236.25L569.74 217.72C570.15 216.82 570.66 216.16 571.26 215.75C571.86 215.34 572.56 215.13 573.37 215.13C574.18 215.13 574.84 215.34 575.44 215.75C576.04 216.16 576.55 216.82 576.96 217.72L585.57 236.25C586.1 237.38 586.12 238.31 585.64 239.03C585.16 239.75 584.4 240.12 583.36 240.12C582.44 240.12 581.73 239.91 581.23 239.5C580.73 239.09 580.29 238.42 579.9 237.49L578.79 234.86H567.9L566.79 237.49C566.38 238.41 565.95 239.08 565.51 239.5C565.07 239.91 564.4 240.12 563.5 240.12L563.52 240.13ZM573.31 222.08L569.99 230H576.7L573.38 222.08H573.31Z" fill="#CA8FFF"/>
<path d="M632.54 250.21C644.138 250.21 653.54 240.808 653.54 229.21C653.54 217.612 644.138 208.21 632.54 208.21C620.942 208.21 611.54 217.612 611.54 229.21C611.54 240.808 620.942 250.21 632.54 250.21Z" fill="#00A84E"/>
<path d="M626.04 241.13C623.83 241.13 622.72 240.04 622.72 237.84V220.03C622.72 217.84 623.83 216.74 626.04 216.74H634.48C637.11 216.74 639.14 217.31 640.58 218.45C642.02 219.59 642.74 221.12 642.74 223.03C642.74 224.3 642.42 225.4 641.79 226.35C641.16 227.3 640.27 228 639.14 228.46C640.5 228.87 641.55 229.57 642.29 230.55C643.03 231.53 643.4 232.75 643.4 234.2C643.4 236.34 642.63 238.03 641.1 239.27C639.57 240.5 637.47 241.12 634.82 241.12H626.04V241.13ZM628.81 226.44H633.34C634.49 226.44 635.34 226.23 635.88 225.82C636.42 225.41 636.69 224.77 636.69 223.92C636.69 223.07 636.42 222.44 635.88 222.04C635.34 221.64 634.49 221.43 633.34 221.43H628.81V226.44ZM628.81 236.46H633.96C635.14 236.46 635.99 236.24 636.54 235.79C637.08 235.34 637.35 234.67 637.35 233.77C637.35 232.87 637.08 232.2 636.54 231.76C636 231.32 635.14 231.1 633.96 231.1H628.81V236.46Z" fill="#BBED16"/>
<path d="M691.44 250.21C703.038 250.21 712.44 240.808 712.44 229.21C712.44 217.612 703.038 208.21 691.44 208.21C679.842 208.21 670.44 217.612 670.44 229.21C670.44 240.808 679.842 250.21 691.44 250.21Z" fill="#FF8000"/>
<path d="M691.98 241.21C689.28 241.21 686.97 240.69 685.03 239.65C683.09 238.61 681.61 237.15 680.59 235.26C679.56 233.37 679.05 231.16 679.05 228.62C679.05 226.08 679.56 223.88 680.59 222C681.62 220.12 683.1 218.66 685.03 217.63C686.97 216.59 689.28 216.07 691.98 216.07C693.04 216.07 694.14 216.19 695.28 216.43C696.42 216.67 697.43 217.03 698.31 217.52C698.95 217.87 699.4 218.3 699.66 218.83C699.91 219.36 700.01 219.9 699.94 220.46C699.87 221.01 699.67 221.51 699.33 221.95C699 222.39 698.57 222.68 698.07 222.83C697.56 222.98 697.01 222.9 696.41 222.61C695.05 221.94 693.66 221.61 692.23 221.61C690.09 221.61 688.47 222.22 687.39 223.43C686.31 224.64 685.76 226.38 685.76 228.63C685.76 230.88 686.3 232.66 687.39 233.87C688.47 235.08 690.09 235.69 692.23 235.69C692.83 235.69 693.47 235.62 694.17 235.47C694.86 235.32 695.54 235.08 696.21 234.76C696.9 234.46 697.52 234.38 698.06 234.52C698.6 234.66 699.05 234.93 699.39 235.35C699.74 235.76 699.95 236.24 700.03 236.79C700.11 237.33 700.03 237.87 699.81 238.4C699.58 238.93 699.15 239.36 698.53 239.68C697.72 240.16 696.73 240.54 695.54 240.82C694.35 241.1 693.17 241.23 692 241.23L691.98 241.21Z" fill="#FFDC00"/>
<path d="M396.98 197.47C408.578 197.47 417.98 188.068 417.98 176.47C417.98 164.872 408.578 155.47 396.98 155.47C385.382 155.47 375.98 164.872 375.98 176.47C375.98 188.068 385.382 197.47 396.98 197.47Z" fill="#FF0000"/>
<path d="M390.3 188.82C388.4 188.82 387.45 187.88 387.45 186.01C387.45 184.14 388.4 183.24 390.3 183.24H393.67V169.88L391.39 171.27C390.74 171.67 390.13 171.83 389.56 171.74C388.99 171.65 388.5 171.41 388.1 171.01C387.7 170.61 387.44 170.12 387.31 169.55C387.18 168.98 387.24 168.4 387.46 167.83C387.68 167.26 388.13 166.77 388.81 166.37L393.98 163.15C395.1 162.45 396.29 162.1 397.54 162.1C398.49 162.1 399.22 162.34 399.75 162.83C400.27 163.32 400.54 164.02 400.54 164.94V183.25H403.53C405.43 183.25 406.38 184.17 406.38 186.02C406.38 187.87 405.43 188.83 403.53 188.83H390.32L390.3 188.82Z" fill="#FFBD00"/>
<path d="M455.87 197.47C467.468 197.47 476.87 188.068 476.87 176.47C476.87 164.872 467.468 155.47 455.87 155.47C444.272 155.47 434.87 164.872 434.87 176.47C434.87 188.068 444.272 197.47 455.87 197.47Z" fill="#6600BD"/>
<path d="M450.29 189.18C449.19 189.18 448.4 188.92 447.91 188.41C447.42 187.9 447.18 187.14 447.18 186.15C447.18 185.45 447.33 184.83 447.63 184.28C447.93 183.73 448.34 183.19 448.87 182.67L455.42 175.82C456.39 174.8 457.09 173.91 457.5 173.14C457.91 172.38 458.12 171.62 458.12 170.88C458.12 168.98 456.91 168.03 454.49 168.03C453.89 168.03 453.25 168.11 452.56 168.27C451.87 168.43 451.16 168.71 450.41 169.11C449.74 169.43 449.12 169.53 448.58 169.39C448.03 169.25 447.58 168.97 447.23 168.55C446.88 168.13 446.66 167.64 446.57 167.09C446.48 166.54 446.57 166 446.81 165.46C447.06 164.92 447.51 164.48 448.16 164.13C449.31 163.53 450.5 163.09 451.73 162.8C452.97 162.51 454.21 162.37 455.45 162.37C458.49 162.37 460.82 163.03 462.43 164.35C464.04 165.67 464.84 167.58 464.84 170.08C464.84 171.68 464.48 173.2 463.75 174.65C463.03 176.1 461.82 177.66 460.12 179.33L455.85 183.6H463.3C465.2 183.6 466.14 184.52 466.14 186.37C466.14 188.22 465.19 189.18 463.3 189.18H450.27H450.29Z" fill="#E93594"/>
<path d="M514.76 197.47C526.358 197.47 535.76 188.068 535.76 176.47C535.76 164.872 526.358 155.47 514.76 155.47C503.162 155.47 493.76 164.872 493.76 176.47C493.76 188.068 503.162 197.47 514.76 197.47Z" fill="#2FBDEB"/>
<path d="M514.09 189.59C512.79 189.59 511.51 189.46 510.25 189.22C508.99 188.97 507.9 188.62 506.97 188.17C506.2 187.8 505.65 187.33 505.32 186.78C505 186.23 504.86 185.67 504.91 185.1C504.96 184.53 505.17 184.01 505.53 183.57C505.89 183.12 506.37 182.82 506.95 182.65C507.54 182.49 508.2 182.57 508.95 182.89C509.87 183.29 510.72 183.56 511.5 183.71C512.27 183.86 513.05 183.93 513.82 183.93C516.52 183.93 517.86 183.01 517.86 181.16C517.86 179.46 516.66 178.61 514.27 178.61H512.25C511.3 178.61 510.58 178.37 510.08 177.9C509.58 177.43 509.33 176.75 509.33 175.88C509.33 175.01 509.58 174.33 510.08 173.86C510.58 173.39 511.3 173.15 512.25 173.15H513.6C514.67 173.15 515.52 172.93 516.13 172.48C516.74 172.03 517.05 171.38 517.05 170.53C517.05 168.86 515.89 168.02 513.57 168.02C512.87 168.02 512.16 168.09 511.44 168.24C510.72 168.39 509.94 168.65 509.12 169.03C508.47 169.3 507.88 169.37 507.34 169.22C506.8 169.07 506.36 168.78 506.01 168.36C505.66 167.94 505.45 167.44 505.37 166.88C505.3 166.32 505.39 165.78 505.67 165.27C505.94 164.76 506.42 164.33 507.09 163.98C509.24 162.91 511.62 162.37 514.24 162.37C517.18 162.37 519.48 163.01 521.13 164.3C522.78 165.59 523.6 167.36 523.6 169.63C523.6 170.98 523.26 172.16 522.59 173.19C521.92 174.21 520.98 174.96 519.78 175.44C521.25 175.86 522.39 176.64 523.21 177.76C524.02 178.88 524.43 180.24 524.43 181.84C524.43 184.24 523.51 186.13 521.68 187.51C519.85 188.89 517.32 189.59 514.1 189.59H514.09Z" fill="#0078FF"/>
<path d="M632.54 197.47C644.138 197.47 653.54 188.068 653.54 176.47C653.54 164.872 644.138 155.47 632.54 155.47C620.942 155.47 611.54 164.872 611.54 176.47C611.54 188.068 620.942 197.47 632.54 197.47Z" fill="#FFBD00"/>
<path d="M643.4 165.81H621.29V187.92H643.4V165.81Z" fill="#FF0000"/>
<path d="M573.65 197.47C585.248 197.47 594.65 188.068 594.65 176.47C594.65 164.872 585.248 155.47 573.65 155.47C562.052 155.47 552.65 164.872 552.65 176.47C552.65 188.068 562.052 197.47 573.65 197.47Z" fill="#99CF16"/>
<path d="M573.65 189.81C581.018 189.81 586.99 183.837 586.99 176.47C586.99 169.102 581.018 163.13 573.65 163.13C566.283 163.13 560.31 169.102 560.31 176.47C560.31 183.837 566.283 189.81 573.65 189.81Z" fill="#00A84E"/>
<path d="M691.44 197.47C703.038 197.47 712.44 188.068 712.44 176.47C712.44 164.872 703.038 155.47 691.44 155.47C679.842 155.47 670.44 164.872 670.44 176.47C670.44 188.068 679.842 197.47 691.44 197.47Z" fill="#002C8D"/>
<path d="M691.44 161.16L677.14 185.92H705.73L691.44 161.16Z" fill="#2FBDEB"/>
<path d="M514.76 144.74C526.358 144.74 535.76 135.338 535.76 123.74C535.76 112.142 526.358 102.74 514.76 102.74C503.162 102.74 493.76 112.142 493.76 123.74C493.76 135.338 503.162 144.74 514.76 144.74Z" fill="#0078FF"/>
<path d="M515.12 107.89C514.93 107.85 514.74 107.83 514.54 107.83C513.46 107.85 512.52 108.56 512.21 109.59L509.84 117.37L501.71 117.52C500.63 117.54 499.69 118.25 499.38 119.28C499.07 120.31 499.45 121.42 500.33 122.04L507 126.7L504.63 134.48C504.32 135.51 504.7 136.62 505.58 137.24C505.85 137.43 506.15 137.56 506.46 137.63C507.16 137.78 507.9 137.63 508.5 137.19L514.99 132.29L521.66 136.95C521.93 137.14 522.23 137.27 522.54 137.34C523.24 137.49 523.98 137.34 524.57 136.9C525.43 136.25 525.77 135.12 525.42 134.11L522.76 126.42L529.19 121.56C529.67 121.22 530.03 120.7 530.17 120.08C530.46 118.77 529.66 117.47 528.37 117.14C528.34 117.14 528.31 117.13 528.28 117.12C528.22 117.11 528.15 117.09 528.09 117.08C527.94 117.06 527.79 117.05 527.64 117.06L519.57 117.21L516.92 109.53C516.63 108.7 515.94 108.1 515.11 107.92L515.12 107.89Z" fill="#2FBDEB"/>
<path d="M455.87 144.74C467.468 144.74 476.87 135.338 476.87 123.74C476.87 112.142 467.468 102.74 455.87 102.74C444.272 102.74 434.87 112.142 434.87 123.74C434.87 135.338 444.272 144.74 455.87 144.74Z" fill="#FF92FF"/>
<path d="M455.69 117.63C455.69 117.63 449.1 109.52 443.89 113.64C435.07 120.6 455.69 137.58 455.69 137.58C455.69 137.58 475.44 121.52 467.09 114.1C460.71 108.43 455.69 117.63 455.69 117.63Z" fill="#FF0000"/>
<path d="M396.98 144.74C408.578 144.74 417.98 135.338 417.98 123.74C417.98 112.142 408.578 102.74 396.98 102.74C385.382 102.74 375.98 112.142 375.98 123.74C375.98 135.338 385.382 144.74 396.98 144.74Z" fill="#FFDC00"/>
<path d="M394.56 113.28L395.92 125.2C393.73 124.78 390.92 125.69 388.64 127.82C385.41 130.83 384.49 135.08 386.57 137.31C388.65 139.54 392.95 138.91 396.18 135.9C398.68 133.57 399.78 130.51 399.19 128.2L397.89 117.64C397.89 117.64 400.06 117.41 403.72 115.94C407.38 114.47 405.78 107.56 405.78 107.56L394.56 113.27V113.28Z" fill="#FF8000"/>
<path d="M573.65 144.74C585.248 144.74 594.65 135.338 594.65 123.74C594.65 112.142 585.248 102.74 573.65 102.74C562.052 102.74 552.65 112.142 552.65 123.74C552.65 135.338 562.052 144.74 573.65 144.74Z" fill="#FF0000"/>
<path d="M566.97 136.08C565.07 136.08 564.12 135.14 564.12 133.27C564.12 131.4 565.07 130.5 566.97 130.5H570.34V117.14L568.06 118.53C567.41 118.93 566.8 119.09 566.23 119C565.66 118.91 565.17 118.67 564.77 118.27C564.37 117.87 564.11 117.38 563.98 116.81C563.85 116.24 563.91 115.66 564.13 115.09C564.35 114.52 564.8 114.03 565.48 113.63L570.65 110.41C571.77 109.71 572.96 109.36 574.21 109.36C575.16 109.36 575.89 109.6 576.42 110.09C576.94 110.58 577.21 111.28 577.21 112.2V130.51H580.2C582.1 130.51 583.05 131.43 583.05 133.28C583.05 135.13 582.1 136.09 580.2 136.09H566.99L566.97 136.08Z" fill="#FFBD00"/>
<path d="M632.54 144.74C644.138 144.74 653.54 135.338 653.54 123.74C653.54 112.142 644.138 102.74 632.54 102.74C620.942 102.74 611.54 112.142 611.54 123.74C611.54 135.338 620.942 144.74 632.54 144.74Z" fill="#6600BD"/>
<path d="M626.97 136.44C625.87 136.44 625.08 136.18 624.59 135.67C624.1 135.16 623.86 134.4 623.86 133.41C623.86 132.71 624.01 132.09 624.31 131.54C624.61 130.99 625.02 130.45 625.55 129.93L632.1 123.08C633.07 122.06 633.77 121.17 634.18 120.4C634.59 119.64 634.8 118.88 634.8 118.14C634.8 116.24 633.59 115.29 631.17 115.29C630.57 115.29 629.93 115.37 629.24 115.53C628.55 115.69 627.84 115.97 627.09 116.37C626.42 116.69 625.8 116.79 625.26 116.65C624.71 116.51 624.26 116.23 623.91 115.81C623.56 115.39 623.34 114.9 623.25 114.35C623.16 113.8 623.25 113.26 623.49 112.72C623.74 112.18 624.19 111.74 624.84 111.39C625.99 110.79 627.18 110.35 628.41 110.06C629.65 109.77 630.89 109.63 632.13 109.63C635.17 109.63 637.5 110.29 639.11 111.61C640.72 112.93 641.52 114.84 641.52 117.34C641.52 118.94 641.16 120.46 640.43 121.91C639.71 123.36 638.5 124.92 636.8 126.59L632.53 130.86H639.98C641.88 130.86 642.82 131.78 642.82 133.63C642.82 135.48 641.87 136.44 639.98 136.44H626.95H626.97Z" fill="#E93594"/>
<path d="M691.44 144.74C703.038 144.74 712.44 135.338 712.44 123.74C712.44 112.142 703.038 102.74 691.44 102.74C679.842 102.74 670.44 112.142 670.44 123.74C670.44 135.338 679.842 144.74 691.44 144.74Z" fill="#2FBDEB"/>
<path d="M690.76 136.85C689.46 136.85 688.18 136.72 686.92 136.48C685.66 136.23 684.57 135.88 683.64 135.43C682.87 135.06 682.32 134.59 681.99 134.04C681.67 133.49 681.53 132.93 681.58 132.36C681.63 131.79 681.84 131.27 682.2 130.83C682.56 130.38 683.04 130.08 683.62 129.91C684.21 129.75 684.87 129.83 685.62 130.15C686.54 130.55 687.39 130.82 688.17 130.97C688.94 131.12 689.72 131.19 690.49 131.19C693.19 131.19 694.53 130.27 694.53 128.42C694.53 126.72 693.33 125.87 690.94 125.87H688.92C687.97 125.87 687.25 125.63 686.75 125.16C686.25 124.69 686 124.01 686 123.14C686 122.27 686.25 121.59 686.75 121.12C687.25 120.65 687.97 120.41 688.92 120.41H690.27C691.34 120.41 692.19 120.19 692.8 119.74C693.41 119.29 693.72 118.64 693.72 117.79C693.72 116.12 692.56 115.28 690.24 115.28C689.54 115.28 688.83 115.35 688.11 115.5C687.39 115.65 686.61 115.91 685.79 116.29C685.14 116.56 684.55 116.63 684.01 116.48C683.47 116.33 683.03 116.04 682.68 115.62C682.33 115.2 682.12 114.7 682.04 114.14C681.97 113.58 682.06 113.04 682.34 112.53C682.61 112.02 683.09 111.59 683.76 111.24C685.91 110.17 688.29 109.63 690.91 109.63C693.85 109.63 696.15 110.27 697.8 111.56C699.45 112.85 700.27 114.62 700.27 116.89C700.27 118.24 699.93 119.42 699.26 120.45C698.59 121.47 697.65 122.22 696.45 122.7C697.92 123.12 699.06 123.9 699.88 125.02C700.69 126.14 701.1 127.5 701.1 129.1C701.1 131.5 700.18 133.39 698.35 134.77C696.52 136.16 693.99 136.85 690.77 136.85H690.76Z" fill="#0078FF"/>
<path d="M395.65 92C407.248 92 416.65 82.598 416.65 71C416.65 59.402 407.248 50 395.65 50C384.052 50 374.65 59.402 374.65 71C374.65 82.598 384.052 92 395.65 92Z" fill="#A220DF"/>
<path d="M385.52 81.9199C384.44 81.9199 383.64 81.5499 383.13 80.8099C382.62 80.0699 382.62 79.1499 383.13 78.0399L391.74 59.5099C392.15 58.6099 392.66 57.9499 393.26 57.5399C393.86 57.1299 394.56 56.9199 395.37 56.9199C396.18 56.9199 396.84 57.1299 397.44 57.5399C398.04 57.9499 398.55 58.6099 398.96 59.5099L407.57 78.0399C408.1 79.1699 408.12 80.0999 407.64 80.8199C407.16 81.5399 406.4 81.9099 405.36 81.9099C404.44 81.9099 403.73 81.6999 403.23 81.2899C402.73 80.8799 402.29 80.2099 401.9 79.2799L400.79 76.6499H389.9L388.79 79.2799C388.38 80.1999 387.95 80.8699 387.51 81.2899C387.07 81.6999 386.4 81.9099 385.5 81.9099L385.52 81.9199ZM395.31 63.8699L391.99 71.7899H398.7L395.38 63.8699H395.31Z" fill="#CA8FFF"/>
<path d="M454.55 92C466.148 92 475.55 82.598 475.55 71C475.55 59.402 466.148 50 454.55 50C442.952 50 433.55 59.402 433.55 71C433.55 82.598 442.952 92 454.55 92Z" fill="#00A84E"/>
<path d="M448.05 82.92C445.84 82.92 444.73 81.83 444.73 79.63V61.83C444.73 59.64 445.84 58.54 448.05 58.54H456.49C459.12 58.54 461.15 59.11 462.59 60.25C464.03 61.39 464.75 62.92 464.75 64.83C464.75 66.1 464.43 67.2 463.8 68.15C463.17 69.1 462.28 69.8 461.15 70.26C462.51 70.67 463.56 71.37 464.3 72.35C465.04 73.33 465.41 74.55 465.41 76C465.41 78.14 464.64 79.83 463.11 81.07C461.58 82.3 459.48 82.92 456.83 82.92H448.05ZM450.81 68.23H455.34C456.49 68.23 457.34 68.02 457.88 67.61C458.42 67.2 458.69 66.56 458.69 65.71C458.69 64.86 458.42 64.23 457.88 63.83C457.34 63.43 456.49 63.22 455.34 63.22H450.81V68.23ZM450.81 78.25H455.96C457.14 78.25 457.99 78.03 458.54 77.58C459.08 77.13 459.35 76.46 459.35 75.56C459.35 74.66 459.08 73.99 458.54 73.55C458 73.11 457.14 72.89 455.96 72.89H450.81V78.25Z" fill="#BBED16"/>
<path d="M513.44 92C525.038 92 534.44 82.598 534.44 71C534.44 59.402 525.038 50 513.44 50C501.842 50 492.44 59.402 492.44 71C492.44 82.598 501.842 92 513.44 92Z" fill="#FF8000"/>
<path d="M513.98 83.0004C511.28 83.0004 508.97 82.4804 507.03 81.4404C505.09 80.4004 503.61 78.9403 502.59 77.0504C501.56 75.1604 501.05 72.9504 501.05 70.4104C501.05 67.8704 501.56 65.6704 502.59 63.7904C503.62 61.9104 505.1 60.4504 507.03 59.4204C508.97 58.3804 511.28 57.8604 513.98 57.8604C515.04 57.8604 516.14 57.9804 517.28 58.2204C518.42 58.4604 519.43 58.8204 520.31 59.3104C520.95 59.6604 521.4 60.0904 521.66 60.6204C521.91 61.1504 522.01 61.6904 521.94 62.2504C521.87 62.8004 521.67 63.3004 521.33 63.7404C521 64.1804 520.57 64.4704 520.07 64.6204C519.56 64.7704 519.01 64.6904 518.41 64.4004C517.05 63.7304 515.66 63.4004 514.23 63.4004C512.09 63.4004 510.47 64.0104 509.39 65.2204C508.31 66.4304 507.76 68.1704 507.76 70.4204C507.76 72.6704 508.3 74.4504 509.39 75.6604C510.47 76.8703 512.09 77.4804 514.23 77.4804C514.83 77.4804 515.47 77.4104 516.17 77.2604C516.86 77.1104 517.54 76.8703 518.21 76.5504C518.9 76.2504 519.52 76.1704 520.06 76.3104C520.6 76.4503 521.05 76.7204 521.39 77.1404C521.74 77.5504 521.95 78.0304 522.03 78.5804C522.11 79.1204 522.03 79.6604 521.81 80.1904C521.58 80.7204 521.15 81.1504 520.53 81.4704C519.72 81.9503 518.73 82.3304 517.54 82.6104C516.35 82.8904 515.17 83.0204 514 83.0204L513.98 83.0004Z" fill="#FFDC00"/>
<path d="M690.11 92C701.708 92 711.11 82.598 711.11 71C711.11 59.402 701.708 50 690.11 50C678.512 50 669.11 59.402 669.11 71C669.11 82.598 678.512 92 690.11 92Z" fill="#0078FF"/>
<path d="M690.47 55.1596C690.28 55.1196 690.09 55.0996 689.89 55.0996C688.81 55.1196 687.87 55.8296 687.56 56.8596L685.19 64.6396L677.06 64.7896C675.98 64.8096 675.04 65.5196 674.73 66.5496C674.42 67.5796 674.8 68.6896 675.68 69.3096L682.35 73.9696L679.98 81.7496C679.67 82.7796 680.05 83.8896 680.93 84.5096C681.2 84.6996 681.5 84.8296 681.81 84.8996C682.51 85.0496 683.25 84.8996 683.85 84.4596L690.34 79.5596L697.01 84.2196C697.28 84.4096 697.58 84.5396 697.89 84.6096C698.59 84.7596 699.33 84.6096 699.92 84.1696C700.78 83.5196 701.12 82.3896 700.77 81.3796L698.11 73.6896L704.54 68.8296C705.02 68.4896 705.38 67.9696 705.52 67.3496C705.81 66.0396 705.01 64.7396 703.72 64.4096C703.69 64.4096 703.66 64.3996 703.63 64.3896C703.57 64.3796 703.5 64.3596 703.44 64.3496C703.29 64.3296 703.14 64.3196 702.99 64.3296L694.92 64.4796L692.27 56.7996C691.98 55.9696 691.29 55.3696 690.46 55.1896L690.47 55.1596Z" fill="#2FBDEB"/>
<path d="M631.22 92C642.818 92 652.22 82.598 652.22 71C652.22 59.402 642.818 50 631.22 50C619.622 50 610.22 59.402 610.22 71C610.22 82.598 619.622 92 631.22 92Z" fill="#FF92FF"/>
<path d="M631.04 64.8898C631.04 64.8898 624.45 56.7798 619.24 60.8998C610.42 67.8598 631.04 84.8398 631.04 84.8398C631.04 84.8398 650.79 68.7798 642.44 61.3598C636.06 55.6898 631.04 64.8898 631.04 64.8898Z" fill="#FF0000"/>
<path d="M572.33 92C583.928 92 593.33 82.598 593.33 71C593.33 59.402 583.928 50 572.33 50C560.732 50 551.33 59.402 551.33 71C551.33 82.598 560.732 92 572.33 92Z" fill="#FFDC00"/>
<path d="M569.91 60.5501L571.27 72.4701C569.08 72.0501 566.27 72.9601 563.99 75.0901C560.76 78.1001 559.84 82.3501 561.92 84.5801C564 86.8101 568.3 86.1801 571.53 83.1701C574.03 80.8401 575.13 77.7801 574.54 75.4701L573.24 64.9101C573.24 64.9101 575.41 64.6801 579.07 63.2101C582.73 61.7401 581.13 54.8301 581.13 54.8301L569.91 60.5401V60.5501Z" fill="#FF8000"/>
<path d="M100.93 250.21C112.528 250.21 121.93 240.808 121.93 229.21C121.93 217.612 112.528 208.21 100.93 208.21C89.332 208.21 79.9299 217.612 79.9299 229.21C79.9299 240.808 89.332 250.21 100.93 250.21Z" fill="#FFBD00"/>
<path d="M111.79 218.55H89.6799V240.66H111.79V218.55Z" fill="#FF0000"/>
<path d="M42.04 250.21C53.638 250.21 63.04 240.808 63.04 229.21C63.04 217.612 53.638 208.21 42.04 208.21C30.4421 208.21 21.04 217.612 21.04 229.21C21.04 240.808 30.4421 250.21 42.04 250.21Z" fill="#99CF16"/>
<path d="M42.04 242.55C49.4074 242.55 55.3799 236.578 55.3799 229.21C55.3799 221.843 49.4074 215.87 42.04 215.87C34.6725 215.87 28.7 221.843 28.7 229.21C28.7 236.578 34.6725 242.55 42.04 242.55Z" fill="#00A84E"/>
<path d="M159.82 250.21C171.418 250.21 180.82 240.808 180.82 229.21C180.82 217.612 171.418 208.21 159.82 208.21C148.222 208.21 138.82 217.612 138.82 229.21C138.82 240.808 148.222 250.21 159.82 250.21Z" fill="#002C8D"/>
<path d="M159.82 213.9L145.52 238.66H174.11L159.82 213.9Z" fill="#2FBDEB"/>
<path d="M218.71 250.21C230.308 250.21 239.71 240.808 239.71 229.21C239.71 217.612 230.308 208.21 218.71 208.21C207.112 208.21 197.71 217.612 197.71 229.21C197.71 240.808 207.112 250.21 218.71 250.21Z" fill="#A220DF"/>
<path d="M208.58 240.13C207.5 240.13 206.7 239.76 206.19 239.02C205.68 238.28 205.68 237.36 206.19 236.25L214.8 217.72C215.21 216.82 215.72 216.16 216.32 215.75C216.92 215.34 217.62 215.13 218.43 215.13C219.24 215.13 219.9 215.34 220.5 215.75C221.1 216.16 221.61 216.82 222.02 217.72L230.63 236.25C231.16 237.38 231.18 238.31 230.7 239.03C230.22 239.75 229.46 240.12 228.42 240.12C227.5 240.12 226.79 239.91 226.29 239.5C225.79 239.09 225.35 238.42 224.96 237.49L223.85 234.86H212.96L211.85 237.49C211.44 238.41 211.01 239.08 210.57 239.5C210.13 239.91 209.46 240.12 208.56 240.12L208.58 240.13ZM218.36 222.08L215.04 230H221.75L218.43 222.08H218.36Z" fill="#CA8FFF"/>
<path d="M277.6 250.21C289.198 250.21 298.6 240.808 298.6 229.21C298.6 217.612 289.198 208.21 277.6 208.21C266.002 208.21 256.6 217.612 256.6 229.21C256.6 240.808 266.002 250.21 277.6 250.21Z" fill="#00A84E"/>
<path d="M271.1 241.13C268.89 241.13 267.78 240.04 267.78 237.84V220.03C267.78 217.84 268.89 216.74 271.1 216.74H279.54C282.17 216.74 284.2 217.31 285.64 218.45C287.08 219.59 287.8 221.12 287.8 223.03C287.8 224.3 287.48 225.4 286.85 226.35C286.22 227.3 285.33 228 284.2 228.46C285.56 228.87 286.61 229.57 287.35 230.55C288.09 231.53 288.46 232.75 288.46 234.2C288.46 236.34 287.69 238.03 286.16 239.27C284.63 240.5 282.53 241.12 279.88 241.12H271.1V241.13ZM273.87 226.44H278.4C279.55 226.44 280.4 226.23 280.94 225.82C281.48 225.41 281.75 224.77 281.75 223.92C281.75 223.07 281.48 222.44 280.94 222.04C280.4 221.64 279.55 221.43 278.4 221.43H273.87V226.44ZM273.87 236.46H279.02C280.2 236.46 281.05 236.24 281.6 235.79C282.14 235.34 282.41 234.67 282.41 233.77C282.41 232.87 282.14 232.2 281.6 231.76C281.06 231.32 280.2 231.1 279.02 231.1H273.87V236.46Z" fill="#BBED16"/>
<path d="M336.49 250.21C348.088 250.21 357.49 240.808 357.49 229.21C357.49 217.612 348.088 208.21 336.49 208.21C324.892 208.21 315.49 217.612 315.49 229.21C315.49 240.808 324.892 250.21 336.49 250.21Z" fill="#FF8000"/>
<path d="M337.04 241.21C334.34 241.21 332.03 240.69 330.09 239.65C328.15 238.61 326.67 237.15 325.65 235.26C324.62 233.37 324.11 231.16 324.11 228.62C324.11 226.08 324.62 223.88 325.65 222C326.68 220.12 328.16 218.66 330.09 217.63C332.03 216.59 334.34 216.07 337.04 216.07C338.1 216.07 339.2 216.19 340.34 216.43C341.48 216.67 342.49 217.03 343.37 217.52C344.01 217.87 344.46 218.3 344.72 218.83C344.97 219.36 345.07 219.9 345 220.46C344.93 221.01 344.73 221.51 344.39 221.95C344.06 222.39 343.63 222.68 343.13 222.83C342.62 222.98 342.07 222.9 341.47 222.61C340.11 221.94 338.72 221.61 337.29 221.61C335.15 221.61 333.53 222.22 332.45 223.43C331.37 224.64 330.82 226.38 330.82 228.63C330.82 230.88 331.36 232.66 332.45 233.87C333.53 235.08 335.15 235.69 337.29 235.69C337.89 235.69 338.53 235.62 339.23 235.47C339.92 235.32 340.6 235.08 341.27 234.76C341.96 234.46 342.58 234.38 343.12 234.52C343.66 234.66 344.11 234.93 344.45 235.35C344.8 235.76 345.01 236.24 345.09 236.79C345.17 237.33 345.09 237.87 344.87 238.4C344.64 238.93 344.21 239.36 343.59 239.68C342.78 240.16 341.79 240.54 340.6 240.82C339.41 241.1 338.23 241.23 337.06 241.23L337.04 241.21Z" fill="#FFDC00"/>
<path d="M42.04 197.47C53.638 197.47 63.04 188.068 63.04 176.47C63.04 164.872 53.638 155.47 42.04 155.47C30.4421 155.47 21.04 164.872 21.04 176.47C21.04 188.068 30.4421 197.47 42.04 197.47Z" fill="#FF0000"/>
<path d="M35.35 188.82C33.45 188.82 32.5 187.88 32.5 186.01C32.5 184.14 33.45 183.24 35.35 183.24H38.72V169.88L36.44 171.27C35.79 171.67 35.18 171.83 34.61 171.74C34.04 171.65 33.55 171.41 33.15 171.01C32.75 170.61 32.49 170.12 32.36 169.55C32.23 168.98 32.29 168.4 32.51 167.83C32.73 167.26 33.18 166.77 33.86 166.37L39.03 163.15C40.15 162.45 41.34 162.1 42.59 162.1C43.54 162.1 44.27 162.34 44.8 162.83C45.32 163.32 45.59 164.02 45.59 164.94V183.25H48.58C50.48 183.25 51.43 184.17 51.43 186.02C51.43 187.87 50.48 188.83 48.58 188.83H35.37L35.35 188.82Z" fill="#FFBD00"/>
<path d="M100.93 197.47C112.528 197.47 121.93 188.068 121.93 176.47C121.93 164.872 112.528 155.47 100.93 155.47C89.332 155.47 79.9299 164.872 79.9299 176.47C79.9299 188.068 89.332 197.47 100.93 197.47Z" fill="#6600BD"/>
<path d="M95.3499 189.18C94.2499 189.18 93.4599 188.92 92.9699 188.41C92.4799 187.9 92.2399 187.14 92.2399 186.15C92.2399 185.45 92.3899 184.83 92.6899 184.28C92.9899 183.73 93.3999 183.19 93.9299 182.67L100.48 175.82C101.45 174.8 102.15 173.91 102.56 173.14C102.97 172.38 103.18 171.62 103.18 170.88C103.18 168.98 101.97 168.03 99.5499 168.03C98.9499 168.03 98.3099 168.11 97.6199 168.27C96.9299 168.43 96.2199 168.71 95.4699 169.11C94.7999 169.43 94.1799 169.53 93.6399 169.39C93.0899 169.25 92.6399 168.97 92.2899 168.55C91.9399 168.13 91.7199 167.64 91.6299 167.09C91.5399 166.54 91.6299 166 91.8699 165.46C92.1199 164.92 92.5699 164.48 93.2199 164.13C94.3699 163.53 95.5599 163.09 96.7899 162.8C98.0299 162.51 99.2699 162.37 100.51 162.37C103.55 162.37 105.88 163.03 107.49 164.35C109.1 165.67 109.9 167.58 109.9 170.08C109.9 171.68 109.54 173.2 108.81 174.65C108.09 176.1 106.88 177.66 105.18 179.33L100.91 183.6H108.36C110.26 183.6 111.2 184.52 111.2 186.37C111.2 188.22 110.25 189.18 108.36 189.18H95.3299H95.3499Z" fill="#E93594"/>
<path d="M159.82 197.47C171.418 197.47 180.82 188.068 180.82 176.47C180.82 164.872 171.418 155.47 159.82 155.47C148.222 155.47 138.82 164.872 138.82 176.47C138.82 188.068 148.222 197.47 159.82 197.47Z" fill="#2FBDEB"/>
<path d="M159.14 189.59C157.84 189.59 156.56 189.46 155.3 189.22C154.04 188.97 152.95 188.62 152.02 188.17C151.25 187.8 150.7 187.33 150.37 186.78C150.05 186.23 149.91 185.67 149.96 185.1C150.01 184.53 150.22 184.01 150.58 183.57C150.94 183.12 151.42 182.82 152 182.65C152.59 182.49 153.25 182.57 154 182.89C154.92 183.29 155.77 183.56 156.55 183.71C157.32 183.86 158.1 183.93 158.87 183.93C161.57 183.93 162.91 183.01 162.91 181.16C162.91 179.46 161.71 178.61 159.32 178.61H157.3C156.35 178.61 155.63 178.37 155.13 177.9C154.63 177.43 154.38 176.75 154.38 175.88C154.38 175.01 154.63 174.33 155.13 173.86C155.63 173.39 156.35 173.15 157.3 173.15H158.65C159.72 173.15 160.57 172.93 161.18 172.48C161.79 172.03 162.1 171.38 162.1 170.53C162.1 168.86 160.94 168.02 158.62 168.02C157.92 168.02 157.21 168.09 156.49 168.24C155.77 168.39 154.99 168.65 154.17 169.03C153.52 169.3 152.93 169.37 152.39 169.22C151.85 169.07 151.41 168.78 151.06 168.36C150.71 167.94 150.5 167.44 150.42 166.88C150.35 166.32 150.44 165.78 150.72 165.27C150.99 164.76 151.47 164.33 152.14 163.98C154.29 162.91 156.67 162.37 159.29 162.37C162.23 162.37 164.53 163.01 166.18 164.3C167.83 165.59 168.65 167.36 168.65 169.63C168.65 170.98 168.31 172.16 167.64 173.19C166.97 174.21 166.03 174.96 164.83 175.44C166.3 175.86 167.44 176.64 168.26 177.76C169.07 178.88 169.48 180.24 169.48 181.84C169.48 184.24 168.56 186.13 166.73 187.51C164.9 188.89 162.37 189.59 159.15 189.59H159.14Z" fill="#0078FF"/>
<path d="M277.6 197.47C289.198 197.47 298.6 188.068 298.6 176.47C298.6 164.872 289.198 155.47 277.6 155.47C266.002 155.47 256.6 164.872 256.6 176.47C256.6 188.068 266.002 197.47 277.6 197.47Z" fill="#FFBD00"/>
<path d="M288.46 165.81H266.35V187.92H288.46V165.81Z" fill="#FF0000"/>
<path d="M218.71 197.47C230.308 197.47 239.71 188.068 239.71 176.47C239.71 164.872 230.308 155.47 218.71 155.47C207.112 155.47 197.71 164.872 197.71 176.47C197.71 188.068 207.112 197.47 218.71 197.47Z" fill="#99CF16"/>
<path d="M218.71 189.81C226.077 189.81 232.05 183.837 232.05 176.47C232.05 169.102 226.077 163.13 218.71 163.13C211.342 163.13 205.37 169.102 205.37 176.47C205.37 183.837 211.342 189.81 218.71 189.81Z" fill="#00A84E"/>
<path d="M336.49 197.47C348.088 197.47 357.49 188.068 357.49 176.47C357.49 164.872 348.088 155.47 336.49 155.47C324.892 155.47 315.49 164.872 315.49 176.47C315.49 188.068 324.892 197.47 336.49 197.47Z" fill="#002C8D"/>
<path d="M336.49 161.16L322.2 185.92H350.79L336.49 161.16Z" fill="#2FBDEB"/>
<path d="M159.82 144.74C171.418 144.74 180.82 135.338 180.82 123.74C180.82 112.142 171.418 102.74 159.82 102.74C148.222 102.74 138.82 112.142 138.82 123.74C138.82 135.338 148.222 144.74 159.82 144.74Z" fill="#0078FF"/>
<path d="M160.18 107.89C159.99 107.85 159.8 107.83 159.6 107.83C158.52 107.85 157.58 108.56 157.27 109.59L154.9 117.37L146.77 117.52C145.69 117.54 144.75 118.25 144.44 119.28C144.13 120.31 144.51 121.42 145.39 122.04L152.06 126.7L149.69 134.48C149.38 135.51 149.76 136.62 150.64 137.24C150.91 137.43 151.21 137.56 151.52 137.63C152.22 137.78 152.96 137.63 153.56 137.19L160.05 132.29L166.72 136.95C166.99 137.14 167.29 137.27 167.6 137.34C168.3 137.49 169.04 137.34 169.63 136.9C170.49 136.25 170.83 135.12 170.48 134.11L167.82 126.42L174.25 121.56C174.73 121.22 175.09 120.7 175.23 120.08C175.52 118.77 174.72 117.47 173.43 117.14C173.4 117.14 173.37 117.13 173.34 117.12C173.28 117.11 173.21 117.09 173.15 117.08C173 117.06 172.85 117.05 172.7 117.06L164.63 117.21L161.98 109.53C161.69 108.7 161 108.1 160.17 107.92L160.18 107.89Z" fill="#2FBDEB"/>
<path d="M100.93 144.74C112.528 144.74 121.93 135.338 121.93 123.74C121.93 112.142 112.528 102.74 100.93 102.74C89.332 102.74 79.9299 112.142 79.9299 123.74C79.9299 135.338 89.332 144.74 100.93 144.74Z" fill="#FF92FF"/>
<path d="M100.75 117.63C100.75 117.63 94.1599 109.52 88.9499 113.64C80.1299 120.6 100.75 137.58 100.75 137.58C100.75 137.58 120.5 121.52 112.15 114.1C105.77 108.43 100.75 117.63 100.75 117.63Z" fill="#FF0000"/>
<path d="M42.04 144.74C53.638 144.74 63.04 135.338 63.04 123.74C63.04 112.142 53.638 102.74 42.04 102.74C30.4421 102.74 21.04 112.142 21.04 123.74C21.04 135.338 30.4421 144.74 42.04 144.74Z" fill="#FFDC00"/>
<path d="M39.62 113.28L40.98 125.2C38.79 124.78 35.98 125.69 33.7 127.82C30.47 130.83 29.55 135.08 31.63 137.31C33.71 139.54 38.01 138.91 41.24 135.9C43.74 133.57 44.84 130.51 44.25 128.2L42.95 117.64C42.95 117.64 45.12 117.41 48.78 115.94C52.44 114.47 50.84 107.56 50.84 107.56L39.62 113.27V113.28Z" fill="#FF8000"/>
<path d="M218.71 144.74C230.308 144.74 239.71 135.338 239.71 123.74C239.71 112.142 230.308 102.74 218.71 102.74C207.112 102.74 197.71 112.142 197.71 123.74C197.71 135.338 207.112 144.74 218.71 144.74Z" fill="#FF0000"/>
<path d="M212.03 136.08C210.13 136.08 209.18 135.14 209.18 133.27C209.18 131.4 210.13 130.5 212.03 130.5H215.4V117.14L213.12 118.53C212.47 118.93 211.86 119.09 211.29 119C210.72 118.91 210.23 118.67 209.83 118.27C209.43 117.87 209.17 117.38 209.04 116.81C208.91 116.24 208.97 115.66 209.19 115.09C209.41 114.52 209.86 114.03 210.54 113.63L215.71 110.41C216.83 109.71 218.02 109.36 219.27 109.36C220.22 109.36 220.95 109.6 221.48 110.09C222 110.58 222.27 111.28 222.27 112.2V130.51H225.26C227.16 130.51 228.11 131.43 228.11 133.28C228.11 135.13 227.16 136.09 225.26 136.09H212.05L212.03 136.08Z" fill="#FFBD00"/>
<path d="M277.6 144.74C289.198 144.74 298.6 135.338 298.6 123.74C298.6 112.142 289.198 102.74 277.6 102.74C266.002 102.74 256.6 112.142 256.6 123.74C256.6 135.338 266.002 144.74 277.6 144.74Z" fill="#6600BD"/>
<path d="M272.02 136.44C270.92 136.44 270.13 136.18 269.64 135.67C269.15 135.16 268.91 134.4 268.91 133.41C268.91 132.71 269.06 132.09 269.36 131.54C269.66 130.99 270.07 130.45 270.6 129.93L277.15 123.08C278.12 122.06 278.82 121.17 279.23 120.4C279.64 119.64 279.85 118.88 279.85 118.14C279.85 116.24 278.64 115.29 276.22 115.29C275.62 115.29 274.98 115.37 274.29 115.53C273.6 115.69 272.89 115.97 272.14 116.37C271.47 116.69 270.85 116.79 270.31 116.65C269.76 116.51 269.31 116.23 268.96 115.81C268.61 115.39 268.39 114.9 268.3 114.35C268.21 113.8 268.3 113.26 268.54 112.72C268.79 112.18 269.24 111.74 269.89 111.39C271.04 110.79 272.23 110.35 273.46 110.06C274.7 109.77 275.94 109.63 277.18 109.63C280.22 109.63 282.55 110.29 284.16 111.61C285.77 112.93 286.57 114.84 286.57 117.34C286.57 118.94 286.21 120.46 285.48 121.91C284.76 123.36 283.55 124.92 281.85 126.59L277.58 130.86H285.03C286.93 130.86 287.87 131.78 287.87 133.63C287.87 135.48 286.92 136.44 285.03 136.44H272H272.02Z" fill="#E93594"/>
<path d="M336.49 144.74C348.088 144.74 357.49 135.338 357.49 123.74C357.49 112.142 348.088 102.74 336.49 102.74C324.892 102.74 315.49 112.142 315.49 123.74C315.49 135.338 324.892 144.74 336.49 144.74Z" fill="#2FBDEB"/>
<path d="M335.82 136.85C334.52 136.85 333.24 136.72 331.98 136.48C330.72 136.23 329.63 135.88 328.7 135.43C327.93 135.06 327.38 134.59 327.05 134.04C326.73 133.49 326.59 132.93 326.64 132.36C326.69 131.79 326.9 131.27 327.26 130.83C327.62 130.38 328.1 130.08 328.68 129.91C329.27 129.75 329.93 129.83 330.68 130.15C331.6 130.55 332.45 130.82 333.23 130.97C334 131.12 334.78 131.19 335.55 131.19C338.25 131.19 339.59 130.27 339.59 128.42C339.59 126.72 338.39 125.87 336 125.87H333.98C333.03 125.87 332.31 125.63 331.81 125.16C331.31 124.69 331.06 124.01 331.06 123.14C331.06 122.27 331.31 121.59 331.81 121.12C332.31 120.65 333.03 120.41 333.98 120.41H335.33C336.4 120.41 337.25 120.19 337.86 119.74C338.47 119.29 338.78 118.64 338.78 117.79C338.78 116.12 337.62 115.28 335.3 115.28C334.6 115.28 333.89 115.35 333.17 115.5C332.45 115.65 331.67 115.91 330.85 116.29C330.2 116.56 329.61 116.63 329.07 116.48C328.53 116.33 328.09 116.04 327.74 115.62C327.39 115.2 327.18 114.7 327.1 114.14C327.03 113.58 327.12 113.04 327.4 112.53C327.67 112.02 328.15 111.59 328.82 111.24C330.97 110.17 333.35 109.63 335.97 109.63C338.91 109.63 341.21 110.27 342.86 111.56C344.51 112.85 345.33 114.62 345.33 116.89C345.33 118.24 344.99 119.42 344.32 120.45C343.65 121.47 342.71 122.22 341.51 122.7C342.98 123.12 344.12 123.9 344.94 125.02C345.75 126.14 346.16 127.5 346.16 129.1C346.16 131.5 345.24 133.39 343.41 134.77C341.58 136.16 339.05 136.85 335.83 136.85H335.82Z" fill="#0078FF"/>
<path d="M40.71 92C52.3079 92 61.71 82.598 61.71 71C61.71 59.402 52.3079 50 40.71 50C29.112 50 19.71 59.402 19.71 71C19.71 82.598 29.112 92 40.71 92Z" fill="#A220DF"/>
<path d="M30.5799 81.9199C29.4999 81.9199 28.6999 81.5499 28.1899 80.8099C27.6799 80.0699 27.6799 79.1499 28.1899 78.0399L36.7999 59.5099C37.2099 58.6099 37.7199 57.9499 38.3199 57.5399C38.9199 57.1299 39.6199 56.9199 40.4299 56.9199C41.2399 56.9199 41.8999 57.1299 42.4999 57.5399C43.0999 57.9499 43.6099 58.6099 44.0199 59.5099L52.6299 78.0399C53.1599 79.1699 53.1799 80.0999 52.6999 80.8199C52.2199 81.5399 51.4599 81.9099 50.4199 81.9099C49.4999 81.9099 48.7899 81.6999 48.2899 81.2899C47.7899 80.8799 47.3499 80.2099 46.9599 79.2799L45.8499 76.6499H34.9599L33.8499 79.2799C33.4399 80.1999 33.0099 80.8699 32.5699 81.2899C32.1299 81.6999 31.4599 81.9099 30.5599 81.9099L30.5799 81.9199ZM40.3599 63.8699L37.0399 71.7899H43.7499L40.4299 63.8699H40.3599Z" fill="#CA8FFF"/>
<path d="M99.5999 92C111.198 92 120.6 82.598 120.6 71C120.6 59.402 111.198 50 99.5999 50C88.0019 50 78.5999 59.402 78.5999 71C78.5999 82.598 88.0019 92 99.5999 92Z" fill="#00A84E"/>
<path d="M93.1 82.92C90.89 82.92 89.78 81.83 89.78 79.63V61.83C89.78 59.64 90.89 58.54 93.1 58.54H101.54C104.17 58.54 106.2 59.11 107.64 60.25C109.08 61.39 109.8 62.92 109.8 64.83C109.8 66.1 109.48 67.2 108.85 68.15C108.22 69.1 107.33 69.8 106.2 70.26C107.56 70.67 108.61 71.37 109.35 72.35C110.09 73.33 110.46 74.55 110.46 76C110.46 78.14 109.69 79.83 108.16 81.07C106.63 82.3 104.53 82.92 101.88 82.92H93.1ZM95.87 68.23H100.4C101.55 68.23 102.4 68.02 102.94 67.61C103.48 67.2 103.75 66.56 103.75 65.71C103.75 64.86 103.48 64.23 102.94 63.83C102.4 63.43 101.55 63.22 100.4 63.22H95.87V68.23ZM95.87 78.25H101.02C102.2 78.25 103.05 78.03 103.6 77.58C104.14 77.13 104.41 76.46 104.41 75.56C104.41 74.66 104.14 73.99 103.6 73.55C103.06 73.11 102.2 72.89 101.02 72.89H95.87V78.25Z" fill="#BBED16"/>
<path d="M158.49 92C170.088 92 179.49 82.598 179.49 71C179.49 59.402 170.088 50 158.49 50C146.892 50 137.49 59.402 137.49 71C137.49 82.598 146.892 92 158.49 92Z" fill="#FF8000"/>
<path d="M159.04 83.0004C156.34 83.0004 154.03 82.4804 152.09 81.4404C150.15 80.4004 148.67 78.9403 147.65 77.0504C146.62 75.1604 146.11 72.9504 146.11 70.4104C146.11 67.8704 146.62 65.6704 147.65 63.7904C148.68 61.9104 150.16 60.4504 152.09 59.4204C154.03 58.3804 156.34 57.8604 159.04 57.8604C160.1 57.8604 161.2 57.9804 162.34 58.2204C163.48 58.4604 164.49 58.8204 165.37 59.3104C166.01 59.6604 166.46 60.0904 166.72 60.6204C166.97 61.1504 167.07 61.6904 167 62.2504C166.93 62.8004 166.73 63.3004 166.39 63.7404C166.06 64.1804 165.63 64.4704 165.13 64.6204C164.62 64.7704 164.07 64.6904 163.47 64.4004C162.11 63.7304 160.72 63.4004 159.29 63.4004C157.15 63.4004 155.53 64.0104 154.45 65.2204C153.37 66.4304 152.82 68.1704 152.82 70.4204C152.82 72.6704 153.36 74.4504 154.45 75.6604C155.53 76.8703 157.15 77.4804 159.29 77.4804C159.89 77.4804 160.53 77.4104 161.23 77.2604C161.92 77.1104 162.6 76.8703 163.27 76.5504C163.96 76.2504 164.58 76.1704 165.12 76.3104C165.66 76.4503 166.11 76.7204 166.45 77.1404C166.8 77.5504 167.01 78.0304 167.09 78.5804C167.17 79.1204 167.09 79.6604 166.87 80.1904C166.64 80.7204 166.21 81.1504 165.59 81.4704C164.78 81.9503 163.79 82.3304 162.6 82.6104C161.41 82.8904 160.23 83.0204 159.06 83.0204L159.04 83.0004Z" fill="#FFDC00"/>
<path d="M335.17 92C346.768 92 356.17 82.598 356.17 71C356.17 59.402 346.768 50 335.17 50C323.572 50 314.17 59.402 314.17 71C314.17 82.598 323.572 92 335.17 92Z" fill="#0078FF"/>
<path d="M335.53 55.1596C335.34 55.1196 335.15 55.0996 334.95 55.0996C333.87 55.1196 332.93 55.8296 332.62 56.8596L330.25 64.6396L322.12 64.7896C321.04 64.8096 320.1 65.5196 319.79 66.5496C319.48 67.5796 319.86 68.6896 320.74 69.3096L327.41 73.9696L325.04 81.7496C324.73 82.7796 325.11 83.8896 325.99 84.5096C326.26 84.6996 326.56 84.8296 326.87 84.8996C327.57 85.0496 328.31 84.8996 328.91 84.4596L335.4 79.5596L342.07 84.2196C342.34 84.4096 342.64 84.5396 342.95 84.6096C343.65 84.7596 344.39 84.6096 344.98 84.1696C345.84 83.5196 346.18 82.3896 345.83 81.3796L343.17 73.6896L349.6 68.8296C350.08 68.4896 350.44 67.9696 350.58 67.3496C350.87 66.0396 350.07 64.7396 348.78 64.4096C348.75 64.4096 348.72 64.3996 348.69 64.3896C348.63 64.3796 348.56 64.3596 348.5 64.3496C348.35 64.3296 348.2 64.3196 348.05 64.3296L339.98 64.4796L337.33 56.7996C337.04 55.9696 336.35 55.3696 335.52 55.1896L335.53 55.1596Z" fill="#2FBDEB"/>
<path d="M276.28 92C287.878 92 297.28 82.598 297.28 71C297.28 59.402 287.878 50 276.28 50C264.682 50 255.28 59.402 255.28 71C255.28 82.598 264.682 92 276.28 92Z" fill="#FF92FF"/>
<path d="M276.1 64.8898C276.1 64.8898 269.51 56.7798 264.3 60.8998C255.48 67.8598 276.1 84.8398 276.1 84.8398C276.1 84.8398 295.85 68.7798 287.5 61.3598C281.12 55.6898 276.1 64.8898 276.1 64.8898Z" fill="#FF0000"/>
<path d="M217.38 92C228.978 92 238.38 82.598 238.38 71C238.38 59.402 228.978 50 217.38 50C205.782 50 196.38 59.402 196.38 71C196.38 82.598 205.782 92 217.38 92Z" fill="#FFDC00"/>
<path d="M214.97 60.5501L216.33 72.4701C214.14 72.0501 211.33 72.9601 209.05 75.0901C205.82 78.1001 204.9 82.3501 206.98 84.5801C209.06 86.8101 213.36 86.1801 216.59 83.1701C219.09 80.8401 220.19 77.7801 219.6 75.4701L218.3 64.9101C218.3 64.9101 220.47 64.6801 224.13 63.2101C227.79 61.7401 226.19 54.8301 226.19 54.8301L214.97 60.5401V60.5501Z" fill="#FF8000"/>
</g>
<defs>
<clipPath id="clip0_1325_6190">
<rect width="1400.29" height="200.21" fill="white" transform="translate(19.71 50)"/>
</clipPath>
</defs>
</svg>
