<svg width="339" height="201" viewBox="0 0 339 201" fill="none" xmlns="http://www.w3.org/2000/svg">
<path d="M81.9302 200.21C93.5282 200.21 102.93 190.808 102.93 179.21C102.93 167.612 93.5282 158.21 81.9302 158.21C70.3322 158.21 60.9302 167.612 60.9302 179.21C60.9302 190.808 70.3322 200.21 81.9302 200.21Z" fill="#FFBD00"/>
<path d="M92.7902 168.55H70.6802V190.66H92.7902V168.55Z" fill="#FF0000"/>
<path d="M23.04 200.21C34.638 200.21 44.04 190.808 44.04 179.21C44.04 167.612 34.638 158.21 23.04 158.21C11.4421 158.21 2.04004 167.612 2.04004 179.21C2.04004 190.808 11.4421 200.21 23.04 200.21Z" fill="#99CF16"/>
<path d="M23.0402 192.55C30.4077 192.55 36.3802 186.578 36.3802 179.21C36.3802 171.843 30.4077 165.87 23.0402 165.87C15.6727 165.87 9.7002 171.843 9.7002 179.21C9.7002 186.578 15.6727 192.55 23.0402 192.55Z" fill="#00A84E"/>
<path d="M140.82 200.21C152.418 200.21 161.82 190.808 161.82 179.21C161.82 167.612 152.418 158.21 140.82 158.21C129.222 158.21 119.82 167.612 119.82 179.21C119.82 190.808 129.222 200.21 140.82 200.21Z" fill="#002C8D"/>
<path d="M140.82 163.9L126.52 188.66H155.11L140.82 163.9Z" fill="#2FBDEB"/>
<path d="M199.71 200.21C211.308 200.21 220.71 190.808 220.71 179.21C220.71 167.612 211.308 158.21 199.71 158.21C188.112 158.21 178.71 167.612 178.71 179.21C178.71 190.808 188.112 200.21 199.71 200.21Z" fill="#A220DF"/>
<path d="M189.58 190.13C188.5 190.13 187.7 189.76 187.19 189.02C186.68 188.28 186.68 187.36 187.19 186.25L195.8 167.72C196.21 166.82 196.72 166.16 197.32 165.75C197.92 165.34 198.62 165.13 199.43 165.13C200.24 165.13 200.9 165.34 201.5 165.75C202.1 166.16 202.61 166.82 203.02 167.72L211.63 186.25C212.16 187.38 212.18 188.31 211.7 189.03C211.22 189.75 210.46 190.12 209.42 190.12C208.5 190.12 207.79 189.91 207.29 189.5C206.79 189.09 206.35 188.42 205.96 187.49L204.85 184.86H193.96L192.85 187.49C192.44 188.41 192.01 189.08 191.57 189.5C191.13 189.91 190.46 190.12 189.56 190.12L189.58 190.13ZM199.36 172.08L196.04 180H202.75L199.43 172.08H199.36Z" fill="#CA8FFF"/>
<path d="M258.6 200.21C270.198 200.21 279.6 190.808 279.6 179.21C279.6 167.612 270.198 158.21 258.6 158.21C247.002 158.21 237.6 167.612 237.6 179.21C237.6 190.808 247.002 200.21 258.6 200.21Z" fill="#00A84E"/>
<path d="M252.1 191.13C249.89 191.13 248.78 190.04 248.78 187.84V170.03C248.78 167.84 249.89 166.74 252.1 166.74H260.54C263.17 166.74 265.2 167.31 266.64 168.45C268.08 169.59 268.8 171.12 268.8 173.03C268.8 174.3 268.48 175.4 267.85 176.35C267.22 177.3 266.33 178 265.2 178.46C266.56 178.87 267.61 179.57 268.35 180.55C269.09 181.53 269.46 182.75 269.46 184.2C269.46 186.34 268.69 188.03 267.16 189.27C265.63 190.5 263.53 191.12 260.88 191.12H252.1V191.13ZM254.87 176.44H259.4C260.55 176.44 261.4 176.23 261.94 175.82C262.48 175.41 262.75 174.77 262.75 173.92C262.75 173.07 262.48 172.44 261.94 172.04C261.4 171.64 260.55 171.43 259.4 171.43H254.87V176.44ZM254.87 186.46H260.02C261.2 186.46 262.05 186.24 262.6 185.79C263.14 185.34 263.41 184.67 263.41 183.77C263.41 182.87 263.14 182.2 262.6 181.76C262.06 181.32 261.2 181.1 260.02 181.1H254.87V186.46Z" fill="#BBED16"/>
<path d="M317.49 200.21C329.088 200.21 338.49 190.808 338.49 179.21C338.49 167.612 329.088 158.21 317.49 158.21C305.892 158.21 296.49 167.612 296.49 179.21C296.49 190.808 305.892 200.21 317.49 200.21Z" fill="#FF8000"/>
<path d="M318.04 191.21C315.34 191.21 313.03 190.69 311.09 189.65C309.15 188.61 307.67 187.15 306.65 185.26C305.62 183.37 305.11 181.16 305.11 178.62C305.11 176.08 305.62 173.88 306.65 172C307.68 170.12 309.16 168.66 311.09 167.63C313.03 166.59 315.34 166.07 318.04 166.07C319.1 166.07 320.2 166.19 321.34 166.43C322.48 166.67 323.49 167.03 324.37 167.52C325.01 167.87 325.46 168.3 325.72 168.83C325.97 169.36 326.07 169.9 326 170.46C325.93 171.01 325.73 171.51 325.39 171.95C325.06 172.39 324.63 172.68 324.13 172.83C323.62 172.98 323.07 172.9 322.47 172.61C321.11 171.94 319.72 171.61 318.29 171.61C316.15 171.61 314.53 172.22 313.45 173.43C312.37 174.64 311.82 176.38 311.82 178.63C311.82 180.88 312.36 182.66 313.45 183.87C314.53 185.08 316.15 185.69 318.29 185.69C318.89 185.69 319.53 185.62 320.23 185.47C320.92 185.32 321.6 185.08 322.27 184.76C322.96 184.46 323.58 184.38 324.12 184.52C324.66 184.66 325.11 184.93 325.45 185.35C325.8 185.76 326.01 186.24 326.09 186.79C326.17 187.33 326.09 187.87 325.87 188.4C325.64 188.93 325.21 189.36 324.59 189.68C323.78 190.16 322.79 190.54 321.6 190.82C320.41 191.1 319.23 191.23 318.06 191.23L318.04 191.21Z" fill="#FFDC00"/>
<path d="M23.04 147.47C34.638 147.47 44.04 138.068 44.04 126.47C44.04 114.872 34.638 105.47 23.04 105.47C11.4421 105.47 2.04004 114.872 2.04004 126.47C2.04004 138.068 11.4421 147.47 23.04 147.47Z" fill="#FF0000"/>
<path d="M16.35 138.82C14.45 138.82 13.5 137.88 13.5 136.01C13.5 134.14 14.45 133.24 16.35 133.24H19.72V119.88L17.44 121.27C16.79 121.67 16.18 121.83 15.61 121.74C15.04 121.65 14.55 121.41 14.15 121.01C13.75 120.61 13.49 120.12 13.36 119.55C13.23 118.98 13.29 118.4 13.51 117.83C13.73 117.26 14.18 116.77 14.86 116.37L20.03 113.15C21.15 112.45 22.34 112.1 23.59 112.1C24.54 112.1 25.27 112.34 25.8 112.83C26.32 113.32 26.59 114.02 26.59 114.94V133.25H29.58C31.48 133.25 32.43 134.17 32.43 136.02C32.43 137.87 31.48 138.83 29.58 138.83H16.37L16.35 138.82Z" fill="#FFBD00"/>
<path d="M81.9302 147.47C93.5282 147.47 102.93 138.068 102.93 126.47C102.93 114.872 93.5282 105.47 81.9302 105.47C70.3322 105.47 60.9302 114.872 60.9302 126.47C60.9302 138.068 70.3322 147.47 81.9302 147.47Z" fill="#6600BD"/>
<path d="M76.3499 139.18C75.2499 139.18 74.4599 138.92 73.9699 138.41C73.4799 137.9 73.2399 137.14 73.2399 136.15C73.2399 135.45 73.3899 134.83 73.6899 134.28C73.9899 133.73 74.3999 133.19 74.9299 132.67L81.4799 125.82C82.4499 124.8 83.1499 123.91 83.5599 123.14C83.9699 122.38 84.1799 121.62 84.1799 120.88C84.1799 118.98 82.9699 118.03 80.5499 118.03C79.9499 118.03 79.3099 118.11 78.6199 118.27C77.9299 118.43 77.2199 118.71 76.4699 119.11C75.7999 119.43 75.1799 119.53 74.6399 119.39C74.0899 119.25 73.6399 118.97 73.2899 118.55C72.9399 118.13 72.7199 117.64 72.6299 117.09C72.5399 116.54 72.6299 116 72.8699 115.46C73.1199 114.92 73.5699 114.48 74.2199 114.13C75.3699 113.53 76.5599 113.09 77.7899 112.8C79.0299 112.51 80.2699 112.37 81.5099 112.37C84.5499 112.37 86.8799 113.03 88.4899 114.35C90.0999 115.67 90.8999 117.58 90.8999 120.08C90.8999 121.68 90.5399 123.2 89.8099 124.65C89.0899 126.1 87.8799 127.66 86.1799 129.33L81.9099 133.6H89.3599C91.2599 133.6 92.1999 134.52 92.1999 136.37C92.1999 138.22 91.2499 139.18 89.3599 139.18H76.3299H76.3499Z" fill="#E93594"/>
<path d="M140.82 147.47C152.418 147.47 161.82 138.068 161.82 126.47C161.82 114.872 152.418 105.47 140.82 105.47C129.222 105.47 119.82 114.872 119.82 126.47C119.82 138.068 129.222 147.47 140.82 147.47Z" fill="#2FBDEB"/>
<path d="M140.14 139.59C138.84 139.59 137.56 139.46 136.3 139.22C135.04 138.97 133.95 138.62 133.02 138.17C132.25 137.8 131.7 137.33 131.37 136.78C131.05 136.23 130.91 135.67 130.96 135.1C131.01 134.53 131.22 134.01 131.58 133.57C131.94 133.12 132.42 132.82 133 132.65C133.59 132.49 134.25 132.57 135 132.89C135.92 133.29 136.77 133.56 137.55 133.71C138.32 133.86 139.1 133.93 139.87 133.93C142.57 133.93 143.91 133.01 143.91 131.16C143.91 129.46 142.71 128.61 140.32 128.61H138.3C137.35 128.61 136.63 128.37 136.13 127.9C135.63 127.43 135.38 126.75 135.38 125.88C135.38 125.01 135.63 124.33 136.13 123.86C136.63 123.39 137.35 123.15 138.3 123.15H139.65C140.72 123.15 141.57 122.93 142.18 122.48C142.79 122.03 143.1 121.38 143.1 120.53C143.1 118.86 141.94 118.02 139.62 118.02C138.92 118.02 138.21 118.09 137.49 118.24C136.77 118.39 135.99 118.65 135.17 119.03C134.52 119.3 133.93 119.37 133.39 119.22C132.85 119.07 132.41 118.78 132.06 118.36C131.71 117.94 131.5 117.44 131.42 116.88C131.35 116.32 131.44 115.78 131.72 115.27C131.99 114.76 132.47 114.33 133.14 113.98C135.29 112.91 137.67 112.37 140.29 112.37C143.23 112.37 145.53 113.01 147.18 114.3C148.83 115.59 149.65 117.36 149.65 119.63C149.65 120.98 149.31 122.16 148.64 123.19C147.97 124.21 147.03 124.96 145.83 125.44C147.3 125.86 148.44 126.64 149.26 127.76C150.07 128.88 150.48 130.24 150.48 131.84C150.48 134.24 149.56 136.13 147.73 137.51C145.9 138.89 143.37 139.59 140.15 139.59H140.14Z" fill="#0078FF"/>
<path d="M258.6 147.47C270.198 147.47 279.6 138.068 279.6 126.47C279.6 114.872 270.198 105.47 258.6 105.47C247.002 105.47 237.6 114.872 237.6 126.47C237.6 138.068 247.002 147.47 258.6 147.47Z" fill="#FFBD00"/>
<path d="M269.46 115.81H247.35V137.92H269.46V115.81Z" fill="#FF0000"/>
<path d="M199.71 147.47C211.308 147.47 220.71 138.068 220.71 126.47C220.71 114.872 211.308 105.47 199.71 105.47C188.112 105.47 178.71 114.872 178.71 126.47C178.71 138.068 188.112 147.47 199.71 147.47Z" fill="#99CF16"/>
<path d="M199.71 139.81C207.077 139.81 213.05 133.837 213.05 126.47C213.05 119.102 207.077 113.13 199.71 113.13C192.342 113.13 186.37 119.102 186.37 126.47C186.37 133.837 192.342 139.81 199.71 139.81Z" fill="#00A84E"/>
<path d="M317.49 147.47C329.088 147.47 338.49 138.068 338.49 126.47C338.49 114.872 329.088 105.47 317.49 105.47C305.892 105.47 296.49 114.872 296.49 126.47C296.49 138.068 305.892 147.47 317.49 147.47Z" fill="#002C8D"/>
<path d="M317.49 111.16L303.2 135.92H331.79L317.49 111.16Z" fill="#2FBDEB"/>
<path d="M140.82 94.7402C152.418 94.7402 161.82 85.3382 161.82 73.7402C161.82 62.1423 152.418 52.7402 140.82 52.7402C129.222 52.7402 119.82 62.1423 119.82 73.7402C119.82 85.3382 129.222 94.7402 140.82 94.7402Z" fill="#0078FF"/>
<path d="M141.18 57.8901C140.99 57.8501 140.8 57.8301 140.6 57.8301C139.52 57.8501 138.58 58.5601 138.27 59.5901L135.9 67.3701L127.77 67.5201C126.69 67.5401 125.75 68.2501 125.44 69.2801C125.13 70.3101 125.51 71.4201 126.39 72.0401L133.06 76.7001L130.69 84.4801C130.38 85.5101 130.76 86.6201 131.64 87.2401C131.91 87.4301 132.21 87.5601 132.52 87.6301C133.22 87.7801 133.96 87.6301 134.56 87.1901L141.05 82.2901L147.72 86.9501C147.99 87.1401 148.29 87.2701 148.6 87.3401C149.3 87.4901 150.04 87.3401 150.63 86.9001C151.49 86.2501 151.83 85.1201 151.48 84.1101L148.82 76.4201L155.25 71.5601C155.73 71.2201 156.09 70.7001 156.23 70.0801C156.52 68.7701 155.72 67.4701 154.43 67.1401C154.4 67.1401 154.37 67.1301 154.34 67.1201C154.28 67.1101 154.21 67.0901 154.15 67.0801C154 67.0601 153.85 67.0501 153.7 67.0601L145.63 67.2101L142.98 59.5301C142.69 58.7001 142 58.1001 141.17 57.9201L141.18 57.8901Z" fill="#2FBDEB"/>
<path d="M81.9302 94.7402C93.5282 94.7402 102.93 85.3382 102.93 73.7402C102.93 62.1423 93.5282 52.7402 81.9302 52.7402C70.3322 52.7402 60.9302 62.1423 60.9302 73.7402C60.9302 85.3382 70.3322 94.7402 81.9302 94.7402Z" fill="#FF92FF"/>
<path d="M81.7499 67.6301C81.7499 67.6301 75.1599 59.5201 69.9499 63.6401C61.1299 70.6001 81.7499 87.5801 81.7499 87.5801C81.7499 87.5801 101.5 71.5201 93.1499 64.1001C86.7699 58.4301 81.7499 67.6301 81.7499 67.6301Z" fill="#FF0000"/>
<path d="M23.04 94.7402C34.638 94.7402 44.04 85.3382 44.04 73.7402C44.04 62.1423 34.638 52.7402 23.04 52.7402C11.4421 52.7402 2.04004 62.1423 2.04004 73.7402C2.04004 85.3382 11.4421 94.7402 23.04 94.7402Z" fill="#FFDC00"/>
<path d="M20.6198 63.2796L21.9798 75.1996C19.7898 74.7796 16.9798 75.6896 14.6998 77.8196C11.4698 80.8296 10.5498 85.0796 12.6298 87.3096C14.7098 89.5396 19.0098 88.9096 22.2398 85.8996C24.7398 83.5696 25.8398 80.5096 25.2498 78.1996L23.9498 67.6396C23.9498 67.6396 26.1198 67.4096 29.7798 65.9396C33.4398 64.4696 31.8398 57.5596 31.8398 57.5596L20.6198 63.2696V63.2796Z" fill="#FF8000"/>
<path d="M199.71 94.7402C211.308 94.7402 220.71 85.3382 220.71 73.7402C220.71 62.1423 211.308 52.7402 199.71 52.7402C188.112 52.7402 178.71 62.1423 178.71 73.7402C178.71 85.3382 188.112 94.7402 199.71 94.7402Z" fill="#FF0000"/>
<path d="M193.03 86.0804C191.13 86.0804 190.18 85.1403 190.18 83.2703C190.18 81.4003 191.13 80.5004 193.03 80.5004H196.4V67.1404L194.12 68.5303C193.47 68.9303 192.86 69.0904 192.29 69.0004C191.72 68.9104 191.23 68.6703 190.83 68.2703C190.43 67.8703 190.17 67.3803 190.04 66.8103C189.91 66.2403 189.97 65.6603 190.19 65.0903C190.41 64.5203 190.86 64.0304 191.54 63.6304L196.71 60.4104C197.83 59.7104 199.02 59.3604 200.27 59.3604C201.22 59.3604 201.95 59.6004 202.48 60.0904C203 60.5804 203.27 61.2804 203.27 62.2004V80.5104H206.26C208.16 80.5104 209.11 81.4303 209.11 83.2803C209.11 85.1304 208.16 86.0903 206.26 86.0903H193.05L193.03 86.0804Z" fill="#FFBD00"/>
<path d="M258.6 94.7402C270.198 94.7402 279.6 85.3382 279.6 73.7402C279.6 62.1423 270.198 52.7402 258.6 52.7402C247.002 52.7402 237.6 62.1423 237.6 73.7402C237.6 85.3382 247.002 94.7402 258.6 94.7402Z" fill="#6600BD"/>
<path d="M253.02 86.4399C251.92 86.4399 251.13 86.1799 250.64 85.6699C250.15 85.1599 249.91 84.3999 249.91 83.4099C249.91 82.7099 250.06 82.0899 250.36 81.5399C250.66 80.9899 251.07 80.4499 251.6 79.9299L258.15 73.0799C259.12 72.0599 259.82 71.1699 260.23 70.3999C260.64 69.6399 260.85 68.8799 260.85 68.1399C260.85 66.2399 259.64 65.2899 257.22 65.2899C256.62 65.2899 255.98 65.3699 255.29 65.5299C254.6 65.6899 253.89 65.9699 253.14 66.3699C252.47 66.6899 251.85 66.7899 251.31 66.6499C250.76 66.5099 250.31 66.2299 249.96 65.8099C249.61 65.3899 249.39 64.8999 249.3 64.3499C249.21 63.7999 249.3 63.2599 249.54 62.7199C249.79 62.1799 250.24 61.7399 250.89 61.3899C252.04 60.7899 253.23 60.3499 254.46 60.0599C255.7 59.7699 256.94 59.6299 258.18 59.6299C261.22 59.6299 263.55 60.2899 265.16 61.6099C266.77 62.9299 267.57 64.8399 267.57 67.3399C267.57 68.9399 267.21 70.4599 266.48 71.9099C265.76 73.3599 264.55 74.9199 262.85 76.5899L258.58 80.8599H266.03C267.93 80.8599 268.87 81.7799 268.87 83.6299C268.87 85.4799 267.92 86.4399 266.03 86.4399H253H253.02Z" fill="#E93594"/>
<path d="M317.49 94.7402C329.088 94.7402 338.49 85.3382 338.49 73.7402C338.49 62.1423 329.088 52.7402 317.49 52.7402C305.892 52.7402 296.49 62.1423 296.49 73.7402C296.49 85.3382 305.892 94.7402 317.49 94.7402Z" fill="#2FBDEB"/>
<path d="M316.82 86.8499C315.52 86.8499 314.24 86.7199 312.98 86.4799C311.72 86.2299 310.63 85.8799 309.7 85.4299C308.93 85.0599 308.38 84.5899 308.05 84.0399C307.73 83.4899 307.59 82.9299 307.64 82.3599C307.69 81.7899 307.9 81.2699 308.26 80.8299C308.62 80.3799 309.1 80.0799 309.68 79.9099C310.27 79.7499 310.93 79.8299 311.68 80.1499C312.6 80.5499 313.45 80.8199 314.23 80.9699C315 81.1199 315.78 81.1899 316.55 81.1899C319.25 81.1899 320.59 80.2699 320.59 78.4199C320.59 76.7199 319.39 75.8699 317 75.8699H314.98C314.03 75.8699 313.31 75.6299 312.81 75.1599C312.31 74.6899 312.06 74.0099 312.06 73.1399C312.06 72.2699 312.31 71.5899 312.81 71.1199C313.31 70.6499 314.03 70.4099 314.98 70.4099H316.33C317.4 70.4099 318.25 70.1899 318.86 69.7399C319.47 69.2899 319.78 68.6399 319.78 67.7899C319.78 66.1199 318.62 65.2799 316.3 65.2799C315.6 65.2799 314.89 65.3499 314.17 65.4999C313.45 65.6499 312.67 65.9099 311.85 66.2899C311.2 66.5599 310.61 66.6299 310.07 66.4799C309.53 66.3299 309.09 66.0399 308.74 65.6199C308.39 65.1999 308.18 64.6999 308.1 64.1399C308.03 63.5799 308.12 63.0399 308.4 62.5299C308.67 62.0199 309.15 61.5899 309.82 61.2399C311.97 60.1699 314.35 59.6299 316.97 59.6299C319.91 59.6299 322.21 60.2699 323.86 61.5599C325.51 62.8499 326.33 64.6199 326.33 66.8899C326.33 68.2399 325.99 69.4199 325.32 70.4499C324.65 71.4699 323.71 72.2199 322.51 72.6999C323.98 73.1199 325.12 73.8999 325.94 75.0199C326.75 76.1399 327.16 77.4999 327.16 79.0999C327.16 81.4999 326.24 83.3899 324.41 84.7699C322.58 86.1599 320.05 86.8499 316.83 86.8499H316.82Z" fill="#0078FF"/>
<path d="M21.71 42C33.3079 42 42.71 32.598 42.71 21C42.71 9.40202 33.3079 0 21.71 0C10.112 0 0.709961 9.40202 0.709961 21C0.709961 32.598 10.112 42 21.71 42Z" fill="#A220DF"/>
<path d="M11.5801 31.9199C10.5001 31.9199 9.70012 31.5499 9.19012 30.8099C8.68012 30.0699 8.68012 29.1499 9.19012 28.0399L17.8001 9.50992C18.2101 8.60992 18.7201 7.94992 19.3201 7.53992C19.9201 7.12992 20.6201 6.91992 21.4301 6.91992C22.2401 6.91992 22.9001 7.12992 23.5001 7.53992C24.1001 7.94992 24.6101 8.60992 25.0201 9.50992L33.6301 28.0399C34.1601 29.1699 34.1801 30.0999 33.7001 30.8199C33.2201 31.5399 32.4601 31.9099 31.4201 31.9099C30.5001 31.9099 29.7901 31.6999 29.2901 31.2899C28.7901 30.8799 28.3501 30.2099 27.9601 29.2799L26.8501 26.6499H15.9601L14.8501 29.2799C14.4401 30.1999 14.0101 30.8699 13.5701 31.2899C13.1301 31.6999 12.4601 31.9099 11.5601 31.9099L11.5801 31.9199ZM21.3601 13.8699L18.0401 21.7899H24.7501L21.4301 13.8699H21.3601Z" fill="#CA8FFF"/>
<path d="M80.6001 42C92.1981 42 101.6 32.598 101.6 21C101.6 9.40202 92.1981 0 80.6001 0C69.0021 0 59.6001 9.40202 59.6001 21C59.6001 32.598 69.0021 42 80.6001 42Z" fill="#00A84E"/>
<path d="M74.0998 32.92C71.8898 32.92 70.7798 31.83 70.7798 29.63V11.83C70.7798 9.64004 71.8898 8.54004 74.0998 8.54004H82.5398C85.1698 8.54004 87.1998 9.11004 88.6398 10.25C90.0798 11.39 90.7998 12.92 90.7998 14.83C90.7998 16.1 90.4798 17.2 89.8498 18.15C89.2198 19.1 88.3298 19.8 87.1998 20.26C88.5598 20.67 89.6098 21.37 90.3498 22.35C91.0898 23.33 91.4598 24.55 91.4598 26C91.4598 28.14 90.6898 29.83 89.1598 31.07C87.6298 32.3 85.5298 32.92 82.8798 32.92H74.0998ZM76.8698 18.23H81.3998C82.5498 18.23 83.3998 18.02 83.9398 17.61C84.4798 17.2 84.7498 16.56 84.7498 15.71C84.7498 14.86 84.4798 14.23 83.9398 13.83C83.3998 13.43 82.5498 13.22 81.3998 13.22H76.8698V18.23ZM76.8698 28.25H82.0198C83.1998 28.25 84.0498 28.03 84.5998 27.58C85.1398 27.13 85.4098 26.46 85.4098 25.56C85.4098 24.66 85.1398 23.99 84.5998 23.55C84.0598 23.11 83.1998 22.89 82.0198 22.89H76.8698V28.25Z" fill="#BBED16"/>
<path d="M139.49 42C151.088 42 160.49 32.598 160.49 21C160.49 9.40202 151.088 0 139.49 0C127.892 0 118.49 9.40202 118.49 21C118.49 32.598 127.892 42 139.49 42Z" fill="#FF8000"/>
<path d="M140.04 33.0004C137.34 33.0004 135.03 32.4804 133.09 31.4404C131.15 30.4004 129.67 28.9403 128.65 27.0504C127.62 25.1604 127.11 22.9504 127.11 20.4104C127.11 17.8704 127.62 15.6704 128.65 13.7904C129.68 11.9104 131.16 10.4504 133.09 9.42035C135.03 8.38035 137.34 7.86035 140.04 7.86035C141.1 7.86035 142.2 7.98035 143.34 8.22035C144.48 8.46035 145.49 8.82035 146.37 9.31035C147.01 9.66035 147.46 10.0904 147.72 10.6204C147.97 11.1504 148.07 11.6904 148 12.2504C147.93 12.8004 147.73 13.3004 147.39 13.7404C147.06 14.1804 146.63 14.4704 146.13 14.6204C145.62 14.7704 145.07 14.6904 144.47 14.4004C143.11 13.7304 141.72 13.4004 140.29 13.4004C138.15 13.4004 136.53 14.0104 135.45 15.2204C134.37 16.4304 133.82 18.1704 133.82 20.4204C133.82 22.6704 134.36 24.4504 135.45 25.6604C136.53 26.8703 138.15 27.4804 140.29 27.4804C140.89 27.4804 141.53 27.4104 142.23 27.2604C142.92 27.1104 143.6 26.8703 144.27 26.5504C144.96 26.2504 145.58 26.1704 146.12 26.3104C146.66 26.4503 147.11 26.7204 147.45 27.1404C147.8 27.5504 148.01 28.0304 148.09 28.5804C148.17 29.1204 148.09 29.6604 147.87 30.1904C147.64 30.7204 147.21 31.1504 146.59 31.4704C145.78 31.9503 144.79 32.3304 143.6 32.6104C142.41 32.8904 141.23 33.0204 140.06 33.0204L140.04 33.0004Z" fill="#FFDC00"/>
<path d="M316.17 42C327.768 42 337.17 32.598 337.17 21C337.17 9.40202 327.768 0 316.17 0C304.572 0 295.17 9.40202 295.17 21C295.17 32.598 304.572 42 316.17 42Z" fill="#0078FF"/>
<path d="M316.53 5.15961C316.34 5.11961 316.15 5.09961 315.95 5.09961C314.87 5.11961 313.93 5.82961 313.62 6.85961L311.25 14.6396L303.12 14.7896C302.04 14.8096 301.1 15.5196 300.79 16.5496C300.48 17.5796 300.86 18.6896 301.74 19.3096L308.41 23.9696L306.04 31.7496C305.73 32.7796 306.11 33.8896 306.99 34.5096C307.26 34.6996 307.56 34.8296 307.87 34.8996C308.57 35.0496 309.31 34.8996 309.91 34.4596L316.4 29.5596L323.07 34.2196C323.34 34.4096 323.64 34.5396 323.95 34.6096C324.65 34.7596 325.39 34.6096 325.98 34.1696C326.84 33.5196 327.18 32.3896 326.83 31.3796L324.17 23.6896L330.6 18.8296C331.08 18.4896 331.44 17.9696 331.58 17.3496C331.87 16.0396 331.07 14.7396 329.78 14.4096C329.75 14.4096 329.72 14.3996 329.69 14.3896C329.63 14.3796 329.56 14.3596 329.5 14.3496C329.35 14.3296 329.2 14.3196 329.05 14.3296L320.98 14.4796L318.33 6.79961C318.04 5.96961 317.35 5.36961 316.52 5.18961L316.53 5.15961Z" fill="#2FBDEB"/>
<path d="M257.28 42C268.878 42 278.28 32.598 278.28 21C278.28 9.40202 268.878 0 257.28 0C245.682 0 236.28 9.40202 236.28 21C236.28 32.598 245.682 42 257.28 42Z" fill="#FF92FF"/>
<path d="M257.1 14.8898C257.1 14.8898 250.51 6.77982 245.3 10.8998C236.48 17.8598 257.1 34.8398 257.1 34.8398C257.1 34.8398 276.85 18.7798 268.5 11.3598C262.12 5.68982 257.1 14.8898 257.1 14.8898Z" fill="#FF0000"/>
<path d="M198.38 42C209.978 42 219.38 32.598 219.38 21C219.38 9.40202 209.978 0 198.38 0C186.782 0 177.38 9.40202 177.38 21C177.38 32.598 186.782 42 198.38 42Z" fill="#FFDC00"/>
<path d="M195.97 10.5501L197.33 22.4701C195.14 22.0501 192.33 22.9601 190.05 25.0901C186.82 28.1001 185.9 32.3501 187.98 34.5801C190.06 36.8101 194.36 36.1801 197.59 33.1701C200.09 30.8401 201.19 27.7801 200.6 25.4701L199.3 14.9101C199.3 14.9101 201.47 14.6801 205.13 13.2101C208.79 11.7401 207.19 4.83008 207.19 4.83008L195.97 10.5401V10.5501Z" fill="#FF8000"/>
</svg>
