<svg width="23" height="28" viewBox="0 0 23 28" fill="none" xmlns="http://www.w3.org/2000/svg">
<path fill-rule="evenodd" clip-rule="evenodd" d="M15.4598 4.86876C15.9286 4.29342 16.3228 3.61154 16.5785 2.87639C16.8342 2.14123 16.9514 1.34214 16.8662 0.553711C16.1843 0.585674 15.4385 0.809419 14.7353 1.17167C14.0321 1.53392 13.3822 2.03468 12.8921 2.59936C12.4553 3.10012 12.0504 3.7607 11.7733 4.4852C11.4963 5.2097 11.3578 5.99814 11.4644 6.77592C12.2209 6.83984 12.988 6.63739 13.6805 6.29645C14.373 5.94486 15.0016 5.4441 15.4704 4.86876H15.4598Z" fill="#313131"/>
<path fill-rule="evenodd" clip-rule="evenodd" d="M20.6697 19.1562C21.5646 20.0086 22.4596 20.3495 22.4809 20.3602C22.4703 20.4028 22.3211 20.8929 22.0228 21.6068C21.7245 22.3206 21.2663 23.2476 20.6164 24.2064C20.0517 25.0268 19.4764 25.8472 18.8158 26.4652C18.1552 27.0831 17.3988 27.4987 16.4825 27.52C15.5768 27.5413 14.9802 27.2643 14.3516 26.9979C13.723 26.7209 13.0624 26.4545 12.0289 26.4545C10.9954 26.4545 10.3136 26.7102 9.68494 26.9766C9.05633 27.243 8.4597 27.52 7.60734 27.5519C6.72303 27.5839 5.93459 27.1364 5.23139 26.4865C4.5282 25.8259 3.91025 24.9629 3.34557 24.1425C2.18424 22.4698 1.16139 20.0938 0.724554 17.6326C0.287722 15.1715 0.43689 12.6038 1.63019 10.5368C2.21618 9.51398 3.04724 8.67228 4.00614 8.08628C4.96504 7.50029 6.07308 7.17 7.2131 7.14869C8.08677 7.12738 8.92848 7.42571 9.6956 7.72404C10.4627 8.02236 11.134 8.32068 11.6667 8.32068C12.1994 8.32068 12.9665 7.95843 13.8615 7.61748C14.7565 7.27654 15.7793 6.96757 16.8341 7.07411C17.2709 7.09542 18.1126 7.18065 19.0395 7.55356C19.9665 7.92647 20.9787 8.58704 21.7777 9.74837C21.7138 9.79099 20.9787 10.2172 20.2542 11.0695C18.2511 13.4348 18.4109 17.0041 20.6697 19.1456V19.1562Z" fill="#313131"/>
</svg>
