<svg width="39" height="39" viewBox="0 0 39 39" fill="none" xmlns="http://www.w3.org/2000/svg">
<g clip-path="url(#clip0_437_9355)">
<path d="M19.8849 38.4573C30.3913 38.4573 38.9085 29.9402 38.9085 19.4337C38.9085 8.9273 30.3913 0.410156 19.8849 0.410156C9.37848 0.410156 0.861328 8.9273 0.861328 19.4337C0.861328 29.9402 9.37848 38.4573 19.8849 38.4573Z" fill="#FF8000"/>
<path d="M30.0649 16.695L16.8762 10.2353C14.8095 9.22594 12.3967 10.7255 12.3967 13.0326L12.3967 25.9521C12.3967 28.2495 14.8095 29.7587 16.8762 28.7494L30.0649 22.2896C32.3911 21.1553 32.3911 17.8389 30.0649 16.7046L30.0649 16.695Z" fill="#FFE600"/>
</g>
<defs>
<clipPath id="clip0_437_9355">
<rect width="38.0472" height="38.0472" fill="white" transform="translate(0.861328 0.410156)"/>
</clipPath>
</defs>
</svg>
