<svg width="20" height="18" viewBox="0 0 20 18" fill="none" xmlns="http://www.w3.org/2000/svg">
<path d="M3.00651 6.52397H11.2986L9.22378 4.40597C8.25932 3.42141 8.25932 1.8221 9.22378 0.83754C10.1883 -0.147019 11.7549 -0.147019 12.7194 0.83754L19.0143 7.26359C19.9788 8.24815 19.9788 9.84746 19.0143 10.832L12.717 17.2605C12.2348 17.7527 11.602 18.0001 10.9692 18.0001C10.3364 18.0001 9.70366 17.7527 9.22143 17.2605C8.25697 16.2759 8.25697 14.6766 9.22143 13.692L11.2986 11.5716H3.00651C1.64214 11.5716 0.53418 10.4406 0.53418 9.0478C0.53418 7.65501 1.64214 6.52397 3.00651 6.52397Z" fill="#0078FF"/>
</svg>
