<svg width="68" height="67" viewBox="0 0 68 67" fill="none" xmlns="http://www.w3.org/2000/svg">
<circle cx="34.0154" cy="33.4022" r="33.4022" fill="#00C500"/>
<g clip-path="url(#clip0_1689_6727)">
<path d="M37.0123 17.5565C33.1453 24.3966 32.868 31.5247 36.4025 33.478C39.93 35.4383 45.9316 31.4767 49.7987 24.6365C53.6658 17.7963 53.943 10.6683 50.4085 8.70808C46.881 6.75472 40.8794 10.7094 37.0123 17.5496V17.5565Z" fill="#D703EA"/>
<path d="M37.4547 21.6757C33.6292 28.4405 32.5065 35.0819 35.036 36.4801C37.5656 37.8851 42.7148 33.5329 46.5403 26.7681C50.3658 20.0033 51.4122 13.3756 48.8827 11.9774C46.3531 10.5792 41.2802 14.9109 37.4547 21.6757Z" fill="#E774E9"/>
<path d="M18.224 24.6981C21.9248 31.6891 27.8918 35.8083 31.5579 33.9029C35.217 31.9906 35.1824 24.7735 31.4816 17.7825C27.7739 10.7916 21.807 6.66551 18.1478 8.57775C14.4886 10.4831 14.5233 17.7003 18.224 24.6981Z" fill="#D703EA"/>
<path d="M20.6553 24.2596C23.8987 29.4685 32.4298 35.3423 33.8713 34.8077C36.7821 33.7316 33.7189 24.9381 30.4755 19.7291C27.2321 14.527 22.7829 11.3811 19.9415 12.608C17.0932 13.8348 17.4189 19.0506 20.6553 24.2596Z" fill="#E774E9"/>
<path d="M50.3037 43.4847C49.5275 34.4787 41.4953 27.7962 32.3612 28.5569C23.2271 29.3246 16.4563 37.2477 17.2325 46.2605C18.0087 55.2666 26.0408 61.9491 35.1749 61.1883C44.309 60.4207 51.0799 52.4976 50.3037 43.4847Z" fill="#D703EA"/>
<path d="M32.812 47.4052C36.4642 48.5018 40.2412 47.5628 42.9301 45.2599C42.8955 46.0207 42.7777 46.7952 42.542 47.5559C41.0382 52.4359 35.8128 55.1912 30.8646 53.7107C25.9163 52.2303 23.1304 47.0762 24.6342 42.1893C24.8699 41.4217 25.2025 40.7158 25.6114 40.0646C26.547 43.4505 29.1597 46.3017 32.812 47.3914V47.4052Z" fill="#EAEAEA"/>
<path d="M29.5819 25.3494C29.5819 24.9784 29.2793 24.6777 28.9062 24.6777C28.533 24.6777 28.2305 24.9784 28.2305 25.3494V29.1875C28.2305 29.5585 28.533 29.8592 28.9062 29.8592C29.2793 29.8592 29.5819 29.5585 29.5819 29.1875V25.3494Z" fill="#900E51"/>
<path d="M26.4773 25.7737C26.3098 25.4417 25.9034 25.3062 25.5694 25.471C25.2355 25.6358 25.1006 26.0385 25.2681 26.3704L27.001 29.8047C27.1685 30.1367 27.5749 30.2722 27.9088 30.1074C28.2428 29.9426 28.3777 29.5399 28.2102 29.208L26.4773 25.7737Z" fill="#900E51"/>
<path d="M23.8337 27.5448C23.534 27.3217 23.1092 27.38 22.8848 27.6749C22.6604 27.9698 22.7215 28.3897 23.0212 28.6127L26.1223 30.9204C26.422 31.1435 26.8469 31.0852 27.0713 30.7903C27.2956 30.4954 27.2346 30.0755 26.9348 29.8525L23.8337 27.5448Z" fill="#900E51"/>
<path d="M22.4096 30.3733C22.0345 30.3733 21.7305 30.6725 21.7305 31.0415C21.7305 31.4106 22.0345 31.7098 22.4096 31.7098H26.2906C26.6657 31.7098 26.9697 31.4106 26.9697 31.0415C26.9697 30.6725 26.6657 30.3733 26.2906 30.3733H22.4096Z" fill="#900E51"/>
<path d="M29.5822 31.7029V26.6516C27.1081 26.4049 24.6548 27.7414 23.6222 30.1128C23.3935 30.6337 23.2548 31.1683 23.1855 31.7029H29.5822Z" fill="#900E51"/>
<path d="M40.6232 28.3582C40.6232 28.7292 40.9257 29.0299 41.2989 29.0299C41.6721 29.0299 41.9746 28.7292 41.9746 28.3582V24.52C41.9746 24.1491 41.6721 23.8484 41.2989 23.8484C40.9257 23.8484 40.6232 24.1491 40.6232 24.52V28.3582Z" fill="#900E51"/>
<path d="M41.9925 28.3788C41.825 28.7108 41.9599 29.1134 42.2938 29.2782C42.6277 29.443 43.0342 29.3075 43.2017 28.9756L44.9346 25.5413C45.1021 25.2093 44.9671 24.8067 44.6332 24.6419C44.2993 24.4771 43.8929 24.6126 43.7254 24.9445L41.9925 28.3788Z" fill="#900E51"/>
<path d="M43.2673 29.027C42.9675 29.2501 42.9065 29.67 43.1308 29.9649C43.3552 30.2598 43.7801 30.318 44.0798 30.095L47.1809 27.7873C47.4806 27.5642 47.5417 27.1443 47.3173 26.8494C47.0929 26.5545 46.6681 26.4963 46.3684 26.7193L43.2673 29.027Z" fill="#900E51"/>
<path d="M43.9077 29.5371C43.5326 29.5371 43.2285 29.8363 43.2285 30.2053C43.2285 30.5744 43.5326 30.8736 43.9077 30.8736H47.7886C48.1637 30.8736 48.4678 30.5744 48.4678 30.2053C48.4678 29.8363 48.1637 29.5371 47.7886 29.5371H43.9077Z" fill="#900E51"/>
<path d="M40.6152 30.8804V25.8291C43.0893 25.5824 45.5427 26.9189 46.5753 29.2903C46.804 29.8112 46.9426 30.3458 47.0119 30.8804H40.6152Z" fill="#900E51"/>
<path d="M33.9352 34.5336C35.1064 31.8469 33.852 28.7215 31.1284 27.5563C28.4049 26.3912 25.2446 27.6249 24.0734 30.3116C22.9022 32.9983 24.1566 36.1237 26.8802 37.2888C29.6038 38.454 32.7571 37.2203 33.9352 34.5336Z" fill="#EAEAEA"/>
<path d="M26.4018 31.6138C26.7136 29.914 28.363 28.79 30.0887 29.0984C30.4767 29.167 30.8371 29.304 31.1559 29.4959C30.553 29.5782 30.0401 30.0305 29.9223 30.6611C29.7768 31.4424 30.3035 32.1827 31.0935 32.3266C31.7311 32.4431 32.3479 32.1278 32.639 31.5864C32.7083 31.9565 32.7152 32.3403 32.639 32.731C32.3271 34.4307 30.6777 35.5548 28.959 35.2464C27.2403 34.9379 26.0968 33.3067 26.4087 31.6069L26.4018 31.6138Z" fill="#00C000"/>
<path d="M46.5342 31.415C46.3332 28.4199 43.7066 26.1444 40.6642 26.3431C37.6218 26.5419 35.4388 29.0916 35.6398 32.0867C35.8408 35.0887 38.3564 37.4053 41.3919 37.2066C44.4274 37.0078 46.7282 34.417 46.5272 31.415H46.5342Z" fill="#EAEAEA"/>
<path d="M37.1782 31.0861C37.4901 29.3863 39.1395 28.2623 40.8651 28.5707C41.2532 28.6392 41.6136 28.7763 41.9324 28.9614C41.3225 29.0436 40.8166 29.5028 40.6988 30.1265C40.5533 30.901 41.08 31.6481 41.87 31.792C42.5076 31.9085 43.1244 31.5933 43.4155 31.0518C43.4917 31.4219 43.4917 31.8126 43.4155 32.2033C43.1036 33.903 41.4542 35.0271 39.7286 34.7186C38.0098 34.4102 36.8664 32.7858 37.1782 31.0861Z" fill="#00C000"/>
<path d="M38.9587 36.9941C39.1181 35.2121 37.7182 33.6357 35.8332 33.4781C33.9481 33.3204 32.2987 34.6295 32.1393 36.4115C31.9799 38.1936 33.3798 39.7699 35.2649 39.9276C37.1499 40.0852 38.7993 38.7761 38.9587 36.9941Z" fill="#E774E9"/>
</g>
<defs>
<clipPath id="clip0_1689_6727">
<rect width="37.4581" height="53.1382" fill="white" transform="translate(15.4238 8.11182)"/>
</clipPath>
</defs>
</svg>
