<svg width="111" height="111" viewBox="0 0 111 111" fill="none" xmlns="http://www.w3.org/2000/svg">
<circle cx="55.5" cy="55.5" r="55.5" fill="#2638C1"/>
<g clip-path="url(#clip0_172_3951)">
<path fill-rule="evenodd" clip-rule="evenodd" d="M73.1201 21C57.5601 21.28 46.5501 35.69 45.5501 46.49C44.5501 57.29 53.9501 60.39 69.5001 60.11C85.0601 59.83 98.4801 50.84 99.4701 40.04C100.48 29.25 88.6801 20.72 73.1201 21Z" fill="#FF005B"/>
<path fill-rule="evenodd" clip-rule="evenodd" d="M19.8503 44.15C29.3503 31.73 46.1203 31.6 54.3503 37.37C62.5803 43.14 59.1603 52.63 49.6703 65.05C40.1703 77.47 25.8003 82.86 17.5703 77.09C9.34035 71.32 10.3603 56.57 19.8503 44.16V44.15Z" fill="#EA0000"/>
<path d="M31.2397 70.18C26.6197 54.97 35.1997 38.89 50.4097 34.26C65.6197 29.64 81.6997 38.22 86.3297 53.43C90.9497 68.64 82.3697 84.72 67.1497 89.35C51.9397 93.97 35.8597 85.39 31.2397 70.18Z" fill="#FFE600"/>
<path d="M60.7105 67.4C51.5205 67.44 43.4505 62.64 38.8605 55.42C38.4005 57.22 38.1305 59.11 38.1505 61.06C38.2005 73.51 48.3405 83.55 60.7905 83.5C73.2305 83.45 83.2805 73.31 83.2305 60.86C83.2205 58.91 82.9405 57.03 82.4705 55.23C77.9405 62.5 69.9205 67.37 60.7305 67.4H60.7105Z" fill="#E59B00"/>
<path d="M40.4003 66.34C40.7703 65.24 41.3203 64.26 42.0203 63.42C44.1203 64.85 46.6903 66.12 49.5703 67.08C52.4503 68.04 55.2703 68.55 57.8103 68.66C57.8703 69.75 57.7303 70.87 57.3703 71.97C55.8103 76.66 50.7503 79.2 46.0603 77.64C41.3703 76.08 38.8303 71.02 40.3903 66.34H40.4003Z" fill="#EA0000"/>
<path fill-rule="evenodd" clip-rule="evenodd" d="M49.4396 67.58C49.4396 67.58 48.3896 69.54 47.8296 71.2C47.2196 73.05 46.8096 75.99 46.8096 75.99C46.8096 75.99 48.3196 73.05 48.9096 71.64C49.4796 70.26 49.4396 67.58 49.4396 67.58Z" fill="#980000"/>
<path fill-rule="evenodd" clip-rule="evenodd" d="M62.4301 45.21C60.8901 40.5 63.4601 35.43 68.1701 33.89C72.8801 32.35 77.9501 34.92 79.4901 39.63C81.0301 44.34 78.4601 49.41 73.7501 50.96C69.0401 52.5 63.9701 49.93 62.4201 45.22L62.4301 45.21Z" fill="#EAEAEA"/>
<path fill-rule="evenodd" clip-rule="evenodd" d="M34.7201 46.64C33.1801 41.93 35.7501 36.86 40.4601 35.32C45.1701 33.78 50.2401 36.35 51.7801 41.06C53.3201 45.77 50.7501 50.84 46.0401 52.39C41.3301 53.93 36.2601 51.36 34.7101 46.65L34.7201 46.64Z" fill="#EAEAEA"/>
<path fill-rule="evenodd" clip-rule="evenodd" d="M51.5795 55.65C50.2495 51.28 52.8695 46.61 57.4295 45.22C61.9895 43.83 66.7595 46.26 68.0895 50.63C69.4195 55 66.7995 59.67 62.2395 61.06C57.6795 62.45 52.9095 60.02 51.5795 55.65Z" fill="#DE0059"/>
<path d="M38.47 43.46C38.17 40.35 40.44 37.59 43.55 37.29C44.25 37.22 44.93 37.29 45.58 37.46C44.58 37.9 43.92 38.94 44.04 40.08C44.18 41.5 45.44 42.55 46.87 42.41C48.02 42.3 48.92 41.45 49.15 40.37C49.45 40.98 49.66 41.65 49.73 42.36C50.03 45.47 47.76 48.23 44.65 48.53C41.54 48.83 38.78 46.56 38.48 43.45L38.47 43.46Z" fill="#00C000"/>
<path d="M64.5 42.01C64.23 39.29 66.23 36.86 68.95 36.6C69.56 36.54 70.16 36.6 70.73 36.75C69.85 37.13 69.28 38.05 69.38 39.05C69.5 40.3 70.61 41.21 71.86 41.09C72.87 40.99 73.66 40.25 73.86 39.3C74.13 39.83 74.3 40.42 74.37 41.05C74.63 43.77 72.64 46.19 69.92 46.46C67.2 46.72 64.78 44.73 64.51 42.01H64.5Z" fill="#00C000"/>
</g>
<defs>
<clipPath id="clip0_172_3951">
<rect width="87.54" height="69.6" fill="white" transform="translate(12 21)"/>
</clipPath>
</defs>
</svg>
