<svg width="111" height="111" viewBox="0 0 111 111" fill="none" xmlns="http://www.w3.org/2000/svg">
<circle cx="55.5" cy="55.5" r="55.5" fill="#2638C1"/>
<g clip-path="url(#clip0_172_3955)">
<path d="M61.3603 24.78C60.2303 24.43 59.0903 24.3 57.9903 24.37C58.0903 24.4 58.2003 24.43 58.3003 24.46C60.3803 25.11 62.0503 26.47 63.1303 28.21C61.2603 26.88 58.8003 26.26 56.2603 26.71C55.0903 26.91 54.0203 27.32 53.0703 27.89C53.1803 27.87 53.2803 27.84 53.3903 27.82C56.0403 27.36 58.6103 28.15 60.5403 29.77C59.2103 29.38 57.7603 29.27 56.2803 29.53C55.1103 29.73 54.0403 30.14 53.0903 30.71C53.2003 30.69 53.3003 30.66 53.4103 30.65C57.9303 29.86 62.2603 32.73 63.4603 37.14C66.6503 38.13 67.1503 35.91 67.3603 35.24C68.7103 30.92 66.0203 26.24 61.3603 24.79V24.78Z" fill="#FF31D8"/>
<path d="M50.5598 31.22C52.9298 35.79 50.8798 39.34 47.8098 40.93C44.7498 42.52 40.3398 40.1 37.9698 35.52C35.5998 30.95 36.1598 25.95 39.2298 24.36C42.2898 22.77 48.1898 26.64 50.5598 31.22Z" fill="#FF7CF8"/>
<path d="M48.1599 31.67C49.6899 34.62 48.3599 36.9 46.3899 37.92C44.4199 38.94 41.5799 37.38 40.0599 34.44C38.5299 31.49 38.8999 28.28 40.8699 27.26C42.8399 26.24 46.6399 28.73 48.1699 31.68L48.1599 31.67Z" fill="#FF31D8"/>
<path d="M83.39 60.99C83.39 75.24 71.65 86.8 57.18 86.8C42.71 86.8 30.96 75.24 30.96 60.99C30.96 46.74 42.7 35.18 57.17 35.18C71.64 35.18 83.38 46.73 83.38 60.98L83.39 60.99Z" fill="#FF31D8"/>
<path d="M82.9005 58.87C82.9005 73.48 71.0505 85.33 56.4405 85.33C41.8305 85.33 29.9805 73.48 29.9805 58.87C29.9805 44.26 41.8305 32.41 56.4405 32.41C71.0505 32.41 82.9005 44.26 82.9005 58.87Z" fill="#FF7CF8"/>
<path fill-rule="evenodd" clip-rule="evenodd" d="M38.6101 49.26C39.3501 46.35 42.3101 44.59 45.2301 45.33C48.1401 46.07 49.9001 49.03 49.1601 51.94C48.4201 54.85 45.4601 56.61 42.5501 55.87C39.6401 55.13 37.8801 52.16 38.6201 49.25L38.6101 49.26Z" fill="#F5F5F5"/>
<path d="M41.3998 49.42C41.8398 47.69 43.6098 46.64 45.3398 47.08C45.7298 47.18 46.0798 47.35 46.3998 47.56C45.7798 47.6 45.2198 48.04 45.0598 48.68C44.8598 49.47 45.3398 50.28 46.1398 50.48C46.7798 50.64 47.4298 50.36 47.7698 49.82C47.8098 50.21 47.7898 50.61 47.6898 51.01C47.2498 52.74 45.4898 53.79 43.7498 53.35C42.0198 52.91 40.9698 51.14 41.4098 49.41L41.3998 49.42Z" fill="#0079FF"/>
<path fill-rule="evenodd" clip-rule="evenodd" d="M50.5801 52.53C51.3201 49.62 54.2801 47.86 57.1901 48.6C60.1101 49.34 61.8601 52.3 61.1201 55.21C60.3801 58.12 57.4201 59.88 54.5101 59.14C51.6001 58.4 49.8401 55.43 50.5801 52.52V52.53Z" fill="#F5F5F5"/>
<path d="M52.64 52.9199C53.11 51.0699 54.99 49.9599 56.84 50.4299C57.26 50.5299 57.63 50.7099 57.97 50.9499C57.31 50.9899 56.72 51.4599 56.54 52.1399C56.32 52.9899 56.84 53.8499 57.68 54.0599C58.36 54.2399 59.06 53.9299 59.41 53.3599C59.46 53.7699 59.43 54.1999 59.32 54.6299C58.85 56.4799 56.97 57.5899 55.13 57.1199C53.28 56.6499 52.17 54.7699 52.64 52.9199Z" fill="#0079FF"/>
<path d="M68.8795 64.1301C69.2595 69.0901 65.5395 73.4201 60.5795 73.8001C55.6195 74.18 51.2895 70.4601 50.9095 65.5001C50.5295 60.5401 54.2495 56.2101 59.2095 55.8301C64.1695 55.4501 68.4995 59.1701 68.8795 64.1301Z" fill="#FF7CF8"/>
<path d="M55.1504 74.1999C52.6804 75.6199 49.6604 75.2199 47.6504 73.4199C47.7904 74.0799 48.0204 74.7199 48.3704 75.3399C50.1404 78.4199 54.0804 79.4799 57.1704 77.7099C60.2504 75.9399 61.3104 71.9999 59.5404 68.9099C59.1904 68.2999 58.7504 67.7699 58.2504 67.3199C58.7904 69.9699 57.6304 72.7799 55.1604 74.1999H55.1504Z" fill="#F5F5F5"/>
<path d="M77.3305 42.83C75.7005 45.38 71.1405 46.68 68.1605 45.01C65.1905 43.34 64.3405 39.12 66.8105 34.72C69.2805 30.32 73.1005 27.16 76.0705 28.83C79.0405 30.5 80.7805 37.43 77.3205 42.83H77.3305Z" fill="#FF31D8"/>
<path d="M76.9403 41.55C74.7403 46.21 70.6803 46.73 67.5603 45.25C64.4403 43.78 63.6903 38.81 65.8903 34.15C68.0903 29.49 72.4003 26.91 75.5203 28.38C78.6403 29.85 79.1403 36.89 76.9403 41.55Z" fill="#FF7CF8"/>
<path d="M74.2002 31.44C72.1902 30.49 69.4102 32.15 68.0002 35.16C67.2602 36.73 67.0402 38.34 67.2902 39.67C68.9402 40.32 70.5302 41.2 72.0102 42.33C72.1202 42.42 72.2302 42.51 72.3402 42.6C73.4202 42.26 74.4202 41.43 75.1302 39.93C76.5502 36.93 76.2202 32.4 74.2102 31.45L74.2002 31.44Z" fill="#FF31D8"/>
<path d="M51.1598 61.04C51.5398 66 47.8198 70.33 42.8598 70.71C37.8998 71.09 33.5698 67.37 33.1898 62.41C32.8098 57.45 36.5298 53.12 41.4898 52.74C46.4498 52.36 50.7798 56.08 51.1598 61.04Z" fill="#FF7CF8"/>
<path d="M47.51 63.99C45.96 69.02 40.31 71.75 34.89 70.09C29.47 68.42 26.33 62.99 27.87 57.96C29.42 52.93 35.07 50.2 40.49 51.86C45.91 53.53 49.05 58.96 47.51 63.99Z" fill="#FF31D8"/>
<path d="M44.9996 59.6299C45.3796 64.5899 41.6596 68.9199 36.6996 69.2999C31.7396 69.6799 27.3996 65.9699 27.0296 61.0099C26.6496 56.0499 30.3696 51.7199 35.3296 51.3399C40.2896 50.9599 44.6196 54.6799 44.9996 59.6399V59.6299Z" fill="#FF7CF8"/>
<path d="M34.1301 59.5C33.6601 61.42 32.5801 62.81 31.7001 62.6C30.8301 62.39 30.5001 60.66 30.9701 58.74C31.4401 56.82 32.5201 55.43 33.4001 55.64C34.2701 55.85 34.6001 57.58 34.1301 59.5Z" fill="#FF31D8"/>
<path d="M39.9396 60.84C39.4696 62.76 38.3896 64.15 37.5096 63.94C36.6396 63.73 36.3096 62 36.7796 60.08C37.2496 58.16 38.3296 56.77 39.2096 56.98C40.0796 57.19 40.4096 58.92 39.9396 60.84Z" fill="#FF31D8"/>
</g>
<defs>
<clipPath id="clip0_172_3955">
<rect width="56.39" height="62.8" fill="white" transform="translate(27 24)"/>
</clipPath>
</defs>
</svg>
