<svg width="111" height="111" viewBox="0 0 111 111" fill="none" xmlns="http://www.w3.org/2000/svg">
<circle cx="55.5" cy="55.5" r="55.5" fill="#2638C1"/>
<g clip-path="url(#clip0_172_3926)">
<path d="M59.1498 30.78C53.5698 40.76 53.1698 51.16 58.2698 54.01C63.3598 56.87 72.0198 51.09 77.5998 41.11C83.1798 31.13 83.5798 20.73 78.4798 17.87C73.3898 15.02 64.7298 20.79 59.1498 30.77V30.78Z" fill="#D703EA"/>
<path d="M59.7899 36.79C54.2699 46.66 52.6499 56.35 56.2999 58.39C59.9499 60.44 67.3799 54.09 72.8999 44.22C78.4199 34.35 79.9299 24.68 76.2799 22.64C72.6299 20.6 65.3099 26.92 59.7899 36.79Z" fill="#E774E9"/>
<path d="M32.0397 41.2C37.3797 51.4 45.9897 57.41 51.2797 54.63C56.5597 51.84 56.5097 41.31 51.1697 31.11C45.8197 20.91 37.2097 14.89 31.9297 17.68C26.6497 20.46 26.6997 30.99 32.0397 41.2Z" fill="#D703EA"/>
<path d="M35.5502 40.56C40.2302 48.16 52.5402 56.73 54.6202 55.95C58.8202 54.38 54.4002 41.55 49.7202 33.95C45.0402 26.36 38.6202 21.77 34.5202 23.56C30.4102 25.35 30.8802 32.96 35.5502 40.56Z" fill="#E774E9"/>
<path d="M78.3299 68.61C77.2099 55.47 65.6199 45.72 52.4399 46.83C39.2599 47.95 29.4899 59.51 30.6099 72.66C31.7299 85.8 43.3199 95.55 56.4999 94.44C69.6799 93.32 79.4499 81.76 78.3299 68.61Z" fill="#D703EA"/>
<path d="M53.0904 74.33C58.3604 75.93 63.8104 74.56 67.6904 71.2C67.6404 72.31 67.4704 73.44 67.1304 74.55C64.9604 81.67 57.4204 85.69 50.2804 83.53C43.1404 81.37 39.1204 73.85 41.2904 66.72C41.6304 65.6 42.1104 64.57 42.7004 63.62C44.0504 68.56 47.8204 72.72 53.0904 74.31V74.33Z" fill="#EAEAEA"/>
<path d="M48.4305 42.15C48.4305 41.6087 47.9939 41.17 47.4555 41.17C46.917 41.17 46.4805 41.6087 46.4805 42.15V47.75C46.4805 48.2912 46.917 48.73 47.4555 48.73C47.9939 48.73 48.4305 48.2912 48.4305 47.75V42.15Z" fill="#900E51"/>
<path d="M43.949 42.7691C43.7073 42.2848 43.1208 42.0871 42.639 42.3275C42.1572 42.568 41.9625 43.1555 42.2042 43.6398L44.7046 48.6505C44.9463 49.1348 45.5328 49.3325 46.0146 49.0921C46.4964 48.8516 46.6911 48.2641 46.4495 47.7798L43.949 42.7691Z" fill="#900E51"/>
<path d="M40.1342 45.3532C39.7018 45.0277 39.0887 45.1127 38.7649 45.543C38.4412 45.9733 38.5293 46.5859 38.9618 46.9113L43.4365 50.2784C43.869 50.6038 44.482 50.5188 44.8058 50.0885C45.1296 49.6582 45.0414 49.0456 44.6089 48.7202L40.1342 45.3532Z" fill="#900E51"/>
<path d="M38.0796 49.48C37.5384 49.48 37.0996 49.9165 37.0996 50.455C37.0996 50.9935 37.5384 51.43 38.0796 51.43H43.6796C44.2208 51.43 44.6596 50.9935 44.6596 50.455C44.6596 49.9165 44.2208 49.48 43.6796 49.48H38.0796Z" fill="#900E51"/>
<path d="M48.4302 51.42V44.05C44.8602 43.69 41.3202 45.64 39.8302 49.1C39.5002 49.86 39.3002 50.64 39.2002 51.42H48.4302Z" fill="#900E51"/>
<path d="M64.3596 46.54C64.3596 47.0813 64.7961 47.52 65.3346 47.52C65.873 47.52 66.3096 47.0813 66.3096 46.54V40.94C66.3096 40.3988 65.873 39.96 65.3346 39.96C64.7961 39.96 64.3596 40.3988 64.3596 40.94V46.54Z" fill="#900E51"/>
<path d="M66.3383 46.57C66.0966 47.0543 66.2913 47.6418 66.7731 47.8823C67.2549 48.1227 67.8414 47.925 68.0831 47.4407L70.5835 42.43C70.8252 41.9457 70.6305 41.3582 70.1487 41.1178C69.6669 40.8773 69.0804 41.075 68.8387 41.5593L66.3383 46.57Z" fill="#900E51"/>
<path d="M68.1751 47.5158C67.7426 47.8412 67.6545 48.4539 67.9782 48.8841C68.302 49.3144 68.915 49.3994 69.3475 49.074L73.8222 45.7069C74.2547 45.3815 74.3429 44.7689 74.0191 44.3386C73.6953 43.9084 73.0823 43.8234 72.6498 44.1488L68.1751 47.5158Z" fill="#900E51"/>
<path d="M69.1001 48.26C68.5589 48.26 68.1201 48.6965 68.1201 49.235C68.1201 49.7735 68.5589 50.21 69.1001 50.21H74.7001C75.2414 50.21 75.6801 49.7735 75.6801 49.235C75.6801 48.6965 75.2414 48.26 74.7001 48.26H69.1001Z" fill="#900E51"/>
<path d="M64.3496 50.22V42.85C67.9196 42.49 71.4596 44.44 72.9496 47.9C73.2796 48.66 73.4796 49.44 73.5796 50.22H64.3496Z" fill="#900E51"/>
<path d="M54.7097 55.55C56.3997 51.63 54.5897 47.07 50.6597 45.37C46.7297 43.67 42.1697 45.47 40.4797 49.39C38.7897 53.31 40.5997 57.87 44.5297 59.57C48.4597 61.27 53.0097 59.47 54.7097 55.55Z" fill="#EAEAEA"/>
<path d="M43.8403 51.29C44.2903 48.81 46.6703 47.17 49.1603 47.62C49.7203 47.72 50.2403 47.92 50.7003 48.2C49.8303 48.32 49.0903 48.98 48.9203 49.9C48.7103 51.04 49.4703 52.12 50.6103 52.33C51.5303 52.5 52.4203 52.04 52.8403 51.25C52.9403 51.79 52.9503 52.35 52.8403 52.92C52.3903 55.4 50.0103 57.04 47.5303 56.59C45.0503 56.14 43.4003 53.76 43.8503 51.28L43.8403 51.29Z" fill="#00C000"/>
<path d="M72.8899 51C72.5999 46.63 68.8099 43.31 64.4199 43.6C60.0299 43.89 56.8799 47.61 57.1699 51.98C57.4599 56.36 61.0899 59.74 65.4699 59.45C69.8499 59.16 73.1699 55.38 72.8799 51H72.8899Z" fill="#EAEAEA"/>
<path d="M59.3904 50.52C59.8404 48.04 62.2204 46.4 64.7104 46.85C65.2704 46.95 65.7904 47.15 66.2504 47.42C65.3704 47.54 64.6404 48.21 64.4704 49.12C64.2604 50.25 65.0204 51.34 66.1604 51.55C67.0804 51.72 67.9704 51.26 68.3904 50.47C68.5004 51.01 68.5004 51.58 68.3904 52.15C67.9404 54.63 65.5604 56.27 63.0704 55.82C60.5904 55.37 58.9404 53 59.3904 50.52Z" fill="#00C000"/>
<path d="M61.9604 59.14C62.1904 56.54 60.1704 54.24 57.4504 54.01C54.7304 53.78 52.3504 55.69 52.1204 58.29C51.8904 60.89 53.9104 63.19 56.6304 63.42C59.3504 63.65 61.7304 61.74 61.9604 59.14Z" fill="#E774E9"/>
</g>
<defs>
<clipPath id="clip0_172_3926">
<rect width="54.05" height="77.53" fill="white" transform="translate(28 17)"/>
</clipPath>
</defs>
</svg>
