<svg width="111" height="111" viewBox="0 0 111 111" fill="none" xmlns="http://www.w3.org/2000/svg">
<circle cx="55.5" cy="55.5" r="55.5" fill="#2638C1"/>
<g clip-path="url(#clip0_172_3929)">
<path d="M34.4503 62.01L45.9603 44.61C45.2503 40.7 43.0103 37.07 39.4403 34.7C32.4903 30.1 23.1203 32 18.5203 38.95C13.9103 45.9 15.8103 55.26 22.7603 59.87C26.3403 62.24 30.5703 62.89 34.4503 62.01Z" fill="#EAE200"/>
<path d="M33.5198 51.19C35.5498 48.12 38.0798 45.58 40.9298 43.59C40.1198 41.91 38.8698 40.41 37.1998 39.3C32.2598 36.02 25.5898 37.37 22.3098 42.32C19.0398 47.26 20.3898 53.93 25.3298 57.2C26.7598 58.15 28.3398 58.7 29.9298 58.89C30.7098 56.22 31.8998 53.62 33.5198 51.18V51.19Z" fill="#E59B00"/>
<path d="M71.9404 58.07L60.1504 40.87C60.7904 36.95 62.9704 33.28 66.5104 30.85C73.3804 26.13 82.7804 27.88 87.5004 34.75C92.2204 41.62 90.4704 51.02 83.6004 55.74C80.0604 58.17 75.8504 58.89 71.9504 58.07H71.9404Z" fill="#EAE200"/>
<path d="M72.6898 54.77L64.2998 42.53C64.7598 39.74 66.3098 37.13 68.8198 35.4C73.7098 32.04 80.3998 33.29 83.7598 38.18C87.1198 43.07 85.8698 49.76 80.9798 53.11C78.4598 54.84 75.4598 55.35 72.6898 54.77Z" fill="#E59B00"/>
<path fill-rule="evenodd" clip-rule="evenodd" d="M27.2998 68.89C25.2198 52.57 36.4498 37.7 52.3998 35.66C68.3398 33.63 82.9498 45.21 85.0398 61.53C87.1198 77.85 75.8798 92.72 59.9398 94.76C43.9898 96.79 29.3798 85.21 27.2998 68.89Z" fill="#EAE200"/>
<path fill-rule="evenodd" clip-rule="evenodd" d="M34.9199 55.99C34.2799 51.02 37.7999 46.48 42.7699 45.85C47.7399 45.22 52.2799 48.73 52.9099 53.7C53.5399 58.67 50.0299 63.21 45.0599 63.84C40.0899 64.47 35.5499 60.96 34.9199 55.99Z" fill="#EAEAEA"/>
<path fill-rule="evenodd" clip-rule="evenodd" d="M58.41 51.32C57.78 46.35 61.29 41.81 66.26 41.18C71.23 40.55 75.77 44.06 76.4 49.03C77.04 54 73.52 58.54 68.55 59.17C63.58 59.8 59.04 56.29 58.41 51.32Z" fill="#EAEAEA"/>
<path d="M39.1104 53.72C39.1604 50.85 41.5304 48.57 44.3904 48.62C45.0404 48.63 45.6504 48.76 46.2204 48.99C45.2604 49.28 44.5604 50.17 44.5404 51.22C44.5204 52.53 45.5603 53.62 46.8804 53.64C47.9403 53.66 48.8503 52.98 49.1703 52.02C49.3803 52.61 49.5004 53.24 49.4904 53.9C49.4404 56.76 47.0703 59.04 44.2104 58.99C41.3504 58.94 39.0604 56.57 39.1204 53.71L39.1104 53.72Z" fill="#0079EA"/>
<path d="M61.6299 49.48C61.6799 46.61 64.0499 44.33 66.9099 44.38C67.5599 44.39 68.1699 44.52 68.7399 44.75C67.7799 45.04 67.0799 45.93 67.0599 46.98C67.0399 48.29 68.0799 49.38 69.3999 49.4C70.4599 49.42 71.3699 48.74 71.6899 47.78C71.8999 48.37 72.0199 49 72.0099 49.66C71.9599 52.52 69.5899 54.8 66.7299 54.75C63.8699 54.7 61.5799 52.33 61.6399 49.47L61.6299 49.48Z" fill="#0079EA"/>
<path d="M55.2902 18.89C56.4302 22.54 53.1802 23.08 48.3602 24.73C44.4702 26.07 41.8102 26.35 40.9702 22.61C40.1302 18.88 42.7102 15.12 46.7202 14.22C50.7402 13.32 54.1202 15.16 55.2802 18.88L55.2902 18.89Z" fill="#0079EA"/>
<path d="M40.33 28.18C38.54 26.29 42.28 23.03 47.4 21.03C52.52 19.03 58.82 17.71 59.04 20.81C59.17 22.64 55.92 25.66 50.81 27.65C45.69 29.65 41.59 29.51 40.34 28.18H40.33Z" fill="#0061C4"/>
<path d="M40.1396 27.47C39.4696 25.76 43.0796 22.76 48.1996 20.76C53.3196 18.76 58.0096 18.53 58.6696 20.23C59.3296 21.94 55.7296 24.94 50.6096 26.94C45.4896 28.94 40.7996 29.17 40.1396 27.47Z" fill="#0079EA"/>
<path d="M42.2298 25.98C42.2098 25.93 42.1998 25.88 42.1898 25.82L41.3398 23.65L55.0398 18.31L55.8498 20.4C55.9098 20.47 55.9598 20.54 55.9898 20.62C56.0198 20.7 56.0398 20.79 56.0398 20.88V20.9C56.0198 22.11 53.4398 24.04 49.9298 25.41C46.4198 26.78 43.2098 27.1 42.3798 26.23H42.3398L42.2998 26.13C42.2698 26.08 42.2398 26.04 42.2198 25.99L42.2298 25.98Z" fill="#EA0000"/>
<path d="M41.4102 23.87C40.9602 22.71 43.6702 20.56 47.4702 19.08C51.2702 17.6 54.7202 17.34 55.1702 18.5C55.6202 19.66 52.9102 21.81 49.1102 23.29C45.3102 24.77 41.8602 25.03 41.4102 23.87Z" fill="#0079EA"/>
<path d="M58.3196 73.65C50.0796 74.13 42.6196 70.21 38.1596 63.95C37.8296 65.59 37.6796 67.29 37.7896 69.04C38.4296 80.2 47.9996 88.72 59.1596 88.07C70.3096 87.43 78.8296 77.86 78.1896 66.7C78.0896 64.95 77.7496 63.28 77.2296 61.68C73.5196 68.41 66.5596 73.16 58.3196 73.64V73.65Z" fill="#E59B00"/>
<path fill-rule="evenodd" clip-rule="evenodd" d="M51.2304 59.13C50.7004 55 53.7704 51.21 58.0704 50.66C62.3804 50.11 66.3004 53.01 66.8204 57.15C67.3504 61.28 64.2804 65.07 59.9704 65.62C55.6604 66.17 51.7404 63.27 51.2204 59.14L51.2304 59.13Z" fill="#DE0059"/>
<path d="M41.6296 71.51C41.9696 70.91 42.3996 70.4 42.8996 69.99C43.9596 71.06 45.3196 72.08 46.8896 72.96C48.4596 73.84 50.0395 74.45 51.5096 74.8C51.4195 75.44 51.2196 76.08 50.8796 76.68C49.4496 79.23 46.2196 80.14 43.6696 78.72C41.1196 77.29 40.1996 74.07 41.6296 71.51Z" fill="#EA0000"/>
<path fill-rule="evenodd" clip-rule="evenodd" d="M46.7503 73.25C46.7503 73.25 45.9203 74.27 45.4103 75.17C44.8503 76.18 44.2803 77.84 44.2803 77.84C44.2803 77.84 45.4903 76.3 45.9803 75.54C46.4703 74.8 46.7403 73.24 46.7403 73.24L46.7503 73.25Z" fill="#980000"/>
</g>
<defs>
<clipPath id="clip0_172_3929">
<rect width="74.15" height="80.99" fill="white" transform="translate(16 14)"/>
</clipPath>
</defs>
</svg>
