<svg width="111" height="111" viewBox="0 0 111 111" fill="none" xmlns="http://www.w3.org/2000/svg">
<circle cx="55.5" cy="55.5" r="55.5" fill="#2638C1"/>
<g clip-path="url(#clip0_172_3942)">
<path d="M72.6296 96.46C81.5096 93.21 89.1296 87.35 94.5896 79.82C90.5496 79.96 87.2296 79.52 86.0396 77.79C82.5996 72.77 77.4296 70.26 80.4396 62.18C83.4596 54.11 69.8096 56.9 68.7796 61.76C67.7496 66.62 65.0596 78.15 68.5796 87.36C69.6096 90.06 71.0196 93.23 72.6196 96.46H72.6296Z" fill="#EC1C24"/>
<path d="M79.7399 64.62C79.7399 64.62 79.6099 69.15 80.9899 71.38C81.6499 72.44 74.8899 72.29 74.7899 71.66C74.4999 69.85 79.7399 64.61 79.7399 64.61V64.62Z" fill="#D5005E"/>
<path d="M84.6496 75.95C84.6496 75.95 86.5696 78.24 87.3596 78.61C90.3096 80.02 92.7296 79.82 92.7296 79.82C92.7296 79.82 86.8996 86.95 85.0896 86.71C83.2796 86.47 84.6596 75.95 84.6596 75.95H84.6496Z" fill="#D5005E"/>
<path d="M66.2204 63.98C67.3704 65.42 68.9804 66.05 69.8204 65.39C70.6604 64.72 70.4204 63.01 69.2704 61.57C68.1204 60.13 66.5104 59.5 65.6704 60.16C64.8304 60.83 65.0704 62.54 66.2204 63.98Z" fill="white"/>
<path d="M63.1198 65.21C64.2698 66.65 65.8798 67.28 66.7198 66.62C67.5598 65.95 67.3198 64.24 66.1698 62.8C65.0198 61.36 63.4098 60.73 62.5698 61.39C61.7298 62.05 61.9698 63.77 63.1198 65.21Z" fill="white"/>
<path d="M60.5104 67.29C61.6604 68.73 63.2705 69.36 64.1105 68.7C64.9505 68.03 64.7105 66.32 63.5605 64.88C62.4105 63.44 60.8004 62.81 59.9604 63.47C59.1204 64.14 59.3604 65.85 60.5104 67.29Z" fill="white"/>
<path d="M57.8903 69.36C59.0403 70.8 60.6503 71.43 61.4903 70.77C62.3303 70.1 62.0903 68.39 60.9403 66.95C59.7903 65.51 58.1803 64.88 57.3403 65.54C56.5003 66.21 56.7403 67.92 57.8903 69.36Z" fill="white"/>
<path d="M55.28 71.44C56.43 72.88 58.04 73.51 58.88 72.85C59.72 72.18 59.48 70.47 58.33 69.03C57.18 67.59 55.57 66.96 54.73 67.62C53.89 68.29 54.13 70 55.28 71.44Z" fill="white"/>
<path d="M52.6599 73.51C53.8099 74.95 55.4199 75.58 56.2599 74.92C57.0999 74.25 56.8599 72.54 55.7099 71.1C54.5599 69.66 52.9499 69.03 52.1099 69.69C51.2699 70.36 51.5099 72.07 52.6599 73.51Z" fill="white"/>
<path d="M50.0505 75.58C51.2005 77.02 52.8105 77.65 53.6505 76.99C54.4905 76.32 54.2505 74.61 53.1005 73.17C51.9505 71.73 50.3405 71.1 49.5005 71.76C48.6605 72.43 48.9005 74.14 50.0505 75.58Z" fill="white"/>
<path d="M47.4304 77.66C48.5804 79.1 50.1904 79.73 51.0304 79.07C51.8704 78.4 51.6304 76.69 50.4804 75.25C49.3304 73.81 47.7204 73.18 46.8804 73.84C46.0404 74.51 46.2804 76.22 47.4304 77.66Z" fill="white"/>
<path d="M44.82 79.73C45.97 81.17 47.58 81.8 48.42 81.14C49.26 80.47 49.02 78.76 47.87 77.32C46.72 75.88 45.11 75.25 44.27 75.91C43.43 76.58 43.67 78.29 44.82 79.73Z" fill="white"/>
<path d="M40.5703 81.06C41.1003 79.45 42.0303 78.99 44.7703 77.24C58.2903 68.64 65.8103 62.86 67.5303 60.61C68.4703 59.37 72.3203 49.73 73.1303 48.54C78.9403 39.95 82.9303 53.79 77.2803 63.5C69.7603 76.42 55.2203 84.66 47.4503 85.74C40.9803 86.64 40.0503 82.67 40.5803 81.06H40.5703Z" fill="#EC1C24"/>
<path d="M34.7899 58.9C34.3599 60.69 34.8599 62.35 35.9099 62.6C36.9599 62.85 38.1499 61.6 38.5799 59.81C39.0099 58.02 38.5099 56.36 37.4599 56.11C36.4099 55.86 35.2199 57.11 34.7899 58.9Z" fill="white"/>
<path d="M33.22 58.13L31.23 58.2C31 59.8 31.52 61.15 32.45 61.37C33.49 61.62 34.69 60.36 35.12 58.58C35.55 56.8 35.04 55.13 34 54.88C32.96 54.63 31.76 55.89 31.33 57.67L33.22 58.12V58.13Z" fill="white"/>
<path d="M28.3397 56C27.9097 57.79 28.4097 59.45 29.4597 59.7C30.5097 59.95 31.6997 58.7 32.1297 56.91C32.5597 55.12 32.0597 53.46 31.0097 53.21C29.9597 52.96 28.7697 54.21 28.3397 56Z" fill="white"/>
<path d="M38.2002 59.76C38.0602 61.6 38.8202 63.15 39.9002 63.23C40.9702 63.31 41.9502 61.88 42.0902 60.04C42.2302 58.2 41.4702 56.65 40.3902 56.57C39.3202 56.49 38.3402 57.92 38.2002 59.76Z" fill="white"/>
<path d="M41.6301 60.21C41.8601 62.04 42.9201 63.41 43.9901 63.27C45.0601 63.13 45.7301 61.54 45.5001 59.71C45.2701 57.88 44.2101 56.51 43.1401 56.65C42.0701 56.79 41.4001 58.38 41.6301 60.21Z" fill="white"/>
<path d="M45.1497 60.32C45.3797 62.15 46.4397 63.52 47.5097 63.38C48.5797 63.24 49.2497 61.65 49.0197 59.82C48.7897 57.99 47.7297 56.62 46.6597 56.76C45.5897 56.9 44.9197 58.49 45.1497 60.32Z" fill="white"/>
<path d="M48.6702 60.44C48.9002 62.27 49.9602 63.64 51.0302 63.5C52.1002 63.36 52.7702 61.77 52.5402 59.94C52.3102 58.11 51.2502 56.74 50.1802 56.88C49.1102 57.02 48.4402 58.61 48.6702 60.44Z" fill="white"/>
<path d="M52.0198 60.02C52.2498 61.85 53.3098 63.22 54.3798 63.08C55.4498 62.94 56.1198 61.35 55.8898 59.52C55.6598 57.69 54.5998 56.32 53.5298 56.46C52.4598 56.6 51.7898 58.19 52.0198 60.02Z" fill="white"/>
<path d="M55.3999 59.72C55.7399 61.53 56.8799 62.84 57.9299 62.64C58.9799 62.44 59.5699 60.81 59.2199 59C58.8799 57.19 57.7399 55.88 56.6899 56.08C55.6299 56.28 55.0499 57.91 55.3999 59.72Z" fill="white"/>
<path d="M58.7202 59.28C59.1602 61.07 60.3702 62.31 61.4102 62.05C62.4502 61.79 62.9402 60.13 62.5002 58.34C62.0602 56.55 60.8502 55.31 59.8102 55.57C58.7702 55.83 58.2802 57.49 58.7202 59.28Z" fill="white"/>
<path d="M61.5795 58.31C62.0195 60.1 63.2295 61.34 64.2695 61.08C65.3095 60.82 65.7995 59.16 65.3595 57.37C64.9195 55.58 63.7095 54.34 62.6695 54.6C61.6295 54.86 61.1395 56.52 61.5795 58.31Z" fill="white"/>
<path d="M64.4604 56.8C64.9004 58.59 66.1104 59.83 67.1504 59.57C68.1904 59.31 68.6804 57.65 68.2404 55.86C67.8004 54.07 66.5904 52.83 65.5504 53.09C64.5104 53.35 64.0204 55.01 64.4604 56.8Z" fill="white"/>
<path d="M78.9102 32.94C72.1302 28.75 63.4502 31.06 63.4502 31.06C63.4502 31.06 24.7002 17.95 21.6002 38.86C20.8602 43.84 16.3302 61.47 50.8602 60.91C55.6902 60.83 63.3102 60.46 65.4502 59.34C67.5902 58.22 69.4902 57.25 69.8902 55.88C70.2302 54.72 71.5702 61.54 72.8602 61.77C74.7502 62.11 76.5602 62.25 77.6302 61.92C83.6702 60.02 92.2402 41.17 78.9102 32.94Z" fill="#EC1C24"/>
<path fill-rule="evenodd" clip-rule="evenodd" d="M64.1702 35.76C65.9202 33.48 65.4802 30.22 63.2002 28.47C60.9202 26.73 57.6502 27.16 55.9002 29.45C54.1602 31.73 54.6002 35 56.8802 36.74C59.1602 38.48 62.4302 38.04 64.1702 35.76Z" fill="white"/>
<path d="M57.7097 31.88C58.3897 30.25 60.2597 29.47 61.8997 30.16C62.2697 30.31 62.5897 30.53 62.8697 30.79C62.2597 30.74 61.6497 31.09 61.3997 31.69C61.0897 32.44 61.4397 33.29 62.1897 33.61C62.7997 33.86 63.4697 33.68 63.8797 33.2C63.8697 33.59 63.7897 33.97 63.6297 34.35C62.9497 35.98 61.0697 36.76 59.4397 36.07C57.8097 35.39 57.0297 33.52 57.7097 31.88Z" fill="#3FB200"/>
<path fill-rule="evenodd" clip-rule="evenodd" d="M74.59 42.17C76.78 39.29 76.24 35.19 73.36 32.99C70.49 30.79 66.37 31.34 64.18 34.22C61.98 37.09 62.53 41.2 65.4 43.4C68.28 45.6 72.39 45.05 74.59 42.17Z" fill="white"/>
<path d="M65.9202 37.1C66.6102 35.17 68.7302 34.17 70.6502 34.86C71.0902 35.01 71.4702 35.24 71.8002 35.52C71.0902 35.5 70.4102 35.93 70.1602 36.64C69.8502 37.52 70.3102 38.5 71.1902 38.81C71.9002 39.06 72.6702 38.81 73.1102 38.23C73.1202 38.68 73.0602 39.13 72.9002 39.57C72.2102 41.5 70.1002 42.5 68.1702 41.81C66.2402 41.12 65.2402 39.01 65.9302 37.08L65.9202 37.1Z" fill="#3FB200"/>
<path d="M71.878 51.3369C75.921 50.9732 79.0332 48.8412 78.8293 46.575C78.6255 44.3087 75.1827 42.7664 71.1398 43.13C67.0968 43.4937 63.9846 45.6257 64.1884 47.8919C64.3923 50.1582 67.835 51.7006 71.878 51.3369Z" fill="#EC1C24"/>
<path d="M85.03 51.73C85.03 51.73 77.7 54.17 77.47 54.64C77.12 55.35 80.92 59.5 81.29 59.03C84.12 55.45 85.03 51.73 85.03 51.73Z" fill="#D5005E"/>
<path d="M85.22 40.82C85.22 40.82 80.42 43.86 80.33 44.52C80.25 45.09 85.79 48.24 85.84 47.83C86.38 43.95 85.21 40.82 85.21 40.82H85.22Z" fill="#D5005E"/>
<path d="M32.8405 46.0456C34.2838 45.3137 35.0852 43.9937 34.6306 43.0972C34.176 42.2007 32.6375 42.0673 31.1943 42.7992C29.751 43.531 28.9496 44.8511 29.4042 45.7475C29.8588 46.644 31.3973 46.7775 32.8405 46.0456Z" fill="#BD102D"/>
<path d="M23.765 40.2126C23.9096 39.1287 23.5653 38.1884 22.996 38.1125C22.4267 38.0365 21.8479 38.8536 21.7033 39.9375C21.5586 41.0215 21.9029 41.9617 22.4723 42.0377C23.0416 42.1137 23.6204 41.2966 23.765 40.2126Z" fill="#BD102D"/>
</g>
<defs>
<clipPath id="clip0_172_3942">
<rect width="73.59" height="69.46" fill="white" transform="translate(21 27)"/>
</clipPath>
</defs>
</svg>
