<svg width="111" height="111" viewBox="0 0 111 111" fill="none" xmlns="http://www.w3.org/2000/svg">
<circle cx="55.5" cy="55.5" r="55.5" fill="#2638C1"/>
<g clip-path="url(#clip0_172_3967)">
<path fill-rule="evenodd" clip-rule="evenodd" d="M31 40.41C31 22.99 41.86 14 55.25 14C68.64 14 79.5 23.24 79.5 40.41C79.5 53.25 65.29 74.7 55.25 74.7C45.81 74.69 31 53.25 31 40.41Z" fill="#FDE260"/>
<path d="M56.5901 73.78C56.5901 74.43 55.9701 74.96 55.2101 74.96C54.4501 74.96 53.8301 74.43 53.8301 73.78C53.8301 73.13 54.4501 72.6 55.2101 72.6C55.9701 72.6 56.5901 73.13 56.5901 73.78Z" fill="#FDD106"/>
<path d="M57.9098 75.52C57.9098 75.9 56.6998 75.77 55.2098 75.77C53.7198 75.77 52.5098 75.91 52.5098 75.52C52.5098 74.46 53.7198 74.39 55.2098 74.39C56.6998 74.39 57.9098 74.67 57.9098 75.52Z" fill="#FDD106"/>
<path fill-rule="evenodd" clip-rule="evenodd" d="M32.3604 40.71C32.3604 24.27 42.6104 15.79 55.2504 15.79C67.8904 15.79 78.1404 24.51 78.1404 40.71C78.1404 52.84 64.7304 73.07 55.2504 73.07C46.3404 73.07 32.3604 52.83 32.3604 40.71Z" fill="#FDD106"/>
<path d="M57.6598 75.38C57.6598 75.5 56.5798 75.46 55.2498 75.46C53.9198 75.46 52.8398 75.5 52.8398 75.38C52.8398 75.03 53.9198 75.01 55.2498 75.01C56.5798 75.01 57.6598 75.1 57.6598 75.38Z" fill="#FDED9F"/>
<path d="M56.3198 73.8C56.3198 74.1 55.8598 74.35 55.2898 74.35C54.7198 74.35 54.2598 74.1 54.2598 73.8C54.2598 73.5 54.7198 73.24 55.2898 73.24C55.8598 73.24 56.3198 73.49 56.3198 73.8Z" fill="#FDED9F"/>
<path d="M72.5899 40.34C69.0999 46.28 60.0699 47.45 52.4299 42.95C44.7899 38.45 41.4199 30 44.9199 24.06C48.4099 18.12 57.4399 16.95 65.0799 21.45C72.7199 25.95 76.0899 34.41 72.5899 40.34Z" fill="#FFE100"/>
<path d="M73.9901 34.81C71.7801 24.59 60.7201 18.3 49.2701 20.77C48.4501 20.95 47.6501 21.17 46.8701 21.42C48.7301 20.08 50.8901 19.09 53.2701 18.58C62.5301 16.58 71.6601 22.47 73.6601 31.74C73.9001 32.87 74.0301 33.99 74.0401 35.1C74.0201 35 74.0101 34.91 73.9901 34.81Z" fill="#FDE860"/>
<path d="M55.4402 75.17C54.2402 76.33 55.7602 77.89 56.2802 79.06C57.7202 82.31 56.2102 84.65 54.3702 87.22C53.1902 88.87 52.0802 90.86 52.5902 92.93C53.0602 94.83 55.1102 96.13 56.8902 96.51C57.2402 96.58 57.9602 96.06 57.4202 95.94C54.9602 95.42 53.0002 93.4 53.4502 90.78C53.8202 88.65 55.5402 86.96 56.7102 85.25C57.6602 83.85 57.8402 82.41 57.6902 80.76C57.5902 79.66 55.3802 76.14 56.1702 75.38C56.5702 75 55.6902 74.9 55.4302 75.16L55.4402 75.17Z" fill="#28D9FF"/>
<path d="M56.0997 74.12C56.0997 74.33 56.0697 74.2 56.2797 74.12C56.3897 74.08 56.2797 74.11 56.1897 74.09C55.9797 74.05 55.7697 73.96 55.5597 73.91C55.0897 73.79 54.5297 73.84 54.2997 74.33C54.0797 74.81 54.9897 74.84 55.1597 74.45C55.1397 74.49 55.0297 74.54 54.9797 74.54C55.0797 74.54 55.1697 74.57 55.2697 74.6C55.4897 74.66 55.7197 74.74 55.9397 74.78C56.4497 74.88 57.0097 74.62 57.0097 74.05C57.0097 73.56 56.0897 73.68 56.0997 74.11V74.12Z" fill="#28D9FF"/>
</g>
<defs>
<clipPath id="clip0_172_3967">
<rect width="48.51" height="82.52" fill="white" transform="translate(31 14)"/>
</clipPath>
</defs>
</svg>
