<svg width="111" height="111" viewBox="0 0 111 111" fill="none" xmlns="http://www.w3.org/2000/svg">
<circle cx="55.5" cy="55.5" r="55.5" fill="#2638C1"/>
<g clip-path="url(#clip0_172_3925)">
<path fill-rule="evenodd" clip-rule="evenodd" d="M46.5496 39.04C47.6996 37.25 29.5196 25.83 28.2396 25.92C26.9596 26.01 15.1496 38.97 20.2896 56.57C23.3696 67.12 26.0596 69.05 27.1096 70.67C26.5496 68.26 44.0396 42.93 46.5496 39.04Z" fill="#0079EA"/>
<path d="M23.5004 51.51C21.1604 42.32 27.3304 31.12 28.8404 31.67C31.7504 32.74 41.8004 38.91 44.5604 40.04C40.2204 43.53 32.9804 55.39 28.2904 62.44C28.1904 62.59 25.3404 58.7 23.5004 51.51Z" fill="#6BE000"/>
<path fill-rule="evenodd" clip-rule="evenodd" d="M55.5097 36.81C53.8897 35.43 68.0597 19.29 69.2997 19C70.5397 18.71 85.5797 27.77 85.6797 46.11C85.7397 57.1 83.7197 59.72 83.1697 61.57C83.0197 59.1 59.0197 39.82 55.5097 36.81Z" fill="#0079EA"/>
<path d="M81.16 42.19C80.78 32.71 71.66 23.74 70.38 24.7C67.89 26.56 60.03 35.34 57.71 37.21C62.87 39.31 73.19 48.61 79.7 54.03C79.84 54.15 81.46 49.6 81.17 42.19H81.16Z" fill="#6BE000"/>
<path fill-rule="evenodd" clip-rule="evenodd" d="M23.1196 64.41C20.4096 47.36 32.1796 31.31 49.4196 28.57C66.6596 25.83 82.8296 37.43 85.5496 54.49C88.2596 71.55 76.4896 87.6 59.2496 90.34C42.0096 93.08 25.8396 81.48 23.1196 64.42V64.41Z" fill="#0079EA"/>
<path d="M76.0295 62.99C79.7295 57.63 79.4495 47 74.5395 40.43C70.2295 34.66 63.8995 31.7 58.6795 32.49C53.7895 33.53 53.0295 35.63 51.5895 37.57C49.9795 36.43 47.6795 35.21 45.5295 34.93C45.1995 34.89 44.8595 34.87 44.5195 34.87C44.3695 34.87 44.2195 34.88 44.0795 34.9C44.0895 34.9 44.0995 34.89 44.1095 34.88C38.4595 35.08 32.6695 40.07 30.1695 47.48C27.5495 55.25 30.5795 65.45 35.7595 69.39C32.8595 69.07 30.0395 68.15 27.5195 66.66C27.5295 66.74 27.5395 66.83 27.5595 66.91C29.9295 81.83 44.1095 91.98 59.2295 89.57C74.2295 87.18 84.5195 73.33 82.3495 58.54C80.5495 60.41 78.3895 61.91 76.0295 62.98V62.99Z" fill="#6BE000"/>
<path fill-rule="evenodd" clip-rule="evenodd" d="M29.2004 53.53C27.5204 47.71 30.8804 41.64 36.7004 39.96C42.5204 38.28 48.5904 41.64 50.2704 47.46C51.9504 53.28 48.5904 59.35 42.7804 61.03C36.9604 62.71 30.8804 59.35 29.2104 53.53H29.2004Z" fill="#EAEAEA"/>
<path fill-rule="evenodd" clip-rule="evenodd" d="M54.0304 47.44C52.3504 41.62 55.7104 35.55 61.5304 33.87C67.3504 32.19 73.4204 35.55 75.1004 41.37C76.7804 47.19 73.4204 53.26 67.6104 54.94C61.7904 56.62 55.7104 53.26 54.0404 47.44H54.0304Z" fill="#EAEAEA"/>
<path fill-rule="evenodd" clip-rule="evenodd" d="M46.5501 58.73C45.8301 54.18 49.0801 49.88 53.8301 49.13C58.5701 48.38 63.0001 51.45 63.7301 56C64.4601 60.55 61.2001 64.85 56.4501 65.6C51.7001 66.35 47.2801 63.28 46.5501 58.73Z" fill="#DE0059"/>
<path fill-rule="evenodd" clip-rule="evenodd" d="M53.6204 74.08C61.0904 74.41 67.7604 70.51 71.3304 64.5C71.8804 66.24 72.1504 68.1 72.0604 70.03C71.6804 78.8 64.2504 85.61 55.4804 85.22C46.7104 84.84 39.9004 77.41 40.2904 68.64C40.2904 68.44 40.3104 68.25 40.3304 68.06C43.7004 71.58 48.3704 73.86 53.6204 74.09V74.08Z" fill="#0079EA"/>
<path d="M58.9404 43.84C59.0104 40.87 61.4804 38.51 64.4704 38.57C65.1404 38.58 65.7804 38.72 66.3704 38.96C65.3704 39.26 64.6404 40.17 64.6104 41.27C64.5804 42.64 65.6604 43.76 67.0304 43.8C68.1404 43.82 69.0904 43.12 69.4304 42.13C69.6504 42.74 69.7604 43.4 69.7504 44.08C69.6804 47.05 67.2104 49.42 64.2304 49.35C61.2504 49.28 58.8804 46.82 58.9504 43.84H58.9404Z" fill="#EA9B00"/>
<path d="M35.29 49.58C35.36 46.61 37.83 44.25 40.82 44.31C41.49 44.32 42.13 44.46 42.72 44.7C41.72 45 40.99 45.91 40.96 47.01C40.93 48.38 42.01 49.5 43.38 49.54C44.49 49.56 45.44 48.86 45.78 47.87C46 48.48 46.11 49.14 46.1 49.82C46.03 52.79 43.56 55.16 40.58 55.09C37.6 55.02 35.23 52.56 35.3 49.58H35.29Z" fill="#EA9B00"/>
</g>
<defs>
<clipPath id="clip0_172_3925">
<rect width="66.94" height="71.73" fill="white" transform="translate(19 19)"/>
</clipPath>
</defs>
</svg>
