<svg width="111" height="111" viewBox="0 0 111 111" fill="none" xmlns="http://www.w3.org/2000/svg">
<circle cx="55.5" cy="55.5" r="55.5" fill="#2638C1"/>
<g clip-path="url(#clip0_172_3961)">
<path d="M84.6402 54.42C85.5302 70.6 73.1302 84.44 56.9502 85.32C40.7702 86.21 26.9302 73.81 26.0402 57.63C25.1602 41.45 37.5602 27.62 53.7402 26.73C69.9202 25.84 83.7602 38.24 84.6402 54.42Z" fill="#DF0059"/>
<path d="M53.6498 38C44.2998 38.51 36.0398 34.47 32.3098 28.28C31.3198 30.42 30.8298 32.74 30.9698 35.14C31.4998 44.87 41.9898 52.21 54.3898 51.53C66.7898 50.85 76.4198 42.41 75.8798 32.68C75.7498 30.28 75.0098 28.03 73.7998 26.01C70.7698 32.57 62.9998 37.49 53.6498 38.01V38Z" fill="#DF0059"/>
<path d="M78.4304 51.27C79.8704 45.08 76.0204 38.91 69.8304 37.47C63.6504 36.03 57.4604 39.88 56.0304 46.06C54.5904 52.25 58.4404 58.42 64.6304 59.86C70.8104 61.3 76.9904 57.45 78.4304 51.27Z" fill="white"/>
<path d="M61.8802 48.54C61.7402 45.59 64.0102 43.09 66.9602 42.94C67.6202 42.91 68.2702 43 68.8702 43.19C67.9002 43.56 67.2402 44.52 67.3002 45.6C67.3702 46.95 68.5102 47.99 69.8702 47.93C70.9602 47.88 71.8502 47.12 72.1202 46.11C72.3802 46.7 72.5402 47.34 72.5702 48.02C72.7102 50.97 70.4402 53.48 67.4902 53.62C64.5402 53.76 62.0302 51.49 61.8902 48.54H61.8802Z" fill="#923BFF"/>
<path d="M52.5603 52.68C54.0003 46.49 50.1503 40.32 43.9603 38.88C37.7803 37.44 31.5903 41.29 30.1603 47.48C28.7203 53.67 32.5703 59.84 38.7603 61.28C44.9403 62.72 51.1303 58.87 52.5603 52.69V52.68Z" fill="white"/>
<path d="M36.01 49.96C35.87 47.01 38.14 44.51 41.09 44.36C41.75 44.33 42.4 44.42 42.99 44.61C42.02 44.98 41.36 45.94 41.42 47.02C41.49 48.37 42.63 49.41 43.99 49.35C45.08 49.3 45.97 48.54 46.24 47.53C46.5 48.12 46.66 48.76 46.69 49.44C46.83 52.39 44.56 54.9 41.61 55.04C38.66 55.18 36.15 52.91 36.01 49.96Z" fill="#923BFF"/>
<path d="M49.0803 61.91L55.8003 54.04C56.0903 54.19 56.3603 54.38 56.6003 54.61C58.3803 56.27 58.1403 59.25 56.0803 61.28C54.0103 63.31 50.9003 63.61 49.1203 61.95C49.1003 61.93 49.0903 61.92 49.0703 61.9L49.0803 61.91Z" fill="#F69C00"/>
<path d="M46.1901 65.44L57.2901 53.21C56.9901 52.78 56.6301 52.39 56.2201 52.05C53.2401 49.57 48.5601 50.55 45.7701 54.23C42.9801 57.91 43.1301 62.9 46.1101 65.37C46.1401 65.39 46.1601 65.41 46.1901 65.43V65.44Z" fill="#FFC000"/>
</g>
<defs>
<clipPath id="clip0_172_3961">
<rect width="58.68" height="59.37" fill="white" transform="translate(26 26)"/>
</clipPath>
</defs>
</svg>
