<svg width="111" height="111" viewBox="0 0 111 111" fill="none" xmlns="http://www.w3.org/2000/svg">
<circle cx="55.5" cy="55.5" r="55.5" fill="#2638C1"/>
<g clip-path="url(#clip0_172_3939)">
<path d="M76.12 45.69C76.31 45.6 76.46 45.46 76.54 45.28C76.71 44.9 76.57 44.44 76.21 44.04C76.35 43.95 76.46 43.83 76.54 43.68C76.71 43.3 76.57 42.83 76.21 42.44C76.35 42.35 76.46 42.23 76.54 42.08C76.8 41.51 76.35 40.74 75.52 40.32C75.65 39.75 75.18 39.05 74.37 38.68C74.31 38.65 74.26 38.64 74.2 38.61C74.28 38.54 74.36 38.45 74.41 38.35C74.68 37.76 74.19 36.95 73.31 36.55C72.97 36.39 72.62 36.32 72.3 36.32C68.84 30.03 62.74 25.84 55.8 25.84C48.86 25.84 42.72 30.05 39.27 36.37C39.1 36.41 38.93 36.46 38.76 36.54C37.88 36.95 37.39 37.76 37.66 38.34C37.71 38.44 37.78 38.53 37.87 38.6C37.81 38.62 37.76 38.64 37.7 38.67C36.9 39.04 36.42 39.75 36.55 40.31C35.72 40.73 35.27 41.5 35.53 42.07C35.6 42.22 35.71 42.34 35.86 42.43C35.5 42.82 35.36 43.29 35.53 43.67C35.6 43.82 35.71 43.94 35.86 44.03C35.5 44.43 35.36 44.89 35.53 45.27C35.62 45.45 35.77 45.58 35.95 45.68C35.16 46.11 34.74 46.85 34.99 47.41C35.12 47.68 35.39 47.85 35.73 47.92C35.47 48.28 35.37 48.68 35.53 49.01C35.66 49.29 35.95 49.47 36.3 49.53C36.83 61.42 45.36 70.88 55.81 70.88C66.26 70.88 74.78 61.44 75.31 49.55C75.88 49.59 76.37 49.4 76.55 49.01C76.7 48.68 76.61 48.28 76.35 47.92C76.69 47.85 76.96 47.68 77.09 47.41C77.35 46.86 76.92 46.11 76.13 45.68L76.12 45.69Z" fill="#FFD223"/>
<path d="M77.1894 59.87C77.3894 59.79 77.5494 59.68 77.6394 59.52C77.8194 59.2 77.6694 58.8 77.2994 58.46C77.4494 58.38 77.5694 58.28 77.6394 58.16C77.8194 57.84 77.6694 57.44 77.2994 57.1C77.4494 57.02 77.5694 56.92 77.6394 56.79C77.9194 56.31 77.4394 55.65 76.5694 55.29C76.7094 54.81 76.2094 54.21 75.3594 53.89C75.2994 53.87 75.2394 53.85 75.1794 53.83C75.2694 53.77 75.3494 53.7 75.3994 53.61C75.6894 53.11 75.1694 52.42 74.2394 52.07C73.8794 51.93 73.5094 51.87 73.1694 51.87C69.5194 46.51 63.0994 42.95 55.7894 42.95C48.4794 42.95 42.0094 46.53 38.3694 51.92C38.1894 51.95 38.0094 52 37.8294 52.07C36.8994 52.42 36.3794 53.11 36.6694 53.61C36.7194 53.7 36.7994 53.77 36.8894 53.83C36.8294 53.85 36.7694 53.86 36.7094 53.89C35.8594 54.21 35.3694 54.81 35.4994 55.29C34.6294 55.65 34.1494 56.3 34.4294 56.79C34.4994 56.92 34.6194 57.02 34.7694 57.1C34.3894 57.44 34.2394 57.84 34.4294 58.16C34.4994 58.29 34.6194 58.39 34.7694 58.47C34.3994 58.81 34.2394 59.2 34.4294 59.52C34.5194 59.67 34.6794 59.79 34.8794 59.87C34.0494 60.23 33.5994 60.87 33.8694 61.34C33.9994 61.57 34.2894 61.72 34.6394 61.78C34.3594 62.09 34.2694 62.42 34.4294 62.7C34.5694 62.94 34.8694 63.09 35.2494 63.15C35.3294 64.67 35.6094 66.15 36.0594 67.56C35.9094 67.63 35.7894 67.72 35.7094 67.84C35.4594 68.25 35.8694 68.81 36.6294 69.13C36.4494 69.2 36.3094 69.3 36.2194 69.43C36.0494 69.71 36.1894 70.06 36.5294 70.35C36.3894 70.42 36.2894 70.51 36.2194 70.62C36.0494 70.9 36.1894 71.25 36.5294 71.54C36.3894 71.61 36.2894 71.7 36.2194 71.81C35.9694 72.23 36.3994 72.81 37.1994 73.12C37.0794 73.54 37.5294 74.07 38.2994 74.34C38.3494 74.36 38.4094 74.37 38.4594 74.39C38.3794 74.44 38.3094 74.51 38.2594 74.58C37.9994 75.02 38.4694 75.62 39.3194 75.92C39.6494 76.04 39.9894 76.09 40.2894 76.09C43.6094 80.78 49.4494 83.9 56.1094 83.9C62.7694 83.9 68.6394 80.76 71.9594 76.05C72.1194 76.02 72.2894 75.98 72.4494 75.92C73.2894 75.62 73.7694 75.01 73.5094 74.58C73.4594 74.5 73.3894 74.44 73.3094 74.39C73.3594 74.37 73.4194 74.36 73.4694 74.34C74.2394 74.06 74.6894 73.54 74.5694 73.12C75.3594 72.81 75.7994 72.23 75.5494 71.81C75.4794 71.7 75.3794 71.61 75.2394 71.54C75.5794 71.25 75.7194 70.9 75.5494 70.62C75.4794 70.51 75.3794 70.42 75.2394 70.35C75.5794 70.06 75.7194 69.71 75.5494 69.43C75.4694 69.3 75.3194 69.2 75.1394 69.13C75.8894 68.81 76.2994 68.26 76.0594 67.84C75.9694 67.68 75.7894 67.57 75.5694 67.51C75.9994 66.12 76.2694 64.67 76.3594 63.18C76.9594 63.22 77.4694 63.06 77.6694 62.72C77.8294 62.44 77.7294 62.1 77.4494 61.8C77.8094 61.74 78.0894 61.59 78.2294 61.36C78.4994 60.89 78.0494 60.25 77.2194 59.89L77.1894 59.87Z" fill="#FFD223"/>
<path d="M52.4697 44.28L58.0497 44.23L55.2597 46.28L52.4697 44.28Z" fill="#FF5D00"/>
<path d="M51.7197 81.39L51.4997 83.86C51.4997 83.86 50.5597 84.57 50.7397 85.1C50.9097 85.62 50.8497 86.34 50.8497 86.34V88.48L52.2097 88.43L52.0097 86.16C52.0097 86.16 53.1297 85.46 52.6097 84.59C52.0897 83.72 52.2997 82.67 52.2997 82.67L53.0197 81.45L51.7297 81.39H51.7197Z" fill="#F7931E"/>
<path d="M59.1594 81.39L59.3694 83.86C59.3694 83.86 60.2894 84.57 60.1194 85.1C59.9394 85.62 59.9994 86.34 59.9994 86.34V88.48L58.6494 88.43L58.8494 86.16C58.8494 86.16 57.7294 85.46 58.2594 84.59C58.7794 83.72 58.5694 82.67 58.5694 82.67L57.8594 81.45L59.1594 81.39Z" fill="#F7931E"/>
<path d="M56.98 22.69C57.47 24.24 57.35 26.34 56.48 26.61C55.61 26.88 54.32 25.22 53.84 23.67C53.36 22.12 53.86 21.25 54.72 20.98C55.59 20.71 56.49 21.14 56.98 22.69Z" fill="#FFD223"/>
<path d="M57.7899 24.41C56.8099 25.1 56.0499 26.2 56.5599 26.55C57.0699 26.9 58.6599 26.35 59.6299 25.67C60.5999 24.98 60.5999 24.42 60.0899 24.07C59.5799 23.72 58.7699 23.72 57.7899 24.41Z" fill="#FFD223"/>
<path d="M58.6998 21.36C57.8798 22.23 57.3498 23.46 57.9198 23.7C58.4898 23.94 59.9398 23.09 60.7498 22.22C61.5698 21.35 61.4498 20.8 60.8798 20.56C60.3098 20.32 59.5098 20.49 58.6898 21.35L58.6998 21.36Z" fill="#FFD223"/>
<path d="M51.9795 88.29C51.9795 88.29 49.5195 87.85 48.2095 88.2C46.8895 88.55 44.6095 88.99 44.6095 88.99C44.6095 88.99 44.0795 88.9 44.1695 89.43C44.2595 89.96 44.3495 90.13 45.1395 89.87C45.9295 89.61 46.3695 89.34 47.3295 89.17C48.2895 89 48.9995 88.91 48.9995 88.91C48.9995 88.91 46.7195 89.7 46.4595 90.05C46.1995 90.4 45.4995 91.28 46.2795 91.1C47.0695 90.93 47.5995 91.01 48.2995 90.49C48.9995 89.96 49.5295 89.79 49.8795 89.61C50.2295 89.43 49.6995 90.57 49.6195 90.84C49.5295 91.1 48.7395 92.16 49.4395 91.98C50.1395 91.8 50.6695 91.19 51.0195 90.66C51.3695 90.13 51.6295 89.26 52.1595 89.17C52.6895 89.08 53.2095 89 53.2995 88.73C53.3895 88.47 52.7695 88.03 52.5095 88.03C52.2495 88.03 51.9795 88.29 51.9795 88.29Z" fill="#F7931E"/>
<path d="M58.6296 88.29C58.6296 88.29 61.0796 87.85 62.3996 88.2C63.7196 88.55 65.9996 88.99 65.9996 88.99C65.9996 88.99 66.5296 88.9 66.4396 89.43C66.3496 89.96 66.2596 90.13 65.4696 89.87C64.6796 89.61 64.2396 89.34 63.2796 89.17C62.3196 89 61.6096 88.91 61.6096 88.91C61.6096 88.91 63.8896 89.7 64.1496 90.05C64.4096 90.4 65.1196 91.28 64.3296 91.1C63.5396 90.93 63.0096 91.01 62.3096 90.49C61.6096 89.96 61.0796 89.79 60.7296 89.61C60.3796 89.43 60.8996 90.57 60.9896 90.84C61.0796 91.1 61.8696 92.16 61.1696 91.98C60.4696 91.8 59.9396 91.19 59.5896 90.66C59.2396 90.13 58.9796 89.26 58.4496 89.17C57.9196 89.08 57.3996 89 57.3096 88.73C57.2196 88.47 57.8396 88.03 58.0996 88.03C58.3596 88.03 58.6296 88.29 58.6296 88.29Z" fill="#F7931E"/>
<path d="M53.8692 40.49C54.7792 37.37 52.9792 34.11 49.8592 33.2C46.7392 32.29 43.4692 34.08 42.5692 37.21C41.6592 40.33 43.4592 43.59 46.5792 44.5C49.6992 45.41 52.9692 43.61 53.8692 40.49Z" fill="white"/>
<path d="M68.4894 40.49C69.3994 37.37 67.5993 34.11 64.4793 33.2C61.3593 32.29 58.0893 34.08 57.1893 37.21C56.2793 40.33 58.0794 43.59 61.1994 44.5C64.3194 45.41 67.5894 43.61 68.4894 40.49Z" fill="white"/>
<path d="M58.4699 38.75C58.4799 36.54 60.2899 34.77 62.4899 34.78C62.9899 34.78 63.4599 34.88 63.8999 35.04C63.1599 35.28 62.6299 35.96 62.6299 36.77C62.6299 37.78 63.4399 38.61 64.4499 38.61C65.2699 38.61 65.9599 38.08 66.1999 37.35C66.3699 37.8 66.4599 38.29 66.4599 38.79C66.4499 41 64.6499 42.78 62.4399 42.76C60.2299 42.74 58.4499 40.95 58.4699 38.74V38.75Z" fill="#923BFF"/>
<path d="M44.0295 38.75C44.0395 36.54 45.8495 34.77 48.0495 34.78C48.5495 34.78 49.0195 34.88 49.4595 35.04C48.7195 35.28 48.1895 35.96 48.1895 36.77C48.1895 37.78 48.9995 38.61 50.0095 38.61C50.8295 38.61 51.5195 38.08 51.7595 37.35C51.9295 37.8 52.0195 38.29 52.0195 38.79C52.0095 41 50.2095 42.78 47.9995 42.76C45.7895 42.74 44.0095 40.95 44.0295 38.74V38.75Z" fill="#923BFF"/>
<path d="M51.5195 44.65C51.5195 44.65 54.2895 45 55.5695 44.91C56.8495 44.82 58.5395 44.07 58.5395 44.07C58.5395 44.07 57.5495 43.1 57.1495 42.41C56.7495 41.72 56.3695 40.7 56.3695 40.7C56.3695 40.7 54.7495 40.87 53.5295 41.73C52.3095 42.59 51.5195 44.65 51.5195 44.65Z" fill="#F7931E"/>
<path d="M40.6296 50.17C39.3896 49.33 37.9196 49.11 36.5696 49.42C35.2696 49.17 19.6596 46.82 18.2296 47.07C16.7596 47.32 16.0396 49.12 19.3696 50.22L22.6996 51.32C22.6996 51.32 19.2396 51.85 20.2096 52.95C21.1796 54.05 23.8996 55.04 24.5396 55.09C25.1896 55.14 22.3396 55.79 23.4796 56.89C24.6196 57.99 26.3196 58.29 27.8296 58.32C28.9396 58.34 31.7596 57.46 33.1796 57C33.5596 57.69 34.1096 58.31 34.8096 58.78C37.1896 60.39 40.4196 59.76 42.0196 57.38C43.6296 55 42.9996 51.77 40.6196 50.17H40.6296Z" fill="#FFD223"/>
<path d="M71.0396 50.43C72.2396 49.55 73.6996 49.26 75.0596 49.51C76.3496 49.2 91.8496 46.24 93.2896 46.43C94.7696 46.63 95.5596 48.39 92.2796 49.63L88.9996 50.87C88.9996 50.87 92.4796 51.26 91.5496 52.4C90.6196 53.54 87.9496 54.63 87.3096 54.71C86.6596 54.79 89.5296 55.33 88.4396 56.47C87.3396 57.61 85.6496 57.99 84.1496 58.07C83.0396 58.13 80.1896 57.37 78.7596 56.97C78.3996 57.68 77.8796 58.31 77.1996 58.81C74.8896 60.51 71.6396 60.01 69.9396 57.7C68.2396 55.39 68.7396 52.14 71.0496 50.44L71.0396 50.43Z" fill="#FFD223"/>
<g style="mix-blend-mode:multiply" opacity="0.49">
<path d="M36.3797 37.1L38.0797 35.56L38.8397 37.44L40.3497 35.73L41.4797 37.62L42.6097 35.92L44.1197 38C44.1197 38 47.1497 34.98 47.7097 34.98C48.2697 34.98 49.0297 38.38 49.0297 38.38L50.7297 35.54L51.8697 38.38L53.9497 35.92L57.3497 38.19L59.0497 39.13L60.9397 34.97L63.2097 38.37L65.4797 38.94L65.8597 35.73L68.8897 39.7L71.3497 36.11L73.6197 38.95L75.8897 36.49L77.2097 39.14L77.5197 38.82C73.4097 27.97 65.3797 19.84 56.1497 19.84C47.5897 19.84 40.0597 26.84 35.7197 36.51L36.3897 37.1H36.3797Z" fill="#C7B299"/>
<path d="M76.8495 50.13L75.3395 52.02L72.8795 49.75L71.3695 51.64L70.2395 49.37L66.4595 51.83L65.5095 49.37L62.6695 51.45L61.7295 49.37L59.6495 51.45L58.1395 49.56L56.4395 51.45L54.7395 48.61L53.4195 52.01L50.3995 49.93L48.6995 51.25L46.9995 48.6C46.9995 48.6 45.4895 51.44 45.4895 52C45.4895 52.56 43.5995 49.35 43.5995 49.35L41.1395 51.05L37.5495 48.97L35.6595 50.67L35.8395 48.02L33.9395 51.23V47.83L32.8295 49.15C32.4195 51.58 32.0195 54.06 32.0195 56.55C32.0195 74.32 42.8295 85.89 56.2795 85.89C69.7295 85.89 80.5795 74.32 80.5795 56.55C80.5795 55.1 80.4795 53.65 80.3395 52.22L76.8895 50.1L76.8495 50.13Z" fill="#C7B299"/>
</g>
<path d="M36.3797 36.53L38.0797 34.99L38.8397 36.87L40.3497 35.16L41.4797 37.05L42.6097 35.35L44.1197 37.43C44.1197 37.43 47.1497 34.41 47.7097 34.41C48.2697 34.41 49.0297 37.81 49.0297 37.81L50.7297 34.97L51.8697 37.81L53.9497 35.35L57.3497 37.62L59.0497 38.56L60.9397 34.4L63.2097 37.8L65.4797 38.37L65.8597 35.16L68.8897 39.13L71.3497 35.54L73.6197 38.38L75.8897 35.92L77.2097 38.57L77.5197 38.26C73.4097 27.4 65.3797 19.27 56.1497 19.27C47.5897 19.27 40.0597 26.27 35.7197 35.94L36.3897 36.53H36.3797Z" fill="#E9E0D6"/>
<path d="M76.8495 50.69L75.3395 52.58L72.8795 50.31L71.3695 52.2L70.2395 49.93L66.4595 52.39L65.5095 49.93L62.6695 52.01L61.7295 49.93L59.6495 52.01L58.1395 50.12L56.4395 52.01L54.7395 49.17L53.4195 52.57L50.3995 50.49L48.6995 51.81L46.9995 49.16C46.9995 49.16 45.4895 52 45.4895 52.56C45.4895 53.12 43.5995 49.91 43.5995 49.91L41.1395 51.61L37.5495 49.53L35.6595 51.23L35.8395 48.58L33.9395 51.79V48.39L32.8295 49.71C32.4195 52.14 32.0195 54.62 32.0195 57.11C32.0195 74.88 42.8295 86.45 56.2795 86.45C69.7295 86.45 80.5795 74.88 80.5795 57.11C80.5795 55.66 80.4795 54.21 80.3395 52.78L76.8895 50.66L76.8495 50.69Z" fill="#E9E0D6"/>
<path opacity="0.41" d="M70.0398 37.13L71.3598 35.2L73.6298 38.04L75.2498 36.28C71.6698 28.03 65.6898 21.79 58.7598 20.52C63.5798 24.26 67.5298 30.21 70.0298 37.14L70.0398 37.13Z" fill="#FAF2F5"/>
<path opacity="0.41" d="M78.5095 51.72L76.8395 50.69L75.3295 52.58L72.8695 50.31L72.5395 50.72C72.8095 52.79 72.9695 54.88 72.9695 56.99C72.9695 69.12 68.3095 78.55 61.2695 83.8C71.3095 81.23 78.7995 71.11 78.7995 56.64C78.7995 54.99 78.6995 53.34 78.5095 51.71V51.72Z" fill="#FAF2F5"/>
<path opacity="0.34" d="M50.81 19.87C45.25 22.12 40.43 26.91 37 33.01C36.55 33.85 36.11 34.71 35.71 35.6L36.38 36.19L38.08 34.65L38.84 36.53L40.35 34.82L41.48 36.71L42.36 35.38C45.24 28.57 49.55 22.76 54.75 18.99C53.4 19.11 52.08 19.41 50.8 19.86L50.81 19.87Z" fill="#C7B299"/>
<path opacity="0.34" d="M51.5293 86.01C43.6593 80.35 38.4793 70.42 38.4793 57.69C38.4793 55.25 38.6693 52.82 39.0393 50.43L37.5193 49.55L35.6293 51.25L35.8093 48.6L33.9093 51.81V48.41L32.7993 49.73C32.3893 52.16 31.9893 54.64 31.9893 57.13C31.9893 72.81 40.2993 83.66 51.5393 85.99L51.5293 86.01Z" fill="#C7B299"/>
<g opacity="0.53">
<path d="M48.5993 29.76C48.4493 30.18 48.5193 30.59 48.7593 30.68C48.9993 30.77 49.3193 30.5 49.4693 30.09C49.6193 29.67 49.5493 29.26 49.3093 29.17C49.0693 29.08 48.7493 29.35 48.5893 29.76H48.5993Z" fill="#C7B299"/>
<path d="M49.5495 31.82C49.3995 32.24 49.4695 32.65 49.7095 32.74C49.9495 32.83 50.2695 32.56 50.4195 32.15C50.5695 31.73 50.4995 31.32 50.2595 31.24C50.0195 31.15 49.6995 31.42 49.5495 31.83V31.82Z" fill="#C7B299"/>
<path d="M47.0192 31.74C46.8692 32.16 46.9392 32.57 47.1792 32.66C47.4192 32.75 47.7392 32.48 47.8892 32.06C48.0392 31.64 47.9692 31.23 47.7292 31.14C47.4892 31.05 47.1692 31.32 47.0192 31.73V31.74Z" fill="#C7B299"/>
<path d="M67.0388 55.41C66.8888 55.83 66.9588 56.24 67.1988 56.33C67.4388 56.42 67.7588 56.15 67.9088 55.74C68.0588 55.32 67.9888 54.91 67.7488 54.82C67.5088 54.73 67.1888 55 67.0288 55.41H67.0388Z" fill="#C7B299"/>
<path d="M67.989 57.47C67.839 57.89 67.909 58.3 68.149 58.39C68.389 58.48 68.709 58.21 68.859 57.8C69.009 57.38 68.939 56.97 68.699 56.89C68.459 56.8 68.139 57.07 67.989 57.48V57.47Z" fill="#C7B299"/>
<path d="M65.4597 57.39C65.3097 57.81 65.3797 58.22 65.6197 58.31C65.8597 58.4 66.1797 58.13 66.3297 57.71C66.4797 57.29 66.4097 56.88 66.1697 56.79C65.9297 56.7 65.6097 56.97 65.4597 57.38V57.39Z" fill="#C7B299"/>
<path d="M66.239 60.22C66.089 60.64 66.159 61.05 66.399 61.14C66.639 61.23 66.959 60.96 67.109 60.55C67.259 60.13 67.189 59.72 66.949 59.63C66.709 59.54 66.389 59.81 66.229 60.22H66.239Z" fill="#C7B299"/>
<path d="M67.1892 62.28C67.0392 62.7 67.1092 63.11 67.3492 63.2C67.5892 63.29 67.9092 63.02 68.0592 62.6C68.2092 62.18 68.1392 61.77 67.8992 61.69C67.6592 61.6 67.3392 61.87 67.1892 62.28Z" fill="#C7B299"/>
<path d="M64.6491 62.2C64.4991 62.62 64.5691 63.03 64.8091 63.12C65.0491 63.21 65.3691 62.94 65.5191 62.53C65.6691 62.11 65.5991 61.7 65.3591 61.61C65.1191 61.52 64.7991 61.79 64.6491 62.21V62.2Z" fill="#C7B299"/>
</g>
</g>
<defs>
<clipPath id="clip0_172_3939">
<rect width="77.57" height="73" fill="white" transform="translate(17 19)"/>
</clipPath>
</defs>
</svg>
