<svg width="68" height="67" viewBox="0 0 68 67" fill="none" xmlns="http://www.w3.org/2000/svg">
<circle cx="33.6268" cy="33.4022" r="33.4022" fill="#2638C1"/>
<g clip-path="url(#clip0_1689_6698)">
<path d="M19.7676 37.8004L27.4303 26.2164C26.9576 23.6134 25.4663 21.1967 23.0896 19.6189C18.4627 16.5565 12.2247 17.8214 9.16227 22.4483C6.09319 27.0752 7.35811 33.3066 11.985 36.3757C14.3684 37.9535 17.1845 38.3862 19.7676 37.8004Z" fill="#EAE200"/>
<path d="M19.149 30.597C20.5005 28.5532 22.1848 26.8622 24.0822 25.5374C23.5429 24.4189 22.7108 23.4203 21.599 22.6813C18.3102 20.4977 13.8697 21.3965 11.686 24.6919C9.50905 27.9807 10.4078 32.4212 13.6966 34.5982C14.6486 35.2306 15.7005 35.5968 16.759 35.7233C17.2783 33.9457 18.0705 32.2148 19.149 30.5904V30.597Z" fill="#E59B00"/>
<path d="M44.7261 35.1774L36.877 23.7266C37.303 21.1169 38.7543 18.6736 41.1111 17.0558C45.6847 13.9135 51.9427 15.0786 55.085 19.6522C58.2274 24.2259 57.0623 30.4839 52.4886 33.6262C50.1319 35.2439 47.3291 35.7233 44.7327 35.1774H44.7261Z" fill="#EAE200"/>
<path d="M45.2262 32.9804L39.6406 24.8317C39.9469 22.9743 40.9788 21.2367 42.6498 20.085C45.9053 17.8481 50.3591 18.6802 52.596 21.9357C54.8329 25.1912 54.0007 29.645 50.7452 31.8753C49.0676 33.027 47.0703 33.3665 45.2262 32.9804Z" fill="#E59B00"/>
<path fill-rule="evenodd" clip-rule="evenodd" d="M15.0069 42.3807C13.6222 31.5158 21.0985 21.6162 31.7171 20.258C42.3291 18.9066 52.0556 26.6159 53.447 37.4808C54.8317 48.3458 47.3488 58.2454 36.7368 59.6035C26.1182 60.955 16.3917 53.2456 15.0069 42.3807Z" fill="#EAE200"/>
<path fill-rule="evenodd" clip-rule="evenodd" d="M20.0793 33.7926C19.6532 30.4839 21.9967 27.4614 25.3054 27.042C28.6142 26.6226 31.6366 28.9593 32.056 32.2681C32.4755 35.5768 30.1387 38.5993 26.83 39.0187C23.5212 39.4381 20.4987 37.1014 20.0793 33.7926Z" fill="#EAEAEA"/>
<path fill-rule="evenodd" clip-rule="evenodd" d="M35.7186 30.6835C35.2992 27.3748 37.6359 24.3523 40.9447 23.9329C44.2534 23.5135 47.2759 25.8502 47.6953 29.159C48.1214 32.4677 45.778 35.4902 42.4692 35.9096C39.1605 36.329 36.138 33.9923 35.7186 30.6835Z" fill="#EAEAEA"/>
<path d="M22.8691 32.2813C22.9024 30.3706 24.4802 28.8527 26.3843 28.886C26.817 28.8927 27.2231 28.9792 27.6026 29.1324C26.9635 29.3254 26.4974 29.9179 26.4841 30.617C26.4708 31.4891 27.1632 32.2148 28.042 32.2281C28.7477 32.2414 29.3535 31.7887 29.5665 31.1496C29.7063 31.5424 29.7862 31.9618 29.7796 32.4012C29.7463 34.3052 28.1685 35.8231 26.2644 35.7898C24.3604 35.7565 22.8359 34.1787 22.8758 32.2747L22.8691 32.2813Z" fill="#0079EA"/>
<path d="M37.8613 29.4586C37.8946 27.5479 39.4724 26.03 41.3765 26.0633C41.8092 26.0699 42.2153 26.1565 42.5948 26.3096C41.9557 26.5027 41.4896 27.0952 41.4763 27.7942C41.463 28.6663 42.1554 29.392 43.0342 29.4053C43.7398 29.4186 44.3457 28.9659 44.5587 28.3268C44.6985 28.7196 44.7784 29.139 44.7717 29.5784C44.7385 31.4824 43.1606 33.0003 41.2566 32.967C39.3526 32.9338 37.828 31.3559 37.868 29.4519L37.8613 29.4586Z" fill="#0079EA"/>
<path d="M33.641 9.0935C34.4 11.5235 32.2363 11.883 29.0274 12.9814C26.4377 13.8735 24.6668 14.0599 24.1076 11.5701C23.5483 9.08684 25.266 6.58364 27.9356 5.98447C30.6119 5.3853 32.8621 6.61027 33.6344 9.08684L33.641 9.0935Z" fill="#0079EA"/>
<path d="M23.6811 15.2782C22.4895 14.02 24.9793 11.8497 28.3879 10.5182C31.7966 9.18669 35.9907 8.30791 36.1372 10.3717C36.2238 11.59 34.0601 13.6006 30.6581 14.9254C27.2495 16.2569 24.52 16.1637 23.6878 15.2782H23.6811Z" fill="#0061C4"/>
<path d="M23.5552 14.8056C23.1092 13.6672 25.5125 11.6699 28.9211 10.3384C32.3297 9.00696 35.4521 8.85384 35.8915 9.9856C36.3309 11.124 33.9342 13.1213 30.5256 14.4527C27.117 15.7842 23.9946 15.9374 23.5552 14.8056Z" fill="#0079EA"/>
<path d="M24.946 13.8137C24.9327 13.7804 24.9261 13.7471 24.9194 13.7071L24.3535 12.2625L33.4742 8.7074L34.0135 10.0988C34.0534 10.1454 34.0867 10.192 34.1067 10.2453C34.1266 10.2985 34.14 10.3584 34.14 10.4184V10.4317C34.1266 11.2372 32.409 12.5221 30.0723 13.4342C27.7355 14.3462 25.5985 14.5593 25.0459 13.9801H25.0193L24.9926 13.9135C24.9727 13.8802 24.9527 13.8536 24.9394 13.8203L24.946 13.8137Z" fill="#EA0000"/>
<path d="M24.4017 12.4089C24.1021 11.6366 25.9062 10.2053 28.4361 9.21996C30.9659 8.23466 33.2627 8.06157 33.5623 8.83383C33.8619 9.60609 32.0577 11.0374 29.5279 12.0227C26.9981 13.008 24.7012 13.1811 24.4017 12.4089Z" fill="#0079EA"/>
<path d="M35.6583 45.5496C30.1726 45.8692 25.2061 43.2595 22.2369 39.0919C22.0172 40.1837 21.9173 41.3155 21.9906 42.4806C22.4166 49.9103 28.7878 55.5824 36.2175 55.1497C43.6406 54.7236 49.3127 48.3524 48.8866 40.9227C48.82 39.7577 48.5937 38.6459 48.2475 37.5807C45.7776 42.0611 41.144 45.2234 35.6583 45.543V45.5496Z" fill="#E59B00"/>
<path fill-rule="evenodd" clip-rule="evenodd" d="M30.9381 35.8831C30.5852 33.1335 32.629 30.6104 35.4917 30.2442C38.3611 29.878 40.9708 31.8087 41.317 34.5649C41.6698 37.3144 39.626 39.8376 36.7567 40.2037C33.8873 40.5699 31.2776 38.6392 30.9314 35.8897L30.9381 35.8831Z" fill="#DE0059"/>
<path d="M24.5467 44.125C24.773 43.7255 25.0593 43.386 25.3922 43.113C26.0979 43.8254 27.0033 44.5044 28.0485 45.0903C29.0937 45.6761 30.1456 46.0823 31.1242 46.3153C31.0643 46.7413 30.9312 47.1674 30.7048 47.5669C29.7528 49.2645 27.6024 49.8703 25.9048 48.925C24.2072 47.973 23.5947 45.8293 24.5467 44.125Z" fill="#EA0000"/>
<path fill-rule="evenodd" clip-rule="evenodd" d="M27.9569 45.2833C27.9569 45.2833 27.4043 45.9624 27.0648 46.5616C26.692 47.234 26.3125 48.3391 26.3125 48.3391C26.3125 48.3391 27.118 47.3138 27.4443 46.8079C27.7705 46.3152 27.9502 45.2767 27.9502 45.2767L27.9569 45.2833Z" fill="#980000"/>
</g>
<defs>
<clipPath id="clip0_1689_6698">
<rect width="49.3649" height="53.9186" fill="white" transform="translate(7.48438 5.83801)"/>
</clipPath>
</defs>
</svg>
