<svg width="111" height="111" viewBox="0 0 111 111" fill="none" xmlns="http://www.w3.org/2000/svg">
<circle cx="55.5" cy="55.5" r="55.5" fill="#2638C1"/>
<g clip-path="url(#clip0_172_3948)">
<path d="M68.0298 68C64.7498 81.17 51.8698 89.31 39.2598 86.17C26.6498 83.03 17.9598 72.95 21.2298 59.78C24.5098 46.61 35.0498 34.01 47.6598 37.15C60.2798 40.29 71.3097 54.83 68.0298 68Z" fill="#DF0059"/>
<path fill-rule="evenodd" clip-rule="evenodd" d="M82.7402 55.18C82.5302 69.99 70.3502 81.82 55.5402 81.61C40.7302 81.4 28.9002 69.22 29.1102 54.41C29.3202 39.6 41.5002 27.76 56.3102 27.98C71.1202 28.19 82.9502 40.37 82.7402 55.18Z" fill="#DF0059"/>
<path fill-rule="evenodd" clip-rule="evenodd" d="M67.7697 23.7C63.1797 27.07 62.3597 31.45 65.6697 35.7C68.9797 39.95 75.3897 40.65 79.9897 37.28C84.5797 33.91 85.6197 27.73 82.2997 23.49C78.9897 19.25 72.3597 20.33 67.7697 23.7Z" fill="#DF0059"/>
<path fill-rule="evenodd" clip-rule="evenodd" d="M68.0404 24.58C63.6104 27.94 62.7104 32.15 65.7104 36.1C68.7104 40.06 74.7304 40.55 79.1604 37.19C83.5904 33.84 84.7404 27.91 81.7404 23.95C78.7404 19.99 72.4604 21.22 68.0404 24.58Z" fill="#FC810F"/>
<path fill-rule="evenodd" clip-rule="evenodd" d="M68.66 28.04C66.4 31.44 66.78 35.43 69.5 36.95C72.22 38.47 76.25 36.95 78.51 33.54C80.77 30.14 80.39 26.15 77.67 24.63C74.95 23.11 70.92 24.63 68.66 28.04Z" fill="white"/>
<path d="M72.1099 30.88C71.0199 32.41 70.6299 34 71.2199 34.42C71.8099 34.84 73.1699 33.94 74.2599 32.41C75.3399 30.88 75.7399 29.29 75.1499 28.87C74.5599 28.45 73.1899 29.35 72.1099 30.88Z" fill="#DF0059"/>
<path d="M73.1196 32.31C71.8096 32.87 70.9496 33.78 71.1896 34.35C71.4296 34.91 72.6896 34.92 73.9996 34.35C75.3096 33.79 76.1796 32.88 75.9296 32.31C75.6896 31.75 74.4296 31.74 73.1196 32.31Z" fill="#DF0059"/>
<path d="M72.6397 31.97C72.5497 33.39 71.9797 34.51 71.3597 34.47C70.7497 34.43 70.3197 33.25 70.4197 31.83C70.5097 30.41 71.0797 29.29 71.6997 29.33C72.3097 29.37 72.7297 30.55 72.6397 31.98V31.97Z" fill="#DF0059"/>
<path fill-rule="evenodd" clip-rule="evenodd" d="M43.4002 23.3C47.8602 26.88 48.5402 31.39 45.1202 35.63C41.7002 39.88 35.3202 40.42 30.8702 36.84C26.4202 33.26 25.5702 26.91 28.9902 22.66C32.4002 18.41 38.9502 19.72 43.4002 23.3Z" fill="#DF0059"/>
<path fill-rule="evenodd" clip-rule="evenodd" d="M43.1899 24.22C47.5199 27.7 48.2999 31.94 45.1899 35.8C42.0799 39.67 36.0399 39.99 31.7099 36.51C27.3799 33.03 26.3999 27.07 29.5099 23.2C32.6199 19.33 38.8599 20.74 43.1899 24.22Z" fill="#FC810F"/>
<path fill-rule="evenodd" clip-rule="evenodd" d="M42.4704 27.66C44.6304 31.13 44.1404 35.1 41.3704 36.54C38.6104 37.98 34.6204 36.34 32.4704 32.87C30.3104 29.4 30.8004 25.43 33.5604 23.99C36.3204 22.55 40.3104 24.19 42.4704 27.66Z" fill="white"/>
<path d="M40.1103 30.86C41.2703 32.6 41.6603 34.37 40.9803 34.82C40.3103 35.27 38.8203 34.22 37.6703 32.48C36.5103 30.74 36.1203 28.97 36.8003 28.52C37.4703 28.07 38.9603 29.12 40.1103 30.86Z" fill="#DF0059"/>
<path d="M38.9503 32.42C40.3903 33.08 41.3203 34.13 41.0303 34.74C40.7403 35.36 39.3503 35.32 37.9103 34.66C36.4703 34 35.5403 32.96 35.8303 32.34C36.1203 31.72 37.5103 31.76 38.9503 32.42Z" fill="#DF0059"/>
<path d="M39.4901 32.07C39.5501 33.65 40.1501 34.91 40.8301 34.89C41.5101 34.87 42.0201 33.56 41.9601 31.98C41.9001 30.4 41.3001 29.13 40.6201 29.16C39.9401 29.18 39.4301 30.49 39.4901 32.07Z" fill="#DF0059"/>
<path d="M67.4997 67.45C64.2197 80.62 51.3397 88.76 38.7297 85.62C26.1097 82.48 17.4197 72.4 20.6897 59.23C23.9697 46.06 34.5097 33.46 47.1197 36.6C59.7397 39.74 70.7697 54.28 67.4897 67.45H67.4997Z" fill="#DF0059"/>
<path d="M67.8305 66.83C64.6105 79.78 51.9705 87.77 39.5905 84.7C27.2105 81.61 18.6805 71.71 21.9005 58.77C25.1205 45.82 35.4705 33.44 47.8505 36.52C60.2305 39.6 71.0505 53.89 67.8305 66.83Z" fill="white"/>
<path d="M44.0004 66.59C46.7404 79.6 59.0804 87.85 71.5704 85.02C84.0604 82.19 92.9504 72.47 90.2104 59.46C87.4703 46.45 77.5804 33.87 65.1004 36.69C52.6104 39.52 41.2704 53.58 44.0104 66.58L44.0004 66.59Z" fill="white"/>
<path fill-rule="evenodd" clip-rule="evenodd" d="M70.5702 73.95C70.4302 84 63.6302 92.05 55.4002 91.93C47.1702 91.81 40.6102 83.57 40.7502 73.52C40.8902 63.47 47.6902 55.41 55.9202 55.53C64.1602 55.65 70.7102 63.89 70.5702 73.95Z" fill="#DF0059"/>
<path fill-rule="evenodd" clip-rule="evenodd" d="M82.7304 56C82.5204 70.81 70.3404 82.64 55.5304 82.43C40.7204 82.22 28.8904 70.04 29.1004 55.23C29.3104 40.42 41.4904 28.59 56.3004 28.8C71.1104 29.01 82.9404 41.19 82.7304 56Z" fill="#FC810F"/>
<path d="M62.2304 49.53C61.8604 45.96 64.4604 42.77 68.0304 42.4C71.6104 42.03 74.6504 44.6 75.0204 48.17C75.3904 51.74 72.9404 54.96 69.3604 55.33C65.7904 55.7 62.6004 53.1 62.2304 49.53Z" fill="white"/>
<path d="M65.8395 49.25C65.6695 47.63 66.8495 46.19 68.4695 46.02C68.8295 45.98 69.1895 46.02 69.5295 46.1C69.0095 46.33 68.6795 46.88 68.7295 47.47C68.8095 48.21 69.4695 48.75 70.2095 48.67C70.8095 48.61 71.2795 48.16 71.3895 47.6C71.5595 47.92 71.6595 48.26 71.6995 48.64C71.8695 50.26 70.6895 51.71 69.0695 51.87C67.4495 52.04 66.0095 50.86 65.8395 49.24V49.25Z" fill="#9200FF"/>
<path d="M35.0696 46.85C36.2396 42.68 39.3296 38.38 43.8296 35.15C37.3896 37.62 32.8796 42.65 31.5296 47.47C30.0196 52.84 33.9496 59.65 43.5196 55.89C35.6996 56.88 33.6596 51.86 35.0696 46.86V46.85Z" fill="#DF0059"/>
<path d="M36.5998 49.58C36.2398 46.01 38.8298 42.82 42.3998 42.45C45.9698 42.08 49.0198 44.65 49.3898 48.22C49.7598 51.79 47.3098 55.01 43.7298 55.38C40.1598 55.74 36.9698 53.15 36.5998 49.58Z" fill="white"/>
<path d="M40.2204 48.88C40.0504 47.26 41.2304 45.82 42.8504 45.65C43.2104 45.61 43.5704 45.65 43.9004 45.73C43.3804 45.96 43.0404 46.5 43.1004 47.1C43.1804 47.84 43.8404 48.38 44.5804 48.3C45.1804 48.24 45.6504 47.79 45.7604 47.23C45.9304 47.55 46.0304 47.9 46.0704 48.27C46.2304 49.89 45.0604 51.34 43.4404 51.5C41.8204 51.66 40.3804 50.49 40.2104 48.87L40.2204 48.88Z" fill="#9200FF"/>
<path d="M51.7102 30.87C53.5802 30.9 55.2402 31.74 56.3702 33.06C57.5302 31.78 59.2202 30.98 61.0902 31.01C61.6202 31.01 62.1402 31.09 62.6302 31.23C61.8602 30.53 60.8502 30.09 59.7202 30.08C58.4002 30.06 57.2102 30.63 56.3902 31.53C55.5902 30.6 54.4202 30 53.1002 29.98C51.9802 29.96 50.9502 30.37 50.1602 31.05C50.6502 30.93 51.1702 30.87 51.7102 30.88V30.87Z" fill="#DF0059"/>
<path d="M27.4005 59.19C26.8505 54.72 28.4005 48.86 32.0305 43.03C25.8705 49.48 23.0605 56.92 23.7005 62.08C24.4105 67.84 31.4405 67.95 40.5805 64.28C33.2205 65.92 28.0705 64.56 27.4005 59.19Z" fill="#DF0059"/>
<path d="M77.8396 47.46C76.7896 43.26 73.8196 38.87 69.4196 35.51C75.7896 38.16 80.1496 43.32 81.3596 48.17C82.7097 53.58 78.5896 60.27 69.1396 56.24C76.9296 57.45 79.1096 52.5 77.8496 47.45L77.8396 47.46Z" fill="#DF0059"/>
<path d="M84.61 60.01C85.29 55.56 83.9 49.66 80.45 43.72C86.42 50.34 89.02 57.86 88.23 63C87.36 68.73 80.33 68.65 71.29 64.72C78.6 66.57 83.79 65.36 84.61 60.01Z" fill="#DF0059"/>
<path d="M34.75 71.55C31.05 74.29 27.11 74.5 23.79 72.65C26.57 76.37 30.56 77.41 34.12 74.77C36.37 73.1 38.05 70.25 39.03 66.9C37.82 68.76 36.38 70.35 34.75 71.56V71.55Z" fill="#DF0059"/>
<path d="M35.0904 78.81C32.7304 80.71 30.2204 80.85 28.1104 79.58C29.8804 82.14 32.4104 82.86 34.6904 81.03C36.1304 79.88 37.2004 77.91 37.8204 75.59C37.0504 76.87 36.1304 77.97 35.0904 78.81Z" fill="#DF0059"/>
<path d="M77.0404 72.16C80.6604 75.01 84.5904 75.33 87.9704 73.57C85.0804 77.2 81.0704 78.13 77.5804 75.39C75.3804 73.66 73.7804 70.76 72.9004 67.38C74.0604 69.27 75.4504 70.9 77.0404 72.16Z" fill="#DF0059"/>
<path d="M76.5004 78.86C78.8004 80.82 81.3103 81.04 83.4604 79.83C81.6203 82.34 79.0604 82.98 76.8404 81.09C75.4404 79.9 74.4204 77.9 73.8604 75.57C74.6004 76.87 75.4804 78 76.5004 78.87V78.86Z" fill="#DF0059"/>
<path fill-rule="evenodd" clip-rule="evenodd" d="M72.6598 71.02C72.5098 81.54 64.7898 89.97 55.4198 89.83C46.0498 89.7 38.5798 81.06 38.7298 70.53C38.8798 60.01 46.5998 51.58 55.9698 51.72C65.3398 51.85 72.8098 60.5 72.6598 71.02Z" fill="white"/>
<path fill-rule="evenodd" clip-rule="evenodd" d="M72.6404 72.19C72.6404 72.06 72.6604 71.94 72.6604 71.81C72.6604 71.7 72.6604 71.58 72.6604 71.47C72.4204 76.71 68.6304 80.85 64.0404 80.78C60.2604 80.73 57.1004 77.84 56.0504 73.89C56.1404 73.36 56.2004 72.81 56.2004 72.25C56.2004 72.13 56.2004 72.02 56.2004 71.9C56.2004 71.79 56.2204 71.68 56.2204 71.57C56.2304 70.73 56.1404 69.91 55.9804 69.13C56.2804 67.86 56.8004 66.7 57.4804 65.69C56.9604 66.33 56.5104 67.06 56.1604 67.84C56.4704 66.81 56.9204 65.86 57.4904 65.01C56.7404 65.94 56.1504 67.03 55.7504 68.23C55.3904 67.02 54.8304 65.91 54.1004 64.96C54.6504 65.82 55.0704 66.78 55.3504 67.82C55.0104 67.03 54.5904 66.29 54.0904 65.63C54.7404 66.66 55.2304 67.84 55.4904 69.11C55.3004 69.89 55.1904 70.7 55.1804 71.54C55.1804 71.65 55.1804 71.76 55.1804 71.87C55.1804 71.99 55.1604 72.1 55.1604 72.22C55.1604 72.78 55.1904 73.33 55.2704 73.86C54.1104 77.77 50.8704 80.57 47.0804 80.52C42.4904 80.45 38.8104 76.21 38.7304 70.96C38.7304 71.07 38.7104 71.19 38.7104 71.3C38.7104 71.42 38.7104 71.53 38.7204 71.64C38.7204 71.75 38.7004 71.86 38.7004 71.97C38.6204 77.45 42.4704 81.95 47.3104 82.02C51.1104 82.07 54.3704 79.37 55.6304 75.55C56.7804 79.41 59.9704 82.21 63.7604 82.26C68.5904 82.33 72.5704 77.94 72.6504 72.46C72.6504 72.35 72.6504 72.23 72.6504 72.12C72.6504 72.14 72.6504 72.15 72.6504 72.17L72.6404 72.19Z" fill="#DF0059"/>
<path fill-rule="evenodd" clip-rule="evenodd" d="M65.9395 61.12C65.8195 69.75 61.2095 67.33 55.4795 67.25C49.7495 67.17 45.0795 69.46 45.1995 60.82C45.3195 52.18 50.1995 35.89 55.9195 35.97C61.6395 36.05 66.0495 52.48 65.9295 61.11L65.9395 61.12Z" fill="#FC810F"/>
<path d="M49.3105 35.99C52.1105 36.03 54.6005 37.29 56.2805 39.26C58.0205 37.34 60.5505 36.15 63.3405 36.19C64.1405 36.2 64.9105 36.31 65.6405 36.51C64.4905 35.46 62.9705 34.81 61.2905 34.78C59.3105 34.75 57.5305 35.6 56.3005 36.95C55.1105 35.56 53.3505 34.66 51.3805 34.63C49.7005 34.61 48.1605 35.22 46.9805 36.23C47.7205 36.05 48.5005 35.96 49.2905 35.98L49.3105 35.99Z" fill="#DF0059"/>
<path d="M51.5598 41.22C53.4298 41.25 55.0898 42.09 56.2198 43.41C57.3798 42.13 59.0698 41.33 60.9398 41.36C61.4698 41.36 61.9898 41.44 62.4798 41.57C61.7098 40.87 60.6998 40.43 59.5698 40.42C58.2498 40.4 57.0598 40.97 56.2398 41.87C55.4398 40.94 54.2698 40.34 52.9498 40.32C51.8298 40.3 50.7998 40.71 50.0098 41.39C50.4998 41.27 51.0198 41.21 51.5598 41.22Z" fill="#DF0059"/>
<path d="M65.6198 62.47C62.4798 63.45 59.0698 63.96 55.5098 63.91C51.9898 63.86 48.6298 63.26 45.5398 62.21C45.3198 63.11 45.2398 64.05 45.3498 65.02C45.9098 69.96 50.9198 73.54 56.5498 73.02C62.1798 72.5 66.2898 68.08 65.7298 63.13C65.6998 62.91 65.6598 62.69 65.6098 62.47H65.6198Z" fill="#EE5291"/>
</g>
<defs>
<clipPath id="clip0_172_3948">
<rect width="70.7" height="71.93" fill="white" transform="translate(20 20)"/>
</clipPath>
</defs>
</svg>
