<svg width="111" height="111" viewBox="0 0 111 111" fill="none" xmlns="http://www.w3.org/2000/svg">
<circle cx="55.5" cy="55.5" r="55.5" fill="#2638C1"/>
<g clip-path="url(#clip0_172_3964)">
<path opacity="0.2" d="M82.2329 55.1835C82.9462 39.9461 70.8769 27.0017 55.2753 26.2714C39.6738 25.5411 26.4481 37.3015 25.7348 52.5389C25.0216 67.7763 37.0909 80.7207 52.6924 81.451C68.294 82.1813 81.5197 70.4209 82.2329 55.1835Z" fill="#ABE0F9"/>
<path opacity="0.8" d="M74.5296 51.07C72.5196 38.99 59.9596 31.03 46.4796 33.29C45.5096 33.46 44.5696 33.67 43.6396 33.93C45.8896 32.47 48.4596 31.43 51.2596 30.96C62.1696 29.13 72.4897 36.51 74.3097 47.46C74.5296 48.79 74.6097 50.11 74.5797 51.41C74.5597 51.3 74.5496 51.18 74.5296 51.08V51.07Z" fill="#30B8FF"/>
<path opacity="0.8" d="M54.8301 26.26C69.8801 26.97 81.5501 39.82 80.8401 54.92C80.1301 70.02 67.3101 81.73 52.2601 81.02C37.2101 80.32 25.5501 67.46 26.2501 52.36C26.9501 37.26 39.7801 25.55 54.8301 26.26ZM54.8901 25.03C39.1401 24.29 25.7701 36.5 25.0301 52.3C24.2901 68.1 36.4601 81.51 52.2001 82.24C67.9501 82.98 81.3201 70.77 82.0601 54.97C82.8001 39.18 70.6401 25.77 54.8901 25.03Z" fill="#30B8FF"/>
<path opacity="0.2" d="M74.3295 84.69C81.1282 84.69 86.6395 79.3085 86.6395 72.67C86.6395 66.0316 81.1282 60.65 74.3295 60.65C67.5309 60.65 62.0195 66.0316 62.0195 72.67C62.0195 79.3085 67.5309 84.69 74.3295 84.69Z" fill="#ABE0F9"/>
<path opacity="0.8" d="M83.1999 71.04C82.0799 65.83 76.4599 62.63 70.6399 63.88C70.2199 63.97 69.8199 64.09 69.4199 64.22C70.3699 63.54 71.4599 63.03 72.6699 62.77C77.3699 61.75 82.0099 64.75 83.0299 69.47C83.1499 70.04 83.2199 70.62 83.2299 71.18C83.2199 71.13 83.2099 71.08 83.1999 71.04Z" fill="#30B8FF"/>
<path opacity="0.8" d="M74.13 60.65C80.69 60.65 86.02 66 86.02 72.58C86.02 79.16 80.69 84.51 74.13 84.51C67.57 84.51 62.24 79.16 62.24 72.58C62.24 66 67.57 60.65 74.13 60.65ZM74.13 60.12C67.27 60.12 61.71 65.7 61.71 72.58C61.71 79.46 67.27 85.04 74.13 85.04C80.99 85.04 86.55 79.46 86.55 72.58C86.55 65.7 80.99 60.12 74.13 60.12Z" fill="#30B8FF"/>
</g>
<defs>
<clipPath id="clip0_172_3964">
<rect width="61.64" height="60.05" fill="white" transform="translate(25 25)"/>
</clipPath>
</defs>
</svg>
