<svg width="111" height="111" viewBox="0 0 111 111" fill="none" xmlns="http://www.w3.org/2000/svg">
<circle cx="55.5" cy="55.5" r="55.5" fill="#2638C1"/>
<g clip-path="url(#clip0_172_3945)">
<path d="M67.3001 97.23C74.2901 95.29 80.6901 91.93 86.1701 87.48L68.6401 50.8C65.7001 44.32 58.0601 41.45 51.5801 44.39C45.1001 47.33 48.9001 50.17 51.8401 56.66L67.3001 97.23Z" fill="#F69C00"/>
<path d="M65.7402 97.65C72.5102 95.99 78.7602 93.01 84.2102 89L67.1802 51.47C64.2402 44.99 56.6002 42.12 50.1202 45.06C43.6402 48 47.4402 50.84 50.3802 57.33L65.7402 97.65Z" fill="#FFE700"/>
<path fill-rule="evenodd" clip-rule="evenodd" d="M75.2698 77.23C77.1598 78.2 78.1098 80.12 77.3998 81.51C76.6798 82.9 74.5698 83.23 72.6798 82.26C70.7898 81.29 69.8398 79.37 70.5498 77.98C71.2698 76.59 73.3798 76.26 75.2698 77.23Z" fill="#F69C00"/>
<path fill-rule="evenodd" clip-rule="evenodd" d="M72.1097 37.31C71.9997 35.19 73.1697 33.4 74.7297 33.31C76.2897 33.23 77.6497 34.88 77.7597 37C77.8697 39.12 76.6997 40.91 75.1397 41C73.5797 41.08 72.2197 39.43 72.1097 37.31Z" fill="#F69C00"/>
<path fill-rule="evenodd" clip-rule="evenodd" d="M75.9201 69.79C77.7801 70.56 78.8601 72.23 78.3301 73.52C77.8001 74.81 75.8501 75.23 73.9901 74.46C72.1301 73.69 71.0501 72.02 71.5801 70.73C72.1101 69.44 74.0601 69.02 75.9201 69.79Z" fill="#F69C00"/>
<path fill-rule="evenodd" clip-rule="evenodd" d="M79.0798 27.79C78.9298 24.94 80.4098 22.54 82.3798 22.43C84.3598 22.32 86.0798 24.55 86.2398 27.41C86.3898 30.26 84.9098 32.66 82.9398 32.77C80.9598 32.88 79.2398 30.65 79.0798 27.79Z" fill="#F69C00"/>
<path d="M33.7098 48.96C25.5598 46.39 17.6498 39.52 19.1998 34.61C20.7498 29.7 31.1698 28.6 39.3198 31.17C47.4598 33.73 50.2398 38.99 48.6998 43.9C47.1498 48.81 41.8698 51.53 33.7198 48.96H33.7098Z" fill="#FFE700"/>
<path d="M32.8399 46.24C25.6599 43.97 18.2099 38.32 19.3799 34.6C20.5499 30.88 29.8899 30.51 37.0799 32.78C44.2699 35.04 46.5699 39.08 45.3999 42.8C44.2299 46.52 40.0299 48.5 32.8399 46.24Z" fill="#F69C00"/>
<path d="M80.2104 43.21C87.7104 38.44 93.7304 29.26 90.7404 24.57C87.7504 19.88 76.8904 21.44 69.3904 26.21C61.8904 30.98 60.6004 37.15 63.5904 41.84C66.5804 46.54 72.7104 47.98 80.2104 43.21Z" fill="#FFE700"/>
<path d="M78.39 40.5C84.75 36.46 90.48 29.07 88.38 25.78C86.29 22.49 77.17 24.55 70.81 28.6C64.45 32.64 63.27 37.14 65.36 40.43C67.45 43.72 72.03 44.55 78.38 40.51L78.39 40.5Z" fill="#F69C00"/>
<path d="M36.4598 56.56C37.5698 67.87 47.7698 76.13 59.2398 75.01C70.7098 73.88 79.1098 63.8 77.9998 52.48C76.8898 41.17 66.6898 32.91 55.2198 34.04C43.7498 35.17 35.3498 45.25 36.4598 56.56Z" fill="#FFE700"/>
<path d="M58.6999 67.07C59.8599 73.48 55.5999 79.62 49.1799 80.78C42.7599 81.94 36.6199 77.68 35.4599 71.27C34.2999 64.86 38.5599 58.72 44.9799 57.56C51.3999 56.4 57.5399 60.66 58.6999 67.07Z" fill="#FFE700"/>
<path d="M44.8308 20.5335L40.6289 22.4298L47.8893 38.5173L52.0912 36.621L44.8308 20.5335Z" fill="#FFE700"/>
<path d="M58.6567 20.7015L53.6055 37.6132L57.946 38.9097L62.9972 21.9979L58.6567 20.7015Z" fill="#FFE700"/>
<path d="M47.3498 19.61C47.8998 22.67 45.8698 25.61 42.8098 26.16C39.7498 26.71 36.8098 24.68 36.2598 21.62C35.7098 18.56 37.7398 15.62 40.7998 15.07C43.8598 14.52 46.7998 16.55 47.3498 19.61Z" fill="#F69C00"/>
<path d="M68.0002 17.63C68.5502 20.69 66.5202 23.63 63.4602 24.18C60.4002 24.73 57.4602 22.7 56.9102 19.64C56.3602 16.58 58.3902 13.64 61.4502 13.09C64.5102 12.54 67.4502 14.57 68.0002 17.63Z" fill="#F69C00"/>
<path d="M31.8101 51.25C30.4501 46.79 32.9701 42.07 37.4301 40.71C41.9001 39.35 46.4301 41.87 47.7801 46.33C49.1501 50.8 46.8201 55.51 42.3501 56.88C37.8901 58.23 33.1701 55.72 31.8101 51.26V51.25Z" fill="white"/>
<path d="M36.4899 49.43C35.8899 46.96 37.3999 44.46 39.8699 43.86C40.4199 43.72 40.9899 43.69 41.5199 43.76C40.7599 44.23 40.3599 45.14 40.5799 46.05C40.8599 47.18 41.9999 47.88 43.1299 47.6C44.0499 47.38 44.6799 46.59 44.7299 45.69C45.0499 46.15 45.2899 46.67 45.4299 47.23C46.0299 49.7 44.5199 52.2 42.0499 52.81C39.5799 53.41 37.0799 51.9 36.4799 49.43H36.4899Z" fill="#0079FF"/>
<path d="M51.9703 51.68C50.6103 47.22 53.1303 42.5 57.5903 41.14C62.0603 39.78 66.5903 42.3 67.9403 46.76C69.3103 51.23 66.9803 55.94 62.5103 57.31C58.0503 58.67 53.3303 56.15 51.9603 51.69L51.9703 51.68Z" fill="white"/>
<path d="M54.9497 69.75C55.6897 73.83 53.0697 77.71 49.1097 78.43C45.1497 79.15 41.3397 76.42 40.5997 72.35C39.8597 68.27 42.4797 64.39 46.4397 63.67C50.3997 62.95 54.2097 65.68 54.9497 69.76V69.75Z" fill="white"/>
<path d="M34.3796 57.41C25.7196 61.56 20.7696 69.25 23.3196 74.59C25.8796 79.93 34.9696 80.88 43.6396 76.73C52.2996 72.58 57.2596 64.89 54.6996 59.55C52.1396 54.22 43.0496 53.26 34.3796 57.41Z" fill="#FFE700"/>
<path d="M37.9 64.52C38.92 64.79 39.35 66.51 38.86 68.38C38.37 70.25 37.15 71.55 36.14 71.28C35.12 71.01 34.69 69.29 35.18 67.42C35.67 65.55 36.89 64.25 37.91 64.52H37.9Z" fill="#F69C00"/>
<path d="M29.8805 64.57C30.9005 64.84 31.3305 66.56 30.8405 68.43C30.3505 70.3 29.1305 71.6 28.1205 71.33C27.1005 71.06 26.6705 69.34 27.1605 67.47C27.6505 65.6 28.8705 64.3 29.8905 64.57H29.8805Z" fill="#F69C00"/>
<path fill-rule="evenodd" clip-rule="evenodd" d="M72.4 55.92C73.57 57.13 73.79 58.81 72.9 59.67C72.01 60.53 70.34 60.24 69.17 59.03C68 57.82 67.78 56.14 68.67 55.28C69.56 54.42 71.23 54.71 72.39 55.92H72.4Z" fill="#F69C00"/>
<path fill-rule="evenodd" clip-rule="evenodd" d="M65.4195 59.04C66.5895 60.25 66.8095 61.93 65.9195 62.79C65.0295 63.65 63.3595 63.36 62.1895 62.15C61.0195 60.94 60.7995 59.26 61.6895 58.4C62.5795 57.54 64.2495 57.83 65.4095 59.04H65.4195Z" fill="#F69C00"/>
<path fill-rule="evenodd" clip-rule="evenodd" d="M70.7799 64.17C71.9499 65.38 72.1699 67.06 71.2799 67.92C70.3899 68.78 68.7199 68.49 67.5499 67.28C66.3799 66.07 66.1599 64.39 67.0499 63.53C67.9399 62.67 69.6099 62.96 70.7699 64.17H70.7799Z" fill="#F69C00"/>
<path d="M55.9799 49.53C55.4299 47.05 56.9999 44.58 59.4799 44.04C60.0299 43.91 60.5999 43.9 61.1299 43.98C60.3599 44.43 59.9399 45.34 60.1399 46.25C60.3899 47.39 61.5199 48.11 62.6599 47.85C63.5799 47.65 64.2299 46.87 64.3099 45.98C64.6199 46.45 64.8499 46.97 64.9799 47.53C65.5299 50.02 63.9599 52.48 61.4799 53.03C58.9899 53.58 56.5299 52.02 55.9799 49.53Z" fill="#0079FF"/>
<path fill-rule="evenodd" clip-rule="evenodd" d="M78.9504 90.48C79.6404 90.84 80.3504 91.06 81.0404 91.17C82.5704 90.21 84.0304 89.17 85.4504 88.06C85.2704 86.6 84.0704 85.04 82.2404 84.1C79.7004 82.79 76.9004 83.16 76.0004 84.92C75.0904 86.68 76.4204 89.17 78.9604 90.48H78.9504Z" fill="#F69C00"/>
</g>
<defs>
<clipPath id="clip0_172_3945">
<rect width="72.53" height="84.65" fill="white" transform="translate(19 13)"/>
</clipPath>
</defs>
</svg>
