<svg width="67" height="67" viewBox="0 0 67 67" fill="none" xmlns="http://www.w3.org/2000/svg">
<circle cx="33.4022" cy="33.4022" r="33.4022" fill="#FFBD00"/>
<g clip-path="url(#clip0_1695_6382)">
<path fill-rule="evenodd" clip-rule="evenodd" d="M29.2619 21.8177C30.1737 20.5967 17.774 11.5128 16.8556 11.5122C15.9372 11.5116 6.8477 20.1756 9.62399 33.0153C11.2874 40.7117 13.1099 42.2275 13.7774 43.4386C13.4999 41.6877 27.2724 24.4707 29.2619 21.8177Z" fill="#0079EA"/>
<path d="M12.1726 29.5615C10.9684 22.8746 15.9419 15.1826 16.9921 15.6522C19.0153 16.5645 25.8772 21.4839 27.7903 22.4315C24.5147 24.7058 18.7438 32.8153 15.0375 37.6163C14.9585 37.7184 13.1213 34.7937 12.1726 29.5615Z" fill="#6BE000"/>
<path fill-rule="evenodd" clip-rule="evenodd" d="M35.7726 20.6782C34.686 19.6097 45.6218 8.79264 46.5218 8.64824C47.4218 8.50384 57.6996 15.7418 56.8401 28.8548C56.3251 36.7126 54.7499 38.4828 54.2634 39.7771C54.2816 38.0042 38.1257 23.0075 35.7726 20.6782Z" fill="#0079EA"/>
<path d="M53.8115 25.8239C54.0214 19.0291 47.9655 12.1556 47.003 12.7769C45.1308 13.98 39.0736 19.8567 37.3224 21.0756C40.8997 22.8381 47.7955 30.0083 52.1681 34.2122C52.262 34.305 53.6495 31.1352 53.8186 25.8244L53.8115 25.8239Z" fill="#6BE000"/>
<path fill-rule="evenodd" clip-rule="evenodd" d="M11.2471 38.7622C10.1778 26.4388 19.3955 15.5643 31.8429 14.4801C44.2903 13.3959 55.2459 22.5066 56.3219 34.8376C57.3907 47.1681 48.173 58.0426 35.7256 59.1268C23.2782 60.211 12.3226 51.1004 11.2466 38.7693L11.2471 38.7622Z" fill="#0079EA"/>
<path d="M49.0933 40.43C52.007 36.7867 52.3466 29.175 49.1747 24.2303C46.3905 19.8879 42.0215 17.4513 38.2546 17.7513C34.7107 18.2467 34.0615 19.709 32.9349 21.0226C31.8433 20.1262 30.2632 19.1376 28.7425 18.8285C28.5089 18.7831 28.2672 18.7516 28.0244 18.7344C27.9173 18.7268 27.8097 18.7263 27.7088 18.7335C27.7159 18.734 27.7236 18.7274 27.7312 18.7207C23.6873 18.5772 19.3003 21.8501 17.1393 27.0194C14.8744 32.4399 16.5199 39.8837 20.0181 42.9623C17.9639 42.5866 15.9973 41.786 14.2738 40.5933C14.2769 40.651 14.2795 40.7159 14.2897 40.7741C15.2244 51.5578 24.8329 59.5312 35.75 58.5754C46.5804 57.6278 54.6298 48.2506 53.8313 37.5699C52.4513 38.8152 50.833 39.7777 49.0938 40.4228L49.0933 40.43Z" fill="#6BE000"/>
<path fill-rule="evenodd" clip-rule="evenodd" d="M16.1402 31.2943C15.2362 27.0494 17.9431 22.8815 22.1836 21.9758C26.424 21.0702 30.587 23.7794 31.491 28.0243C32.395 32.2691 29.6881 36.4371 25.4548 37.3432C21.2144 38.2489 17.0442 35.5391 16.1473 31.2948L16.1402 31.2943Z" fill="#EAEAEA"/>
<path fill-rule="evenodd" clip-rule="evenodd" d="M34.1763 28.2006C33.2723 23.9558 35.9793 19.7878 40.2197 18.8821C44.4601 17.9765 48.6232 20.6857 49.5272 24.9306C50.4312 29.1754 47.7242 33.3434 43.4909 34.2496C39.2505 35.1552 35.0803 32.4455 34.1835 28.2011L34.1763 28.2006Z" fill="#EAEAEA"/>
<path fill-rule="evenodd" clip-rule="evenodd" d="M28.2629 35.8906C27.9798 32.6021 30.5183 29.6936 33.9476 29.3984C37.3698 29.1027 40.3767 31.5215 40.6669 34.8105C40.9571 38.0995 38.4114 41.0075 34.9821 41.3027C31.5529 41.5979 28.5531 39.1796 28.2629 35.8906Z" fill="#DE0059"/>
<path fill-rule="evenodd" clip-rule="evenodd" d="M32.5312 47.2199C37.8476 47.8345 42.8075 45.3853 45.6613 41.2709C45.9657 42.5424 46.064 43.8854 45.9018 45.2603C45.1854 51.5091 39.5351 55.9996 33.2937 55.2762C27.0517 54.56 22.5669 48.9043 23.2905 42.656C23.3007 42.513 23.3246 42.3783 23.3485 42.2435C25.5758 44.9302 28.7942 46.7965 32.5307 47.2271L32.5312 47.2199Z" fill="#0079EA"/>
<path d="M37.8643 25.8766C38.065 23.7574 39.9482 22.1959 42.0799 22.3904C42.5577 22.4315 43.0075 22.564 43.4166 22.7655C42.6874 22.9292 42.12 23.5426 42.0428 24.3272C41.9518 25.3049 42.666 26.1601 43.6421 26.2582C44.4335 26.3287 45.1473 25.8766 45.4403 25.1863C45.5664 25.6334 45.6114 26.1107 45.5698 26.5962C45.3691 28.7154 43.4853 30.284 41.3613 30.0829C39.2374 29.8818 37.6702 28.0034 37.8714 25.8771L37.8643 25.8766Z" fill="#EA9B00"/>
<path d="M20.6885 28.7799C20.8892 26.6608 22.7724 25.0993 24.9041 25.2938C25.3819 25.3349 25.8317 25.4674 26.2408 25.6688C25.5116 25.8326 24.9442 26.4459 24.867 27.2306C24.776 28.2083 25.4902 29.0635 26.4663 29.1615C27.2578 29.2321 27.9715 28.78 28.2645 28.0897C28.3906 28.5368 28.4357 29.0141 28.394 29.4996C28.1933 31.6188 26.3095 33.1874 24.1856 32.9863C22.0616 32.7851 20.4944 30.9068 20.6956 28.7805L20.6885 28.7799Z" fill="#EA9B00"/>
</g>
<defs>
<clipPath id="clip0_1695_6382">
<rect width="47.9115" height="51.396" fill="white" transform="translate(10.6104 6.09784) rotate(4.06229)"/>
</clipPath>
</defs>
</svg>
