<svg width="111" height="111" viewBox="0 0 111 111" fill="none" xmlns="http://www.w3.org/2000/svg">
<circle cx="55.5" cy="55.5" r="55.5" fill="#2638C1"/>
<g clip-path="url(#clip0_172_3958)">
<path d="M50.1599 31.86C50.1599 31.86 47.9099 34.74 45.9699 33.41C44.0299 32.08 39.3799 27.21 40.1299 22.67C40.8799 18.13 43.4999 15.43 44.4699 16.09C45.4399 16.75 46.2599 17.53 45.3099 19.65C44.3599 21.77 44.6999 23.15 46.8099 26.22C48.9099 29.29 50.1599 31.85 50.1599 31.85V31.86Z" fill="#FFD200"/>
<path d="M35.6602 40.41C42.0902 43.96 49.8702 42.02 50.7102 40.68C51.5502 39.34 48.9002 31.64 42.4702 28.09C36.0402 24.54 29.3002 24.42 27.4202 27.82C25.5402 31.22 29.2302 36.86 35.6602 40.41Z" fill="black"/>
<path d="M37.5702 39.16C42.1702 41.7 47.6402 40.77 48.3302 39.35C49.1202 37.73 47.0402 32.88 42.4402 30.34C37.8402 27.8 33.0202 27.71 31.6802 30.15C30.3302 32.58 32.9702 36.62 37.5702 39.16Z" fill="#FF10FF"/>
<path d="M72.8596 61.27C72.8596 71.46 66.5396 79.71 58.7496 79.71C50.9596 79.71 44.6396 71.45 44.6396 61.27C44.6396 51.09 50.9596 42.83 58.7496 42.83C66.5396 42.83 72.8596 51.09 72.8596 61.27Z" fill="#E2DAEB"/>
<path d="M64.5801 44.0599C64.2801 44.1999 63.9301 44.0799 63.7801 43.7799L63.7301 43.6699C63.5901 43.3699 63.7101 43.02 64.0101 42.87L66.9001 41.4699C67.2001 41.3299 67.5501 41.4499 67.7001 41.7499L67.7501 41.8599C67.8901 42.1599 67.7701 42.5099 67.4701 42.6599L64.5801 44.0599Z" fill="#5E1E81"/>
<path d="M70.2601 51.3199C72.7001 55.1599 73.5601 59.8999 72.2201 64.5199C69.7001 73.2499 60.3001 78.2099 51.2401 75.5999C49.1301 74.9899 47.2301 74.0199 45.5801 72.7899C47.7601 76.2099 51.2001 78.9099 55.4701 80.1499C64.5401 82.7699 73.9301 77.8099 76.4601 69.0699C78.3901 62.3699 75.7101 55.3899 70.2601 51.3199Z" fill="#0079FF"/>
<path d="M54.9305 77.89C53.7105 77.14 52.1305 77.56 51.4105 78.82C50.6905 80.08 51.1005 81.71 52.3305 82.46C53.5505 83.21 55.1205 82.79 55.8405 81.53C56.5605 80.27 56.1505 78.64 54.9305 77.89ZM52.9005 81.47C52.2105 81.05 51.9805 80.13 52.3805 79.41C52.7905 78.7 53.6705 78.46 54.3705 78.89C55.0605 79.31 55.2905 80.23 54.8805 80.94C54.4705 81.65 53.5905 81.89 52.8905 81.47" fill="#F7931E"/>
<path d="M43.9503 87.9C43.4103 89.14 42.9803 90.9599 42.9303 91.4999C42.7403 93.3599 44.2303 93.7699 46.9403 94.86C49.3603 95.83 51.9203 95.91 53.8003 94.12C54.2703 93.68 54.9303 91.8599 55.4003 90.7699C57.7803 85.2899 56.5103 81.6399 53.3503 80.8499C50.1903 80.0599 46.3203 82.42 43.9403 87.9" fill="#FBB03B"/>
<path d="M44.0101 91.19C43.6001 92.14 45.2401 93.39 47.6701 94C50.1001 94.61 52.4001 94.34 52.8101 93.39C53.2201 92.44 51.5801 91.19 49.1501 90.58C46.7201 89.97 44.4201 90.25 44.0101 91.19Z" fill="#F7931E"/>
<path d="M50.6202 81.7C50.6202 81.7 47.7002 85.8 47.0602 87.62L46.4302 89.43L44.7402 89.45C44.7402 89.45 46.1502 84.79 47.7402 83.4C49.3402 82.01 50.6202 81.7 50.6202 81.7Z" fill="#FCEE21"/>
<path d="M46.9396 92.75C46.4996 93.76 46.7396 94.72 47.4596 94.9C48.1796 95.08 49.1196 94.41 49.5596 93.41C49.9996 92.41 49.7596 91.44 49.0396 91.27C48.3096 91.09 47.3796 91.75 46.9396 92.76" fill="#F15A24"/>
<path d="M54.7701 76.41L53.8701 79.23C53.8701 79.23 54.1301 80.27 56.1701 80.8C58.2001 81.33 58.3401 80.12 58.1701 80.02C58.0001 79.92 54.7701 76.42 54.7701 76.42" fill="#0079FF"/>
<path d="M67.3496 36.7C67.3496 36.7 69.5996 39.58 71.5396 38.25C73.4796 36.93 78.1296 32.05 77.3796 27.51C76.6296 22.97 74.0096 20.27 73.0396 20.93C72.0696 21.59 71.2496 22.37 72.1996 24.49C73.1496 26.61 72.8096 27.99 70.6996 31.06C68.5896 34.13 67.3496 36.69 67.3496 36.69V36.7Z" fill="#FFD200"/>
<path d="M79.92 47.96C72.59 48.41 66.4 43.31 66.22 41.74C66.04 40.17 71.74 34.35 79.07 33.91C86.4 33.47 92.54 36.25 92.77 40.13C93 44.01 87.25 47.52 79.92 47.96Z" fill="black"/>
<path d="M78.7298 46.01C73.4898 46.33 68.9398 43.14 68.9298 41.56C68.9098 39.76 72.8798 36.28 78.1198 35.96C83.3598 35.64 87.7498 37.64 87.9198 40.41C88.0898 43.19 83.9698 45.69 78.7298 46.01Z" fill="#FF10FF"/>
<path d="M73.5304 47.58C73.6004 57.97 65.4804 66.45 55.3904 66.52C45.3004 66.59 37.0704 58.22 37.0004 47.82C36.9304 37.43 45.0504 28.95 55.1404 28.88C65.2304 28.81 73.4604 37.18 73.5304 47.58Z" fill="#E2DAEB"/>
<path d="M50.1597 44.86C51.4297 41.17 49.4597 37.15 45.7697 35.89C42.0797 34.62 38.0597 36.59 36.7997 40.28C35.5397 43.97 37.4997 47.98 41.1897 49.25C44.8797 50.51 48.8897 48.55 50.1597 44.86Z" fill="black"/>
<path d="M68.1501 33.17C68.0401 29.87 64.7401 26.45 59.9901 25.04C55.1301 23.59 50.3901 24.74 48.5801 27.58C48.2401 27.82 47.9801 28.15 47.8701 28.54C47.5301 29.68 48.4401 30.96 49.8901 31.39C51.0901 31.75 52.2901 31.42 52.8701 30.65C52.9301 31.61 53.7601 32.54 54.9601 32.9C56.1601 33.26 57.3601 32.93 57.9401 32.16C58.0001 33.12 58.8301 34.05 60.0301 34.41C61.2301 34.77 62.4301 34.44 63.0101 33.67C63.0701 34.63 63.9001 35.56 65.1001 35.92C66.5601 36.35 68.0101 35.78 68.3501 34.64C68.5001 34.15 68.4101 33.63 68.1501 33.17Z" fill="black"/>
<path d="M65.4205 46.98C66.6905 43.29 64.7205 39.28 61.0305 38.01C57.3405 36.74 53.3205 38.71 52.0605 42.4C50.7905 46.09 52.7605 50.1 56.4505 51.37C60.1405 52.64 64.1505 50.67 65.4205 46.98Z" fill="black"/>
<path d="M47.6997 38.74C47.5497 39.03 47.1897 39.15 46.8997 39L46.7897 38.94C46.4997 38.79 46.3797 38.43 46.5297 38.14L47.9797 35.28C48.1297 34.98 48.4897 34.87 48.7797 35.01L48.8897 35.07C49.1797 35.22 49.2997 35.58 49.1497 35.87L47.7097 38.74H47.6997Z" fill="black"/>
<path d="M45.2404 37.35C45.2104 37.68 44.9104 37.92 44.5804 37.88H44.4504C44.1204 37.83 43.8804 37.54 43.9204 37.21L44.2504 34.02C44.2804 33.69 44.5804 33.45 44.9104 33.49H45.0404C45.3704 33.54 45.6104 33.83 45.5704 34.16L45.2404 37.35Z" fill="black"/>
<path d="M42.62 37.14C42.68 37.46 42.47 37.78 42.15 37.84L42.03 37.86C41.71 37.92 41.39 37.71 41.33 37.39L40.73 34.24C40.67 33.92 40.88 33.6 41.2 33.54L41.32 33.52C41.64 33.46 41.96 33.67 42.02 33.99L42.62 37.14Z" fill="black"/>
<path d="M40.4701 37.53C40.6501 37.8 40.5801 38.17 40.3101 38.36L40.2001 38.43C39.9301 38.61 39.5501 38.54 39.3701 38.26L37.5801 35.6C37.4001 35.33 37.4701 34.96 37.7401 34.77L37.8501 34.7C38.1201 34.52 38.5001 34.59 38.6801 34.86L40.4701 37.53Z" fill="black"/>
<path d="M62.5033 40.5729L64.6999 38.2321C64.9257 37.9915 65.3074 37.9793 65.548 38.2051L65.6428 38.2941C65.8835 38.5199 65.8956 38.9016 65.6698 39.1422L63.4732 41.483C63.2474 41.7236 62.8657 41.7357 62.6251 41.5099L62.5303 41.421C62.2897 41.1951 62.2775 40.8135 62.5033 40.5729Z" fill="black"/>
<path d="M61.5099 39.71C61.3599 40 61.0099 40.13 60.7099 39.98L60.5999 39.92C60.3099 39.77 60.1899 39.41 60.3299 39.12L61.7599 36.25C61.9099 35.96 62.2699 35.84 62.5599 35.98L62.6699 36.04C62.9699 36.19 63.0899 36.55 62.9399 36.84L61.5099 39.71Z" fill="black"/>
<path d="M59.5604 38.72C59.5404 39.05 59.2604 39.3 58.9304 39.28H58.8004C58.4704 39.25 58.2204 38.97 58.2404 38.64L58.4404 35.44C58.4604 35.11 58.7404 34.86 59.0704 34.88H59.2004C59.5304 34.91 59.7804 35.19 59.7604 35.52L59.5604 38.72Z" fill="black"/>
<path d="M49.9103 45.38C51.0703 41.99 49.2703 38.3 45.8803 37.14C42.4903 35.98 38.8003 37.78 37.6303 41.17C36.4703 44.56 38.2703 48.25 41.6703 49.41C45.0603 50.57 48.7503 48.77 49.9103 45.38Z" fill="#F5F5F5"/>
<path d="M44.3999 45.64C46.2899 45.49 47.7099 43.83 47.5599 41.94C47.5299 41.52 47.4199 41.11 47.2499 40.75C47.0899 41.39 46.5399 41.89 45.8399 41.95C44.9799 42.02 44.2099 41.37 44.1499 40.5C44.0999 39.8 44.5099 39.17 45.1299 38.92C44.7299 38.8 44.3099 38.75 43.8799 38.79C41.9899 38.94 40.5699 40.59 40.7199 42.48C40.8699 44.38 42.5199 45.79 44.4199 45.64H44.3999Z" fill="#FF3E00"/>
<path d="M63.7902 47.2C64.9502 43.81 63.1402 40.12 59.7502 38.95C56.3602 37.79 52.6702 39.59 51.5102 42.98C50.3502 46.37 52.1502 50.06 55.5402 51.23C58.9302 52.39 62.6302 50.58 63.7902 47.2Z" fill="#F5F5F5"/>
<path d="M58.4805 48.09C60.3705 48.23 62.0205 46.81 62.1605 44.91C62.1905 44.49 62.1405 44.07 62.0305 43.68C61.7805 44.29 61.1605 44.71 60.4605 44.66C59.5905 44.6 58.9405 43.84 59.0005 42.97C59.0505 42.27 59.5505 41.71 60.2005 41.55C59.8305 41.37 59.4205 41.26 58.9805 41.23C57.0905 41.09 55.4405 42.51 55.3005 44.41C55.1605 46.3 56.5905 47.95 58.4805 48.08V48.09Z" fill="#FF3E00"/>
<path d="M57.3998 69.98C54.9498 77.28 47.3298 81.31 40.3598 78.98C33.3998 76.65 27.5898 69.9 34.7998 67.2C41.8298 64.57 39.3698 55.61 49.2198 52.53C56.2298 50.34 59.8498 62.67 57.3998 69.98Z" fill="black"/>
<path d="M57.2303 67.95C54.3403 76.57 44.9003 77.74 34.7003 74.33C24.5003 70.91 16.7203 59.77 19.6103 51.15C22.5003 42.53 33.7903 42.74 43.9903 46.16C54.1903 49.58 60.1203 59.33 57.2303 67.95Z" fill="black"/>
<path d="M26.8103 53.82C27.6803 55.28 29.5403 55.94 30.9703 55.29C32.4003 54.64 32.8503 52.92 31.9803 51.46C31.1103 50 29.2503 49.34 27.8203 49.99C26.3903 50.64 25.9403 52.36 26.8103 53.82Z" fill="#EF5091"/>
<path d="M42.6096 53.97C40.9496 53.75 39.2396 54.79 38.7796 56.28C38.3196 57.78 39.2996 59.17 40.9496 59.39C42.6096 59.61 44.3196 58.57 44.7796 57.08C45.2296 55.59 44.2596 54.2 42.5996 53.98L42.6096 53.97Z" fill="#EF5091"/>
<path d="M44.7901 69.5799C47.9101 67.8499 49.8901 64.2699 50.2401 61.3199C52.5601 63.6599 51.5101 70.7499 47.5501 73.0499C43.3801 75.4699 38.0601 74.3799 35.7501 70.7799C35.5201 70.4199 35.2301 70.1599 35.0801 69.7799C38.0401 70.8899 41.6701 71.3099 44.7801 69.5799H44.7901Z" fill="#F5F5F5"/>
</g>
<defs>
<clipPath id="clip0_172_3958">
<rect width="73.78" height="79.54" fill="white" transform="translate(19 16)"/>
</clipPath>
</defs>
</svg>
