<svg width="111" height="111" viewBox="0 0 111 111" fill="none" xmlns="http://www.w3.org/2000/svg">
<circle cx="55.5" cy="55.5" r="55.5" fill="#2638C1"/>
<g clip-path="url(#clip0_172_3932)">
<path d="M54.6699 84.56C69.6037 84.56 81.7099 72.4538 81.7099 57.52C81.7099 42.5862 69.6037 30.48 54.6699 30.48C39.7361 30.48 27.6299 42.5862 27.6299 57.52C27.6299 72.4538 39.7361 84.56 54.6699 84.56Z" fill="#6CD600"/>
<path d="M77.3502 54.96C82.7018 54.96 87.0402 50.6217 87.0402 45.27C87.0402 39.9184 82.7018 35.58 77.3502 35.58C71.9985 35.58 67.6602 39.9184 67.6602 45.27C67.6602 50.6217 71.9985 54.96 77.3502 54.96Z" fill="#6CD600"/>
<path d="M29.69 74.04C35.0416 74.04 39.38 69.7016 39.38 64.35C39.38 58.9983 35.0416 54.66 29.69 54.66C24.3384 54.66 20 58.9983 20 64.35C20 69.7016 24.3384 74.04 29.69 74.04Z" fill="#6CD600"/>
<path d="M56.7297 37.01C55.0197 35.64 53.9097 33.71 53.7897 31.5C53.5897 27.67 56.4497 24.31 60.4697 23.27C60.2097 23.27 59.9397 23.27 59.6897 23.27C54.6197 23.54 50.7097 27.38 50.9397 31.83C50.9597 32.1 51.0297 32.37 51.0797 32.65C50.6397 31.6 50.3497 30.47 50.2897 29.29C50.0197 24.44 53.1897 20.2 57.6797 18.91C57.3797 18.91 51.4297 19.62 51.1697 19.64C45.5097 19.95 41.1897 24.76 41.4897 30.41C41.6397 33.12 42.8497 35.51 44.6697 37.25C42.5797 35.33 41.1697 32.48 40.9897 29.19C40.7097 23.93 43.6397 19.38 47.8197 18.01C47.5397 18 47.2697 17.99 46.9897 18.01C41.7097 18.3 37.6997 23.48 38.0297 29.59C38.3597 35.7 42.9097 40.43 48.1897 40.15C48.7397 40.12 58.2997 38.26 56.7397 37.01H56.7297Z" fill="#6CD600"/>
<path d="M68.5003 39.84C67.1503 34.81 61.8103 31.94 56.5603 33.42C54.0903 34.12 52.0803 35.66 50.7903 37.63C48.7003 36.62 46.2103 36.35 43.7403 37.05C38.5003 38.54 35.3503 43.82 36.6903 48.85C37.5103 51.89 39.7903 54.14 42.6203 55.12C39.7603 59.31 38.6503 64.56 40.0203 69.68C42.5603 79.14 52.6103 84.55 62.4803 81.75C72.3403 78.96 78.2703 69.02 75.7303 59.56C74.3703 54.51 70.8703 50.61 66.4003 48.51C68.4403 46.16 69.3303 42.96 68.5003 39.85V39.84Z" fill="#FFE600"/>
<path d="M30.2298 67.17C28.8398 63.77 28.1998 60.24 28.2398 56.78C24.8198 58.62 23.2598 62.79 24.7698 66.47C26.0498 69.59 29.1398 71.42 32.3298 71.24C31.5298 69.97 30.8298 68.61 30.2398 67.17H30.2298Z" fill="#FFE600"/>
<path d="M76.5504 42.34C78.6204 45.38 79.9904 48.7 80.6704 52.09C83.6404 49.57 84.2804 45.17 82.0404 41.88C80.1404 39.09 76.7304 37.96 73.6504 38.8C74.7004 39.88 75.6704 41.06 76.5504 42.34Z" fill="#FFE600"/>
<path d="M39.5501 48.68C40.9401 52.41 45.1001 54.3 48.8301 52.91C52.5601 51.52 54.4601 47.36 53.0701 43.64C51.6801 39.91 47.5301 38.01 43.7901 39.41C40.0601 40.81 38.1701 44.95 39.5601 48.68H39.5501Z" fill="#EAEAEA"/>
<path d="M52.2702 45.07C53.6602 48.8 57.8102 50.69 61.5402 49.3C65.2702 47.91 67.1702 43.76 65.7802 40.03C64.3802 36.3 60.2302 34.41 56.5002 35.79C52.7702 37.18 50.8702 41.34 52.2702 45.07Z" fill="#EAEAEA"/>
<path d="M55.8895 53.11C57.8695 52.37 59.8495 52.26 61.4295 52.66C60.0895 50.94 57.7395 50.19 55.5795 50.99C53.6495 51.71 52.4295 53.46 52.2695 55.38C53.1895 54.46 54.4295 53.66 55.8995 53.11H55.8895Z" fill="#E59B00"/>
<path d="M41.29 45.74C41.29 43.05 43.49 40.87 46.19 40.88C46.8 40.88 47.38 41 47.92 41.2C47.02 41.49 46.37 42.33 46.37 43.32C46.37 44.55 47.36 45.56 48.6 45.57C49.6 45.57 50.45 44.92 50.73 44.02C50.94 44.57 51.05 45.16 51.05 45.78C51.04 48.47 48.85 50.65 46.15 50.64C43.46 50.63 41.28 48.43 41.3 45.74H41.29Z" fill="#0079EA"/>
<path d="M54.75 42.5C54.75 39.81 56.95 37.63 59.65 37.64C60.26 37.64 60.84 37.76 61.38 37.96C60.48 38.25 59.83 39.09 59.83 40.08C59.83 41.31 60.82 42.32 62.06 42.33C63.06 42.33 63.91 41.68 64.19 40.78C64.4 41.33 64.51 41.92 64.51 42.54C64.5 45.23 62.31 47.41 59.61 47.4C56.92 47.39 54.74 45.19 54.76 42.5H54.75Z" fill="#0079EA"/>
<path d="M57.5704 67.59C51.3704 67.26 46.1204 63.72 43.3004 58.67C42.9204 59.87 42.6704 61.13 42.6004 62.45C42.1604 70.84 48.6004 78.01 57.0004 78.45C65.3904 78.9 72.5504 72.45 73.0004 64.05C73.0704 62.73 72.9504 61.46 72.7004 60.22C69.3704 64.94 63.7704 67.92 57.5704 67.59Z" fill="#E59B00"/>
</g>
<defs>
<clipPath id="clip0_172_3932">
<rect width="67.04" height="66.56" fill="white" transform="translate(20 18)"/>
</clipPath>
</defs>
</svg>
