<svg width="111" height="111" viewBox="0 0 111 111" fill="none" xmlns="http://www.w3.org/2000/svg">
<circle cx="55.5" cy="55.5" r="55.5" fill="#2638C1"/>
<g clip-path="url(#clip0_172_3935)">
<path d="M66.5197 23.29C63.1497 27.04 61.9597 31.48 63.8597 33.2C65.7597 34.92 70.0397 33.27 73.4097 29.52C76.7797 25.77 77.9697 21.33 76.0697 19.61C74.1597 17.89 69.8897 19.54 66.5097 23.29H66.5197Z" fill="#AB3BEA"/>
<path d="M66.7603 25.88C63.8503 29.12 62.5303 32.67 63.8003 33.82C65.0703 34.97 68.4703 33.28 71.3803 30.04C74.2903 26.8 75.6103 23.25 74.3403 22.09C73.0703 20.94 69.6703 22.63 66.7603 25.87V25.88Z" fill="#D741EA"/>
<path d="M31.3202 30.44C36.2602 31.8 39.7002 34.95 39.0002 37.47C38.3002 39.99 33.7302 40.93 28.7802 39.56C23.8402 38.2 20.4002 35.05 21.1002 32.53C21.8002 30.01 26.3702 29.07 31.3202 30.44Z" fill="#AB3BEA"/>
<path d="M32.4805 32.83C36.6605 33.99 39.6905 36.28 39.2305 37.94C38.7705 39.6 35.0105 40 30.8305 38.84C26.6405 37.68 23.6205 35.39 24.0805 33.73C24.5405 32.07 28.3005 31.67 32.4805 32.83Z" fill="#D741EA"/>
<path d="M30.0202 63.92C24.7902 50.71 31.2602 35.76 44.4702 30.53C57.6802 25.3 72.6302 31.77 77.8602 44.98C83.0902 58.19 76.6202 73.14 63.4102 78.37C50.2002 83.6 35.2502 77.13 30.0202 63.92Z" fill="#AB3BEA"/>
<path d="M51.4296 32.5C50.1396 29.25 51.7296 25.58 54.9796 24.3C58.2296 23.02 61.8996 24.6 63.1896 27.85C64.4796 31.1 62.8896 34.77 59.6396 36.06C56.3896 37.35 52.7196 35.76 51.4396 32.51L51.4296 32.5Z" fill="#EAEAEA"/>
<path d="M36.7699 36.01C35.4899 32.76 37.0799 29.09 40.3199 27.8C43.5699 26.51 47.2399 28.1 48.5299 31.35C49.8099 34.6 48.2299 38.27 44.9799 39.55C41.7399 40.84 38.0599 39.25 36.7699 36V36.01Z" fill="#EAEAEA"/>
<path d="M34.4402 29.86C32.4902 26.57 33.1902 22.27 36.2402 19.79C39.2902 17.31 43.6502 17.5 46.4702 20.08C44.0402 20.36 41.4302 21.45 39.1202 23.33C36.8102 25.21 35.2102 27.54 34.4402 29.87V29.86Z" fill="#AB3BEA"/>
<path d="M48.8398 24.16C49.6198 20.45 53.0198 17.78 56.9098 18.01C60.7998 18.25 63.8498 21.31 64.1798 25.08C62.2198 23.65 59.5798 22.7 56.6398 22.52C53.6998 22.34 50.9598 22.97 48.8398 24.15V24.16Z" fill="#AB3BEA"/>
<path d="M97.5995 46.85C90.6195 33.06 67.7095 29.36 50.3895 38.13C50.3695 38.14 50.3495 38.15 50.3195 38.17C48.0395 38.08 45.6995 38.17 43.3195 38.49C25.6495 40.85 9.26953 52.94 11.1495 67C12.7695 79.11 30.3795 96.38 59.6795 92.26C90.2995 87.96 104.58 60.63 97.5995 46.84V46.85Z" fill="#AB3BEA"/>
<path d="M80.9903 53.47C77.9103 55.05 74.6403 54.81 73.6703 52.92C72.7103 51.04 74.4203 48.24 77.5003 46.66C80.5803 45.08 83.8503 45.33 84.8203 47.21C85.7803 49.09 84.0703 51.89 80.9903 53.47Z" fill="#D741EA"/>
<path d="M29.3597 62.23C32.7697 62.82 35.8197 61.61 36.1797 59.53C36.5396 57.45 34.0696 55.28 30.6496 54.69C27.2396 54.1 24.1896 55.31 23.8296 57.39C23.4696 59.47 25.9497 61.64 29.3597 62.22V62.23Z" fill="#D741EA"/>
<path d="M57.5502 70.86C40.7902 72.98 28.3302 71.07 17.4902 62.35C22.6702 80.14 40.0802 92.44 59.5702 89.46C79.0602 86.49 93.8502 69.28 93.4902 50.75C85.7502 62.3 72.7302 68.93 57.5502 70.85V70.86Z" fill="#5E1E80"/>
<path d="M84.3004 61.1C83.7904 61.46 83.4004 61.75 82.9004 62.03C82.9704 62.25 83.0404 62.58 83.1404 62.8C84.2604 65.43 86.7904 66.86 88.7904 66C90.7904 65.15 91.5104 62.32 90.4004 59.7C89.9604 58.67 89.3004 57.83 88.5504 57.23C87.4304 58.69 85.9004 59.98 84.3104 61.11L84.3004 61.1Z" fill="#EAEAEA"/>
<path d="M27.7898 69.09C28.3798 69.3 28.8298 69.48 29.3898 69.61C29.3898 69.84 29.3898 70.18 29.3698 70.41C28.9898 73.24 26.9398 75.29 24.7798 75.01C22.6198 74.72 21.1698 72.2 21.5498 69.37C21.6998 68.26 22.1098 67.27 22.6798 66.49C24.1498 67.6 25.9698 68.43 27.8098 69.09H27.7898Z" fill="#EAEAEA"/>
<path d="M42.62 76.6C42.5 74.97 42.72 73.37 43.22 71.86C47.03 72.37 51.42 72.38 56.05 71.8C60.69 71.21 64.98 70.11 68.65 68.66C69.37 70.01 69.82 71.53 69.95 73.16C70.47 80.12 64.78 86.53 57.24 87.47C49.69 88.42 43.15 83.55 42.63 76.59L42.62 76.6Z" fill="#DE0059"/>
<path fill-rule="evenodd" clip-rule="evenodd" d="M55.8399 71.3C55.8399 71.3 55.0599 70.64 55.2399 72.94C55.4299 75.5 56.4899 79.25 56.4899 79.25C56.4899 79.25 56.8899 74.87 56.8999 72.84C56.8999 70.85 55.8399 71.3 55.8399 71.3Z" fill="#5E1E80"/>
<path d="M39.2104 32.79C39.2704 30.48 41.2004 28.66 43.5104 28.72C44.0304 28.73 44.5304 28.84 44.9804 29.03C44.2104 29.26 43.6304 29.97 43.6104 30.82C43.5804 31.88 44.4204 32.76 45.4804 32.79C46.3404 32.81 47.0804 32.27 47.3504 31.5C47.5204 31.97 47.6004 32.48 47.5904 33.01C47.5304 35.32 45.6004 37.14 43.2904 37.08C40.9804 37.02 39.1504 35.1 39.2104 32.79Z" fill="#EA9B00"/>
<path d="M52.0395 31.1C52.0995 28.79 54.0295 26.97 56.3395 27.03C56.8595 27.04 57.3595 27.15 57.8095 27.34C57.0395 27.57 56.4595 28.28 56.4395 29.13C56.4095 30.19 57.2495 31.07 58.3095 31.1C59.1695 31.12 59.9095 30.58 60.1795 29.81C60.3495 30.28 60.4295 30.79 60.4195 31.32C60.3595 33.63 58.4295 35.45 56.1195 35.39C53.8095 35.33 51.9795 33.41 52.0395 31.1Z" fill="#EA9B00"/>
</g>
<defs>
<clipPath id="clip0_172_3935">
<rect width="88.34" height="74.88" fill="white" transform="translate(11 18)"/>
</clipPath>
</defs>
</svg>
