<svg width="48" height="49" viewBox="0 0 48 49" fill="none" xmlns="http://www.w3.org/2000/svg">
<g clip-path="url(#clip0_211_13554)">
<path d="M24 49C37.2548 49 48 38.031 48 24.5C48 10.969 37.2548 0 24 0C10.7452 0 0 10.969 0 24.5C0 38.031 10.7452 49 24 49Z" fill="#2638C0"/>
<path d="M10.3301 20.0237H25.0791L21.3887 16.2565C19.6732 14.5052 19.6732 11.6606 21.3887 9.90936C23.1042 8.15814 25.8908 8.15814 27.6063 9.90936L38.8029 21.3393C40.5184 23.0905 40.5184 25.9352 38.8029 27.6864L27.6021 39.1206C26.7443 39.9962 25.6188 40.4361 24.4933 40.4361C23.3678 40.4361 22.2422 39.9962 21.3845 39.1206C19.669 37.3693 19.669 34.5247 21.3845 32.7735L25.0791 29.0019H10.3301C7.90333 29.0019 5.93262 26.9902 5.93262 24.5128C5.93262 22.0355 7.90333 20.0237 10.3301 20.0237Z" fill="#FFDC00"/>
</g>
<defs>
<clipPath id="clip0_211_13554">
<rect width="48" height="49" fill="white"/>
</clipPath>
</defs>
</svg>
