<svg width="134" height="175" viewBox="0 0 134 175" fill="none" xmlns="http://www.w3.org/2000/svg">
<g clip-path="url(#clip0_9_3123)">
<path fill-rule="evenodd" clip-rule="evenodd" d="M0.965332 74.3749C0.965332 55.6649 12.6353 46.0049 27.0253 46.0049C41.4153 46.0049 53.0853 55.9349 53.0853 74.3749C53.0853 88.1749 37.8153 111.215 27.0253 111.215C16.8853 111.215 0.965332 88.1749 0.965332 74.3749Z" fill="#ED4446"/>
<path d="M28.5355 111.635C28.5355 112.375 27.8355 112.965 26.9855 112.965C26.1355 112.965 25.4355 112.365 25.4355 111.635C25.4355 110.905 26.1255 110.305 26.9855 110.305C27.8455 110.305 28.5355 110.905 28.5355 111.635Z" fill="#FF0A0F"/>
<path d="M30.0156 113.595C30.0156 114.025 28.6556 113.875 26.9856 113.875C25.3156 113.875 23.9556 114.025 23.9556 113.595C23.9556 112.405 25.3156 112.325 26.9856 112.325C28.6556 112.325 30.0156 112.645 30.0156 113.595Z" fill="#FF0A0F"/>
<path fill-rule="evenodd" clip-rule="evenodd" d="M2.36523 74.6249C2.36523 56.9149 13.4052 47.7749 27.0252 47.7749C40.6452 47.7749 51.6852 57.1649 51.6852 74.6249C51.6852 87.6849 37.2352 109.485 27.0252 109.485C17.4252 109.485 2.36523 87.6849 2.36523 74.6249Z" fill="#FF0A0F"/>
<path d="M29.5252 113.315C29.5252 113.445 28.3652 113.405 26.9352 113.405C25.5052 113.405 24.3452 113.455 24.3452 113.315C24.3452 112.945 25.5052 112.915 26.9352 112.915C28.3652 112.915 29.5252 113.015 29.5252 113.315Z" fill="#ED4446"/>
<path d="M28.3753 111.495C28.3753 111.825 27.8753 112.095 27.2653 112.095C26.6553 112.095 26.1553 111.825 26.1553 111.495C26.1553 111.165 26.6553 110.895 27.2653 110.895C27.8753 110.895 28.3753 111.165 28.3753 111.495Z" fill="#ED4446"/>
<path d="M45.4455 74.5253C41.6755 80.9253 31.9455 82.1853 23.7055 77.3353C15.4655 72.4853 11.8355 63.3653 15.6055 56.9653C19.3755 50.5653 29.1055 49.3053 37.3455 54.1453C45.5855 58.9953 49.2155 68.1153 45.4455 74.5153V74.5253Z" fill="#FF2600"/>
<path d="M47.1551 68.3651C44.7851 57.3751 32.8951 50.6251 20.5951 53.2751C19.7151 53.4651 18.8551 53.7051 18.0151 53.9751C20.0151 52.5351 22.3351 51.4751 24.8951 50.9251C34.8451 48.7751 44.6551 55.1051 46.8051 65.0651C47.0651 66.2751 47.1951 67.4851 47.2151 68.6751C47.1951 68.5751 47.1751 68.4752 47.1551 68.3752V68.3651Z" fill="#FF7C00"/>
<path d="M28.1852 111.125C28.1852 111.635 28.1052 111.315 28.6252 111.135C28.9052 111.035 28.6052 111.105 28.4152 111.065C27.8952 110.965 27.3952 110.755 26.8752 110.625C25.7452 110.345 24.3752 110.465 23.8252 111.655C23.2852 112.825 25.4952 112.895 25.9252 111.955C25.8752 112.065 25.6152 112.175 25.4852 112.165C25.7152 112.175 25.9552 112.235 26.1752 112.305C26.7152 112.465 27.2552 112.645 27.8152 112.755C29.0452 112.995 30.4252 112.365 30.3952 110.975C30.3752 109.775 28.1652 110.075 28.1852 111.115V111.125Z" fill="#28D8FF"/>
<path d="M28.0852 110.395C31.7152 113.885 26.6352 120.865 25.0652 124.405C20.7152 134.225 25.7452 139.035 31.2952 146.805C34.8452 151.775 38.2252 157.805 36.6852 164.065C35.2752 169.815 30.1752 173.355 24.7852 174.485C23.7252 174.705 22.3952 174.395 24.0152 174.055C31.4452 172.485 37.3652 166.385 35.9952 158.465C34.8852 152.045 29.6852 146.935 26.1552 141.765C23.2752 137.545 22.7552 133.175 23.1952 128.205C23.4852 124.885 30.1652 114.255 27.7752 111.955C26.5752 110.795 29.2252 110.515 30.0152 111.275L28.0852 110.395Z" fill="#28D8FF"/>
<path d="M101.455 82.875C105.085 86.365 100.005 93.345 98.4353 96.885C94.0853 106.705 99.1153 111.515 104.665 119.285C108.215 124.255 111.595 130.285 110.055 136.545C108.645 142.295 103.545 145.835 98.1553 146.965C97.0953 147.185 95.7653 146.875 97.3853 146.535C104.815 144.965 110.735 138.865 109.365 130.945C108.255 124.525 103.055 119.415 99.5253 114.245C96.6453 110.025 96.1253 105.655 96.5653 100.685C96.8553 97.365 103.535 86.735 101.145 84.435C99.9453 83.275 102.595 82.995 103.385 83.755L101.455 82.875Z" fill="#28D8FF"/>
<path fill-rule="evenodd" clip-rule="evenodd" d="M69.3955 35.3551C69.3955 12.3251 83.7555 0.435059 101.476 0.435059C119.196 0.435059 133.556 12.6551 133.556 35.3551C133.556 52.3451 114.766 80.6951 101.476 80.6951C88.9855 80.6951 69.3955 52.3351 69.3955 35.3551Z" fill="#F6921E"/>
<path d="M103.325 82.3153C103.325 83.2153 102.475 83.9553 101.415 83.9553C100.355 83.9553 99.5054 83.2253 99.5054 82.3153C99.5054 81.4053 100.365 80.6753 101.415 80.6753C102.465 80.6753 103.325 81.4053 103.325 82.3153Z" fill="#FFAD00"/>
<path d="M105.146 84.715C105.146 85.245 103.476 85.055 101.416 85.055C99.3555 85.055 97.6855 85.235 97.6855 84.715C97.6855 83.245 99.3555 83.145 101.416 83.145C103.476 83.145 105.146 83.535 105.146 84.715Z" fill="#FFAD00"/>
<path fill-rule="evenodd" clip-rule="evenodd" d="M70.8452 35.9049C70.8452 13.7249 84.5552 2.2749 101.475 2.2749C118.395 2.2749 132.105 14.0449 132.105 35.9049C132.105 52.2649 114.155 79.5749 101.475 79.5749C89.5552 79.5749 70.8452 52.2649 70.8452 35.9049Z" fill="#FFAD00"/>
<path d="M103.165 84.2952C103.165 84.5452 102.055 84.4552 100.695 84.4552C99.3353 84.4552 98.2153 84.5452 98.2153 84.2952C98.2153 83.5952 99.3253 83.5552 100.695 83.5552C102.065 83.5552 103.165 83.7352 103.165 84.2952Z" fill="#F6921E"/>
<path d="M102.545 81.8853C102.545 82.2953 101.935 82.6153 101.185 82.6153C100.435 82.6153 99.8252 82.2853 99.8252 81.8853C99.8252 81.4853 100.435 81.1553 101.185 81.1553C101.935 81.1553 102.545 81.4853 102.545 81.8853Z" fill="#F6921E"/>
<path d="M124.445 35.8252C119.755 43.8052 107.625 45.3652 97.3553 39.3252C87.0853 33.2852 82.5753 21.9252 87.2653 13.9552C91.9553 5.97518 104.085 4.40518 114.345 10.4452C124.615 16.4852 129.125 27.8452 124.435 35.8252H124.445Z" fill="#FABF0D"/>
<path d="M102.295 80.3851C102.315 80.6951 102.245 80.5051 102.615 80.3851C102.815 80.3151 102.605 80.3651 102.465 80.3451C102.085 80.2951 101.715 80.1751 101.335 80.1051C100.505 79.9551 99.5052 80.0651 99.1252 80.8051C98.7552 81.5351 100.365 81.5251 100.665 80.9451C100.625 81.0151 100.445 81.0851 100.345 81.0851C100.515 81.0851 100.685 81.1251 100.855 81.1551C101.255 81.2351 101.655 81.3351 102.055 81.3951C102.965 81.5151 103.955 81.0951 103.915 80.2451C103.875 79.5151 102.265 79.7351 102.295 80.3751V80.3851Z" fill="#28D8FF"/>
</g>
<defs>
<clipPath id="clip0_9_3123">
<rect width="132.58" height="174.13" fill="white" transform="translate(0.965332 0.435059)"/>
</clipPath>
</defs>
</svg>
