<svg width="384" height="282" viewBox="0 0 384 282" fill="none" xmlns="http://www.w3.org/2000/svg">
<path opacity="0.1" fill-rule="evenodd" clip-rule="evenodd" d="M337.619 150.794C340.099 138.984 352.169 131.524 364.579 134.134C376.989 136.744 385.039 148.434 382.559 160.234C380.079 172.054 367.999 179.514 355.589 176.904C343.179 174.294 335.139 162.604 337.619 150.784V150.794Z" fill="#DFF0FB"/>
<path d="M337.619 150.794C335.139 162.614 343.189 174.304 355.589 176.914C367.999 179.524 380.069 172.054 382.559 160.244C385.039 148.434 376.989 136.744 364.579 134.144C352.169 131.534 340.099 139.004 337.619 150.804V150.794ZM337.109 150.694C339.759 138.094 352.189 130.044 364.879 132.714C377.549 135.374 385.689 147.754 383.039 160.344C380.389 172.954 367.969 180.994 355.299 178.334C342.609 175.664 334.469 163.304 337.119 150.694H337.109Z" fill="#85C6FF"/>
<path d="M378.149 156.834C378.079 146.874 368.929 138.844 357.699 138.884C356.909 138.884 356.109 138.934 355.339 139.034C357.339 138.124 359.569 137.634 361.889 137.624C370.979 137.604 378.379 144.874 378.439 153.904C378.449 154.994 378.359 156.074 378.149 157.094C378.149 157.014 378.149 156.934 378.149 156.834Z" fill="#85C6FF"/>
<path opacity="0.1" fill-rule="evenodd" clip-rule="evenodd" d="M313.189 167.914C313.189 158.844 320.919 151.484 330.449 151.484C339.979 151.484 347.709 158.844 347.709 167.914C347.709 176.984 339.979 184.354 330.449 184.354C320.919 184.354 313.189 176.994 313.189 167.914Z" fill="#DFF0FB"/>
<path d="M313.189 167.915C313.189 176.995 320.919 184.355 330.449 184.355C339.979 184.355 347.709 176.995 347.709 167.915C347.709 158.835 339.979 151.485 330.449 151.485C320.919 151.485 313.189 158.845 313.189 167.915ZM312.789 167.915C312.789 158.235 320.689 150.395 330.439 150.395C340.189 150.395 348.069 158.245 348.069 167.915C348.069 177.585 340.169 185.435 330.439 185.435C320.709 185.435 312.789 177.595 312.789 167.915Z" fill="#85C6FF"/>
<path d="M343.939 166.094C342.349 158.774 334.379 154.284 326.119 156.044C325.539 156.164 324.949 156.324 324.399 156.514C325.729 155.534 327.289 154.834 328.999 154.464C335.679 153.044 342.249 157.254 343.689 163.884C343.869 164.684 343.969 165.494 343.969 166.274C343.959 166.214 343.949 166.154 343.929 166.084L343.939 166.094Z" fill="#85C6FF"/>
<path opacity="0.1" fill-rule="evenodd" clip-rule="evenodd" d="M288.35 134.575C288.35 127.115 294.71 121.055 302.55 121.055C310.39 121.055 316.75 127.105 316.75 134.565C316.75 142.025 310.39 148.085 302.55 148.085C294.71 148.085 288.35 142.045 288.35 134.575Z" fill="#DFF0FB"/>
<path d="M288.349 134.574C288.349 142.044 294.709 148.094 302.549 148.094C310.389 148.094 316.749 142.044 316.749 134.574C316.749 127.104 310.389 121.054 302.549 121.054C294.709 121.054 288.349 127.114 288.349 134.574ZM288.029 134.574C288.029 126.614 294.529 120.154 302.549 120.154C310.569 120.154 317.059 126.614 317.059 134.574C317.059 142.534 310.559 148.994 302.549 148.994C294.539 148.994 288.029 142.544 288.029 134.574Z" fill="#85C6FF"/>
<path d="M313.649 133.075C312.339 127.055 305.779 123.355 298.989 124.805C298.509 124.905 298.029 125.035 297.579 125.195C298.679 124.385 299.959 123.815 301.369 123.505C306.869 122.335 312.269 125.795 313.459 131.255C313.609 131.915 313.689 132.575 313.689 133.225C313.679 133.175 313.669 133.125 313.659 133.065L313.649 133.075Z" fill="#85C6FF"/>
<g clip-path="url(#clip0_1773_6263)">
<path fill-rule="evenodd" clip-rule="evenodd" d="M70.0693 169.564C65.7993 168.694 61.9293 172.034 61.0093 174.984C60.0893 177.934 62.4793 179.364 66.7393 180.234C71.0093 181.104 75.2093 179.414 76.1293 176.474C77.0493 173.524 74.3293 170.434 70.0593 169.574L70.0693 169.564Z" fill="#EB005B"/>
<path fill-rule="evenodd" clip-rule="evenodd" d="M73.9492 179.214C70.4392 176.564 65.9192 177.844 64.1492 180.074C62.3792 182.304 64.0292 184.634 67.5492 187.284C71.0592 189.934 75.3492 190.284 77.1092 188.054C78.8792 185.824 77.4592 181.864 73.9492 179.214Z" fill="#EB0000"/>
<path d="M62.729 193.555C62.839 193.365 63.179 193.355 63.519 193.515C64.239 193.765 65.039 193.805 65.829 193.605C67.529 193.165 68.709 191.715 68.909 190.055C69.119 192.095 67.829 194.035 65.819 194.545C65.099 194.735 64.379 194.705 63.709 194.515C63.559 194.505 63.379 194.445 63.209 194.345C62.819 194.115 62.609 193.765 62.729 193.555Z" fill="#EBE700"/>
<path fill-rule="evenodd" clip-rule="evenodd" d="M54.649 195.835C55.309 195.975 55.529 195.925 55.839 195.555C56.149 195.185 56.099 194.155 54.989 192.345C53.509 189.925 52.529 190.975 52.139 191.465C51.429 192.365 51.539 192.955 51.939 193.695C52.339 194.435 53.979 195.695 54.639 195.835H54.649Z" fill="#EBE700"/>
<path fill-rule="evenodd" clip-rule="evenodd" d="M57.6798 194.914C56.6898 195.714 55.1098 196.204 54.6498 195.604C54.1798 195.004 54.9998 193.554 55.9998 192.744C56.9898 191.944 57.7798 192.084 58.2498 192.684C58.7198 193.284 58.6798 194.094 57.6898 194.904L57.6798 194.914Z" fill="#EBE700"/>
<path fill-rule="evenodd" clip-rule="evenodd" d="M60.2896 191.524C59.9696 190.804 60.2596 189.974 60.9296 189.664C61.6096 189.354 62.4096 189.674 62.7296 190.394C63.0496 191.114 62.7596 191.944 62.0896 192.254C61.4096 192.564 60.6096 192.244 60.2896 191.524Z" fill="#EBE700"/>
<path fill-rule="evenodd" clip-rule="evenodd" d="M64.7489 188.484C63.7389 186.214 61.1789 185.184 59.0389 186.184C56.8989 187.174 55.9889 189.814 56.9989 192.084C58.0089 194.354 60.5689 195.384 62.7089 194.384C64.8489 193.394 65.7589 190.754 64.7489 188.484Z" fill="#EBE700"/>
<path fill-rule="evenodd" clip-rule="evenodd" d="M61.4491 197.404C61.8891 196.884 61.9591 196.664 61.7891 196.204C61.6291 195.744 60.7191 195.294 58.6291 195.394C55.8391 195.524 56.2591 196.914 56.4891 197.494C56.9091 198.574 57.4691 198.754 58.2991 198.764C59.1291 198.764 61.0091 197.924 61.4491 197.404Z" fill="#EBE700"/>
<path fill-rule="evenodd" clip-rule="evenodd" d="M62.1495 194.264C62.3495 195.544 61.9995 197.174 61.2595 197.304C60.5195 197.424 59.6795 195.984 59.4695 194.714C59.2695 193.434 59.7795 192.804 60.5195 192.684C61.2595 192.564 61.9395 192.994 62.1495 194.274V194.264Z" fill="#EBE700"/>
<path d="M68.6093 188.764C68.6393 188.584 68.6993 188.394 68.7793 188.194C69.0793 187.504 69.5893 187.054 69.9293 187.194C70.2093 187.314 70.2793 187.804 70.1193 188.364C70.1493 188.344 70.1793 188.324 70.2093 188.314C70.8093 187.974 71.5793 187.874 71.9393 188.074C72.2793 188.274 72.1093 188.684 71.5693 189.014C71.9693 189.074 72.3093 189.224 72.4593 189.414C72.7193 189.734 72.3793 190.074 71.6993 190.164C71.5293 190.184 71.3493 190.194 71.1693 190.194C71.4693 190.404 71.6893 190.644 71.7493 190.864C71.8593 191.264 71.4193 191.434 70.7593 191.254C70.5393 191.194 70.3093 191.094 70.0993 190.984C70.0493 191.004 69.9993 191.024 69.9493 191.034C69.1893 191.244 68.4093 190.824 68.2193 190.094C68.0893 189.614 68.2593 189.114 68.6093 188.774V188.764Z" fill="#EBE700"/>
<path d="M66.8089 188.635C66.8789 188.635 66.9489 188.655 67.0089 188.675C67.3089 188.715 68.1589 188.975 68.6689 189.115C69.0989 189.255 69.2589 189.495 69.2389 189.895C69.2289 190.165 69.0789 190.395 68.8689 190.525C68.5389 190.735 66.9789 190.555 66.5589 190.365C66.1489 190.265 65.8589 189.895 65.8789 189.465C65.8989 188.975 66.3189 188.605 66.8089 188.635Z" fill="#EBE700"/>
<path d="M64.0096 188.465C64.0296 188.085 64.3496 187.775 64.7196 187.805C65.0396 187.835 66.2496 188.295 67.0496 188.645C67.5196 188.875 67.6796 189.215 67.6696 189.545C67.6496 190.045 67.2196 190.425 66.7196 190.405C66.7196 190.405 66.4396 190.365 66.1896 190.275C65.7296 190.105 64.6496 189.525 64.2196 189.005C64.0796 188.875 63.9996 188.685 64.0096 188.475V188.465Z" fill="#EBE700"/>
<path d="M50.3496 185.444C50.5696 185.324 50.9396 185.334 51.3296 185.444C50.9596 184.924 50.9696 184.474 51.3596 184.434C51.7596 184.394 52.4296 184.804 52.8496 185.354C52.8696 185.384 52.8896 185.414 52.9096 185.444C52.9796 184.864 53.2396 184.444 53.5396 184.444C53.8996 184.454 54.1996 185.074 54.1996 185.824C54.1996 186.034 54.1796 186.234 54.1396 186.414C54.3296 186.864 54.2796 187.394 53.9696 187.784C53.5096 188.374 52.6296 188.444 52.0196 187.944C51.9796 187.914 51.9396 187.874 51.8996 187.834C51.6596 187.854 51.4096 187.844 51.1796 187.814C50.4996 187.714 50.1596 187.384 50.4196 187.054C50.5596 186.874 50.8596 186.744 51.2196 186.674C51.0496 186.604 50.8896 186.524 50.7496 186.434C50.1696 186.074 49.9896 185.624 50.3496 185.434V185.444Z" fill="#EBE700"/>
<path d="M55.8288 187.034C55.7588 187.004 55.6988 186.994 55.6288 186.984C55.3388 186.894 54.4488 186.784 53.9288 186.704C53.4888 186.654 53.2388 186.814 53.0988 187.194C53.0088 187.444 53.0488 187.724 53.1888 187.924C53.4188 188.244 54.9088 188.724 55.3688 188.724C55.7788 188.804 56.1988 188.584 56.3488 188.174C56.5188 187.724 56.2788 187.204 55.8288 187.034Z" fill="#EBE700"/>
<path d="M58.4695 188.014C58.5995 187.654 58.4295 187.244 58.0695 187.124C57.7695 187.024 56.4695 186.954 55.6095 186.944C55.0895 186.964 54.8095 187.204 54.6895 187.514C54.5195 187.984 54.7595 188.504 55.2195 188.684C55.2195 188.684 55.4895 188.764 55.7495 188.774C56.2395 188.804 57.4595 188.714 58.0495 188.414C58.2295 188.344 58.3795 188.204 58.4495 188.014H58.4695Z" fill="#EBE700"/>
<path fill-rule="evenodd" clip-rule="evenodd" d="M64.4396 176.034C64.9596 175.444 65.8196 175.384 66.3796 175.884C66.9296 176.384 66.9596 177.274 66.4496 177.854C65.9296 178.444 65.0696 178.504 64.5096 178.004C63.9596 177.494 63.9296 176.614 64.4396 176.034Z" fill="#EBE700"/>
<path d="M68.1289 186.125C71.0989 182.755 70.8289 177.565 67.5089 174.545C64.1989 171.515 59.1089 171.805 56.1289 175.175C53.1589 178.545 53.4289 183.735 56.7489 186.755C60.0589 189.785 65.1489 189.505 68.1289 186.125Z" fill="#EBE700"/>
<path fill-rule="evenodd" clip-rule="evenodd" d="M67.6291 177.165C68.4391 176.285 68.3892 174.915 67.5292 174.085C66.6692 173.265 65.3192 173.305 64.5092 174.185C63.6992 175.065 63.7492 176.445 64.6092 177.265C65.4692 178.085 66.8191 178.045 67.6291 177.165Z" fill="white"/>
<path fill-rule="evenodd" clip-rule="evenodd" d="M61.3393 173.874C62.0293 173.114 61.9993 171.934 61.2493 171.224C60.5093 170.514 59.3393 170.554 58.6493 171.314C57.9493 172.074 57.9893 173.254 58.7393 173.964C59.4793 174.674 60.6493 174.634 61.3393 173.874Z" fill="white"/>
<path d="M59.2595 173.074C59.8495 173.374 60.5595 173.134 60.8495 172.534C60.9195 172.404 60.9595 172.254 60.9695 172.114C60.8095 172.284 60.5595 172.334 60.3395 172.224C60.0695 172.084 59.9595 171.754 60.0995 171.484C60.2095 171.264 60.4395 171.144 60.6695 171.184C60.5695 171.074 60.4595 170.984 60.3195 170.914C59.7295 170.614 59.0195 170.854 58.7295 171.454C58.4395 172.054 58.6695 172.774 59.2595 173.074Z" fill="#00C100"/>
<path d="M65.5396 177.464C66.2296 177.794 67.0496 177.484 67.3696 176.774C67.4396 176.614 67.4796 176.454 67.4896 176.284C67.3096 176.484 67.0196 176.554 66.7596 176.434C66.4396 176.284 66.2996 175.904 66.4496 175.584C66.5696 175.324 66.8396 175.184 67.0996 175.214C66.9796 175.094 66.8496 174.994 66.6896 174.914C65.9996 174.594 65.1796 174.894 64.8596 175.604C64.5396 176.304 64.8396 177.144 65.5296 177.464H65.5396Z" fill="#00C100"/>
<path fill-rule="evenodd" clip-rule="evenodd" d="M62.4594 177.884C63.3094 176.914 63.1994 175.394 62.2094 174.484C61.2194 173.574 59.7194 173.624 58.8694 174.594C58.0194 175.564 58.1294 177.084 59.1194 177.994C60.1094 178.904 61.6094 178.854 62.4594 177.884Z" fill="#EB005B"/>
<path d="M62.2892 182.674C60.1592 183.054 58.0892 182.254 56.7392 180.734C56.7092 181.174 56.7192 181.634 56.7992 182.094C57.3092 185.024 60.0692 186.984 62.9492 186.474C65.8392 185.954 67.7592 183.154 67.2492 180.224C67.1692 179.764 67.0292 179.334 66.8492 178.924C66.0892 180.824 64.4192 182.294 62.2892 182.674Z" fill="#EB9C00"/>
<path d="M67.0991 180.894C66.9191 180.634 66.6991 180.424 66.4491 180.254C66.0191 180.794 65.4591 181.334 64.7891 181.824C64.1191 182.304 63.4291 182.664 62.7891 182.904C62.8591 183.194 62.9791 183.474 63.1591 183.734C63.9291 184.844 65.4391 185.104 66.5191 184.324C67.6091 183.544 67.8691 182.004 67.0991 180.894Z" fill="#EB0000"/>
<path fill-rule="evenodd" clip-rule="evenodd" d="M64.8594 181.944C64.8594 181.944 65.2894 182.374 65.5594 182.764C65.8594 183.204 66.1994 183.944 66.1994 183.944C66.1994 183.944 65.5794 183.294 65.3194 182.964C65.0594 182.644 64.8594 181.944 64.8594 181.944Z" fill="#990000"/>
<path opacity="0.1" fill-rule="evenodd" clip-rule="evenodd" d="M262.52 127.404C262.52 124.944 264.58 122.954 267.11 122.954C269.64 122.954 271.7 124.944 271.7 127.404C271.7 129.864 269.64 131.854 267.11 131.854C264.58 131.854 262.52 129.864 262.52 127.404Z" fill="#DFF0FB"/>
<path d="M262.519 127.404C262.519 129.864 264.579 131.854 267.109 131.854C269.639 131.854 271.699 129.864 271.699 127.404C271.699 124.944 269.639 122.954 267.109 122.954C264.579 122.954 262.519 124.944 262.519 127.404ZM262.409 127.404C262.409 124.784 264.509 122.654 267.109 122.654C269.709 122.654 271.799 124.784 271.799 127.404C271.799 130.024 269.699 132.154 267.109 132.154C264.519 132.154 262.409 130.034 262.409 127.404Z" fill="#85C6FF"/>
<path d="M270.699 126.905C270.279 124.925 268.149 123.705 265.959 124.185C265.809 124.215 265.649 124.265 265.499 124.315C265.849 124.045 266.269 123.855 266.719 123.755C268.499 123.375 270.249 124.515 270.629 126.305C270.679 126.525 270.699 126.745 270.699 126.955C270.699 126.935 270.699 126.925 270.699 126.905Z" fill="#85C6FF"/>
<path fill-rule="evenodd" clip-rule="evenodd" d="M221.329 228.135C221.329 229.735 222.589 231.035 224.139 231.035H237.609C239.159 231.035 240.419 229.735 240.419 228.135V208.125C240.419 206.525 239.169 205.225 237.609 205.225H224.139C222.589 205.225 221.329 206.525 221.329 208.125V228.135Z" fill="#FF0000"/>
<path fill-rule="evenodd" clip-rule="evenodd" d="M210.22 232.774C210.22 234.374 211.48 235.674 213.03 235.674H226.5C228.05 235.674 229.31 234.374 229.31 232.774V212.764C229.31 211.164 228.05 209.864 226.5 209.864H213.03C211.48 209.864 210.22 211.164 210.22 212.764V232.774Z" fill="#FF0000"/>
<path fill-rule="evenodd" clip-rule="evenodd" d="M111.669 231.324C111.669 232.924 112.929 234.224 114.479 234.224H127.949C129.499 234.224 130.759 232.924 130.759 231.324V211.304C130.759 209.704 129.499 208.404 127.949 208.404H114.479C112.929 208.404 111.669 209.704 111.669 211.304V231.324Z" fill="#FF0000"/>
<path fill-rule="evenodd" clip-rule="evenodd" d="M118.789 235.385C118.789 236.995 120.049 238.285 121.599 238.285H135.069C136.619 238.285 137.869 236.985 137.869 235.385V215.375C137.869 213.775 136.619 212.475 135.069 212.475H121.599C120.049 212.475 118.789 213.775 118.789 215.375V235.385Z" fill="#FF0000"/>
<path fill-rule="evenodd" clip-rule="evenodd" d="M6.6891 215.025C7.4491 223.065 9.3191 230.465 9.3191 230.465C9.3191 232.065 10.5891 233.365 12.1691 233.365H87.9191C89.4991 233.365 90.7691 232.065 90.7691 230.465V163.795C90.7691 162.195 89.4991 160.895 87.9191 160.895H57.1591C55.5891 160.895 49.0991 160.835 49.0991 167.185L45.4091 185.955C21.2491 187.375 18.7291 190.385 15.6091 191.655C6.7391 195.265 5.3991 201.305 6.6891 215.025ZM48.4491 187.425L53.0391 169.245C53.7091 167.245 54.3091 166.345 55.8791 166.345H75.2191C76.7891 166.345 78.0691 167.645 78.0691 169.245V187.425C78.0691 189.025 76.7991 190.325 75.2191 190.325H51.2891C49.7191 190.325 48.4391 189.025 48.4391 187.425H48.4491Z" fill="#FF0000"/>
<path fill-rule="evenodd" clip-rule="evenodd" d="M247.25 238.234C247.25 239.834 245.97 241.134 244.4 241.134H96.1098C94.5398 241.134 93.2598 239.834 93.2598 238.234V224.984C93.2598 223.384 94.5298 222.084 96.1098 222.084H244.4C245.97 222.084 247.25 223.384 247.25 224.984V238.234Z" fill="#FF0000"/>
<path fill-rule="evenodd" clip-rule="evenodd" d="M122.7 199.424C135.94 216.974 157.81 222.174 171.56 211.024C185.31 199.884 185.72 176.624 172.48 159.064C159.24 141.514 137.37 136.314 123.62 147.464C109.87 158.604 109.46 181.864 122.7 199.424Z" fill="#901569"/>
<path fill-rule="evenodd" clip-rule="evenodd" d="M110.819 154.624C117.139 145.954 126.609 136.934 139.229 128.514C165.219 111.174 205.939 110.154 234.169 110.244L265.669 143.424C255.199 164.634 238.899 198.554 205.599 210.514C189.569 216.274 174.289 219.204 161.019 219.814L110.829 154.634L110.819 154.624Z" fill="#FF0000"/>
<path fill-rule="evenodd" clip-rule="evenodd" d="M125.989 174.344L149.509 204.844C153.909 206.674 158.509 208.464 163.309 210.164C170.219 212.614 177.209 214.794 184.199 216.684C191.079 215.184 198.249 213.144 205.589 210.514C208.139 209.594 210.649 208.624 213.129 207.604C197.279 205.464 180.909 201.764 164.989 196.614C153.319 192.844 135.229 178.854 125.979 174.354L125.989 174.344ZM167.139 179.384C193.589 186.884 213.679 189.324 238.339 188.534C246.879 182.484 257.919 162.804 259.389 155.804C230.279 160.594 202.579 172.924 168.999 164.524C154.249 160.834 133.679 146.534 122.679 141.474C119.209 144.684 116.169 147.914 113.549 151.124C125.889 158.044 148.989 174.224 167.149 179.384H167.139ZM218.239 143.874C237.599 147.444 241.299 147.274 264.269 146.034C264.759 145.154 265.229 144.284 265.659 143.414L253.949 131.784C243.269 129.224 232.459 127.114 221.689 125.524C205.199 123.094 190.229 122.084 177.149 122.234C162.529 121.574 148.589 122.254 139.219 128.504C137.689 129.524 136.219 130.544 134.789 131.584C152.629 127.994 186.339 137.974 218.229 143.864L218.239 143.874Z" fill="#FFD200"/>
<path fill-rule="evenodd" clip-rule="evenodd" d="M157.929 219.355C158.649 220.295 159.939 220.785 160.819 220.455L161.669 220.135C162.559 219.795 162.699 218.755 161.959 217.805L112.979 154.355C112.319 153.495 111.179 153.175 110.449 153.645L109.749 154.095C109.019 154.565 108.969 155.635 109.629 156.485L157.919 219.355H157.929Z" fill="#DF0059"/>
<path fill-rule="evenodd" clip-rule="evenodd" d="M261.689 144.544C262.739 145.694 264.849 146.104 266.409 145.454C267.979 144.794 268.399 143.314 267.329 142.154L235.759 109.034C234.779 107.974 232.889 107.764 231.549 108.564C230.219 109.364 229.919 110.854 230.889 111.914L261.699 144.554L261.689 144.544Z" fill="#DF0059"/>
<path fill-rule="evenodd" clip-rule="evenodd" d="M93.2695 227.764C93.2695 229.364 94.5495 230.664 96.1195 230.664H105.69C107.26 230.664 108.54 229.364 108.54 227.764V168.174C108.54 166.574 107.26 165.274 105.69 165.274H96.1195C94.5495 165.274 93.2695 166.574 93.2695 168.174V227.764Z" fill="#FFD200"/>
<path fill-rule="evenodd" clip-rule="evenodd" d="M97.6396 171.254C97.6396 172.854 98.9196 174.154 100.49 174.154H101.65C103.22 174.154 104.5 172.854 104.5 171.254V155.154C104.5 153.554 103.22 152.254 101.65 152.254H100.49C98.9196 152.254 97.6396 153.554 97.6396 155.154V171.254Z" fill="#FFD200"/>
<path fill-rule="evenodd" clip-rule="evenodd" d="M97.6396 241.734C97.6396 243.334 98.9196 244.634 100.49 244.634H101.65C103.22 244.634 104.5 243.334 104.5 241.734V225.634C104.5 224.034 103.22 222.734 101.65 222.734H100.49C98.9196 222.734 97.6396 224.034 97.6396 225.634V241.734Z" fill="#FFD200"/>
<path fill-rule="evenodd" clip-rule="evenodd" d="M128.229 249.114C128.229 250.264 127.309 251.194 126.189 251.194H91.5593C90.4393 251.194 89.5293 250.264 89.5293 249.114V236.234C89.5293 235.084 90.4393 234.154 91.5593 234.154H126.189C127.309 234.154 128.229 235.084 128.229 236.234V249.114Z" fill="#FFD200"/>
<path fill-rule="evenodd" clip-rule="evenodd" d="M12.1194 205.944C12.1194 205.444 11.9494 205.044 11.7494 205.044H6.23938C6.02938 205.044 5.85938 205.454 5.85938 205.944C5.85938 206.444 6.02938 206.844 6.23938 206.844H11.7494C11.9594 206.844 12.1194 206.444 12.1194 205.944Z" fill="#FFD200"/>
<path fill-rule="evenodd" clip-rule="evenodd" d="M12.1194 209.554C12.1194 209.054 11.9494 208.654 11.7494 208.654H6.23938C6.02938 208.654 5.85938 209.054 5.85938 209.554C5.85938 210.054 6.02938 210.464 6.23938 210.464H11.7494C11.9594 210.464 12.1194 210.054 12.1194 209.554Z" fill="#FFD200"/>
<path fill-rule="evenodd" clip-rule="evenodd" d="M12.1194 213.054C12.1194 212.554 11.9494 212.154 11.7494 212.154H6.23938C6.02938 212.154 5.85938 212.554 5.85938 213.054C5.85938 213.554 6.02938 213.954 6.23938 213.954H11.7494C11.9594 213.954 12.1194 213.554 12.1194 213.054Z" fill="#FFD200"/>
<path fill-rule="evenodd" clip-rule="evenodd" d="M12.1194 216.665C12.1194 216.165 11.9494 215.765 11.7494 215.765H6.23938C6.02938 215.765 5.85938 216.165 5.85938 216.665C5.85938 217.165 6.02938 217.565 6.23938 217.565H11.7494C11.9594 217.565 12.1194 217.165 12.1194 216.665Z" fill="#FFD200"/>
<path fill-rule="evenodd" clip-rule="evenodd" d="M12.1194 198.614C12.1194 198.114 11.9494 197.714 11.7494 197.714H6.23938C6.02938 197.714 5.85938 198.114 5.85938 198.614C5.85938 199.114 6.02938 199.514 6.23938 199.514H11.7494C11.9594 199.514 12.1194 199.114 12.1194 198.614Z" fill="#FFD200"/>
<path fill-rule="evenodd" clip-rule="evenodd" d="M12.1194 202.224C12.1194 201.724 11.9494 201.314 11.7494 201.314H6.23938C6.02938 201.314 5.85938 201.714 5.85938 202.224C5.85938 202.724 6.02938 203.124 6.23938 203.124H11.7494C11.9594 203.124 12.1194 202.724 12.1194 202.224Z" fill="#FFD200"/>
<path fill-rule="evenodd" clip-rule="evenodd" d="M101.74 181.194C101.74 180.694 101.58 180.294 101.37 180.294H95.8497C95.6397 180.294 95.4697 180.694 95.4697 181.194C95.4697 181.694 95.6397 182.094 95.8497 182.094H101.37C101.58 182.094 101.74 181.694 101.74 181.194Z" fill="#FB810F"/>
<path fill-rule="evenodd" clip-rule="evenodd" d="M101.74 184.804C101.74 184.304 101.58 183.904 101.37 183.904H95.8497C95.6397 183.904 95.4697 184.304 95.4697 184.804C95.4697 185.304 95.6397 185.704 95.8497 185.704H101.37C101.58 185.704 101.74 185.304 101.74 184.804Z" fill="#FB810F"/>
<path fill-rule="evenodd" clip-rule="evenodd" d="M101.74 188.304C101.74 187.804 101.58 187.404 101.37 187.404H95.8497C95.6397 187.404 95.4697 187.804 95.4697 188.304C95.4697 188.804 95.6397 189.204 95.8497 189.204H101.37C101.58 189.204 101.74 188.804 101.74 188.304Z" fill="#FB810F"/>
<path fill-rule="evenodd" clip-rule="evenodd" d="M101.74 191.915C101.74 191.415 101.58 191.015 101.37 191.015H95.8497C95.6397 191.015 95.4697 191.415 95.4697 191.915C95.4697 192.415 95.6397 192.815 95.8497 192.815H101.37C101.58 192.815 101.74 192.415 101.74 191.915Z" fill="#FB810F"/>
<path fill-rule="evenodd" clip-rule="evenodd" d="M101.74 173.854C101.74 173.354 101.58 172.954 101.37 172.954H95.8497C95.6397 172.954 95.4697 173.354 95.4697 173.854C95.4697 174.354 95.6397 174.764 95.8497 174.764H101.37C101.58 174.764 101.74 174.364 101.74 173.854Z" fill="#FB810F"/>
<path fill-rule="evenodd" clip-rule="evenodd" d="M101.74 177.474C101.74 176.974 101.58 176.574 101.37 176.574H95.8497C95.6397 176.574 95.4697 176.974 95.4697 177.474C95.4697 177.974 95.6397 178.374 95.8497 178.374H101.37C101.58 178.374 101.74 177.974 101.74 177.474Z" fill="#FB810F"/>
<path fill-rule="evenodd" clip-rule="evenodd" d="M117.719 250.134C118.209 250.134 118.609 249.964 118.609 249.754V244.134C118.609 243.924 118.209 243.754 117.719 243.754C117.229 243.754 116.839 243.924 116.839 244.134V249.754C116.839 249.964 117.229 250.134 117.719 250.134Z" fill="#FB810F"/>
<path fill-rule="evenodd" clip-rule="evenodd" d="M114.169 250.134C114.659 250.134 115.059 249.964 115.059 249.754V244.134C115.059 243.924 114.659 243.754 114.169 243.754C113.679 243.754 113.289 243.924 113.289 244.134V249.754C113.289 249.964 113.689 250.134 114.169 250.134Z" fill="#FB810F"/>
<path fill-rule="evenodd" clip-rule="evenodd" d="M110.74 250.134C111.23 250.134 111.63 249.964 111.63 249.754V244.134C111.63 243.924 111.23 243.754 110.74 243.754C110.25 243.754 109.85 243.924 109.85 244.134V249.754C109.85 249.964 110.25 250.134 110.74 250.134Z" fill="#FB810F"/>
<path fill-rule="evenodd" clip-rule="evenodd" d="M107.19 250.134C107.68 250.134 108.08 249.964 108.08 249.754V244.134C108.08 243.924 107.68 243.754 107.19 243.754C106.7 243.754 106.31 243.924 106.31 244.134V249.754C106.31 249.964 106.7 250.134 107.19 250.134Z" fill="#FB810F"/>
<path fill-rule="evenodd" clip-rule="evenodd" d="M124.919 250.134C125.409 250.134 125.809 249.964 125.809 249.754V244.134C125.809 243.924 125.409 243.754 124.919 243.754C124.429 243.754 124.039 243.924 124.039 244.134V249.754C124.039 249.964 124.429 250.134 124.919 250.134Z" fill="#FB810F"/>
<path fill-rule="evenodd" clip-rule="evenodd" d="M121.379 250.134C121.869 250.134 122.269 249.964 122.269 249.754V244.134C122.269 243.924 121.869 243.754 121.379 243.754C120.889 243.754 120.489 243.924 120.489 244.134V249.754C120.489 249.964 120.889 250.134 121.379 250.134Z" fill="#FB810F"/>
<path fill-rule="evenodd" clip-rule="evenodd" d="M101.74 203.245C101.74 202.745 101.58 202.345 101.37 202.345H95.8497C95.6397 202.345 95.4697 202.745 95.4697 203.245C95.4697 203.745 95.6397 204.145 95.8497 204.145H101.37C101.58 204.145 101.74 203.745 101.74 203.245Z" fill="#FB810F"/>
<path fill-rule="evenodd" clip-rule="evenodd" d="M101.74 206.854C101.74 206.354 101.58 205.944 101.37 205.944H95.8497C95.6397 205.944 95.4697 206.344 95.4697 206.854C95.4697 207.354 95.6397 207.754 95.8497 207.754H101.37C101.58 207.754 101.74 207.354 101.74 206.854Z" fill="#FB810F"/>
<path fill-rule="evenodd" clip-rule="evenodd" d="M101.74 210.354C101.74 209.854 101.58 209.454 101.37 209.454H95.8497C95.6397 209.454 95.4697 209.854 95.4697 210.354C95.4697 210.854 95.6397 211.254 95.8497 211.254H101.37C101.58 211.254 101.74 210.854 101.74 210.354Z" fill="#FB810F"/>
<path fill-rule="evenodd" clip-rule="evenodd" d="M101.74 213.964C101.74 213.464 101.58 213.064 101.37 213.064H95.8497C95.6397 213.064 95.4697 213.474 95.4697 213.964C95.4697 214.464 95.6397 214.864 95.8497 214.864H101.37C101.58 214.864 101.74 214.464 101.74 213.964Z" fill="#FB810F"/>
<path fill-rule="evenodd" clip-rule="evenodd" d="M101.74 195.904C101.74 195.404 101.58 195.004 101.37 195.004H95.8497C95.6397 195.004 95.4697 195.404 95.4697 195.904C95.4697 196.404 95.6397 196.804 95.8497 196.804H101.37C101.58 196.804 101.74 196.404 101.74 195.904Z" fill="#FB810F"/>
<path fill-rule="evenodd" clip-rule="evenodd" d="M101.74 199.514C101.74 199.014 101.58 198.614 101.37 198.614H95.8497C95.6397 198.614 95.4697 199.014 95.4697 199.514C95.4697 200.014 95.6397 200.414 95.8497 200.414H101.37C101.58 200.414 101.74 200.014 101.74 199.514Z" fill="#FB810F"/>
<path fill-rule="evenodd" clip-rule="evenodd" d="M0.0292969 232.614C0.0292969 236.074 2.7793 238.864 6.1693 238.864H15.4093C18.7893 238.864 21.5393 236.064 21.5393 232.614V232.034C21.5393 228.584 18.7893 225.784 15.4093 225.784H6.1693C2.7793 225.784 0.0292969 228.584 0.0292969 232.034V232.614Z" fill="#FFD200"/>
<path fill-rule="evenodd" clip-rule="evenodd" d="M238.999 234.354C238.999 237.804 241.749 240.604 245.139 240.604H254.379C257.759 240.604 260.519 237.804 260.519 234.354V233.774C260.519 230.324 257.759 227.524 254.379 227.524H245.139C241.749 227.524 238.999 230.324 238.999 233.774V234.354Z" fill="#FFD200"/>
<path d="M21.8892 204.644C21.4592 199.734 19.6592 195.894 17.8492 196.044C16.0492 196.204 14.9192 200.314 15.3492 205.224C15.7692 210.134 17.5692 213.974 19.3792 213.824C21.1892 213.664 22.3092 209.554 21.8892 204.644Z" fill="#FC810F"/>
<path d="M20.2093 204.545C19.9193 200.825 18.6793 197.895 17.4393 198.025C16.1993 198.145 15.4293 201.265 15.7193 204.995C16.0093 208.725 17.2493 211.645 18.4893 211.515C19.7293 211.395 20.4993 208.275 20.2093 204.545Z" fill="#FDE700"/>
<path d="M19.179 203.994C18.949 201.004 17.949 198.664 16.959 198.764C15.959 198.864 15.339 201.364 15.579 204.354C15.819 207.344 16.809 209.684 17.799 209.584C18.799 209.484 19.409 206.984 19.179 203.994Z" fill="#FFFFD2"/>
<path d="M23.7295 249.164C23.7295 265.724 36.9195 279.164 53.1895 279.164C69.4595 279.164 82.6395 265.734 82.6395 249.164C82.6395 232.594 69.4495 219.164 53.1895 219.164C36.9195 219.164 23.7295 232.594 23.7295 249.164Z" fill="#440E90"/>
<path d="M70.0189 249.165C70.0189 239.695 62.4789 232.015 53.1789 232.015C43.8789 232.015 36.3389 239.695 36.3389 249.165C36.3389 258.635 43.8789 266.315 53.1789 266.315C62.4789 266.315 70.0189 258.635 70.0189 249.165Z" fill="#FFD200"/>
<path d="M61.6889 249.164C61.6889 253.954 57.8789 257.834 53.1789 257.834C48.4789 257.834 44.6689 253.954 44.6689 249.164C44.6689 244.374 48.4789 240.494 53.1789 240.494C57.8789 240.494 61.6889 244.374 61.6889 249.164Z" fill="#920E51"/>
<path d="M49.3594 238.485H56.4394L52.8994 232.225L49.3594 238.485Z" fill="#FF0000"/>
<path d="M63.6797 245.544V252.764L69.8297 249.154L63.6797 245.544Z" fill="#FF0000"/>
<path d="M56.4394 259.854H49.3594L52.8994 266.104L56.4394 259.854Z" fill="#FF0000"/>
<path d="M42.6791 252.764V245.544L36.5391 249.154L42.6791 252.764Z" fill="#FF0000"/>
<path d="M58.0596 239.284L63.0796 244.394L64.9096 237.414L58.0596 239.284Z" fill="#FF0000"/>
<path d="M63.2893 254.595L58.2793 259.705L65.1293 261.575L63.2893 254.595Z" fill="#FF0000"/>
<path d="M48.2396 259.505L43.2196 254.395L41.3896 261.375L48.2396 259.505Z" fill="#FF0000"/>
<path d="M43.4189 244.574L48.4289 239.475L41.5889 237.604L43.4189 244.574Z" fill="#FF0000"/>
<path d="M51.4492 244.335H54.6592L53.0492 241.515L51.4492 244.335Z" fill="#FF0000"/>
<path d="M57.9297 247.524V250.794L60.6997 249.164L57.9297 247.524Z" fill="#FF0000"/>
<path d="M54.6592 253.994H51.4492L53.0492 256.824L54.6592 253.994Z" fill="#FF0000"/>
<path d="M48.4292 250.794V247.524L45.6592 249.164L48.4292 250.794Z" fill="#FF0000"/>
<path d="M55.3896 244.704L57.6496 247.005L58.4896 243.854L55.3896 244.704Z" fill="#FF0000"/>
<path d="M57.7495 251.624L55.4795 253.934L58.5795 254.774L57.7495 251.624Z" fill="#FF0000"/>
<path d="M50.9496 253.834L48.6796 251.534L47.8496 254.684L50.9496 253.834Z" fill="#FF0000"/>
<path d="M48.7695 247.095L51.0395 244.785L47.9395 243.935L48.7695 247.095Z" fill="#FF0000"/>
<path fill-rule="evenodd" clip-rule="evenodd" d="M58.2589 249.165C58.2589 246.205 55.9889 243.805 53.1789 243.805C50.3689 243.805 48.0889 246.205 48.0889 249.165C48.0889 252.125 50.3689 254.525 53.1789 254.525C55.9889 254.525 58.2589 252.125 58.2589 249.165Z" fill="#FFD200"/>
<path fill-rule="evenodd" clip-rule="evenodd" d="M56.3698 249.175C56.3698 247.385 54.9398 245.935 53.1898 245.935C51.4398 245.935 50.0098 247.385 50.0098 249.175C50.0098 250.965 51.4298 252.415 53.1898 252.415C54.9498 252.415 56.3698 250.965 56.3698 249.175Z" fill="#DF0059"/>
<path d="M130.35 249.164C130.35 265.724 143.54 279.164 159.81 279.164C176.08 279.164 189.27 265.734 189.27 249.164C189.27 232.594 176.08 219.164 159.81 219.164C143.54 219.164 130.35 232.594 130.35 249.164Z" fill="#440E90"/>
<path d="M176.649 249.165C176.649 239.695 169.109 232.015 159.809 232.015C150.509 232.015 142.959 239.695 142.959 249.165C142.959 258.635 150.499 266.315 159.809 266.315C169.109 266.315 176.649 258.635 176.649 249.165Z" fill="#FFD200"/>
<path d="M168.319 249.164C168.319 253.954 164.509 257.834 159.809 257.834C155.109 257.834 151.299 253.954 151.299 249.164C151.299 244.374 155.119 240.494 159.809 240.494C164.509 240.494 168.319 244.374 168.319 249.164Z" fill="#920E51"/>
<path d="M155.979 238.485H163.069L159.52 232.225L155.979 238.485Z" fill="#FF0000"/>
<path d="M170.31 245.544V252.764L176.45 249.154L170.31 245.544Z" fill="#FF0000"/>
<path d="M163.069 259.854H155.979L159.52 266.104L163.069 259.854Z" fill="#FF0000"/>
<path d="M149.299 252.764V245.544L143.159 249.154L149.299 252.764Z" fill="#FF0000"/>
<path d="M164.689 239.284L169.699 244.394L171.539 237.414L164.689 239.284Z" fill="#FF0000"/>
<path d="M169.919 254.595L164.899 259.705L171.749 261.575L169.919 254.595Z" fill="#FF0000"/>
<path d="M154.86 259.505L149.85 254.395L148.01 261.375L154.86 259.505Z" fill="#FF0000"/>
<path d="M150.039 244.574L155.059 239.475L148.209 237.604L150.039 244.574Z" fill="#FF0000"/>
<path d="M158.079 244.335H161.279L159.679 241.515L158.079 244.335Z" fill="#FF0000"/>
<path d="M164.56 247.524V250.794L167.33 249.164L164.56 247.524Z" fill="#FF0000"/>
<path d="M161.279 253.994H158.079L159.679 256.824L161.279 253.994Z" fill="#FF0000"/>
<path d="M155.059 250.794V247.524L152.279 249.164L155.059 250.794Z" fill="#FF0000"/>
<path d="M162.01 244.704L164.28 247.005L165.11 243.854L162.01 244.704Z" fill="#FF0000"/>
<path d="M164.379 251.624L162.109 253.934L165.199 254.774L164.379 251.624Z" fill="#FF0000"/>
<path d="M157.57 253.834L155.3 251.534L154.47 254.684L157.57 253.834Z" fill="#FF0000"/>
<path d="M155.4 247.095L157.66 244.785L154.56 243.935L155.4 247.095Z" fill="#FF0000"/>
<path fill-rule="evenodd" clip-rule="evenodd" d="M164.889 249.165C164.889 246.205 162.609 243.805 159.809 243.805C157.009 243.805 154.729 246.205 154.729 249.165C154.729 252.125 157.009 254.525 159.809 254.525C162.609 254.525 164.889 252.125 164.889 249.165Z" fill="#FFD200"/>
<path fill-rule="evenodd" clip-rule="evenodd" d="M163 249.175C163 247.385 161.58 245.935 159.82 245.935C158.07 245.935 156.64 247.385 156.64 249.175C156.64 250.965 158.07 252.415 159.82 252.415C161.58 252.415 163 250.965 163 249.175Z" fill="#DF0059"/>
<path d="M191.02 249.164C191.02 265.724 204.21 279.164 220.48 279.164C236.75 279.164 249.93 265.734 249.93 249.164C249.93 232.594 236.74 219.164 220.48 219.164C204.21 219.164 191.02 232.594 191.02 249.164Z" fill="#440E90"/>
<path d="M237.309 249.165C237.309 239.695 229.769 232.015 220.469 232.015C211.169 232.015 203.629 239.695 203.629 249.165C203.629 258.635 211.169 266.315 220.469 266.315C229.769 266.315 237.309 258.635 237.309 249.165Z" fill="#FFD200"/>
<path d="M228.98 249.164C228.98 253.954 225.18 257.834 220.48 257.834C215.78 257.834 211.97 253.954 211.97 249.164C211.97 244.374 215.78 240.494 220.48 240.494C225.18 240.494 228.98 244.374 228.98 249.164Z" fill="#920E51"/>
<path d="M216.649 238.485H223.739L220.189 232.225L216.649 238.485Z" fill="#FF0000"/>
<path d="M230.979 245.544V252.764L237.119 249.154L230.979 245.544Z" fill="#FF0000"/>
<path d="M223.739 259.854H216.649L220.189 266.104L223.739 259.854Z" fill="#FF0000"/>
<path d="M209.969 252.764V245.544L203.829 249.154L209.969 252.764Z" fill="#FF0000"/>
<path d="M225.359 239.284L230.369 244.394L232.199 237.414L225.359 239.284Z" fill="#FF0000"/>
<path d="M230.579 254.595L225.569 259.705L232.419 261.575L230.579 254.595Z" fill="#FF0000"/>
<path d="M215.53 259.505L210.51 254.395L208.68 261.375L215.53 259.505Z" fill="#FF0000"/>
<path d="M210.709 244.574L215.729 239.475L208.879 237.604L210.709 244.574Z" fill="#FF0000"/>
<path d="M218.739 244.335H221.949L220.339 241.515L218.739 244.335Z" fill="#FF0000"/>
<path d="M225.22 247.524V250.794L227.99 249.164L225.22 247.524Z" fill="#FF0000"/>
<path d="M221.949 253.994H218.739L220.339 256.824L221.949 253.994Z" fill="#FF0000"/>
<path d="M215.729 250.794V247.524L212.949 249.164L215.729 250.794Z" fill="#FF0000"/>
<path d="M222.68 244.704L224.95 247.005L225.78 243.854L222.68 244.704Z" fill="#FF0000"/>
<path d="M225.039 251.624L222.779 253.934L225.869 254.774L225.039 251.624Z" fill="#FF0000"/>
<path d="M218.24 253.834L215.97 251.534L215.14 254.684L218.24 253.834Z" fill="#FF0000"/>
<path d="M216.059 247.095L218.329 244.785L215.229 243.935L216.059 247.095Z" fill="#FF0000"/>
<path fill-rule="evenodd" clip-rule="evenodd" d="M225.55 249.165C225.55 246.205 223.28 243.805 220.47 243.805C217.66 243.805 215.39 246.205 215.39 249.165C215.39 252.125 217.66 254.525 220.47 254.525C223.28 254.525 225.55 252.125 225.55 249.165Z" fill="#FFD200"/>
<path fill-rule="evenodd" clip-rule="evenodd" d="M223.659 249.175C223.659 247.385 222.239 245.935 220.479 245.935C218.719 245.935 217.299 247.385 217.299 249.175C217.299 250.965 218.719 252.415 220.479 252.415C222.239 252.415 223.659 250.965 223.659 249.175Z" fill="#DF0059"/>
<path d="M46.2898 206.824C63.6998 201.034 82.4298 210.714 88.1098 228.444C88.6498 230.134 89.0398 231.834 89.3098 233.524H87.2198C87.0298 232.704 86.8098 231.884 86.5398 231.064C80.8498 213.334 62.1298 203.654 44.7198 209.444C37.4098 211.874 31.4898 216.644 27.5098 222.674C31.4198 215.414 37.9398 209.594 46.2898 206.824Z" fill="#F69C00"/>
<path fill-rule="evenodd" clip-rule="evenodd" d="M103.7 155.834C103.7 157.364 102.48 158.594 100.98 158.594C99.4798 158.594 98.2598 157.354 98.2598 155.834C98.2598 154.314 99.4698 153.074 100.98 153.074C102.49 153.074 103.7 154.314 103.7 155.834Z" fill="#FB810F"/>
<path opacity="0.1" fill-rule="evenodd" clip-rule="evenodd" d="M138.51 100.074C138.51 92.354 144.97 86.084 152.94 86.084C160.91 86.084 167.37 92.344 167.37 100.074C167.37 107.804 160.91 114.064 152.94 114.064C144.97 114.064 138.51 107.794 138.51 100.074Z" fill="#DFF0FB"/>
<path d="M138.51 100.074C138.51 107.804 144.97 114.064 152.94 114.064C160.91 114.064 167.37 107.794 167.37 100.074C167.37 92.3543 160.91 86.0843 152.94 86.0843C144.97 86.0843 138.51 92.3443 138.51 100.074ZM138.18 100.074C138.18 91.8343 144.79 85.1543 152.94 85.1543C161.09 85.1543 167.68 91.8343 167.68 100.074C167.68 108.314 161.08 114.994 152.94 114.994C144.8 114.994 138.18 108.324 138.18 100.074Z" fill="#85C6FF"/>
<path d="M164.22 98.5245C162.89 92.2945 156.22 88.4645 149.32 89.9745C148.83 90.0745 148.34 90.2145 147.89 90.3745C149 89.5445 150.31 88.9445 151.74 88.6345C157.33 87.4245 162.82 91.0045 164.02 96.6545C164.17 97.3345 164.25 98.0245 164.25 98.6945C164.24 98.6445 164.23 98.5945 164.22 98.5345V98.5245Z" fill="#85C6FF"/>
<path opacity="0.1" fill-rule="evenodd" clip-rule="evenodd" d="M242.839 112.005C242.839 106.725 247.259 102.435 252.709 102.435C258.159 102.435 262.579 106.715 262.579 112.005C262.579 117.295 258.159 121.575 252.709 121.575C247.259 121.575 242.839 117.285 242.839 112.005Z" fill="#DFF0FB"/>
<path d="M242.839 112.004C242.839 117.294 247.259 121.574 252.709 121.574C258.159 121.574 262.579 117.284 262.579 112.004C262.579 106.724 258.159 102.434 252.709 102.434C247.259 102.434 242.839 106.714 242.839 112.004ZM242.609 112.004C242.609 106.364 247.129 101.794 252.699 101.794C258.269 101.794 262.779 106.364 262.779 112.004C262.779 117.644 258.269 122.214 252.699 122.214C247.129 122.214 242.609 117.644 242.609 112.004Z" fill="#85C6FF"/>
<path d="M260.419 110.944C259.509 106.684 254.949 104.064 250.229 105.094C249.899 105.164 249.559 105.254 249.249 105.374C250.009 104.804 250.899 104.394 251.879 104.184C255.699 103.354 259.459 105.804 260.279 109.674C260.379 110.144 260.439 110.614 260.439 111.064C260.439 111.034 260.429 110.994 260.419 110.954V110.944Z" fill="#85C6FF"/>
<path opacity="0.1" fill-rule="evenodd" clip-rule="evenodd" d="M237.52 110.585C237.52 108.065 239.63 106.015 242.23 106.015C244.83 106.015 246.94 108.065 246.94 110.585C246.94 113.105 244.83 115.155 242.23 115.155C239.63 115.155 237.52 113.105 237.52 110.585Z" fill="#DFF0FB"/>
<path d="M237.519 110.584C237.519 113.104 239.629 115.154 242.229 115.154C244.829 115.154 246.939 113.104 246.939 110.584C246.939 108.064 244.829 106.014 242.229 106.014C239.629 106.014 237.519 108.064 237.519 110.584ZM237.419 110.584C237.419 107.894 239.579 105.714 242.239 105.714C244.899 105.714 247.049 107.894 247.049 110.584C247.049 113.274 244.889 115.454 242.239 115.454C239.589 115.454 237.419 113.274 237.419 110.584Z" fill="#85C6FF"/>
<path d="M245.919 110.085C245.489 108.055 243.309 106.805 241.059 107.295C240.899 107.325 240.739 107.375 240.589 107.425C240.949 107.155 241.379 106.955 241.849 106.855C243.679 106.465 245.469 107.625 245.859 109.475C245.909 109.695 245.939 109.925 245.939 110.135C245.939 110.115 245.939 110.105 245.939 110.085H245.919Z" fill="#85C6FF"/>
<path opacity="0.1" fill-rule="evenodd" clip-rule="evenodd" d="M251.379 124.454C251.379 121.504 253.849 119.114 256.889 119.114C259.929 119.114 262.399 121.504 262.399 124.454C262.399 127.404 259.929 129.804 256.889 129.804C253.849 129.804 251.379 127.414 251.379 124.454Z" fill="#DFF0FB"/>
<path d="M251.379 124.454C251.379 127.404 253.849 129.804 256.889 129.804C259.929 129.804 262.399 127.414 262.399 124.454C262.399 121.494 259.929 119.114 256.889 119.114C253.849 119.114 251.379 121.504 251.379 124.454ZM251.249 124.454C251.249 121.304 253.769 118.754 256.889 118.754C260.009 118.754 262.519 121.304 262.519 124.454C262.519 127.604 259.999 130.154 256.889 130.154C253.779 130.154 251.249 127.604 251.249 124.454Z" fill="#85C6FF"/>
<path d="M261.199 123.864C260.689 121.484 258.149 120.024 255.509 120.594C255.319 120.634 255.139 120.684 254.959 120.744C255.389 120.424 255.879 120.194 256.429 120.074C258.559 119.614 260.659 120.984 261.119 123.134C261.179 123.394 261.209 123.654 261.209 123.914C261.209 123.894 261.209 123.874 261.199 123.854V123.864Z" fill="#85C6FF"/>
<path opacity="0.1" fill-rule="evenodd" clip-rule="evenodd" d="M257.1 118.505C257.1 114.695 260.29 111.595 264.23 111.595C268.17 111.595 271.36 114.685 271.36 118.505C271.36 122.325 268.17 125.415 264.23 125.415C260.29 125.415 257.1 122.325 257.1 118.505Z" fill="#DFF0FB"/>
<path d="M257.099 118.505C257.099 122.325 260.289 125.415 264.229 125.415C268.169 125.415 271.359 122.325 271.359 118.505C271.359 114.685 268.169 111.595 264.229 111.595C260.289 111.595 257.099 114.685 257.099 118.505ZM256.939 118.505C256.939 114.435 260.199 111.135 264.229 111.135C268.259 111.135 271.509 114.435 271.509 118.505C271.509 122.575 268.249 125.875 264.229 125.875C260.209 125.875 256.939 122.575 256.939 118.505Z" fill="#85C6FF"/>
<path d="M269.799 117.734C269.139 114.654 265.849 112.764 262.439 113.514C262.199 113.564 261.959 113.634 261.729 113.714C262.279 113.304 262.919 113.004 263.629 112.854C266.389 112.254 269.099 114.024 269.699 116.814C269.769 117.154 269.809 117.494 269.809 117.824C269.809 117.804 269.809 117.774 269.799 117.744V117.734Z" fill="#85C6FF"/>
<path opacity="0.1" fill-rule="evenodd" clip-rule="evenodd" d="M268.369 122.194C268.369 119.504 270.619 117.324 273.399 117.324C276.179 117.324 278.429 119.504 278.429 122.194C278.429 124.884 276.179 127.074 273.399 127.074C270.619 127.074 268.369 124.894 268.369 122.194Z" fill="#DFF0FB"/>
<path d="M268.37 122.194C268.37 124.884 270.62 127.074 273.4 127.074C276.18 127.074 278.43 124.894 278.43 122.194C278.43 119.494 276.18 117.324 273.4 117.324C270.62 117.324 268.37 119.504 268.37 122.194ZM268.26 122.194C268.26 119.324 270.56 116.994 273.4 116.994C276.24 116.994 278.54 119.324 278.54 122.194C278.54 125.064 276.24 127.394 273.4 127.394C270.56 127.394 268.26 125.064 268.26 122.194Z" fill="#85C6FF"/>
<path d="M277.33 121.654C276.87 119.484 274.54 118.154 272.14 118.674C271.97 118.714 271.8 118.754 271.64 118.814C272.03 118.524 272.48 118.314 272.98 118.204C274.93 117.784 276.84 119.034 277.26 121.004C277.31 121.244 277.34 121.484 277.34 121.714C277.34 121.694 277.34 121.674 277.33 121.654Z" fill="#85C6FF"/>
<path opacity="0.1" fill-rule="evenodd" clip-rule="evenodd" d="M261.089 126.714C261.089 124.684 262.789 123.034 264.889 123.034C266.989 123.034 268.689 124.684 268.689 126.714C268.689 128.744 266.989 130.394 264.889 130.394C262.789 130.394 261.089 128.744 261.089 126.714Z" fill="#DFF0FB"/>
<path d="M261.09 126.714C261.09 128.744 262.79 130.394 264.89 130.394C266.99 130.394 268.69 128.744 268.69 126.714C268.69 124.684 266.99 123.034 264.89 123.034C262.79 123.034 261.09 124.684 261.09 126.714ZM261.01 126.714C261.01 124.544 262.75 122.784 264.89 122.784C267.03 122.784 268.77 124.544 268.77 126.714C268.77 128.884 267.03 130.644 264.89 130.644C262.75 130.644 261.01 128.884 261.01 126.714Z" fill="#85C6FF"/>
<path d="M267.86 126.304C267.51 124.664 265.76 123.654 263.94 124.054C263.81 124.084 263.68 124.114 263.56 124.164C263.85 123.944 264.2 123.784 264.57 123.704C266.04 123.384 267.49 124.324 267.8 125.814C267.84 125.994 267.86 126.174 267.86 126.354C267.86 126.344 267.86 126.324 267.86 126.314V126.304Z" fill="#85C6FF"/>
<path opacity="0.1" fill-rule="evenodd" clip-rule="evenodd" d="M257.879 133.494C257.879 130.574 260.329 128.204 263.339 128.204C266.349 128.204 268.799 130.574 268.799 133.494C268.799 136.414 266.349 138.794 263.339 138.794C260.329 138.794 257.879 136.424 257.879 133.494Z" fill="#DFF0FB"/>
<path d="M257.879 133.495C257.879 136.425 260.329 138.795 263.339 138.795C266.349 138.795 268.799 136.425 268.799 133.495C268.799 130.565 266.349 128.205 263.339 128.205C260.329 128.205 257.879 130.575 257.879 133.495ZM257.749 133.495C257.749 130.375 260.249 127.845 263.339 127.845C266.429 127.845 268.919 130.375 268.919 133.495C268.919 136.615 266.419 139.145 263.339 139.145C260.259 139.145 257.749 136.615 257.749 133.495Z" fill="#85C6FF"/>
<path d="M267.61 132.904C267.11 130.544 264.58 129.094 261.97 129.664C261.79 129.704 261.6 129.754 261.43 129.814C261.85 129.494 262.35 129.274 262.89 129.154C265.01 128.694 267.08 130.054 267.54 132.194C267.6 132.454 267.63 132.714 267.63 132.964C267.63 132.944 267.63 132.924 267.62 132.904H267.61Z" fill="#85C6FF"/>
<path opacity="0.1" fill-rule="evenodd" clip-rule="evenodd" d="M262.64 138.464C262.64 136.704 264.11 135.274 265.93 135.274C267.75 135.274 269.22 136.704 269.22 138.464C269.22 140.224 267.75 141.654 265.93 141.654C264.11 141.654 262.64 140.224 262.64 138.464Z" fill="#DFF0FB"/>
<path d="M262.64 138.464C262.64 140.224 264.11 141.654 265.93 141.654C267.75 141.654 269.22 140.224 269.22 138.464C269.22 136.704 267.75 135.274 265.93 135.274C264.11 135.274 262.64 136.704 262.64 138.464ZM262.56 138.464C262.56 136.584 264.07 135.064 265.93 135.064C267.79 135.064 269.29 136.584 269.29 138.464C269.29 140.344 267.78 141.864 265.93 141.864C264.08 141.864 262.56 140.344 262.56 138.464Z" fill="#85C6FF"/>
<path d="M268.5 138.115C268.2 136.695 266.68 135.825 265.1 136.165C264.99 136.185 264.88 136.215 264.77 136.255C265.02 136.065 265.32 135.925 265.65 135.855C266.92 135.575 268.18 136.395 268.45 137.685C268.48 137.845 268.5 137.995 268.5 138.145C268.5 138.135 268.5 138.125 268.5 138.105V138.115Z" fill="#85C6FF"/>
<path opacity="0.1" fill-rule="evenodd" clip-rule="evenodd" d="M234.26 108.625C234.26 106.975 235.64 105.635 237.35 105.635C239.06 105.635 240.44 106.975 240.44 108.625C240.44 110.275 239.06 111.625 237.35 111.625C235.64 111.625 234.26 110.285 234.26 108.625Z" fill="#DFF0FB"/>
<path d="M234.259 108.625C234.259 110.275 235.639 111.625 237.349 111.625C239.059 111.625 240.439 110.285 240.439 108.625C240.439 106.965 239.059 105.635 237.349 105.635C235.639 105.635 234.259 106.975 234.259 108.625ZM234.189 108.625C234.189 106.865 235.599 105.435 237.349 105.435C239.099 105.435 240.509 106.865 240.509 108.625C240.509 110.385 239.099 111.815 237.349 111.815C235.599 111.815 234.189 110.385 234.189 108.625Z" fill="#85C6FF"/>
<path d="M239.77 108.294C239.49 106.964 238.06 106.144 236.58 106.464C236.48 106.484 236.37 106.514 236.27 106.554C236.51 106.374 236.79 106.244 237.09 106.184C238.29 105.924 239.46 106.694 239.72 107.904C239.75 108.054 239.77 108.194 239.77 108.344C239.77 108.334 239.77 108.324 239.77 108.304V108.294Z" fill="#85C6FF"/>
<path opacity="0.1" fill-rule="evenodd" clip-rule="evenodd" d="M240.399 115.635C240.399 113.985 241.779 112.645 243.489 112.645C245.199 112.645 246.579 113.985 246.579 115.635C246.579 117.285 245.199 118.635 243.489 118.635C241.779 118.635 240.399 117.295 240.399 115.635Z" fill="#DFF0FB"/>
<path d="M240.399 115.634C240.399 117.284 241.779 118.634 243.489 118.634C245.199 118.634 246.579 117.294 246.579 115.634C246.579 113.974 245.199 112.644 243.489 112.644C241.779 112.644 240.399 113.984 240.399 115.634ZM240.329 115.634C240.329 113.874 241.739 112.444 243.489 112.444C245.239 112.444 246.649 113.874 246.649 115.634C246.649 117.394 245.239 118.824 243.489 118.824C241.739 118.824 240.329 117.394 240.329 115.634Z" fill="#85C6FF"/>
<path d="M245.909 115.304C245.629 113.974 244.199 113.154 242.719 113.474C242.619 113.494 242.509 113.524 242.409 113.564C242.649 113.384 242.929 113.254 243.229 113.194C244.429 112.934 245.599 113.704 245.859 114.914C245.889 115.064 245.909 115.204 245.909 115.354C245.909 115.344 245.909 115.334 245.909 115.314V115.304Z" fill="#85C6FF"/>
<path opacity="0.1" fill-rule="evenodd" clip-rule="evenodd" d="M247.879 123.244C247.879 121.594 249.259 120.254 250.969 120.254C252.679 120.254 254.059 121.594 254.059 123.244C254.059 124.894 252.679 126.244 250.969 126.244C249.259 126.244 247.879 124.904 247.879 123.244Z" fill="#DFF0FB"/>
<path d="M247.88 123.245C247.88 124.895 249.26 126.245 250.97 126.245C252.68 126.245 254.06 124.905 254.06 123.245C254.06 121.585 252.68 120.255 250.97 120.255C249.26 120.255 247.88 121.595 247.88 123.245ZM247.81 123.245C247.81 121.485 249.22 120.055 250.97 120.055C252.72 120.055 254.13 121.485 254.13 123.245C254.13 125.005 252.72 126.435 250.97 126.435C249.22 126.435 247.81 125.005 247.81 123.245Z" fill="#85C6FF"/>
<path d="M253.379 122.914C253.099 121.584 251.669 120.764 250.189 121.084C250.089 121.104 249.979 121.134 249.879 121.174C250.119 120.994 250.399 120.864 250.699 120.804C251.899 120.544 253.069 121.314 253.329 122.524C253.359 122.674 253.379 122.814 253.379 122.964C253.379 122.954 253.379 122.944 253.379 122.924V122.914Z" fill="#85C6FF"/>
<path opacity="0.1" fill-rule="evenodd" clip-rule="evenodd" d="M255.129 130.324C255.129 128.674 256.509 127.334 258.219 127.334C259.929 127.334 261.309 128.674 261.309 130.324C261.309 131.974 259.929 133.324 258.219 133.324C256.509 133.324 255.129 131.984 255.129 130.324Z" fill="#DFF0FB"/>
<path d="M255.13 130.325C255.13 131.975 256.51 133.325 258.22 133.325C259.93 133.325 261.31 131.985 261.31 130.325C261.31 128.665 259.93 127.335 258.22 127.335C256.51 127.335 255.13 128.675 255.13 130.325ZM255.06 130.325C255.06 128.565 256.47 127.135 258.22 127.135C259.97 127.135 261.38 128.565 261.38 130.325C261.38 132.085 259.97 133.515 258.22 133.515C256.47 133.515 255.06 132.085 255.06 130.325Z" fill="#85C6FF"/>
<path d="M260.629 129.994C260.349 128.664 258.919 127.844 257.439 128.164C257.339 128.184 257.229 128.214 257.129 128.254C257.369 128.074 257.649 127.944 257.949 127.884C259.149 127.624 260.319 128.394 260.579 129.604C260.609 129.754 260.629 129.894 260.629 130.044C260.629 130.034 260.629 130.024 260.629 130.004V129.994Z" fill="#85C6FF"/>
<path opacity="0.1" fill-rule="evenodd" clip-rule="evenodd" d="M111.159 115.234C111.159 109.854 115.659 105.484 121.219 105.484C126.779 105.484 131.279 109.854 131.279 115.234C131.279 120.614 126.769 124.984 121.219 124.984C115.669 124.984 111.159 120.614 111.159 115.234Z" fill="#DFF0FB"/>
<path d="M111.16 115.234C111.16 120.624 115.66 124.984 121.22 124.984C126.78 124.984 131.28 120.614 131.28 115.234C131.28 109.854 126.77 105.484 121.22 105.484C115.67 105.484 111.16 109.854 111.16 115.234ZM110.93 115.234C110.93 109.494 115.54 104.834 121.22 104.834C126.9 104.834 131.49 109.494 131.49 115.234C131.49 120.974 126.89 125.634 121.22 125.634C115.55 125.634 110.93 120.984 110.93 115.234Z" fill="#85C6FF"/>
<path d="M129.079 114.155C128.149 109.815 123.509 107.145 118.699 108.195C118.359 108.265 118.019 108.365 117.699 108.475C118.479 107.895 119.389 107.475 120.379 107.255C124.279 106.415 128.099 108.905 128.939 112.845C129.039 113.325 129.099 113.795 129.099 114.265C129.099 114.235 129.089 114.195 129.079 114.155Z" fill="#85C6FF"/>
<path opacity="0.1" fill-rule="evenodd" clip-rule="evenodd" d="M98.499 133.364C98.499 129.804 101.479 126.914 105.149 126.914C108.819 126.914 111.809 129.804 111.809 133.364C111.809 136.924 108.829 139.814 105.149 139.814C101.469 139.814 98.499 136.924 98.499 133.364Z" fill="#DFF0FB"/>
<path d="M98.4996 133.364C98.4996 136.924 101.48 139.814 105.15 139.814C108.82 139.814 111.81 136.924 111.81 133.364C111.81 129.804 108.83 126.914 105.15 126.914C101.47 126.914 98.4996 129.804 98.4996 133.364ZM98.3496 133.364C98.3496 129.564 101.4 126.484 105.16 126.484C108.92 126.484 111.96 129.564 111.96 133.364C111.96 137.164 108.92 140.244 105.16 140.244C101.4 140.244 98.3496 137.164 98.3496 133.364Z" fill="#85C6FF"/>
<path d="M110.359 132.654C109.749 129.784 106.669 128.014 103.489 128.714C103.269 128.764 103.039 128.824 102.829 128.904C103.339 128.524 103.949 128.244 104.599 128.104C107.179 127.544 109.709 129.194 110.259 131.804C110.329 132.124 110.369 132.434 110.369 132.744C110.369 132.724 110.369 132.694 110.359 132.664V132.654Z" fill="#85C6FF"/>
<path opacity="0.1" fill-rule="evenodd" clip-rule="evenodd" d="M96.4893 149.424C96.4893 147.064 98.4593 145.154 100.899 145.154C103.339 145.154 105.309 147.064 105.309 149.424C105.309 151.784 103.339 153.704 100.899 153.704C98.4593 153.704 96.4893 151.794 96.4893 149.424Z" fill="#DFF0FB"/>
<path d="M96.4896 149.424C96.4896 151.784 98.4597 153.704 100.9 153.704C103.34 153.704 105.31 151.794 105.31 149.424C105.31 147.054 103.34 145.154 100.9 145.154C98.4597 145.154 96.4896 147.064 96.4896 149.424ZM96.3896 149.424C96.3896 146.904 98.4097 144.864 100.9 144.864C103.39 144.864 105.4 146.904 105.4 149.424C105.4 151.944 103.38 153.984 100.9 153.984C98.4197 153.984 96.3896 151.944 96.3896 149.424Z" fill="#85C6FF"/>
<path d="M104.349 148.954C103.939 147.054 101.909 145.884 99.7994 146.344C99.6494 146.374 99.4994 146.414 99.3594 146.464C99.6994 146.214 100.099 146.024 100.539 145.934C102.249 145.564 103.929 146.654 104.289 148.384C104.339 148.594 104.359 148.804 104.359 149.004C104.359 148.984 104.359 148.974 104.359 148.954H104.349Z" fill="#85C6FF"/>
</g>
<g clip-path="url(#clip1_1773_6263)">
<path d="M347.714 222.79C347.955 222.674 348.14 222.504 348.249 222.28C348.466 221.801 348.288 221.214 347.838 220.719C348.017 220.604 348.164 220.457 348.249 220.271C348.466 219.792 348.288 219.205 347.838 218.71C348.017 218.594 348.164 218.448 348.249 218.254C348.582 217.536 348.009 216.57 346.963 216.037C347.126 215.318 346.529 214.437 345.515 213.966C345.445 213.935 345.367 213.912 345.298 213.881C345.406 213.788 345.499 213.68 345.553 213.556C345.902 212.815 345.274 211.795 344.159 211.285C343.725 211.084 343.284 210.991 342.881 210.991C338.505 203.055 330.805 197.785 322.037 197.785C313.269 197.785 305.515 203.086 301.154 211.06C300.937 211.107 300.721 211.176 300.504 211.277C299.388 211.795 298.769 212.807 299.109 213.549C299.171 213.68 299.264 213.78 299.373 213.873C299.303 213.904 299.226 213.927 299.156 213.958C298.141 214.43 297.545 215.31 297.707 216.029C296.662 216.555 296.089 217.528 296.422 218.247C296.507 218.432 296.654 218.587 296.832 218.703C296.383 219.197 296.197 219.792 296.422 220.264C296.507 220.449 296.654 220.604 296.832 220.719C296.383 221.222 296.205 221.809 296.422 222.28C296.53 222.504 296.724 222.674 296.956 222.79C295.965 223.331 295.422 224.266 295.748 224.969C295.91 225.309 296.251 225.526 296.677 225.619C296.344 226.074 296.228 226.577 296.422 226.986C296.584 227.342 296.948 227.566 297.398 227.651C298.064 242.642 308.846 254.557 322.037 254.557C335.228 254.557 345.995 242.657 346.676 227.682C347.397 227.736 348.009 227.496 348.249 226.994C348.443 226.584 348.319 226.082 347.993 225.626C348.419 225.541 348.76 225.325 348.923 224.977C349.248 224.282 348.706 223.339 347.714 222.798V222.79Z" fill="#FFD223"/>
<path d="M349.07 240.663C349.318 240.563 349.52 240.424 349.636 240.231C349.868 239.829 349.675 239.327 349.202 238.902C349.388 238.801 349.543 238.678 349.636 238.515C349.868 238.113 349.675 237.603 349.202 237.186C349.388 237.093 349.543 236.962 349.636 236.8C349.984 236.189 349.38 235.363 348.28 234.914C348.451 234.304 347.823 233.554 346.754 233.153C346.677 233.122 346.599 233.106 346.53 233.083C346.638 233.006 346.739 232.913 346.801 232.805C347.165 232.171 346.507 231.306 345.337 230.865C344.88 230.695 344.415 230.618 343.989 230.618C339.38 223.865 331.271 219.375 322.03 219.375C312.789 219.375 304.625 223.888 300.024 230.68C299.799 230.719 299.567 230.78 299.342 230.865C298.173 231.306 297.514 232.171 297.878 232.805C297.94 232.913 298.041 233.006 298.157 233.083C298.08 233.106 298.002 233.129 297.933 233.153C296.864 233.554 296.236 234.304 296.407 234.914C295.307 235.363 294.703 236.189 295.051 236.8C295.144 236.962 295.291 237.086 295.485 237.186C295.012 237.611 294.819 238.113 295.051 238.515C295.144 238.678 295.291 238.801 295.485 238.902C295.012 239.327 294.819 239.829 295.051 240.231C295.167 240.424 295.369 240.571 295.617 240.663C294.571 241.119 294.005 241.923 294.346 242.518C294.517 242.812 294.873 242.989 295.322 243.067C294.974 243.453 294.85 243.878 295.051 244.233C295.222 244.535 295.609 244.728 296.081 244.797C296.19 246.714 296.538 248.576 297.096 250.353C296.902 250.438 296.747 250.554 296.662 250.701C296.352 251.219 296.864 251.922 297.816 252.324C297.592 252.409 297.406 252.532 297.305 252.702C297.096 253.058 297.266 253.498 297.7 253.869C297.53 253.954 297.39 254.07 297.305 254.209C297.096 254.565 297.266 255.005 297.7 255.376C297.53 255.461 297.39 255.569 297.305 255.716C296.988 256.249 297.538 256.976 298.537 257.37C298.382 257.903 298.955 258.56 299.931 258.915C300.001 258.938 300.07 258.954 300.14 258.977C300.039 259.046 299.946 259.124 299.892 259.224C299.559 259.781 300.156 260.538 301.225 260.916C301.643 261.063 302.069 261.133 302.448 261.133C306.639 267.044 314.021 270.977 322.425 270.977C330.829 270.977 338.257 267.029 342.448 261.079C342.657 261.04 342.866 260.994 343.067 260.916C344.136 260.53 344.733 259.773 344.4 259.224C344.338 259.131 344.252 259.046 344.152 258.977C344.222 258.954 344.291 258.938 344.361 258.915C345.337 258.567 345.91 257.903 345.755 257.37C346.754 256.976 347.304 256.249 346.987 255.716C346.902 255.577 346.762 255.461 346.592 255.376C347.026 255.005 347.196 254.565 346.987 254.209C346.902 254.07 346.762 253.954 346.592 253.869C347.026 253.498 347.196 253.058 346.987 252.702C346.886 252.532 346.7 252.409 346.476 252.324C347.428 251.922 347.947 251.219 347.63 250.701C347.513 250.508 347.289 250.369 347.002 250.284C347.544 248.537 347.893 246.714 347.994 244.828C348.753 244.875 349.403 244.674 349.644 244.241C349.845 243.886 349.721 243.461 349.372 243.074C349.822 242.997 350.186 242.819 350.348 242.526C350.689 241.931 350.124 241.135 349.078 240.671L349.07 240.663Z" fill="#FFD223"/>
<path d="M317.847 221.022L324.888 220.944L321.363 223.533L317.847 221.022Z" fill="#FF5D00"/>
<path d="M316.887 267.778L316.616 270.892C316.616 270.892 315.431 271.789 315.655 272.453C315.872 273.11 315.787 274.014 315.787 274.014V276.711L317.507 276.649L317.259 273.79C317.259 273.79 318.676 272.909 318.01 271.812C317.352 270.715 317.615 269.393 317.615 269.393L318.521 267.856L316.887 267.771V267.778Z" fill="#F7931E"/>
<path d="M326.29 267.778L326.561 270.892C326.561 270.892 327.73 271.789 327.506 272.453C327.281 273.11 327.351 274.014 327.351 274.014V276.711L325.647 276.649L325.902 273.79C325.902 273.79 324.492 272.909 325.151 271.812C325.809 270.715 325.546 269.393 325.546 269.393L324.64 267.856L326.274 267.771L326.29 267.778Z" fill="#F7931E"/>
<path d="M323.54 193.806C324.152 195.769 324.005 198.404 322.905 198.752C321.805 199.092 320.179 197.005 319.567 195.042C318.955 193.08 319.59 191.99 320.682 191.65C321.782 191.31 322.921 191.843 323.532 193.806H323.54Z" fill="#FFD223"/>
<path d="M324.555 195.978C323.323 196.843 322.355 198.242 322.998 198.674C323.641 199.115 325.647 198.427 326.878 197.562C328.11 196.696 328.102 195.985 327.459 195.545C326.816 195.104 325.786 195.112 324.555 195.97V195.978Z" fill="#FFD223"/>
<path d="M325.709 192.121C324.671 193.211 324.005 194.772 324.725 195.073C325.446 195.374 327.274 194.3 328.304 193.211C329.334 192.121 329.187 191.426 328.467 191.124C327.754 190.823 326.739 191.032 325.709 192.121Z" fill="#FFD223"/>
<path d="M317.22 276.488C317.22 276.488 314.114 275.939 312.456 276.379C310.791 276.82 307.917 277.376 307.917 277.376C307.917 277.376 307.251 277.268 307.36 277.925C307.468 278.589 307.584 278.806 308.576 278.481C309.575 278.149 310.125 277.817 311.349 277.593C312.565 277.368 313.456 277.26 313.456 277.26C313.456 277.26 310.574 278.257 310.241 278.698C309.908 279.138 309.025 280.243 310.016 280.019C311.016 279.795 311.682 279.911 312.565 279.246C313.448 278.582 314.114 278.365 314.555 278.141C314.997 277.917 314.331 279.354 314.222 279.687C314.114 280.019 313.115 281.348 313.998 281.124C314.881 280.9 315.547 280.127 315.996 279.463C316.438 278.798 316.771 277.693 317.437 277.585C318.103 277.477 318.769 277.361 318.878 277.036C318.986 276.704 318.211 276.155 317.878 276.155C317.545 276.155 317.212 276.488 317.212 276.488H317.22Z" fill="#F7931E"/>
<path d="M325.624 276.488C325.624 276.488 328.722 275.939 330.388 276.379C332.053 276.82 334.927 277.376 334.927 277.376C334.927 277.376 335.593 277.268 335.484 277.925C335.376 278.589 335.26 278.806 334.268 278.481C333.269 278.149 332.719 277.817 331.495 277.593C330.279 277.368 329.389 277.26 329.389 277.26C329.389 277.26 332.27 278.257 332.603 278.698C332.936 279.138 333.819 280.243 332.828 280.019C331.828 279.795 331.162 279.911 330.279 279.246C329.396 278.582 328.73 278.365 328.289 278.141C327.847 277.917 328.505 279.354 328.622 279.687C328.73 280.019 329.729 281.348 328.846 281.124C327.956 280.9 327.297 280.127 326.856 279.463C326.414 278.798 326.081 277.693 325.415 277.585C324.749 277.477 324.09 277.361 323.974 277.036C323.866 276.704 324.64 276.155 324.973 276.155C325.306 276.155 325.64 276.488 325.64 276.488H325.624Z" fill="#F7931E"/>
<path d="M319.613 216.238C320.759 212.305 318.497 208.194 314.555 207.05C310.612 205.907 306.491 208.163 305.345 212.096C304.198 216.029 306.46 220.14 310.403 221.284C314.345 222.427 318.466 220.171 319.613 216.238Z" fill="white"/>
<path d="M338.072 216.238C339.218 212.305 336.956 208.194 333.014 207.05C329.071 205.907 324.95 208.163 323.804 212.096C322.657 216.029 324.919 220.14 328.862 221.284C332.804 222.427 336.925 220.171 338.072 216.238Z" fill="white"/>
<path d="M325.415 214.044C325.431 211.262 327.708 209.029 330.496 209.044C331.124 209.044 331.728 209.168 332.278 209.376C331.348 209.678 330.674 210.535 330.667 211.563C330.659 212.838 331.689 213.881 332.967 213.889C333.997 213.889 334.88 213.224 335.183 212.297C335.399 212.861 335.516 213.479 335.508 214.121C335.492 216.903 333.215 219.143 330.427 219.128C327.638 219.105 325.392 216.841 325.407 214.059L325.415 214.044Z" fill="#923BFF"/>
<path d="M307.181 214.044C307.196 211.262 309.473 209.029 312.262 209.044C312.889 209.044 313.494 209.168 314.043 209.376C313.114 209.678 312.44 210.535 312.432 211.563C312.425 212.838 313.455 213.881 314.733 213.889C315.763 213.889 316.646 213.224 316.948 212.297C317.165 212.861 317.281 213.479 317.273 214.121C317.258 216.903 314.981 219.143 312.192 219.128C309.404 219.105 307.157 216.841 307.173 214.059L307.181 214.044Z" fill="#923BFF"/>
<path d="M316.646 221.477C316.646 221.477 320.148 221.918 321.766 221.802C323.385 221.686 325.523 220.743 325.523 220.743C325.523 220.743 324.268 219.522 323.773 218.649C323.277 217.768 322.789 216.501 322.789 216.501C322.789 216.501 320.736 216.717 319.195 217.807C317.653 218.896 316.646 221.485 316.646 221.485V221.477Z" fill="#F7931E"/>
<path d="M302.882 228.432C301.318 227.381 299.466 227.095 297.762 227.481C296.112 227.164 276.407 224.197 274.595 224.514C272.736 224.831 271.829 227.095 276.035 228.486L280.241 229.877C280.241 229.877 275.865 230.541 277.096 231.932C278.32 233.323 281.752 234.559 282.573 234.629C283.394 234.698 279.8 235.517 281.241 236.901C282.681 238.284 284.835 238.67 286.732 238.701C288.134 238.724 291.697 237.627 293.487 237.04C293.975 237.913 294.656 238.686 295.547 239.281C298.552 241.305 302.634 240.517 304.656 237.519C306.685 234.521 305.895 230.448 302.89 228.432H302.882Z" fill="#FFD223"/>
<path d="M341.301 228.764C342.82 227.651 344.663 227.296 346.383 227.613C348.017 227.226 367.591 223.486 369.411 223.726C371.285 223.973 372.277 226.199 368.133 227.752L363.981 229.313C363.981 229.313 368.381 229.807 367.203 231.244C366.034 232.682 362.657 234.057 361.843 234.15C361.022 234.25 364.655 234.923 363.268 236.368C361.882 237.805 359.752 238.276 357.854 238.384C356.46 238.462 352.85 237.503 351.038 236.993C350.589 237.882 349.93 238.686 349.07 239.319C346.15 241.46 342.037 240.834 339.892 237.921C337.746 235.008 338.373 230.904 341.294 228.764H341.301Z" fill="#FFD223"/>
<g style="mix-blend-mode:multiply" opacity="0.49">
<path d="M297.514 211.965L299.668 210.025L300.62 212.39L302.534 210.234L303.967 212.614L305.4 210.466L307.313 213.085C307.313 213.085 311.139 209.276 311.852 209.276C312.564 209.276 313.525 213.564 313.525 213.564L315.67 209.987L317.103 213.564L319.729 210.466L324.028 213.325L326.182 214.515L328.575 209.268L331.441 213.557L334.307 214.275L334.787 210.226L338.614 215.234L341.72 210.705L344.586 214.275L347.452 211.177L349.125 214.515L349.52 214.113C344.299 200.459 334.144 190.213 322.487 190.213C311.666 190.213 302.162 199.03 296.678 211.223L297.522 211.973L297.514 211.965Z" fill="#C7B299"/>
<path d="M348.637 228.378L346.724 230.758L343.618 227.898L341.704 230.286L340.271 227.427L335.492 230.526L334.299 227.427L330.721 230.047L329.528 227.427L326.894 230.047L324.981 227.667L322.836 230.047L320.682 226.469L319.009 230.758L315.191 228.138L313.037 229.807L310.884 226.469C310.884 226.469 308.971 230.047 308.971 230.758C308.971 231.468 306.585 227.419 306.585 227.419L303.479 229.568L298.94 226.948L296.554 229.088L296.779 225.75L294.378 229.799V225.511L292.976 227.172C292.464 230.232 291.953 233.362 291.953 236.499C291.953 258.892 305.609 273.473 322.596 273.473C339.582 273.473 353.3 258.892 353.3 236.499C353.3 234.667 353.168 232.844 352.998 231.043L348.637 228.37V228.378Z" fill="#C7B299"/>
</g>
<path d="M297.514 211.254L299.668 209.322L300.62 211.687L302.534 209.531L303.967 211.911L305.4 209.763L307.313 212.382C307.313 212.382 311.139 208.573 311.852 208.573C312.564 208.573 313.525 212.861 313.525 212.861L315.67 209.284L317.103 212.861L319.729 209.763L324.028 212.622L326.182 213.812L328.575 208.573L331.441 212.861L334.307 213.572L334.787 209.523L338.614 214.53L341.72 210.002L344.586 213.58L347.452 210.481L349.125 213.819L349.52 213.425C344.299 199.748 334.144 189.502 322.487 189.502C311.666 189.502 302.162 198.319 296.678 210.512L297.522 211.262L297.514 211.254Z" fill="#E9E0D6"/>
<path d="M348.637 229.096L346.724 231.484L343.618 228.625L341.704 231.005L340.271 228.146L335.492 231.245L334.299 228.146L330.721 230.765L329.528 228.146L326.894 230.765L324.981 228.385L322.836 230.765L320.682 227.195L319.009 231.484L315.191 228.865L313.037 230.534L310.884 227.195C310.884 227.195 308.971 230.765 308.971 231.484C308.971 232.203 306.585 228.146 306.585 228.146L303.479 230.294L298.94 227.675L296.554 229.815L296.779 226.477L294.378 230.526V226.237L292.976 227.899C292.464 230.959 291.953 234.088 291.953 237.225C291.953 259.619 305.609 274.2 322.596 274.2C339.582 274.2 353.3 259.619 353.3 237.225C353.3 235.402 353.168 233.578 352.998 231.77L348.637 229.096Z" fill="#E9E0D6"/>
<path opacity="0.41" d="M340.039 212.003L341.712 209.569L344.578 213.147L346.63 210.937C342.107 200.544 334.562 192.678 325.802 191.07C331.89 195.792 336.886 203.279 340.046 212.011L340.039 212.003Z" fill="#FAF2F5"/>
<path opacity="0.41" d="M350.743 230.395L348.636 229.096L346.723 231.484L343.617 228.625L343.199 229.143C343.539 231.747 343.733 234.389 343.733 237.048C343.733 252.34 337.846 264.224 328.954 270.839C341.642 267.601 351.107 254.843 351.107 236.607C351.107 234.529 350.975 232.45 350.735 230.402L350.743 230.395Z" fill="#FAF2F5"/>
<path opacity="0.34" d="M315.74 190.252C308.722 193.095 302.634 199.122 298.297 206.811C297.723 207.87 297.173 208.951 296.67 210.072L297.514 210.821L299.668 208.89L300.62 211.254L302.534 209.098L303.966 211.478L305.082 209.801C308.722 201.224 314.168 193.899 320.728 189.154C319.024 189.309 317.359 189.687 315.74 190.252Z" fill="#C7B299"/>
<path opacity="0.34" d="M316.655 273.605C306.717 266.473 300.164 253.955 300.164 237.921C300.164 234.845 300.412 231.785 300.869 228.78L298.955 227.675L296.57 229.815L296.794 226.477L294.393 230.526V226.237L292.991 227.899C292.48 230.959 291.969 234.088 291.969 237.225C291.969 256.992 302.464 270.661 316.662 273.605H316.655Z" fill="#C7B299"/>
<g opacity="0.53">
<path d="M312.959 202.723C312.765 203.249 312.858 203.767 313.16 203.875C313.462 203.991 313.873 203.651 314.066 203.125C314.26 202.6 314.167 202.082 313.865 201.974C313.563 201.858 313.152 202.198 312.959 202.723Z" fill="#C7B299"/>
<path d="M314.16 205.312C313.966 205.838 314.051 206.355 314.361 206.464C314.663 206.572 315.066 206.24 315.26 205.714C315.453 205.189 315.36 204.671 315.058 204.563C314.756 204.447 314.346 204.787 314.152 205.312H314.16Z" fill="#C7B299"/>
<path d="M310.953 205.219C310.759 205.745 310.852 206.262 311.154 206.371C311.456 206.479 311.867 206.146 312.061 205.621C312.254 205.096 312.161 204.578 311.859 204.47C311.557 204.361 311.147 204.694 310.953 205.219Z" fill="#C7B299"/>
<path d="M336.243 235.047C336.049 235.572 336.142 236.09 336.444 236.198C336.746 236.314 337.157 235.974 337.351 235.448C337.544 234.923 337.451 234.405 337.149 234.297C336.847 234.181 336.437 234.521 336.243 235.047Z" fill="#C7B299"/>
<path d="M337.443 237.642C337.249 238.168 337.335 238.686 337.644 238.794C337.947 238.902 338.349 238.57 338.543 238.044C338.737 237.519 338.644 237.001 338.342 236.893C338.04 236.777 337.629 237.117 337.435 237.642H337.443Z" fill="#C7B299"/>
<path d="M334.245 237.542C334.051 238.068 334.144 238.586 334.446 238.694C334.748 238.802 335.159 238.47 335.353 237.944C335.546 237.419 335.453 236.901 335.151 236.793C334.849 236.685 334.439 237.017 334.253 237.542H334.245Z" fill="#C7B299"/>
<path d="M335.228 241.104C335.035 241.63 335.128 242.147 335.43 242.256C335.732 242.372 336.142 242.032 336.336 241.506C336.53 240.981 336.437 240.463 336.135 240.355C335.832 240.239 335.422 240.579 335.228 241.104Z" fill="#C7B299"/>
<path d="M336.436 243.701C336.243 244.226 336.328 244.744 336.638 244.852C336.94 244.96 337.343 244.628 337.536 244.103C337.73 243.577 337.637 243.06 337.335 242.951C337.033 242.835 336.622 243.175 336.436 243.701Z" fill="#C7B299"/>
<path d="M333.23 243.6C333.037 244.125 333.13 244.643 333.432 244.751C333.734 244.86 334.144 244.527 334.33 244.002C334.524 243.476 334.431 242.959 334.129 242.85C333.827 242.742 333.416 243.075 333.223 243.6H333.23Z" fill="#C7B299"/>
</g>
</g>
<path d="M20.749 70.2242C20.749 79.7042 28.289 87.3742 37.599 87.3742C46.909 87.3742 54.439 79.6942 54.439 70.2242C54.439 60.7542 46.889 53.0742 37.599 53.0742C28.309 53.0742 20.749 60.7542 20.749 70.2242Z" fill="#D900FF"/>
<path d="M49.709 72.194C49.809 72.074 49.919 71.984 50.029 71.874C50.249 73.194 50.889 74.444 51.979 75.354C54.299 77.304 57.709 76.994 59.799 74.764C60.069 76.404 59.689 78.174 58.559 79.574C56.509 82.124 52.869 82.524 50.429 80.484C47.989 78.444 47.669 74.734 49.719 72.184L49.709 72.194Z" fill="#AC3BFF"/>
<path d="M23.3191 67.6045C23.3191 67.6045 21.4791 75.4345 21.6091 75.6145C21.7391 75.7945 21.8291 76.2445 22.7491 76.0145C23.6591 75.7945 33.4991 73.3045 35.5091 72.6345C36.5291 72.2945 38.6091 71.3445 38.1291 71.0345C37.6491 70.7245 36.2991 70.5445 36.2991 70.5445C36.2991 70.5445 30.0891 69.1645 27.9491 68.5445C25.8091 67.9245 23.3191 67.6145 23.3191 67.6145V67.6045Z" fill="#FFC13E"/>
<path d="M19.9692 61.7439C21.2692 64.6639 24.7592 65.8939 27.7592 64.5139C30.7692 63.1239 32.1492 59.6239 30.8492 56.7139C29.5492 53.8039 26.0592 52.5639 23.0592 53.9539C20.0492 55.3439 18.6792 58.8339 19.9692 61.7439Z" fill="white"/>
<path d="M27.2792 62.0443C29.0192 62.2643 30.6092 61.0143 30.8292 59.2443C30.8792 58.8543 30.8592 58.4543 30.7592 58.0843C30.4992 58.6443 29.9092 59.0043 29.2692 58.9143C28.4692 58.8043 27.8992 58.0743 28.0092 57.2643C28.0892 56.6043 28.5792 56.1143 29.1892 56.0043C28.8492 55.8143 28.4792 55.6943 28.0792 55.6343C26.3392 55.4143 24.7492 56.6743 24.5292 58.4443C24.3092 60.2143 25.5492 61.8343 27.2792 62.0543V62.0443Z" fill="#6BD800"/>
<path d="M35.6096 71.0644L22.8096 74.6144L23.6796 68.7744L35.6096 71.0644Z" fill="#FC810F"/>
<path d="M37.9495 71.3443C37.9495 71.3443 33.9295 70.4143 31.3895 68.0543C30.2895 67.0243 30.2095 63.6443 30.4695 63.2943L15.8295 63.1643C15.8295 63.1643 14.3895 62.8443 14.2195 63.5143C14.0395 64.1843 15.1495 64.6643 16.2695 65.6443C18.1395 67.2943 21.8395 69.0043 25.9695 70.7643C33.8295 74.1043 37.9395 71.3443 37.9395 71.3443H37.9495Z" fill="#F69C00"/>
<path d="M37.9094 71.1148C37.9094 71.1148 33.8895 70.1848 31.3495 67.8248C30.2595 66.8048 30.1695 63.4148 30.4395 63.0648L15.7994 62.9348C15.7994 62.9348 14.3495 62.6148 14.1795 63.2848C13.9995 63.9548 15.1094 64.4348 16.2294 65.4248C18.0994 67.0748 21.7995 68.7848 25.9295 70.5448C33.7995 73.8848 37.8995 71.1248 37.8995 71.1248L37.9094 71.1148Z" fill="#FFC13E"/>
<path d="M30.749 67.2742C32.049 70.1942 35.539 71.4342 38.539 70.0442C41.539 68.6542 42.929 65.1642 41.629 62.2442C40.329 59.3342 36.839 58.0942 33.829 59.4842C30.829 60.8742 29.449 64.3642 30.749 67.2742Z" fill="white"/>
<path d="M35.5893 63.0044C36.3293 61.3844 38.2193 60.6944 39.8093 61.4544C40.1593 61.6244 40.4793 61.8544 40.7293 62.1244C40.1293 62.0544 39.5093 62.3744 39.2393 62.9644C38.8993 63.7044 39.1993 64.5944 39.9393 64.9344C40.5293 65.2144 41.2093 65.0544 41.6193 64.5944C41.5993 64.9744 41.4993 65.3744 41.3293 65.7344C40.5793 67.3544 38.6893 68.0444 37.1093 67.2844C35.5193 66.5244 34.8393 64.5944 35.5893 62.9844V63.0044Z" fill="#6BD800"/>
<path fill-rule="evenodd" clip-rule="evenodd" d="M49.5596 57.3545C49.5596 57.3545 57.2796 55.0845 56.3596 58.0745C56.1096 58.8745 55.6096 59.2745 54.8196 59.0345C53.9596 58.7745 53.5496 57.8245 52.6396 57.5745C51.6496 57.2945 50.5796 57.3145 49.5696 57.3545H49.5596Z" fill="#E110FF"/>
<path fill-rule="evenodd" clip-rule="evenodd" d="M47.2688 56.8844C47.2688 56.8844 53.1388 46.0444 55.2888 50.2544C55.7388 51.1444 55.8488 52.1844 54.9388 52.8044C53.8988 53.4944 52.7388 52.9944 51.6588 53.3544C50.7688 53.6644 50.0288 54.2344 49.3088 54.8344C48.5688 55.4444 47.8988 56.1644 47.2588 56.8844H47.2688Z" fill="#E110FF"/>
<path d="M27.8193 64.9341L19.7793 64.4941C19.7793 64.4941 20.4693 64.8941 20.9993 65.0241C21.5193 65.1541 27.8193 64.9341 27.8193 64.9341Z" fill="#F69C00"/>
<path d="M102.159 22.0139C102.249 21.9039 102.349 21.8139 102.449 21.7139C102.669 22.9339 103.269 24.0739 104.279 24.8939C106.439 26.6639 109.569 26.3439 111.469 24.2639C111.739 25.7739 111.409 27.3939 110.379 28.7039C108.519 31.0739 105.179 31.4839 102.909 29.6339C100.649 27.7839 100.309 24.3739 102.169 22.0139H102.159Z" fill="#FF4B00"/>
<path d="M104.899 24.5339C104.899 33.2539 97.9594 40.3139 89.3994 40.3139C80.8394 40.3139 73.8994 33.2439 73.8994 24.5339C73.8994 15.8239 80.8394 8.75391 89.3994 8.75391C97.9594 8.75391 104.899 15.8239 104.899 24.5339Z" fill="#FF9A00"/>
<path d="M77.4393 21.5141C77.3693 21.3841 77.2893 21.2841 77.2193 21.1641C76.7593 22.3041 75.9393 23.3041 74.7893 23.9041C72.3193 25.1841 69.3193 24.2241 67.8793 21.8041C67.3193 23.2241 67.3193 24.8841 68.0593 26.3841C69.4093 29.0841 72.5993 30.1841 75.1893 28.8341C77.7693 27.4941 78.7793 24.2241 77.4393 21.5241V21.5141Z" fill="#FF4B00"/>
<path d="M96.3488 23.4144C96.3488 23.4144 94.3588 30.5444 94.1788 30.6244C93.9988 30.7144 93.7288 31.0244 93.0888 30.4244C92.4488 29.8244 85.6588 23.3244 84.3388 21.8644C83.6688 21.1244 82.4188 19.4044 82.9388 19.3744C83.4588 19.3444 84.6288 19.8244 84.6288 19.8244C84.6288 19.8244 90.2188 21.5644 92.2188 22.0444C94.2088 22.5244 96.3488 23.4144 96.3488 23.4144Z" fill="#FFC13E"/>
<path d="M101.629 20.244C99.2988 21.994 95.9488 21.384 94.1488 18.894C92.3488 16.404 92.7788 12.964 95.1188 11.214C97.4488 9.474 100.799 10.074 102.589 12.574C104.389 15.064 103.949 18.494 101.619 20.244H101.629Z" fill="white"/>
<path d="M95.7593 17.1942C97.2893 17.7342 98.9493 16.9142 99.4793 15.3642C99.5993 15.0142 99.6494 14.6542 99.6394 14.3142C99.2994 14.7642 98.6994 14.9742 98.1394 14.7742C97.4394 14.5242 97.0693 13.7542 97.3093 13.0342C97.5093 12.4542 98.0394 12.1042 98.6094 12.1242C98.3394 11.8942 98.0293 11.7042 97.6793 11.5742C96.1493 11.0342 94.4893 11.8642 93.9593 13.4142C93.4293 14.9642 94.2393 16.6642 95.7593 17.1942Z" fill="#00A7E1"/>
<path d="M84.959 20.5547L93.659 29.2747L95.539 24.1847L84.959 20.5547Z" fill="#FC810F"/>
<path d="M82.959 19.7041C82.959 19.7041 86.599 20.7941 89.679 20.0641C91.019 19.7441 92.579 17.0641 92.519 16.6641L104.329 23.2641C104.329 23.2641 105.629 23.6641 105.469 24.2841C105.319 24.9041 104.209 24.7741 102.879 25.0541C100.649 25.5241 96.919 25.2041 92.829 24.7241C85.039 23.8041 82.969 19.7041 82.969 19.7041H82.959Z" fill="#F69C00"/>
<path d="M83.0889 19.5439C83.0889 19.5439 86.7289 20.6339 89.8089 19.9039C91.1389 19.5839 92.7089 16.9139 92.6489 16.5039L104.449 23.1039C104.449 23.1039 105.749 23.5139 105.599 24.1239C105.449 24.7439 104.339 24.6139 103.009 24.8939C100.779 25.3639 97.0489 25.0439 92.9589 24.5539C85.1689 23.6339 83.0889 19.5339 83.0889 19.5339V19.5439Z" fill="#FFC13E"/>
<path d="M90.5292 19.744C88.1992 21.494 84.8492 20.884 83.0492 18.394C81.2492 15.904 81.6792 12.464 84.0192 10.714C86.3492 8.974 89.6992 9.574 91.4992 12.074C93.2992 14.564 92.8592 17.994 90.5292 19.744Z" fill="white"/>
<path d="M84.6693 16.6839C86.1993 17.2239 87.8593 16.4039 88.3893 14.8539C88.5093 14.5139 88.5593 14.1439 88.5493 13.8039C88.2093 14.2539 87.6093 14.4639 87.0493 14.2639C86.3493 14.0139 85.9793 13.2439 86.2193 12.5339C86.4193 11.9639 86.9493 11.6039 87.5193 11.6239C87.2593 11.3939 86.9393 11.2139 86.5993 11.0839C85.0693 10.5439 83.4093 11.3739 82.8793 12.9239C82.3493 14.4739 83.1593 16.1739 84.6793 16.7039L84.6693 16.6839Z" fill="#00A7E1"/>
<path fill-rule="evenodd" clip-rule="evenodd" d="M86.8891 8.62437C86.8891 8.62437 80.9191 4.18437 80.7891 7.06437C80.7591 7.83437 81.0592 8.34437 81.8292 8.39437C82.6592 8.44437 83.2991 7.76437 84.1691 7.83437C85.1091 7.91437 86.0291 8.27437 86.8891 8.63437V8.62437Z" fill="#FF9A00"/>
<path fill-rule="evenodd" clip-rule="evenodd" d="M89.0091 8.95431C89.0091 8.95431 87.2991 -2.29569 84.1291 0.644311C83.4591 1.27431 83.0391 2.13431 83.6391 2.95431C84.3191 3.88431 85.4891 3.82431 86.2991 4.48431C86.9791 5.03431 87.4391 5.77431 87.8691 6.52431C88.3191 7.29431 88.6691 8.12431 88.9991 8.95431H89.0091Z" fill="#FF9A00"/>
<path d="M93.9189 19.2041L100.569 22.5341C100.569 22.5341 99.8289 22.5341 99.3589 22.4041C98.8789 22.2741 93.9289 19.2041 93.9289 19.2041H93.9189Z" fill="#F69C00"/>
<g clip-path="url(#clip2_1773_6263)">
<path fill-rule="evenodd" clip-rule="evenodd" d="M294.409 36.7343C294.409 20.5243 304.519 12.1543 316.989 12.1543C329.459 12.1543 339.569 20.7543 339.569 36.7343C339.569 48.6943 326.339 68.6543 316.989 68.6543C308.199 68.6543 294.409 48.6943 294.409 36.7343Z" fill="#99CF16"/>
<path d="M318.299 69.024C318.299 69.664 317.699 70.174 316.949 70.174C316.199 70.174 315.609 69.654 315.609 69.024C315.609 68.394 316.209 67.874 316.949 67.874C317.689 67.874 318.299 68.394 318.299 69.024Z" fill="#D9E021"/>
<path d="M319.579 70.7145C319.579 71.0845 318.399 70.9545 316.949 70.9545C315.499 70.9545 314.319 71.0845 314.319 70.7145C314.319 69.6845 315.499 69.6045 316.949 69.6045C318.399 69.6045 319.579 69.8745 319.579 70.7145Z" fill="#D9E021"/>
<path fill-rule="evenodd" clip-rule="evenodd" d="M295.72 36.9647C295.72 21.6947 305.25 13.8047 317 13.8047C328.75 13.8047 338.27 21.9047 338.27 36.9647C338.27 48.2347 325.8 67.0447 317 67.0447C308.72 67.0447 295.72 48.2347 295.72 36.9647Z" fill="#D9E021"/>
<path d="M319.16 70.474C319.16 70.594 318.16 70.554 316.92 70.554C315.68 70.554 314.68 70.594 314.68 70.474C314.68 70.144 315.68 70.124 316.92 70.124C318.16 70.124 319.16 70.214 319.16 70.474Z" fill="#5BC63F"/>
<path d="M318.159 68.9048C318.159 69.1848 317.729 69.4148 317.199 69.4148C316.669 69.4148 316.239 69.1848 316.239 68.9048C316.239 68.6248 316.669 68.3848 317.199 68.3848C317.729 68.3848 318.159 68.6148 318.159 68.9048Z" fill="#5BC63F"/>
<path d="M333.069 36.4641C329.819 41.9941 321.409 43.0841 314.299 38.8941C307.189 34.7041 304.049 26.8341 307.309 21.3041C310.559 15.7741 318.969 14.6841 326.079 18.8741C333.199 23.0641 336.329 30.9341 333.069 36.4641Z" fill="#D9ED21"/>
<path d="M334.429 31.5243C332.379 22.0043 322.069 16.1543 311.409 18.4543C310.639 18.6143 309.899 18.8243 309.169 19.0643C310.899 17.8143 312.909 16.8943 315.129 16.4143C323.749 14.5543 332.249 20.0343 334.109 28.6643C334.339 29.7143 334.449 30.7543 334.469 31.7943C334.449 31.7043 334.439 31.6143 334.419 31.5243H334.429Z" fill="#FCEE21"/>
<path d="M318.129 68.5345C318.129 68.9745 318.059 68.7045 318.509 68.5445C318.749 68.4645 318.499 68.5145 318.329 68.4845C317.879 68.3945 317.449 68.2245 316.999 68.1045C316.019 67.8545 314.839 67.9645 314.369 68.9945C313.909 70.0045 315.809 70.0645 316.179 69.2545C316.139 69.3445 315.909 69.4445 315.799 69.4345C315.999 69.4445 316.199 69.4945 316.399 69.5545C316.869 69.6845 317.329 69.8445 317.809 69.9445C318.869 70.1545 320.059 69.6045 320.039 68.4145C320.019 67.3845 318.109 67.6345 318.129 68.5345Z" fill="#28D9FF"/>
<path d="M318.309 69.834C320.859 72.294 317.619 75.614 316.519 78.104C313.459 85.004 316.659 89.974 320.569 95.434C323.069 98.934 325.439 103.164 324.359 107.574C323.369 111.624 319.009 114.384 315.219 115.184C314.479 115.344 314.589 114.784 315.729 114.544C320.949 113.444 325.119 109.144 324.149 103.584C323.369 99.064 319.709 95.474 317.229 91.844C315.209 88.874 314.859 84.604 315.169 81.114C315.379 78.774 320.039 72.504 318.369 70.884C317.529 70.074 317.759 69.314 318.309 69.844V69.834Z" fill="#28D9FF"/>
<path d="M290.049 113.485C292.279 115.635 289.449 118.535 288.489 120.715C285.819 126.745 288.619 131.085 292.029 135.865C294.209 138.925 296.289 142.625 295.339 146.475C294.479 150.015 290.659 152.425 287.349 153.125C286.699 153.265 286.799 152.775 287.789 152.565C292.349 151.605 295.999 147.845 295.149 142.985C294.469 139.035 291.269 135.895 289.099 132.725C287.329 130.135 287.029 126.405 287.299 123.345C287.479 121.305 291.559 115.815 290.089 114.405C289.349 113.695 289.559 113.025 290.039 113.495L290.049 113.485Z" fill="#28D9FF"/>
<path fill-rule="evenodd" clip-rule="evenodd" d="M269.029 84.3841C269.029 70.0641 277.959 62.6641 288.979 62.6641C299.999 62.6641 308.929 70.2641 308.929 84.3841C308.929 94.9541 297.239 112.594 288.979 112.594C281.209 112.594 269.029 94.9541 269.029 84.3841Z" fill="#ED1E79"/>
<path d="M290.169 112.905C290.169 113.465 289.639 113.925 288.979 113.925C288.319 113.925 287.789 113.465 287.789 112.905C287.789 112.345 288.319 111.885 288.979 111.885C289.639 111.885 290.169 112.345 290.169 112.905Z" fill="#ED00BD"/>
<path d="M291.269 114.415C291.269 114.745 290.229 114.625 288.949 114.625C287.669 114.625 286.629 114.735 286.629 114.415C286.629 113.495 287.669 113.435 288.949 113.435C290.229 113.435 291.269 113.675 291.269 114.415Z" fill="#ED00BD"/>
<path fill-rule="evenodd" clip-rule="evenodd" d="M270.159 84.5847C270.159 71.0647 278.589 64.0947 288.979 64.0947C299.369 64.0947 307.799 71.2647 307.799 84.5847C307.799 94.5547 296.769 111.195 288.979 111.195C281.649 111.195 270.159 94.5547 270.159 84.5847Z" fill="#ED00BD"/>
<path d="M290.89 114.195C290.89 114.295 290 114.265 288.91 114.265C287.82 114.265 286.93 114.305 286.93 114.195C286.93 113.905 287.82 113.885 288.91 113.885C290 113.885 290.89 113.965 290.89 114.195Z" fill="#ED1E79"/>
<path d="M290.019 112.805C290.019 113.055 289.639 113.265 289.169 113.265C288.699 113.265 288.319 113.065 288.319 112.805C288.319 112.545 288.699 112.345 289.169 112.345C289.639 112.345 290.019 112.555 290.019 112.805Z" fill="#ED1E79"/>
<path d="M303.119 84.244C300.239 89.144 292.779 90.114 286.479 86.394C280.169 82.684 277.399 75.704 280.279 70.804C283.159 65.904 290.609 64.944 296.919 68.654C303.229 72.364 305.999 79.344 303.119 84.244Z" fill="#ED00ED"/>
<path d="M304.389 79.7845C302.579 71.3745 293.469 66.2045 284.049 68.2345C283.369 68.3745 282.719 68.5645 282.069 68.7745C283.599 67.6745 285.379 66.8545 287.339 66.4345C294.959 64.7945 302.469 69.6345 304.109 77.2545C304.309 78.1845 304.409 79.1045 304.419 80.0145C304.409 79.9345 304.389 79.8545 304.379 79.7845H304.389Z" fill="#FF51CD"/>
<path d="M289.799 113.115C289.799 113.505 289.739 113.265 290.139 113.125C290.349 113.055 290.129 113.095 289.979 113.075C289.579 112.995 289.199 112.845 288.799 112.745C287.929 112.525 286.869 112.655 286.529 113.165C285.979 113.985 287.809 113.895 288.139 113.185C288.099 113.265 287.899 113.355 287.799 113.345C287.979 113.355 288.159 113.405 288.329 113.455C288.749 113.575 289.159 113.715 289.579 113.795C290.519 113.985 291.179 113.895 291.009 112.845C290.919 112.285 290.199 112.715 290.089 112.795C289.979 112.875 289.799 113.125 289.799 113.125V113.115Z" fill="#28D9FF"/>
<path d="M349.629 92.8341C351.939 95.0541 349.009 98.0541 348.009 100.314C345.249 106.554 348.139 111.044 351.669 115.984C353.929 119.144 356.069 122.974 355.099 126.954C354.209 130.614 350.259 133.104 346.829 133.834C346.159 133.974 346.259 133.474 347.289 133.254C352.009 132.254 355.779 128.374 354.909 123.344C354.199 119.264 350.899 116.014 348.659 112.724C346.829 110.044 346.519 106.184 346.799 103.024C346.989 100.914 351.209 95.2341 349.689 93.7841C348.929 93.0441 349.139 92.3641 349.639 92.8441L349.629 92.8341Z" fill="#28D9FF"/>
<path fill-rule="evenodd" clip-rule="evenodd" d="M327.619 64.9239C327.619 50.4939 336.619 43.0439 347.719 43.0439C358.819 43.0439 367.819 50.7039 367.819 64.9239C367.819 75.5739 356.039 93.3439 347.719 93.3439C339.899 93.3439 327.619 75.5739 327.619 64.9239Z" fill="#F7931E"/>
<path d="M348.879 93.6648C348.879 94.2348 348.339 94.6948 347.679 94.6948C347.019 94.6948 346.479 94.2348 346.479 93.6648C346.479 93.0948 347.019 92.6348 347.679 92.6348C348.339 92.6348 348.879 93.0948 348.879 93.6648Z" fill="#FFAE00"/>
<path d="M350.019 95.1646C350.019 95.4946 348.969 95.3846 347.679 95.3846C346.389 95.3846 345.339 95.4946 345.339 95.1646C345.339 94.2446 346.389 94.1846 347.679 94.1846C348.969 94.1846 350.019 94.4346 350.019 95.1646Z" fill="#FFAE00"/>
<path fill-rule="evenodd" clip-rule="evenodd" d="M328.52 65.2646C328.52 51.3646 337.11 44.1846 347.71 44.1846C358.31 44.1846 366.9 51.5546 366.9 65.2646C366.9 75.5146 355.65 92.6346 347.71 92.6346C340.24 92.6346 328.52 75.5146 328.52 65.2646Z" fill="#FFAE00"/>
<path d="M349.639 94.9545C349.639 95.0545 348.749 95.0245 347.649 95.0245C346.549 95.0245 345.649 95.0645 345.649 94.9545C345.649 94.6645 346.539 94.6445 347.649 94.6445C348.759 94.6445 349.639 94.7245 349.639 94.9545Z" fill="#F7931E"/>
<path d="M348.76 93.5547C348.76 93.8047 348.38 94.0147 347.91 94.0147C347.44 94.0147 347.06 93.8147 347.06 93.5547C347.06 93.2947 347.44 93.0947 347.91 93.0947C348.38 93.0947 348.76 93.3047 348.76 93.5547Z" fill="#F7931E"/>
<path d="M362.109 65.2146C359.169 70.2146 351.569 71.1946 345.139 67.4146C338.709 63.6346 335.879 56.5146 338.819 51.5146C341.759 46.5146 349.359 45.5346 355.789 49.3146C362.219 53.1046 365.049 60.2146 362.119 65.2146H362.109Z" fill="#FBC00D"/>
<path d="M363.24 60.2846C361.41 51.8146 352.24 46.6046 342.75 48.6446C342.07 48.7946 341.41 48.9746 340.76 49.1846C342.3 48.0746 344.09 47.2546 346.07 46.8246C353.75 45.1646 361.31 50.0546 362.97 57.7246C363.17 58.6546 363.27 59.5846 363.29 60.5046C363.27 60.4246 363.26 60.3446 363.25 60.2646L363.24 60.2846Z" fill="#FFD70D"/>
<path d="M348.909 93.1245C348.909 93.5245 348.849 93.2745 349.249 93.1345C349.469 93.0545 349.239 93.1045 349.089 93.0745C348.679 92.9945 348.289 92.8345 347.889 92.7345C347.009 92.5145 345.939 92.6145 345.509 93.5445C345.089 94.4545 346.809 94.5045 347.149 93.7745C347.109 93.8545 346.909 93.9445 346.809 93.9345C346.989 93.9445 347.169 93.9945 347.349 94.0445C347.779 94.1645 348.189 94.3045 348.629 94.3945C349.589 94.5845 350.659 94.0945 350.649 93.0045C350.629 92.0745 348.909 92.2945 348.919 93.1145L348.909 93.1245Z" fill="#28D9FF"/>
</g>
<defs>
<clipPath id="clip0_1773_6263">
<rect width="278.51" height="194.01" fill="white" transform="translate(0.0292969 85.1543)"/>
</clipPath>
<clipPath id="clip1_1773_6263">
<rect width="98" height="92" fill="white" transform="translate(273.029 189.154)"/>
</clipPath>
<clipPath id="clip2_1773_6263">
<rect width="98.79" height="140.98" fill="white" transform="translate(269.029 12.1543)"/>
</clipPath>
</defs>
</svg>
