<svg width="52" height="41" viewBox="0 0 52 41" fill="none" xmlns="http://www.w3.org/2000/svg">
<g clip-path="url(#clip0_7_1998)">
<path d="M1.20012 19.09C1.30012 18.96 1.41012 18.85 1.52012 18.73C1.86012 20.12 2.64012 21.39 3.88012 22.28C6.53012 24.17 10.1801 23.6 12.2801 21.08C12.6901 22.8 12.4101 24.7 11.2801 26.27C9.25012 29.13 5.35012 29.82 2.57012 27.83C-0.209875 25.85 -0.819875 21.93 1.21012 19.08L1.20012 19.09Z" fill="#A93BFF"/>
<path d="M9.77002 22.25C9.77002 32.32 17.93 40.48 28 40.48C38.07 40.48 46.23 32.32 46.23 22.25C46.23 12.18 38.07 4.02002 28 4.02002C17.93 4.02002 9.77002 12.18 9.77002 22.25Z" fill="#D600FF"/>
<path d="M40.5898 25.7799C40.6898 25.6499 40.7998 25.5399 40.9098 25.4199C41.2498 26.8099 42.0298 28.0799 43.2698 28.9699C45.9198 30.8599 49.5698 30.2899 51.6698 27.7699C52.0798 29.4899 51.7998 31.3899 50.6698 32.9599C48.6398 35.8199 44.7398 36.5099 41.9598 34.5199C39.1798 32.5399 38.5698 28.6199 40.5998 25.7699L40.5898 25.7799Z" fill="#A93BFF"/>
<path d="M12.5499 19.4802C12.5499 19.4802 10.5599 27.8002 10.6999 27.9902C10.8399 28.1802 10.9399 28.6602 11.9299 28.4102C12.9199 28.1802 23.5599 25.5302 25.7399 24.8102C26.8499 24.4502 29.0999 23.4402 28.5799 23.1102C28.0599 22.7802 26.5999 22.5902 26.5999 22.5902C26.5999 22.5902 19.8799 21.1202 17.5599 20.4602C15.2399 19.8002 12.5499 19.4702 12.5499 19.4702V19.4802Z" fill="#FFBE3E"/>
<path d="M8.92986 13.2498C10.3399 16.3498 14.1199 17.6698 17.3599 16.1898C20.6199 14.7098 22.1099 10.9998 20.6999 7.89979C19.2899 4.79979 15.5199 3.48979 12.2599 4.96979C8.99986 6.44979 7.50986 10.1498 8.91986 13.2498H8.92986Z" fill="white"/>
<path d="M16.8402 13.5702C18.7202 13.8102 20.4402 12.4802 20.6802 10.5902C20.7302 10.1702 20.7102 9.75022 20.6102 9.36022C20.3302 9.95022 19.6902 10.3402 18.9902 10.2502C18.1302 10.1402 17.5102 9.36022 17.6202 8.49022C17.7102 7.79022 18.2402 7.26022 18.9002 7.15022C18.5402 6.95022 18.1302 6.82022 17.7002 6.76022C15.8202 6.53022 14.1002 7.86022 13.8602 9.75022C13.6302 11.6302 14.9702 13.3502 16.8402 13.5802V13.5702Z" fill="#6BD500"/>
<path d="M25.85 23.1502L12 26.9302L12.94 20.7202L25.85 23.1502Z" fill="#F9800F"/>
<path d="M28.39 23.4401C28.39 23.4401 24.04 22.4501 21.29 19.9401C20.1 18.8501 20.01 15.2501 20.3 14.8801L4.45003 14.7401C4.45003 14.7401 2.89003 14.4001 2.70003 15.1101C2.50003 15.8201 3.71003 16.3301 4.92003 17.3801C6.95003 19.1401 10.95 20.9601 15.42 22.8201C23.93 26.3701 28.38 23.4301 28.38 23.4301L28.39 23.4401Z" fill="#F39900"/>
<path d="M28.3498 23.2098C28.3498 23.2098 23.9998 22.2198 21.2498 19.7098C20.0698 18.6298 19.9698 15.0298 20.2598 14.6498L4.41985 14.5198C4.41985 14.5198 2.84985 14.1798 2.66985 14.8898C2.47985 15.5998 3.67985 16.1098 4.88985 17.1598C6.91985 18.9198 10.9198 20.7298 15.3898 22.5998C23.8998 26.1498 28.3498 23.2098 28.3498 23.2098Z" fill="#FFBE3E"/>
<path d="M20.6002 19.1201C22.0102 22.2201 25.7802 23.5401 29.0402 22.0601C32.2902 20.5801 33.7902 16.8701 32.3802 13.7701C30.9702 10.6801 27.1902 9.35013 23.9402 10.8401C20.6902 12.3201 19.2002 16.0301 20.6002 19.1201Z" fill="white"/>
<path d="M25.8402 14.58C26.6502 12.86 28.6902 12.12 30.4102 12.93C30.7902 13.11 31.1302 13.35 31.4102 13.64C30.7602 13.57 30.0902 13.9 29.8002 14.53C29.4302 15.32 29.7602 16.26 30.5502 16.63C31.1902 16.93 31.9202 16.76 32.3702 16.27C32.3402 16.68 32.2402 17.09 32.0602 17.49C31.2502 19.21 29.2102 19.95 27.4902 19.14C25.7702 18.33 25.0302 16.28 25.8402 14.57V14.58Z" fill="#6BD500"/>
<path fill-rule="evenodd" clip-rule="evenodd" d="M40.9502 8.57992C40.9502 8.57992 49.3102 6.16992 48.3102 9.34992C48.0402 10.1999 47.5002 10.6299 46.6402 10.3699C45.7102 10.0999 45.2702 9.08992 44.2802 8.80992C43.2102 8.51992 42.0502 8.53992 40.9502 8.57992Z" fill="#DE10FF"/>
<path fill-rule="evenodd" clip-rule="evenodd" d="M38.4702 8.07997C38.4702 8.07997 44.8302 -3.44003 47.1602 1.02997C47.6502 1.97997 47.7702 3.08997 46.7802 3.73997C45.6602 4.46997 44.3902 3.93997 43.2302 4.32997C42.2702 4.65997 41.4602 5.26997 40.6802 5.90997C39.8802 6.55997 39.1602 7.31997 38.4702 8.08997V8.07997Z" fill="#DE10FF"/>
<path d="M17.4202 16.6399L8.72021 16.1699C8.72021 16.1699 9.47021 16.5999 10.0402 16.7399C10.6102 16.8799 17.4202 16.6399 17.4202 16.6399Z" fill="#F39900"/>
</g>
<defs>
<clipPath id="clip0_7_1998">
<rect width="51.84" height="40.49" fill="white"/>
</clipPath>
</defs>
</svg>
