<svg width="49" height="41" viewBox="0 0 49 41" fill="none" xmlns="http://www.w3.org/2000/svg">
<g clip-path="url(#clip0_7_2013)">
<path d="M46.9598 10.8398C46.8398 10.7298 46.6998 10.6498 46.5798 10.5498C46.5298 11.9798 46.0198 13.3898 44.9898 14.4998C42.7798 16.8898 39.0798 17.0698 36.5198 15.0198C36.4598 16.7898 37.1298 18.5898 38.5498 19.9098C41.1198 22.2898 45.0798 22.1898 47.3998 19.6798C49.7198 17.1798 49.5298 13.2198 46.9698 10.8398H46.9598Z" fill="#6BB209"/>
<path d="M40.4602 22.25C40.4602 32.32 32.3002 40.48 22.2302 40.48C12.1602 40.48 3.99023 32.33 3.99023 22.25C3.99023 12.17 12.1602 4.02002 22.2202 4.02002C32.2802 4.02002 40.4502 12.18 40.4502 22.25H40.4602Z" fill="#6BDD00"/>
<path d="M10.4398 28.1699C10.3198 28.0599 10.1798 27.9799 10.0598 27.8799C10.0098 29.3099 9.49979 30.7199 8.46979 31.8299C6.25979 34.2199 2.55979 34.3999 -0.000209007 32.3499C-0.060209 34.1199 0.609791 35.9199 2.02979 37.2399C4.59979 39.6199 8.55979 39.5199 10.8798 37.0099C13.1998 34.5099 13.0098 30.5499 10.4498 28.1699H10.4398Z" fill="#6BB209"/>
<path d="M37.6801 19.48C37.6801 19.48 39.6701 27.8 39.5301 27.99C39.3901 28.18 39.2901 28.66 38.3001 28.42C37.3101 28.19 26.6701 25.54 24.4901 24.82C23.3801 24.46 21.1301 23.45 21.6501 23.12C22.1701 22.79 23.6301 22.6 23.6301 22.6C23.6301 22.6 30.3501 21.13 32.6701 20.47C34.9901 19.81 37.6801 19.48 37.6801 19.48Z" fill="#FFBE3E"/>
<path d="M41.3 13.2498C39.89 16.3498 36.11 17.6698 32.86 16.1898C29.6 14.7098 28.11 10.9998 29.52 7.89979C30.93 4.79979 34.7 3.48979 37.96 4.96979C41.22 6.44979 42.71 10.1598 41.3 13.2498Z" fill="white"/>
<path d="M33.56 13.5402C35.43 13.2102 36.68 11.4302 36.34 9.55021C36.27 9.13021 36.12 8.74021 35.91 8.40021C35.82 9.05021 35.32 9.61021 34.63 9.73021C33.77 9.88021 32.96 9.32021 32.8 8.46021C32.68 7.76021 33.03 7.11021 33.62 6.80021C33.21 6.72021 32.79 6.71021 32.36 6.78021C30.49 7.11021 29.25 8.90021 29.58 10.7702C29.91 12.6402 31.7 13.8802 33.56 13.5402Z" fill="#0079E7"/>
<path d="M24.3701 23.1502L38.2301 26.9302L37.2801 20.7202L24.3701 23.1502Z" fill="#F9800F"/>
<path d="M21.8398 23.4401C21.8398 23.4401 26.1898 22.4501 28.9398 19.9401C30.1298 18.8501 30.2198 15.2501 29.9298 14.8801L45.7798 14.7401C45.7798 14.7401 47.3398 14.4001 47.5298 15.1101C47.7198 15.8201 46.5198 16.3301 45.3098 17.3801C43.2798 19.1401 39.2798 20.9601 34.8098 22.8201C26.2998 26.3701 21.8498 23.4301 21.8498 23.4301L21.8398 23.4401Z" fill="#F39900"/>
<path d="M21.8799 23.2098C21.8799 23.2098 26.2299 22.2198 28.9799 19.7098C30.1699 18.6198 30.2599 15.0298 29.9699 14.6498L45.8099 14.5198C45.8099 14.5198 47.3799 14.1798 47.5599 14.8898C47.7499 15.5998 46.5499 16.1098 45.3399 17.1598C43.3099 18.9198 39.3099 20.7298 34.8399 22.5998C26.3299 26.1498 21.8799 23.2098 21.8799 23.2098Z" fill="#FFBE3E"/>
<path d="M29.63 19.1199C28.22 22.2199 24.45 23.5399 21.19 22.0599C17.94 20.5799 16.44 16.8699 17.85 13.7699C19.26 10.6699 23.04 9.34986 26.29 10.8399C29.54 12.3199 31.03 16.0299 29.63 19.1299V19.1199Z" fill="white"/>
<path d="M21.8901 19.4099C23.7601 19.0799 25.0101 17.2999 24.6701 15.4199C24.6001 14.9999 24.4501 14.6099 24.2401 14.2699C24.1401 14.9199 23.6401 15.4799 22.9601 15.5899C22.1001 15.7399 21.2801 15.1799 21.1301 14.3199C21.0101 13.6299 21.3601 12.9599 21.9501 12.6599C21.5501 12.5799 21.1201 12.5799 20.6901 12.6399C18.8201 12.9799 17.5801 14.7599 17.9101 16.6299C18.2401 18.4999 20.0301 19.7399 21.8901 19.3999V19.4099Z" fill="#0079E7"/>
<path fill-rule="evenodd" clip-rule="evenodd" d="M9.27997 8.57992C9.27997 8.57992 0.919972 6.16992 1.91997 9.34992C2.18997 10.1999 2.72997 10.6299 3.58997 10.3699C4.51997 10.0999 4.95997 9.08992 5.94997 8.81992C7.01997 8.51992 8.17997 8.54992 9.27997 8.58992V8.57992Z" fill="#6BB209"/>
<path fill-rule="evenodd" clip-rule="evenodd" d="M11.76 8.07997C11.76 8.07997 5.40003 -3.44003 3.07003 1.02997C2.58003 1.97997 2.46003 3.08997 3.45003 3.73997C4.57003 4.46997 5.84003 3.93997 7.00003 4.32997C7.96003 4.65997 8.77003 5.26997 9.55003 5.89997C10.35 6.55997 11.07 7.31997 11.77 8.07997H11.76Z" fill="#6BB209"/>
<path d="M32.8101 16.6302L41.5101 16.1602C41.5101 16.1602 40.7601 16.5902 40.1901 16.7302C39.6201 16.8702 32.8101 16.6302 32.8101 16.6302Z" fill="#F39900"/>
</g>
<defs>
<clipPath id="clip0_7_2013">
<rect width="49.01" height="40.49" fill="white"/>
</clipPath>
</defs>
</svg>
