<svg width="800" height="451" viewBox="0 0 800 451" fill="none" xmlns="http://www.w3.org/2000/svg">
<rect x="0.908203" y="0.146484" width="799" height="450" fill="#D9E4FF"/>
<path d="M314.68 211.72C313.744 211.72 313.024 211.468 312.52 210.964C312.016 210.46 311.764 209.74 311.764 208.804V189.256C311.764 188.32 312.016 187.6 312.52 187.096C313.024 186.592 313.744 186.34 314.68 186.34H323.392C325.192 186.34 326.728 186.604 328 187.132C329.272 187.66 330.232 188.416 330.88 189.4C331.552 190.384 331.888 191.56 331.888 192.928C331.888 194.44 331.456 195.724 330.592 196.78C329.728 197.836 328.54 198.544 327.028 198.904V198.328C328.78 198.64 330.136 199.336 331.096 200.416C332.08 201.472 332.572 202.852 332.572 204.556C332.572 206.812 331.792 208.576 330.232 209.848C328.672 211.096 326.524 211.72 323.788 211.72H314.68ZM317.092 207.58H323.032C324.472 207.58 325.528 207.304 326.2 206.752C326.872 206.176 327.208 205.336 327.208 204.232C327.208 203.128 326.872 202.3 326.2 201.748C325.528 201.196 324.472 200.92 323.032 200.92H317.092V207.58ZM317.092 196.78H322.42C323.812 196.78 324.844 196.516 325.516 195.988C326.188 195.46 326.524 194.668 326.524 193.612C326.524 192.58 326.188 191.8 325.516 191.272C324.844 190.744 323.812 190.48 322.42 190.48H317.092V196.78ZM342.699 212.116C340.563 212.116 338.967 211.528 337.911 210.352C336.855 209.152 336.327 207.376 336.327 205.024V188.788C336.327 187.876 336.555 187.192 337.011 186.736C337.491 186.256 338.175 186.016 339.063 186.016C339.927 186.016 340.587 186.256 341.043 186.736C341.523 187.192 341.763 187.876 341.763 188.788V204.808C341.763 205.792 341.967 206.524 342.375 207.004C342.807 207.46 343.371 207.688 344.067 207.688C344.259 207.688 344.439 207.676 344.607 207.652C344.775 207.628 344.955 207.616 345.147 207.616C345.531 207.568 345.795 207.688 345.939 207.976C346.107 208.24 346.191 208.78 346.191 209.596C346.191 210.316 346.047 210.868 345.759 211.252C345.471 211.612 345.027 211.852 344.427 211.972C344.187 211.996 343.911 212.02 343.599 212.044C343.287 212.092 342.987 212.116 342.699 212.116ZM356.636 212.116C354.74 212.116 353.084 211.744 351.668 211C350.276 210.256 349.196 209.188 348.428 207.796C347.66 206.404 347.276 204.76 347.276 202.864C347.276 201.448 347.492 200.176 347.924 199.048C348.356 197.92 348.98 196.96 349.796 196.168C350.636 195.352 351.632 194.74 352.784 194.332C353.936 193.9 355.22 193.684 356.636 193.684C358.532 193.684 360.176 194.056 361.568 194.8C362.984 195.544 364.076 196.6 364.844 197.968C365.636 199.336 366.032 200.968 366.032 202.864C366.032 204.304 365.804 205.588 365.348 206.716C364.916 207.844 364.292 208.816 363.476 209.632C362.66 210.448 361.664 211.072 360.488 211.504C359.336 211.912 358.052 212.116 356.636 212.116ZM356.636 208.048C357.428 208.048 358.112 207.856 358.688 207.472C359.264 207.088 359.72 206.524 360.056 205.78C360.392 205.012 360.56 204.04 360.56 202.864C360.56 201.112 360.2 199.828 359.48 199.012C358.76 198.172 357.812 197.752 356.636 197.752C355.868 197.752 355.184 197.932 354.584 198.292C354.008 198.652 353.552 199.216 353.216 199.984C352.904 200.728 352.748 201.688 352.748 202.864C352.748 204.616 353.108 205.924 353.828 206.788C354.548 207.628 355.484 208.048 356.636 208.048ZM377.835 218.596C376.539 218.596 375.291 218.488 374.091 218.272C372.915 218.056 371.871 217.732 370.959 217.3C370.407 217.06 370.011 216.748 369.771 216.364C369.555 215.98 369.459 215.572 369.483 215.14C369.531 214.708 369.675 214.324 369.915 213.988C370.179 213.652 370.503 213.412 370.887 213.268C371.271 213.148 371.679 213.184 372.111 213.376C373.167 213.856 374.139 214.168 375.027 214.312C375.939 214.456 376.719 214.528 377.367 214.528C378.903 214.528 380.055 214.18 380.823 213.484C381.591 212.788 381.975 211.72 381.975 210.28V207.544H382.299C381.939 208.648 381.195 209.548 380.067 210.244C378.939 210.94 377.691 211.288 376.323 211.288C374.739 211.288 373.359 210.928 372.183 210.208C371.007 209.464 370.095 208.432 369.447 207.112C368.799 205.768 368.475 204.22 368.475 202.468C368.475 201.148 368.655 199.948 369.015 198.868C369.399 197.788 369.927 196.864 370.599 196.096C371.295 195.328 372.123 194.74 373.083 194.332C374.067 193.9 375.147 193.684 376.323 193.684C377.739 193.684 378.987 194.032 380.067 194.728C381.171 195.4 381.903 196.288 382.263 197.392L381.903 198.544V196.492C381.903 195.604 382.131 194.932 382.587 194.476C383.067 193.996 383.739 193.756 384.603 193.756C385.467 193.756 386.127 193.996 386.583 194.476C387.039 194.932 387.267 195.604 387.267 196.492V209.668C387.267 212.62 386.451 214.84 384.819 216.328C383.211 217.84 380.883 218.596 377.835 218.596ZM377.943 207.22C378.759 207.22 379.455 207.028 380.031 206.644C380.631 206.26 381.099 205.72 381.435 205.024C381.771 204.304 381.939 203.452 381.939 202.468C381.939 200.98 381.567 199.828 380.823 199.012C380.103 198.172 379.143 197.752 377.943 197.752C377.127 197.752 376.419 197.944 375.819 198.328C375.219 198.688 374.751 199.228 374.415 199.948C374.103 200.644 373.947 201.484 373.947 202.468C373.947 203.956 374.307 205.12 375.027 205.96C375.747 206.8 376.719 207.22 377.943 207.22ZM404.278 212.008C403.39 212.008 402.706 211.756 402.226 211.252C401.77 210.724 401.542 209.992 401.542 209.056V196.744C401.542 195.784 401.77 195.052 402.226 194.548C402.706 194.02 403.39 193.756 404.278 193.756C405.142 193.756 405.802 194.02 406.258 194.548C406.738 195.052 406.978 195.784 406.978 196.744V209.056C406.978 209.992 406.75 210.724 406.294 211.252C405.838 211.756 405.166 212.008 404.278 212.008ZM404.278 190.804C403.27 190.804 402.49 190.576 401.938 190.12C401.41 189.64 401.146 188.968 401.146 188.104C401.146 187.216 401.41 186.544 401.938 186.088C402.49 185.608 403.27 185.368 404.278 185.368C405.286 185.368 406.054 185.608 406.582 186.088C407.11 186.544 407.374 187.216 407.374 188.104C407.374 188.968 407.11 189.64 406.582 190.12C406.054 190.576 405.286 190.804 404.278 190.804ZM413.983 212.044C413.095 212.044 412.411 211.804 411.931 211.324C411.475 210.844 411.247 210.16 411.247 209.272V196.492C411.247 195.604 411.475 194.932 411.931 194.476C412.411 193.996 413.071 193.756 413.911 193.756C414.775 193.756 415.435 193.996 415.891 194.476C416.347 194.932 416.575 195.604 416.575 196.492V198.796L416.179 197.356C416.659 196.252 417.403 195.364 418.411 194.692C419.419 194.02 420.607 193.684 421.975 193.684C423.343 193.684 424.483 194.008 425.395 194.656C426.307 195.304 426.955 196.3 427.339 197.644H426.835C427.363 196.42 428.167 195.46 429.247 194.764C430.351 194.044 431.611 193.684 433.027 193.684C434.395 193.684 435.511 193.96 436.375 194.512C437.263 195.04 437.923 195.856 438.355 196.96C438.787 198.04 439.003 199.42 439.003 201.1V209.272C439.003 210.16 438.763 210.844 438.283 211.324C437.827 211.804 437.167 212.044 436.303 212.044C435.415 212.044 434.731 211.804 434.251 211.324C433.795 210.844 433.567 210.16 433.567 209.272V201.28C433.567 200.104 433.375 199.252 432.991 198.724C432.631 198.172 432.007 197.896 431.119 197.896C430.087 197.896 429.283 198.256 428.707 198.976C428.131 199.696 427.843 200.716 427.843 202.036V209.272C427.843 210.16 427.603 210.844 427.123 211.324C426.667 211.804 426.007 212.044 425.143 212.044C424.279 212.044 423.607 211.804 423.127 211.324C422.647 210.844 422.407 210.16 422.407 209.272V201.28C422.407 200.104 422.215 199.252 421.831 198.724C421.471 198.172 420.847 197.896 419.959 197.896C418.927 197.896 418.123 198.256 417.547 198.976C416.971 199.696 416.683 200.716 416.683 202.036V209.272C416.683 211.12 415.783 212.044 413.983 212.044ZM450.043 212.116C448.507 212.116 447.151 211.744 445.975 211C444.823 210.256 443.923 209.188 443.275 207.796C442.627 206.404 442.303 204.76 442.303 202.864C442.303 200.968 442.627 199.336 443.275 197.968C443.923 196.6 444.823 195.544 445.975 194.8C447.151 194.056 448.507 193.684 450.043 193.684C451.435 193.684 452.659 194.02 453.715 194.692C454.795 195.364 455.527 196.24 455.911 197.32L455.551 198.508V196.492C455.551 195.604 455.791 194.932 456.271 194.476C456.751 193.996 457.411 193.756 458.251 193.756C459.115 193.756 459.775 193.996 460.231 194.476C460.711 194.932 460.951 195.604 460.951 196.492V209.272C460.951 210.16 460.711 210.844 460.231 211.324C459.775 211.804 459.115 212.044 458.251 212.044C457.387 212.044 456.715 211.804 456.235 211.324C455.779 210.844 455.551 210.16 455.551 209.272V207.292L455.947 208.228C455.611 209.404 454.891 210.352 453.787 211.072C452.707 211.768 451.459 212.116 450.043 212.116ZM451.663 208.048C452.455 208.048 453.139 207.856 453.715 207.472C454.291 207.088 454.747 206.524 455.083 205.78C455.419 205.012 455.587 204.04 455.587 202.864C455.587 201.112 455.227 199.828 454.507 199.012C453.787 198.172 452.839 197.752 451.663 197.752C450.895 197.752 450.211 197.932 449.611 198.292C449.035 198.652 448.579 199.216 448.243 199.984C447.931 200.728 447.775 201.688 447.775 202.864C447.775 204.616 448.135 205.924 448.855 206.788C449.575 207.628 450.511 208.048 451.663 208.048ZM473.636 218.596C472.34 218.596 471.092 218.488 469.892 218.272C468.716 218.056 467.672 217.732 466.76 217.3C466.208 217.06 465.812 216.748 465.572 216.364C465.356 215.98 465.26 215.572 465.284 215.14C465.332 214.708 465.476 214.324 465.716 213.988C465.98 213.652 466.304 213.412 466.688 213.268C467.072 213.148 467.48 213.184 467.912 213.376C468.968 213.856 469.94 214.168 470.828 214.312C471.74 214.456 472.52 214.528 473.168 214.528C474.704 214.528 475.856 214.18 476.624 213.484C477.392 212.788 477.776 211.72 477.776 210.28V207.544H478.1C477.74 208.648 476.996 209.548 475.868 210.244C474.74 210.94 473.492 211.288 472.124 211.288C470.54 211.288 469.16 210.928 467.984 210.208C466.808 209.464 465.896 208.432 465.248 207.112C464.6 205.768 464.276 204.22 464.276 202.468C464.276 201.148 464.456 199.948 464.816 198.868C465.2 197.788 465.728 196.864 466.4 196.096C467.096 195.328 467.924 194.74 468.884 194.332C469.868 193.9 470.948 193.684 472.124 193.684C473.54 193.684 474.788 194.032 475.868 194.728C476.972 195.4 477.704 196.288 478.064 197.392L477.704 198.544V196.492C477.704 195.604 477.932 194.932 478.388 194.476C478.868 193.996 479.54 193.756 480.404 193.756C481.268 193.756 481.928 193.996 482.384 194.476C482.84 194.932 483.068 195.604 483.068 196.492V209.668C483.068 212.62 482.252 214.84 480.62 216.328C479.012 217.84 476.684 218.596 473.636 218.596ZM473.744 207.22C474.56 207.22 475.256 207.028 475.832 206.644C476.432 206.26 476.9 205.72 477.236 205.024C477.572 204.304 477.74 203.452 477.74 202.468C477.74 200.98 477.368 199.828 476.624 199.012C475.904 198.172 474.944 197.752 473.744 197.752C472.928 197.752 472.22 197.944 471.62 198.328C471.02 198.688 470.552 199.228 470.216 199.948C469.904 200.644 469.748 201.484 469.748 202.468C469.748 203.956 470.108 205.12 470.828 205.96C471.548 206.8 472.52 207.22 473.744 207.22ZM496.468 212.116C494.38 212.116 492.58 211.744 491.068 211C489.58 210.232 488.428 209.164 487.612 207.796C486.82 206.404 486.424 204.772 486.424 202.9C486.424 201.076 486.808 199.48 487.576 198.112C488.344 196.72 489.412 195.64 490.78 194.872C492.172 194.08 493.744 193.684 495.496 193.684C496.768 193.684 497.92 193.9 498.952 194.332C499.984 194.74 500.872 195.34 501.616 196.132C502.36 196.9 502.924 197.848 503.308 198.976C503.692 200.08 503.884 201.316 503.884 202.684C503.884 203.14 503.74 203.488 503.452 203.728C503.164 203.944 502.744 204.052 502.192 204.052H490.888V201.244H499.96L499.384 201.748C499.384 200.764 499.24 199.948 498.952 199.3C498.664 198.628 498.244 198.124 497.692 197.788C497.164 197.452 496.504 197.284 495.712 197.284C494.824 197.284 494.068 197.488 493.444 197.896C492.82 198.304 492.34 198.892 492.004 199.66C491.668 200.428 491.5 201.352 491.5 202.432V202.72C491.5 204.544 491.92 205.888 492.76 206.752C493.624 207.616 494.896 208.048 496.576 208.048C497.152 208.048 497.812 207.976 498.556 207.832C499.3 207.688 499.996 207.46 500.644 207.148C501.196 206.884 501.688 206.8 502.12 206.896C502.552 206.968 502.888 207.16 503.128 207.472C503.368 207.784 503.5 208.144 503.524 208.552C503.572 208.96 503.488 209.368 503.272 209.776C503.056 210.16 502.696 210.484 502.192 210.748C501.376 211.204 500.452 211.54 499.42 211.756C498.412 211.996 497.428 212.116 496.468 212.116Z" fill="#2638C1"/>
</svg>
