<svg width="40" height="41" viewBox="0 0 40 41" fill="none" xmlns="http://www.w3.org/2000/svg">
<path d="M20.0267 0.421875C9.09429 0.421875 0.195801 9.32036 0.195801 20.2528C0.195801 31.1852 9.09429 40.0837 20.0267 40.0837C30.9591 40.0837 39.8576 31.1852 39.8576 20.2528C39.8576 9.32036 30.9591 0.421875 20.0267 0.421875Z" fill="white"/>
<path d="M20.0265 37.557C29.5827 37.557 37.3294 29.8102 37.3294 20.2541C37.3294 10.6979 29.5827 2.95117 20.0265 2.95117C10.4704 2.95117 2.72363 10.6979 2.72363 20.2541C2.72363 29.8102 10.4704 37.557 20.0265 37.557Z" fill="#0078FF"/>
<path d="M20.5501 6.18115C20.383 6.14483 20.2159 6.12303 20.0416 6.1303C19.0973 6.14483 18.2764 6.76954 18.0077 7.67028L15.9374 14.4767L8.82588 14.6075C7.88155 14.622 7.06071 15.2467 6.78467 16.1475C6.5159 17.0482 6.85005 18.0216 7.62004 18.5664L13.4531 22.6415L11.3828 29.448C11.1068 30.3487 11.4482 31.3221 12.2182 31.8596C12.4579 32.0267 12.7194 32.1429 12.9882 32.201C13.5984 32.3391 14.2521 32.201 14.7679 31.8161L20.4484 27.5302L26.2814 31.6054C26.5212 31.7725 26.7827 31.8814 27.0514 31.9468C27.6616 32.0848 28.3081 31.9468 28.8311 31.5618C29.5866 30.9952 29.8844 30.0073 29.5793 29.1211L27.2548 22.3946L32.8845 18.1378C33.3058 17.84 33.6254 17.3823 33.7416 16.8375C33.9959 15.6898 33.2913 14.5566 32.1653 14.2588C32.1363 14.2588 32.1145 14.2443 32.0854 14.2443C32.0273 14.2297 31.9692 14.2225 31.9184 14.2152C31.7876 14.2007 31.6569 14.1862 31.5261 14.1934L24.4582 14.3242L22.1337 7.59764C21.8794 6.87123 21.2765 6.34822 20.5501 6.18841V6.18115Z" fill="#2FBCEA"/>
</svg>
