<svg width="1440" height="262" viewBox="0 0 1440 262" fill="none" xmlns="http://www.w3.org/2000/svg">
<g clip-path="url(#clip0_1773_6271)">
<path fill-rule="evenodd" clip-rule="evenodd" d="M919.119 261.344C962.699 197.224 992.809 136.524 978.879 125.124C967.069 115.364 925.999 143.584 880.089 185.924C920.189 94.4544 947.939 8.27441 932.719 0.734407C918.989 -6.42559 873.109 53.7344 826.629 129.704C835.419 70.3744 835.449 23.1844 821.129 19.0444C801.109 13.1144 759.309 92.8444 728.169 179.204C704.549 103.064 674.639 38.8844 656.659 42.6844C640.149 46.0744 637.779 105.314 644.699 175.804C588.019 89.2744 527.679 14.7844 512.629 23.6044C494.859 33.5544 545.579 154.734 604.309 261.334H919.119V261.344Z" fill="#2FB1EB"/>
</g>
<g clip-path="url(#clip1_1773_6271)">
<path fill-rule="evenodd" clip-rule="evenodd" d="M0.0292969 255.854V69.454C47.0093 37.524 91.4793 15.464 99.8293 25.674C106.979 34.334 86.3093 64.424 55.2793 98.054C122.289 68.674 185.429 48.334 190.959 59.494C196.209 69.554 152.129 103.164 96.4693 137.214C139.939 130.774 174.519 130.754 177.549 141.244C181.889 155.914 123.479 186.534 60.2093 209.354C108.329 224.274 149.919 242.634 158.659 255.854H0.0292969Z" fill="#2FB1EB"/>
</g>
<g clip-path="url(#clip2_1773_6271)">
<path fill-rule="evenodd" clip-rule="evenodd" d="M1443.24 256.035V108.745C1406.12 83.5048 1370.98 66.0848 1364.38 74.1448C1358.73 80.9848 1375.07 104.765 1399.58 131.345C1346.63 108.125 1296.73 92.0548 1292.37 100.865C1288.22 108.815 1323.06 135.375 1367.04 162.285C1332.69 157.195 1305.37 157.175 1302.97 165.475C1299.54 177.065 1345.69 201.265 1395.7 219.295C1357.68 231.085 1324.81 245.595 1317.91 256.045H1443.25L1443.24 256.035Z" fill="#2FB1EB"/>
</g>
<defs>
<clipPath id="clip0_1773_6271">
<rect width="473.28" height="261.19" fill="white" transform="translate(509.029 0.154297)"/>
</clipPath>
<clipPath id="clip1_1773_6271">
<rect width="191.36" height="232.7" fill="white" transform="translate(0.0292969 23.1543)"/>
</clipPath>
<clipPath id="clip2_1773_6271">
<rect width="151.21" height="183.88" fill="white" transform="translate(1292.03 72.1543)"/>
</clipPath>
</defs>
</svg>
