<svg width="207" height="275" viewBox="0 0 207 275" fill="none" xmlns="http://www.w3.org/2000/svg">
<g clip-path="url(#clip0_160_6761)">
<g opacity="0.22">
<path d="M1.42907 128.707C1.42907 160.201 28.0937 185.725 60.9812 185.725C93.8688 185.725 120.533 160.201 120.533 128.707C120.533 97.2135 93.8688 71.6796 60.9812 71.6796C28.0937 71.6796 1.42907 97.2135 1.42907 128.707ZM0.0996094 128.707C0.0996094 95.1328 27.3582 67.923 60.9718 67.923C94.5854 67.923 121.853 95.1328 121.853 128.707C121.853 162.282 94.5948 189.492 60.9718 189.492C27.3488 189.492 0.0996094 162.282 0.0996094 128.707Z" fill="#6DCBF2"/>
<path fill-rule="evenodd" clip-rule="evenodd" d="M1.42896 128.707C1.42896 97.2135 28.0935 71.6796 60.9811 71.6796C93.8687 71.6796 120.533 97.2135 120.533 128.707C120.533 160.201 93.8687 185.725 60.9811 185.725C28.0935 185.725 1.42896 160.201 1.42896 128.707Z" fill="#009DE0"/>
<path d="M107.55 122.38C102.072 96.997 74.5397 81.3773 46.0837 87.5065C44.0376 87.9585 42.0576 88.5045 40.1152 89.1448C44.7542 85.8212 50.1192 83.3639 56.0404 82.0928C79.0561 77.1216 101.761 91.7434 106.72 114.735C107.324 117.522 107.635 120.318 107.682 123.077C107.635 122.842 107.597 122.597 107.55 122.38Z" fill="#A8DDF6"/>
</g>
<g opacity="0.22">
<path d="M122.306 250.944C122.306 263.062 132.565 272.891 145.227 272.891C157.89 272.891 168.149 263.071 168.149 250.944C168.149 238.818 157.89 228.998 145.227 228.998C132.565 228.998 122.306 238.827 122.306 250.944ZM121.797 250.944C121.797 238.017 132.282 227.548 145.227 227.548C158.173 227.548 168.658 238.017 168.658 250.944C168.658 263.871 158.164 274.332 145.227 274.332C132.291 274.332 121.797 263.862 121.797 250.944Z" fill="#6DCBF2"/>
<path fill-rule="evenodd" clip-rule="evenodd" d="M122.306 250.944C122.306 238.827 132.564 228.998 145.227 228.998C157.89 228.998 168.149 238.827 168.149 250.944C168.149 263.062 157.89 272.891 145.227 272.891C132.564 272.891 122.306 263.071 122.306 250.944Z" fill="#009DE0"/>
<path d="M163.152 248.506C161.049 238.733 150.451 232.726 139.495 235.089C138.712 235.259 137.948 235.475 137.194 235.72C138.976 234.44 141.041 233.498 143.323 233.008C152.186 231.097 160.917 236.727 162.831 245.568C163.067 246.642 163.18 247.715 163.199 248.779C163.18 248.685 163.161 248.6 163.152 248.506Z" fill="#A8DDF6"/>
</g>
<g opacity="0.22">
<path d="M159.748 23.7282C159.748 35.8455 170.006 45.675 182.669 45.675C195.332 45.675 205.59 35.8549 205.59 23.7282C205.59 11.6015 195.322 1.78148 182.669 1.78148C170.016 1.78148 159.748 11.6109 159.748 23.7282ZM159.239 23.7282C159.239 10.8012 169.723 0.331543 182.669 0.331543C195.615 0.331543 206.1 10.8012 206.1 23.7282C206.1 36.6552 195.605 47.1155 182.669 47.1155C169.733 47.1155 159.239 36.6458 159.239 23.7282Z" fill="#6DCBF2"/>
<path fill-rule="evenodd" clip-rule="evenodd" d="M159.748 23.7282C159.748 11.6109 170.006 1.78149 182.669 1.78149C195.332 1.78149 205.591 11.6109 205.591 23.7282C205.591 35.8455 195.332 45.675 182.669 45.675C170.006 45.675 159.748 35.855 159.748 23.7282Z" fill="#009DE0"/>
<path d="M200.593 21.2897C198.491 11.5168 187.893 5.5099 176.936 7.87311C176.154 8.04258 175.39 8.25913 174.636 8.50392C176.418 7.22346 178.483 6.28194 180.764 5.79236C189.628 3.88108 198.359 9.51134 200.273 18.3522C200.508 19.4255 200.621 20.4988 200.64 21.5627C200.621 21.4686 200.603 21.3839 200.593 21.2897Z" fill="#A8DDF6"/>
</g>
</g>
<defs>
<clipPath id="clip0_160_6761">
<rect width="206" height="274" fill="white" transform="translate(0.0996094 0.331543)"/>
</clipPath>
</defs>
</svg>
