<svg width="226" height="109" viewBox="0 0 226 109" fill="none" xmlns="http://www.w3.org/2000/svg">
<g clip-path="url(#clip0_9_3833)">
<path d="M182.16 106C181.59 108.05 179.66 109.36 175.52 108.2C171.38 107.04 165.49 105.85 166.06 103.8C166.63 101.75 173.45 99.6099 177.6 100.77C181.74 101.93 182.74 103.95 182.16 106Z" fill="#238E3C"/>
<path d="M184.88 87.04L181.95 105.02C181.78 106.06 180.79 106.77 179.75 106.6L179.08 106.49C178.04 106.32 177.97 105.53 178.14 104.49L180.44 86.32C180.61 85.28 181.6 84.57 182.64 84.74L183.31 84.85C184.35 85.02 185.06 86.01 184.89 87.05L184.88 87.04Z" fill="#238E3C"/>
<path d="M207.78 100.34C208.42 102.37 207.52 104.52 203.41 105.81C199.31 107.1 193.72 109.32 193.08 107.28C192.44 105.25 196.99 99.73 201.09 98.44C205.19 97.15 207.13 98.3 207.77 100.34H207.78Z" fill="#238E3C"/>
<path d="M199.72 82.96L207.07 99.63C207.49 100.59 207.05 101.73 206.09 102.15L205.47 102.42C204.51 102.84 204.02 102.22 203.59 101.26L195.6 84.78C195.18 83.82 195.62 82.68 196.58 82.26L197.2 81.99C198.16 81.57 199.3 82.01 199.72 82.97V82.96Z" fill="#238E3C"/>
<path d="M184.97 89.19C200.213 89.19 212.57 76.833 212.57 61.59C212.57 46.3469 200.213 33.99 184.97 33.99C169.727 33.99 157.37 46.3469 157.37 61.59C157.37 76.833 169.727 89.19 184.97 89.19Z" fill="#23D73C"/>
<path d="M200.11 63.2499C201.05 55.7999 207.39 49.5299 214.27 49.2399C221.15 48.9499 225.97 54.7599 225.03 62.2099C224.09 69.6599 217.75 75.9299 210.87 76.2199C203.99 76.5099 199.17 70.6999 200.11 63.2499Z" fill="#23D73C"/>
<path d="M111.75 51.66C126.015 51.66 137.58 40.0955 137.58 25.83C137.58 11.5645 126.015 0 111.75 0C97.4844 0 85.9199 11.5645 85.9199 25.83C85.9199 40.0955 97.4844 51.66 111.75 51.66Z" fill="#F48020"/>
<path d="M117.99 39.06L105.47 39.1C103.68 39.1 101.93 38.52 101.93 36.43C101.93 35.13 102.8 34.21 103.63 33.32C105.79 30.92 107.86 28.45 109.93 26.01C111.3 24.41 113.99 21.31 113.98 19.04C113.98 17.49 112.85 16.28 111.31 16.28C109.56 16.28 108.69 17.55 108.24 19.1C107.71 20.94 107.55 22.66 105.26 22.67C103.39 22.67 102.3 21.34 102.3 19.54C102.28 14.47 106.72 10.48 111.63 10.46C116.41 10.45 120.46 13.87 120.47 18.86C120.48 22.88 118.24 25.74 115.76 28.64C114.35 30.32 112.9 31.92 111.37 33.43L117.4 33.41H117.98C119.73 33.41 121.1 34.4 121.11 36.25C121.12 38.1 119.7 39.06 118 39.07L117.99 39.06Z" fill="#FFE600"/>
<path d="M145.83 79.88C160.096 79.88 171.66 68.3155 171.66 54.05C171.66 39.7845 160.096 28.22 145.83 28.22C131.564 28.22 120 39.7845 120 54.05C120 68.3155 131.564 79.88 145.83 79.88Z" fill="#0079FF"/>
<path d="M145.99 68.0201C144.04 68.0201 142 67.5401 140.33 66.4801C138.49 65.2901 136.41 62.7601 136.4 60.4601C136.4 58.9001 137.86 57.6701 139.32 57.6601C141.07 57.6601 141.52 58.8401 142.3 60.1501C143.04 61.3801 144.3 62.2001 145.73 62.1901C147.76 62.1901 149.18 60.7401 149.18 58.6901C149.16 53.7301 142.67 57.4801 142.65 52.8501C142.65 50.7601 143.91 50.5901 145.65 50.0501C146.99 49.6401 148.21 48.9401 148.21 47.3401C148.21 45.9001 147.1 45.0501 145.72 45.0501C142.67 45.0501 142.35 48.4601 139.83 48.4701C138.36 48.4701 137.18 47.2101 137.18 45.7701C137.17 41.6701 142.49 39.3201 145.95 39.3101C150.22 39.3001 154.02 42.0701 154.03 46.6201C154.03 49.2401 153.07 50.6801 151.04 52.2101C152.47 52.9901 153.4 53.5601 154.34 54.9501C155.2 56.2201 155.57 57.5701 155.57 59.0901C155.59 64.5401 151.16 68.0001 145.99 68.0201Z" fill="#FFE600"/>
<path d="M77.6303 81.2999C91.8958 81.2999 103.46 69.7354 103.46 55.4699C103.46 41.2044 91.8958 29.6399 77.6303 29.6399C63.3648 29.6399 51.8003 41.2044 51.8003 55.4699C51.8003 69.7354 63.3648 81.2999 77.6303 81.2999Z" fill="#FFE600"/>
<path d="M78.61 69.1499C76.62 69.1499 75.51 67.5999 75.51 65.7199V65.0199L75.45 46.9399H73.54C71.91 46.9499 70.49 45.9699 70.48 44.2099C70.48 42.4499 71.85 41.4199 73.52 41.4099H78.28C80.44 41.3899 81.62 42.5799 81.63 44.7499L81.69 65.6999C81.69 67.5899 80.6 69.1499 78.61 69.1499Z" fill="#FF0000"/>
<path d="M28.4002 106.03C27.8302 108.08 25.9002 109.39 21.7602 108.23C17.6202 107.07 11.7302 105.88 12.3002 103.83C12.8702 101.78 19.6902 99.6399 23.8402 100.8C27.9802 101.96 28.9802 103.98 28.4002 106.03Z" fill="#238E3C"/>
<path d="M31.1202 87.07L28.1902 105.05C28.0202 106.09 27.0302 106.8 25.9902 106.63L25.3202 106.52C24.2802 106.35 24.2102 105.56 24.3802 104.52L26.6802 86.35C26.8502 85.31 27.8402 84.6 28.8802 84.77L29.5502 84.88C30.5902 85.05 31.3002 86.04 31.1302 87.08L31.1202 87.07Z" fill="#238E3C"/>
<path d="M55.18 100.36C55.82 102.39 54.92 104.54 50.81 105.83C46.71 107.12 41.12 109.34 40.48 107.3C39.84 105.27 44.39 99.75 48.49 98.46C52.59 97.17 54.53 98.32 55.17 100.36H55.18Z" fill="#238E3C"/>
<path d="M47.12 82.98L54.47 99.65C54.89 100.61 54.45 101.75 53.49 102.17L52.87 102.44C51.91 102.86 51.42 102.24 50.99 101.28L43 84.8C42.58 83.84 43.02 82.7 43.98 82.28L44.6 82.01C45.56 81.59 46.7 82.03 47.12 82.99V82.98Z" fill="#238E3C"/>
<path d="M4.00013 17.29C5.72013 16.94 7.52013 16.71 9.36013 16.85C20.0301 17.63 28.1001 26.66 27.6201 37.28L25.4201 37.12C25.7801 28.13 18.6601 19.73 9.20013 19.05C7.50013 18.93 5.84013 19.1 4.25013 19.44C4.07013 21.26 3.03013 22.68 1.89013 22.6C0.720129 22.52 -0.119871 20.92 0.0201285 19.02C0.160129 17.12 1.22013 15.66 2.39013 15.74C3.10013 15.79 3.68013 16.4 4.00013 17.29Z" fill="#28AE28"/>
<path d="M42.1802 8.70007C40.8602 7.41007 39.3602 6.40007 37.8202 5.56007C38.1402 4.67007 38.0702 3.86007 37.5602 3.36007C36.7202 2.54007 34.9502 2.99007 33.6202 4.35007C32.2902 5.71007 31.8902 7.49007 32.7302 8.31007C33.5502 9.11007 35.2302 8.71007 36.5502 7.44007C37.9802 8.20007 39.4202 9.09007 40.6402 10.2801C47.4302 16.9001 47.4902 27.8901 41.4202 34.5401L43.0002 36.0801C50.2102 28.2601 49.8402 16.1701 42.1802 8.70007Z" fill="#28AE28"/>
<path d="M33.57 88.88C49.6249 88.88 62.64 75.8649 62.64 59.81C62.64 43.7551 49.6249 30.74 33.57 30.74C17.5151 30.74 4.5 43.7551 4.5 59.81C4.5 75.8649 17.5151 88.88 33.57 88.88Z" fill="#23D73C"/>
<path fill-rule="evenodd" clip-rule="evenodd" d="M4.53022 49.7499C4.58022 44.4499 8.92022 40.1899 14.2302 40.2499C19.5302 40.2999 23.7902 44.6399 23.7302 49.9499C23.6802 55.2499 19.3402 59.5099 14.0402 59.4599C8.74022 59.3999 4.48022 55.0599 4.53022 49.7599V49.7499Z" fill="white"/>
<path fill-rule="evenodd" clip-rule="evenodd" d="M25.1803 49.4801C25.2303 44.1801 29.5703 39.9201 34.8703 39.9801C40.1803 40.0301 44.4303 44.3701 44.3803 49.6801C44.3303 54.9801 39.9903 59.2401 34.6803 59.1901C29.3803 59.1301 25.1203 54.7901 25.1803 49.4901V49.4801Z" fill="white"/>
<path d="M29.6003 48.9199C29.6303 45.5599 32.4703 42.8599 35.9403 42.8899C36.7203 42.8899 37.4703 43.0399 38.1603 43.2999C37.0103 43.6499 36.1603 44.6999 36.1503 45.9399C36.1303 47.4799 37.4103 48.7399 39.0003 48.7599C40.2903 48.7699 41.3803 47.9699 41.7603 46.8399C42.0203 47.5299 42.1603 48.2699 42.1603 49.0499C42.1303 52.4099 39.2903 55.1099 35.8203 55.0799C32.3503 55.0499 29.5703 52.2899 29.6003 48.9299V48.9199Z" fill="#AB3BFF"/>
<path d="M10.3601 49.03C10.3901 45.67 13.2301 42.97 16.7001 43C17.4801 43 18.2301 43.15 18.9201 43.41C17.7701 43.76 16.9201 44.81 16.9101 46.05C16.8901 47.59 18.1701 48.85 19.7601 48.87C21.0501 48.88 22.1401 48.08 22.5201 46.95C22.7801 47.64 22.9201 48.38 22.9201 49.16C22.8901 52.52 20.0501 55.22 16.5801 55.19C13.1101 55.16 10.3301 52.4 10.3601 49.04V49.03Z" fill="#AB3BFF"/>
<path d="M29.0299 68.5399C23.8299 70.0999 18.5399 70.5199 13.3999 69.9599C18.6599 77.6699 25.6999 81.8699 31.7899 80.0399C37.7399 78.2499 41.2599 71.1699 41.5599 62.1399C37.8799 64.9399 33.6799 67.1399 29.0299 68.5299V68.5399Z" fill="#238E3C"/>
</g>
<defs>
<clipPath id="clip0_9_3833">
<rect width="225.16" height="108.66" fill="white"/>
</clipPath>
</defs>
</svg>
