<svg width="70" height="26" viewBox="0 0 70 26" fill="none" xmlns="http://www.w3.org/2000/svg">
<path d="M7.71419 4.91399L8.80236 14.4564C7.04948 14.1215 4.80422 14.8503 2.97748 16.5539C0.397397 18.9616 -0.3461 22.364 1.31815 24.1514C2.9824 25.9387 6.42908 25.4315 9.00916 23.0238C11.0082 21.1577 11.8896 18.7056 11.4169 16.8641L10.378 8.41483C10.378 8.41483 12.1112 8.23265 15.0458 7.05585C17.9754 5.87906 16.7002 0.349609 16.7002 0.349609L7.71912 4.92384L7.71419 4.91399Z" fill="#FFDC00"/>
<path d="M33.7754 4.91399L34.8635 14.4564C33.1106 14.1215 30.8654 14.8503 29.0386 16.5539C26.4586 18.9616 25.7151 22.364 27.3793 24.1514C29.0436 25.9387 32.4902 25.4315 35.0703 23.0238C37.0694 21.1577 37.9508 18.7056 37.4781 16.8641L36.4391 8.41483C36.4391 8.41483 38.1723 8.23265 41.1069 7.05585C44.0366 5.87906 42.7613 0.349609 42.7613 0.349609L33.7803 4.92384L33.7754 4.91399Z" fill="#FFDC00"/>
<path d="M59.8366 4.91399L60.9247 14.4564C59.1719 14.1215 56.9266 14.8503 55.0999 16.5539C52.5198 18.9616 51.7763 22.364 53.4405 24.1514C55.1048 25.9387 58.5515 25.4315 61.1315 23.0238C63.1306 21.1577 64.012 18.7056 63.5393 16.8641L62.5004 8.41483C62.5004 8.41483 64.2335 8.23265 67.1681 7.05585C70.0978 5.87906 68.8225 0.349609 68.8225 0.349609L59.8415 4.92384L59.8366 4.91399Z" fill="#FFDC00"/>
</svg>
