<svg width="21" height="19" viewBox="0 0 21 19" fill="none" xmlns="http://www.w3.org/2000/svg">
<path d="M19.75 2.29H4.99L4.5 0.65L4.47 0.59C4.37 0.11 3.95 0 3.45 0H1.5C0.39 0 0 0.62 0 1.19C0 1.76 0.61 2.41 1.35 2.41H2.63L6.09 14.38C5.72 14.84 5.51 15.42 5.51 16.01C5.51 17.45 6.68 18.62 8.12 18.62C9.56 18.62 10.73 17.45 10.73 16.01C10.73 15.95 10.73 15.89 10.73 15.83H14.95C14.95 15.89 14.95 15.95 14.95 16.01C14.95 17.45 16.12 18.62 17.56 18.62C19 18.62 20.17 17.45 20.17 16.01C20.17 14.57 19 13.4 17.56 13.4C17.1 13.4 16.65 13.52 16.26 13.75H9.44C9.04 13.52 8.32 13.41 8.33 13.41L8.13 12.76H17.5C17.94 12.76 18.34 12.48 18.46 12.09L20.77 3.68C20.79 3.59 20.81 3.5 20.8 3.4V3.34C20.8 2.76 20.34 2.29 19.76 2.29H19.75ZM8.13 16.53C7.84 16.53 7.6 16.29 7.6 16C7.6 15.71 7.84 15.47 8.13 15.47C8.42 15.47 8.66 15.71 8.66 16C8.66 16.29 8.42 16.53 8.13 16.53ZM7.63 10.67L5.73 4.37H18.41L16.7 10.66H7.63V10.67ZM17.55 15.47C17.84 15.47 18.08 15.71 18.08 16C18.08 16.29 17.84 16.53 17.55 16.53C17.26 16.53 17.02 16.29 17.02 16C17.02 15.71 17.26 15.47 17.55 15.47ZM9.05 13.78C9.16 13.83 9.27 13.88 9.38 13.94C9.28 13.88 9.17 13.82 9.05 13.78ZM8.57 13.64C8.49 13.62 8.4 13.61 8.31 13.61C8.4 13.61 8.48 13.63 8.57 13.64Z" fill="currentColor"/>
</svg>
