<svg width="112" height="118" viewBox="0 0 112 118" fill="none" xmlns="http://www.w3.org/2000/svg">
<g style="mix-blend-mode:multiply" opacity="0.1">
<path opacity="0.01" d="M54.5865 117.805C74.4041 117.805 90.4694 112.386 90.4694 105.7C90.4694 99.0145 74.4041 93.5947 54.5865 93.5947C34.7689 93.5947 18.7036 99.0145 18.7036 105.7C18.7036 112.386 34.7689 117.805 54.5865 117.805Z" fill="#DDDDE3"/>
<path opacity="0.01" d="M54.5864 117.752C74.327 117.752 90.33 112.356 90.33 105.7C90.33 99.0439 74.327 93.6479 54.5864 93.6479C34.8457 93.6479 18.8428 99.0439 18.8428 105.7C18.8428 112.356 34.8457 117.752 54.5864 117.752Z" fill="#DCDCE2"/>
<path opacity="0.02" d="M54.5863 117.717C74.25 117.717 90.1906 112.337 90.1906 105.7C90.1906 99.0632 74.25 93.6831 54.5863 93.6831C34.9225 93.6831 18.9819 99.0632 18.9819 105.7C18.9819 112.337 34.9225 117.717 54.5863 117.717Z" fill="#DBDBE1"/>
<path opacity="0.02" d="M54.5866 117.664C74.1735 117.664 90.0517 112.307 90.0517 105.7C90.0517 99.0927 74.1735 93.7363 54.5866 93.7363C34.9998 93.7363 19.1216 99.0927 19.1216 105.7C19.1216 112.307 34.9998 117.664 54.5866 117.664Z" fill="#DADAE0"/>
<path opacity="0.02" d="M54.5865 117.61C74.0964 117.61 89.9123 112.278 89.9123 105.7C89.9123 99.1216 74.0964 93.7891 54.5865 93.7891C35.0766 93.7891 19.2607 99.1216 19.2607 105.7C19.2607 112.278 35.0766 117.61 54.5865 117.61Z" fill="#D9D9DF"/>
<path opacity="0.02" d="M54.5864 117.557C74.0194 117.557 89.7729 112.249 89.7729 105.7C89.7729 99.1511 74.0194 93.8423 54.5864 93.8423C35.1534 93.8423 19.3999 99.1511 19.3999 105.7C19.3999 112.249 35.1534 117.557 54.5864 117.557Z" fill="#D8D8DE"/>
<path opacity="0.03" d="M54.5863 117.522C73.9423 117.522 89.6335 112.229 89.6335 105.7C89.6335 99.1709 73.9423 93.8779 54.5863 93.8779C35.2302 93.8779 19.5391 99.1709 19.5391 105.7C19.5391 112.229 35.2302 117.522 54.5863 117.522Z" fill="#D7D7DD"/>
<path opacity="0.03" d="M54.5867 117.469C73.8658 117.469 89.4946 112.2 89.4946 105.7C89.4946 99.2003 73.8658 93.9312 54.5867 93.9312C35.3075 93.9312 19.6787 99.2003 19.6787 105.7C19.6787 112.2 35.3075 117.469 54.5867 117.469Z" fill="#D6D6DC"/>
<path opacity="0.03" d="M54.5865 117.416C73.7887 117.416 89.3552 112.17 89.3552 105.7C89.3552 99.2293 73.7887 93.9839 54.5865 93.9839C35.3843 93.9839 19.8179 99.2293 19.8179 105.7C19.8179 112.17 35.3843 117.416 54.5865 117.416Z" fill="#D5D5DB"/>
<path opacity="0.03" d="M54.5864 117.363C73.7117 117.363 89.2158 112.141 89.2158 105.7C89.2158 99.2588 73.7117 94.0371 54.5864 94.0371C35.4611 94.0371 19.957 99.2588 19.957 105.7C19.957 112.141 35.4611 117.363 54.5864 117.363Z" fill="#D4D4DA"/>
<path opacity="0.04" d="M54.5863 117.327C73.6347 117.327 89.0764 112.121 89.0764 105.7C89.0764 99.2781 73.6347 94.0723 54.5863 94.0723C35.5379 94.0723 20.0962 99.2781 20.0962 105.7C20.0962 112.121 35.5379 117.327 54.5863 117.327Z" fill="#D3D3D9"/>
<path opacity="0.04" d="M54.5867 117.274C73.5581 117.274 88.9375 112.092 88.9375 105.7C88.9375 99.3075 73.5581 94.1255 54.5867 94.1255C35.6152 94.1255 20.2358 99.3075 20.2358 105.7C20.2358 112.092 35.6152 117.274 54.5867 117.274Z" fill="#D2D2D8"/>
<path opacity="0.04" d="M54.5866 117.221C73.4811 117.221 88.7981 112.063 88.7981 105.7C88.7981 99.3365 73.4811 94.1782 54.5866 94.1782C35.692 94.1782 20.375 99.3365 20.375 105.7C20.375 112.063 35.692 117.221 54.5866 117.221Z" fill="#D1D1D7"/>
<path opacity="0.04" d="M54.5864 117.186C73.404 117.186 88.6587 112.043 88.6587 105.7C88.6587 99.3563 73.404 94.2139 54.5864 94.2139C35.7688 94.2139 20.5142 99.3563 20.5142 105.7C20.5142 112.043 35.7688 117.186 54.5864 117.186Z" fill="#D0D0D6"/>
<path opacity="0.05" d="M54.5863 117.133C73.327 117.133 88.5193 112.014 88.5193 105.7C88.5193 99.3857 73.327 94.2671 54.5863 94.2671C35.8456 94.2671 20.6533 99.3857 20.6533 105.7C20.6533 112.014 35.8456 117.133 54.5863 117.133Z" fill="#CFCFD5"/>
<path opacity="0.05" d="M54.5867 117.08C73.247 117.08 88.3741 111.985 88.3741 105.7C88.3741 99.4152 73.247 94.3203 54.5867 94.3203C35.9265 94.3203 20.7993 99.4152 20.7993 105.7C20.7993 111.985 35.9265 117.08 54.5867 117.08Z" fill="#CECED4"/>
<path opacity="0.05" d="M54.5866 117.027C73.1699 117.027 88.2347 111.956 88.2347 105.7C88.2347 99.4446 73.1699 94.3735 54.5866 94.3735C36.0033 94.3735 20.9385 99.4446 20.9385 105.7C20.9385 111.956 36.0033 117.027 54.5866 117.027Z" fill="#CECED3"/>
<path opacity="0.05" d="M54.5865 116.991C73.0929 116.991 88.0953 111.936 88.0953 105.7C88.0953 99.4639 73.0929 94.4087 54.5865 94.4087C36.0801 94.4087 21.0776 99.4639 21.0776 105.7C21.0776 111.936 36.0801 116.991 54.5865 116.991Z" fill="#CDCDD2"/>
<path opacity="0.06" d="M54.5864 116.938C73.0159 116.938 87.9559 111.907 87.9559 105.7C87.9559 99.4934 73.0159 94.4619 54.5864 94.4619C36.1569 94.4619 21.2168 99.4934 21.2168 105.7C21.2168 111.907 36.1569 116.938 54.5864 116.938Z" fill="#CCCCD1"/>
<path opacity="0.06" d="M54.5862 116.885C72.9388 116.885 87.8165 111.877 87.8165 105.7C87.8165 99.5228 72.9388 94.5151 54.5862 94.5151C36.2337 94.5151 21.356 99.5228 21.356 105.7C21.356 111.877 36.2337 116.885 54.5862 116.885Z" fill="#CBCBD0"/>
<path opacity="0.06" d="M54.5866 116.832C72.8623 116.832 87.6776 111.848 87.6776 105.7C87.6776 99.5518 72.8623 94.5679 54.5866 94.5679C36.311 94.5679 21.4956 99.5518 21.4956 105.7C21.4956 111.848 36.311 116.832 54.5866 116.832Z" fill="#CACACF"/>
<path opacity="0.06" d="M54.5865 116.797C72.7852 116.797 87.5382 111.829 87.5382 105.7C87.5382 99.5716 72.7852 94.6035 54.5865 94.6035C36.3878 94.6035 21.6348 99.5716 21.6348 105.7C21.6348 111.829 36.3878 116.797 54.5865 116.797Z" fill="#C9C9CE"/>
<path opacity="0.07" d="M54.5864 116.743C72.7082 116.743 87.3988 111.799 87.3988 105.7C87.3988 99.6006 72.7082 94.6562 54.5864 94.6562C36.4646 94.6562 21.7739 99.6006 21.7739 105.7C21.7739 111.799 36.4646 116.743 54.5864 116.743Z" fill="#C8C8CD"/>
<path opacity="0.07" d="M54.5863 116.69C72.6312 116.69 87.2594 111.77 87.2594 105.7C87.2594 99.63 72.6312 94.7095 54.5863 94.7095C36.5414 94.7095 21.9131 99.63 21.9131 105.7C21.9131 111.77 36.5414 116.69 54.5863 116.69Z" fill="#C7C7CC"/>
<path opacity="0.07" d="M54.5866 116.655C72.5546 116.655 87.1205 111.75 87.1205 105.7C87.1205 99.6498 72.5546 94.7451 54.5866 94.7451C36.6187 94.7451 22.0527 99.6498 22.0527 105.7C22.0527 111.75 36.6187 116.655 54.5866 116.655Z" fill="#C6C6CB"/>
<path opacity="0.08" d="M54.5865 116.602C72.4776 116.602 86.9811 111.721 86.9811 105.7C86.9811 99.6793 72.4776 94.7983 54.5865 94.7983C36.6955 94.7983 22.1919 99.6793 22.1919 105.7C22.1919 111.721 36.6955 116.602 54.5865 116.602Z" fill="#C5C5CA"/>
<path opacity="0.08" d="M54.5864 116.549C72.4005 116.549 86.8418 111.691 86.8418 105.7C86.8418 99.7082 72.4005 94.8511 54.5864 94.8511C36.7723 94.8511 22.3311 99.7082 22.3311 105.7C22.3311 111.691 36.7723 116.549 54.5864 116.549Z" fill="#C4C4C9"/>
<path opacity="0.08" d="M54.5863 116.496C72.3235 116.496 86.7024 111.662 86.7024 105.7C86.7024 99.7377 72.3235 94.9043 54.5863 94.9043C36.8491 94.9043 22.4702 99.7377 22.4702 105.7C22.4702 111.662 36.8491 116.496 54.5863 116.496Z" fill="#C3C3C8"/>
<path opacity="0.08" d="M54.5867 116.46C72.247 116.46 86.5635 111.642 86.5635 105.7C86.5635 99.757 72.247 94.9395 54.5867 94.9395C36.9264 94.9395 22.6099 99.757 22.6099 105.7C22.6099 111.642 36.9264 116.46 54.5867 116.46Z" fill="#C2C2C7"/>
<path opacity="0.09" d="M54.5865 116.407C72.1699 116.407 86.4241 111.613 86.4241 105.7C86.4241 99.7864 72.1699 94.9927 54.5865 94.9927C37.0032 94.9927 22.749 99.7864 22.749 105.7C22.749 111.613 37.0032 116.407 54.5865 116.407Z" fill="#C1C1C6"/>
<path opacity="0.09" d="M54.5864 116.354C72.0929 116.354 86.2847 111.584 86.2847 105.7C86.2847 99.8159 72.0929 95.0459 54.5864 95.0459C37.08 95.0459 22.8882 99.8159 22.8882 105.7C22.8882 111.584 37.08 116.354 54.5864 116.354Z" fill="#C0C0C5"/>
<path opacity="0.09" d="M54.5863 116.301C72.0158 116.301 86.1453 111.554 86.1453 105.7C86.1453 99.8449 72.0158 95.0986 54.5863 95.0986C37.1568 95.0986 23.0273 99.8449 23.0273 105.7C23.0273 111.554 37.1568 116.301 54.5863 116.301Z" fill="#BFBFC4"/>
<path opacity="0.09" d="M54.5867 116.265C71.9393 116.265 86.0064 111.535 86.0064 105.7C86.0064 99.8647 71.9393 95.1343 54.5867 95.1343C37.2341 95.1343 23.167 99.8647 23.167 105.7C23.167 111.535 37.2341 116.265 54.5867 116.265Z" fill="#BEBEC3"/>
<path opacity="0.1" d="M54.5866 116.213C71.8623 116.213 85.867 111.506 85.867 105.7C85.867 99.8941 71.8623 95.1875 54.5866 95.1875C37.3109 95.1875 23.3062 99.8941 23.3062 105.7C23.3062 111.506 37.3109 116.213 54.5866 116.213Z" fill="#BDBDC2"/>
<path opacity="0.1" d="M54.5864 116.16C71.7852 116.16 85.7276 111.477 85.7276 105.7C85.7276 99.9236 71.7852 95.2407 54.5864 95.2407C37.3877 95.2407 23.4453 99.9236 23.4453 105.7C23.4453 111.477 37.3877 116.16 54.5864 116.16Z" fill="#BCBCC1"/>
<path opacity="0.1" d="M54.5863 116.106C71.7082 116.106 85.5882 111.447 85.5882 105.7C85.5882 99.9525 71.7082 95.2935 54.5863 95.2935C37.4645 95.2935 23.5845 99.9525 23.5845 105.7C23.5845 111.447 37.4645 116.106 54.5863 116.106Z" fill="#BBBBC0"/>
<path opacity="0.1" d="M54.5867 116.07C71.6316 116.07 85.4493 111.427 85.4493 105.7C85.4493 99.9718 71.6316 95.3286 54.5867 95.3286C37.5418 95.3286 23.7241 99.9718 23.7241 105.7C23.7241 111.427 37.5418 116.07 54.5867 116.07Z" fill="#BABABF"/>
<path opacity="0.11" d="M54.5866 116.018C71.5546 116.018 85.3099 111.398 85.3099 105.7C85.3099 100.001 71.5546 95.3818 54.5866 95.3818C37.6186 95.3818 23.8633 100.001 23.8633 105.7C23.8633 111.398 37.6186 116.018 54.5866 116.018Z" fill="#B9B9BE"/>
<path opacity="0.11" d="M54.5865 115.965C71.4776 115.965 85.1705 111.369 85.1705 105.7C85.1705 100.031 71.4776 95.4351 54.5865 95.4351C37.6954 95.4351 24.0024 100.031 24.0024 105.7C24.0024 111.369 37.6954 115.965 54.5865 115.965Z" fill="#B8B8BD"/>
<path opacity="0.11" d="M54.5863 115.929C71.4005 115.929 85.0311 111.35 85.0311 105.7C85.0311 100.051 71.4005 95.4707 54.5863 95.4707C37.7722 95.4707 24.1416 100.051 24.1416 105.7C24.1416 111.35 37.7722 115.929 54.5863 115.929Z" fill="#B7B7BC"/>
<path opacity="0.11" d="M54.5867 115.876C71.324 115.876 84.8922 111.32 84.8922 105.7C84.8922 100.08 71.324 95.5234 54.5867 95.5234C37.8495 95.5234 24.2812 100.08 24.2812 105.7C24.2812 111.32 37.8495 115.876 54.5867 115.876Z" fill="#B6B6BB"/>
<path opacity="0.12" d="M54.5866 115.823C71.2469 115.823 84.7528 111.291 84.7528 105.7C84.7528 100.109 71.2469 95.5767 54.5866 95.5767C37.9263 95.5767 24.4204 100.109 24.4204 105.7C24.4204 111.291 37.9263 115.823 54.5866 115.823Z" fill="#B5B5BA"/>
<path opacity="0.12" d="M54.5865 115.77C71.1699 115.77 84.6134 111.261 84.6134 105.7C84.6134 100.138 71.1699 95.6299 54.5865 95.6299C38.0031 95.6299 24.5596 100.138 24.5596 105.7C24.5596 111.261 38.0031 115.77 54.5865 115.77Z" fill="#B4B4B9"/>
<path opacity="0.12" d="M54.5864 115.734C71.0928 115.734 84.474 111.242 84.474 105.7C84.474 100.158 71.0928 95.665 54.5864 95.665C38.0799 95.665 24.6987 100.158 24.6987 105.7C24.6987 111.242 38.0799 115.734 54.5864 115.734Z" fill="#B3B3B8"/>
<path opacity="0.12" d="M54.5863 115.681C71.0158 115.681 84.3346 111.213 84.3346 105.7C84.3346 100.187 71.0158 95.7183 54.5863 95.7183C38.1567 95.7183 24.8379 100.187 24.8379 105.7C24.8379 111.213 38.1567 115.681 54.5863 115.681Z" fill="#B2B2B7"/>
<path opacity="0.13" d="M54.5866 115.628C70.9393 115.628 84.1957 111.183 84.1957 105.7C84.1957 100.217 70.9393 95.7715 54.5866 95.7715C38.234 95.7715 24.9775 100.217 24.9775 105.7C24.9775 111.183 38.234 115.628 54.5866 115.628Z" fill="#B1B1B6"/>
<path opacity="0.13" d="M54.5865 115.575C70.8622 115.575 84.0563 111.154 84.0563 105.7C84.0563 100.246 70.8622 95.8247 54.5865 95.8247C38.3108 95.8247 25.1167 100.246 25.1167 105.7C25.1167 111.154 38.3108 115.575 54.5865 115.575Z" fill="#B0B0B5"/>
<path opacity="0.13" d="M54.5864 115.54C70.7852 115.54 83.9169 111.134 83.9169 105.7C83.9169 100.265 70.7852 95.8599 54.5864 95.8599C38.3876 95.8599 25.2559 100.265 25.2559 105.7C25.2559 111.134 38.3876 115.54 54.5864 115.54Z" fill="#AFAFB4"/>
<path opacity="0.14" d="M54.5863 115.487C70.7082 115.487 83.7775 111.105 83.7775 105.7C83.7775 100.295 70.7082 95.9131 54.5863 95.9131C38.4644 95.9131 25.395 100.295 25.395 105.7C25.395 111.105 38.4644 115.487 54.5863 115.487Z" fill="#AEAEB3"/>
<path opacity="0.14" d="M54.5866 115.433C70.6316 115.433 83.6386 111.075 83.6386 105.7C83.6386 100.324 70.6316 95.9658 54.5866 95.9658C38.5417 95.9658 25.5347 100.324 25.5347 105.7C25.5347 111.075 38.5417 115.433 54.5866 115.433Z" fill="#ADADB2"/>
<path opacity="0.14" d="M54.5865 115.398C70.5546 115.398 83.4992 111.056 83.4992 105.7C83.4992 100.344 70.5546 96.0015 54.5865 96.0015C38.6185 96.0015 25.6738 100.344 25.6738 105.7C25.6738 111.056 38.6185 115.398 54.5865 115.398Z" fill="#ACACB1"/>
<path opacity="0.14" d="M54.5864 115.345C70.474 115.345 83.3535 111.027 83.3535 105.7C83.3535 100.373 70.474 96.0547 54.5864 96.0547C38.6988 96.0547 25.8193 100.373 25.8193 105.7C25.8193 111.027 38.6988 115.345 54.5864 115.345Z" fill="#ABABB0"/>
<path opacity="0.15" d="M54.5863 115.292C70.397 115.292 83.2141 110.998 83.2141 105.7C83.2141 100.402 70.397 96.1079 54.5863 96.1079C38.7756 96.1079 25.9585 100.402 25.9585 105.7C25.9585 110.998 38.7756 115.292 54.5863 115.292Z" fill="#AAAAAF"/>
<path opacity="0.15" d="M54.5867 115.239C70.3205 115.239 83.0752 110.968 83.0752 105.7C83.0752 100.431 70.3205 96.1606 54.5867 96.1606C38.8529 96.1606 26.0981 100.431 26.0981 105.7C26.0981 110.968 38.8529 115.239 54.5867 115.239Z" fill="#A9A9AE"/>
<path opacity="0.15" d="M54.5866 115.204C70.2434 115.204 82.9358 110.949 82.9358 105.7C82.9358 100.451 70.2434 96.1963 54.5866 96.1963C38.9297 96.1963 26.2373 100.451 26.2373 105.7C26.2373 110.949 38.9297 115.204 54.5866 115.204Z" fill="#A9A9AD"/>
<path opacity="0.15" d="M54.5864 115.15C70.1664 115.15 82.7964 110.919 82.7964 105.7C82.7964 100.48 70.1664 96.249 54.5864 96.249C39.0065 96.249 26.3765 100.48 26.3765 105.7C26.3765 110.919 39.0065 115.15 54.5864 115.15Z" fill="#A8A8AC"/>
<path opacity="0.16" d="M54.5863 115.097C70.0893 115.097 82.657 110.89 82.657 105.7C82.657 100.51 70.0893 96.3022 54.5863 96.3022C39.0833 96.3022 26.5156 100.51 26.5156 105.7C26.5156 110.89 39.0833 115.097 54.5863 115.097Z" fill="#A7A7AB"/>
<path opacity="0.16" d="M54.5867 115.044C70.0128 115.044 82.5181 110.861 82.5181 105.7C82.5181 100.539 70.0128 96.3555 54.5867 96.3555C39.1606 96.3555 26.6553 100.539 26.6553 105.7C26.6553 110.861 39.1606 115.044 54.5867 115.044Z" fill="#A6A6AA"/>
<path opacity="0.16" d="M54.5866 115.009C69.9358 115.009 82.3787 110.841 82.3787 105.7C82.3787 100.558 69.9358 96.3906 54.5866 96.3906C39.2374 96.3906 26.7944 100.558 26.7944 105.7C26.7944 110.841 39.2374 115.009 54.5866 115.009Z" fill="#A5A5A9"/>
<path opacity="0.16" d="M54.5865 114.956C69.8587 114.956 82.2393 110.812 82.2393 105.7C82.2393 100.588 69.8587 96.4438 54.5865 96.4438C39.3142 96.4438 26.9336 100.588 26.9336 105.7C26.9336 110.812 39.3142 114.956 54.5865 114.956Z" fill="#A4A4A8"/>
<path opacity="0.17" d="M54.5863 114.903C69.7817 114.903 82.0999 110.783 82.0999 105.7C82.0999 100.617 69.7817 96.4971 54.5863 96.4971C39.391 96.4971 27.0728 100.617 27.0728 105.7C27.0728 110.783 39.391 114.903 54.5863 114.903Z" fill="#A3A3A7"/>
<path opacity="0.17" d="M54.5867 114.85C69.7051 114.85 81.961 110.753 81.961 105.7C81.961 100.647 69.7051 96.5503 54.5867 96.5503C39.4683 96.5503 27.2124 100.647 27.2124 105.7C27.2124 110.753 39.4683 114.85 54.5867 114.85Z" fill="#A2A2A6"/>
<path opacity="0.17" d="M54.5866 114.814C69.6281 114.814 81.8216 110.734 81.8216 105.7C81.8216 100.666 69.6281 96.5854 54.5866 96.5854C39.5451 96.5854 27.3516 100.666 27.3516 105.7C27.3516 110.734 39.5451 114.814 54.5866 114.814Z" fill="#A1A1A5"/>
<path opacity="0.17" d="M54.5865 114.761C69.5511 114.761 81.6822 110.704 81.6822 105.7C81.6822 100.696 69.5511 96.6387 54.5865 96.6387C39.6219 96.6387 27.4907 100.696 27.4907 105.7C27.4907 110.704 39.6219 114.761 54.5865 114.761Z" fill="#A0A0A4"/>
<path opacity="0.18" d="M54.5864 114.708C69.474 114.708 81.5429 110.675 81.5429 105.7C81.5429 100.725 69.474 96.6919 54.5864 96.6919C39.6987 96.6919 27.6299 100.725 27.6299 105.7C27.6299 110.675 39.6987 114.708 54.5864 114.708Z" fill="#9F9FA3"/>
<path opacity="0.18" d="M54.5862 114.673C69.397 114.673 81.4035 110.655 81.4035 105.7C81.4035 100.744 69.397 96.7271 54.5862 96.7271C39.7755 96.7271 27.769 100.744 27.769 105.7C27.769 110.655 39.7755 114.673 54.5862 114.673Z" fill="#9E9EA2"/>
<path opacity="0.18" d="M54.5866 114.62C69.3204 114.62 81.2645 110.626 81.2645 105.7C81.2645 100.774 69.3204 96.7803 54.5866 96.7803C39.8528 96.7803 27.9087 100.774 27.9087 105.7C27.9087 110.626 39.8528 114.62 54.5866 114.62Z" fill="#9D9DA1"/>
<path opacity="0.18" d="M54.5865 114.566C69.2434 114.566 81.1252 110.597 81.1252 105.7C81.1252 100.803 69.2434 96.833 54.5865 96.833C39.9296 96.833 28.0479 100.803 28.0479 105.7C28.0479 110.597 39.9296 114.566 54.5865 114.566Z" fill="#9C9CA0"/>
<path opacity="0.19" d="M54.5864 114.513C69.1664 114.513 80.9858 110.567 80.9858 105.7C80.9858 100.832 69.1664 96.8862 54.5864 96.8862C40.0064 96.8862 28.187 100.832 28.187 105.7C28.187 110.567 40.0064 114.513 54.5864 114.513Z" fill="#9B9B9F"/>
<path opacity="0.19" d="M54.5863 114.478C69.0893 114.478 80.8464 110.548 80.8464 105.7C80.8464 100.852 69.0893 96.9219 54.5863 96.9219C40.0832 96.9219 28.3262 100.852 28.3262 105.7C28.3262 110.548 40.0832 114.478 54.5863 114.478Z" fill="#9A9A9E"/>
<path opacity="0.19" d="M54.5866 114.425C69.0128 114.425 80.7075 110.519 80.7075 105.7C80.7075 100.881 69.0128 96.9751 54.5866 96.9751C40.1605 96.9751 28.4658 100.881 28.4658 105.7C28.4658 110.519 40.1605 114.425 54.5866 114.425Z" fill="#99999D"/>
<path opacity="0.19" d="M54.5865 114.372C68.9357 114.372 80.5681 110.49 80.5681 105.7C80.5681 100.911 68.9357 97.0283 54.5865 97.0283C40.2373 97.0283 28.605 100.911 28.605 105.7C28.605 110.49 40.2373 114.372 54.5865 114.372Z" fill="#98989C"/>
<path opacity="0.2" d="M54.5864 114.319C68.8587 114.319 80.4287 110.46 80.4287 105.7C80.4287 100.94 68.8587 97.0811 54.5864 97.0811C40.3141 97.0811 28.7441 100.94 28.7441 105.7C28.7441 110.46 40.3141 114.319 54.5864 114.319Z" fill="#97979B"/>
<path opacity="0.2" d="M54.5863 114.284C68.7817 114.284 80.2893 110.441 80.2893 105.7C80.2893 100.96 68.7817 97.1167 54.5863 97.1167C40.3909 97.1167 28.8833 100.96 28.8833 105.7C28.8833 110.441 40.3909 114.284 54.5863 114.284Z" fill="#96969A"/>
<path opacity="0.2" d="M54.5867 114.23C68.7051 114.23 80.1504 110.411 80.1504 105.7C80.1504 100.989 68.7051 97.1694 54.5867 97.1694C40.4682 97.1694 29.0229 100.989 29.0229 105.7C29.0229 110.411 40.4682 114.23 54.5867 114.23Z" fill="#959599"/>
<path opacity="0.21" d="M54.5865 114.177C68.6281 114.177 80.011 110.382 80.011 105.7C80.011 101.018 68.6281 97.2227 54.5865 97.2227C40.545 97.2227 29.1621 101.018 29.1621 105.7C29.1621 110.382 40.545 114.177 54.5865 114.177Z" fill="#949498"/>
<path opacity="0.21" d="M54.5864 114.142C68.551 114.142 79.8716 110.362 79.8716 105.7C79.8716 101.038 68.551 97.2583 54.5864 97.2583C40.6218 97.2583 29.3013 101.038 29.3013 105.7C29.3013 110.362 40.6218 114.142 54.5864 114.142Z" fill="#939397"/>
<path opacity="0.21" d="M54.5863 114.089C68.474 114.089 79.7322 110.333 79.7322 105.7C79.7322 101.067 68.474 97.311 54.5863 97.311C40.6986 97.311 29.4404 101.067 29.4404 105.7C29.4404 110.333 40.6986 114.089 54.5863 114.089Z" fill="#929296"/>
<path opacity="0.21" d="M54.5867 114.036C68.3974 114.036 79.5933 110.304 79.5933 105.7C79.5933 101.096 68.3974 97.3643 54.5867 97.3643C40.7759 97.3643 29.5801 101.096 29.5801 105.7C29.5801 110.304 40.7759 114.036 54.5867 114.036Z" fill="#919195"/>
<path opacity="0.22" d="M54.5866 113.983C68.3204 113.983 79.4539 110.274 79.4539 105.7C79.4539 101.126 68.3204 97.4175 54.5866 97.4175C40.8527 97.4175 29.7192 101.126 29.7192 105.7C29.7192 110.274 40.8527 113.983 54.5866 113.983Z" fill="#909094"/>
<path opacity="0.22" d="M54.5864 113.947C68.2434 113.947 79.3145 110.255 79.3145 105.7C79.3145 101.145 68.2434 97.4526 54.5864 97.4526C40.9295 97.4526 29.8584 101.145 29.8584 105.7C29.8584 110.255 40.9295 113.947 54.5864 113.947Z" fill="#8F8F93"/>
<path opacity="0.22" d="M54.5863 113.894C68.1663 113.894 79.1751 110.225 79.1751 105.7C79.1751 101.174 68.1663 97.5059 54.5863 97.5059C41.0063 97.5059 29.9976 101.174 29.9976 105.7C29.9976 110.225 41.0063 113.894 54.5863 113.894Z" fill="#8E8E92"/>
<path opacity="0.22" d="M54.5867 113.841C68.0898 113.841 79.0362 110.196 79.0362 105.7C79.0362 101.203 68.0898 97.5586 54.5867 97.5586C41.0836 97.5586 30.1372 101.203 30.1372 105.7C30.1372 110.196 41.0836 113.841 54.5867 113.841Z" fill="#8D8D91"/>
<path opacity="0.23" d="M54.5866 113.788C68.0127 113.788 78.8968 110.167 78.8968 105.7C78.8968 101.233 68.0127 97.6118 54.5866 97.6118C41.1604 97.6118 30.2764 101.233 30.2764 105.7C30.2764 110.167 41.1604 113.788 54.5866 113.788Z" fill="#8C8C90"/>
<path opacity="0.23" d="M54.5865 113.752C67.9357 113.752 78.7574 110.147 78.7574 105.7C78.7574 101.253 67.9357 97.6475 54.5865 97.6475C41.2372 97.6475 30.4155 101.253 30.4155 105.7C30.4155 110.147 41.2372 113.752 54.5865 113.752Z" fill="#8B8B8F"/>
<path opacity="0.23" d="M54.5863 113.7C67.8587 113.7 78.618 110.118 78.618 105.7C78.618 101.282 67.8587 97.7007 54.5863 97.7007C41.314 97.7007 30.5547 101.282 30.5547 105.7C30.5547 110.118 41.314 113.7 54.5863 113.7Z" fill="#8A8A8E"/>
<path opacity="0.23" d="M54.5867 113.646C67.7786 113.646 78.4728 110.088 78.4728 105.7C78.4728 101.311 67.7786 97.7534 54.5867 97.7534C41.3948 97.7534 30.7007 101.311 30.7007 105.7C30.7007 110.088 41.3948 113.646 54.5867 113.646Z" fill="#89898D"/>
<path opacity="0.24" d="M54.5866 113.593C67.7016 113.593 78.3334 110.059 78.3334 105.7C78.3334 101.341 67.7016 97.8066 54.5866 97.8066C41.4716 97.8066 30.8398 101.341 30.8398 105.7C30.8398 110.059 41.4716 113.593 54.5866 113.593Z" fill="#88888C"/>
<path opacity="0.24" d="M54.5865 113.557C67.6246 113.557 78.194 110.039 78.194 105.7C78.194 101.36 67.6246 97.8418 54.5865 97.8418C41.5484 97.8418 30.979 101.36 30.979 105.7C30.979 110.039 41.5484 113.557 54.5865 113.557Z" fill="#87878B"/>
<path opacity="0.24" d="M54.5864 113.505C67.5475 113.505 78.0546 110.01 78.0546 105.7C78.0546 101.389 67.5475 97.895 54.5864 97.895C41.6252 97.895 31.1182 101.389 31.1182 105.7C31.1182 110.01 41.6252 113.505 54.5864 113.505Z" fill="#86868A"/>
<path opacity="0.24" d="M54.5863 113.452C67.4705 113.452 77.9152 109.981 77.9152 105.7C77.9152 101.419 67.4705 97.9482 54.5863 97.9482C41.702 97.9482 31.2573 101.419 31.2573 105.7C31.2573 109.981 41.702 113.452 54.5863 113.452Z" fill="#858589"/>
<path opacity="0.25" d="M54.5866 113.416C67.3939 113.416 77.7763 109.961 77.7763 105.7C77.7763 101.438 67.3939 97.9834 54.5866 97.9834C41.7793 97.9834 31.397 101.438 31.397 105.7C31.397 109.961 41.7793 113.416 54.5866 113.416Z" fill="#848488"/>
<path opacity="0.25" d="M54.5865 113.363C67.3169 113.363 77.6369 109.932 77.6369 105.7C77.6369 101.468 67.3169 98.0366 54.5865 98.0366C41.8561 98.0366 31.5361 101.468 31.5361 105.7C31.5361 109.932 41.8561 113.363 54.5865 113.363Z" fill="#838387"/>
<path opacity="0.25" d="M54.5864 113.31C67.2399 113.31 77.4975 109.903 77.4975 105.7C77.4975 101.497 67.2399 98.0898 54.5864 98.0898C41.9329 98.0898 31.6753 101.497 31.6753 105.7C31.6753 109.903 41.9329 113.31 54.5864 113.31Z" fill="#838386"/>
<path opacity="0.25" d="M54.5863 113.257C67.1628 113.257 77.3581 109.874 77.3581 105.7C77.3581 101.526 67.1628 98.1431 54.5863 98.1431C42.0098 98.1431 31.8145 101.526 31.8145 105.7C31.8145 109.874 42.0098 113.257 54.5863 113.257Z" fill="#828285"/>
<path opacity="0.26" d="M54.5867 113.221C67.0863 113.221 77.2192 109.854 77.2192 105.7C77.2192 101.546 67.0863 98.1782 54.5867 98.1782C42.087 98.1782 31.9541 101.546 31.9541 105.7C31.9541 109.854 42.087 113.221 54.5867 113.221Z" fill="#818184"/>
<path opacity="0.26" d="M54.5865 113.168C67.0092 113.168 77.0798 109.825 77.0798 105.7C77.0798 101.575 67.0092 98.2314 54.5865 98.2314C42.1638 98.2314 32.0933 101.575 32.0933 105.7C32.0933 109.825 42.1638 113.168 54.5865 113.168Z" fill="#808083"/>
<path opacity="0.26" d="M54.5864 113.115C66.9322 113.115 76.9404 109.795 76.9404 105.7C76.9404 101.605 66.9322 98.2847 54.5864 98.2847C42.2406 98.2847 32.2324 101.605 32.2324 105.7C32.2324 109.795 42.2406 113.115 54.5864 113.115Z" fill="#7F7F82"/>
<path opacity="0.26" d="M54.5863 113.062C66.8552 113.062 76.801 109.766 76.801 105.7C76.801 101.634 66.8552 98.3379 54.5863 98.3379C42.3175 98.3379 32.3716 101.634 32.3716 105.7C32.3716 109.766 42.3175 113.062 54.5863 113.062Z" fill="#7E7E81"/>
<path opacity="0.27" d="M54.5867 113.027C66.7786 113.027 76.6621 109.746 76.6621 105.7C76.6621 101.653 66.7786 98.373 54.5867 98.373C42.3947 98.373 32.5112 101.653 32.5112 105.7C32.5112 109.746 42.3947 113.027 54.5867 113.027Z" fill="#7D7D80"/>
<path opacity="0.27" d="M54.5866 112.973C66.7016 112.973 76.5227 109.717 76.5227 105.7C76.5227 101.682 66.7016 98.4258 54.5866 98.4258C42.4715 98.4258 32.6504 101.682 32.6504 105.7C32.6504 109.717 42.4715 112.973 54.5866 112.973Z" fill="#7C7C7F"/>
<path opacity="0.27" d="M54.5864 112.92C66.6245 112.92 76.3833 109.688 76.3833 105.7C76.3833 101.712 66.6245 98.479 54.5864 98.479C42.5484 98.479 32.7896 101.712 32.7896 105.7C32.7896 109.688 42.5484 112.92 54.5864 112.92Z" fill="#7B7B7E"/>
<path opacity="0.28" d="M54.5863 112.885C66.5475 112.885 76.2439 109.668 76.2439 105.7C76.2439 101.732 66.5475 98.5146 54.5863 98.5146C42.6252 98.5146 32.9287 101.732 32.9287 105.7C32.9287 109.668 42.6252 112.885 54.5863 112.885Z" fill="#7A7A7D"/>
<path opacity="0.28" d="M54.5867 112.832C66.471 112.832 76.105 109.639 76.105 105.7C76.105 101.761 66.471 98.5679 54.5867 98.5679C42.7024 98.5679 33.0684 101.761 33.0684 105.7C33.0684 109.639 42.7024 112.832 54.5867 112.832Z" fill="#79797C"/>
<path opacity="0.28" d="M54.5866 112.779C66.3939 112.779 75.9656 109.609 75.9656 105.7C75.9656 101.79 66.3939 98.6206 54.5866 98.6206C42.7793 98.6206 33.2075 101.79 33.2075 105.7C33.2075 109.609 42.7793 112.779 54.5866 112.779Z" fill="#78787B"/>
<path opacity="0.28" d="M54.5865 112.726C66.3169 112.726 75.8262 109.58 75.8262 105.7C75.8262 101.819 66.3169 98.6738 54.5865 98.6738C42.8561 98.6738 33.3467 101.819 33.3467 105.7C33.3467 109.58 42.8561 112.726 54.5865 112.726Z" fill="#77777A"/>
<path opacity="0.29" d="M54.5863 112.69C66.2398 112.69 75.6869 109.56 75.6869 105.7C75.6869 101.839 66.2398 98.709 54.5863 98.709C42.9329 98.709 33.4858 101.839 33.4858 105.7C33.4858 109.56 42.9329 112.69 54.5863 112.69Z" fill="#767679"/>
<path opacity="0.29" d="M54.5867 112.637C66.1633 112.637 75.5479 109.531 75.5479 105.7C75.5479 101.868 66.1633 98.7622 54.5867 98.7622C43.0102 98.7622 33.6255 101.868 33.6255 105.7C33.6255 109.531 43.0102 112.637 54.5867 112.637Z" fill="#757578"/>
<path opacity="0.29" d="M54.5866 112.584C66.0862 112.584 75.4086 109.502 75.4086 105.7C75.4086 101.898 66.0862 98.8154 54.5866 98.8154C43.087 98.8154 33.7646 101.898 33.7646 105.7C33.7646 109.502 43.087 112.584 54.5866 112.584Z" fill="#747477"/>
<path opacity="0.29" d="M54.5865 112.531C66.0092 112.531 75.2692 109.473 75.2692 105.7C75.2692 101.927 66.0092 98.8687 54.5865 98.8687C43.1638 98.8687 33.9038 101.927 33.9038 105.7C33.9038 109.473 43.1638 112.531 54.5865 112.531Z" fill="#737376"/>
<path opacity="0.3" d="M54.5864 112.496C65.9322 112.496 75.1298 109.453 75.1298 105.7C75.1298 101.946 65.9322 98.9038 54.5864 98.9038C43.2406 98.9038 34.043 101.946 34.043 105.7C34.043 109.453 43.2406 112.496 54.5864 112.496Z" fill="#727275"/>
<path opacity="0.3" d="M54.5867 112.443C65.8556 112.443 74.9909 109.424 74.9909 105.7C74.9909 101.976 65.8556 98.957 54.5867 98.957C43.3179 98.957 34.1826 101.976 34.1826 105.7C34.1826 109.424 43.3179 112.443 54.5867 112.443Z" fill="#717174"/>
<path opacity="0.3" d="M54.5866 112.39C65.7786 112.39 74.8515 109.395 74.8515 105.7C74.8515 102.005 65.7786 99.0103 54.5866 99.0103C43.3947 99.0103 34.3218 102.005 34.3218 105.7C34.3218 109.395 43.3947 112.39 54.5866 112.39Z" fill="#707073"/>
<path opacity="0.3" d="M54.5865 112.336C65.7015 112.336 74.7121 109.365 74.7121 105.7C74.7121 102.034 65.7015 99.063 54.5865 99.063C43.4715 99.063 34.4609 102.034 34.4609 105.7C34.4609 109.365 43.4715 112.336 54.5865 112.336Z" fill="#6F6F72"/>
<path opacity="0.31" d="M54.5864 112.301C65.6245 112.301 74.5727 109.346 74.5727 105.7C74.5727 102.054 65.6245 99.0986 54.5864 99.0986C43.5483 99.0986 34.6001 102.054 34.6001 105.7C34.6001 109.346 43.5483 112.301 54.5864 112.301Z" fill="#6E6E71"/>
<path opacity="0.31" d="M54.5863 112.248C65.5475 112.248 74.4333 109.317 74.4333 105.7C74.4333 102.084 65.5475 99.1519 54.5863 99.1519C43.6251 99.1519 34.7393 102.084 34.7393 105.7C34.7393 109.317 43.6251 112.248 54.5863 112.248Z" fill="#6D6D70"/>
<path opacity="0.31" d="M54.5866 112.195C65.4709 112.195 74.2944 109.287 74.2944 105.7C74.2944 102.113 65.4709 99.2051 54.5866 99.2051C43.7024 99.2051 34.8789 102.113 34.8789 105.7C34.8789 109.287 43.7024 112.195 54.5866 112.195Z" fill="#6C6C6F"/>
<path opacity="0.31" d="M54.5865 112.16C65.3939 112.16 74.155 109.268 74.155 105.7C74.155 102.132 65.3939 99.2402 54.5865 99.2402C43.7792 99.2402 35.0181 102.132 35.0181 105.7C35.0181 109.268 43.7792 112.16 54.5865 112.16Z" fill="#6B6B6E"/>
<path opacity="0.32" d="M54.5864 112.107C65.3168 112.107 74.0156 109.238 74.0156 105.7C74.0156 102.162 65.3168 99.2935 54.5864 99.2935C43.856 99.2935 35.1572 102.162 35.1572 105.7C35.1572 109.238 43.856 112.107 54.5864 112.107Z" fill="#6A6A6D"/>
<path opacity="0.32" d="M54.5863 112.053C65.2398 112.053 73.8762 109.209 73.8762 105.7C73.8762 102.191 65.2398 99.3462 54.5863 99.3462C43.9328 99.3462 35.2964 102.191 35.2964 105.7C35.2964 109.209 43.9328 112.053 54.5863 112.053Z" fill="#69696C"/>
<path opacity="0.32" d="M54.5867 112C65.1633 112 73.7373 109.179 73.7373 105.7C73.7373 102.22 65.1633 99.3994 54.5867 99.3994C44.0101 99.3994 35.436 102.22 35.436 105.7C35.436 109.179 44.0101 112 54.5867 112Z" fill="#68686B"/>
<path opacity="0.32" d="M54.5866 111.965C65.0827 111.965 73.5916 109.16 73.5916 105.7C73.5916 102.24 65.0827 99.4351 54.5866 99.4351C44.0904 99.4351 35.5815 102.24 35.5815 105.7C35.5815 109.16 44.0904 111.965 54.5866 111.965Z" fill="#67676A"/>
<path opacity="0.33" d="M54.5864 111.912C65.0057 111.912 73.4522 109.13 73.4522 105.7C73.4522 102.269 65.0057 99.4878 54.5864 99.4878C44.1672 99.4878 35.7207 102.269 35.7207 105.7C35.7207 109.13 44.1672 111.912 54.5864 111.912Z" fill="#666669"/>
<path opacity="0.33" d="M54.5863 111.859C64.9287 111.859 73.3128 109.101 73.3128 105.7C73.3128 102.298 64.9287 99.541 54.5863 99.541C44.244 99.541 35.8599 102.298 35.8599 105.7C35.8599 109.101 44.244 111.859 54.5863 111.859Z" fill="#656568"/>
<path opacity="0.33" d="M54.5867 111.806C64.8521 111.806 73.1739 109.072 73.1739 105.7C73.1739 102.328 64.8521 99.5942 54.5867 99.5942C44.3213 99.5942 35.9995 102.328 35.9995 105.7C35.9995 109.072 44.3213 111.806 54.5867 111.806Z" fill="#646467"/>
<path opacity="0.34" d="M54.5866 111.77C64.7751 111.77 73.0345 109.052 73.0345 105.7C73.0345 102.347 64.7751 99.6294 54.5866 99.6294C44.3981 99.6294 36.1387 102.347 36.1387 105.7C36.1387 109.052 44.3981 111.77 54.5866 111.77Z" fill="#636366"/>
<path opacity="0.34" d="M54.5865 111.717C64.698 111.717 72.8951 109.023 72.8951 105.7C72.8951 102.377 64.698 99.6826 54.5865 99.6826C44.4749 99.6826 36.2778 102.377 36.2778 105.7C36.2778 109.023 44.4749 111.717 54.5865 111.717Z" fill="#626265"/>
<path opacity="0.34" d="M54.5863 111.664C64.621 111.664 72.7557 108.993 72.7557 105.7C72.7557 102.406 64.621 99.7354 54.5863 99.7354C44.5517 99.7354 36.417 102.406 36.417 105.7C36.417 108.993 44.5517 111.664 54.5863 111.664Z" fill="#616164"/>
<path opacity="0.34" d="M54.5867 111.629C64.5445 111.629 72.6168 108.974 72.6168 105.7C72.6168 102.425 64.5445 99.771 54.5867 99.771C44.629 99.771 36.5566 102.425 36.5566 105.7C36.5566 108.974 44.629 111.629 54.5867 111.629Z" fill="#606063"/>
<path opacity="0.35" d="M54.5866 111.576C64.4674 111.576 72.4774 108.945 72.4774 105.7C72.4774 102.455 64.4674 99.8242 54.5866 99.8242C44.7058 99.8242 36.6958 102.455 36.6958 105.7C36.6958 108.945 44.7058 111.576 54.5866 111.576Z" fill="#5F5F62"/>
<path opacity="0.35" d="M54.5865 111.523C64.3904 111.523 72.338 108.916 72.338 105.7C72.338 102.484 64.3904 99.8774 54.5865 99.8774C44.7826 99.8774 36.835 102.484 36.835 105.7C36.835 108.916 44.7826 111.523 54.5865 111.523Z" fill="#5E5E61"/>
<path opacity="0.35" d="M54.5864 111.469C64.3133 111.469 72.1986 108.886 72.1986 105.7C72.1986 102.513 64.3133 99.9302 54.5864 99.9302C44.8594 99.9302 36.9741 102.513 36.9741 105.7C36.9741 108.886 44.8594 111.469 54.5864 111.469Z" fill="#5E5E60"/>
<path opacity="0.35" d="M54.5867 111.434C64.2368 111.434 72.0597 108.867 72.0597 105.7C72.0597 102.533 64.2368 99.9658 54.5867 99.9658C44.9367 99.9658 37.1138 102.533 37.1138 105.7C37.1138 108.867 44.9367 111.434 54.5867 111.434Z" fill="#5D5D5F"/>
<path opacity="0.36" d="M54.5866 111.381C64.1597 111.381 71.9203 108.838 71.9203 105.7C71.9203 102.563 64.1597 100.019 54.5866 100.019C45.0135 100.019 37.2529 102.563 37.2529 105.7C37.2529 108.838 45.0135 111.381 54.5866 111.381Z" fill="#5C5C5E"/>
<path opacity="0.36" d="M54.5865 111.328C64.0827 111.328 71.7809 108.808 71.7809 105.7C71.7809 102.592 64.0827 100.072 54.5865 100.072C45.0903 100.072 37.3921 102.592 37.3921 105.7C37.3921 108.808 45.0903 111.328 54.5865 111.328Z" fill="#5B5B5D"/>
<path opacity="0.36" d="M54.5864 111.275C64.0057 111.275 71.6415 108.779 71.6415 105.7C71.6415 102.621 64.0057 100.125 54.5864 100.125C45.1671 100.125 37.5312 102.621 37.5312 105.7C37.5312 108.779 45.1671 111.275 54.5864 111.275Z" fill="#5A5A5C"/>
<path opacity="0.36" d="M54.5863 111.239C63.9286 111.239 71.5021 108.759 71.5021 105.7C71.5021 102.641 63.9286 100.161 54.5863 100.161C45.2439 100.161 37.6704 102.641 37.6704 105.7C37.6704 108.759 45.2439 111.239 54.5863 111.239Z" fill="#59595B"/>
<path opacity="0.37" d="M54.5866 111.186C63.8521 111.186 71.3632 108.73 71.3632 105.7C71.3632 102.67 63.8521 100.213 54.5866 100.213C45.3212 100.213 37.8101 102.67 37.8101 105.7C37.8101 108.73 45.3212 111.186 54.5866 111.186Z" fill="#58585A"/>
<path opacity="0.37" d="M54.5865 111.133C63.7751 111.133 71.2238 108.701 71.2238 105.7C71.2238 102.699 63.7751 100.267 54.5865 100.267C45.398 100.267 37.9492 102.699 37.9492 105.7C37.9492 108.701 45.398 111.133 54.5865 111.133Z" fill="#575759"/>
<path opacity="0.37" d="M54.5864 111.08C63.698 111.08 71.0844 108.671 71.0844 105.7C71.0844 102.729 63.698 100.32 54.5864 100.32C45.4748 100.32 38.0884 102.729 38.0884 105.7C38.0884 108.671 45.4748 111.08 54.5864 111.08Z" fill="#565658"/>
<path opacity="0.37" d="M54.5863 111.045C63.621 111.045 70.945 108.652 70.945 105.7C70.945 102.748 63.621 100.355 54.5863 100.355C45.5516 100.355 38.2275 102.748 38.2275 105.7C38.2275 108.652 45.5516 111.045 54.5863 111.045Z" fill="#555557"/>
<path opacity="0.38" d="M54.5867 110.992C63.5444 110.992 70.8061 108.622 70.8061 105.7C70.8061 102.777 63.5444 100.408 54.5867 100.408C45.6289 100.408 38.3672 102.777 38.3672 105.7C38.3672 108.622 45.6289 110.992 54.5867 110.992Z" fill="#545456"/>
<path opacity="0.38" d="M54.5865 110.939C63.4674 110.939 70.6667 108.593 70.6667 105.7C70.6667 102.807 63.4674 100.461 54.5865 100.461C45.7057 100.461 38.5063 102.807 38.5063 105.7C38.5063 108.593 45.7057 110.939 54.5865 110.939Z" fill="#535355"/>
<path opacity="0.38" d="M54.5864 110.903C63.3903 110.903 70.5273 108.573 70.5273 105.7C70.5273 102.826 63.3903 100.497 54.5864 100.497C45.7825 100.497 38.6455 102.826 38.6455 105.7C38.6455 108.573 45.7825 110.903 54.5864 110.903Z" fill="#525254"/>
<path opacity="0.38" d="M54.5863 110.85C63.3133 110.85 70.3879 108.544 70.3879 105.7C70.3879 102.856 63.3133 100.55 54.5863 100.55C45.8593 100.55 38.7847 102.856 38.7847 105.7C38.7847 108.544 45.8593 110.85 54.5863 110.85Z" fill="#515153"/>
<path opacity="0.39" d="M54.5867 110.797C63.2368 110.797 70.249 108.515 70.249 105.7C70.249 102.885 63.2368 100.603 54.5867 100.603C45.9366 100.603 38.9243 102.885 38.9243 105.7C38.9243 108.515 45.9366 110.797 54.5867 110.797Z" fill="#505052"/>
<path opacity="0.39" d="M54.5866 110.744C63.1597 110.744 70.1096 108.485 70.1096 105.7C70.1096 102.914 63.1597 100.656 54.5866 100.656C46.0134 100.656 39.0635 102.914 39.0635 105.7C39.0635 108.485 46.0134 110.744 54.5866 110.744Z" fill="#4F4F51"/>
<path opacity="0.39" d="M54.5864 110.708C63.0827 110.708 69.9703 108.466 69.9703 105.7C69.9703 102.934 63.0827 100.691 54.5864 100.691C46.0902 100.691 39.2026 102.934 39.2026 105.7C39.2026 108.466 46.0902 110.708 54.5864 110.708Z" fill="#4E4E50"/>
<path opacity="0.39" d="M54.5863 110.655C63.0056 110.655 69.8309 108.437 69.8309 105.7C69.8309 102.963 63.0056 100.745 54.5863 100.745C46.167 100.745 39.3418 102.963 39.3418 105.7C39.3418 108.437 46.167 110.655 54.5863 110.655Z" fill="#4D4D4F"/>
<path opacity="0.4" d="M54.5867 110.602C62.9291 110.602 69.6919 108.408 69.6919 105.7C69.6919 102.993 62.9291 100.798 54.5867 100.798C46.2443 100.798 39.4814 102.993 39.4814 105.7C39.4814 108.408 46.2443 110.602 54.5867 110.602Z" fill="#4C4C4E"/>
<path opacity="0.4" d="M54.5866 110.549C62.8521 110.549 69.5526 108.378 69.5526 105.7C69.5526 103.022 62.8521 100.851 54.5866 100.851C46.3211 100.851 39.6206 103.022 39.6206 105.7C39.6206 108.378 46.3211 110.549 54.5866 110.549Z" fill="#4B4B4D"/>
<path opacity="0.4" d="M54.5865 110.514C62.775 110.514 69.4132 108.359 69.4132 105.7C69.4132 103.041 62.775 100.886 54.5865 100.886C46.3979 100.886 39.7598 103.041 39.7598 105.7C39.7598 108.359 46.3979 110.514 54.5865 110.514Z" fill="#4A4A4C"/>
<path opacity="0.41" d="M54.5863 110.46C62.698 110.46 69.2738 108.329 69.2738 105.7C69.2738 103.07 62.698 100.939 54.5863 100.939C46.4747 100.939 39.8989 103.07 39.8989 105.7C39.8989 108.329 46.4747 110.46 54.5863 110.46Z" fill="#49494B"/>
<path opacity="0.41" d="M54.5867 110.407C62.6214 110.407 69.1349 108.3 69.1349 105.7C69.1349 103.1 62.6214 100.992 54.5867 100.992C46.552 100.992 40.0386 103.1 40.0386 105.7C40.0386 108.3 46.552 110.407 54.5867 110.407Z" fill="#48484A"/>
<path opacity="0.41" d="M54.5866 110.372C62.5444 110.372 68.9955 108.28 68.9955 105.7C68.9955 103.12 62.5444 101.028 54.5866 101.028C46.6288 101.028 40.1777 103.12 40.1777 105.7C40.1777 108.28 46.6288 110.372 54.5866 110.372Z" fill="#474749"/>
<path opacity="0.41" d="M54.5865 110.319C62.4674 110.319 68.8561 108.251 68.8561 105.7C68.8561 103.149 62.4674 101.081 54.5865 101.081C46.7056 101.081 40.3169 103.149 40.3169 105.7C40.3169 108.251 46.7056 110.319 54.5865 110.319Z" fill="#464648"/>
<path opacity="0.42" d="M54.5864 110.266C62.3903 110.266 68.7167 108.222 68.7167 105.7C68.7167 103.178 62.3903 101.134 54.5864 101.134C46.7824 101.134 40.4561 103.178 40.4561 105.7C40.4561 108.222 46.7824 110.266 54.5864 110.266Z" fill="#454547"/>
<path opacity="0.42" d="M54.5863 110.213C62.3098 110.213 68.571 108.192 68.571 105.7C68.571 103.208 62.3098 101.187 54.5863 101.187C46.8627 101.187 40.6016 103.208 40.6016 105.7C40.6016 108.192 46.8627 110.213 54.5863 110.213Z" fill="#444446"/>
<path opacity="0.42" d="M54.5866 110.177C62.2333 110.177 68.4321 108.173 68.4321 105.7C68.4321 103.227 62.2333 101.222 54.5866 101.222C46.94 101.222 40.7412 103.227 40.7412 105.7C40.7412 108.173 46.94 110.177 54.5866 110.177Z" fill="#434345"/>
<path opacity="0.42" d="M54.5865 110.124C62.1562 110.124 68.2927 108.143 68.2927 105.7C68.2927 103.256 62.1562 101.275 54.5865 101.275C47.0168 101.275 40.8804 103.256 40.8804 105.7C40.8804 108.143 47.0168 110.124 54.5865 110.124Z" fill="#424244"/>
<path opacity="0.43" d="M54.5864 110.071C62.0792 110.071 68.1533 108.114 68.1533 105.7C68.1533 103.286 62.0792 101.329 54.5864 101.329C47.0936 101.329 41.0195 103.286 41.0195 105.7C41.0195 108.114 47.0936 110.071 54.5864 110.071Z" fill="#414143"/>
<path opacity="0.43" d="M54.5863 110.018C62.0021 110.018 68.0139 108.085 68.0139 105.7C68.0139 103.315 62.0021 101.382 54.5863 101.382C47.1704 101.382 41.1587 103.315 41.1587 105.7C41.1587 108.085 47.1704 110.018 54.5863 110.018Z" fill="#404042"/>
<path opacity="0.43" d="M54.5867 109.983C61.9256 109.983 67.875 108.065 67.875 105.7C67.875 103.334 61.9256 101.417 54.5867 101.417C47.2477 101.417 41.2983 103.334 41.2983 105.7C41.2983 108.065 47.2477 109.983 54.5867 109.983Z" fill="#3F3F41"/>
<path opacity="0.43" d="M54.5865 109.93C61.8486 109.93 67.7356 108.036 67.7356 105.7C67.7356 103.364 61.8486 101.47 54.5865 101.47C47.3245 101.47 41.4375 103.364 41.4375 105.7C41.4375 108.036 47.3245 109.93 54.5865 109.93Z" fill="#3E3E40"/>
<path opacity="0.44" d="M54.5864 109.876C61.7715 109.876 67.5962 108.006 67.5962 105.7C67.5962 103.393 61.7715 101.523 54.5864 101.523C47.4013 101.523 41.5767 103.393 41.5767 105.7C41.5767 108.006 47.4013 109.876 54.5864 109.876Z" fill="#3D3D3F"/>
<path opacity="0.44" d="M54.5863 109.823C61.6945 109.823 67.4568 107.977 67.4568 105.7C67.4568 103.422 61.6945 101.576 54.5863 101.576C47.4781 101.576 41.7158 103.422 41.7158 105.7C41.7158 107.977 47.4781 109.823 54.5863 109.823Z" fill="#3C3C3E"/>
<path opacity="0.44" d="M54.5867 109.788C61.6179 109.788 67.3179 107.958 67.3179 105.7C67.3179 103.442 61.6179 101.612 54.5867 101.612C47.5554 101.612 41.8555 103.442 41.8555 105.7C41.8555 107.958 47.5554 109.788 54.5867 109.788Z" fill="#3B3B3D"/>
<path opacity="0.44" d="M54.5866 109.735C61.5409 109.735 67.1785 107.929 67.1785 105.7C67.1785 103.472 61.5409 101.665 54.5866 101.665C47.6322 101.665 41.9946 103.472 41.9946 105.7C41.9946 107.929 47.6322 109.735 54.5866 109.735Z" fill="#3A3A3C"/>
<path opacity="0.45" d="M54.5864 109.682C61.4639 109.682 67.0391 107.899 67.0391 105.7C67.0391 103.501 61.4639 101.718 54.5864 101.718C47.709 101.718 42.1338 103.501 42.1338 105.7C42.1338 107.899 47.709 109.682 54.5864 109.682Z" fill="#39393B"/>
<path opacity="0.45" d="M54.5863 109.647C61.3868 109.647 66.8997 107.88 66.8997 105.7C66.8997 103.52 61.3868 101.753 54.5863 101.753C47.7858 101.753 42.2729 103.52 42.2729 105.7C42.2729 107.88 47.7858 109.647 54.5863 109.647Z" fill="#38383A"/>
<path opacity="0.45" d="M54.5867 109.593C61.3103 109.593 66.7608 107.85 66.7608 105.7C66.7608 103.549 61.3103 101.806 54.5867 101.806C47.8631 101.806 42.4126 103.549 42.4126 105.7C42.4126 107.85 47.8631 109.593 54.5867 109.593Z" fill="#383839"/>
<path opacity="0.45" d="M54.5866 109.54C61.2332 109.54 66.6214 107.821 66.6214 105.7C66.6214 103.579 61.2332 101.859 54.5866 101.859C47.9399 101.859 42.5518 103.579 42.5518 105.7C42.5518 107.821 47.9399 109.54 54.5866 109.54Z" fill="#373738"/>
<path opacity="0.46" d="M54.5865 109.487C61.1562 109.487 66.482 107.792 66.482 105.7C66.482 103.608 61.1562 101.913 54.5865 101.913C48.0167 101.913 42.6909 103.608 42.6909 105.7C42.6909 107.792 48.0167 109.487 54.5865 109.487Z" fill="#363637"/>
<path opacity="0.46" d="M54.5863 109.452C61.0792 109.452 66.3426 107.772 66.3426 105.7C66.3426 103.628 61.0792 101.948 54.5863 101.948C48.0935 101.948 42.8301 103.628 42.8301 105.7C42.8301 107.772 48.0935 109.452 54.5863 109.452Z" fill="#353536"/>
<path opacity="0.46" d="M54.5867 109.399C61.0026 109.399 66.2037 107.743 66.2037 105.7C66.2037 103.657 61.0026 102.001 54.5867 102.001C48.1708 102.001 42.9697 103.657 42.9697 105.7C42.9697 107.743 48.1708 109.399 54.5867 109.399Z" fill="#343435"/>
<path opacity="0.46" d="M54.5866 109.346C60.9256 109.346 66.0643 107.713 66.0643 105.7C66.0643 103.686 60.9256 102.054 54.5866 102.054C48.2476 102.054 43.1089 103.686 43.1089 105.7C43.1089 107.713 48.2476 109.346 54.5866 109.346Z" fill="#333334"/>
<path opacity="0.47" d="M54.5865 109.293C60.8485 109.293 65.9249 107.684 65.9249 105.7C65.9249 103.716 60.8485 102.107 54.5865 102.107C48.3244 102.107 43.248 103.716 43.248 105.7C43.248 107.684 48.3244 109.293 54.5865 109.293Z" fill="#323233"/>
<path opacity="0.47" d="M54.5864 109.257C60.7715 109.257 65.7855 107.664 65.7855 105.7C65.7855 103.735 60.7715 102.143 54.5864 102.143C48.4012 102.143 43.3872 103.735 43.3872 105.7C43.3872 107.664 48.4012 109.257 54.5864 109.257Z" fill="#313132"/>
<path opacity="0.47" d="M54.5867 109.204C60.6949 109.204 65.6466 107.635 65.6466 105.7C65.6466 103.765 60.6949 102.196 54.5867 102.196C48.4785 102.196 43.5269 103.765 43.5269 105.7C43.5269 107.635 48.4785 109.204 54.5867 109.204Z" fill="#303031"/>
<path opacity="0.48" d="M54.5866 109.151C60.6179 109.151 65.5072 107.606 65.5072 105.7C65.5072 103.794 60.6179 102.249 54.5866 102.249C48.5553 102.249 43.666 103.794 43.666 105.7C43.666 107.606 48.5553 109.151 54.5866 109.151Z" fill="#2F2F30"/>
<path opacity="0.48" d="M54.5865 109.116C60.5409 109.116 65.3678 107.586 65.3678 105.7C65.3678 103.813 60.5409 102.284 54.5865 102.284C48.6321 102.284 43.8052 103.813 43.8052 105.7C43.8052 107.586 48.6321 109.116 54.5865 109.116Z" fill="#2E2E2F"/>
<path opacity="0.48" d="M54.5864 109.063C60.4638 109.063 65.2284 107.557 65.2284 105.7C65.2284 103.843 60.4638 102.337 54.5864 102.337C48.7089 102.337 43.9443 103.843 43.9443 105.7C43.9443 107.557 48.7089 109.063 54.5864 109.063Z" fill="#2D2D2E"/>
<path opacity="0.48" d="M54.5863 109.01C60.3868 109.01 65.089 107.528 65.089 105.7C65.089 103.872 60.3868 102.391 54.5863 102.391C48.7857 102.391 44.0835 103.872 44.0835 105.7C44.0835 107.528 48.7857 109.01 54.5863 109.01Z" fill="#2C2C2D"/>
<path opacity="0.49" d="M54.5866 108.956C60.3102 108.956 64.9501 107.498 64.9501 105.7C64.9501 103.901 60.3102 102.443 54.5866 102.443C48.863 102.443 44.2231 103.901 44.2231 105.7C44.2231 107.498 48.863 108.956 54.5866 108.956Z" fill="#2B2B2C"/>
<path opacity="0.49" d="M54.5865 108.921C60.2332 108.921 64.8107 107.479 64.8107 105.7C64.8107 103.921 60.2332 102.479 54.5865 102.479C48.9398 102.479 44.3623 103.921 44.3623 105.7C44.3623 107.479 48.9398 108.921 54.5865 108.921Z" fill="#2A2A2B"/>
<path opacity="0.49" d="M54.5864 108.868C60.1562 108.868 64.6713 107.45 64.6713 105.7C64.6713 103.951 60.1562 102.532 54.5864 102.532C49.0166 102.532 44.5015 103.951 44.5015 105.7C44.5015 107.45 49.0166 108.868 54.5864 108.868Z" fill="#29292A"/>
<path opacity="0.49" d="M54.5863 108.815C60.0791 108.815 64.5319 107.42 64.5319 105.7C64.5319 103.98 60.0791 102.585 54.5863 102.585C49.0935 102.585 44.6406 103.98 44.6406 105.7C44.6406 107.42 49.0935 108.815 54.5863 108.815Z" fill="#282829"/>
<path opacity="0.5" d="M54.5867 108.762C60.0026 108.762 64.393 107.391 64.393 105.7C64.393 104.009 60.0026 102.638 54.5867 102.638C49.1707 102.638 44.7803 104.009 44.7803 105.7C44.7803 107.391 49.1707 108.762 54.5867 108.762Z" fill="#272728"/>
<path opacity="0.5" d="M54.5865 108.726C59.9255 108.726 64.2537 107.372 64.2537 105.7C64.2537 104.029 59.9255 102.674 54.5865 102.674C49.2475 102.674 44.9194 104.029 44.9194 105.7C44.9194 107.372 49.2475 108.726 54.5865 108.726Z" fill="#262627"/>
<path opacity="0.5" d="M54.5864 108.673C59.8485 108.673 64.1143 107.342 64.1143 105.7C64.1143 104.058 59.8485 102.727 54.5864 102.727C49.3244 102.727 45.0586 104.058 45.0586 105.7C45.0586 107.342 49.3244 108.673 54.5864 108.673Z" fill="#252526"/>
<path opacity="0.5" d="M54.5863 108.62C59.7715 108.62 63.9749 107.313 63.9749 105.7C63.9749 104.087 59.7715 102.78 54.5863 102.78C49.4012 102.78 45.1978 104.087 45.1978 105.7C45.1978 107.313 49.4012 108.62 54.5863 108.62Z" fill="#242425"/>
<path opacity="0.51" d="M54.5867 108.584C59.6949 108.584 63.836 107.293 63.836 105.7C63.836 104.106 59.6949 102.815 54.5867 102.815C49.4784 102.815 45.3374 104.106 45.3374 105.7C45.3374 107.293 49.4784 108.584 54.5867 108.584Z" fill="#232324"/>
<path opacity="0.51" d="M54.5866 108.531C59.6144 108.531 63.6902 107.264 63.6902 105.7C63.6902 104.136 59.6144 102.868 54.5866 102.868C49.5588 102.868 45.4829 104.136 45.4829 105.7C45.4829 107.264 49.5588 108.531 54.5866 108.531Z" fill="#222223"/>
<path opacity="0.51" d="M54.5865 108.479C59.5374 108.479 63.5509 107.235 63.5509 105.7C63.5509 104.165 59.5374 102.921 54.5865 102.921C49.6356 102.921 45.6221 104.165 45.6221 105.7C45.6221 107.235 49.6356 108.479 54.5865 108.479Z" fill="#212122"/>
<path opacity="0.51" d="M54.5863 108.426C59.4603 108.426 63.4115 107.205 63.4115 105.7C63.4115 104.195 59.4603 102.975 54.5863 102.975C49.7124 102.975 45.7612 104.195 45.7612 105.7C45.7612 107.205 49.7124 108.426 54.5863 108.426Z" fill="#202021"/>
<path opacity="0.52" d="M54.5867 108.39C59.3838 108.39 63.2726 107.186 63.2726 105.7C63.2726 104.214 59.3838 103.01 54.5867 103.01C49.7897 103.01 45.9009 104.214 45.9009 105.7C45.9009 107.186 49.7897 108.39 54.5867 108.39Z" fill="#1F1F20"/>
<path opacity="0.52" d="M54.5866 108.337C59.3067 108.337 63.1332 107.156 63.1332 105.7C63.1332 104.244 59.3067 103.063 54.5866 103.063C49.8665 103.063 46.04 104.244 46.04 105.7C46.04 107.156 49.8665 108.337 54.5866 108.337Z" fill="#1E1E1F"/>
<path opacity="0.52" d="M54.5865 108.284C59.2297 108.284 62.9938 107.127 62.9938 105.7C62.9938 104.273 59.2297 103.116 54.5865 103.116C49.9433 103.116 46.1792 104.273 46.1792 105.7C46.1792 107.127 49.9433 108.284 54.5865 108.284Z" fill="#1D1D1E"/>
<path opacity="0.52" d="M54.5864 108.231C59.1527 108.231 62.8544 107.097 62.8544 105.7C62.8544 104.302 59.1527 103.169 54.5864 103.169C50.0201 103.169 46.3184 104.302 46.3184 105.7C46.3184 107.097 50.0201 108.231 54.5864 108.231Z" fill="#1C1C1D"/>
<path opacity="0.53" d="M54.5862 108.195C59.0756 108.195 62.715 107.078 62.715 105.7C62.715 104.322 59.0756 103.205 54.5862 103.205C50.0969 103.205 46.4575 104.322 46.4575 105.7C46.4575 107.078 50.0969 108.195 54.5862 108.195Z" fill="#1B1B1C"/>
<path opacity="0.53" d="M54.5866 108.142C58.9991 108.142 62.5761 107.048 62.5761 105.7C62.5761 104.351 58.9991 103.257 54.5866 103.257C50.1742 103.257 46.5972 104.351 46.5972 105.7C46.5972 107.048 50.1742 108.142 54.5866 108.142Z" fill="#1A1A1B"/>
<path opacity="0.53" d="M54.5865 108.089C58.922 108.089 62.4367 107.019 62.4367 105.7C62.4367 104.38 58.922 103.311 54.5865 103.311C50.251 103.311 46.7363 104.38 46.7363 105.7C46.7363 107.019 50.251 108.089 54.5865 108.089Z" fill="#19191A"/>
<path opacity="0.54" d="M54.5864 108.036C58.845 108.036 62.2973 106.99 62.2973 105.7C62.2973 104.41 58.845 103.364 54.5864 103.364C50.3278 103.364 46.8755 104.41 46.8755 105.7C46.8755 106.99 50.3278 108.036 54.5864 108.036Z" fill="#181819"/>
<path opacity="0.54" d="M54.5863 108C58.768 108 62.1579 106.97 62.1579 105.7C62.1579 104.429 58.768 103.399 54.5863 103.399C50.4046 103.399 47.0146 104.429 47.0146 105.7C47.0146 106.97 50.4046 108 54.5863 108Z" fill="#171718"/>
<path opacity="0.54" d="M54.5866 107.947C58.6914 107.947 62.019 106.941 62.019 105.7C62.019 104.458 58.6914 103.452 54.5866 103.452C50.4819 103.452 47.1543 104.458 47.1543 105.7C47.1543 106.941 50.4819 107.947 54.5866 107.947Z" fill="#161617"/>
<path opacity="0.54" d="M54.5865 107.894C58.6144 107.894 61.8796 106.912 61.8796 105.7C61.8796 104.488 58.6144 103.505 54.5865 103.505C50.5587 103.505 47.2935 104.488 47.2935 105.7C47.2935 106.912 50.5587 107.894 54.5865 107.894Z" fill="#151516"/>
<path opacity="0.55" d="M54.5864 107.859C58.5373 107.859 61.7402 106.892 61.7402 105.7C61.7402 104.507 58.5373 103.541 54.5864 103.541C50.6355 103.541 47.4326 104.507 47.4326 105.7C47.4326 106.892 50.6355 107.859 54.5864 107.859Z" fill="#141415"/>
<path opacity="0.55" d="M54.5863 107.806C58.4603 107.806 61.6008 106.863 61.6008 105.7C61.6008 104.537 58.4603 103.594 54.5863 103.594C50.7123 103.594 47.5718 104.537 47.5718 105.7C47.5718 106.863 50.7123 107.806 54.5863 107.806Z" fill="#131314"/>
<path opacity="0.55" d="M54.5867 107.753C58.3837 107.753 61.4619 106.834 61.4619 105.7C61.4619 104.566 58.3837 103.647 54.5867 103.647C50.7896 103.647 47.7114 104.566 47.7114 105.7C47.7114 106.834 50.7896 107.753 54.5867 107.753Z" fill="#131313"/>
<path opacity="0.55" d="M54.5865 107.699C58.3067 107.699 61.3225 106.804 61.3225 105.7C61.3225 104.595 58.3067 103.7 54.5865 103.7C50.8664 103.7 47.8506 104.595 47.8506 105.7C47.8506 106.804 50.8664 107.699 54.5865 107.699Z" fill="#121212"/>
<path opacity="0.56" d="M54.5864 107.664C58.2297 107.664 61.1831 106.785 61.1831 105.7C61.1831 104.615 58.2297 103.735 54.5864 103.735C50.9432 103.735 47.9897 104.615 47.9897 105.7C47.9897 106.785 50.9432 107.664 54.5864 107.664Z" fill="#111111"/>
<path opacity="0.56" d="M54.5863 107.611C58.1526 107.611 61.0437 106.756 61.0437 105.7C61.0437 104.644 58.1526 103.789 54.5863 103.789C51.02 103.789 48.1289 104.644 48.1289 105.7C48.1289 106.756 51.02 107.611 54.5863 107.611Z" fill="#101010"/>
<path opacity="0.56" d="M54.5867 107.558C58.0761 107.558 60.9048 106.726 60.9048 105.7C60.9048 104.674 58.0761 103.842 54.5867 103.842C51.0973 103.842 48.2686 104.674 48.2686 105.7C48.2686 106.726 51.0973 107.558 54.5867 107.558Z" fill="#0F0F0F"/>
<path opacity="0.56" d="M54.5866 107.505C57.999 107.505 60.7654 106.697 60.7654 105.7C60.7654 104.703 57.999 103.895 54.5866 103.895C51.1741 103.895 48.4077 104.703 48.4077 105.7C48.4077 106.697 51.1741 107.505 54.5866 107.505Z" fill="#0E0E0E"/>
<path opacity="0.57" d="M54.5864 107.47C57.922 107.47 60.626 106.677 60.626 105.7C60.626 104.723 57.922 103.93 54.5864 103.93C51.2509 103.93 48.5469 104.723 48.5469 105.7C48.5469 106.677 51.2509 107.47 54.5864 107.47Z" fill="#0D0D0D"/>
<path opacity="0.57" d="M54.5863 107.417C57.845 107.417 60.4866 106.648 60.4866 105.7C60.4866 104.752 57.845 103.983 54.5863 103.983C51.3277 103.983 48.686 104.752 48.686 105.7C48.686 106.648 51.3277 107.417 54.5863 107.417Z" fill="#0C0C0C"/>
<path opacity="0.57" d="M54.5867 107.363C57.7684 107.363 60.3477 106.618 60.3477 105.7C60.3477 104.781 57.7684 104.036 54.5867 104.036C51.405 104.036 48.8257 104.781 48.8257 105.7C48.8257 106.618 51.405 107.363 54.5867 107.363Z" fill="#0B0B0B"/>
<path opacity="0.57" d="M54.5866 107.328C57.6914 107.328 60.2083 106.599 60.2083 105.7C60.2083 104.801 57.6914 104.072 54.5866 104.072C51.4818 104.072 48.9648 104.801 48.9648 105.7C48.9648 106.599 51.4818 107.328 54.5866 107.328Z" fill="#0A0A0A"/>
<path opacity="0.58" d="M54.5865 107.275C57.6143 107.275 60.0689 106.57 60.0689 105.7C60.0689 104.83 57.6143 104.125 54.5865 104.125C51.5586 104.125 49.104 104.83 49.104 105.7C49.104 106.57 51.5586 107.275 54.5865 107.275Z" fill="#090909"/>
<path opacity="0.58" d="M54.5863 107.222C57.5373 107.222 59.9295 106.54 59.9295 105.7C59.9295 104.859 57.5373 104.178 54.5863 104.178C51.6354 104.178 49.2432 104.859 49.2432 105.7C49.2432 106.54 51.6354 107.222 54.5863 107.222Z" fill="#080808"/>
<path opacity="0.58" d="M54.5867 107.169C57.4608 107.169 59.7906 106.511 59.7906 105.7C59.7906 104.889 57.4608 104.231 54.5867 104.231C51.7127 104.231 49.3828 104.889 49.3828 105.7C49.3828 106.511 51.7127 107.169 54.5867 107.169Z" fill="#070707"/>
<path opacity="0.58" d="M54.5866 107.134C57.3837 107.134 59.6512 106.492 59.6512 105.7C59.6512 104.908 57.3837 104.267 54.5866 104.267C51.7895 104.267 49.522 104.908 49.522 105.7C49.522 106.492 51.7895 107.134 54.5866 107.134Z" fill="#060606"/>
<path opacity="0.59" d="M54.5865 107.08C57.3067 107.08 59.5118 106.462 59.5118 105.7C59.5118 104.937 57.3067 104.319 54.5865 104.319C51.8663 104.319 49.6611 104.937 49.6611 105.7C49.6611 106.462 51.8663 107.08 54.5865 107.08Z" fill="#050505"/>
<path opacity="0.59" d="M54.5864 107.027C57.2296 107.027 59.3724 106.433 59.3724 105.7C59.3724 104.967 57.2296 104.373 54.5864 104.373C51.9431 104.373 49.8003 104.967 49.8003 105.7C49.8003 106.433 51.9431 107.027 54.5864 107.027Z" fill="#040404"/>
<path opacity="0.59" d="M54.5862 106.974C57.1526 106.974 59.233 106.404 59.233 105.7C59.233 104.996 57.1526 104.426 54.5862 104.426C52.0199 104.426 49.9395 104.996 49.9395 105.7C49.9395 106.404 52.0199 106.974 54.5862 106.974Z" fill="#030303"/>
<path opacity="0.59" d="M54.5866 106.939C57.0761 106.939 59.0941 106.384 59.0941 105.7C59.0941 105.016 57.0761 104.461 54.5866 104.461C52.0972 104.461 50.0791 105.016 50.0791 105.7C50.0791 106.384 52.0972 106.939 54.5866 106.939Z" fill="#020202"/>
<path opacity="0.6" d="M54.5865 106.886C56.999 106.886 58.9547 106.355 58.9547 105.7C58.9547 105.045 56.999 104.514 54.5865 104.514C52.174 104.514 50.2183 105.045 50.2183 105.7C50.2183 106.355 52.174 106.886 54.5865 106.886Z" fill="#010101"/>
<path opacity="0.6" d="M54.5864 106.833C56.9185 106.833 58.809 106.326 58.809 105.7C58.809 105.074 56.9185 104.567 54.5864 104.567C52.2543 104.567 50.3638 105.074 50.3638 105.7C50.3638 106.326 52.2543 106.833 54.5864 106.833Z" fill="black"/>
</g>
<path d="M85.0364 38.3899C85.3064 38.2599 85.5264 38.0699 85.6464 37.8099C85.8964 37.2699 85.6864 36.5999 85.1764 36.0299C85.3764 35.8999 85.5464 35.7299 85.6464 35.5199C85.8964 34.9799 85.6864 34.2999 85.1764 33.7399C85.3764 33.6099 85.5464 33.4399 85.6464 33.2199C86.0264 32.3999 85.3664 31.2899 84.1764 30.6899C84.3564 29.8699 83.6764 28.8599 82.5264 28.3299C82.4464 28.2899 82.3664 28.2699 82.2864 28.2299C82.4064 28.1199 82.5164 27.9999 82.5864 27.8599C82.9764 27.0099 82.2664 25.8499 81.0064 25.2599C80.5064 25.0299 80.0064 24.9199 79.5464 24.9299C74.5664 15.8799 65.7964 9.85986 55.8164 9.85986C45.8364 9.85986 37.0064 15.9099 32.0364 25.0099C31.7864 25.0699 31.5464 25.1399 31.2964 25.2599C30.0264 25.8499 29.3164 27.0099 29.7064 27.8599C29.7764 28.0099 29.8864 28.1299 30.0064 28.2299C29.9264 28.2599 29.8464 28.2899 29.7664 28.3299C28.6064 28.8699 27.9264 29.8799 28.1164 30.6899C26.9264 31.2899 26.2764 32.3999 26.6464 33.2199C26.7464 33.4299 26.9064 33.6099 27.1164 33.7399C26.6064 34.3099 26.3964 34.9799 26.6464 35.5199C26.7464 35.7299 26.9064 35.8999 27.1164 36.0399C26.6064 36.6099 26.3964 37.2799 26.6464 37.8199C26.7664 38.0799 26.9864 38.2699 27.2564 38.3999C26.1264 39.0199 25.5164 40.0899 25.8864 40.8799C26.0664 41.2699 26.4564 41.5199 26.9464 41.6199C26.5664 42.1399 26.4364 42.7099 26.6564 43.1799C26.8464 43.5899 27.2564 43.8399 27.7664 43.9299C28.5264 61.0399 40.7964 74.6399 55.8264 74.6399C70.8564 74.6399 83.1064 61.0599 83.8764 43.9599C84.6964 44.0199 85.3964 43.7499 85.6664 43.1799C85.8864 42.7099 85.7464 42.1399 85.3764 41.6199C85.8664 41.5199 86.2564 41.2699 86.4364 40.8799C86.8064 40.0799 86.1964 39.0099 85.0664 38.3999L85.0364 38.3899Z" fill="#FFCF23"/>
<path d="M86.5863 58.7902C86.8663 58.6802 87.0963 58.5102 87.2263 58.2902C87.4863 57.8302 87.2763 57.2602 86.7363 56.7702C86.9463 56.6602 87.1263 56.5102 87.2263 56.3302C87.4863 55.8702 87.2763 55.2902 86.7363 54.8102C86.9463 54.7002 87.1263 54.5502 87.2263 54.3702C87.6263 53.6702 86.9363 52.7302 85.6863 52.2202C85.8763 51.5202 85.1663 50.6602 83.9463 50.2102C83.8563 50.1802 83.7763 50.1602 83.6863 50.1302C83.8163 50.0402 83.9263 49.9402 83.9963 49.8102C84.4063 49.0902 83.6663 48.1002 82.3263 47.6002C81.8063 47.4002 81.2763 47.3102 80.7963 47.3202C75.5463 39.6102 66.3163 34.4902 55.7963 34.4902C45.2763 34.4902 35.9763 39.6402 30.7463 47.3902C30.4863 47.4402 30.2263 47.5002 29.9663 47.6002C28.6363 48.1002 27.8863 49.0902 28.2963 49.8102C28.3663 49.9402 28.4863 50.0402 28.6063 50.1302C28.5163 50.1602 28.4363 50.1802 28.3463 50.2102C27.1263 50.6702 26.4163 51.5302 26.6063 52.2202C25.3563 52.7302 24.6663 53.6802 25.0663 54.3702C25.1763 54.5502 25.3463 54.7002 25.5563 54.8102C25.0163 55.2902 24.7963 55.8702 25.0663 56.3302C25.1763 56.5102 25.3463 56.6602 25.5563 56.7702C25.0163 57.2502 24.7963 57.8302 25.0663 58.2902C25.1963 58.5102 25.4263 58.6802 25.7063 58.7902C24.5163 59.3102 23.8663 60.2302 24.2563 60.9002C24.4463 61.2302 24.8563 61.4402 25.3663 61.5302C24.9663 61.9702 24.8263 62.4602 25.0563 62.8602C25.2563 63.2102 25.6863 63.4202 26.2263 63.5002C26.3463 65.6902 26.7463 67.8102 27.3863 69.8402C27.1663 69.9402 26.9963 70.0702 26.8863 70.2402C26.5363 70.8302 27.1163 71.6302 28.2063 72.0902C27.9463 72.1902 27.7363 72.3302 27.6263 72.5302C27.3863 72.9302 27.5863 73.4302 28.0763 73.8602C27.8763 73.9602 27.7263 74.0902 27.6263 74.2402C27.3863 74.6402 27.5863 75.1502 28.0763 75.5702C27.8763 75.6702 27.7263 75.7902 27.6263 75.9502C27.2663 76.5602 27.8963 77.3902 29.0263 77.8402C28.8463 78.4502 29.4963 79.2002 30.6063 79.6002C30.6863 79.6302 30.7663 79.6502 30.8363 79.6702C30.7263 79.7502 30.6163 79.8402 30.5563 79.9502C30.1763 80.5802 30.8563 81.4502 32.0763 81.8802C32.5563 82.0502 33.0363 82.1302 33.4763 82.1302C38.2463 88.8802 46.6563 93.3602 56.2263 93.3602C65.7963 93.3602 74.2563 88.8502 79.0163 82.0702C79.2563 82.0302 79.4863 81.9702 79.7263 81.8902C80.9363 81.4502 81.6263 80.5902 81.2463 79.9602C81.1763 79.8502 81.0763 79.7602 80.9563 79.6802C81.0363 79.6602 81.1163 79.6402 81.1863 79.6102C82.2963 79.2102 82.9463 78.4602 82.7663 77.8502C83.9063 77.4002 84.5363 76.5702 84.1763 75.9602C84.0763 75.8002 83.9263 75.6702 83.7263 75.5802C84.2163 75.1602 84.4163 74.6502 84.1763 74.2502C84.0763 74.0902 83.9263 73.9602 83.7263 73.8702C84.2163 73.4502 84.4163 72.9502 84.1763 72.5402C84.0563 72.3502 83.8463 72.2002 83.5963 72.1002C84.6763 71.6402 85.2663 70.8402 84.9163 70.2502C84.7863 70.0302 84.5263 69.8702 84.2063 69.7702C84.8263 67.7802 85.2163 65.6902 85.3363 63.5402C86.1963 63.5902 86.9363 63.3602 87.2163 62.8702C87.4463 62.4702 87.3063 61.9802 86.9063 61.5402C87.4163 61.4502 87.8263 61.2402 88.0263 60.9102C88.4163 60.2302 87.7663 59.3202 86.5763 58.8002L86.5863 58.7902Z" fill="#FFCF23"/>
<path d="M51.0264 36.37L59.0464 36.29L55.0264 39.24L51.0264 36.37Z" fill="#FF5D00"/>
<path d="M49.9365 89.74L49.6265 93.29C49.6265 93.29 48.2765 94.32 48.5265 95.07C48.7765 95.82 48.6765 96.85 48.6765 96.85V99.92L50.6265 99.85L50.3465 96.59C50.3465 96.59 51.9565 95.59 51.2065 94.33C50.4565 93.08 50.7565 91.57 50.7565 91.57L51.7865 89.82L49.9265 89.73L49.9365 89.74Z" fill="#F4901E"/>
<path d="M60.6464 89.74L60.9564 93.29C60.9564 93.29 62.2864 94.32 62.0364 95.07C61.7864 95.82 61.8564 96.85 61.8564 96.85V99.92L59.9164 99.85L60.2064 96.59C60.2064 96.59 58.5964 95.59 59.3564 94.33C60.1064 93.08 59.8064 91.57 59.8064 91.57L58.7764 89.82L60.6364 89.73L60.6464 89.74Z" fill="#F4901E"/>
<path d="M57.5064 5.31002C58.2064 7.55002 58.0364 10.56 56.7864 10.95C55.5364 11.34 53.6864 8.96002 52.9864 6.72002C52.2864 4.48002 53.0064 3.24002 54.2564 2.85002C55.5064 2.46002 56.8064 3.07002 57.5064 5.31002Z" fill="#FFCF23"/>
<path d="M58.6664 7.78008C57.2664 8.77008 56.1664 10.3601 56.8964 10.8601C57.6264 11.3601 59.9164 10.5801 61.3164 9.59008C62.7164 8.60008 62.7064 7.79008 61.9764 7.29008C61.2464 6.79008 60.0664 6.79008 58.6664 7.78008Z" fill="#FFCF23"/>
<path d="M59.9762 3.38979C58.7962 4.63979 58.0362 6.41979 58.8562 6.75979C59.6762 7.09979 61.7562 5.87979 62.9362 4.62979C64.1162 3.37979 63.9362 2.58979 63.1262 2.24979C62.3162 1.90979 61.1562 2.13979 59.9862 3.38979H59.9762Z" fill="#FFCF23"/>
<path d="M50.3162 99.67C50.3162 99.67 46.7862 99.04 44.8862 99.54C42.9962 100.04 39.7162 100.68 39.7162 100.68C39.7162 100.68 38.9562 100.55 39.0862 101.31C39.2162 102.07 39.3362 102.32 40.4762 101.94C41.6062 101.56 42.2462 101.18 43.6262 100.93C45.0162 100.68 46.0262 100.55 46.0262 100.55C46.0262 100.55 42.7462 101.68 42.3662 102.19C41.9862 102.69 40.9762 103.96 42.1162 103.7C43.2562 103.45 44.0062 103.58 45.0162 102.82C46.0262 102.06 46.7862 101.81 47.2862 101.56C47.7862 101.31 47.0362 102.95 46.9062 103.33C46.7762 103.71 45.6462 105.22 46.6562 104.97C47.6662 104.72 48.4162 103.84 48.9262 103.08C49.4362 102.32 49.8062 101.06 50.5662 100.93C51.3262 100.8 52.0762 100.68 52.2062 100.3C52.3362 99.92 51.4462 99.29 51.0762 99.29C50.7062 99.29 50.3162 99.67 50.3162 99.67Z" fill="#F4901E"/>
<path d="M59.8865 99.67C59.8865 99.67 63.4165 99.04 65.3065 99.54C67.1965 100.04 70.4765 100.68 70.4765 100.68C70.4765 100.68 71.2365 100.55 71.1065 101.31C70.9765 102.07 70.8565 102.32 69.7165 101.94C68.5865 101.56 67.9465 101.18 66.5665 100.93C65.1765 100.68 64.1665 100.55 64.1665 100.55C64.1665 100.55 67.4465 101.68 67.8265 102.19C68.2065 102.69 69.2165 103.96 68.0765 103.7C66.9365 103.45 66.1865 103.58 65.1765 102.82C64.1665 102.06 63.4065 101.81 62.9065 101.56C62.4065 101.31 63.1565 102.95 63.2865 103.33C63.4065 103.71 64.5465 105.22 63.5365 104.97C62.5265 104.72 61.7665 103.84 61.2665 103.08C60.7565 102.32 60.3865 101.06 59.6265 100.93C58.8665 100.8 58.1165 100.68 57.9865 100.3C57.8565 99.92 58.7465 99.29 59.1265 99.29C59.5065 99.29 59.8865 99.67 59.8865 99.67Z" fill="#F4901E"/>
<path d="M53.0466 30.9099C54.3466 26.4199 51.7765 21.7299 47.2865 20.4199C42.7965 19.1199 38.1066 21.6899 36.7966 26.1799C35.4866 30.6699 38.0666 35.3599 42.5566 36.6699C47.0466 37.9799 51.7366 35.3999 53.0466 30.9099Z" fill="white"/>
<path d="M74.0563 30.9099C75.3563 26.4199 72.7863 21.7299 68.2963 20.4199C63.8063 19.1199 59.1163 21.6899 57.8063 26.1799C56.4963 30.6699 59.0763 35.3599 63.5663 36.6699C68.0563 37.9799 72.7463 35.3999 74.0563 30.9099Z" fill="white"/>
<path d="M59.6463 28.4098C59.6663 25.2398 62.2563 22.6798 65.4263 22.6998C66.1363 22.6998 66.8263 22.8398 67.4563 23.0798C66.3963 23.4198 65.6363 24.4098 65.6263 25.5698C65.6263 27.0198 66.7863 28.2098 68.2463 28.2198C69.4163 28.2198 70.4163 27.4598 70.7663 26.3998C71.0163 27.0498 71.1463 27.7498 71.1363 28.4798C71.1163 31.6598 68.5263 34.2098 65.3563 34.1898C62.1763 34.1698 59.6263 31.5798 59.6363 28.3998L59.6463 28.4098Z" fill="#8F3BFF"/>
<path d="M38.8865 28.4098C38.9065 25.2398 41.4965 22.6798 44.6665 22.6998C45.3765 22.6998 46.0665 22.8398 46.6965 23.0798C45.6365 23.4198 44.8765 24.4098 44.8665 25.5698C44.8665 27.0198 46.0265 28.2098 47.4865 28.2198C48.6565 28.2198 49.6565 27.4598 50.0065 26.3998C50.2565 27.0498 50.3865 27.7498 50.3765 28.4798C50.3565 31.6598 47.7665 34.2098 44.5965 34.1898C41.4165 34.1698 38.8665 31.5798 38.8765 28.3998L38.8865 28.4098Z" fill="#8F3BFF"/>
<path d="M49.6662 36.89C49.6662 36.89 53.6463 37.4 55.4963 37.26C57.3463 37.13 59.7663 36.05 59.7663 36.05C59.7663 36.05 58.3363 34.66 57.7663 33.66C57.1963 32.66 56.6462 31.21 56.6462 31.21C56.6462 31.21 54.3162 31.45 52.5562 32.7C50.8062 33.94 49.6562 36.89 49.6562 36.89H49.6662Z" fill="#F4901E"/>
<path d="M33.9864 44.83C32.2064 43.63 30.0963 43.3 28.1563 43.74C26.2764 43.37 3.83635 39.99 1.77635 40.35C-0.34365 40.72 -1.37365 43.3 3.41635 44.89L8.20635 46.48C8.20635 46.48 3.22635 47.24 4.62635 48.83C6.02635 50.42 9.92635 51.83 10.8563 51.9C11.7963 51.98 7.69635 52.91 9.33635 54.49C10.9764 56.07 13.4263 56.51 15.5863 56.55C17.1763 56.58 21.2364 55.32 23.2764 54.65C23.8263 55.64 24.6164 56.53 25.6164 57.21C29.0364 59.52 33.6864 58.62 35.9964 55.2C38.3064 51.78 37.4063 47.13 33.9864 44.82V44.83Z" fill="#FFCF23"/>
<path d="M77.7362 45.21C79.4662 43.94 81.5662 43.53 83.5262 43.89C85.3862 43.45 107.676 39.18 109.746 39.46C111.876 39.74 113.006 42.28 108.286 44.06L103.566 45.84C103.566 45.84 108.576 46.4 107.236 48.04C105.906 49.68 102.056 51.25 101.126 51.36C100.196 51.47 104.326 52.24 102.746 53.89C101.166 55.53 98.7362 56.07 96.5762 56.19C94.9862 56.28 90.8762 55.19 88.8162 54.6C88.3062 55.62 87.5562 56.53 86.5762 57.25C83.2462 59.69 78.5762 58.98 76.1262 55.65C73.6862 52.32 74.3962 47.65 77.7262 45.2L77.7362 45.21Z" fill="#FFCF23"/>
<g style="mix-blend-mode:multiply" opacity="0.49">
<path d="M27.8865 26.04L30.3365 23.83L31.4265 26.53L33.6065 24.07L35.2365 26.79L36.8665 24.34L39.0465 27.33C39.0465 27.33 43.3965 22.98 44.2165 22.98C45.0365 22.98 46.1265 27.88 46.1265 27.88L48.5765 23.8L50.2065 27.88L53.1965 24.34L58.0865 27.6L60.5365 28.96L63.2565 22.98L66.5165 27.88L69.7765 28.7L70.3165 24.08L74.6665 29.79L78.2065 24.62L81.4665 28.7L84.7265 25.16L86.6365 28.97L87.0865 28.51C81.1465 12.91 69.5865 1.20996 56.3065 1.20996C43.9865 1.20996 33.1565 11.28 26.9165 25.19L27.8765 26.04H27.8865Z" fill="#C4AF96"/>
<path d="M86.0864 44.77L83.9064 47.49L80.3664 44.23L78.1864 46.95L76.5564 43.69L71.1164 47.23L69.7564 43.69L65.6764 46.68L64.3164 43.69L61.3264 46.68L59.1564 43.96L56.7064 46.68L54.2564 42.6L52.3564 47.49L48.0064 44.5L45.5564 46.4L43.1064 42.59C43.1064 42.59 40.9264 46.67 40.9264 47.48C40.9264 48.29 38.2064 43.67 38.2064 43.67L34.6664 46.12L29.4964 43.13L26.7764 45.58L27.0364 41.77L24.2964 46.39V41.5L22.6964 43.4C22.1164 46.89 21.5264 50.46 21.5264 54.05C21.5264 79.61 37.0764 96.25 56.4164 96.25C75.7564 96.25 91.3764 79.61 91.3764 54.05C91.3764 51.96 91.2264 49.88 91.0264 47.82L86.0564 44.77H86.0864Z" fill="#C4AF96"/>
</g>
<path d="M27.8865 25.2201L30.3365 23.0101L31.4265 25.7101L33.6065 23.2501L35.2365 25.9701L36.8665 23.5201L39.0465 26.5101C39.0465 26.5101 43.3965 22.1601 44.2165 22.1601C45.0365 22.1601 46.1265 27.0501 46.1265 27.0501L48.5765 22.9701L50.2065 27.0501L53.1965 23.5101L58.0865 26.7701L60.5365 28.1301L63.2565 22.1501L66.5165 27.0401L69.7765 27.8601L70.3165 23.2401L74.6665 28.9501L78.2065 23.7801L81.4665 27.8601L84.7265 24.3201L86.6365 28.1301L87.0865 27.6801C81.1465 12.0901 69.5865 0.390137 56.3065 0.390137C43.9865 0.390137 33.1565 10.4601 26.9165 24.3701L27.8765 25.2201H27.8865Z" fill="#E6DDD3"/>
<path d="M86.0864 45.5898L83.9064 48.3098L80.3664 45.0498L78.1864 47.7698L76.5564 44.5098L71.1164 48.0498L69.7564 44.5098L65.6764 47.4998L64.3164 44.5098L61.3264 47.4998L59.1564 44.7798L56.7064 47.4998L54.2564 43.4198L52.3564 48.3198L48.0064 45.3298L45.5564 47.2398L43.1064 43.4298C43.1064 43.4298 40.9264 47.5098 40.9264 48.3298C40.9264 49.1498 38.2064 44.5198 38.2064 44.5198L34.6664 46.9698L29.4964 43.9798L26.7764 46.4298L27.0364 42.6198L24.2964 47.2398V42.3398L22.6964 44.2398C22.1164 47.7298 21.5264 51.2998 21.5264 54.8898C21.5264 80.4498 37.0764 97.0898 56.4164 97.0898C75.7564 97.0898 91.3764 80.4498 91.3764 54.8898C91.3764 52.8098 91.2264 50.7198 91.0264 48.6598L86.0564 45.6098L86.0864 45.5898Z" fill="#E6DDD3"/>
<path opacity="0.41" d="M76.2962 26.0802L78.1962 23.3002L81.4562 27.3802L83.7862 24.8502C78.6362 12.9902 70.0462 4.01018 60.0762 2.18018C67.0162 7.57018 72.6962 16.1102 76.2962 26.0802Z" fill="#F7EFF2"/>
<path opacity="0.41" d="M88.4865 47.0698L86.0865 45.5898L83.9065 48.3098L80.3665 45.0498L79.8865 45.6398C80.2765 48.6098 80.4965 51.6298 80.4965 54.6598C80.4965 72.1098 73.7965 85.6698 63.6665 93.2198C78.1165 89.5298 88.8865 74.9698 88.8865 54.1498C88.8865 51.7698 88.7365 49.4098 88.4665 47.0698H88.4865Z" fill="#F7EFF2"/>
<path opacity="0.34" d="M48.6363 1.25C40.6463 4.49 33.7063 11.37 28.7763 20.15C28.1263 21.36 27.4963 22.59 26.9263 23.87L27.8863 24.72L30.3363 22.51L31.4263 25.21L33.6063 22.75L35.2363 25.47L36.5063 23.56C40.6363 13.78 46.8463 5.41 54.3163 0C52.3763 0.17 50.4763 0.61 48.6363 1.25Z" fill="#C4AF96"/>
<path opacity="0.34" d="M49.6661 96.3801C38.3461 88.2401 30.8861 73.9501 30.8861 55.6501C30.8861 52.1401 31.1661 48.6501 31.6861 45.2101L29.5061 43.9501L26.7861 46.4001L27.0461 42.5901L24.3061 47.2101V42.3101L22.7061 44.2101C22.1261 47.7001 21.5361 51.2701 21.5361 54.8601C21.5361 77.4201 33.4861 93.0201 49.6561 96.3801H49.6661Z" fill="#C4AF96"/>
<g opacity="0.53">
<path d="M45.4661 15.48C45.2461 16.08 45.3461 16.67 45.6961 16.8C46.0461 16.93 46.5061 16.55 46.7261 15.95C46.9461 15.35 46.8461 14.76 46.4961 14.63C46.1461 14.5 45.6861 14.88 45.4661 15.48Z" fill="#C4AF96"/>
<path d="M46.8264 18.4499C46.6064 19.0499 46.7064 19.6399 47.0564 19.7699C47.4064 19.8999 47.8664 19.5199 48.0864 18.9099C48.3064 18.3099 48.2064 17.7199 47.8564 17.5899C47.5064 17.4599 47.0464 17.8399 46.8264 18.4399V18.4499Z" fill="#C4AF96"/>
<path d="M43.1863 18.3298C42.9663 18.9298 43.0663 19.5198 43.4163 19.6498C43.7663 19.7798 44.2263 19.3898 44.4463 18.7898C44.6663 18.1898 44.5663 17.5998 44.2163 17.4698C43.8663 17.3398 43.4063 17.7198 43.1863 18.3298Z" fill="#C4AF96"/>
<path d="M71.9763 52.3799C71.7563 52.9799 71.8563 53.5699 72.2063 53.6999C72.5563 53.8299 73.0163 53.4499 73.2363 52.8499C73.4563 52.2499 73.3563 51.6599 73.0063 51.5299C72.6563 51.3999 72.1963 51.7799 71.9763 52.3799Z" fill="#C4AF96"/>
<path d="M73.3464 55.3401C73.1264 55.9401 73.2264 56.5301 73.5764 56.6601C73.9264 56.7901 74.3864 56.4101 74.6064 55.8001C74.8264 55.2001 74.7264 54.6101 74.3764 54.4801C74.0264 54.3501 73.5664 54.7301 73.3464 55.3301V55.3401Z" fill="#C4AF96"/>
<path d="M69.7063 55.2199C69.4863 55.8199 69.5863 56.4099 69.9363 56.5399C70.2863 56.6699 70.7463 56.2799 70.9663 55.6799C71.1863 55.0799 71.0863 54.4899 70.7363 54.3599C70.3863 54.2299 69.9263 54.6099 69.7063 55.2199Z" fill="#C4AF96"/>
<path d="M70.8264 59.29C70.6064 59.89 70.7064 60.48 71.0564 60.61C71.4064 60.74 71.8664 60.36 72.0864 59.76C72.3064 59.16 72.2064 58.57 71.8564 58.44C71.5064 58.31 71.0464 58.69 70.8264 59.29Z" fill="#C4AF96"/>
<path d="M72.196 62.25C71.976 62.85 72.076 63.44 72.426 63.57C72.776 63.7 73.236 63.32 73.456 62.71C73.676 62.11 73.576 61.52 73.226 61.4C72.876 61.27 72.416 61.65 72.196 62.25Z" fill="#C4AF96"/>
<path d="M68.5461 62.1399C68.3261 62.7399 68.4261 63.3299 68.7761 63.4599C69.1261 63.5899 69.5861 63.1999 69.8061 62.5999C70.0261 61.9999 69.9261 61.4099 69.5761 61.2799C69.2261 61.1499 68.7661 61.5299 68.5461 62.1399Z" fill="#C4AF96"/>
</g>
</svg>
