<svg width="50" height="50" viewBox="0 0 50 50" fill="none" xmlns="http://www.w3.org/2000/svg">
<circle cx="25" cy="25" r="25" fill="#2638C1"/>
<g clip-path="url(#clip0_2353_6341)">
<path d="M14.626 28.2922L20.3612 19.6222C20.0074 17.6739 18.8913 15.8652 17.1124 14.6842C13.6494 12.3921 8.98053 13.3389 6.68845 16.8019C4.39138 20.265 5.33812 24.9288 8.80115 27.2259C10.585 28.4068 12.6927 28.7307 14.626 28.2922Z" fill="#EAE200"/>
<path d="M14.1624 22.8992C15.1739 21.3695 16.4345 20.1039 17.8546 19.1123C17.451 18.2752 16.8282 17.5278 15.996 16.9747C13.5345 15.3403 10.211 16.013 8.57665 18.4795C6.94728 20.941 7.61996 24.2645 10.0815 25.8939C10.794 26.3672 11.5813 26.6413 12.3735 26.7359C12.7622 25.4055 13.3551 24.11 14.1624 22.8942V22.8992Z" fill="#E59B00"/>
<path d="M33.3063 26.328L27.4316 17.7576C27.7505 15.8043 28.8368 13.9756 30.6007 12.7648C34.0239 10.413 38.7077 11.2849 41.0596 14.7081C43.4114 18.1313 42.5395 22.8151 39.1163 25.167C37.3524 26.3778 35.2546 26.7366 33.3113 26.328H33.3063Z" fill="#EAE200"/>
<path d="M33.6801 24.6835L29.4995 18.5846C29.7287 17.1944 30.5011 15.8939 31.7517 15.0318C34.1883 13.3576 37.5218 13.9805 39.196 16.4171C40.8702 18.8536 40.2474 22.1871 37.8108 23.8564C36.5551 24.7184 35.0603 24.9725 33.6801 24.6835Z" fill="#E59B00"/>
<path fill-rule="evenodd" clip-rule="evenodd" d="M11.0631 31.7197C10.0266 23.5878 15.6223 16.1784 23.5699 15.1619C31.5124 14.1504 38.7923 19.9205 39.8337 28.0524C40.8701 36.1843 35.2694 43.5937 27.3269 44.6102C19.3793 45.6217 12.0995 39.8517 11.0631 31.7197Z" fill="#EAE200"/>
<path fill-rule="evenodd" clip-rule="evenodd" d="M14.8602 25.2921C14.5413 22.8157 16.2952 20.5535 18.7717 20.2396C21.2481 19.9256 23.5103 21.6746 23.8242 24.1511C24.1381 26.6275 22.3892 28.8897 19.9127 29.2036C17.4363 29.5175 15.1741 27.7686 14.8602 25.2921Z" fill="#EAEAEA"/>
<path fill-rule="evenodd" clip-rule="evenodd" d="M26.5648 22.964C26.2508 20.4875 27.9998 18.2254 30.4762 17.9114C32.9527 17.5975 35.2149 19.3465 35.5288 21.8229C35.8477 24.2994 34.0938 26.5616 31.6173 26.8755C29.1409 27.1894 26.8787 25.4404 26.5648 22.964Z" fill="#EAEAEA"/>
<path d="M16.9478 24.1608C16.9727 22.7307 18.1536 21.5946 19.5787 21.6195C19.9025 21.6245 20.2065 21.6893 20.4905 21.8039C20.0122 21.9484 19.6634 22.3919 19.6534 22.9151C19.6434 23.5678 20.1617 24.1109 20.8194 24.1209C21.3476 24.1309 21.801 23.792 21.9604 23.3137C22.0651 23.6077 22.1249 23.9216 22.1199 24.2505C22.095 25.6755 20.9141 26.8116 19.489 26.7867C18.0639 26.7618 16.9228 25.5809 16.9527 24.1558L16.9478 24.1608Z" fill="#0079EA"/>
<path d="M28.1689 22.0475C28.1939 20.6174 29.3748 19.4813 30.7999 19.5063C31.1237 19.5112 31.4277 19.576 31.7117 19.6906C31.2334 19.8351 30.8846 20.2786 30.8746 20.8018C30.8646 21.4545 31.3828 21.9977 32.0406 22.0076C32.5687 22.0176 33.0222 21.6788 33.1816 21.2004C33.2863 21.4944 33.3461 21.8083 33.3411 22.1372C33.3162 23.5623 32.1352 24.6983 30.7102 24.6734C29.2851 24.6485 28.144 23.4676 28.1739 22.0425L28.1689 22.0475Z" fill="#0079EA"/>
<path d="M25.0098 6.8066C25.5778 8.62532 23.9584 8.89439 21.5567 9.71655C19.6184 10.3842 18.293 10.5238 17.8745 8.6602C17.4559 6.80162 18.7415 4.92809 20.7396 4.47964C22.7426 4.03119 24.4268 4.94802 25.0048 6.80162L25.0098 6.8066Z" fill="#0079EA"/>
<path d="M17.5558 11.4352C16.6639 10.4934 18.5274 8.86906 21.0786 7.8725C23.6298 6.87594 26.769 6.21821 26.8786 7.76288C26.9434 8.67473 25.324 10.1795 22.7778 11.1711C20.2266 12.1677 18.1836 12.0979 17.5608 11.4352H17.5558Z" fill="#0061C4"/>
<path d="M17.4613 11.0804C17.1274 10.2283 18.9262 8.7335 21.4774 7.73694C24.0286 6.74038 26.3655 6.62578 26.6944 7.47285C27.0232 8.32491 25.2294 9.81974 22.6783 10.8163C20.1271 11.8129 17.7901 11.9275 17.4613 11.0804Z" fill="#0079EA"/>
<path d="M18.5026 10.3394C18.4926 10.3145 18.4876 10.2895 18.4826 10.2597L18.0591 9.17839L24.8855 6.51758L25.2891 7.55898C25.319 7.59386 25.3439 7.62874 25.3589 7.6686C25.3738 7.70846 25.3838 7.75331 25.3838 7.79816V7.80812C25.3738 8.41104 24.0883 9.37272 22.3393 10.0554C20.5903 10.738 18.9909 10.8974 18.5773 10.4639H18.5574L18.5374 10.4141C18.5225 10.3892 18.5075 10.3693 18.4976 10.3444L18.5026 10.3394Z" fill="#EA0000"/>
<path d="M18.0937 9.28699C17.8694 8.70898 19.2198 7.63769 21.1132 6.90023C23.0067 6.16278 24.7258 6.03323 24.95 6.61123C25.1742 7.18923 23.8239 8.26053 21.9304 8.99799C20.037 9.73544 18.3179 9.86499 18.0937 9.28699Z" fill="#0079EA"/>
<path d="M26.5199 34.0914C22.4141 34.3305 18.6969 32.3773 16.4746 29.258C16.3102 30.0752 16.2354 30.9223 16.2902 31.7943C16.6091 37.3551 21.3777 41.6004 26.9385 41.2765C32.4943 40.9576 36.7396 36.1891 36.4207 30.6283C36.3709 29.7563 36.2015 28.9242 35.9424 28.127C34.0938 31.4804 30.6257 33.8472 26.5199 34.0864V34.0914Z" fill="#E59B00"/>
<path fill-rule="evenodd" clip-rule="evenodd" d="M22.9872 26.8573C22.7231 24.7994 24.2528 22.9109 26.3954 22.6369C28.543 22.3628 30.4962 23.8078 30.7553 25.8707C31.0194 27.9286 29.4897 29.8171 27.3421 30.0911C25.1945 30.3652 23.2413 28.9202 22.9822 26.8623L22.9872 26.8573Z" fill="#DE0059"/>
<path d="M18.2033 33.025C18.3727 32.726 18.5869 32.4719 18.8361 32.2676C19.3643 32.8007 20.0419 33.309 20.8242 33.7475C21.6065 34.186 22.3938 34.4899 23.1263 34.6643C23.0814 34.9832 22.9818 35.3021 22.8123 35.6011C22.0998 36.8717 20.4904 37.3251 19.2198 36.6176C17.9491 35.905 17.4907 34.3006 18.2033 33.025Z" fill="#EA0000"/>
<path fill-rule="evenodd" clip-rule="evenodd" d="M20.7547 33.8917C20.7547 33.8917 20.3411 34.3999 20.087 34.8484C19.8079 35.3517 19.5239 36.1788 19.5239 36.1788C19.5239 36.1788 20.1268 35.4115 20.371 35.0328C20.6152 34.664 20.7497 33.8867 20.7497 33.8867L20.7547 33.8917Z" fill="#980000"/>
</g>
<defs>
<clipPath id="clip0_2353_6341">
<rect width="36.9474" height="40.3556" fill="white" transform="translate(5.43262 4.36914)"/>
</clipPath>
</defs>
</svg>
