<svg width="50" height="50" viewBox="0 0 50 50" fill="none" xmlns="http://www.w3.org/2000/svg">
<circle cx="25" cy="25" r="25" fill="#FFBD00"/>
<g clip-path="url(#clip0_2353_6339)">
<path fill-rule="evenodd" clip-rule="evenodd" d="M21.9014 16.3278C22.5839 15.4139 13.3032 8.61499 12.6159 8.61456C11.9285 8.61412 5.12542 15.0987 7.20335 24.7086C8.44835 30.4691 9.81243 31.6036 10.312 32.51C10.1043 31.1996 20.4124 18.3134 21.9014 16.3278Z" fill="#0079EA"/>
<path d="M9.11088 22.1239C8.20963 17.119 11.9321 11.3619 12.7181 11.7134C14.2324 12.3962 19.3682 16.0782 20.8001 16.7874C18.3484 18.4896 14.0291 24.5592 11.2552 28.1525C11.196 28.229 9.82093 26.0399 9.11088 22.1239Z" fill="#6BE000"/>
<path fill-rule="evenodd" clip-rule="evenodd" d="M26.7738 15.4751C25.9606 14.6755 34.1455 6.57935 34.8191 6.47127C35.4927 6.3632 43.1852 11.7805 42.5419 21.595C42.1564 27.4762 40.9775 28.8011 40.6133 29.7698C40.627 28.4428 28.535 17.2185 26.7738 15.4751Z" fill="#0079EA"/>
<path d="M40.2755 19.3267C40.4326 14.2411 35.9001 9.09665 35.1797 9.56161C33.7785 10.4621 29.2449 14.8605 27.9342 15.7728C30.6116 17.092 35.7728 22.4585 39.0455 25.6049C39.1158 25.6745 40.1543 23.302 40.2808 19.3271L40.2755 19.3267Z" fill="#6BE000"/>
<path fill-rule="evenodd" clip-rule="evenodd" d="M8.41798 29.0106C7.61763 19.7871 14.5167 11.648 23.833 10.8366C33.1493 10.0251 41.3491 16.844 42.1544 26.0732C42.9544 35.302 36.0553 43.4411 26.739 44.2525C17.4227 45.064 9.22291 38.2451 8.4176 29.0159L8.41798 29.0106Z" fill="#0079EA"/>
<path d="M36.7442 30.259C38.9249 27.5321 39.1792 21.8351 36.8051 18.1343C34.7212 14.8842 31.4513 13.0605 28.6319 13.285C25.9794 13.6558 25.4936 14.7503 24.6504 15.7334C23.8334 15.0625 22.6507 14.3226 21.5125 14.0912C21.3377 14.0573 21.1568 14.0337 20.9751 14.0208C20.8949 14.0151 20.8144 14.0148 20.7388 14.0202C20.7442 14.0205 20.7499 14.0156 20.7556 14.0106C17.729 13.9032 14.4455 16.3528 12.8281 20.2218C11.1329 24.2788 12.3645 29.8501 14.9827 32.1543C13.4453 31.8731 11.9734 31.2739 10.6834 30.3813C10.6857 30.4244 10.6876 30.473 10.6953 30.5165C11.3949 38.5877 18.5864 44.5554 26.7573 43.84C34.8634 43.1307 40.888 36.1124 40.2904 28.1183C39.2575 29.0504 38.0463 29.7708 36.7446 30.2536L36.7442 30.259Z" fill="#6BE000"/>
<path fill-rule="evenodd" clip-rule="evenodd" d="M12.0801 23.4211C11.4035 20.244 13.4296 17.1244 16.6033 16.4466C19.7771 15.7688 22.8929 17.7965 23.5695 20.9736C24.2461 24.1507 22.2201 27.2702 19.0517 27.9484C15.878 28.6263 12.7567 26.5981 12.0855 23.4214L12.0801 23.4211Z" fill="#EAEAEA"/>
<path fill-rule="evenodd" clip-rule="evenodd" d="M25.5792 21.1047C24.9026 17.9276 26.9286 14.808 30.1023 14.1302C33.2761 13.4524 36.3919 15.4801 37.0686 18.6572C37.7452 21.8343 35.7191 24.9538 32.5507 25.632C29.377 26.3099 26.2558 24.2817 25.5845 21.105L25.5792 21.1047Z" fill="#EAEAEA"/>
<path fill-rule="evenodd" clip-rule="evenodd" d="M21.1536 26.8616C20.9417 24.4003 22.8417 22.2234 25.4084 22.0025C27.9697 21.7812 30.2203 23.5915 30.4375 26.0532C30.6547 28.5149 28.7493 30.6914 26.1827 30.9123C23.616 31.1332 21.3708 29.3233 21.1536 26.8616Z" fill="#DE0059"/>
<path fill-rule="evenodd" clip-rule="evenodd" d="M24.348 35.3401C28.3271 35.8001 32.0394 33.967 34.1754 30.8875C34.4031 31.8392 34.4768 32.8444 34.3553 33.8734C33.8191 38.5504 29.5902 41.9113 24.9187 41.3699C20.2469 40.8338 16.8902 36.6008 17.4318 31.9242C17.4394 31.8172 17.4573 31.7164 17.4752 31.6155C19.1423 33.6263 21.5511 35.0232 24.3477 35.3455L24.348 35.3401Z" fill="#0079EA"/>
<path d="M28.3398 19.3666C28.49 17.7805 29.8995 16.6118 31.495 16.7573C31.8526 16.7881 32.1893 16.8873 32.4954 17.0381C31.9497 17.1606 31.525 17.6197 31.4672 18.207C31.3991 18.9387 31.9337 19.5788 32.6642 19.6522C33.2566 19.705 33.7908 19.3666 34.0101 18.8499C34.1045 19.1846 34.1382 19.5418 34.107 19.9052C33.9568 21.4913 32.5469 22.6654 30.9572 22.5148C29.3675 22.3643 28.1945 20.9584 28.3451 19.367L28.3398 19.3666Z" fill="#EA9B00"/>
<path d="M15.4843 21.5385C15.6346 19.9524 17.0441 18.7836 18.6395 18.9292C18.9971 18.96 19.3338 19.0592 19.6399 19.2099C19.0942 19.3325 18.6695 19.7916 18.6117 20.3788C18.5436 21.1106 19.0782 21.7507 19.8087 21.8241C20.4011 21.8769 20.9353 21.5385 21.1546 21.0218C21.249 21.3565 21.2827 21.7137 21.2515 22.0771C21.1013 23.6632 19.6914 24.8372 18.1017 24.6867C16.512 24.5362 15.339 23.1303 15.4897 21.5388L15.4843 21.5385Z" fill="#EA9B00"/>
</g>
<defs>
<clipPath id="clip0_2353_6339">
<rect width="35.8596" height="38.4675" fill="white" transform="translate(7.94141 4.5625) rotate(4.06229)"/>
</clipPath>
</defs>
</svg>
