<svg width="50" height="50" viewBox="0 0 50 50" fill="none" xmlns="http://www.w3.org/2000/svg">
<circle cx="25" cy="25" r="25" fill="#00C500"/>
<g clip-path="url(#clip0_2353_6340)">
<path d="M27.2423 13.1386C24.3479 18.2582 24.1405 23.5932 26.7858 25.0552C29.426 26.5224 33.9179 23.5573 36.8123 18.4378C39.7066 13.3182 39.9141 7.98317 37.2687 6.51604C34.6285 5.05404 30.1366 8.01395 27.2423 13.1335V13.1386Z" fill="#D703EA"/>
<path d="M27.5744 16.2225C24.7112 21.2857 23.8709 26.2565 25.7642 27.303C27.6574 28.3546 31.5114 25.0971 34.3746 20.034C37.2378 14.9709 38.021 10.0103 36.1278 8.96384C34.2345 7.91735 30.4377 11.1594 27.5744 16.2225Z" fill="#E774E9"/>
<path d="M13.1808 18.4837C15.9506 23.7161 20.4166 26.7992 23.1606 25.3731C25.8993 23.9418 25.8733 18.5401 23.1035 13.3077C20.3285 8.0753 15.8625 4.98715 13.1237 6.41837C10.385 7.84446 10.4109 13.2462 13.1808 18.4837Z" fill="#D703EA"/>
<path d="M15.0011 18.1553C17.4286 22.054 23.8138 26.4502 24.8926 26.0501C27.0712 25.2447 24.7785 18.6632 22.351 14.7645C19.9235 10.871 16.5935 8.51638 14.4668 9.43462C12.335 10.3529 12.5787 14.2567 15.0011 18.1553Z" fill="#E774E9"/>
<path d="M37.1912 32.5451C36.6103 25.8045 30.5985 20.8029 23.7621 21.3723C16.9257 21.9468 11.858 27.8769 12.4389 34.6226C13.0199 41.3632 19.0316 46.3648 25.868 45.7954C32.7045 45.2209 37.7722 39.2908 37.1912 32.5451Z" fill="#D703EA"/>
<path d="M24.0991 35.4804C26.8327 36.3011 29.6596 35.5984 31.6721 33.8747C31.6462 34.4441 31.558 35.0238 31.3816 35.5932C30.2561 39.2457 26.3451 41.3078 22.6416 40.1998C18.9381 39.0918 16.8529 35.2341 17.9785 31.5766C18.1548 31.002 18.4038 30.4737 18.7098 29.9863C19.4101 32.5205 21.3656 34.6545 24.0991 35.4701V35.4804Z" fill="#EAEAEA"/>
<path d="M21.6819 18.9715C21.6819 18.6938 21.4554 18.4688 21.1761 18.4688C20.8968 18.4688 20.6704 18.6938 20.6704 18.9715V21.8442C20.6704 22.1218 20.8968 22.3469 21.1761 22.3469C21.4554 22.3469 21.6819 22.1218 21.6819 21.8442V18.9715Z" fill="#900E51"/>
<path d="M19.3576 19.2903C19.2322 19.0419 18.928 18.9404 18.6781 19.0638C18.4282 19.1871 18.3272 19.4885 18.4526 19.7369L19.7495 22.3074C19.8749 22.5558 20.1791 22.6572 20.429 22.5339C20.679 22.4105 20.7799 22.1091 20.6546 21.8607L19.3576 19.2903Z" fill="#900E51"/>
<path d="M17.3791 20.6143C17.1547 20.4473 16.8368 20.491 16.6688 20.7117C16.5009 20.9324 16.5466 21.2467 16.7709 21.4136L19.092 23.1408C19.3163 23.3078 19.6343 23.2642 19.8022 23.0434C19.9701 22.8227 19.9244 22.5085 19.7001 22.3415L17.3791 20.6143Z" fill="#900E51"/>
<path d="M16.3135 22.7321C16.0328 22.7321 15.8052 22.956 15.8052 23.2323C15.8052 23.5085 16.0328 23.7324 16.3135 23.7324H19.2182C19.499 23.7324 19.7265 23.5085 19.7265 23.2323C19.7265 22.956 19.499 22.7321 19.2182 22.7321H16.3135Z" fill="#900E51"/>
<path d="M21.6821 23.7263V19.9456C19.8304 19.7609 17.9942 20.7613 17.2213 22.5362C17.0501 22.926 16.9464 23.3262 16.8945 23.7263H21.6821Z" fill="#900E51"/>
<path d="M29.9451 21.2238C29.9451 21.5015 30.1715 21.7266 30.4508 21.7266C30.7301 21.7266 30.9565 21.5015 30.9565 21.2238V18.3511C30.9565 18.0735 30.7301 17.8484 30.4508 17.8484C30.1715 17.8484 29.9451 18.0735 29.9451 18.3511V21.2238Z" fill="#900E51"/>
<path d="M30.9709 21.2383C30.8455 21.4867 30.9465 21.7881 31.1964 21.9114C31.4463 22.0348 31.7505 21.9334 31.8759 21.6849L33.1729 19.1145C33.2982 18.8661 33.1973 18.5647 32.9473 18.4414C32.6974 18.318 32.3932 18.4194 32.2678 18.6679L30.9709 21.2383Z" fill="#900E51"/>
<path d="M31.924 21.7246C31.6997 21.8915 31.654 22.2058 31.8219 22.4265C31.9898 22.6472 32.3078 22.6908 32.5322 22.5239L34.8532 20.7967C35.0775 20.6297 35.1232 20.3155 34.9553 20.0948C34.7874 19.874 34.4694 19.8304 34.245 19.9974L31.924 21.7246Z" fill="#900E51"/>
<path d="M32.4033 22.1071C32.1226 22.1071 31.895 22.331 31.895 22.6073C31.895 22.8835 32.1226 23.1074 32.4033 23.1074H35.3081C35.5888 23.1074 35.8164 22.8835 35.8164 22.6073C35.8164 22.331 35.5888 22.1071 35.3081 22.1071H32.4033Z" fill="#900E51"/>
<path d="M29.9395 23.1111V19.3304C31.7912 19.1457 33.6274 20.146 34.4003 21.9209C34.5714 22.3108 34.6752 22.7109 34.727 23.1111H29.9395Z" fill="#900E51"/>
<path d="M24.9394 25.8457C25.816 23.8348 24.8771 21.4956 22.8387 20.6236C20.8002 19.7515 18.4349 20.6748 17.5583 22.6857C16.6817 24.6966 17.6205 27.0358 19.659 27.9079C21.6975 28.78 24.0576 27.8566 24.9394 25.8457Z" fill="#EAEAEA"/>
<path d="M19.3012 23.661C19.5347 22.3888 20.7692 21.5475 22.0607 21.7784C22.3512 21.8297 22.6209 21.9322 22.8595 22.0759C22.4083 22.1374 22.0244 22.476 21.9362 22.948C21.8273 23.5328 22.2215 24.0868 22.8128 24.1945C23.29 24.2817 23.7517 24.0457 23.9695 23.6405C24.0214 23.9175 24.0266 24.2048 23.9695 24.4972C23.7361 25.7694 22.5016 26.6106 21.2152 26.3798C19.9289 26.149 19.073 24.9281 19.3064 23.6559L19.3012 23.661Z" fill="#00C000"/>
<path d="M34.3691 23.5122C34.2187 21.2704 32.2528 19.5673 29.9757 19.7161C27.6986 19.8648 26.0647 21.7731 26.2152 24.0149C26.3656 26.2617 28.2485 27.9956 30.5204 27.8469C32.7923 27.6981 34.5143 25.759 34.3639 23.5122H34.3691Z" fill="#EAEAEA"/>
<path d="M27.367 23.2645C27.6004 21.9923 28.8349 21.151 30.1265 21.3819C30.4169 21.4332 30.6867 21.5358 30.9253 21.6743C30.4688 21.7358 30.0901 22.0795 30.002 22.5463C29.893 23.126 30.2873 23.6852 30.8786 23.7929C31.3558 23.8801 31.8174 23.6441 32.0353 23.2389C32.0923 23.5159 32.0923 23.8083 32.0353 24.1007C31.8019 25.3729 30.5674 26.2142 29.2758 25.9833C27.9894 25.7525 27.1336 24.5367 27.367 23.2645Z" fill="#00C000"/>
<path d="M28.7002 27.6881C28.8195 26.3544 27.7717 25.1745 26.3608 25.0565C24.95 24.9385 23.7155 25.9183 23.5962 27.2521C23.4769 28.5858 24.5246 29.7657 25.9355 29.8837C27.3464 30.0017 28.5809 29.0219 28.7002 27.6881Z" fill="#E774E9"/>
</g>
<defs>
<clipPath id="clip0_2353_6340">
<rect width="28.0357" height="39.7715" fill="white" transform="translate(11.085 6.07031)"/>
</clipPath>
</defs>
</svg>
