<svg width="36" height="35" viewBox="0 0 36 35" fill="none" xmlns="http://www.w3.org/2000/svg">
<path d="M17.7282 34.7855C27.2843 34.7855 35.0311 27.0387 35.0311 17.4826C35.0311 7.92646 27.2843 0.179688 17.7282 0.179688C8.17207 0.179688 0.425293 7.92646 0.425293 17.4826C0.425293 27.0387 8.17207 34.7855 17.7282 34.7855Z" fill="#FF0000"/>
<path d="M12.8843 28.0798C11.2208 28.0798 10.3927 27.2589 10.3927 25.6245C10.3927 23.9901 11.2208 23.1983 12.8843 23.1983H15.8335V11.5032L13.8359 12.7163C13.2693 13.0649 12.7318 13.2029 12.2305 13.123C11.7293 13.0504 11.3007 12.8325 10.9521 12.4838C10.6034 12.1351 10.3709 11.7065 10.262 11.2053C10.153 10.7041 10.1966 10.2029 10.3927 9.70166C10.5889 9.20044 10.9811 8.77186 11.5695 8.42319L16.0878 5.60472C17.0684 4.99454 18.1072 4.68945 19.1968 4.68945C20.0249 4.68945 20.6714 4.90011 21.129 5.32869C21.5867 5.75728 21.8191 6.37471 21.8191 7.18102V23.1983H24.4415C26.0977 23.1983 26.933 24.0046 26.933 25.6245C26.933 27.2444 26.1049 28.0798 24.4415 28.0798H12.877H12.8843Z" fill="#FFBC00"/>
</svg>
