<svg width="36" height="35" viewBox="0 0 36 35" fill="none" xmlns="http://www.w3.org/2000/svg">
<path d="M18.2184 34.7855C27.7746 34.7855 35.5213 27.0387 35.5213 17.4826C35.5213 7.92646 27.7746 0.179688 18.2184 0.179688C8.6623 0.179688 0.915527 7.92646 0.915527 17.4826C0.915527 27.0387 8.6623 34.7855 18.2184 34.7855Z" fill="#6600BC"/>
<path d="M12.9132 28.3937C11.9543 28.3937 11.2569 28.1685 10.8356 27.7254C10.4071 27.2751 10.1964 26.614 10.1964 25.7423C10.1964 25.1322 10.3271 24.5874 10.5887 24.1079C10.8502 23.6285 11.2134 23.1563 11.671 22.6987L17.4024 16.7058C18.2522 15.8124 18.8624 15.0278 19.2184 14.3668C19.5816 13.6985 19.7559 13.0375 19.7559 12.3837C19.7559 10.7275 18.6954 9.89214 16.5815 9.89214C16.0585 9.89214 15.4919 9.96478 14.8962 10.1028C14.2933 10.2481 13.6686 10.4878 13.0149 10.8365C12.4265 11.1198 11.8889 11.1997 11.4095 11.0834C10.9301 10.9672 10.5378 10.7202 10.2327 10.3498C9.92762 9.9793 9.73876 9.55073 9.65885 9.0713C9.57895 8.59187 9.65885 8.11244 9.86951 7.64754C10.0874 7.17537 10.4797 6.79038 11.0463 6.48529C12.0487 5.96228 13.0948 5.57001 14.1771 5.32304C15.2595 5.07606 16.3418 4.94531 17.4387 4.94531C20.1046 4.94531 22.1385 5.52644 23.5478 6.68142C24.957 7.83641 25.6616 9.50714 25.6616 11.6936C25.6616 13.0883 25.342 14.4249 24.71 15.6889C24.078 16.9528 23.0175 18.3185 21.5356 19.7858L17.8019 23.5195H24.3177C25.974 23.5195 26.8093 24.3258 26.8093 25.9457C26.8093 27.5656 25.9812 28.401 24.3177 28.401H12.9204L12.9132 28.3937Z" fill="#C98EFF"/>
</svg>
