<svg width="35" height="35" viewBox="0 0 35 35" fill="none" xmlns="http://www.w3.org/2000/svg">
<path d="M17.6891 34.7757C27.2453 34.7757 34.992 27.029 34.992 17.4728C34.992 7.9167 27.2453 0.169922 17.6891 0.169922C8.13301 0.169922 0.38623 7.9167 0.38623 17.4728C0.38623 27.029 8.13301 34.7757 17.6891 34.7757Z" fill="#00A74E"/>
<path d="M11.994 28.2813C10.0545 28.2813 9.08838 27.3224 9.08838 25.4047V9.81602C9.08838 7.89831 10.0545 6.93945 11.994 6.93945H19.3743C21.677 6.93945 23.4567 7.44068 24.7134 8.43586C25.9773 9.43103 26.6021 10.7749 26.6021 12.4456C26.6021 13.557 26.326 14.5231 25.7667 15.3512C25.2146 16.1794 24.4374 16.7968 23.4494 17.1963C24.6408 17.5595 25.556 18.1697 26.2025 19.0269C26.849 19.884 27.1686 20.9518 27.1686 22.2231C27.1686 24.0972 26.5004 25.5791 25.1565 26.6541C23.8127 27.7365 21.9821 28.274 19.6649 28.274H11.9795L11.994 28.2813ZM14.4202 15.4239H18.3864C19.3961 15.4239 20.137 15.2423 20.6092 14.8791C21.0814 14.5159 21.3211 13.9638 21.3211 13.2156C21.3211 12.4674 21.0814 11.9226 20.6092 11.5667C20.137 11.2107 19.3961 11.0364 18.3864 11.0364H14.4202V15.4239ZM14.4202 24.1989H18.9312C19.9627 24.1989 20.7109 24.0028 21.1831 23.6105C21.6552 23.2182 21.8949 22.6298 21.8949 21.8381C21.8949 21.0463 21.6552 20.4652 21.1831 20.0802C20.7109 19.6952 19.9554 19.5063 18.9312 19.5063H14.4202V24.1989Z" fill="#BAEC16"/>
</svg>
