<svg width="35" height="35" viewBox="0 0 35 35" fill="none" xmlns="http://www.w3.org/2000/svg">
<path d="M17.5285 34.7855C27.0846 34.7855 34.8314 27.0387 34.8314 17.4826C34.8314 7.92646 27.0846 0.179688 17.5285 0.179688C7.97236 0.179688 0.225586 7.92646 0.225586 17.4826C0.225586 27.0387 7.97236 34.7855 17.5285 34.7855Z" fill="#2FBCEA"/>
<path d="M17.0783 28.7553C15.9451 28.7553 14.8264 28.6463 13.7223 28.4284C12.6182 28.2105 11.6666 27.9054 10.853 27.5131C10.1774 27.1863 9.69801 26.7795 9.41472 26.3C9.13142 25.8206 9.00793 25.3267 9.05151 24.8254C9.0951 24.3242 9.2767 23.8738 9.58906 23.4816C9.90868 23.0893 10.3227 22.8206 10.8312 22.6825C11.347 22.5373 11.9281 22.6099 12.5819 22.8932C13.3882 23.2419 14.1291 23.4816 14.8119 23.6123C15.4875 23.7431 16.163 23.8085 16.8459 23.8085C19.2067 23.8085 20.3835 23.0021 20.3835 21.3823C20.3835 19.9004 19.3374 19.1522 17.2381 19.1522H15.4657C14.6376 19.1522 14.0056 18.9415 13.5625 18.5275C13.1267 18.1134 12.9087 17.525 12.9087 16.7551C12.9087 15.9851 13.1267 15.4039 13.5625 14.9826C13.9983 14.5686 14.6303 14.3579 15.4657 14.3579H16.6425C17.5795 14.3579 18.3205 14.1618 18.8507 13.7695C19.3883 13.3773 19.6571 12.8107 19.6571 12.0625C19.6571 10.6024 18.6401 9.86872 16.6134 9.86872C16.0032 9.86872 15.3785 9.93408 14.7465 10.0648C14.1146 10.1956 13.439 10.4281 12.7126 10.7549C12.146 10.9946 11.623 11.0528 11.1581 10.922C10.6859 10.7913 10.3009 10.537 9.99584 10.1665C9.69075 9.79607 9.50188 9.36022 9.43651 8.87353C9.37113 8.37957 9.4583 7.91467 9.69801 7.4643C9.93773 7.01393 10.3518 6.64346 10.9402 6.33111C12.8216 5.39404 14.9064 4.92188 17.1945 4.92188C19.7733 4.92188 21.7782 5.48121 23.2237 6.60714C24.662 7.73308 25.3884 9.28758 25.3884 11.2779C25.3884 12.4547 25.0906 13.4935 24.5022 14.387C23.9138 15.2804 23.093 15.9415 22.0469 16.3555C23.3327 16.726 24.3351 17.4016 25.047 18.3895C25.7589 19.3701 26.1148 20.5614 26.1148 21.9634C26.1148 24.0627 25.3158 25.7116 23.7104 26.9247C22.105 28.1378 19.8968 28.7408 17.0783 28.7408V28.7553Z" fill="#0078FF"/>
</svg>
