<svg width="35" height="35" viewBox="0 0 35 35" fill="none" xmlns="http://www.w3.org/2000/svg">
<path d="M17.4142 34.7757C26.9704 34.7757 34.7171 27.029 34.7171 17.4728C34.7171 7.9167 26.9704 0.169922 17.4142 0.169922C7.8581 0.169922 0.111328 7.9167 0.111328 17.4728C0.111328 27.029 7.8581 34.7757 17.4142 34.7757Z" fill="#A120DE"/>
<path d="M8.49915 27.4034C7.54756 27.4034 6.85747 27.0837 6.41436 26.4372C5.97125 25.7907 5.97125 24.9844 6.41436 24.0183L13.9472 7.79764C14.3104 7.01312 14.7535 6.43926 15.2765 6.07606C15.7995 5.71285 16.417 5.53125 17.1216 5.53125C17.8262 5.53125 18.4146 5.71285 18.9376 6.07606C19.4606 6.43926 19.9037 7.01312 20.2669 7.79764L27.7998 24.0183C28.2647 25.0062 28.2865 25.8198 27.8579 26.4518C27.4293 27.0837 26.7683 27.4034 25.8603 27.4034C25.054 27.4034 24.4293 27.2218 24.0007 26.8586C23.5648 26.4954 23.1798 25.907 22.8384 25.1007L21.8723 22.7979H12.3418L11.3757 25.1007C11.0125 25.907 10.6421 26.4954 10.2571 26.8586C9.87206 27.2218 9.29093 27.4034 8.49915 27.4034ZM17.0635 11.604L14.1579 18.5339H20.0272L17.1216 11.604H17.0635Z" fill="#FF10FF"/>
</svg>
