<svg width="36" height="35" viewBox="0 0 36 35" fill="none" xmlns="http://www.w3.org/2000/svg">
<path d="M18.256 34.7757C27.8122 34.7757 35.5589 27.029 35.5589 17.4728C35.5589 7.9167 27.8122 0.169922 18.256 0.169922C8.6999 0.169922 0.953125 7.9167 0.953125 17.4728C0.953125 27.029 8.6999 34.7757 18.256 34.7757Z" fill="#FF7500"/>
<path d="M18.7354 27.7651C16.3746 27.7651 14.3479 27.3148 12.6554 26.4068C10.9629 25.4988 9.66262 24.2203 8.76914 22.5641C7.86839 20.9079 7.42529 18.9756 7.42529 16.7528C7.42529 14.53 7.87566 12.605 8.76914 10.9561C9.66988 9.3144 10.9629 8.03592 12.6554 7.12791C14.3479 6.21991 16.3746 5.76953 18.7354 5.76953C19.6652 5.76953 20.6241 5.87849 21.6265 6.08915C22.6217 6.29981 23.5079 6.61943 24.2779 7.04074C24.8445 7.34583 25.2368 7.72357 25.4547 8.18847C25.6799 8.65337 25.7598 9.12553 25.6944 9.61223C25.6363 10.0989 25.4547 10.5275 25.1642 10.9125C24.8736 11.2975 24.5031 11.5517 24.06 11.6825C23.6169 11.8132 23.1302 11.7479 22.6072 11.4864C21.4159 10.9052 20.1955 10.6074 18.9461 10.6074C17.072 10.6074 15.6555 11.1377 14.7112 12.1982C13.7596 13.2588 13.2874 14.777 13.2874 16.7528C13.2874 18.7286 13.7596 20.2759 14.7112 21.3364C15.6627 22.397 17.072 22.9273 18.9461 22.9273C19.4691 22.9273 20.0357 22.8619 20.6386 22.7311C21.2415 22.6004 21.8372 22.397 22.4256 22.1137C23.0285 21.8522 23.5733 21.7795 24.0455 21.903C24.5176 22.0265 24.9099 22.2662 25.2077 22.6294C25.5128 22.9926 25.6944 23.414 25.7671 23.8861C25.8397 24.3583 25.7671 24.8305 25.5709 25.2954C25.3675 25.7603 24.9971 26.1307 24.4523 26.414C23.7477 26.8353 22.876 27.1695 21.8372 27.4092C20.7984 27.6489 19.7669 27.7724 18.7354 27.7724V27.7651Z" fill="#FFDB00"/>
</svg>
