<svg width="59" height="59" viewBox="0 0 59 59" fill="none" xmlns="http://www.w3.org/2000/svg">
<g clip-path="url(#clip0_437_9366)">
<path d="M29.6512 58.4947C45.578 58.4947 58.4893 45.5834 58.4893 29.6565C58.4893 13.7296 45.578 0.818359 29.6512 0.818359C13.7243 0.818359 0.812988 13.7296 0.812988 29.6565C0.812988 45.5834 13.7243 58.4947 29.6512 58.4947Z" fill="#A43BE3"/>
<path d="M29.6704 46.2476C29.6704 46.2476 29.6511 46.2476 29.6319 46.2476C27.4498 46.2476 25.3254 45.8246 23.3163 44.9979C22.5762 44.6903 22.2301 43.854 22.5377 43.1138C22.8453 42.3737 23.6816 42.0276 24.4218 42.3352C26.0848 43.0177 27.8439 43.3638 29.6511 43.3638H29.7376C30.4971 43.4022 31.1027 44.0367 31.1027 44.8057C31.1027 45.6035 30.4586 46.2476 29.6607 46.2476H29.6704ZM35.4668 45.0941C34.8997 45.0941 34.3614 44.7576 34.1307 44.2097C33.8231 43.4791 34.1691 42.6332 34.9093 42.3256C36.5723 41.6335 38.0719 40.6338 39.3504 39.3456C39.9175 38.7785 40.8307 38.7785 41.3883 39.3456C41.9554 39.9128 41.9554 40.826 41.3883 41.3835C39.8406 42.9312 38.0334 44.152 36.0148 44.9883C35.8321 45.0652 35.6495 45.1037 35.4572 45.1037L35.4668 45.0941ZM18.9522 41.8257C18.5869 41.8257 18.212 41.6815 17.9332 41.4028C16.376 39.8551 15.1648 38.0479 14.3285 36.0293C14.0208 35.2987 14.3669 34.4528 15.1071 34.1452C15.8376 33.8376 16.6836 34.1836 16.9912 34.9238C17.6833 36.5868 18.6926 38.0864 19.9711 39.3649C20.5383 39.9224 20.5383 40.8356 19.9711 41.4028C19.6924 41.6815 19.3175 41.8257 18.9522 41.8257ZM43.6569 36.8944C43.4742 36.8944 43.282 36.8559 43.1089 36.7887C42.3688 36.4811 42.0227 35.6447 42.3303 34.9046C43.0224 33.2416 43.3685 31.4728 43.3685 29.656C43.3685 28.8582 44.0125 28.1853 44.8104 28.1853C45.6083 28.1853 46.2523 28.8005 46.2523 29.5983H44.8104L46.2523 29.6464C46.2523 31.8573 45.8293 34.001 44.993 36.01C44.7623 36.5676 44.224 36.904 43.6569 36.904V36.8944ZM14.5015 31.1172C13.7036 31.1172 13.0596 30.4827 13.0596 29.6945V29.6656C13.0596 27.4835 13.4825 25.3495 14.3092 23.3501C14.6168 22.6099 15.4531 22.2638 16.1933 22.5618C16.9335 22.8694 17.2796 23.7057 16.9816 24.4459C16.2991 26.0993 15.953 27.8584 15.953 29.6656C15.953 30.4635 15.3089 31.1268 14.5111 31.1268L14.5015 31.1172ZM43.6376 25.2438C43.0705 25.2438 42.5418 24.9073 42.3111 24.3594C41.6094 22.6964 40.6096 21.2064 39.3215 19.9279C38.7544 19.3704 38.7544 18.4572 39.3215 17.89C39.8791 17.3229 40.7923 17.3229 41.3594 17.89C42.9167 19.4377 44.1375 21.2449 44.9738 23.2539C45.2814 23.9845 44.9354 24.8304 44.2048 25.138C44.0222 25.2149 43.8299 25.2534 43.6473 25.2534L43.6376 25.2438ZM18.9137 20.4086C18.5484 20.4086 18.1735 20.2644 17.8948 19.9856C17.3276 19.4281 17.3276 18.5149 17.8948 17.9477C19.4424 16.3905 21.2496 15.1793 23.2683 14.3333C23.9989 14.0257 24.8448 14.3718 25.1524 15.112C25.46 15.8425 25.1139 16.6885 24.3737 16.9961C22.7107 17.6882 21.2208 18.6975 19.9327 19.9856C19.6539 20.2644 19.279 20.4086 18.9137 20.4086ZM35.4092 17.073C35.2265 17.073 35.0439 17.0345 34.8612 16.9672C33.2078 16.2847 31.4583 15.9483 29.6511 15.9483C28.8533 15.9483 28.19 15.3042 28.19 14.5064C28.19 13.7085 28.8148 13.0645 29.6127 13.0645H29.6607C31.8428 13.0645 33.9576 13.4778 35.9667 14.3045C36.7069 14.6025 37.0529 15.4484 36.7549 16.1886C36.5242 16.7461 35.9859 17.0826 35.4188 17.0826L35.4092 17.073Z" fill="#FF14FC"/>
</g>
<defs>
<clipPath id="clip0_437_9366">
<rect width="57.6763" height="57.6763" fill="white" transform="translate(0.812988 0.818359)"/>
</clipPath>
</defs>
</svg>
