<svg width="364" height="384" viewBox="0 0 364 384" fill="none" xmlns="http://www.w3.org/2000/svg">
<g clip-path="url(#clip0_38_18051)">
<path d="M275.568 310.287C275.568 307.442 271.18 298.588 268.339 298.588H267.717C264.876 298.588 261.16 311.246 261.16 314.091L262.572 371.459C262.572 374.304 264.876 376.593 267.7 376.593H268.322C271.163 376.593 273.45 374.287 273.45 371.459L275.534 310.304L275.568 310.287Z" fill="#E2DAEB"/>
<path d="M243.154 253.441C243.154 260.461 255.225 328.332 267.498 324.595C273.685 322.71 276.173 315.405 278.477 308.705C280.746 302.073 288.967 263.205 282.495 263.205C276.022 263.205 243.154 246.439 243.154 253.458V253.441Z" fill="#E2DAEB"/>
<path d="M243.743 380.785C243.81 369.877 251.577 363.464 261.16 363.464C270.743 363.464 278.51 369.877 278.561 380.785H243.743Z" fill="black"/>
<path d="M283.453 261.084C260.706 261.084 239.691 257.599 222.727 251.708C218.423 266.319 219.802 279.331 227.821 286.889C228.998 288 230.293 288.959 231.671 289.767C231.016 291.181 230.478 292.747 230.175 294.245C229.284 298.857 230.495 303.958 232.697 304.379C234.899 304.8 238.38 298.942 239.271 294.312C239.371 293.757 239.455 293.201 239.489 292.646C240.145 292.781 240.817 292.882 241.49 292.966C241.002 294.514 240.683 296.198 240.599 297.78C240.363 302.477 242.297 307.358 244.533 307.459C246.769 307.577 249.375 301.265 249.61 296.568C249.677 295.339 249.576 294.161 249.358 293.067C249.896 293.016 250.451 292.966 251.005 292.898C250.787 294.767 250.821 296.871 251.14 298.74C251.913 303.386 254.654 307.745 256.671 307.409C258.689 307.072 259.681 300.372 258.907 295.743C258.655 294.228 258.184 292.814 257.596 291.602C258.47 291.367 259.344 291.131 260.219 290.845C259.664 293.084 259.529 296.248 259.966 298.942C260.706 303.588 263.329 307.998 265.245 307.678C267.162 307.375 268.12 300.692 267.364 296.046C266.91 293.252 265.783 290.794 264.539 289.33C276.778 284.6 289.842 275.712 301.391 263.423C302.434 262.312 303.443 261.201 304.418 260.074C297.642 260.73 290.632 261.084 283.436 261.084H283.453Z" fill="#EEACFF"/>
<path d="M154.655 314.294C154.655 310.641 151.696 307.678 148.048 307.678H147.863C144.215 307.678 137.17 311.651 137.17 315.304L141.256 370.668C141.256 374.321 144.215 377.284 147.863 377.284H148.048C151.696 377.284 154.655 374.321 154.655 370.668V314.277V314.294Z" fill="#E2DAEB"/>
<path d="M126.545 242.399C126.545 249.789 132.497 324.966 139.524 324.966C146.552 324.966 152.133 325.084 155.882 316.381C158.808 309.597 167.584 246.944 160.556 246.944C153.529 246.944 126.528 235.009 126.528 242.399H126.545Z" fill="#E2DAEB"/>
<path d="M309.495 307.577C309.495 303.924 306.536 300.961 302.888 300.961H302.703C299.054 300.961 293.002 304.463 293.002 308.116L296.096 372.351C296.096 376.004 299.054 378.967 302.703 378.967H302.888C306.536 378.967 309.495 376.004 309.495 372.351V307.577Z" fill="#E2DAEB"/>
<path d="M277.434 240.53C277.434 248.324 287.387 324.713 301.324 322.188C308.184 320.943 311.109 303.655 313.278 296.181C321.011 269.5 338.16 206.729 331.199 206.729C324.239 206.729 277.434 232.753 277.434 240.53Z" fill="#E2DAEB"/>
<path d="M189.826 311.886C189.826 308.234 186.867 305.271 183.219 305.271H183.034C179.386 305.271 173.535 311.6 173.535 315.253L176.427 376.661C176.427 380.314 179.386 383.276 183.034 383.276H183.219C186.867 383.276 189.826 380.314 189.826 376.661V311.886Z" fill="#E2DAEB"/>
<path d="M168.105 242.584C168.105 250.378 162.658 320 179.655 323.451C186.817 324.915 190.952 307.846 192.903 298.1C194.433 290.458 202.94 244.133 195.626 244.133C188.313 244.133 168.088 234.79 168.088 242.567L168.105 242.584Z" fill="#E2DAEB"/>
<path d="M279.25 384C279.317 373.934 287.084 366.679 296.667 366.679C306.25 366.679 314.018 373.934 314.085 384H279.267H279.25Z" fill="black"/>
<path d="M160.976 383.277C161.044 373.21 168.811 365.955 178.377 365.955C187.943 365.955 195.727 373.21 195.794 383.277H160.976Z" fill="black"/>
<path d="M123.452 381.492C123.519 370.584 131.286 364.171 140.869 364.171C150.452 364.171 158.219 370.584 158.286 381.492H123.468H123.452Z" fill="black"/>
<path d="M89.4575 45.5844C89.4575 45.5844 83.0016 53.8663 77.4368 50.062C71.8551 46.2577 58.5231 32.2356 60.675 19.1899C62.827 6.12726 70.342 -1.61604 73.1329 0.28612C75.9237 2.18828 78.2774 4.41026 75.5538 10.5376C72.8134 16.648 73.8053 20.6038 79.8577 29.4245C85.8933 38.2451 89.4743 45.6012 89.4743 45.6012L89.4575 45.5844Z" fill="#FFD200"/>
<path d="M47.8305 70.1608C66.2903 80.3786 88.6168 74.79 91.0378 70.9352C93.4587 67.0803 85.8428 44.9446 67.3831 34.7269C48.9233 24.5259 29.5894 24.1724 24.1927 33.9525C18.7959 43.7326 29.3876 59.9431 47.8474 70.1608H47.8305Z" fill="black"/>
<path d="M53.3114 66.5754C66.5089 73.881 82.2115 71.2214 84.2121 67.1309C86.4818 62.4849 80.4966 48.547 67.2991 41.2414C54.1015 33.9357 40.2483 33.6832 36.3983 40.6859C32.5316 47.6885 40.1138 59.2698 53.3114 66.5754Z" fill="#FF10FF"/>
<path fill-rule="evenodd" clip-rule="evenodd" d="M349.037 305.204C350.5 298.134 350.971 289.969 350.231 281.418C348.079 256.825 338.261 169.208 326.105 169.427C325.752 169.427 325.382 169.46 325.029 169.494C326.98 168.366 329.014 167.726 331.099 167.693C343.271 167.474 352.82 254.485 354.972 279.078C355.812 288.757 355.09 297.932 353.156 305.608L349.037 305.204Z" fill="#E2DAEB"/>
<path d="M363.277 310.776C365.765 319.63 361.192 328.552 359.326 329.191C357.443 329.831 348.835 324.394 346.347 315.539C343.859 306.685 345.624 298.437 350.298 297.124C354.972 295.811 360.789 301.921 363.277 310.776Z" fill="black"/>
<path d="M336.983 175.15C322.978 144.092 279.653 132.882 236.093 147.223C227.485 139.985 217.247 135.76 206.235 135.76C200.115 135.76 194.231 137.073 188.733 139.48C180.882 133.891 171.888 130.693 162.305 130.693C157.126 130.693 152.116 131.653 147.359 133.386C142.214 130.239 136.481 128.471 130.429 128.471C108.203 128.471 90.1973 152.206 90.1973 181.479C90.1973 201.258 98.4184 218.495 110.607 227.602C118.408 254.939 138.616 274.415 162.305 274.415C167.096 274.415 171.753 273.607 176.191 272.109C193.575 285.711 222.442 280.257 278.325 277.21C330.897 274.331 352.517 209.54 337 175.15H336.983Z" fill="#E2DAEB"/>
<path d="M154.621 130.121C154.621 159.394 136.481 183.129 114.104 183.129C91.7271 183.129 73.5868 159.394 73.5868 130.121C73.5868 100.848 91.7271 77.1133 114.104 77.1133C136.481 77.1133 154.621 100.848 154.621 130.121Z" fill="#E2DAEB"/>
<path d="M172.98 221.071C167.281 226.34 165.465 231.205 156.219 229.202C150.267 227.316 148.754 208.547 140.213 202.74C122.073 189.98 141.458 106.336 152.823 131.165C156.185 138.521 160.607 130.441 167.214 130.778C172.963 131.081 201.662 138.672 200.149 155.724C200.149 155.724 178.663 180.503 178.461 198.498C178.259 216.476 172.997 221.088 172.997 221.088L172.98 221.071Z" fill="black"/>
<path d="M130.849 80.6648C129.992 81.0856 128.966 80.7153 128.563 79.8736L128.411 79.5538C127.991 78.6953 128.344 77.6685 129.201 77.2645L137.49 73.2413C138.347 72.8205 139.373 73.1908 139.776 74.0325L139.928 74.3523C140.331 75.2108 139.978 76.2377 139.137 76.6417L130.849 80.6648Z" fill="#5E1E81"/>
<path d="M225.552 191.647C219.079 185.385 213.33 183.6 215.028 172.726C216.81 165.69 238.447 162.693 244.617 152.391C258.201 130.475 332.074 138.066 326.929 169.376C326.375 173.837 311.866 181.126 308.84 188.196C303.914 197.202 331.418 217.267 303.039 218.866C303.039 218.866 272.912 195.569 252.065 196.511C231.218 197.454 225.552 191.647 225.552 191.647Z" fill="black"/>
<path d="M190.835 220.297C200.149 221.93 212.388 224.421 215.801 234.285C217.264 239.689 214.49 245.732 216.322 250.849C217.331 254.805 224.341 259.804 224.274 262.212C224.409 279.045 187.035 261.488 180.697 262.43C179.924 268.81 176.998 274.786 167.483 264.955C164.389 261.757 167.298 262.043 167.735 257.667C168.323 254.334 166.239 255.074 165.869 251.236C165.869 245.395 169.029 244.941 172.947 242.18C178.411 238.342 177.015 240.497 178.461 234.235C180.411 227.03 179.335 215.55 190.852 220.297" fill="black"/>
<path d="M254.67 270.544C246.214 263.053 235.337 252.987 238.346 244.671C240.414 240.395 247.206 238.712 248.702 234.335C250.266 231.255 246.399 223.343 248.03 221.946C258.974 211.728 285.655 248.408 292.75 252.28C297.743 248.98 304.67 247.432 307.931 260.006C308.991 264.097 306.2 261.891 302.888 264.231C300.097 265.83 302.736 266.84 300.568 269.399C296.734 272.917 293.187 270.981 287.387 269.904C279.267 268.389 282.108 268.069 276.526 270.847C269.785 273.809 263.346 281.485 254.704 270.561" fill="black"/>
<path d="M147.157 101.538C154.168 112.564 156.622 126.216 152.789 139.48C145.56 164.595 118.576 178.836 92.551 171.329C86.4986 169.578 81.0346 166.801 76.3104 163.266C82.5645 173.096 92.4333 180.856 104.706 184.408C130.748 191.933 157.715 177.675 164.944 152.56C170.492 133.286 162.792 113.237 147.14 101.538H147.157Z" fill="#0079FF"/>
<path d="M103.159 177.911C99.6456 175.756 95.1232 176.951 93.0721 180.587C91.0042 184.206 92.181 188.903 95.6948 191.057C99.2085 193.195 103.714 192 105.782 188.381C107.85 184.745 106.673 180.065 103.159 177.928M97.3255 188.179C95.3417 186.967 94.686 184.324 95.8461 182.271C97.0061 180.217 99.5616 179.544 101.545 180.756C103.529 181.984 104.185 184.61 103.025 186.664C101.865 188.718 99.3094 189.391 97.3255 188.179Z" fill="#F7931E"/>
<path d="M71.6197 206.679C70.0898 210.231 68.8457 215.466 68.6944 217.031C68.1564 222.384 72.4267 223.546 80.1939 226.677C87.1374 229.471 94.5011 229.69 99.8978 224.556C101.243 223.276 103.143 218.058 104.504 214.91C111.33 199.137 107.699 188.684 98.6201 186.395C89.5415 184.122 78.4287 190.906 71.6197 206.662" fill="#FBB03B"/>
<path d="M71.8047 216.122C70.6279 218.849 75.3353 222.451 82.3123 224.202C89.2894 225.953 95.8965 225.178 97.0734 222.451C98.2502 219.724 93.5428 216.122 86.5658 214.371C79.5887 212.621 72.9816 213.412 71.8047 216.122Z" fill="#F7931E"/>
<path d="M90.7857 188.852C90.7857 188.852 82.3964 200.652 80.5639 205.854L78.765 211.055L73.9062 211.122C73.9062 211.122 77.958 197.723 82.5309 193.734C87.1206 189.727 90.7857 188.852 90.7857 188.852Z" fill="#FCEE21"/>
<path d="M80.194 220.6C78.9499 223.495 79.6224 226.256 81.6903 226.778C83.775 227.299 86.4649 225.38 87.709 222.502C88.9531 219.623 88.2807 216.846 86.2128 216.341C84.1281 215.819 81.4381 217.721 80.1772 220.617" fill="#F15A24"/>
<path d="M102.689 173.652L100.1 181.749C100.1 181.749 100.856 184.745 106.707 186.243C112.541 187.758 112.944 184.29 112.457 183.987C111.952 183.684 102.705 173.652 102.705 173.652" fill="#0079FF"/>
<path d="M138.784 59.5055C138.784 59.5055 145.24 67.7875 150.822 63.9663C156.404 60.162 169.736 46.1399 167.584 33.0942C165.432 20.0316 157.917 12.2883 155.126 14.1904C152.335 16.0926 149.981 18.3146 152.705 24.4419C155.428 30.5523 154.453 34.5081 148.418 43.3288C142.365 52.1494 138.801 59.5055 138.801 59.5055H138.784Z" fill="#FFD200"/>
<path d="M174.897 91.8592C153.848 93.1385 136.094 78.4936 135.556 73.9654C135.035 69.4541 151.41 52.7219 172.442 51.4594C193.491 50.18 211.11 58.1927 211.783 69.3531C212.455 80.5136 195.946 90.5967 174.897 91.876V91.8592Z" fill="black"/>
<path d="M171.484 86.2705C156.42 87.1795 143.391 78.0222 143.34 73.4773C143.29 68.3095 154.672 58.2937 169.736 57.3678C184.799 56.4588 197.392 62.1822 197.879 70.1611C198.367 78.1401 186.548 85.3447 171.484 86.2705Z" fill="#FF10FF"/>
<path d="M156.555 90.7818C156.757 120.661 133.438 145.035 104.488 145.237C75.537 145.423 51.8991 121.368 51.6973 91.4888C51.4956 61.6098 74.8141 37.2353 103.765 37.0501C132.715 36.8481 156.353 60.9196 156.555 90.7986V90.7818Z" fill="#E2DAEB"/>
<path d="M89.4575 82.954C93.0889 72.349 87.4569 60.8014 76.8652 57.1823C66.2736 53.5463 54.7404 59.2023 51.109 69.7904C47.4776 80.3953 53.1265 91.9429 63.7181 95.5621C74.3098 99.1981 85.8261 93.5589 89.4575 82.954Z" fill="black"/>
<path d="M141.088 49.3718C140.768 39.8947 131.286 30.0473 117.668 25.9904C103.731 21.8326 90.1132 25.1151 84.9014 33.2961C83.9263 33.9862 83.1865 34.9289 82.8503 36.0736C81.8752 39.356 84.4811 43.0257 88.6505 44.2713C92.097 45.2982 95.5435 44.3555 97.2079 42.1504C97.376 44.8942 99.7465 47.5875 103.193 48.6143C106.64 49.6412 110.103 48.6985 111.75 46.4933C111.919 49.2372 114.289 51.9305 117.752 52.9573C121.199 53.9841 124.662 53.0415 126.31 50.8363C126.495 53.5801 128.848 56.2735 132.312 57.3003C136.498 58.5459 140.684 56.8963 141.659 53.6138C142.08 52.1998 141.827 50.7185 141.088 49.3718Z" fill="black"/>
<path d="M133.27 89.0646C136.901 78.4596 131.269 66.912 120.678 63.2929C110.086 59.6569 98.5529 65.296 94.9215 75.901C91.2901 86.5059 96.9389 98.0535 107.531 101.673C118.105 105.309 129.639 99.6695 133.27 89.0646Z" fill="black"/>
<path d="M82.3964 65.3468C81.9761 66.1885 80.9338 66.542 80.0932 66.1043L79.7737 65.936C78.9331 65.5152 78.5801 64.4715 79.0172 63.6298L83.1698 55.3984C83.5901 54.5399 84.6324 54.2032 85.4731 54.6409L85.7925 54.8092C86.6331 55.2301 86.9693 56.2737 86.549 57.1154L82.4132 65.3468H82.3964Z" fill="black"/>
<path d="M75.3353 61.3739C75.2344 62.3166 74.3938 63.0067 73.4523 62.9057L73.0993 62.8721C72.1578 62.7711 71.4685 61.9294 71.5694 60.9868L72.5109 51.8126C72.6117 50.87 73.4523 50.1798 74.3938 50.2808L74.7637 50.3145C75.7052 50.4155 76.3945 51.2571 76.2936 52.1998L75.3521 61.3739H75.3353Z" fill="black"/>
<path d="M67.8035 60.7512C67.9884 61.6771 67.3663 62.5861 66.4417 62.7544L66.0886 62.8217C65.164 63.0069 64.2561 62.3841 64.088 61.4582L62.3563 52.4019C62.1714 51.4761 62.7934 50.5671 63.7181 50.3988L64.0712 50.3315C64.9958 50.1463 65.9037 50.7691 66.0886 51.6949L67.8203 60.7512H67.8035Z" fill="black"/>
<path d="M61.6334 61.8961C62.1545 62.6872 61.9528 63.7477 61.1626 64.2695L60.86 64.4715C60.0698 64.9934 59.0107 64.7914 58.4727 64.0002L53.345 56.3411C52.8238 55.5499 53.0255 54.4894 53.8157 53.9508L54.1183 53.7488C54.9085 53.2269 55.9677 53.4289 56.4888 54.2201L61.6165 61.8792L61.6334 61.8961Z" fill="black"/>
<path d="M127.655 73.2078C126.999 73.8979 125.923 73.9316 125.234 73.2751L124.965 73.0226C124.275 72.3661 124.242 71.2888 124.897 70.5986L131.202 63.8821C131.858 63.192 132.934 63.1583 133.623 63.8148L133.892 64.0673C134.581 64.707 134.615 65.8011 133.959 66.4913L127.655 73.2078Z" fill="black"/>
<path d="M122.039 68.1579C121.619 68.9995 120.594 69.353 119.736 68.9322L119.417 68.7639C118.576 68.343 118.223 67.3162 118.643 66.4577L122.746 58.2094C123.166 57.3678 124.191 57.0143 125.049 57.4351L125.368 57.6034C126.209 58.0242 126.562 59.0679 126.142 59.9096L122.039 68.1579Z" fill="black"/>
<path d="M116.441 65.296C116.374 66.2386 115.567 66.9625 114.625 66.912H114.255C113.314 66.8278 112.591 66.0198 112.658 65.0603L113.23 55.8525C113.297 54.9099 114.104 54.186 115.046 54.2534H115.415C116.357 54.3375 117.08 55.1455 117.013 56.0882L116.441 65.296Z" fill="black"/>
<path d="M88.7513 84.4692C92.0801 74.7228 86.902 64.1178 77.1678 60.768C67.4335 57.4182 56.8251 62.6197 53.4962 72.3661C50.1506 82.1126 55.3456 92.7175 65.0798 96.0673C74.8141 99.4172 85.4057 94.2157 88.7513 84.4692Z" fill="#F5F5F5"/>
<path d="M72.9141 85.2099C78.3444 84.7723 82.4129 80.0253 81.9758 74.5713C81.875 73.3593 81.5555 72.1979 81.068 71.1542C80.614 73.0059 79.0169 74.4367 77.0162 74.605C74.528 74.807 72.3593 72.9385 72.1575 70.4472C72.0062 68.4272 73.1999 66.6092 74.9652 65.9022C73.8219 65.5487 72.6115 65.4141 71.3674 65.5151C65.937 65.9359 61.8685 70.6997 62.3056 76.1368C62.7259 81.5908 67.4838 85.6476 72.9141 85.2268V85.2099Z" fill="#FF3E00"/>
<path d="M128.596 89.6875C131.925 79.941 126.73 69.3193 116.996 65.9863C107.262 62.6365 96.6699 67.8379 93.3242 77.5844C89.9786 87.3308 95.1736 97.9358 104.908 101.286C114.642 104.619 125.251 99.4339 128.596 89.6875Z" fill="#F5F5F5"/>
<path d="M113.331 92.2462C118.761 92.6502 123.485 88.5598 123.889 83.1058C123.973 81.877 123.838 80.6986 123.502 79.5708C122.779 81.3383 120.997 82.5166 118.996 82.382C116.508 82.1968 114.625 80.0253 114.81 77.534C114.961 75.514 116.39 73.898 118.257 73.4603C117.181 72.9553 116.004 72.6355 114.743 72.5513C109.313 72.1642 104.588 76.2378 104.185 81.6918C103.798 87.1289 107.884 91.8591 113.314 92.2462H113.331Z" fill="#FF3E00"/>
<path d="M110.254 155.169C103.227 176.16 81.3372 187.741 61.3475 181.041C41.3579 174.342 24.6802 154.95 45.3928 147.173C65.5674 139.598 58.5063 113.86 86.7843 105.022C106.908 98.7268 117.282 134.178 110.271 155.169H110.254Z" fill="black"/>
<path d="M109.767 149.328C101.478 174.089 74.3602 177.473 45.0734 167.659C15.7866 157.828 -6.53992 125.812 1.74847 101.033C10.0369 76.2714 42.4675 76.8605 71.7543 86.6911C101.041 96.5049 118.055 124.549 109.767 149.328Z" fill="black"/>
<path d="M22.4106 108.693C24.9156 112.901 30.2619 114.786 34.364 112.901C38.4662 111.016 39.7607 106.1 37.2557 101.892C34.7507 97.6836 29.4044 95.7982 25.3023 97.6836C21.2169 99.5689 19.9056 104.501 22.4106 108.693Z" fill="#EF5091"/>
<path d="M67.7866 109.13C63.0288 108.507 58.1196 111.47 56.8083 115.779C55.4969 120.072 58.3045 124.078 63.0456 124.701C67.8034 125.324 72.7294 122.361 74.0407 118.052C75.3353 113.759 72.5444 109.77 67.7866 109.13Z" fill="#EF5091"/>
<path d="M74.0407 154.008C83.0016 149.025 88.6841 138.74 89.6928 130.256C96.3504 136.989 93.3242 157.374 81.976 163.973C70.0226 170.942 54.7235 167.794 48.0995 157.458C47.4439 156.432 46.6033 155.657 46.1661 154.58C54.6563 157.761 65.0798 158.99 74.0239 154.008H74.0407Z" fill="#F5F5F5"/>
</g>
<defs>
<clipPath id="clip0_38_18051">
<rect width="364" height="384" fill="white"/>
</clipPath>
</defs>
</svg>
