<svg width="116" height="92" viewBox="0 0 116 92" fill="none" xmlns="http://www.w3.org/2000/svg">
<path d="M53.1909 37.4109C53.1909 37.4109 54.5366 39.0693 55.513 43.1458C56.3786 46.7558 56.46 48.9663 56.46 48.9663" stroke="#E80000" stroke-width="5" stroke-miterlimit="10" stroke-linecap="round"/>
<path fill-rule="evenodd" clip-rule="evenodd" d="M62.4251 34.1816C63.5773 28.782 60.1247 23.4764 54.7308 22.3358C49.3388 21.1894 44.0313 24.6362 42.8887 30.0301C41.7385 35.4279 45.1872 40.7315 50.5812 41.8798C55.977 43.0243 61.2807 39.5756 62.4251 34.1836V34.1816Z" fill="#FF0000"/>
<path fill-rule="evenodd" clip-rule="evenodd" d="M59.9747 33.0277C60.9233 28.5804 58.0814 24.2119 53.638 23.2729C49.1965 22.3301 44.828 25.1663 43.8851 29.6097C42.9385 34.055 45.7785 38.4216 50.22 39.3683C54.6634 40.3111 59.0319 37.4692 59.9728 33.0296L59.9747 33.0277Z" fill="white"/>
<path d="M46.1452 30.6178C46.3238 27.4283 49.0582 24.9877 52.2458 25.1739C52.9659 25.2143 53.6437 25.3852 54.2678 25.6617C53.1905 25.9478 52.3668 26.9021 52.2996 28.0754C52.2131 29.5348 53.3269 30.7887 54.7939 30.8732C55.9749 30.9385 57.0195 30.2203 57.417 29.1718C57.6301 29.8324 57.73 30.541 57.6877 31.2803C57.5034 34.4659 54.7728 36.8989 51.5814 36.7145C48.3938 36.5359 45.957 33.8015 46.1433 30.6159L46.1452 30.6178Z" fill="#5E1EBB"/>
<path d="M13.832 40.6892C13.4498 40.6432 9.6881 50.4997 14.8286 56.2873C20.6104 62.7969 29.9139 59.4845 29.9139 59.4845" stroke="#E80000" stroke-width="6" stroke-miterlimit="10" stroke-linecap="round"/>
<path d="M33.7408 12.7845C36.5252 12.3486 40.6652 19.4996 34.4571 29.8285C28.249 40.1574 20.2896 43.1933 14.4732 42.8937C7.02467 42.5097 2.31242 35.1936 9.4288 28.2136C13.4171 24.302 20.2435 27.1555 25.2784 23.0251C28.2317 20.6037 30.9584 13.2185 33.7427 12.7826L33.7408 12.7845Z" fill="#FF0000"/>
<path d="M18.7533 23.0445C18.1772 25.1778 18.4038 32.2424 18.7648 33.8208C19.8497 38.5599 20.7503 42.819 14.0986 43.2011C8.68166 43.5122 0.645504 36.8279 0.0310305 27.0558C-0.781227 14.1039 14.5096 1.84704 27.4826 2.23108C34.2303 2.43079 22.7992 8.04938 18.7552 23.0445H18.7533Z" fill="#FF0000"/>
<path d="M105.154 41.882C105.538 41.8724 108.324 52.0477 102.646 57.3091C96.2595 63.2253 87.3208 59.0258 87.3208 59.0258" stroke="#E80000" stroke-width="6" stroke-miterlimit="10" stroke-linecap="round"/>
<path d="M83.6338 10.8297C80.9051 10.125 76.0892 16.84 81.2661 27.7239C86.4412 38.6078 94.0683 42.4021 99.8866 42.6671C107.337 43.007 112.739 36.1864 106.335 28.5477C102.746 24.2675 95.6736 26.4431 91.0632 21.8442C88.3595 19.1482 86.3624 11.5325 83.6338 10.8278V10.8297Z" fill="#FF0000"/>
<path d="M97.5537 22.4971C97.9185 24.6766 97.0083 31.6854 96.4937 33.2216C94.9518 37.8321 93.6441 41.9836 100.227 43.011C105.588 43.8463 114.237 37.9742 115.796 28.3097C117.864 15.4979 103.835 1.81243 90.8886 0.932962C84.1524 0.475948 94.9844 7.17947 97.5537 22.4952V22.4971Z" fill="#FF0000"/>
<path d="M25.3606 88.0883C24.8172 88.0499 23.9838 87.036 23.5652 85.4211L21.3032 76.0311C20.562 73.2065 23.6631 73.2468 24.2872 75.8679L25.9808 85.1887C26.217 86.7863 26.121 88.142 25.3606 88.0883Z" fill="#FF0000"/>
<path d="M21.7295 76.0352C20.7656 75.2959 21.0267 74.3243 22.2998 73.7943L41.2659 64.9631C42.539 64.4332 44.0003 65.0342 44.5303 66.3073C45.0603 67.5804 44.4593 69.0417 43.1862 69.5717L26.1038 75.7183C25.5162 75.9641 22.6916 76.7745 21.7276 76.0352H21.7295Z" fill="#E80000"/>
<path d="M37.4063 91.6815C36.8667 91.7564 35.8432 90.9364 35.0982 89.4425L30.9447 80.7227C29.6351 78.1131 32.6787 77.5102 33.8308 79.947L37.414 88.7167C37.9747 90.2298 38.1609 91.5778 37.4063 91.6815Z" fill="#FF0000"/>
<path d="M31.3651 80.6399C30.2687 80.1157 30.3244 79.1114 31.4611 78.3299L48.194 65.7697C49.3289 64.9881 50.8843 65.2743 51.6658 66.4091C52.4473 67.544 52.1612 69.0994 51.0264 69.8809L35.582 79.4244C35.0577 79.7854 32.4616 81.1642 31.367 80.6399H31.3651Z" fill="#E80000"/>
<path d="M14.2292 84.5167C13.753 84.2517 13.4246 82.9824 13.7242 81.3406L15.629 71.8719C16.1475 68.9974 18.9434 70.3415 18.4038 72.9818L16.0131 82.149C15.5541 83.6967 14.8955 84.8853 14.2292 84.5167Z" fill="#FF0000"/>
<path d="M16.4277 72.085C15.4791 71.3265 15.7594 70.3606 17.0421 69.8556L36.1791 61.3989C37.4619 60.8939 38.9116 61.5237 39.4167 62.8064C39.9217 64.0891 39.2918 65.5389 38.0091 66.0439L20.8077 71.8526C20.2144 72.0869 17.3763 72.8415 16.4257 72.083L16.4277 72.085Z" fill="#E80000"/>
<path d="M91.6239 88.0883C92.1673 88.0499 93.0007 87.036 93.4193 85.4211L95.6813 76.0311C96.4225 73.2065 93.3214 73.2468 92.6973 75.8679L91.0036 85.1887C90.7675 86.7863 90.8635 88.142 91.6239 88.0883Z" fill="#FF0000"/>
<path d="M95.2532 76.0352C96.2172 75.2959 95.956 74.3243 94.6829 73.7943L75.7168 64.9631C74.4437 64.4332 72.9824 65.0342 72.4524 66.3073C71.9224 67.5804 72.5234 69.0417 73.7966 69.5717L90.8789 75.7183C91.4665 75.9641 94.2912 76.7745 95.2551 76.0352H95.2532Z" fill="#E80000"/>
<path d="M79.5765 91.6815C80.1161 91.7564 81.1396 90.9364 81.8846 89.4425L86.0381 80.7227C87.3477 78.1131 84.3041 77.5102 83.152 79.947L79.5688 88.7167C79.0081 90.2298 78.8218 91.5778 79.5765 91.6815Z" fill="#FF0000"/>
<path d="M85.6195 80.6399C86.716 80.1157 86.6603 79.1114 85.5235 78.3299L68.7906 65.7697C67.6558 64.9881 66.1004 65.2743 65.3189 66.4091C64.5373 67.544 64.8235 69.0994 65.9583 69.8809L81.4027 79.4244C81.9269 79.7854 84.5231 81.1642 85.6176 80.6399H85.6195Z" fill="#E80000"/>
<path d="M102.756 84.5167C103.232 84.2517 103.56 82.9824 103.261 81.3406L101.356 71.8719C100.837 68.9974 98.0414 70.3415 98.581 72.9818L100.972 82.149C101.431 83.6967 102.089 84.8853 102.756 84.5167Z" fill="#FF0000"/>
<path d="M100.555 72.0851C101.503 71.3266 101.223 70.3607 99.9404 69.8557L80.8034 61.399C79.5207 60.894 78.0709 61.5238 77.5659 62.8065C77.0609 64.0893 77.6907 65.539 78.9734 66.044L96.1748 71.8527C96.7682 72.087 99.6063 72.8417 100.557 72.0832L100.555 72.0851Z" fill="#E80000"/>
<path d="M67.155 40.8767C67.155 40.8767 65.8947 42.258 64.9503 44.9177C64.1467 47.1806 64.1014 49.0737 64.1014 49.0737" stroke="#E80000" stroke-width="5" stroke-miterlimit="10" stroke-linecap="round"/>
<path fill-rule="evenodd" clip-rule="evenodd" d="M76.2928 36.0404C76.7402 31.4857 73.4028 27.4359 68.8538 26.9962C64.3048 26.5526 60.255 29.8842 59.8134 34.4351C59.3679 38.988 62.7014 43.0358 67.2504 43.4813C71.8014 43.923 75.8492 40.5876 76.2909 36.0404H76.2928Z" fill="#FF0000"/>
<path fill-rule="evenodd" clip-rule="evenodd" d="M73.9922 35.5066C74.3552 31.7987 71.6399 28.5016 67.9377 28.1464C64.2355 27.7854 60.9385 30.4967 60.5794 34.2009C60.2165 37.9069 62.9298 41.202 66.6339 41.563C70.338 41.9221 73.6331 39.2088 73.9922 35.5066Z" fill="white"/>
<path d="M62.3443 34.9306C62.2656 32.1348 64.4719 29.8075 67.264 29.7364C67.8938 29.7191 68.4987 29.819 69.0632 30.0129C68.1453 30.3413 67.4963 31.2342 67.5251 32.2634C67.5577 33.5423 68.6216 34.5543 69.9062 34.5197C70.9393 34.4909 71.7995 33.7862 72.0684 32.8433C72.3026 33.4041 72.4428 34.0147 72.4601 34.6618C72.5331 37.4538 70.3325 39.7754 67.5347 39.8483C64.7408 39.9271 62.4173 37.7227 62.3443 34.9287V34.9306Z" fill="#5E1EBB"/>
<path d="M95.5357 57.5759C95.5357 64.746 79.8071 72.9301 60.407 72.9301C41.0069 72.9301 25.2783 64.746 25.2783 57.5759C25.2783 54.1694 26.3498 55.1699 32.1547 52.8541C38.5701 50.2944 50.2221 46.9647 60.407 46.9647C69.8795 46.9647 75.7516 49.0789 82.071 51.3313C88.6939 53.6932 95.5376 53.9044 95.5376 57.574L95.5357 57.5759Z" fill="#FF0000"/>
<path d="M60.7276 59.1546C55.4681 59.1891 50.8384 57.29 48.1923 54.4154C47.935 55.1355 47.7852 55.8902 47.7987 56.6679C47.864 61.6336 53.69 65.6238 60.814 65.5758C67.9342 65.5317 73.6546 61.4665 73.5893 56.5008C73.5778 55.7231 73.4145 54.9723 73.1361 54.2542C70.5668 57.1633 65.989 59.12 60.7276 59.1546Z" fill="white"/>
<path d="M64.3707 54.2724C65.097 54.2556 65.679 53.9524 65.6708 53.5951C65.6626 53.2378 65.0671 52.9618 64.3409 52.9785C63.6146 52.9952 63.0326 53.2984 63.0408 53.6557C63.049 54.013 63.6444 54.2891 64.3707 54.2724Z" fill="#E80000"/>
<path d="M59.8458 52.6047C60.5721 52.5879 61.1541 52.2847 61.1459 51.9274C61.1377 51.5701 60.5422 51.294 59.816 51.3108C59.0897 51.3275 58.5077 51.6307 58.5159 51.988C58.5241 52.3453 59.1195 52.6214 59.8458 52.6047Z" fill="#E80000"/>
<path d="M62.5323 50.462C63.2586 50.4452 63.8407 50.142 63.8324 49.7847C63.8242 49.4274 63.2288 49.1513 62.5025 49.1681C61.7762 49.1848 61.1942 49.488 61.2024 49.8453C61.2106 50.2026 61.8061 50.4787 62.5323 50.462Z" fill="#E80000"/>
<path d="M57.4874 50.5454C58.0662 50.53 58.5301 50.318 58.5236 50.0721C58.517 49.8261 58.0424 49.6393 57.4636 49.6547C56.8848 49.6702 56.4209 49.8821 56.4274 50.1281C56.434 50.374 56.9086 50.5609 57.4874 50.5454Z" fill="#E80000"/>
<path d="M66.6363 51.7964C67.2151 51.7809 67.6791 51.569 67.6725 51.3231C67.6659 51.0771 67.1914 50.8903 66.6125 50.9057C66.0337 50.9212 65.5698 51.1331 65.5763 51.3791C65.5829 51.625 66.0575 51.8118 66.6363 51.7964Z" fill="#E80000"/>
<path d="M61.6265 48.713C62.2054 48.6976 62.6693 48.4856 62.6627 48.2397C62.6562 47.9937 62.1816 47.8069 61.6028 47.8223C61.0239 47.8378 60.56 48.0497 60.5666 48.2957C60.5732 48.5416 61.0477 48.7285 61.6265 48.713Z" fill="#E80000"/>
<path d="M53.9675 53.2605C54.538 53.2497 54.9956 52.9873 54.9897 52.6745C54.9837 52.3617 54.5164 52.117 53.946 52.1278C53.3755 52.1387 52.9179 52.401 52.9239 52.7138C52.9298 53.0266 53.3971 53.2714 53.9675 53.2605Z" fill="#E80000"/>
</svg>
