<svg width="32" height="31" viewBox="0 0 32 31" fill="none" xmlns="http://www.w3.org/2000/svg">
<g opacity="0.3">
<path d="M16.3864 0.0699997C16.1964 0.0199997 15.9964 0 15.7964 0C14.6964 0 13.7264 0.73 13.3864 1.79L10.8063 9.78L2.53644 9.84C1.43644 9.84 0.466401 10.57 0.126401 11.63C-0.213599 12.68 0.146435 13.84 1.03644 14.48L7.71637 19.36L5.13641 27.35C4.79641 28.41 5.15645 29.56 6.04645 30.2C6.31645 30.4 6.62634 30.54 6.93634 30.61C7.63634 30.78 8.40642 30.63 9.01642 30.18L15.7264 25.21L22.4064 30.09C22.6764 30.29 22.9864 30.43 23.2964 30.5C23.9964 30.67 24.7564 30.52 25.3764 30.07C26.2664 29.41 26.6363 28.25 26.3063 27.2L23.7664 19.24L30.4164 14.31C30.9164 13.96 31.2963 13.43 31.4463 12.79C31.7663 11.44 30.9863 10.09 29.6763 9.73C29.6463 9.73 29.6164 9.72 29.5864 9.71C29.5164 9.69 29.4564 9.68 29.3864 9.67C29.2364 9.65 29.0863 9.64 28.9363 9.64L20.7164 9.7L18.1863 1.75C17.9063 0.89 17.2164 0.26 16.3764 0.0600004L16.3864 0.0699997Z" fill="url(#paint0_radial_437_7686)"/>
</g>
<defs>
<radialGradient id="paint0_radial_437_7686" cx="0" cy="0" r="1" gradientUnits="userSpaceOnUse" gradientTransform="translate(11.1064 -9.5) scale(0.499999)">
<stop offset="0.16" stop-color="#FFE426"/>
<stop offset="0.42" stop-color="#FFD000"/>
<stop offset="0.76" stop-color="#FFBE00"/>
</radialGradient>
</defs>
</svg>
