<svg width="216" height="163" viewBox="0 0 216 163" fill="none" xmlns="http://www.w3.org/2000/svg">
<g clip-path="url(#clip0_501_6220)">
<path fill-rule="evenodd" clip-rule="evenodd" d="M106.208 57.4857C105.05 56.812 104.792 56.4531 104.836 55.4898C104.88 54.5265 106.359 53.0784 110.463 51.8569C115.933 50.2388 115.94 53.0972 115.845 54.3376C115.663 56.6231 114.706 57.3409 113.095 57.9075C111.49 58.4742 107.36 58.1594 106.208 57.4857Z" fill="#EBE300"/>
<path fill-rule="evenodd" clip-rule="evenodd" d="M101.311 54.0416C103.099 55.8045 106.127 57.0448 107.203 55.9556C108.279 54.8601 107.008 51.8442 105.22 50.0813C103.433 48.3184 101.815 48.4695 100.738 49.565C99.6621 50.6605 99.5299 52.2787 101.311 54.0479V54.0416Z" fill="#EBE300"/>
<path d="M122.65 104.367C115.317 111.765 125.155 125.245 131.091 132.901C136.032 139.267 143.157 147.345 149.886 147.036C156.615 146.734 168.147 136.024 169.009 132.838C170.293 128.11 165.749 125.963 161.16 125.679C156.571 125.396 149.408 114.013 142.465 106.495C135.522 98.9774 129.983 96.9626 122.644 104.361L122.65 104.367Z" fill="#009F3C"/>
<path d="M166.774 129.533C167.523 129.835 167.989 130.811 167.234 132.838C166.667 134.349 164.785 134.922 163.866 134.198C162.5 133.121 162.274 131.579 163.142 130.213C164.005 128.846 165.169 128.878 166.781 129.526L166.774 129.533Z" fill="#00C100"/>
<path d="M163.841 135.174C164.313 135.829 164.181 136.905 162.45 138.209C161.16 139.185 159.259 138.656 158.875 137.554C158.302 135.917 158.938 134.488 160.405 133.801C161.865 133.115 162.834 133.764 163.848 135.174H163.841Z" fill="#00C100"/>
<path d="M158.862 138.92C159.334 139.575 159.202 140.652 157.471 141.955C156.181 142.931 154.28 142.402 153.896 141.3C153.323 139.663 153.959 138.234 155.426 137.548C156.886 136.861 157.855 137.51 158.869 138.92H158.862Z" fill="#00C100"/>
<path d="M79.5004 106.249C87.5952 109.876 88.0736 125.207 78.9591 134.368C69.8446 143.529 67.5974 143.321 67.0938 146.507C66.5903 149.687 68.5605 153.15 65.2747 156.984C61.9889 160.818 55.6251 159.805 51.4204 157.683C47.2156 155.561 38.8123 144.889 40.3104 140.223C41.8086 135.558 55.8391 115.889 61.0448 110.871C66.2567 105.859 71.4056 102.623 79.5004 106.249Z" fill="#009F3C"/>
<path d="M63.336 155.926C63.4556 156.726 62.8576 157.626 60.7238 158.004C59.1375 158.287 57.6835 156.959 57.8346 155.8C58.0612 154.075 59.276 153.099 60.8937 153.143C62.5051 153.194 63.0779 154.207 63.336 155.926Z" fill="#00C100"/>
<path d="M56.947 156.052C56.5694 156.763 55.5496 157.129 53.6109 156.153C52.1695 155.429 51.7981 153.489 52.6101 152.652C53.8249 151.405 55.386 151.349 56.6512 152.356C57.9164 153.364 57.7653 154.516 56.947 156.052Z" fill="#00C100"/>
<path d="M51.7476 152.835C51.1937 153.426 50.1173 153.508 48.4933 152.067C47.2848 150.99 47.4295 149.025 48.4367 148.427C49.9285 147.54 51.4518 147.892 52.4148 149.189C53.3779 150.486 52.931 151.563 51.7476 152.835Z" fill="#00C100"/>
<path d="M147.236 96.8177C164.061 110.959 122.473 139.159 92.9769 134.909C64.6891 130.83 53.277 113.295 43.7534 93.5311C35.7341 76.8967 74.3953 49.1054 102.532 54.1423C130.662 59.1793 132.991 84.8361 147.242 96.8177H147.236Z" fill="#00C100"/>
<path d="M142.22 43.2626C141.785 48.268 137.801 80.5107 132.797 76.3552C118.049 64.1029 111.301 85.3587 112.547 104.864C113.8 124.37 132.375 141.835 156.798 98.864C171.603 72.8168 171.943 37.9738 167.467 29.134C162.646 19.6142 143.856 24.2923 142.22 43.2626Z" fill="#00C100"/>
<path d="M115.763 110.373C106.214 114.535 110.375 130.704 113.069 140.009C115.31 147.747 118.948 157.891 125.312 160.094C131.676 162.298 146.349 156.606 148.325 153.974C151.265 150.058 147.834 146.381 143.673 144.423C139.513 142.465 137.064 129.237 133.388 119.685C129.718 110.134 125.306 106.218 115.757 110.38L115.763 110.373Z" fill="#00C100"/>
<path d="M148.3 149.435C148.936 149.932 149.112 151.002 147.809 152.734C146.84 154.025 144.869 154.043 144.19 153.093C143.183 151.676 143.397 150.134 144.611 149.063C145.82 147.999 146.934 148.352 148.294 149.428L148.3 149.435Z" fill="#009F3C"/>
<path d="M143.9 154.025C144.164 154.787 143.743 155.781 141.71 156.549C140.199 157.122 138.525 156.084 138.462 154.912C138.367 153.175 139.387 151.991 140.979 151.739C142.578 151.487 143.321 152.381 143.9 154.025Z" fill="#009F3C"/>
<path d="M138.072 156.228C138.336 156.99 137.914 157.985 135.881 158.753C134.37 159.326 132.696 158.287 132.633 157.116C132.539 155.378 133.558 154.195 135.151 153.943C136.75 153.691 137.492 154.585 138.072 156.228Z" fill="#009F3C"/>
<path d="M62.3855 104.197C69.7187 99.204 85.5243 111.922 88.552 124.483C91.5797 137.05 90.2264 138.857 92.6687 140.954C95.1109 143.051 99.0954 143.189 100.638 147.993C102.18 152.803 97.9813 157.689 93.9716 160.157C89.962 162.625 76.4727 164.193 73.2814 160.472C70.0963 156.751 57.9478 129.212 56.4119 122.147C54.8698 115.083 55.0649 109.183 62.3918 104.191L62.3855 104.197Z" fill="#00C100"/>
<path d="M98.8312 147.149C99.6369 147.231 100.354 148.037 100.185 150.203C100.059 151.815 98.4095 152.885 97.3268 152.444C95.7154 151.79 95.0733 150.367 95.5266 148.818C95.9798 147.269 97.1065 146.973 98.8312 147.149Z" fill="#009F3C"/>
<path d="M97.3453 153.37C97.937 153.918 98.0314 154.994 96.6026 156.625C95.5388 157.84 93.5686 157.714 92.9643 156.713C92.0642 155.227 92.4041 153.697 93.6945 152.728C94.9849 151.752 96.0675 152.193 97.3453 153.37Z" fill="#009F3C"/>
<path d="M92.9268 157.595C93.3611 158.275 93.1723 159.345 91.3657 160.548C90.025 161.448 88.1555 160.812 87.8282 159.691C87.3435 158.023 88.0674 156.638 89.5655 156.027C91.0636 155.422 91.9952 156.121 92.9268 157.588V157.595Z" fill="#009F3C"/>
<path d="M77.4736 93.6508C77.4736 93.6508 58.2878 119.685 41.9722 126.41C33.4746 129.91 18.2228 131.913 8.47256 123.161C-1.91977 113.83 -0.276886 104.656 2.22206 105.658C4.721 106.659 12.2871 112.76 22.7235 109.158C29.9748 106.659 41.2232 81.6503 48.9718 74.9008C56.7204 68.1513 66.2189 64.8962 74.2193 72.8987C82.2197 80.9011 77.4673 93.6508 77.4673 93.6508H77.4736Z" fill="#00C100"/>
<path d="M20.2432 111.859C22.3833 112.533 23.8877 113.83 23.5919 114.749C23.3023 115.675 21.3322 115.876 19.192 115.203C17.0518 114.529 15.5474 113.232 15.8433 112.313C16.1328 111.387 18.103 111.186 20.2432 111.859Z" fill="#009F3C"/>
<path d="M8.95717 112.791C10.5434 113.288 11.6198 114.346 11.368 115.152C11.1162 115.958 9.6244 116.21 8.03817 115.712C6.45194 115.215 5.37557 114.157 5.62735 113.351C5.87913 112.546 7.37094 112.294 8.95717 112.791Z" fill="#009F3C"/>
<path d="M16.6557 116.134C17.795 116.493 18.5693 117.255 18.393 117.834C18.2105 118.414 17.1404 118.596 16.0011 118.237C14.8618 117.878 14.0875 117.117 14.2638 116.537C14.44 115.958 15.5164 115.775 16.6557 116.134Z" fill="#009F3C"/>
<path d="M209.477 25.1738C204.863 16.0506 196.969 9.88671 188.554 7.81527C187.2 7.4375 176.758 4.91274 168.707 6.74492C137.247 13.8848 136.516 65.507 151.309 67.4399C160.889 68.6866 163.168 61.5341 165.402 54.9798C174.026 66.1933 188.245 70.6636 199.638 64.9026C212.8 58.2412 217.207 40.4609 209.483 25.1801L209.477 25.1738Z" fill="#00C100"/>
<path fill-rule="evenodd" clip-rule="evenodd" d="M162.438 43.0548C160.852 42.7904 159.473 44.0433 159.36 45.8503C159.36 45.8755 159.36 45.8944 159.36 45.9196C158.875 45.3088 158.598 44.4903 158.655 43.6403C158.755 42.0537 159.964 40.9582 161.349 41.1911C162.457 41.38 163.344 42.3559 163.609 43.5522C163.256 43.3004 162.866 43.1304 162.438 43.0548Z" fill="#009F3C"/>
<path d="M183.77 7.87813C185.91 8.55181 187.415 9.84882 187.119 10.7681C186.829 11.6936 184.859 11.8951 182.719 11.2214C180.579 10.5477 179.074 9.25069 179.37 8.33145C179.66 7.40591 181.63 7.20444 183.77 7.87813Z" fill="#009F3C"/>
<path d="M172.478 8.80999C174.064 9.30738 175.14 10.3651 174.888 11.171C174.637 11.977 173.145 12.2288 171.559 11.7314C169.972 11.234 168.896 10.1763 169.148 9.37034C169.4 8.56444 170.891 8.31259 172.478 8.80999Z" fill="#009F3C"/>
<path d="M180.176 12.1533C181.315 12.5122 182.089 13.274 181.913 13.8533C181.73 14.4325 180.66 14.6151 179.521 14.2562C178.382 13.8973 177.608 13.1355 177.784 12.5562C177.966 11.977 179.036 11.7944 180.176 12.1533Z" fill="#009F3C"/>
<path d="M161.072 52.1088C161.776 51.5736 162.551 51.2021 163.356 50.9755C164.061 52.7888 165.125 54.7028 166.516 56.5476C167.914 58.3986 169.462 59.9475 171.011 61.1186C170.576 61.83 170.003 62.4723 169.298 63.0074C166.29 65.2803 162.009 64.6822 159.737 61.6663C157.465 58.6568 158.063 54.3754 161.072 52.1025V52.1088Z" fill="#EB0000"/>
<path fill-rule="evenodd" clip-rule="evenodd" d="M166.208 56.8057C166.208 56.8057 164.698 57.5801 163.634 58.3797C162.45 59.2738 160.915 60.9485 160.915 60.9485C160.915 60.9485 163.137 59.7586 164.118 59.1226C165.075 58.4993 166.215 56.8057 166.215 56.8057H166.208Z" fill="#990000"/>
<path d="M179.42 63.5677C169.318 59.0156 162.513 50.4528 160.612 41.3234C160.612 41.6759 160.619 42.0285 160.637 42.3811C161.361 57.1141 173.793 68.4787 188.403 67.7609C190.581 67.6539 192.683 67.2761 194.685 66.678C189.693 66.8228 184.456 65.8343 179.42 63.5677Z" fill="#009F3C"/>
<path fill-rule="evenodd" clip-rule="evenodd" d="M192.154 33.4406C195.006 28.857 193.59 22.8442 189.013 19.9983C184.431 17.1588 178.413 18.5691 175.562 23.1527C172.729 27.7363 174.139 33.7492 178.722 36.595C183.304 39.4346 189.322 38.018 192.154 33.4406Z" fill="white"/>
<path d="M176.896 27.327C177.356 24.0152 180.409 21.6856 183.726 22.1453C184.475 22.2523 185.174 22.4853 185.797 22.8252C184.651 23.0393 183.707 23.9586 183.543 25.1863C183.336 26.71 184.387 28.1014 185.916 28.3155C187.156 28.4855 188.296 27.8181 188.806 26.754C188.975 27.4655 189.02 28.2085 188.913 28.9766C188.459 32.2947 185.4 34.618 182.077 34.1583C178.772 33.705 176.443 30.6514 176.89 27.327H176.896Z" fill="#00A6FF"/>
<path fill-rule="evenodd" clip-rule="evenodd" d="M214.5 31.0102C217.352 26.4329 215.935 20.4138 211.359 17.5679C206.777 14.7284 200.759 16.1387 197.908 20.7223C195.075 25.3059 196.485 31.3187 201.068 34.1646C205.65 37.0042 211.668 35.5875 214.5 31.0102Z" fill="white"/>
<path d="M199.242 24.8967C199.701 21.5849 202.754 19.2553 206.072 19.715C206.821 19.822 207.519 20.055 208.142 20.3949C206.997 20.609 206.053 21.5283 205.889 22.756C205.681 24.2797 206.732 25.6711 208.262 25.8852C209.502 26.0552 210.641 25.3878 211.151 24.3238C211.321 25.0352 211.365 25.7782 211.258 26.5463C210.805 29.8644 207.746 32.1877 204.422 31.728C201.118 31.2747 198.789 28.2211 199.236 24.8967H199.242Z" fill="#00A6FF"/>
<path fill-rule="evenodd" clip-rule="evenodd" d="M98.9315 40.9267C98.9315 39.5289 97.8048 38.3956 96.4074 38.3956C95.01 38.3956 93.8833 39.5289 93.8833 40.9267C93.8833 42.3244 95.01 43.4577 96.4074 43.4577C97.8048 43.4577 98.9315 42.3244 98.9315 40.9267Z" fill="#EBE300"/>
<path fill-rule="evenodd" clip-rule="evenodd" d="M99.6054 49.1369C99.6054 47.7391 98.4786 46.6058 97.0812 46.6058C95.6839 46.6058 94.5571 47.7391 94.5571 49.1369C94.5571 50.5346 95.6839 51.6679 97.0812 51.6679C98.4786 51.6679 99.6054 50.5346 99.6054 49.1369Z" fill="#EBE300"/>
<path fill-rule="evenodd" clip-rule="evenodd" d="M89.4396 57.8256C89.4333 56.4908 89.6096 56.0815 90.4656 55.6156C91.3217 55.1434 93.3297 55.6345 96.4769 58.4615C100.675 62.2392 98.2079 63.7503 97.0875 64.3169C95.0229 65.3684 93.9088 64.9339 92.5995 63.8699C91.2839 62.8121 89.4459 59.1541 89.4396 57.8193V57.8256Z" fill="#EBE300"/>
<path fill-rule="evenodd" clip-rule="evenodd" d="M91.1578 52.2912C89.6156 54.3123 88.7533 57.4667 89.9933 58.3419C91.2333 59.2233 94.0974 57.4919 95.6395 55.4708C97.1817 53.4497 96.8229 51.8946 95.5829 51.0131C94.3428 50.138 92.7 50.2639 91.1578 52.285V52.2912Z" fill="#EBE300"/>
<path fill-rule="evenodd" clip-rule="evenodd" d="M106.133 46.3225C106.133 41.7074 102.4 37.9675 97.7988 37.9675C93.1975 37.9675 89.4648 41.7074 89.4648 46.3225C89.4648 50.9376 93.1975 54.6775 97.7988 54.6775C102.4 54.6775 106.133 50.9376 106.133 46.3225Z" fill="#EBE300"/>
<path d="M83.3652 42.8912C83.3337 42.5386 83.2582 42.1545 83.126 41.7642C82.6539 40.379 81.6971 39.422 80.9795 39.6298C80.3815 39.8061 80.1486 40.7442 80.3689 41.8586C80.3123 41.8208 80.2556 41.7831 80.1927 41.739C79.0345 40.9835 77.4797 40.6435 76.7181 40.9835C75.9816 41.3046 76.246 42.1294 77.2846 42.8597C76.4663 42.9101 75.7361 43.1304 75.3836 43.483C74.792 44.0623 75.4151 44.7737 76.781 45.076C77.1209 45.1515 77.4797 45.1956 77.8511 45.2208C77.2028 45.5671 76.7055 46.0078 76.5356 46.4296C76.2271 47.1852 77.0958 47.5944 78.4806 47.3489C78.9464 47.267 79.4311 47.1159 79.8906 46.9333C79.985 46.9774 80.0857 47.0215 80.1864 47.053C81.7034 47.5881 83.3652 46.9018 83.9002 45.5293C84.2527 44.61 84.0198 43.6216 83.3715 42.9038L83.3652 42.8912Z" fill="#EBE300"/>
<path d="M87.0665 42.9541C86.9217 42.9541 86.7833 42.9667 86.6448 42.9919C86.0216 43.0171 84.2277 43.3696 83.1639 43.5522C82.27 43.7411 81.8798 44.1881 81.842 44.9752C81.8168 45.504 82.0749 45.9763 82.4841 46.2659C83.1261 46.7192 86.3426 46.6499 87.2302 46.3666C88.0862 46.2533 88.7597 45.5796 88.7975 44.7422C88.8416 43.7978 88.0673 43.0045 87.0665 42.9667V42.9541Z" fill="#EBE300"/>
<path d="M92.8134 43.0989C92.8512 42.3559 92.2595 41.7011 91.4853 41.7074C90.8306 41.7074 88.2688 42.4 86.5629 42.9226C85.5558 43.2878 85.1592 43.9174 85.1278 44.5533C85.0774 45.5229 85.8705 46.3351 86.8965 46.3729C86.9091 46.3729 87.4756 46.3414 87.9981 46.2092C88.9737 45.9574 91.2964 45.0192 92.2721 44.0937C92.5805 43.8607 92.7883 43.5018 92.8071 43.0989H92.8134Z" fill="#EBE300"/>
<path d="M117.671 34.4795C117.243 34.215 116.487 34.1647 115.675 34.2969C116.519 33.3525 116.582 32.4899 115.795 32.3388C114.977 32.1814 113.535 32.8551 112.585 33.8498C112.534 33.9065 112.484 33.9569 112.44 34.0073C112.396 32.8676 111.955 32.0051 111.332 31.9673C110.589 31.9232 109.878 33.0691 109.733 34.5235C109.696 34.9328 109.702 35.3231 109.758 35.6757C109.293 36.5194 109.293 37.5394 109.847 38.3516C110.684 39.5731 112.459 39.869 113.812 39.0127C113.907 38.956 113.988 38.8931 114.07 38.8301C114.561 38.912 115.071 38.9434 115.537 38.9246C116.941 38.8616 117.696 38.2698 117.224 37.5961C116.959 37.2246 116.374 36.9098 115.663 36.7146C116.015 36.6139 116.361 36.4816 116.67 36.3368C117.929 35.7387 118.376 34.9076 117.671 34.4732V34.4795Z" fill="#EBE300"/>
<path d="M106.183 38.0556C106.303 37.9738 106.429 37.9045 106.555 37.8542C107.09 37.5331 108.783 36.8468 109.771 36.406C110.627 36.0724 111.194 36.2361 111.659 36.8657C111.974 37.2938 112.025 37.829 111.842 38.2886C111.559 39.019 108.833 40.7315 107.933 40.9771C107.159 41.3485 106.221 41.1597 105.717 40.486C105.151 39.7241 105.359 38.6349 106.177 38.0556H106.183Z" fill="#EBE300"/>
<path d="M101.468 41.3297C101.028 40.7315 101.16 39.8627 101.802 39.4408C102.35 39.0819 104.874 38.2508 106.58 37.7535C107.624 37.5016 108.304 37.8101 108.682 38.3264C109.261 39.1071 109.053 40.2215 108.216 40.8134C108.204 40.8197 107.719 41.103 107.209 41.2793C106.259 41.6067 103.797 42.0978 102.469 41.8648C102.079 41.8397 101.714 41.6571 101.468 41.3297Z" fill="#EBE300"/>
<path d="M91.3217 40.7442C90.6042 40.7127 89.918 40.996 89.3201 41.4997C89.8551 42.5386 90.1447 43.8734 90.0817 45.3215C89.9873 47.4244 89.1627 49.2251 88.0171 50.1884C88.6591 51.4414 89.6537 52.2599 90.7993 52.3102C92.9017 52.3984 94.7271 49.8799 94.8719 46.6878C95.0166 43.4956 93.4304 40.8323 91.328 40.7442H91.3217Z" fill="#AB3CEB"/>
<path d="M102.954 37.3254C103.426 37.1806 103.98 37.3065 104.54 37.6276C104.515 38.5783 104.742 39.7368 105.245 40.9331C105.975 42.6645 107.102 44.0308 108.185 44.6478C108.153 45.7937 107.744 46.6374 106.989 46.8704C105.604 47.2859 103.577 45.4852 102.463 42.8534C101.349 40.2153 101.569 37.7472 102.954 37.3317V37.3254Z" fill="#AB3CEB"/>
<path d="M99.4417 19.4379L89.4333 13.7021C88.8102 11.5929 89.0116 9.24442 90.1887 7.18558C92.4799 3.18122 97.5785 1.79607 101.576 4.08157C105.579 6.36708 106.964 11.4733 104.679 15.4713C103.502 17.5365 101.576 18.9027 99.4354 19.4316L99.4417 19.4379Z" fill="#EBE300"/>
<path d="M99.0198 17.6183L91.9007 13.5384C91.4538 12.0399 91.6048 10.3652 92.4357 8.90445C94.066 6.05859 97.6917 5.07009 100.543 6.6945C103.388 8.32521 104.377 11.9518 102.753 14.7977C101.915 16.2647 100.543 17.2406 99.0261 17.6183H99.0198Z" fill="#E69C00"/>
<path fill-rule="evenodd" clip-rule="evenodd" d="M79.4499 33.3525C75.4277 25.1927 78.6253 15.3895 86.6005 11.4607C94.5695 7.53192 104.295 10.957 108.317 19.1169C112.339 27.2767 109.135 37.0798 101.166 41.0086C93.1973 44.9374 83.4721 41.5123 79.4499 33.3525Z" fill="#EBE300"/>
<path d="M81.7222 30.4185L83.2707 18.9847C81.9803 17.2091 79.9912 15.9373 77.6434 15.6162C73.0735 14.9929 68.8687 18.1913 68.2456 22.7623C67.6224 27.3271 70.8201 31.5392 75.3899 32.1625C77.7441 32.4836 80.0038 31.791 81.7222 30.4185Z" fill="#EBE300"/>
<path d="M78.6571 25.2494C78.934 23.2283 79.5824 21.3583 80.5203 19.6835C79.7146 19.0413 78.7263 18.5943 77.6311 18.4432C74.3831 18.0025 71.3869 20.2754 70.9462 23.5305C70.5056 26.7793 72.778 29.7763 76.026 30.217C76.9638 30.3429 77.8829 30.2422 78.7263 29.9526C78.4745 28.4352 78.4431 26.8549 78.6634 25.2494H78.6571Z" fill="#E69C00"/>
<path d="M81.1182 2.69639C82.3079 4.44672 80.6713 5.25263 78.3927 6.90222C76.5484 8.23701 75.1887 8.80996 74.1438 6.97148C73.0989 5.133 73.8606 2.72787 75.8434 1.60715C77.8261 0.486437 79.9097 0.920872 81.1245 2.70269L81.1182 2.69639Z" fill="#0079EB"/>
<path d="M74.6978 10.0125C73.4515 9.30106 74.9055 6.97148 77.2911 5.09522C79.6768 3.21267 82.7989 1.50641 83.4158 3.11193C83.7745 4.05635 82.5471 6.17816 80.1552 8.05442C77.7695 9.93067 75.579 10.5162 74.6978 10.0125Z" fill="#0061C5"/>
<path d="M74.4835 9.66629C73.8541 8.86668 75.2829 6.7008 77.6749 4.82454C80.0605 2.94199 82.5028 2.06682 83.1322 2.86644C83.7554 3.66605 82.3328 5.83193 79.9409 7.70818C77.5553 9.59074 75.113 10.4659 74.4835 9.66629Z" fill="#0079EB"/>
<path d="M75.3459 8.54553C75.3459 8.54553 75.3144 8.49516 75.2955 8.46997L74.4961 7.45629L80.8851 2.42566L81.653 3.40156C81.6971 3.42675 81.7348 3.45823 81.76 3.49601C81.7915 3.53378 81.8104 3.57786 81.8293 3.62193V3.63452C82.0181 4.27673 80.9606 5.71855 79.324 7.00297C77.6874 8.29368 76.0446 8.97996 75.4655 8.65256L75.4466 8.66515L75.4088 8.61479C75.4088 8.61479 75.3647 8.57701 75.3459 8.55182V8.54553Z" fill="#EB0000"/>
<path d="M74.5717 7.5634C74.1437 7.02193 75.2389 5.44789 77.0077 4.05643C78.7765 2.66498 80.5641 1.97241 80.9922 2.51388C81.4202 3.05534 80.3312 4.62939 78.5562 6.02084C76.7874 7.41858 74.9997 8.10487 74.5717 7.5634Z" fill="#0079EB"/>
<path fill-rule="evenodd" clip-rule="evenodd" d="M84.8257 23.5052C83.5982 21.0182 84.6179 18.015 87.1043 16.7872C89.5906 15.5594 92.5932 16.5857 93.8206 19.0664C95.0417 21.5471 94.022 24.5567 91.542 25.7844C89.0556 27.0059 86.0531 25.9859 84.8257 23.4989V23.5052Z" fill="#EBEBEB"/>
<path fill-rule="evenodd" clip-rule="evenodd" d="M96.2691 16.8314C95.0479 14.3507 96.0676 11.3411 98.5477 10.1134C101.028 8.88562 104.037 9.91189 105.258 12.3926C106.485 14.8796 105.459 17.8828 102.979 19.1106C100.493 20.3383 97.4902 19.3121 96.2628 16.8314H96.2691Z" fill="#EBEBEB"/>
<path d="M98.7301 15.3895C98.0943 14.0987 98.6231 12.5436 99.9135 11.9077C100.203 11.7629 100.505 11.681 100.814 11.6495C100.455 12.0021 100.341 12.5562 100.581 13.0284C100.87 13.6202 101.588 13.8595 102.173 13.5699C102.652 13.3369 102.897 12.8206 102.828 12.3232C103.054 12.5373 103.256 12.7891 103.401 13.0851C104.036 14.3695 103.508 15.9309 102.217 16.5668C100.933 17.2028 99.3721 16.6739 98.7364 15.3832L98.7301 15.3895Z" fill="#0079EB"/>
<path d="M88.7472 21.969C88.1114 20.6783 88.6402 19.1232 89.9306 18.4873C90.2201 18.3425 90.5223 18.2606 90.8307 18.2291C90.4719 18.5817 90.3586 19.1358 90.5915 19.608C90.881 20.1998 91.5986 20.4391 92.1903 20.1495C92.6687 19.9165 92.9142 19.4002 92.8386 18.9028C93.0653 19.1169 93.2667 19.3687 93.4115 19.6709C94.0472 20.9617 93.5185 22.5168 92.2281 23.1527C90.9377 23.7886 89.3829 23.2598 88.7472 21.969Z" fill="#0079EB"/>
<path fill-rule="evenodd" clip-rule="evenodd" d="M94.047 22.1516C93.0272 20.0864 93.9462 17.5491 96.099 16.4913C98.2517 15.4273 100.826 16.2458 101.84 18.3109C102.859 20.3761 101.934 22.9134 99.7813 23.9712C97.6286 25.0352 95.0604 24.2167 94.0407 22.1516H94.047Z" fill="#E1124F"/>
<path d="M95.6901 32.1185C92.8072 31.684 90.5097 29.7826 89.4207 27.2893C89.1878 27.8308 89.0116 28.41 88.9234 29.027C88.3318 32.937 91.0195 36.5824 94.9285 37.1743C98.8374 37.7661 102.482 35.0777 103.074 31.1677C103.168 30.557 103.168 29.9526 103.111 29.3607C101.336 31.4196 98.5793 32.5529 95.6964 32.1185H95.6901Z" fill="#E69C00"/>
<path d="M100.808 40.5364C100.122 40.7127 99.2907 41.7138 98.5353 42.186C97.6415 42.1356 96.5777 41.6193 95.8916 41.7893C94.3998 42.1671 94.9348 42.8282 95.174 43.7474C95.4195 44.6667 95.281 45.4977 96.7728 45.1137C97.4589 44.9374 98.2647 43.7348 99.02 43.2689C99.9138 43.3193 101.003 44.037 101.689 43.8607C103.181 43.483 102.646 42.8219 102.406 41.9026C102.161 40.9834 102.299 40.1523 100.808 40.5364Z" fill="#E1124F"/>
<path d="M100.122 42.4567C100.329 43.2374 99.8887 44.0308 99.1333 44.2196C98.378 44.4148 97.5975 43.9363 97.3898 43.1493C97.182 42.3686 97.6227 41.5753 98.378 41.3864C99.1333 41.1912 99.9076 41.676 100.115 42.4567H100.122Z" fill="#5E1EBB"/>
</g>
<defs>
<clipPath id="clip0_501_6220">
<rect width="215.614" height="161.711" fill="white" transform="translate(0.352539 0.983887)"/>
</clipPath>
</defs>
</svg>
