<svg width="217" height="168" viewBox="0 0 217 168" fill="none" xmlns="http://www.w3.org/2000/svg">
<g clip-path="url(#clip0_501_6150)">
<path fill-rule="evenodd" clip-rule="evenodd" d="M103.371 65.1657C101.905 64.7289 101.512 64.4106 101.275 63.3497C101.039 62.2888 102.217 60.3355 106.333 57.9453C111.826 54.7688 112.687 57.8704 112.949 59.2433C113.435 61.7708 112.6 62.8005 111.016 63.8365C109.432 64.8724 104.836 65.5964 103.371 65.1657Z" fill="#D803EB"/>
<path fill-rule="evenodd" clip-rule="evenodd" d="M99.6483 62.7817C101.943 64.5042 105.541 65.4839 106.558 64.1235C107.574 62.763 105.635 59.5865 103.34 57.8578C101.045 56.1354 99.2617 56.5161 98.2453 57.8766C97.2289 59.237 97.3536 61.0531 99.6546 62.7817H99.6483Z" fill="#D803EB"/>
<path d="M122.141 109.868C114.876 117.2 124.622 130.562 130.503 138.15C135.398 144.46 142.457 152.467 149.123 152.161C155.789 151.861 167.213 141.246 168.067 138.088C169.339 133.401 164.837 131.273 160.291 130.992C155.745 130.712 148.649 119.428 141.771 111.977C134.893 104.526 129.405 102.529 122.134 109.861L122.141 109.868Z" fill="#FBB000"/>
<path d="M165.853 134.812C166.595 135.111 167.057 136.079 166.309 138.088C165.747 139.586 163.883 140.154 162.972 139.436C161.619 138.369 161.395 136.84 162.255 135.486C163.11 134.131 164.263 134.163 165.86 134.805L165.853 134.812Z" fill="#FBC700"/>
<path d="M162.947 140.397C163.415 141.046 163.284 142.113 161.569 143.405C160.291 144.372 158.408 143.848 158.027 142.756C157.46 141.133 158.09 139.717 159.543 139.037C160.989 138.356 161.95 138.999 162.954 140.397H162.947Z" fill="#FBC700"/>
<path d="M158.015 144.116C158.482 144.766 158.351 145.833 156.637 147.124C155.358 148.092 153.475 147.568 153.095 146.475C152.527 144.853 153.157 143.436 154.61 142.756C156.057 142.076 157.017 142.719 158.021 144.116H158.015Z" fill="#FBC700"/>
<path d="M79.3944 111.734C87.4136 115.328 87.8875 130.524 78.8581 139.605C69.8287 148.685 67.6026 148.479 67.1037 151.637C66.5986 154.788 68.5566 158.22 65.3016 162.021C62.0465 165.822 55.7421 164.817 51.5766 162.714C47.4112 160.611 39.0864 150.033 40.5705 145.408C42.0546 140.784 55.9542 121.288 61.1111 116.314C66.2744 111.347 71.3752 108.139 79.3944 111.734Z" fill="#FBB000"/>
<path d="M63.3807 160.973C63.4992 161.765 62.9068 162.658 60.7929 163.032C59.2214 163.313 57.781 161.996 57.9306 160.848C58.1551 159.138 59.3586 158.171 60.9612 158.214C62.5576 158.264 63.125 159.269 63.3807 160.973Z" fill="#FBC700"/>
<path d="M57.0515 161.097C56.6773 161.803 55.6672 162.165 53.7465 161.197C52.3185 160.48 51.9506 158.557 52.755 157.727C53.9586 156.492 55.505 156.436 56.7584 157.434C58.0118 158.433 57.8621 159.575 57.0515 161.097Z" fill="#FBC700"/>
<path d="M51.9011 157.908C51.3523 158.495 50.286 158.576 48.6772 157.147C47.4799 156.08 47.6233 154.133 48.6211 153.54C50.0989 152.66 51.608 153.009 52.5621 154.295C53.5161 155.581 53.0734 156.648 51.9011 157.908Z" fill="#FBC700"/>
<path d="M146.498 102.385C163.166 116.402 121.966 144.354 92.7452 140.141C64.7216 136.097 53.4162 118.717 43.9815 99.1274C36.0371 82.6396 74.3434 55.0932 102.211 60.0858C130.079 65.0783 132.386 90.5091 146.504 102.385H146.498Z" fill="#FBC700"/>
<path d="M141.528 49.3019C141.097 54.2632 137.15 86.2217 132.193 82.1029C117.582 69.9585 110.897 91.027 112.132 110.361C113.373 129.694 131.775 147.006 155.97 104.413C170.636 78.5956 170.973 44.0597 166.539 35.2978C161.763 25.8619 143.149 30.4987 141.528 49.3019Z" fill="#FBC700"/>
<path d="M115.319 115.821C105.859 119.946 109.981 135.972 112.65 145.196C114.87 152.866 118.474 162.92 124.778 165.104C131.083 167.288 145.618 161.647 147.576 159.038C150.488 155.156 147.09 151.512 142.968 149.571C138.846 147.63 136.42 134.518 132.779 125.051C129.143 115.584 124.772 111.702 115.312 115.828L115.319 115.821Z" fill="#FBC700"/>
<path d="M147.552 154.538C148.181 155.031 148.356 156.092 147.065 157.809C146.105 159.088 144.153 159.107 143.48 158.164C142.482 156.76 142.694 155.231 143.897 154.17C145.095 153.116 146.198 153.465 147.545 154.532L147.552 154.538Z" fill="#FBB000"/>
<path d="M143.193 159.088C143.454 159.843 143.037 160.829 141.022 161.59C139.526 162.158 137.867 161.129 137.805 159.968C137.711 158.245 138.721 157.072 140.299 156.823C141.883 156.573 142.619 157.459 143.193 159.088Z" fill="#FBB000"/>
<path d="M137.418 161.266C137.68 162.021 137.262 163.007 135.248 163.768C133.751 164.336 132.093 163.307 132.03 162.146C131.937 160.423 132.947 159.25 134.525 159.001C136.109 158.751 136.844 159.637 137.418 161.266Z" fill="#FBB000"/>
<path d="M62.4392 109.699C69.7038 104.75 85.3619 117.356 88.3613 129.807C91.3607 142.263 90.02 144.054 92.4395 146.132C94.8589 148.21 98.8062 148.348 100.334 153.109C101.862 157.877 97.7024 162.72 93.7303 165.166C89.7581 167.613 76.3948 169.167 73.2333 165.478C70.078 161.79 58.043 134.493 56.5214 127.491C54.9937 120.489 55.187 114.642 62.4454 109.693L62.4392 109.699Z" fill="#FBC700"/>
<path d="M98.5446 152.273C99.3428 152.354 100.054 153.153 99.8853 155.3C99.7606 156.897 98.1268 157.958 97.0543 157.521C95.4579 156.872 94.8219 155.462 95.2708 153.927C95.7198 152.392 96.836 152.098 98.5446 152.273Z" fill="#FBB000"/>
<path d="M97.0726 158.439C97.6588 158.982 97.7523 160.049 96.3368 161.665C95.283 162.87 93.3312 162.745 92.7326 161.753C91.8408 160.28 92.1776 158.763 93.4559 157.802C94.7342 156.835 95.8068 157.272 97.0726 158.439Z" fill="#FBB000"/>
<path d="M92.6952 162.626C93.1254 163.3 92.9384 164.361 91.1487 165.553C89.8205 166.446 87.9684 165.815 87.6442 164.705C87.164 163.051 87.8811 161.678 89.3653 161.072C90.8494 160.473 91.7723 161.166 92.6952 162.62V162.626Z" fill="#FBB000"/>
<path d="M77.3865 99.2461C77.3865 99.2461 58.3799 125.051 42.2168 131.716C33.7985 135.186 18.6892 137.171 9.02999 128.496C-1.26527 119.247 0.362267 110.155 2.83787 111.147C5.31347 112.139 12.8089 118.187 23.1478 114.617C30.3314 112.139 41.4747 87.3513 49.1509 80.6613C56.8272 73.9713 66.2369 70.7449 74.1626 78.6768C82.0883 86.6087 77.3803 99.2461 77.3803 99.2461H77.3865Z" fill="#FBC700"/>
<path d="M20.691 117.294C22.8112 117.962 24.3015 119.247 24.0084 120.159C23.7216 121.076 21.7698 121.276 19.6496 120.608C17.5295 119.94 16.0391 118.655 16.3322 117.743C16.619 116.826 18.5708 116.626 20.691 117.294Z" fill="#FBB000"/>
<path d="M9.5102 118.218C11.0816 118.711 12.1479 119.759 11.8985 120.558C11.6491 121.357 10.1712 121.606 8.59978 121.113C7.02837 120.62 5.96205 119.572 6.21148 118.773C6.46091 117.974 7.93879 117.725 9.5102 118.218Z" fill="#FBB000"/>
<path d="M17.1364 121.525C18.2651 121.881 19.0321 122.636 18.8513 123.21C18.6704 123.784 17.6104 123.965 16.4817 123.61C15.353 123.254 14.586 122.499 14.7606 121.925C14.9414 121.35 16.0015 121.169 17.1302 121.525H17.1364Z" fill="#FBB000"/>
<path d="M73.8631 22.8227C78.7457 26.8604 84.3703 28.1148 86.4282 25.6186C88.4922 23.1285 86.2037 17.8364 81.3273 13.7987C76.4447 9.76099 70.82 8.51286 68.756 11.0029C66.6919 13.4929 68.9805 18.7913 73.8631 22.8227Z" fill="#D803EB"/>
<path d="M77.0371 22.9226C81.8074 26.8667 86.9457 28.5329 88.5046 26.642C90.0698 24.7511 87.4695 20.0144 82.6991 16.0703C77.9288 12.1262 72.7905 10.4599 71.2253 12.3509C69.6601 14.2418 72.2605 18.9785 77.0308 22.9226H77.0371Z" fill="#E874EA"/>
<path d="M88.4363 56.9467C89.0038 55.1369 87.9312 53.1961 86.0418 52.6032C84.1523 52.0104 82.1631 53.0026 81.5957 54.8124C81.0282 56.6222 82.1008 58.5631 83.9902 59.1559C85.8796 59.7426 87.8689 58.7565 88.4363 56.9467Z" fill="#E874EA"/>
<path fill-rule="evenodd" clip-rule="evenodd" d="M87.1078 65.2406C86.6588 63.7802 86.7087 63.2748 87.4632 62.4884C88.2115 61.7021 90.4938 61.6023 94.7591 63.7178C100.44 66.5386 98.3322 68.9787 97.3345 69.9523C95.4949 71.7558 94.1792 71.631 92.4456 70.8759C90.7121 70.127 87.563 66.6946 87.114 65.2343L87.1078 65.2406Z" fill="#D803EB"/>
<path fill-rule="evenodd" clip-rule="evenodd" d="M85.9667 59.2245C85.5551 62.0703 86.4281 65.6961 88.1056 65.9333C89.783 66.1767 91.6412 62.944 92.0528 60.0982C92.4644 57.2525 91.2671 55.8733 89.5897 55.6299C87.9122 55.3865 86.3782 56.3725 85.9667 59.2183V59.2245Z" fill="#D803EB"/>
<path fill-rule="evenodd" clip-rule="evenodd" d="M95.2085 44.0473C95.2085 42.4497 96.4557 41.1516 97.9959 41.1516C99.5361 41.1516 100.783 42.4497 100.783 44.0473C100.783 45.6449 99.5361 46.943 97.9959 46.943C96.4557 46.943 95.2085 45.6449 95.2085 44.0473Z" fill="#D803EB"/>
<path fill-rule="evenodd" clip-rule="evenodd" d="M93.6309 53.1275C93.6309 51.5299 94.878 50.2318 96.4182 50.2318C97.9585 50.2318 99.2056 51.5236 99.2056 53.1275C99.2056 54.7313 97.9585 56.0232 96.4182 56.0232C94.878 56.0232 93.6309 54.7251 93.6309 53.1275Z" fill="#D803EB"/>
<path fill-rule="evenodd" clip-rule="evenodd" d="M85.1 28.639C84.5325 27.1475 85.2309 25.4875 86.6714 24.9383C88.1118 24.3891 89.7331 25.1505 90.3068 26.6482C90.8743 28.1398 90.1759 29.7998 88.7354 30.349C87.295 30.8981 85.6674 30.1368 85.1 28.639Z" fill="#D803EB"/>
<path fill-rule="evenodd" clip-rule="evenodd" d="M85.7985 51.792C85.6676 46.5124 89.6896 42.1314 94.7718 42.0129C99.8539 41.888 104.082 46.0693 104.207 51.3489C104.337 56.6285 100.315 61.0095 95.2332 61.1281C90.1511 61.2529 85.9295 57.0716 85.7985 51.792Z" fill="#D803EB"/>
<path d="M78.6896 38.7365C84.8007 36.8143 88.9537 32.6893 87.9747 29.519C86.9894 26.355 81.2401 25.344 75.129 27.2661C69.018 29.1882 64.8649 33.3133 65.8502 36.4836C66.8354 39.6476 72.5848 40.6586 78.6959 38.7365H78.6896Z" fill="#D803EB"/>
<path d="M79.4319 37.5632C84.3395 36.0217 87.6569 32.6455 86.84 30.0244C86.0231 27.4034 81.39 26.5359 76.4824 28.0773C71.5749 29.6188 68.2574 32.995 69.0743 35.6161C69.885 38.2372 74.5244 39.1046 79.4319 37.5632Z" fill="#E874EA"/>
<path d="M107.911 27.6405C104.494 20.5573 95.9692 17.593 88.8791 21.0254C81.7828 24.4515 78.8084 32.97 82.2256 40.0532C85.6428 47.1363 94.1671 50.1007 101.257 46.6745C108.353 43.2484 111.328 34.7299 107.911 27.6467V27.6405Z" fill="#D803EB"/>
<path d="M99.7043 17.8427C98.4447 15.7645 95.7384 15.103 93.6556 16.3637C91.5729 17.6243 90.9742 20.2578 92.2339 22.336C93.4935 24.4141 96.1375 25.1505 98.2202 23.8899C100.303 22.6293 100.97 19.9208 99.7106 17.8427H99.7043Z" fill="#EBEBEB"/>
<path d="M93.9986 21.4685C93.7429 20.0956 94.6533 18.7788 96.0252 18.5167C96.337 18.4605 96.6425 18.4605 96.9356 18.5105C96.5054 18.7476 96.2559 19.2344 96.3495 19.7399C96.4679 20.3639 97.0728 20.7821 97.7026 20.6635C98.214 20.5699 98.5819 20.1518 98.638 19.665C98.8001 19.9208 98.9124 20.2142 98.9747 20.5324C99.2304 21.9054 98.3262 23.2222 96.9481 23.4843C95.5762 23.7401 94.2543 22.8415 93.9986 21.4685Z" fill="#00C100"/>
<path d="M91.7413 22.492C90.5129 20.47 87.8751 19.8272 85.8485 21.0504C83.8219 22.2798 83.1734 24.9196 84.3956 26.9416C85.624 28.9635 88.2618 29.6126 90.2884 28.3769C92.315 27.1475 92.9635 24.5139 91.7413 22.4857V22.492Z" fill="#EBEBEB"/>
<path d="M86.3912 25.6872C86.1355 24.3143 87.0459 22.9975 88.4178 22.7354C88.7296 22.6792 89.0351 22.6792 89.3282 22.7354C88.8979 22.9725 88.6485 23.4593 88.7483 23.9648C88.8668 24.5951 89.4716 25.007 90.1014 24.8884C90.6128 24.7948 90.9807 24.3767 91.043 23.8899C91.1989 24.1458 91.3174 24.4391 91.3735 24.7573C91.6292 26.1303 90.725 27.4533 89.3469 27.7092C87.975 27.965 86.6531 27.0602 86.3912 25.6934V25.6872Z" fill="#00C100"/>
<path d="M104.855 20.8506C104.456 19.4589 102.959 18.6726 101.506 19.0845C100.053 19.5026 99.199 20.963 99.5981 22.3546C99.9972 23.7463 101.494 24.5326 102.947 24.1207C104.4 23.7026 105.254 22.2423 104.855 20.8506Z" fill="#E874EA"/>
<path d="M109.139 46.0505C109.382 45.726 109.682 45.3953 110.043 45.0895C111.322 44.0098 112.806 43.6229 113.355 44.2283C113.816 44.74 113.473 45.7884 112.6 46.7495C112.675 46.7495 112.756 46.737 112.837 46.737C114.383 46.6559 116.067 47.2113 116.585 47.9727C117.09 48.7028 116.348 49.3581 114.926 49.4829C115.674 50.0009 116.229 50.625 116.36 51.1679C116.578 52.0666 115.556 52.4036 114.084 51.923C113.722 51.8044 113.348 51.6422 112.987 51.455C113.392 52.1602 113.604 52.8716 113.517 53.3771C113.355 54.2882 112.288 54.1946 111.122 53.1649C110.735 52.8217 110.361 52.3973 110.031 51.9605C109.912 51.948 109.794 51.9355 109.675 51.9105C107.917 51.5673 106.751 49.9572 107.069 48.3097C107.281 47.2113 108.098 46.3813 109.139 46.0505Z" fill="#D803EB"/>
<path d="M104.256 45.4203C104.412 45.4515 104.562 45.5014 104.699 45.5638C105.366 45.7448 107.2 46.5748 108.31 47.0366C109.226 47.4672 109.519 48.0601 109.357 48.94C109.245 49.5329 108.846 50.0009 108.328 50.2194C107.518 50.5688 104.063 49.7076 103.184 49.1709C102.292 48.8339 101.743 47.9228 101.918 46.9742C102.118 45.9133 103.165 45.2143 104.256 45.4203Z" fill="#D803EB"/>
<path d="M98.0269 44.1783C98.1828 43.342 98.9934 42.7616 99.8228 42.9551C100.527 43.1173 103.109 44.5153 104.805 45.5075C105.797 46.1565 106.052 46.9554 105.921 47.673C105.716 48.7651 104.649 49.4766 103.533 49.2644C103.521 49.2644 102.922 49.0897 102.386 48.8151C101.4 48.3033 99.1431 46.687 98.3387 45.4201C98.0705 45.0831 97.9396 44.6401 98.0269 44.1783Z" fill="#D803EB"/>
<path d="M93.6492 16.3636C93.8674 16.2326 94.0981 16.1203 94.3351 16.0266L94.1792 14.6599C94.1418 14.3479 94.3663 14.0671 94.678 14.0296H94.7342C95.046 13.9859 95.3266 14.2106 95.364 14.5226L95.5074 15.7458C95.682 15.7271 95.8628 15.7209 96.0374 15.7271L96.343 14.3417C96.4116 14.0359 96.7109 13.8424 97.0227 13.9111L97.0726 13.9235C97.3781 13.9922 97.5714 14.2917 97.5029 14.5975L97.216 15.9081C97.3407 15.9455 97.4654 15.9892 97.5902 16.0391L98.3883 14.8596C98.5629 14.5975 98.9184 14.5289 99.174 14.7036L99.2177 14.7348C99.4796 14.9096 99.5482 15.259 99.3736 15.5212L98.6253 16.632C98.6253 16.632 98.6003 16.6133 98.5816 16.607C97.3158 16.0579 95.8067 16.1078 94.5346 16.8754C92.4519 18.136 91.5602 20.963 92.8198 23.0412C93.1191 23.5279 92.6514 23.2097 92.165 22.4046C90.9054 20.3265 91.5726 17.618 93.6554 16.3574L93.6492 16.3636Z" fill="#910E51"/>
<path d="M82.2569 26.7793L83.7908 26.1053C83.741 25.9556 83.6973 25.8058 83.6661 25.6498L82.1945 25.7683C81.8827 25.7933 81.6083 25.5624 81.5834 25.2504V25.1942C81.5522 24.8822 81.7829 24.6076 82.0947 24.5826L83.5726 24.464C83.6724 22.829 84.6826 21.3125 86.3039 20.651C87.1706 20.2953 87.7381 20.314 87.2081 20.5324C84.9507 21.456 83.9842 24.2519 84.9008 26.5047C85.4683 27.8902 86.6531 28.8325 88.0125 29.1321C87.0522 29.1445 86.123 28.8388 85.356 28.2771L84.0278 29.6126C83.8033 29.8373 83.4479 29.8373 83.2234 29.6126L83.186 29.5752C82.9615 29.3567 82.9615 28.9948 83.186 28.7763L84.5017 27.4471C84.4331 27.3597 84.3645 27.2661 84.3022 27.1725L82.7308 27.8652C82.4439 27.99 82.1072 27.8652 81.9825 27.5719L81.9638 27.522C81.8391 27.2349 81.9638 26.8979 82.2569 26.7731V26.7793Z" fill="#910E51"/>
<path d="M79.4569 50.107C78.8956 49.4642 79.064 48.3596 79.8747 47.6981C80.5668 47.1302 83.7533 45.5513 85.9046 44.559C87.2204 44.0161 88.0809 44.2532 88.5611 44.8087C89.2907 45.6449 89.0288 47.074 87.9749 47.9914C87.9624 48.0039 87.3451 48.4594 86.7028 48.7902C85.5056 49.4018 82.3939 50.5563 80.7165 50.5563C80.2301 50.6062 79.7624 50.4627 79.4569 50.1132V50.107Z" fill="#D803EB"/>
<path d="M70.9202 48.2847C71.2819 47.854 72.0551 47.542 72.9531 47.4172C71.7371 46.6683 71.3629 45.7509 72.1424 45.3266C72.9468 44.8772 74.6991 45.1331 76.046 45.9007C76.1208 45.9444 76.1894 45.9818 76.2518 46.0193C75.9026 44.7649 76.0585 43.679 76.7007 43.4294C77.4615 43.1299 78.6214 44.1408 79.2761 45.6823C79.4632 46.1191 79.5879 46.5435 79.6565 46.9492C80.436 47.7105 80.7976 48.8214 80.4983 49.901C80.0494 51.5111 78.2846 52.4347 76.5573 51.9542C76.4388 51.923 76.3266 51.8793 76.2206 51.8418C75.7342 52.0915 75.2104 52.2974 74.7053 52.4347C73.2087 52.8341 72.2048 52.4409 72.4729 51.5548C72.6163 51.0618 73.1277 50.5251 73.8074 50.0695C73.402 50.0695 72.9967 50.0508 72.6163 49.9946C71.0823 49.7699 70.3216 49.0086 70.914 48.2971L70.9202 48.2847Z" fill="#D803EB"/>
<path d="M95.9128 35.0732C98.6503 35.2479 101.138 33.9623 102.635 31.8904C102.741 32.4334 102.785 33.0013 102.747 33.5816C102.504 37.2886 99.305 40.0969 95.601 39.866C91.8907 39.6289 89.0846 36.4399 89.3216 32.7329C89.359 32.1525 89.4775 31.5971 89.6521 31.0667C90.8681 33.3071 93.1753 34.8984 95.9128 35.0732Z" fill="#EBEBEB"/>
<path d="M191.707 67.2501C191.42 70.1645 188.57 74.9012 185.658 74.6141C182.746 74.327 180.869 69.1285 181.156 66.2142C181.443 63.2998 183.781 63.7678 186.693 64.0549C189.605 64.3419 191.994 64.3357 191.707 67.2501Z" fill="white"/>
<path d="M198.279 64.7725C198.872 67.6432 197.562 73.0102 194.694 73.6031C191.825 74.1959 188.489 69.79 187.897 66.9255C187.304 64.0548 189.674 63.8114 192.542 63.2186C195.411 62.6257 197.687 61.908 198.279 64.7788V64.7725Z" fill="white"/>
<path d="M209.073 29.5502C204.715 20.4014 197.038 14.1108 188.751 11.8641C187.423 11.4585 177.134 8.71882 169.121 10.3414C137.799 16.6944 135.89 67.8305 150.495 70.0834C159.954 71.5437 162.374 64.5042 164.737 58.0638C173.024 69.3782 186.999 74.1336 198.416 68.6855C211.605 62.3886 216.375 44.8711 209.08 29.5502H209.073Z" fill="#FBC700"/>
<path fill-rule="evenodd" clip-rule="evenodd" d="M162.075 46.1879C160.509 45.8883 159.119 47.099 158.963 48.8901C158.963 48.915 158.963 48.9338 158.963 48.9587C158.501 48.3409 158.24 47.5234 158.314 46.6809C158.452 45.1145 159.668 44.0535 161.039 44.3157C162.137 44.5278 162.991 45.5139 163.222 46.7058C162.879 46.45 162.492 46.269 162.075 46.1879Z" fill="#FBB000"/>
<path d="M178.425 66.9007C168.522 62.1577 161.981 53.5144 160.31 44.428C160.31 44.7775 160.304 45.1269 160.31 45.4764C160.69 60.0921 172.738 71.6373 187.223 71.2629C189.387 71.2067 191.476 70.8822 193.472 70.333C188.527 70.3642 183.364 69.2596 178.425 66.9007Z" fill="#FBB000"/>
<path d="M184.012 11.8205C186.12 12.5381 187.573 13.8549 187.267 14.7661C186.961 15.6772 185.003 15.8332 182.896 15.1155C180.788 14.3979 179.335 13.0811 179.641 12.1699C179.952 11.2588 181.904 11.1028 184.012 11.8205Z" fill="#FBB000"/>
<path d="M172.812 12.482C174.371 13.0124 175.413 14.0858 175.144 14.8784C174.876 15.671 173.392 15.8831 171.833 15.3527C170.274 14.8222 169.233 13.7488 169.501 12.9563C169.769 12.1637 171.253 11.9515 172.812 12.482Z" fill="#FBB000"/>
<path d="M180.358 15.9704C181.48 16.3511 182.229 17.1249 182.035 17.6928C181.842 18.2607 180.776 18.4168 179.653 18.0361C178.531 17.6554 177.782 16.8816 177.976 16.3137C178.169 15.7458 179.235 15.5897 180.358 15.9704Z" fill="#FBB000"/>
<path fill-rule="evenodd" clip-rule="evenodd" d="M191.725 37.3386C194.65 32.864 193.39 26.8729 188.925 23.9461C184.448 21.0254 178.456 22.286 175.531 26.7606C172.619 31.2352 173.879 37.2325 178.35 40.1531C182.821 43.0737 188.813 41.8069 191.725 37.3323V37.3386Z" fill="white"/>
<path d="M177.284 33.201C177.814 29.9309 180.888 27.6905 184.168 28.221C184.91 28.3395 185.59 28.5892 186.201 28.9386C185.06 29.1259 184.106 30.0183 183.912 31.2227C183.669 32.7267 184.679 34.1309 186.195 34.3805C187.417 34.574 188.564 33.9437 189.094 32.9015C189.244 33.6067 189.269 34.3493 189.15 35.1107C188.627 38.387 185.54 40.6149 182.266 40.0907C179.005 39.5665 176.766 36.4836 177.29 33.201H177.284Z" fill="#913BFF"/>
<path fill-rule="evenodd" clip-rule="evenodd" d="M213.912 35.4476C216.837 30.973 215.577 24.9819 211.112 22.0551C206.635 19.1344 200.643 20.3951 197.718 24.8696C194.806 29.3442 196.066 35.3415 200.537 38.2621C205.008 41.1827 211 39.9159 213.912 35.4413V35.4476Z" fill="white"/>
<path d="M199.47 31.31C200 28.0399 203.074 25.7995 206.354 26.33C207.097 26.4485 207.776 26.6982 208.387 27.0476C207.246 27.2349 206.292 28.1273 206.099 29.3317C205.856 30.8357 206.866 32.2399 208.381 32.4895C209.603 32.683 210.751 32.0527 211.281 31.0105C211.43 31.7157 211.455 32.4583 211.337 33.2197C210.813 36.496 207.726 38.7239 204.453 38.1997C201.191 37.6755 198.953 34.5926 199.476 31.31H199.47Z" fill="#913BFF"/>
<path d="M178.768 6.70304C179.048 10.4537 175.806 10.2477 170.829 10.7532C166.801 11.1651 164.201 10.8344 164.226 7.07124C164.257 3.30811 167.562 0.281381 171.609 0.318825C175.656 0.350029 178.481 2.8775 178.761 6.70304H178.768Z" fill="#FB8600"/>
<path d="M162.38 12.251C161.095 10.0418 165.398 7.75146 170.748 6.98386C176.092 6.21625 182.422 6.35979 181.941 9.37403C181.655 11.1526 177.876 13.3181 172.525 14.092C167.175 14.8596 163.284 13.8112 162.38 12.251Z" fill="#FF3E00"/>
<path d="M162.355 11.5333C162.099 9.74851 166.227 7.67661 171.571 6.909C176.922 6.13516 181.461 6.96517 181.717 8.74376C181.973 10.5286 177.845 12.5943 172.501 13.3681C167.15 14.1357 162.611 13.3119 162.355 11.5333Z" fill="#FB8600"/>
<path d="M164.681 10.5723C164.675 10.5161 164.675 10.4662 164.681 10.41L164.357 8.1384L178.668 6.07898L178.98 8.25698C179.023 8.33186 179.048 8.41299 179.061 8.50036C179.073 8.58773 179.067 8.66886 179.048 8.75623V8.78119C178.755 9.92948 175.849 11.2088 172.189 11.733C168.522 12.2635 165.38 11.8516 164.781 10.8344H164.744L164.725 10.722C164.706 10.6721 164.687 10.616 164.681 10.566V10.5723Z" fill="#FF3E00"/>
<path d="M164.363 8.36937C164.188 7.15244 167.263 5.7046 171.235 5.1367C175.201 4.5688 178.562 5.08678 178.736 6.30371C178.911 7.52064 175.837 8.96848 171.865 9.53638C167.899 10.1105 164.538 9.5863 164.363 8.36937Z" fill="#FB8600"/>
<path d="M182.596 29.5752C186.469 28.2709 190.285 27.6406 193.69 27.6218C192.137 24.0522 188.726 21.3999 184.548 20.988C178.437 20.3889 172.999 24.8073 172.401 30.8545C172.27 32.1713 172.401 33.4506 172.706 34.6613C175.394 32.6456 178.767 30.867 182.596 29.5752Z" fill="#FBB000"/>
<path d="M205.55 26.9228C209.354 26.592 212.946 26.8729 216.033 27.6155C215.44 24.0084 212.958 20.8194 209.267 19.5089C203.873 17.593 197.949 20.4138 196.035 25.812C195.617 26.9852 195.436 28.1834 195.448 29.3567C198.336 28.1148 201.796 27.2473 205.55 26.9228Z" fill="#FBB000"/>
</g>
<defs>
<clipPath id="clip0_501_6150">
<rect width="215.047" height="167.362" fill="white" transform="translate(0.98584 0.318848)"/>
</clipPath>
</defs>
</svg>
