<svg width="160" height="160" viewBox="0 0 160 160" fill="none" xmlns="http://www.w3.org/2000/svg">
<rect width="160" height="160" rx="20" fill="#96CC16"/>
<g clip-path="url(#clip0_180_5722)">
<path d="M80 144C115.899 144 145 114.899 145 79C145 43.1015 115.899 14 80 14C44.1015 14 15 43.1015 15 79C15 114.899 44.1015 144 80 144Z" fill="#A220DF"/>
<path d="M48.6424 112.776C45.2915 112.776 42.8164 111.634 41.2551 109.349C39.6939 107.064 39.6939 104.208 41.2551 100.781L67.9101 43.4159C69.1857 40.6362 70.766 38.599 72.6128 37.3234C74.4596 36.0477 76.6491 35.4004 79.1432 35.4004C81.6374 35.4004 83.7127 36.0477 85.5595 37.3234C87.4063 38.599 88.9865 40.6362 90.2622 43.4159L116.917 100.781C118.554 104.284 118.631 107.14 117.127 109.406C115.622 111.672 113.281 112.776 110.063 112.776C107.207 112.776 105.018 112.129 103.475 110.853C101.933 109.577 100.562 107.502 99.3629 104.646L95.9359 96.5164H62.2174L58.7903 104.646C57.5147 107.502 56.1819 109.577 54.8301 110.853C53.4783 112.129 51.4031 112.776 48.6233 112.776H48.6424ZM78.9338 56.9147L68.6526 81.4183H89.4244L79.1432 56.9147H78.9338Z" fill="#CA8FFF"/>
</g>
<path d="M26.6128 85C25.9888 85 25.5088 84.832 25.1728 84.496C24.8368 84.16 24.6688 83.68 24.6688 83.056V70.024C24.6688 69.4 24.8368 68.92 25.1728 68.584C25.5088 68.248 25.9888 68.08 26.6128 68.08H34.9888C35.4688 68.08 35.8288 68.208 36.0688 68.464C36.3248 68.704 36.4528 69.056 36.4528 69.52C36.4528 70 36.3248 70.368 36.0688 70.624C35.8288 70.864 35.4688 70.984 34.9888 70.984H28.2208V74.944H34.4368C34.9328 74.944 35.3008 75.072 35.5408 75.328C35.7968 75.568 35.9248 75.928 35.9248 76.408C35.9248 76.888 35.7968 77.256 35.5408 77.512C35.3008 77.752 34.9328 77.872 34.4368 77.872H28.2208V82.096H34.9888C35.4688 82.096 35.8288 82.224 36.0688 82.48C36.3248 82.72 36.4528 83.072 36.4528 83.536C36.4528 84.016 36.3248 84.384 36.0688 84.64C35.8288 84.88 35.4688 85 34.9888 85H26.6128ZM43.4252 85.264C42.4012 85.264 41.4972 85.016 40.7132 84.52C39.9452 84.024 39.3452 83.312 38.9132 82.384C38.4812 81.456 38.2652 80.36 38.2652 79.096C38.2652 77.832 38.4812 76.744 38.9132 75.832C39.3452 74.92 39.9452 74.216 40.7132 73.72C41.4972 73.224 42.4012 72.976 43.4252 72.976C44.3532 72.976 45.1692 73.2 45.8732 73.648C46.5932 74.096 47.0812 74.68 47.3372 75.4H47.0732V69.712C47.0732 69.104 47.2252 68.648 47.5292 68.344C47.8332 68.024 48.2812 67.864 48.8732 67.864C49.4492 67.864 49.8972 68.024 50.2172 68.344C50.5372 68.648 50.6972 69.104 50.6972 69.712V83.368C50.6972 83.96 50.5372 84.416 50.2172 84.736C49.9132 85.056 49.4732 85.216 48.8972 85.216C48.3212 85.216 47.8732 85.056 47.5532 84.736C47.2492 84.416 47.0972 83.96 47.0972 83.368V81.736L47.3612 82.672C47.1372 83.456 46.6572 84.088 45.9212 84.568C45.2012 85.032 44.3692 85.264 43.4252 85.264ZM44.5052 82.552C45.0332 82.552 45.4892 82.424 45.8732 82.168C46.2572 81.912 46.5612 81.536 46.7852 81.04C47.0092 80.528 47.1212 79.88 47.1212 79.096C47.1212 77.928 46.8812 77.072 46.4012 76.528C45.9212 75.968 45.2892 75.688 44.5052 75.688C43.9932 75.688 43.5372 75.808 43.1372 76.048C42.7532 76.288 42.4492 76.664 42.2252 77.176C42.0172 77.672 41.9132 78.312 41.9132 79.096C41.9132 80.264 42.1532 81.136 42.6332 81.712C43.1132 82.272 43.7372 82.552 44.5052 82.552ZM57.8337 85.264C56.8417 85.264 56.0177 85.08 55.3617 84.712C54.7057 84.344 54.2177 83.792 53.8977 83.056C53.5937 82.304 53.4417 81.376 53.4417 80.272V74.848C53.4417 74.24 53.5937 73.784 53.8977 73.48C54.2177 73.176 54.6657 73.024 55.2417 73.024C55.8177 73.024 56.2657 73.176 56.5857 73.48C56.9057 73.784 57.0657 74.24 57.0657 74.848V80.368C57.0657 81.072 57.2097 81.6 57.4977 81.952C57.7857 82.288 58.2417 82.456 58.8657 82.456C59.5537 82.456 60.1137 82.216 60.5457 81.736C60.9937 81.24 61.2177 80.592 61.2177 79.792V74.848C61.2177 74.24 61.3697 73.784 61.6737 73.48C61.9937 73.176 62.4417 73.024 63.0177 73.024C63.6097 73.024 64.0577 73.176 64.3617 73.48C64.6817 73.784 64.8417 74.24 64.8417 74.848V83.368C64.8417 84.6 64.2577 85.216 63.0897 85.216C62.5137 85.216 62.0737 85.056 61.7697 84.736C61.4657 84.416 61.3137 83.96 61.3137 83.368V81.76L61.6737 82.696C61.3217 83.512 60.8177 84.144 60.1617 84.592C59.5057 85.04 58.7297 85.264 57.8337 85.264ZM73.3819 85.264C72.1019 85.264 70.9819 85.016 70.0219 84.52C69.0779 84.008 68.3499 83.288 67.8379 82.36C67.3259 81.432 67.0699 80.336 67.0699 79.072C67.0699 78.128 67.2139 77.28 67.5019 76.528C67.7899 75.776 68.2059 75.136 68.7499 74.608C69.3099 74.08 69.9819 73.68 70.7659 73.408C71.5499 73.12 72.4219 72.976 73.3819 72.976C73.8779 72.976 74.4059 73.04 74.9659 73.168C75.5259 73.28 76.0779 73.48 76.6219 73.768C76.9419 73.912 77.1579 74.12 77.2699 74.392C77.3979 74.648 77.4459 74.92 77.4139 75.208C77.3819 75.48 77.2779 75.728 77.1019 75.952C76.9419 76.16 76.7339 76.304 76.4779 76.384C76.2219 76.448 75.9339 76.4 75.6139 76.24C75.3099 76.064 74.9899 75.936 74.6539 75.856C74.3339 75.776 74.0299 75.736 73.7419 75.736C73.2619 75.736 72.8379 75.816 72.4699 75.976C72.1019 76.12 71.7899 76.336 71.5339 76.624C71.2939 76.896 71.1019 77.24 70.9579 77.656C70.8299 78.072 70.7659 78.552 70.7659 79.096C70.7659 80.152 71.0219 80.984 71.5339 81.592C72.0619 82.184 72.7979 82.48 73.7419 82.48C74.0299 82.48 74.3339 82.448 74.6539 82.384C74.9739 82.304 75.2939 82.176 75.6139 82C75.9339 81.84 76.2219 81.8 76.4779 81.88C76.7339 81.96 76.9339 82.112 77.0779 82.336C77.2379 82.544 77.3259 82.792 77.3419 83.08C77.3739 83.352 77.3259 83.624 77.1979 83.896C77.0859 84.152 76.8779 84.352 76.5739 84.496C76.0299 84.768 75.4859 84.96 74.9419 85.072C74.3979 85.2 73.8779 85.264 73.3819 85.264ZM83.4565 85.264C82.4325 85.264 81.5285 85.016 80.7445 84.52C79.9765 84.024 79.3765 83.312 78.9445 82.384C78.5125 81.456 78.2965 80.36 78.2965 79.096C78.2965 77.832 78.5125 76.744 78.9445 75.832C79.3765 74.92 79.9765 74.216 80.7445 73.72C81.5285 73.224 82.4325 72.976 83.4565 72.976C84.3845 72.976 85.2005 73.2 85.9045 73.648C86.6245 74.096 87.1125 74.68 87.3685 75.4L87.1285 76.192V74.848C87.1285 74.256 87.2885 73.808 87.6085 73.504C87.9285 73.184 88.3685 73.024 88.9285 73.024C89.5045 73.024 89.9445 73.184 90.2485 73.504C90.5685 73.808 90.7285 74.256 90.7285 74.848V83.368C90.7285 83.96 90.5685 84.416 90.2485 84.736C89.9445 85.056 89.5045 85.216 88.9285 85.216C88.3525 85.216 87.9045 85.056 87.5845 84.736C87.2805 84.416 87.1285 83.96 87.1285 83.368V82.048L87.3925 82.672C87.1685 83.456 86.6885 84.088 85.9525 84.568C85.2325 85.032 84.4005 85.264 83.4565 85.264ZM84.5365 82.552C85.0645 82.552 85.5205 82.424 85.9045 82.168C86.2885 81.912 86.5925 81.536 86.8165 81.04C87.0405 80.528 87.1525 79.88 87.1525 79.096C87.1525 77.928 86.9125 77.072 86.4325 76.528C85.9525 75.968 85.3205 75.688 84.5365 75.688C84.0245 75.688 83.5685 75.808 83.1685 76.048C82.7845 76.288 82.4805 76.664 82.2565 77.176C82.0485 77.672 81.9445 78.312 81.9445 79.096C81.9445 80.264 82.1845 81.136 82.6645 81.712C83.1445 82.272 83.7685 82.552 84.5365 82.552ZM99.3049 85.264C98.2009 85.264 97.2729 85.08 96.5209 84.712C95.7849 84.344 95.2329 83.808 94.8649 83.104C94.5129 82.4 94.3369 81.512 94.3369 80.44V75.928H93.3289C92.8809 75.928 92.5289 75.808 92.2729 75.568C92.0329 75.328 91.9129 75 91.9129 74.584C91.9129 74.136 92.0329 73.8 92.2729 73.576C92.5289 73.336 92.8809 73.216 93.3289 73.216H94.3369V71.392C94.3369 70.784 94.4969 70.328 94.8169 70.024C95.1369 69.704 95.5849 69.544 96.1609 69.544C96.7529 69.544 97.2009 69.704 97.5049 70.024C97.8089 70.328 97.9609 70.784 97.9609 71.392V73.216H100.241C100.689 73.216 101.033 73.336 101.273 73.576C101.513 73.8 101.633 74.136 101.633 74.584C101.633 75 101.513 75.328 101.273 75.568C101.033 75.808 100.689 75.928 100.241 75.928H97.9609V80.296C97.9609 80.968 98.1129 81.472 98.4169 81.808C98.7369 82.144 99.2409 82.312 99.9289 82.312C100.169 82.312 100.393 82.288 100.601 82.24C100.809 82.192 101.001 82.16 101.177 82.144C101.401 82.128 101.585 82.2 101.729 82.36C101.873 82.504 101.945 82.832 101.945 83.344C101.945 83.728 101.881 84.064 101.753 84.352C101.625 84.64 101.401 84.848 101.081 84.976C100.873 85.056 100.585 85.12 100.217 85.168C99.8649 85.232 99.5609 85.264 99.3049 85.264ZM105.423 85.192C104.831 85.192 104.375 85.024 104.055 84.688C103.751 84.336 103.599 83.848 103.599 83.224V75.016C103.599 74.376 103.751 73.888 104.055 73.552C104.375 73.2 104.831 73.024 105.423 73.024C105.999 73.024 106.439 73.2 106.743 73.552C107.063 73.888 107.223 74.376 107.223 75.016V83.224C107.223 83.848 107.071 84.336 106.767 84.688C106.463 85.024 106.015 85.192 105.423 85.192ZM105.423 71.056C104.751 71.056 104.231 70.904 103.863 70.6C103.511 70.28 103.335 69.832 103.335 69.256C103.335 68.664 103.511 68.216 103.863 67.912C104.231 67.592 104.751 67.432 105.423 67.432C106.095 67.432 106.607 67.592 106.959 67.912C107.311 68.216 107.487 68.664 107.487 69.256C107.487 69.832 107.311 70.28 106.959 70.6C106.607 70.904 106.095 71.056 105.423 71.056ZM115.685 85.264C114.421 85.264 113.317 85.016 112.373 84.52C111.445 84.024 110.725 83.312 110.213 82.384C109.701 81.456 109.445 80.36 109.445 79.096C109.445 78.152 109.589 77.304 109.877 76.552C110.165 75.8 110.581 75.16 111.125 74.632C111.685 74.088 112.349 73.68 113.117 73.408C113.885 73.12 114.741 72.976 115.685 72.976C116.949 72.976 118.045 73.224 118.973 73.72C119.917 74.216 120.645 74.92 121.157 75.832C121.685 76.744 121.949 77.832 121.949 79.096C121.949 80.056 121.797 80.912 121.493 81.664C121.205 82.416 120.789 83.064 120.245 83.608C119.701 84.152 119.037 84.568 118.253 84.856C117.485 85.128 116.629 85.264 115.685 85.264ZM115.685 82.552C116.213 82.552 116.669 82.424 117.053 82.168C117.437 81.912 117.741 81.536 117.965 81.04C118.189 80.528 118.301 79.88 118.301 79.096C118.301 77.928 118.061 77.072 117.581 76.528C117.101 75.968 116.469 75.688 115.685 75.688C115.173 75.688 114.717 75.808 114.317 76.048C113.933 76.288 113.629 76.664 113.405 77.176C113.197 77.672 113.093 78.312 113.093 79.096C113.093 80.264 113.333 81.136 113.813 81.712C114.293 82.272 114.917 82.552 115.685 82.552ZM125.978 85.216C125.386 85.216 124.93 85.056 124.61 84.736C124.306 84.416 124.154 83.96 124.154 83.368V74.848C124.154 74.256 124.306 73.808 124.61 73.504C124.93 73.184 125.37 73.024 125.93 73.024C126.506 73.024 126.946 73.184 127.25 73.504C127.554 73.808 127.706 74.256 127.706 74.848V76.216L127.442 75.424C127.81 74.64 128.354 74.04 129.074 73.624C129.81 73.192 130.642 72.976 131.57 72.976C132.514 72.976 133.29 73.16 133.898 73.528C134.506 73.88 134.962 74.424 135.266 75.16C135.57 75.88 135.722 76.8 135.722 77.92V83.368C135.722 83.96 135.562 84.416 135.242 84.736C134.938 85.056 134.49 85.216 133.898 85.216C133.322 85.216 132.874 85.056 132.554 84.736C132.25 84.416 132.098 83.96 132.098 83.368V78.088C132.098 77.272 131.946 76.688 131.642 76.336C131.354 75.968 130.906 75.784 130.298 75.784C129.53 75.784 128.914 76.024 128.45 76.504C128.002 76.984 127.778 77.624 127.778 78.424V83.368C127.778 84.6 127.178 85.216 125.978 85.216Z" fill="white"/>
<defs>
<clipPath id="clip0_180_5722">
<rect width="130" height="130" fill="white" transform="translate(15 14)"/>
</clipPath>
</defs>
</svg>
