<svg width="160" height="160" viewBox="0 0 160 160" fill="none" xmlns="http://www.w3.org/2000/svg">
<rect width="160" height="160" rx="20" fill="#FFBD00"/>
<g clip-path="url(#clip0_180_5721)">
<path d="M80.5 144C116.675 144 146 114.899 146 79C146 43.1015 116.675 14 80.5 14C44.3253 14 15 43.1015 15 79C15 114.899 44.3253 144 80.5 144Z" fill="#99CF16"/>
<path d="M80.5 120.296C103.483 120.296 122.114 101.807 122.114 79.0002C122.114 56.193 103.483 37.7041 80.5 37.7041C57.5174 37.7041 38.8862 56.193 38.8862 79.0002C38.8862 101.807 57.5174 120.296 80.5 120.296Z" fill="#00A84E"/>
</g>
<path d="M11.3316 85C10.7076 85 10.2276 84.832 9.89159 84.496C9.55559 84.16 9.38759 83.68 9.38759 83.056V70.024C9.38759 69.4 9.55559 68.92 9.89159 68.584C10.2276 68.248 10.7076 68.08 11.3316 68.08H19.7076C20.1876 68.08 20.5476 68.208 20.7876 68.464C21.0436 68.704 21.1716 69.056 21.1716 69.52C21.1716 70 21.0436 70.368 20.7876 70.624C20.5476 70.864 20.1876 70.984 19.7076 70.984H12.9396V74.944H19.1556C19.6516 74.944 20.0196 75.072 20.2596 75.328C20.5156 75.568 20.6436 75.928 20.6436 76.408C20.6436 76.888 20.5156 77.256 20.2596 77.512C20.0196 77.752 19.6516 77.872 19.1556 77.872H12.9396V82.096H19.7076C20.1876 82.096 20.5476 82.224 20.7876 82.48C21.0436 82.72 21.1716 83.072 21.1716 83.536C21.1716 84.016 21.0436 84.384 20.7876 84.64C20.5476 84.88 20.1876 85 19.7076 85H11.3316ZM25.4308 85.216C24.8388 85.216 24.3828 85.056 24.0628 84.736C23.7588 84.416 23.6068 83.96 23.6068 83.368V74.848C23.6068 74.256 23.7588 73.808 24.0628 73.504C24.3828 73.184 24.8228 73.024 25.3828 73.024C25.9588 73.024 26.3988 73.184 26.7028 73.504C27.0068 73.808 27.1588 74.256 27.1588 74.848V76.216L26.8948 75.424C27.2628 74.64 27.8068 74.04 28.5268 73.624C29.2628 73.192 30.0948 72.976 31.0228 72.976C31.9668 72.976 32.7428 73.16 33.3508 73.528C33.9588 73.88 34.4148 74.424 34.7188 75.16C35.0228 75.88 35.1748 76.8 35.1748 77.92V83.368C35.1748 83.96 35.0148 84.416 34.6948 84.736C34.3908 85.056 33.9428 85.216 33.3508 85.216C32.7748 85.216 32.3268 85.056 32.0068 84.736C31.7028 84.416 31.5508 83.96 31.5508 83.368V78.088C31.5508 77.272 31.3988 76.688 31.0948 76.336C30.8068 75.968 30.3588 75.784 29.7508 75.784C28.9828 75.784 28.3668 76.024 27.9028 76.504C27.4548 76.984 27.2308 77.624 27.2308 78.424V83.368C27.2308 84.6 26.6308 85.216 25.4308 85.216ZM43.5443 89.584C42.6803 89.584 41.8483 89.512 41.0483 89.368C40.2643 89.224 39.5683 89.008 38.9603 88.72C38.5923 88.56 38.3283 88.352 38.1683 88.096C38.0243 87.84 37.9603 87.568 37.9763 87.28C38.0083 86.992 38.1043 86.736 38.2643 86.512C38.4403 86.288 38.6563 86.128 38.9123 86.032C39.1683 85.952 39.4403 85.976 39.7283 86.104C40.4323 86.424 41.0803 86.632 41.6723 86.728C42.2803 86.824 42.8003 86.872 43.2323 86.872C44.2563 86.872 45.0243 86.64 45.5363 86.176C46.0483 85.712 46.3043 85 46.3043 84.04V82.216H46.5203C46.2803 82.952 45.7843 83.552 45.0323 84.016C44.2803 84.48 43.4483 84.712 42.5363 84.712C41.4803 84.712 40.5603 84.472 39.7763 83.992C38.9923 83.496 38.3843 82.808 37.9523 81.928C37.5203 81.032 37.3043 80 37.3043 78.832C37.3043 77.952 37.4243 77.152 37.6643 76.432C37.9203 75.712 38.2723 75.096 38.7203 74.584C39.1843 74.072 39.7363 73.68 40.3763 73.408C41.0323 73.12 41.7523 72.976 42.5363 72.976C43.4803 72.976 44.3123 73.208 45.0323 73.672C45.7683 74.12 46.2563 74.712 46.4963 75.448L46.2563 76.216V74.848C46.2563 74.256 46.4083 73.808 46.7123 73.504C47.0323 73.184 47.4803 73.024 48.0563 73.024C48.6323 73.024 49.0723 73.184 49.3763 73.504C49.6803 73.808 49.8323 74.256 49.8323 74.848V83.632C49.8323 85.6 49.2883 87.08 48.2003 88.072C47.1283 89.08 45.5763 89.584 43.5443 89.584ZM43.6163 82C44.1603 82 44.6243 81.872 45.0083 81.616C45.4083 81.36 45.7203 81 45.9443 80.536C46.1683 80.056 46.2803 79.488 46.2803 78.832C46.2803 77.84 46.0323 77.072 45.5363 76.528C45.0563 75.968 44.4163 75.688 43.6163 75.688C43.0723 75.688 42.6003 75.816 42.2003 76.072C41.8003 76.312 41.4883 76.672 41.2643 77.152C41.0563 77.616 40.9523 78.176 40.9523 78.832C40.9523 79.824 41.1923 80.6 41.6723 81.16C42.1523 81.72 42.8003 82 43.6163 82ZM57.2299 85.264C56.2059 85.264 55.3019 85.016 54.5179 84.52C53.7499 84.024 53.1499 83.312 52.7179 82.384C52.2859 81.456 52.0699 80.36 52.0699 79.096C52.0699 77.832 52.2859 76.744 52.7179 75.832C53.1499 74.92 53.7499 74.216 54.5179 73.72C55.3019 73.224 56.2059 72.976 57.2299 72.976C58.1579 72.976 58.9739 73.2 59.6779 73.648C60.3979 74.096 60.8859 74.68 61.1419 75.4L60.9019 76.192V74.848C60.9019 74.256 61.0619 73.808 61.3819 73.504C61.7019 73.184 62.1419 73.024 62.7019 73.024C63.2779 73.024 63.7179 73.184 64.0219 73.504C64.3419 73.808 64.5019 74.256 64.5019 74.848V83.368C64.5019 83.96 64.3419 84.416 64.0219 84.736C63.7179 85.056 63.2779 85.216 62.7019 85.216C62.1259 85.216 61.6779 85.056 61.3579 84.736C61.0539 84.416 60.9019 83.96 60.9019 83.368V82.048L61.1659 82.672C60.9419 83.456 60.4619 84.088 59.7259 84.568C59.0059 85.032 58.1739 85.264 57.2299 85.264ZM58.3099 82.552C58.8379 82.552 59.2939 82.424 59.6779 82.168C60.0619 81.912 60.3659 81.536 60.5899 81.04C60.8139 80.528 60.9259 79.88 60.9259 79.096C60.9259 77.928 60.6859 77.072 60.2059 76.528C59.7259 75.968 59.0939 75.688 58.3099 75.688C57.7979 75.688 57.3419 75.808 56.9419 76.048C56.5579 76.288 56.2539 76.664 56.0299 77.176C55.8219 77.672 55.7179 78.312 55.7179 79.096C55.7179 80.264 55.9579 81.136 56.4379 81.712C56.9179 82.272 57.5419 82.552 58.3099 82.552ZM72.9583 89.584C72.0943 89.584 71.2623 89.512 70.4623 89.368C69.6783 89.224 68.9823 89.008 68.3743 88.72C68.0063 88.56 67.7423 88.352 67.5823 88.096C67.4383 87.84 67.3743 87.568 67.3903 87.28C67.4223 86.992 67.5183 86.736 67.6783 86.512C67.8543 86.288 68.0703 86.128 68.3263 86.032C68.5823 85.952 68.8543 85.976 69.1423 86.104C69.8463 86.424 70.4943 86.632 71.0863 86.728C71.6943 86.824 72.2143 86.872 72.6463 86.872C73.6703 86.872 74.4383 86.64 74.9503 86.176C75.4623 85.712 75.7183 85 75.7183 84.04V82.216H75.9343C75.6943 82.952 75.1983 83.552 74.4463 84.016C73.6943 84.48 72.8623 84.712 71.9503 84.712C70.8943 84.712 69.9743 84.472 69.1903 83.992C68.4063 83.496 67.7983 82.808 67.3663 81.928C66.9343 81.032 66.7183 80 66.7183 78.832C66.7183 77.952 66.8383 77.152 67.0783 76.432C67.3343 75.712 67.6863 75.096 68.1343 74.584C68.5983 74.072 69.1503 73.68 69.7903 73.408C70.4463 73.12 71.1663 72.976 71.9503 72.976C72.8943 72.976 73.7263 73.208 74.4463 73.672C75.1823 74.12 75.6703 74.712 75.9103 75.448L75.6703 76.216V74.848C75.6703 74.256 75.8223 73.808 76.1263 73.504C76.4463 73.184 76.8943 73.024 77.4703 73.024C78.0463 73.024 78.4863 73.184 78.7903 73.504C79.0943 73.808 79.2463 74.256 79.2463 74.848V83.632C79.2463 85.6 78.7023 87.08 77.6143 88.072C76.5423 89.08 74.9903 89.584 72.9583 89.584ZM73.0303 82C73.5743 82 74.0383 81.872 74.4223 81.616C74.8223 81.36 75.1343 81 75.3583 80.536C75.5823 80.056 75.6943 79.488 75.6943 78.832C75.6943 77.84 75.4463 77.072 74.9503 76.528C74.4703 75.968 73.8303 75.688 73.0303 75.688C72.4863 75.688 72.0143 75.816 71.6143 76.072C71.2143 76.312 70.9023 76.672 70.6783 77.152C70.4703 77.616 70.3663 78.176 70.3663 78.832C70.3663 79.824 70.6063 80.6 71.0863 81.16C71.5663 81.72 72.2143 82 73.0303 82ZM88.18 85.264C86.788 85.264 85.588 85.016 84.58 84.52C83.588 84.008 82.82 83.296 82.276 82.384C81.748 81.456 81.484 80.368 81.484 79.12C81.484 77.904 81.74 76.84 82.252 75.928C82.764 75 83.476 74.28 84.388 73.768C85.316 73.24 86.364 72.976 87.532 72.976C88.38 72.976 89.148 73.12 89.836 73.408C90.524 73.68 91.116 74.08 91.612 74.608C92.108 75.12 92.484 75.752 92.74 76.504C92.996 77.24 93.124 78.064 93.124 78.976C93.124 79.28 93.028 79.512 92.836 79.672C92.644 79.816 92.364 79.888 91.996 79.888H84.46V78.016H90.508L90.124 78.352C90.124 77.696 90.028 77.152 89.836 76.72C89.644 76.272 89.364 75.936 88.996 75.712C88.644 75.488 88.204 75.376 87.676 75.376C87.084 75.376 86.58 75.512 86.164 75.784C85.748 76.056 85.428 76.448 85.204 76.96C84.98 77.472 84.868 78.088 84.868 78.808V79C84.868 80.216 85.148 81.112 85.708 81.688C86.284 82.264 87.132 82.552 88.252 82.552C88.636 82.552 89.076 82.504 89.572 82.408C90.068 82.312 90.532 82.16 90.964 81.952C91.332 81.776 91.66 81.72 91.948 81.784C92.236 81.832 92.46 81.96 92.62 82.168C92.78 82.376 92.868 82.616 92.884 82.888C92.916 83.16 92.86 83.432 92.716 83.704C92.572 83.96 92.332 84.176 91.996 84.352C91.452 84.656 90.836 84.88 90.148 85.024C89.476 85.184 88.82 85.264 88.18 85.264ZM97.1038 85.216C96.5118 85.216 96.0558 85.056 95.7358 84.736C95.4318 84.416 95.2798 83.96 95.2798 83.368V74.848C95.2798 74.256 95.4318 73.808 95.7358 73.504C96.0558 73.184 96.4958 73.024 97.0558 73.024C97.6318 73.024 98.0718 73.184 98.3758 73.504C98.6798 73.808 98.8318 74.256 98.8318 74.848V76.384L98.5678 75.424C98.8878 74.688 99.3838 74.096 100.056 73.648C100.728 73.2 101.52 72.976 102.432 72.976C103.344 72.976 104.104 73.192 104.712 73.624C105.32 74.056 105.752 74.72 106.008 75.616H105.672C106.024 74.8 106.56 74.16 107.28 73.696C108.016 73.216 108.856 72.976 109.8 72.976C110.712 72.976 111.456 73.16 112.032 73.528C112.624 73.88 113.064 74.424 113.352 75.16C113.64 75.88 113.784 76.8 113.784 77.92V83.368C113.784 83.96 113.624 84.416 113.304 84.736C113 85.056 112.56 85.216 111.984 85.216C111.392 85.216 110.936 85.056 110.616 84.736C110.312 84.416 110.16 83.96 110.16 83.368V78.04C110.16 77.256 110.032 76.688 109.776 76.336C109.536 75.968 109.12 75.784 108.528 75.784C107.84 75.784 107.304 76.024 106.92 76.504C106.536 76.984 106.344 77.664 106.344 78.544V83.368C106.344 83.96 106.184 84.416 105.864 84.736C105.56 85.056 105.12 85.216 104.544 85.216C103.968 85.216 103.52 85.056 103.2 84.736C102.88 84.416 102.72 83.96 102.72 83.368V78.04C102.72 77.256 102.592 76.688 102.336 76.336C102.096 75.968 101.68 75.784 101.088 75.784C100.4 75.784 99.8638 76.024 99.4798 76.504C99.0958 76.984 98.9038 77.664 98.9038 78.544V83.368C98.9038 84.6 98.3038 85.216 97.1038 85.216ZM122.68 85.264C121.288 85.264 120.088 85.016 119.08 84.52C118.088 84.008 117.32 83.296 116.776 82.384C116.248 81.456 115.984 80.368 115.984 79.12C115.984 77.904 116.24 76.84 116.752 75.928C117.264 75 117.976 74.28 118.888 73.768C119.816 73.24 120.864 72.976 122.032 72.976C122.88 72.976 123.648 73.12 124.336 73.408C125.024 73.68 125.616 74.08 126.112 74.608C126.608 75.12 126.984 75.752 127.24 76.504C127.496 77.24 127.624 78.064 127.624 78.976C127.624 79.28 127.528 79.512 127.336 79.672C127.144 79.816 126.864 79.888 126.496 79.888H118.96V78.016H125.008L124.624 78.352C124.624 77.696 124.528 77.152 124.336 76.72C124.144 76.272 123.864 75.936 123.496 75.712C123.144 75.488 122.704 75.376 122.176 75.376C121.584 75.376 121.08 75.512 120.664 75.784C120.248 76.056 119.928 76.448 119.704 76.96C119.48 77.472 119.368 78.088 119.368 78.808V79C119.368 80.216 119.648 81.112 120.208 81.688C120.784 82.264 121.632 82.552 122.752 82.552C123.136 82.552 123.576 82.504 124.072 82.408C124.568 82.312 125.032 82.16 125.464 81.952C125.832 81.776 126.16 81.72 126.448 81.784C126.736 81.832 126.96 81.96 127.12 82.168C127.28 82.376 127.368 82.616 127.384 82.888C127.416 83.16 127.36 83.432 127.216 83.704C127.072 83.96 126.832 84.176 126.496 84.352C125.952 84.656 125.336 84.88 124.648 85.024C123.976 85.184 123.32 85.264 122.68 85.264ZM131.556 85.216C130.964 85.216 130.508 85.056 130.188 84.736C129.884 84.416 129.732 83.96 129.732 83.368V74.848C129.732 74.256 129.884 73.808 130.188 73.504C130.508 73.184 130.948 73.024 131.508 73.024C132.084 73.024 132.524 73.184 132.828 73.504C133.132 73.808 133.284 74.256 133.284 74.848V76.216L133.02 75.424C133.388 74.64 133.932 74.04 134.652 73.624C135.388 73.192 136.22 72.976 137.148 72.976C138.092 72.976 138.868 73.16 139.476 73.528C140.084 73.88 140.54 74.424 140.844 75.16C141.148 75.88 141.3 76.8 141.3 77.92V83.368C141.3 83.96 141.14 84.416 140.82 84.736C140.516 85.056 140.068 85.216 139.476 85.216C138.9 85.216 138.452 85.056 138.132 84.736C137.828 84.416 137.676 83.96 137.676 83.368V78.088C137.676 77.272 137.524 76.688 137.22 76.336C136.932 75.968 136.484 75.784 135.876 75.784C135.108 75.784 134.492 76.024 134.028 76.504C133.58 76.984 133.356 77.624 133.356 78.424V83.368C133.356 84.6 132.756 85.216 131.556 85.216ZM149.789 85.264C148.685 85.264 147.757 85.08 147.005 84.712C146.269 84.344 145.717 83.808 145.349 83.104C144.997 82.4 144.821 81.512 144.821 80.44V75.928H143.813C143.365 75.928 143.013 75.808 142.757 75.568C142.517 75.328 142.397 75 142.397 74.584C142.397 74.136 142.517 73.8 142.757 73.576C143.013 73.336 143.365 73.216 143.813 73.216H144.821V71.392C144.821 70.784 144.981 70.328 145.301 70.024C145.621 69.704 146.069 69.544 146.645 69.544C147.237 69.544 147.685 69.704 147.989 70.024C148.293 70.328 148.445 70.784 148.445 71.392V73.216H150.725C151.173 73.216 151.517 73.336 151.757 73.576C151.997 73.8 152.117 74.136 152.117 74.584C152.117 75 151.997 75.328 151.757 75.568C151.517 75.808 151.173 75.928 150.725 75.928H148.445V80.296C148.445 80.968 148.597 81.472 148.901 81.808C149.221 82.144 149.725 82.312 150.413 82.312C150.653 82.312 150.877 82.288 151.085 82.24C151.293 82.192 151.485 82.16 151.661 82.144C151.885 82.128 152.069 82.2 152.213 82.36C152.357 82.504 152.429 82.832 152.429 83.344C152.429 83.728 152.365 84.064 152.237 84.352C152.109 84.64 151.885 84.848 151.565 84.976C151.357 85.056 151.069 85.12 150.701 85.168C150.349 85.232 150.045 85.264 149.789 85.264Z" fill="white"/>
<defs>
<clipPath id="clip0_180_5721">
<rect width="131" height="130" fill="white" transform="translate(15 14)"/>
</clipPath>
</defs>
</svg>
