<svg width="182" height="68" viewBox="0 0 182 68" fill="none" xmlns="http://www.w3.org/2000/svg">
<path d="M181.404 50.1462V49.1462H181.394V20.1562C181.394 9.88055 173.68 1.40625 164.004 1.40625H19.1039C9.42799 1.40625 1.71387 9.88055 1.71387 20.1562V50.1462C1.71387 60.4219 9.42799 68.8962 19.1039 68.8962H164.014C173.689 68.8962 181.404 60.4323 181.404 50.1462Z" fill="#00005B" stroke="#056DE2" stroke-width="2"/>
<path d="M42.906 47.4062C42.074 47.4062 41.434 47.1822 40.986 46.7342C40.538 46.2862 40.314 45.6462 40.314 44.8142V27.4382C40.314 26.6062 40.538 25.9662 40.986 25.5182C41.434 25.0702 42.074 24.8462 42.906 24.8462H54.074C54.714 24.8462 55.194 25.0169 55.514 25.3582C55.8553 25.6782 56.026 26.1476 56.026 26.7662C56.026 27.4062 55.8553 27.8969 55.514 28.2382C55.194 28.5582 54.714 28.7182 54.074 28.7182H45.05V33.9982H53.338C53.9993 33.9982 54.49 34.1689 54.81 34.5102C55.1513 34.8302 55.322 35.3102 55.322 35.9502C55.322 36.5902 55.1513 37.0809 54.81 37.4222C54.49 37.7422 53.9993 37.9022 53.338 37.9022H45.05V43.5342H54.074C54.714 43.5342 55.194 43.7049 55.514 44.0462C55.8553 44.3662 56.026 44.8356 56.026 45.4542C56.026 46.0942 55.8553 46.5849 55.514 46.9262C55.194 47.2462 54.714 47.4062 54.074 47.4062H42.906ZM61.993 47.6943C61.2463 47.6943 60.6703 47.4916 60.265 47.0862C59.881 46.6596 59.689 46.0622 59.689 45.2943V27.0542C59.689 26.2436 59.881 25.6249 60.265 25.1982C60.6703 24.7716 61.2037 24.5582 61.865 24.5582C62.441 24.5582 62.8783 24.6756 63.177 24.9102C63.497 25.1236 63.8597 25.4862 64.265 25.9982L75.497 40.3022H74.633V26.9262C74.633 26.1796 74.825 25.6036 75.209 25.1982C75.6143 24.7716 76.1903 24.5582 76.937 24.5582C77.6837 24.5582 78.249 24.7716 78.633 25.1982C79.0383 25.6036 79.241 26.1796 79.241 26.9262V45.3902C79.241 46.0942 79.0597 46.6596 78.697 47.0862C78.3343 47.4916 77.8437 47.6943 77.225 47.6943C76.6277 47.6943 76.1477 47.5769 75.785 47.3422C75.4437 47.1076 75.0703 46.7342 74.665 46.2222L63.465 31.9182H64.297V45.2943C64.297 46.0622 64.105 46.6596 63.721 47.0862C63.337 47.4916 62.761 47.6943 61.993 47.6943ZM91.6547 47.6943C90.8441 47.6943 90.2254 47.4703 89.7987 47.0222C89.3721 46.5743 89.1587 45.9449 89.1587 45.1342V28.9422H83.4947C82.8334 28.9422 82.3214 28.7609 81.9587 28.3982C81.5961 28.0356 81.4147 27.5342 81.4147 26.8942C81.4147 26.2329 81.5961 25.7316 81.9587 25.3902C82.3214 25.0276 82.8334 24.8462 83.4947 24.8462H99.7827C100.444 24.8462 100.956 25.0276 101.319 25.3902C101.681 25.7316 101.863 26.2329 101.863 26.8942C101.863 27.5342 101.681 28.0356 101.319 28.3982C100.956 28.7609 100.444 28.9422 99.7827 28.9422H94.1187V45.1342C94.1187 45.9449 93.9054 46.5743 93.4787 47.0222C93.0734 47.4703 92.4654 47.6943 91.6547 47.6943ZM106.593 47.4062C105.761 47.4062 105.121 47.1822 104.673 46.7342C104.225 46.2862 104.001 45.6462 104.001 44.8142V27.4382C104.001 26.6062 104.225 25.9662 104.673 25.5182C105.121 25.0702 105.761 24.8462 106.593 24.8462H117.761C118.401 24.8462 118.881 25.0169 119.201 25.3582C119.543 25.6782 119.713 26.1476 119.713 26.7662C119.713 27.4062 119.543 27.8969 119.201 28.2382C118.881 28.5582 118.401 28.7182 117.761 28.7182H108.737V33.9982H117.025C117.687 33.9982 118.177 34.1689 118.497 34.5102C118.839 34.8302 119.009 35.3102 119.009 35.9502C119.009 36.5902 118.839 37.0809 118.497 37.4222C118.177 37.7422 117.687 37.9022 117.025 37.9022H108.737V43.5342H117.761C118.401 43.5342 118.881 43.7049 119.201 44.0462C119.543 44.3662 119.713 44.8356 119.713 45.4542C119.713 46.0942 119.543 46.5849 119.201 46.9262C118.881 47.2462 118.401 47.4062 117.761 47.4062H106.593ZM125.872 47.6943C125.062 47.6943 124.443 47.4703 124.016 47.0222C123.59 46.5743 123.376 45.9449 123.376 45.1342V27.3742C123.376 26.5422 123.59 25.9129 124.016 25.4862C124.464 25.0596 125.094 24.8462 125.904 24.8462H133.68C136.198 24.8462 138.139 25.4542 139.504 26.6702C140.87 27.8862 141.552 29.5822 141.552 31.7582C141.552 33.1662 141.243 34.3822 140.624 35.4062C140.006 36.4302 139.11 37.2196 137.936 37.7742C136.784 38.3289 135.366 38.6062 133.68 38.6062L133.936 38.0622H135.248C136.144 38.0622 136.923 38.2862 137.584 38.7342C138.267 39.1609 138.854 39.8222 139.344 40.7182L141.328 44.3982C141.627 44.9316 141.766 45.4542 141.744 45.9662C141.723 46.4782 141.531 46.8942 141.168 47.2142C140.806 47.5343 140.272 47.6943 139.568 47.6943C138.864 47.6943 138.288 47.5449 137.84 47.2462C137.414 46.9476 137.03 46.4889 136.688 45.8702L133.616 40.2062C133.296 39.6089 132.902 39.2036 132.432 38.9902C131.984 38.7769 131.43 38.6702 130.768 38.6702H128.336V45.1342C128.336 45.9449 128.123 46.5743 127.696 47.0222C127.291 47.4703 126.683 47.6943 125.872 47.6943ZM128.336 35.0862H132.784C134.107 35.0862 135.099 34.8196 135.76 34.2862C136.443 33.7529 136.784 32.9529 136.784 31.8862C136.784 30.8409 136.443 30.0516 135.76 29.5182C135.099 28.9849 134.107 28.7182 132.784 28.7182H128.336V35.0862Z" fill="#0379E3"/>
</svg>
