<svg width="20" height="15" viewBox="0 0 20 15" fill="none" xmlns="http://www.w3.org/2000/svg">
<path d="M9.99998 2.15266C13.3522 2.15266 16.3334 4.17098 17.6093 7.23326C16.345 10.2955 13.3638 12.3139 9.99998 12.3139C6.63612 12.3139 3.66664 10.2955 2.39069 7.23326C3.65504 4.17098 6.63612 2.15266 9.99998 2.15266ZM9.99998 0.37793C5.56896 0.37793 1.82235 3.25462 0.5 7.23326C1.82235 11.2119 5.56896 14.0886 9.99998 14.0886C14.431 14.0886 18.1777 11.2119 19.5 7.23326C18.1777 3.25462 14.431 0.37793 9.99998 0.37793Z" fill="#0078FF"/>
<path d="M10 6.34016C10.4988 6.34016 10.8932 6.74614 10.8932 7.23333C10.8932 7.72051 10.4872 8.12649 10 8.12649C9.51287 8.12649 9.10689 7.72051 9.10689 7.23333C9.10689 6.74614 9.51287 6.34016 10 6.34016ZM10 4.56543C8.5269 4.56543 7.32056 5.76018 7.32056 7.24492C7.32056 8.72966 8.51531 9.92441 10 9.92441C11.4848 9.92441 12.6796 8.72966 12.6796 7.24492C12.6796 5.76018 11.4848 4.56543 10 4.56543Z" fill="#0078FF"/>
</svg>
