<svg width="31" height="31" viewBox="0 0 31 31" fill="none" xmlns="http://www.w3.org/2000/svg">
<path d="M30.5 15.0664C30.5 23.3511 23.7847 30.0664 15.5 30.0664C7.21529 30.0664 0.5 23.3511 0.5 15.0664C0.5 6.78172 7.21529 0.0664062 15.5 0.0664062C23.7847 0.0664062 30.5 6.78172 30.5 15.0664Z" fill="#007CFF"/>
<path d="M19.9412 13.9032L19.6957 15.9103C19.653 16.2413 19.3647 16.4975 19.0338 16.4975H15.7882V24.889C15.4466 24.921 15.0943 24.9317 14.742 24.9317C13.9519 24.9317 13.1939 24.857 12.4466 24.7075V16.4975H9.94834C9.72414 16.4975 9.53198 16.3054 9.53198 16.0812V13.5723C9.53198 13.3374 9.72414 13.1559 9.94834 13.1559H12.4466V9.3872C12.4466 7.08115 14.3149 5.20215 16.6103 5.20215H19.5249C19.7491 5.20215 19.9412 5.39432 19.9412 5.61852V8.12742C19.9412 8.3623 19.7491 8.54379 19.5249 8.54379H17.443C16.5249 8.54379 15.7775 9.29112 15.7775 10.2199V13.1452H19.2793C19.685 13.1452 19.9946 13.4975 19.9412 13.9032Z" fill="white"/>
</svg>
