<svg width="25" height="25" viewBox="0 0 25 25" fill="none" xmlns="http://www.w3.org/2000/svg">
<path d="M12.5 0C5.6 0 0 5.6 0 12.5C0 19.4 5.6 25 12.5 25C19.4 25 25 19.4 25 12.5C25 5.6 19.4 0 12.5 0ZM16.21 6.72C16.21 6.91 16.05 7.07 15.86 7.07H14.12C13.35 7.07 12.73 7.69 12.73 8.46V10.9H15.65C15.98 10.9 16.24 11.19 16.2 11.53L15.99 13.2C15.95 13.48 15.72 13.69 15.44 13.69H12.73V20.68C12.44 20.71 12.15 20.72 11.86 20.72C11.21 20.72 10.57 20.65 9.95 20.53V13.69H7.87C7.68 13.69 7.52 13.53 7.52 13.34V11.25C7.52 11.06 7.68 10.9 7.87 10.9H9.95V7.76C9.95 5.83 11.5 4.27 13.42 4.27H15.85C16.04 4.27 16.2 4.43 16.2 4.62V6.71L16.21 6.72Z" fill="currentColor"/>
</svg>
