<svg width="160" height="160" viewBox="0 0 160 160" fill="none" xmlns="http://www.w3.org/2000/svg">
<rect width="160" height="160" rx="20" fill="#AB3BFF"/>
<g clip-path="url(#clip0_180_5720)">
<path d="M81 144C116.899 144 146 115.122 146 79.5C146 43.8776 116.899 15 81 15C45.1015 15 16 43.8776 16 79.5C16 115.122 45.1015 144 81 144Z" fill="#FF92FF"/>
<path d="M80.4479 60.7398C80.4479 60.7398 60.0569 35.8391 43.9116 48.4784C16.6284 69.8461 80.4479 122.009 80.4479 122.009C80.4479 122.009 141.564 72.699 115.728 49.8953C96.003 32.4951 80.4479 60.7398 80.4479 60.7398Z" fill="#FF0000"/>
</g>
<path d="M29.3891 87.216C28.7811 87.216 28.3091 87.048 27.9731 86.712C27.6531 86.376 27.4931 85.888 27.4931 85.248V72.024C27.4931 71.4 27.6611 70.92 27.9971 70.584C28.3331 70.248 28.8131 70.08 29.4371 70.08H37.6451C38.1251 70.08 38.4851 70.208 38.7251 70.464C38.9811 70.704 39.1091 71.056 39.1091 71.52C39.1091 72 38.9811 72.368 38.7251 72.624C38.4851 72.864 38.1251 72.984 37.6451 72.984H31.2131V77.112H37.1171C37.5971 77.112 37.9651 77.24 38.2211 77.496C38.4771 77.736 38.6051 78.088 38.6051 78.552C38.6051 79.016 38.4771 79.376 38.2211 79.632C37.9651 79.888 37.5971 80.016 37.1171 80.016H31.2131V85.248C31.2131 86.56 30.6051 87.216 29.3891 87.216ZM46.5901 87.264C45.1981 87.264 43.9981 87.016 42.9901 86.52C41.9981 86.008 41.2301 85.296 40.6861 84.384C40.1581 83.456 39.8941 82.368 39.8941 81.12C39.8941 79.904 40.1501 78.84 40.6621 77.928C41.1741 77 41.8861 76.28 42.7981 75.768C43.7261 75.24 44.7741 74.976 45.9421 74.976C46.7901 74.976 47.5581 75.12 48.2461 75.408C48.9341 75.68 49.5261 76.08 50.0221 76.608C50.5181 77.12 50.8941 77.752 51.1501 78.504C51.4061 79.24 51.5341 80.064 51.5341 80.976C51.5341 81.28 51.4381 81.512 51.2461 81.672C51.0541 81.816 50.7741 81.888 50.4061 81.888H42.8701V80.016H48.9181L48.5341 80.352C48.5341 79.696 48.4381 79.152 48.2461 78.72C48.0541 78.272 47.7741 77.936 47.4061 77.712C47.0541 77.488 46.6141 77.376 46.0861 77.376C45.4941 77.376 44.9901 77.512 44.5741 77.784C44.1581 78.056 43.8381 78.448 43.6141 78.96C43.3901 79.472 43.2781 80.088 43.2781 80.808V81C43.2781 82.216 43.5581 83.112 44.1181 83.688C44.6941 84.264 45.5421 84.552 46.6621 84.552C47.0461 84.552 47.4861 84.504 47.9821 84.408C48.4781 84.312 48.9421 84.16 49.3741 83.952C49.7421 83.776 50.0701 83.72 50.3581 83.784C50.6461 83.832 50.8701 83.96 51.0301 84.168C51.1901 84.376 51.2781 84.616 51.2941 84.888C51.3261 85.16 51.2701 85.432 51.1261 85.704C50.9821 85.96 50.7421 86.176 50.4061 86.352C49.8621 86.656 49.2461 86.88 48.5581 87.024C47.8861 87.184 47.2301 87.264 46.5901 87.264ZM59.762 87.264C58.37 87.264 57.17 87.016 56.162 86.52C55.17 86.008 54.402 85.296 53.858 84.384C53.33 83.456 53.066 82.368 53.066 81.12C53.066 79.904 53.322 78.84 53.834 77.928C54.346 77 55.058 76.28 55.97 75.768C56.898 75.24 57.946 74.976 59.114 74.976C59.962 74.976 60.73 75.12 61.418 75.408C62.106 75.68 62.698 76.08 63.194 76.608C63.69 77.12 64.066 77.752 64.322 78.504C64.578 79.24 64.706 80.064 64.706 80.976C64.706 81.28 64.61 81.512 64.418 81.672C64.226 81.816 63.946 81.888 63.578 81.888H56.042V80.016H62.09L61.706 80.352C61.706 79.696 61.61 79.152 61.418 78.72C61.226 78.272 60.946 77.936 60.578 77.712C60.226 77.488 59.786 77.376 59.258 77.376C58.666 77.376 58.162 77.512 57.746 77.784C57.33 78.056 57.01 78.448 56.786 78.96C56.562 79.472 56.45 80.088 56.45 80.808V81C56.45 82.216 56.73 83.112 57.29 83.688C57.866 84.264 58.714 84.552 59.834 84.552C60.218 84.552 60.658 84.504 61.154 84.408C61.65 84.312 62.114 84.16 62.546 83.952C62.914 83.776 63.242 83.72 63.53 83.784C63.818 83.832 64.042 83.96 64.202 84.168C64.362 84.376 64.45 84.616 64.466 84.888C64.498 85.16 64.442 85.432 64.298 85.704C64.154 85.96 63.914 86.176 63.578 86.352C63.034 86.656 62.418 86.88 61.73 87.024C61.058 87.184 60.402 87.264 59.762 87.264ZM71.3979 87.264C70.3739 87.264 69.4699 87.016 68.6859 86.52C67.9179 86.024 67.3179 85.312 66.8859 84.384C66.4539 83.456 66.2379 82.36 66.2379 81.096C66.2379 79.832 66.4539 78.744 66.8859 77.832C67.3179 76.92 67.9179 76.216 68.6859 75.72C69.4699 75.224 70.3739 74.976 71.3979 74.976C72.3259 74.976 73.1419 75.2 73.8459 75.648C74.5659 76.096 75.0539 76.68 75.3099 77.4H75.0459V71.712C75.0459 71.104 75.1979 70.648 75.5019 70.344C75.8059 70.024 76.2539 69.864 76.8459 69.864C77.4219 69.864 77.8699 70.024 78.1899 70.344C78.5099 70.648 78.6699 71.104 78.6699 71.712V85.368C78.6699 85.96 78.5099 86.416 78.1899 86.736C77.8859 87.056 77.4459 87.216 76.8699 87.216C76.2939 87.216 75.8459 87.056 75.5259 86.736C75.2219 86.416 75.0699 85.96 75.0699 85.368V83.736L75.3339 84.672C75.1099 85.456 74.6299 86.088 73.8939 86.568C73.1739 87.032 72.3419 87.264 71.3979 87.264ZM72.4779 84.552C73.0059 84.552 73.4619 84.424 73.8459 84.168C74.2299 83.912 74.5339 83.536 74.7579 83.04C74.9819 82.528 75.0939 81.88 75.0939 81.096C75.0939 79.928 74.8539 79.072 74.3739 78.528C73.8939 77.968 73.2619 77.688 72.4779 77.688C71.9659 77.688 71.5099 77.808 71.1099 78.048C70.7259 78.288 70.4219 78.664 70.1979 79.176C69.9899 79.672 69.8859 80.312 69.8859 81.096C69.8859 82.264 70.1259 83.136 70.6059 83.712C71.0859 84.272 71.7099 84.552 72.4779 84.552ZM88.7343 87.264C87.7903 87.264 86.9503 87.032 86.2143 86.568C85.4943 86.088 85.0143 85.456 84.7743 84.672L85.0383 83.88V85.368C85.0383 85.96 84.8863 86.416 84.5823 86.736C84.2783 87.056 83.8383 87.216 83.2623 87.216C82.6863 87.216 82.2383 87.056 81.9183 86.736C81.6143 86.416 81.4623 85.96 81.4623 85.368V71.712C81.4623 71.104 81.6143 70.648 81.9183 70.344C82.2383 70.024 82.6943 69.864 83.2863 69.864C83.8623 69.864 84.3023 70.024 84.6063 70.344C84.9263 70.648 85.0863 71.104 85.0863 71.712V77.4H84.7983C85.0543 76.68 85.5423 76.096 86.2623 75.648C86.9823 75.2 87.8063 74.976 88.7343 74.976C89.7743 74.976 90.6783 75.224 91.4463 75.72C92.2143 76.216 92.8143 76.92 93.2463 77.832C93.6783 78.744 93.8943 79.832 93.8943 81.096C93.8943 82.36 93.6783 83.456 93.2463 84.384C92.8143 85.312 92.2063 86.024 91.4223 86.52C90.6543 87.016 89.7583 87.264 88.7343 87.264ZM87.6543 84.552C88.1663 84.552 88.6143 84.424 88.9983 84.168C89.3983 83.912 89.7023 83.536 89.9103 83.04C90.1343 82.528 90.2463 81.88 90.2463 81.096C90.2463 79.928 90.0063 79.072 89.5263 78.528C89.0463 77.968 88.4223 77.688 87.6543 77.688C87.1423 77.688 86.6863 77.808 86.2863 78.048C85.9023 78.288 85.5983 78.664 85.3743 79.176C85.1503 79.672 85.0383 80.312 85.0383 81.096C85.0383 82.264 85.2783 83.136 85.7583 83.712C86.2383 84.272 86.8703 84.552 87.6543 84.552ZM100.695 87.264C99.6708 87.264 98.7668 87.016 97.9828 86.52C97.2148 86.024 96.6148 85.312 96.1828 84.384C95.7508 83.456 95.5348 82.36 95.5348 81.096C95.5348 79.832 95.7508 78.744 96.1828 77.832C96.6148 76.92 97.2148 76.216 97.9828 75.72C98.7668 75.224 99.6708 74.976 100.695 74.976C101.623 74.976 102.439 75.2 103.143 75.648C103.863 76.096 104.351 76.68 104.607 77.4L104.367 78.192V76.848C104.367 76.256 104.527 75.808 104.847 75.504C105.167 75.184 105.607 75.024 106.167 75.024C106.743 75.024 107.183 75.184 107.487 75.504C107.807 75.808 107.967 76.256 107.967 76.848V85.368C107.967 85.96 107.807 86.416 107.487 86.736C107.183 87.056 106.743 87.216 106.167 87.216C105.591 87.216 105.143 87.056 104.823 86.736C104.519 86.416 104.367 85.96 104.367 85.368V84.048L104.631 84.672C104.407 85.456 103.927 86.088 103.191 86.568C102.471 87.032 101.639 87.264 100.695 87.264ZM101.775 84.552C102.303 84.552 102.759 84.424 103.143 84.168C103.527 83.912 103.831 83.536 104.055 83.04C104.279 82.528 104.391 81.88 104.391 81.096C104.391 79.928 104.151 79.072 103.671 78.528C103.191 77.968 102.559 77.688 101.775 77.688C101.263 77.688 100.807 77.808 100.407 78.048C100.023 78.288 99.7188 78.664 99.4948 79.176C99.2868 79.672 99.1828 80.312 99.1828 81.096C99.1828 82.264 99.4228 83.136 99.9028 83.712C100.383 84.272 101.007 84.552 101.775 84.552ZM116.495 87.264C115.215 87.264 114.095 87.016 113.135 86.52C112.191 86.008 111.463 85.288 110.951 84.36C110.439 83.432 110.183 82.336 110.183 81.072C110.183 80.128 110.327 79.28 110.615 78.528C110.903 77.776 111.319 77.136 111.863 76.608C112.423 76.08 113.095 75.68 113.879 75.408C114.663 75.12 115.535 74.976 116.495 74.976C116.991 74.976 117.519 75.04 118.079 75.168C118.639 75.28 119.191 75.48 119.735 75.768C120.055 75.912 120.271 76.12 120.383 76.392C120.511 76.648 120.559 76.92 120.527 77.208C120.495 77.48 120.391 77.728 120.215 77.952C120.055 78.16 119.847 78.304 119.591 78.384C119.335 78.448 119.047 78.4 118.727 78.24C118.423 78.064 118.103 77.936 117.767 77.856C117.447 77.776 117.143 77.736 116.855 77.736C116.375 77.736 115.951 77.816 115.583 77.976C115.215 78.12 114.903 78.336 114.647 78.624C114.407 78.896 114.215 79.24 114.071 79.656C113.943 80.072 113.879 80.552 113.879 81.096C113.879 82.152 114.135 82.984 114.647 83.592C115.175 84.184 115.911 84.48 116.855 84.48C117.143 84.48 117.447 84.448 117.767 84.384C118.087 84.304 118.407 84.176 118.727 84C119.047 83.84 119.335 83.8 119.591 83.88C119.847 83.96 120.047 84.112 120.191 84.336C120.351 84.544 120.439 84.792 120.455 85.08C120.487 85.352 120.439 85.624 120.311 85.896C120.199 86.152 119.991 86.352 119.687 86.496C119.143 86.768 118.599 86.96 118.055 87.072C117.511 87.2 116.991 87.264 116.495 87.264ZM124.044 87.216C123.452 87.216 122.996 87.056 122.676 86.736C122.372 86.416 122.22 85.96 122.22 85.368V71.712C122.22 71.104 122.372 70.648 122.676 70.344C122.996 70.024 123.452 69.864 124.044 69.864C124.62 69.864 125.06 70.024 125.364 70.344C125.684 70.648 125.844 71.104 125.844 71.712V80.088H125.892L129.372 76.224C129.724 75.824 130.044 75.528 130.332 75.336C130.636 75.128 131.036 75.024 131.532 75.024C132.028 75.024 132.404 75.152 132.66 75.408C132.932 75.664 133.068 75.976 133.068 76.344C133.084 76.696 132.932 77.056 132.612 77.424L128.94 81.528V80.16L133.02 84.864C133.324 85.232 133.452 85.6 133.404 85.968C133.372 86.336 133.212 86.64 132.924 86.88C132.636 87.104 132.268 87.216 131.82 87.216C131.276 87.216 130.836 87.112 130.5 86.904C130.18 86.696 129.852 86.376 129.516 85.944L125.892 81.912H125.844V85.368C125.844 86.6 125.244 87.216 124.044 87.216Z" fill="white"/>
<defs>
<clipPath id="clip0_180_5720">
<rect width="130" height="129" fill="white" transform="translate(16 15)"/>
</clipPath>
</defs>
</svg>
