<svg width="206" height="295" viewBox="0 0 206 295" fill="none" xmlns="http://www.w3.org/2000/svg">
<g clip-path="url(#clip0_513_8975)">
<path fill-rule="evenodd" clip-rule="evenodd" d="M70.0073 217.989C70.0073 195.953 87.2193 178.088 108.439 178.088C129.658 178.088 146.882 195.953 146.882 217.989C146.882 240.025 129.67 257.891 108.439 257.891C87.2068 257.891 70.0073 240.025 70.0073 217.989Z" fill="#D803EB"/>
<path d="M167.629 189.828C167.243 188.172 167.019 186.329 167.032 184.35C167.057 177.353 169.844 171.601 173.267 171.502C176.142 171.415 178.531 175.336 179.228 180.727C179.415 180.466 179.614 180.204 179.825 179.918C183.771 174.788 190.08 170.941 193.914 171.352C197.597 171.726 197.66 175.859 194.2 180.702C197.859 179.731 201.356 179.656 203.434 180.715C206.882 182.47 205.189 186.616 199.663 190.002C198.294 190.836 196.776 191.596 195.208 192.231C198.556 192.853 201.393 194.11 202.75 195.754C205.214 198.729 202.003 201.879 195.594 202.775C193.441 203.074 191.089 203.124 188.811 202.962C188.463 203.311 188.089 203.634 187.691 203.946C181.842 208.602 173.565 207.955 169.197 202.489C166.297 198.854 165.874 193.998 167.629 189.79V189.828Z" fill="#D803EB"/>
<path d="M151.525 195.58C152.147 195.344 152.782 195.207 153.416 195.12C156.192 194.323 164.53 193.289 169.471 192.53C173.665 192.082 176.017 193.538 177.336 197.037C178.232 199.39 177.809 201.93 176.44 203.822C174.312 206.835 160.124 211.267 155.831 211.267C151.923 212.001 147.978 209.947 146.559 206.2C144.966 201.979 147.194 197.236 151.525 195.593V195.58Z" fill="#D803EB"/>
<path d="M126.621 204.707C125.364 201.395 127.007 197.561 130.367 196.428C133.23 195.469 145.464 194.834 153.677 194.697C158.618 194.859 161.282 197.15 162.352 199.988C163.982 204.321 161.717 209.176 157.299 210.857C157.249 210.882 154.735 211.579 152.234 211.741C147.617 212.052 136.055 211.193 130.43 208.429C128.737 207.807 127.306 206.512 126.621 204.694V204.707Z" fill="#D803EB"/>
<path d="M157.61 191.198C157.61 191.198 156.017 199.677 158.145 206.038C160.261 212.4 162.912 217.168 162.912 217.168L150.193 217.704L148.077 252.688L122.116 239.441L120.137 187.8C120.137 187.8 132.719 185.372 136.428 189.082C140.137 192.792 142.788 195.444 142.788 195.444L157.623 191.198H157.61Z" fill="#331594"/>
<path d="M87.3065 235.333C89.6711 227.789 85.1908 219.671 77.3004 217.219C69.4101 214.754 61.109 218.887 58.7444 226.432C56.3798 233.976 60.8601 242.093 68.7505 244.558C76.6408 247.011 84.9419 242.89 87.3065 235.346V235.333Z" fill="#E874EA"/>
<path fill-rule="evenodd" clip-rule="evenodd" d="M117.586 281.161C112.695 277.052 111.737 275.172 112.583 270.728C113.429 266.271 121.195 260.743 140.933 258.477C167.243 255.464 165.388 268.773 164.107 274.463C161.754 284.958 156.851 287.498 149.073 288.817C141.282 290.137 122.477 285.269 117.586 281.173V281.161Z" fill="#D803EB"/>
<path fill-rule="evenodd" clip-rule="evenodd" d="M106.335 253.46C106.335 265.461 112.085 279.916 119.167 279.916C126.248 279.916 131.998 265.461 131.998 253.46C131.998 241.458 126.248 236.479 119.167 236.479C112.085 236.479 106.335 241.471 106.335 253.46Z" fill="#D803EB"/>
<path fill-rule="evenodd" clip-rule="evenodd" d="M56.3052 255.774C57.5249 249.512 58.6947 247.744 63.0008 246.337C67.3069 244.918 75.9067 249.026 87.456 265.198C102.851 286.749 90.306 291.579 84.7304 293.223C74.4132 296.26 69.8084 293.21 64.8925 287.035C59.9642 280.873 55.0856 262.049 56.3052 255.786V255.774Z" fill="#D803EB"/>
<path fill-rule="evenodd" clip-rule="evenodd" d="M75.0603 232.507C64.5688 238.321 54.7246 250.359 58.1595 256.559C61.5944 262.759 77.0267 260.78 87.5056 254.953C97.9846 249.139 99.5652 241.682 96.1178 235.482C92.6829 229.282 85.5393 226.68 75.0478 232.494L75.0603 232.507Z" fill="#D803EB"/>
<path fill-rule="evenodd" clip-rule="evenodd" d="M103.921 192.668C103.921 185.995 109.136 180.592 115.557 180.592C121.979 180.592 127.194 185.995 127.194 192.668C127.194 199.341 121.992 204.744 115.557 204.744C109.123 204.744 103.921 199.341 103.921 192.668Z" fill="#D803EB"/>
<path fill-rule="evenodd" clip-rule="evenodd" d="M97.3252 230.576C97.3252 223.903 102.54 218.5 108.962 218.5C115.383 218.5 120.598 223.903 120.598 230.576C120.598 237.249 115.396 242.652 108.962 242.652C102.527 242.652 97.3252 237.249 97.3252 230.576Z" fill="#D803EB"/>
<path fill-rule="evenodd" clip-rule="evenodd" d="M111.326 270.627C111.326 276.155 115.819 280.65 121.37 280.65C126.92 280.65 131.413 276.168 131.413 270.627C131.413 265.087 126.92 260.605 121.37 260.605C115.819 260.605 111.326 265.087 111.326 270.627Z" fill="#D803EB"/>
<path fill-rule="evenodd" clip-rule="evenodd" d="M68.7007 263.929C63.2123 264.676 58.1595 260.816 57.4128 255.313C56.6661 249.811 60.4992 244.756 65.9876 244.022C71.476 243.287 76.5289 247.134 77.2756 252.637C78.0223 258.127 74.1891 263.182 68.7007 263.929Z" fill="#D803EB"/>
<path d="M85.502 193.265C84.7304 189.804 81.2581 187.501 77.8232 188.41C74.8985 189.182 64.3324 195.382 57.4004 199.777C53.3556 202.628 52.3973 206.002 53.0569 208.977C54.065 213.484 58.6324 216.31 63.2497 215.277C63.2995 215.264 65.7885 214.467 67.9665 213.235C71.9988 210.956 81.1834 203.885 84.3695 198.482C85.4398 197.038 85.9251 195.17 85.502 193.265Z" fill="#D803EB"/>
<path d="M12.5724 225.969C14.464 227.339 17.9363 227.8 21.7072 227.389C17.5505 231.659 16.9905 235.755 20.5747 236.676C24.2959 237.66 31.1159 234.821 35.7954 230.352C36.0443 230.115 36.2808 229.879 36.5172 229.655C36.3803 235.083 38.1476 239.328 41.01 239.677C44.4076 240.087 48.0416 234.821 49.1244 227.924C49.4355 225.982 49.4853 224.114 49.3608 222.421C51.7379 218.525 52.0615 213.669 49.7342 209.635C46.2495 203.572 38.1725 201.668 31.676 205.39C31.2404 205.639 30.8173 205.913 30.419 206.199C28.1913 205.689 25.8516 205.378 23.6861 205.353C17.2145 205.278 13.568 207.892 15.5468 211.217C16.642 213.047 19.2431 214.715 22.4664 215.848C20.8236 216.246 19.1933 216.757 17.7247 217.379C11.751 219.882 9.43612 223.729 12.5848 225.982L12.5724 225.969Z" fill="#D803EB"/>
<path d="M60.1009 198.929C59.4413 199.016 58.8066 199.203 58.2092 199.427C55.3841 200.037 47.5435 203.087 42.8392 204.755C38.9189 206.361 37.5499 208.752 38.0477 212.462C38.3837 214.964 39.9518 216.981 42.0551 218.014C45.3656 219.658 59.9515 216.832 63.7349 214.79C67.5183 213.582 70.0198 209.897 69.4847 205.926C68.8873 201.456 64.6808 198.331 60.0884 198.941L60.1009 198.929Z" fill="#D803EB"/>
<path d="M54.936 196.19C54.936 196.19 62.1792 200 62.9384 207.246C63.6976 214.491 61.0343 221.351 61.0343 221.351L68.2775 216.77V236.602L123.56 252.625C123.56 252.625 133.852 228.983 131.189 212.587C128.525 196.19 120.137 187.799 120.137 187.799C120.137 187.799 84.3071 178.263 77.8231 180.168C71.339 182.072 54.9485 196.19 54.9485 196.19H54.936Z" fill="#331594"/>
<path d="M68.8374 46.594C67.1075 72.9874 76.6158 95.0981 90.0817 95.982C103.548 96.8908 115.881 76.2243 117.611 49.8309C119.341 23.4375 109.832 1.32681 96.3666 0.430435C82.9007 -0.465945 70.5798 20.2006 68.8374 46.594Z" fill="#D803EB"/>
<path d="M76.2675 57.5875C74.5749 83.3833 81.4945 104.847 91.7122 105.519C101.942 106.204 111.6 85.8359 113.292 60.0401C114.997 34.2443 108.078 12.781 97.8602 12.0963C87.6425 11.424 77.9725 31.7793 76.2799 57.5751L76.2675 57.5875Z" fill="#E874EA"/>
<path d="M26.7969 101.785C48.2279 117.783 72.3345 121.779 80.648 110.724C88.9491 99.6559 78.3083 77.7196 56.8774 61.7092C35.4465 45.7113 11.3398 41.7025 3.0263 52.7828C-5.2872 63.8506 5.36603 85.787 26.7845 101.785H26.7969Z" fill="#D803EB"/>
<path d="M32.5843 101.46C49.7962 114.308 69.3106 117.308 76.1804 108.158C83.0502 98.9946 74.6745 81.1791 57.4626 68.3185C40.2631 55.4704 20.7363 52.4701 13.8665 61.6206C6.99664 70.7711 15.3848 88.5991 32.5843 101.447V101.46Z" fill="#E874EA"/>
<path d="M39.3298 115.691C39.3298 115.691 26.7476 111.009 27.1583 105.818C27.9921 95.2979 38.5458 82.9727 37.9982 79.4868C37.4506 76.0133 34.4761 76.7354 38.4462 70.0872C44.2209 60.3889 50.5556 56.3179 57.637 52.2095C67.1701 46.6818 69.5098 37.6557 79.5284 35.6638C89.2233 33.7216 99.6027 40.8553 112.023 39.4236C124.444 37.9919 130.629 37.7678 133.404 41.565C136.18 45.3621 134.176 51.9231 136.64 52.8444C139.092 53.7532 149.135 53.7034 150.952 61.4347C152.769 69.166 151.736 77.084 149.384 77.4699C147.02 77.8559 121.706 74.2455 94.4752 85.7863C67.2323 97.3272 39.3547 115.691 39.3547 115.691H39.3298Z" fill="#331594"/>
<path d="M148.301 81.5159C147.89 80.6818 149.658 76.3119 148.774 73.6477C147.903 70.9835 128.949 59.0317 94.699 73.4112C60.4494 87.7906 39.8897 113.176 40.5368 116.263C41.184 119.351 39.9519 119.5 42.7894 121.728C45.627 123.957 50.0326 130.244 51.4887 129.671C52.9448 129.099 48.7383 126.746 54.0525 118.99C56.1433 115.939 72.26 96.7419 95.5951 86.7448C130.803 71.6557 148.276 81.5159 148.276 81.5159H148.301Z" fill="#5E1EBB"/>
<path d="M99.7393 78.8018C121.382 71.7927 135.296 73.4858 142.253 75.9633C139.44 73.5356 125.551 68.2818 98.4823 77.0091C68.3023 86.7448 47.7551 103.552 47.8297 105.569C47.8795 106.664 47.5933 107.2 47.643 107.685C53.5546 101.684 73.044 87.4544 99.7269 78.8018H99.7393Z" fill="#AC3BFF"/>
<path d="M86.9209 42.2006C86.9209 42.2006 86.9707 44.5163 83.7971 43.844C80.6235 43.1717 79.5159 42.5741 79.5159 42.5741L75.3716 48.2387C75.3716 48.2387 79.827 49.2222 79.7772 52.0234C79.7275 54.8246 77.5993 58.2607 79.1923 60.8005C80.7853 63.3402 83.6602 66.2037 87.7174 65.4442C91.7746 64.6848 95.7197 65.8302 95.7197 65.8302C95.7197 65.8302 96.1056 63.8507 99.0551 62.5061C102.005 61.1491 105.054 59.3065 105.104 56.5053C105.153 53.7041 100.076 48.9484 99.7023 45.811C99.3289 42.6737 100.549 42.0637 100.549 42.0637L94.5623 39.4492C94.5623 39.4492 93.3925 42.3625 91.4012 42.4869C89.4224 42.6239 86.9333 42.2006 86.9333 42.2006H86.9209Z" fill="#FFE700"/>
<path d="M87.4184 42.635C87.4184 42.635 86.8086 45.3117 83.8964 44.6643C80.9966 44.0294 79.9512 43.245 79.9512 43.245L76.8896 48.1751C76.8896 48.1751 80.9717 49.1089 80.9468 51.7109C80.9219 54.3128 78.9929 57.4875 80.4615 59.8654C81.93 62.2309 84.5809 64.9076 88.2896 64.2228C91.9983 63.5381 95.6075 64.6212 95.6075 64.6212C95.6075 64.6212 95.9435 62.7911 98.6317 61.5461C101.32 60.3012 104.095 58.608 104.12 56.006C104.145 53.404 99.478 48.9595 99.1171 46.0462C98.7561 43.1206 99.4033 42.0872 99.4033 42.0872L94.7736 40.5684C94.7736 40.5684 93.33 42.8093 91.5129 42.9214C89.6959 43.0334 87.4184 42.635 87.4184 42.635Z" fill="#FFD200"/>
<path d="M97.574 58.1607L92.011 56.9656L87.4062 60.078L87.3564 55.3347L82.5151 52.8821L88.0533 51.1391L89.6712 46.5078L93.1435 50.1805L98.9804 49.7696L95.5828 53.7784L97.574 58.1607Z" fill="#FFE700"/>
<path d="M96.2421 56.6672L92.272 55.8207L88.9989 58.0367L88.9615 54.6628L85.5142 52.9074L89.4593 51.6625L90.6168 48.3633L93.0809 50.9777L97.2501 50.6914L94.8233 53.5424L96.2421 56.6672Z" fill="#FFD200"/>
<path d="M135.346 201.856C135.346 201.856 134.997 203.4 133.006 202.429C131.015 201.457 130.368 200.885 130.368 200.885L126.696 203.972C126.696 203.972 129.496 205.354 129.011 207.209C128.526 209.064 126.547 210.994 127.194 212.936C127.841 214.878 129.285 217.244 132.098 217.406C134.91 217.567 137.35 218.962 137.35 218.962C137.35 218.962 137.922 217.717 140.1 217.293C142.278 216.87 144.605 216.148 145.091 214.293C145.576 212.438 142.975 208.454 143.249 206.313C143.51 204.171 144.418 203.972 144.418 203.972L140.872 201.258C140.872 201.258 139.615 203.001 138.283 202.765C136.951 202.528 135.358 201.843 135.358 201.843L135.346 201.856Z" fill="#FFE700"/>
<path d="M135.594 202.229C135.594 202.229 134.748 203.897 132.931 203.001C131.102 202.105 130.542 201.42 130.542 201.42L127.704 204.196C127.704 204.196 130.255 205.479 129.82 207.209C129.384 208.94 127.58 210.732 128.177 212.538C128.774 214.343 130.094 216.546 132.657 216.696C135.234 216.845 137.449 218.152 137.449 218.152C137.449 218.152 137.972 216.995 139.95 216.609C141.942 216.223 144.057 215.55 144.493 213.82C144.941 212.089 142.551 208.392 142.788 206.387C143.024 204.395 143.622 203.81 143.622 203.81L140.797 202.042C140.797 202.042 139.477 203.3 138.258 203.076C137.038 202.852 135.594 202.217 135.594 202.217V202.229Z" fill="#FFD200"/>
<path d="M139.814 214.18L136.316 212.486L132.745 213.806L133.491 210.644L130.679 208.229L134.636 207.98L136.466 205.166L138.171 208.166L142.116 208.839L139.204 210.955L139.814 214.18Z" fill="#FFE700"/>
<path d="M139.179 212.985L136.677 211.765L134.138 212.711L134.674 210.458L132.67 208.74L135.483 208.553L136.789 206.549L138.009 208.69L140.809 209.176L138.743 210.682L139.179 212.985Z" fill="#FFD200"/>
<path d="M47.2696 108.271C48.0163 110.163 47.2323 112.118 45.5148 112.628C43.7974 113.151 41.7937 112.043 41.0345 110.151C40.2878 108.259 41.0718 106.304 42.7893 105.794C44.5068 105.271 46.5105 106.379 47.2696 108.271Z" fill="#FFD200"/>
<path d="M167.791 134.403C165.003 101.71 136.179 77.4459 103.411 80.2222C70.642 82.9985 46.3362 111.77 49.124 144.475C51.9118 177.181 80.7352 201.433 113.504 198.644C146.272 195.855 170.578 167.096 167.791 134.391V134.403Z" fill="#D803EB"/>
<path d="M112.67 143.08C128.575 143.105 142.526 134.789 150.454 122.277C151.238 125.402 151.711 128.651 151.699 132.025C151.624 153.538 134.113 170.943 112.57 170.905C91.04 170.868 73.6414 153.401 73.7161 131.888C73.7285 128.514 74.2139 125.265 75.0353 122.152C82.8758 134.689 96.7649 143.068 112.682 143.093L112.67 143.08Z" fill="#EBEBEB"/>
<path d="M145.028 67.0364C145.563 68.381 145.352 69.6633 144.568 69.8998C143.783 70.1364 142.713 69.24 142.178 67.8954C141.643 66.5509 141.854 65.2685 142.639 65.032C143.423 64.7955 144.493 65.6918 145.028 67.0364Z" fill="#FFD200"/>
<path d="M148.463 69.5138C148.463 69.5138 153.205 79.1872 150.778 81.976C148.351 84.7523 139.788 77.1828 117.735 79.8844C80.1005 84.4784 88.638 99.5176 79.6649 96.4301C70.6918 93.3426 64.5065 85.3872 65.7261 83.9928C66.9457 82.5985 90.8408 65.7914 113.765 63.5255C136.702 61.2597 148.463 69.5387 148.463 69.5387V69.5138Z" fill="#331559"/>
<path d="M150.355 83.9804C148.538 74.0082 138.955 67.3849 128.961 69.2026C118.968 71.0202 112.695 80.3949 114.512 90.3671C116.329 100.352 125.551 107.162 135.545 105.344C145.539 103.526 152.172 93.9651 150.355 83.9804Z" fill="#EBEBEB"/>
<path d="M119.652 88.1144C120.697 82.3875 126.211 78.5903 131.948 79.6361C133.242 79.8727 134.45 80.3333 135.507 80.9682C133.479 81.2546 131.774 82.7859 131.4 84.9023C130.928 87.5168 132.67 90.0441 135.296 90.5172C137.424 90.9031 139.477 89.8449 140.436 88.0272C140.685 89.2722 140.697 90.5919 140.448 91.9115C139.403 97.6384 133.902 101.436 128.152 100.402C122.415 99.3565 118.594 93.8786 119.64 88.1393L119.652 88.1144Z" fill="#00C100"/>
<path d="M112.396 90.2426C110.629 80.5194 101.295 74.0829 91.5629 75.8508C81.8306 77.6186 75.359 86.931 77.1387 96.6418C78.906 106.365 88.24 112.802 97.9847 111.034C107.717 109.266 114.176 99.9534 112.409 90.2426H112.396Z" fill="#EBEBEB"/>
<path d="M83.6851 93.2188C84.7305 87.4919 90.2438 83.6948 95.9811 84.7281C97.2755 84.9647 98.4702 85.4253 99.5405 86.0602C97.5244 86.3466 95.8194 87.8779 95.4336 89.9819C94.9482 92.6088 96.703 95.1236 99.329 95.6092C101.457 95.9951 103.511 94.9369 104.481 93.1192C104.718 94.3642 104.73 95.6714 104.481 96.9911C103.436 102.718 97.9475 106.528 92.1978 105.482C86.4605 104.436 82.6522 98.9457 83.6851 93.2064V93.2188Z" fill="#00C100"/>
<path d="M165.974 103.391C166.496 97.3776 161.829 92.0616 155.544 91.5262C149.26 90.9785 143.746 95.4106 143.224 101.424C142.701 107.437 147.368 112.753 153.653 113.288C159.938 113.836 165.451 109.392 165.974 103.391Z" fill="#E874EA"/>
<path d="M128.961 69.2026C130.019 69.0159 131.077 68.9163 132.122 68.9163L133.541 63.3388C133.864 62.0689 135.159 61.3095 136.428 61.6332L136.64 61.683C137.909 62.0067 138.668 63.289 138.357 64.5589L137.088 69.5512C137.81 69.7504 138.507 69.9869 139.191 70.2733L142.439 65.3307C143.161 64.2352 144.63 63.9364 145.725 64.6585L145.912 64.783C147.007 65.4926 147.305 66.9617 146.584 68.0572L143.497 72.7508C143.933 73.0869 144.356 73.448 144.767 73.8215L149.62 70.4102C150.691 69.6632 152.172 69.9122 152.931 70.9829L153.055 71.1697C153.802 72.2403 153.553 73.7094 152.483 74.4688L147.915 77.6809C147.915 77.6809 147.828 77.5688 147.791 77.519C143.671 73.4853 137.71 71.4311 131.599 72.5391C121.606 74.3568 113.915 84.0427 115.732 94.0149C116.155 96.3679 114.835 94.4133 114.139 90.5788C112.322 80.6065 118.955 71.0452 128.949 69.2275L128.961 69.2026Z" fill="#910E51"/>
<path d="M69.0241 92.8087L76.0059 92.4726C76.0308 91.8127 76.0931 91.1654 76.1926 90.518L70.2811 88.7999C69.0241 88.4264 68.3023 87.1192 68.6756 85.8618L68.7379 85.6377C69.0988 84.3803 70.418 83.6582 71.675 84.0192L77.6238 85.7497C80.4489 79.5249 86.6467 75.1177 93.9522 74.9434C97.86 74.8562 100.05 75.7651 97.6609 75.8149C87.493 76.039 79.5404 85.5132 79.7769 95.6473C79.9138 101.885 83.162 107.325 88.0033 110.537C84.2448 109.155 81.0712 106.566 78.9182 103.254L71.7372 106.491C70.5424 107.026 69.1361 106.491 68.601 105.308L68.5138 105.109C67.9787 103.914 68.5138 102.519 69.6961 101.984L76.8149 98.7721C76.678 98.324 76.5535 97.8633 76.454 97.4027L69.2854 97.7513C67.9787 97.8135 66.8586 96.8051 66.7964 95.4979V95.2738C66.7217 93.9665 67.7298 92.8585 69.0365 92.7963L69.0241 92.8087Z" fill="#910E51"/>
</g>
<defs>
<clipPath id="clip0_513_8975">
<rect width="205" height="294" fill="white" transform="translate(0.213867 0.40625)"/>
</clipPath>
</defs>
</svg>
