<svg width="116" height="80" viewBox="0 0 116 80" fill="none" xmlns="http://www.w3.org/2000/svg">
<g style="mix-blend-mode:multiply" opacity="0.2">
<path opacity="0.01" d="M57.5599 79.1492C88.8634 79.1492 114.24 76.0869 114.24 72.3092C114.24 68.5316 88.8634 65.4692 57.5599 65.4692C26.2564 65.4692 0.879883 68.5316 0.879883 72.3092C0.879883 76.0869 26.2564 79.1492 57.5599 79.1492Z" fill="#DDDDE3"/>
<path opacity="0.01" d="M57.5601 79.1195C88.7421 79.1195 114.02 76.0706 114.02 72.3095C114.02 68.5485 88.7421 65.4995 57.5601 65.4995C26.3781 65.4995 1.1001 68.5485 1.1001 72.3095C1.1001 76.0706 26.3781 79.1195 57.5601 79.1195Z" fill="#DCDCE2"/>
<path opacity="0.02" d="M57.5598 79.0995C88.6203 79.0995 113.8 76.0595 113.8 72.3095C113.8 68.5595 88.6203 65.5195 57.5598 65.5195C26.4993 65.5195 1.31982 68.5595 1.31982 72.3095C1.31982 76.0595 26.4993 79.0995 57.5598 79.0995Z" fill="#DBDBE1"/>
<path opacity="0.02" d="M57.56 79.0693C88.499 79.0693 113.58 76.0428 113.58 72.3093C113.58 68.5759 88.499 65.5493 57.56 65.5493C26.621 65.5493 1.54004 68.5759 1.54004 72.3093C1.54004 76.0428 26.621 79.0693 57.56 79.0693Z" fill="#DADAE0"/>
<path opacity="0.02" d="M57.5598 79.0396C88.3773 79.0396 113.36 76.0265 113.36 72.3096C113.36 68.5927 88.3773 65.5796 57.5598 65.5796C26.7423 65.5796 1.75977 68.5927 1.75977 72.3096C1.75977 76.0265 26.7423 79.0396 57.5598 79.0396Z" fill="#D9D9DF"/>
<path opacity="0.02" d="M57.56 79.0094C88.256 79.0094 113.14 76.0097 113.14 72.3094C113.14 68.6091 88.256 65.6094 57.56 65.6094C26.864 65.6094 1.97998 68.6091 1.97998 72.3094C1.97998 76.0097 26.864 79.0094 57.56 79.0094Z" fill="#D8D8DE"/>
<path opacity="0.03" d="M57.5602 78.9894C88.1347 78.9894 112.92 75.9987 112.92 72.3094C112.92 68.6201 88.1347 65.6294 57.5602 65.6294C26.9857 65.6294 2.2002 68.6201 2.2002 72.3094C2.2002 75.9987 26.9857 78.9894 57.5602 78.9894Z" fill="#D7D7DD"/>
<path opacity="0.03" d="M57.5599 78.9592C88.0129 78.9592 112.7 75.9819 112.7 72.3092C112.7 68.6365 88.0129 65.6592 57.5599 65.6592C27.1069 65.6592 2.41992 68.6365 2.41992 72.3092C2.41992 75.9819 27.1069 78.9592 57.5599 78.9592Z" fill="#D6D6DC"/>
<path opacity="0.03" d="M57.5601 78.9295C87.8916 78.9295 112.48 75.9656 112.48 72.3095C112.48 68.6533 87.8916 65.6895 57.5601 65.6895C27.2287 65.6895 2.64014 68.6533 2.64014 72.3095C2.64014 75.9656 27.2287 78.9295 57.5601 78.9295Z" fill="#D5D5DB"/>
<path opacity="0.03" d="M57.5599 78.8992C87.7698 78.8992 112.26 75.9488 112.26 72.3092C112.26 68.6697 87.7698 65.7192 57.5599 65.7192C27.3499 65.7192 2.85986 68.6697 2.85986 72.3092C2.85986 75.9488 27.3499 78.8992 57.5599 78.8992Z" fill="#D4D4DA"/>
<path opacity="0.04" d="M57.5601 78.8793C87.6486 78.8793 112.04 75.9378 112.04 72.3093C112.04 68.6807 87.6486 65.7393 57.5601 65.7393C27.4716 65.7393 3.08008 68.6807 3.08008 72.3093C3.08008 75.9378 27.4716 78.8793 57.5601 78.8793Z" fill="#D3D3D9"/>
<path opacity="0.04" d="M57.5598 78.8495C87.5268 78.8495 111.82 75.9215 111.82 72.3095C111.82 68.6976 87.5268 65.7695 57.5598 65.7695C27.5928 65.7695 3.2998 68.6976 3.2998 72.3095C3.2998 75.9215 27.5928 78.8495 57.5598 78.8495Z" fill="#D2D2D8"/>
<path opacity="0.04" d="M57.56 78.8193C87.4055 78.8193 111.6 75.9047 111.6 72.3093C111.6 68.7139 87.4055 65.7993 57.56 65.7993C27.7146 65.7993 3.52002 68.7139 3.52002 72.3093C3.52002 75.9047 27.7146 78.8193 57.56 78.8193Z" fill="#D1D1D7"/>
<path opacity="0.04" d="M57.5602 78.7993C87.2842 78.7993 111.38 75.8937 111.38 72.3093C111.38 68.725 87.2842 65.8193 57.5602 65.8193C27.8363 65.8193 3.74023 68.725 3.74023 72.3093C3.74023 75.8937 27.8363 78.7993 57.5602 78.7993Z" fill="#D0D0D6"/>
<path opacity="0.05" d="M57.56 78.7696C87.1624 78.7696 111.16 75.8774 111.16 72.3096C111.16 68.7418 87.1624 65.8496 57.56 65.8496C27.9575 65.8496 3.95996 68.7418 3.95996 72.3096C3.95996 75.8774 27.9575 78.7696 57.56 78.7696Z" fill="#CFCFD5"/>
<path opacity="0.05" d="M57.5599 78.7394C87.0354 78.7394 110.93 75.8606 110.93 72.3094C110.93 68.7582 87.0354 65.8794 57.5599 65.8794C28.0845 65.8794 4.18994 68.7582 4.18994 72.3094C4.18994 75.8606 28.0845 78.7394 57.5599 78.7394Z" fill="#CECED4"/>
<path opacity="0.05" d="M57.5602 78.7092C86.9141 78.7092 110.71 75.8438 110.71 72.3092C110.71 68.7746 86.9141 65.9092 57.5602 65.9092C28.2062 65.9092 4.41016 68.7746 4.41016 72.3092C4.41016 75.8438 28.2062 78.7092 57.5602 78.7092Z" fill="#CECED3"/>
<path opacity="0.05" d="M57.5599 78.6892C86.7923 78.6892 110.49 75.8328 110.49 72.3092C110.49 68.7856 86.7923 65.9292 57.5599 65.9292C28.3275 65.9292 4.62988 68.7856 4.62988 72.3092C4.62988 75.8328 28.3275 78.6892 57.5599 78.6892Z" fill="#CDCDD2"/>
<path opacity="0.06" d="M57.5601 78.6595C86.671 78.6595 110.27 75.8165 110.27 72.3095C110.27 68.8025 86.671 65.9595 57.5601 65.9595C28.4492 65.9595 4.8501 68.8025 4.8501 72.3095C4.8501 75.8165 28.4492 78.6595 57.5601 78.6595Z" fill="#CCCCD1"/>
<path opacity="0.06" d="M57.5598 78.6293C86.5493 78.6293 110.05 75.7997 110.05 72.3093C110.05 68.8188 86.5493 65.9893 57.5598 65.9893C28.5704 65.9893 5.06982 68.8188 5.06982 72.3093C5.06982 75.7997 28.5704 78.6293 57.5598 78.6293Z" fill="#CBCBD0"/>
<path opacity="0.06" d="M57.56 78.5995C86.428 78.5995 109.83 75.7834 109.83 72.3095C109.83 68.8357 86.428 66.0195 57.56 66.0195C28.6921 66.0195 5.29004 68.8357 5.29004 72.3095C5.29004 75.7834 28.6921 78.5995 57.56 78.5995Z" fill="#CACACF"/>
<path opacity="0.06" d="M57.5598 78.5796C86.3062 78.5796 109.61 75.7724 109.61 72.3095C109.61 68.8467 86.3062 66.0396 57.5598 66.0396C28.8133 66.0396 5.50977 68.8467 5.50977 72.3095C5.50977 75.7724 28.8133 78.5796 57.5598 78.5796Z" fill="#C9C9CE"/>
<path opacity="0.07" d="M57.56 78.5493C86.1849 78.5493 109.39 75.7556 109.39 72.3093C109.39 68.8631 86.1849 66.0693 57.56 66.0693C28.9351 66.0693 5.72998 68.8631 5.72998 72.3093C5.72998 75.7556 28.9351 78.5493 57.56 78.5493Z" fill="#C8C8CD"/>
<path opacity="0.07" d="M57.5602 78.5196C86.0636 78.5196 109.17 75.7393 109.17 72.3096C109.17 68.8799 86.0636 66.0996 57.5602 66.0996C29.0568 66.0996 5.9502 68.8799 5.9502 72.3096C5.9502 75.7393 29.0568 78.5196 57.5602 78.5196Z" fill="#C7C7CC"/>
<path opacity="0.07" d="M57.5599 78.4991C85.9418 78.4991 108.95 75.7278 108.95 72.3091C108.95 68.8905 85.9418 66.1191 57.5599 66.1191C29.178 66.1191 6.16992 68.8905 6.16992 72.3091C6.16992 75.7278 29.178 78.4991 57.5599 78.4991Z" fill="#C6C6CB"/>
<path opacity="0.08" d="M57.5601 78.4694C85.8205 78.4694 108.73 75.7115 108.73 72.3094C108.73 68.9073 85.8205 66.1494 57.5601 66.1494C29.2997 66.1494 6.39014 68.9073 6.39014 72.3094C6.39014 75.7115 29.2997 78.4694 57.5601 78.4694Z" fill="#C5C5CA"/>
<path opacity="0.08" d="M57.5599 78.4392C85.6988 78.4392 108.51 75.6947 108.51 72.3092C108.51 68.9237 85.6988 66.1792 57.5599 66.1792C29.421 66.1792 6.60986 68.9237 6.60986 72.3092C6.60986 75.6947 29.421 78.4392 57.5599 78.4392Z" fill="#C4C4C9"/>
<path opacity="0.08" d="M57.5601 78.4095C85.5775 78.4095 108.29 75.6784 108.29 72.3095C108.29 68.9405 85.5775 66.2095 57.5601 66.2095C29.5427 66.2095 6.83008 68.9405 6.83008 72.3095C6.83008 75.6784 29.5427 78.4095 57.5601 78.4095Z" fill="#C3C3C8"/>
<path opacity="0.08" d="M57.5598 78.3895C85.4557 78.3895 108.07 75.6674 108.07 72.3095C108.07 68.9516 85.4557 66.2295 57.5598 66.2295C29.6639 66.2295 7.0498 68.9516 7.0498 72.3095C7.0498 75.6674 29.6639 78.3895 57.5598 78.3895Z" fill="#C2C2C7"/>
<path opacity="0.09" d="M57.56 78.3593C85.3344 78.3593 107.85 75.6506 107.85 72.3093C107.85 68.968 85.3344 66.2593 57.56 66.2593C29.7856 66.2593 7.27002 68.968 7.27002 72.3093C7.27002 75.6506 29.7856 78.3593 57.56 78.3593Z" fill="#C1C1C6"/>
<path opacity="0.09" d="M57.5602 78.3296C85.2131 78.3296 107.63 75.6343 107.63 72.3095C107.63 68.9848 85.2131 66.2896 57.5602 66.2896C29.9073 66.2896 7.49023 68.9848 7.49023 72.3095C7.49023 75.6343 29.9073 78.3296 57.5602 78.3296Z" fill="#C0C0C5"/>
<path opacity="0.09" d="M57.56 78.2993C85.0914 78.2993 107.41 75.6175 107.41 72.3093C107.41 69.0011 85.0914 66.3193 57.56 66.3193C30.0286 66.3193 7.70996 69.0011 7.70996 72.3093C7.70996 75.6175 30.0286 78.2993 57.56 78.2993Z" fill="#BFBFC4"/>
<path opacity="0.09" d="M57.5602 78.2794C84.9701 78.2794 107.19 75.6065 107.19 72.3094C107.19 69.0122 84.9701 66.3394 57.5602 66.3394C30.1503 66.3394 7.93018 69.0122 7.93018 72.3094C7.93018 75.6065 30.1503 78.2794 57.5602 78.2794Z" fill="#BEBEC3"/>
<path opacity="0.1" d="M57.5599 78.2491C84.8483 78.2491 106.97 75.5897 106.97 72.3091C106.97 69.0286 84.8483 66.3691 57.5599 66.3691C30.2715 66.3691 8.1499 69.0286 8.1499 72.3091C8.1499 75.5897 30.2715 78.2491 57.5599 78.2491Z" fill="#BDBDC2"/>
<path opacity="0.1" d="M57.5601 78.2194C84.727 78.2194 106.75 75.5734 106.75 72.3094C106.75 69.0454 84.727 66.3994 57.5601 66.3994C30.3932 66.3994 8.37012 69.0454 8.37012 72.3094C8.37012 75.5734 30.3932 78.2194 57.5601 78.2194Z" fill="#BCBCC1"/>
<path opacity="0.1" d="M57.5598 78.1892C84.6052 78.1892 106.53 75.5566 106.53 72.3092C106.53 69.0618 84.6052 66.4292 57.5598 66.4292C30.5145 66.4292 8.58984 69.0618 8.58984 72.3092C8.58984 75.5566 30.5145 78.1892 57.5598 78.1892Z" fill="#BBBBC0"/>
<path opacity="0.1" d="M57.5601 78.1692C84.4839 78.1692 106.31 75.5456 106.31 72.3092C106.31 69.0728 84.4839 66.4492 57.5601 66.4492C30.6362 66.4492 8.81006 69.0728 8.81006 72.3092C8.81006 75.5456 30.6362 78.1692 57.5601 78.1692Z" fill="#BABABF"/>
<path opacity="0.11" d="M57.5598 78.1395C84.3622 78.1395 106.09 75.5293 106.09 72.3095C106.09 69.0897 84.3622 66.4795 57.5598 66.4795C30.7574 66.4795 9.02979 69.0897 9.02979 72.3095C9.02979 75.5293 30.7574 78.1395 57.5598 78.1395Z" fill="#B9B9BE"/>
<path opacity="0.11" d="M57.56 78.1093C84.2409 78.1093 105.87 75.5125 105.87 72.3093C105.87 69.106 84.2409 66.5093 57.56 66.5093C30.8791 66.5093 9.25 69.106 9.25 72.3093C9.25 75.5125 30.8791 78.1093 57.56 78.1093Z" fill="#B8B8BD"/>
<path opacity="0.11" d="M57.5602 78.0893C84.1196 78.0893 105.65 75.5015 105.65 72.3093C105.65 69.1171 84.1196 66.5293 57.5602 66.5293C31.0008 66.5293 9.47021 69.1171 9.47021 72.3093C9.47021 75.5015 31.0008 78.0893 57.5602 78.0893Z" fill="#B7B7BC"/>
<path opacity="0.11" d="M57.5599 78.0596C83.9978 78.0596 105.43 75.4852 105.43 72.3096C105.43 69.1339 83.9978 66.5596 57.5599 66.5596C31.1221 66.5596 9.68994 69.1339 9.68994 72.3096C9.68994 75.4852 31.1221 78.0596 57.5599 78.0596Z" fill="#B6B6BB"/>
<path opacity="0.12" d="M57.5602 78.0294C83.8765 78.0294 105.21 75.4684 105.21 72.3094C105.21 69.1503 83.8765 66.5894 57.5602 66.5894C31.2438 66.5894 9.91016 69.1503 9.91016 72.3094C9.91016 75.4684 31.2438 78.0294 57.5602 78.0294Z" fill="#B5B5BA"/>
<path opacity="0.12" d="M57.5599 77.9991C83.7547 77.9991 104.99 75.4516 104.99 72.3091C104.99 69.1666 83.7547 66.6191 57.5599 66.6191C31.365 66.6191 10.1299 69.1666 10.1299 72.3091C10.1299 75.4516 31.365 77.9991 57.5599 77.9991Z" fill="#B4B4B9"/>
<path opacity="0.12" d="M57.5601 77.9792C83.6335 77.9792 104.77 75.4406 104.77 72.3092C104.77 69.1777 83.6335 66.6392 57.5601 66.6392C31.4867 66.6392 10.3501 69.1777 10.3501 72.3092C10.3501 75.4406 31.4867 77.9792 57.5601 77.9792Z" fill="#B3B3B8"/>
<path opacity="0.12" d="M57.5598 77.9494C83.5117 77.9494 104.55 75.4243 104.55 72.3094C104.55 69.1945 83.5117 66.6694 57.5598 66.6694C31.608 66.6694 10.5698 69.1945 10.5698 72.3094C10.5698 75.4243 31.608 77.9494 57.5598 77.9494Z" fill="#B2B2B7"/>
<path opacity="0.13" d="M57.56 77.9192C83.3904 77.9192 104.33 75.4075 104.33 72.3092C104.33 69.2109 83.3904 66.6992 57.56 66.6992C31.7297 66.6992 10.79 69.2109 10.79 72.3092C10.79 75.4075 31.7297 77.9192 57.56 77.9192Z" fill="#B1B1B6"/>
<path opacity="0.13" d="M57.5598 77.8895C83.2686 77.8895 104.11 75.3912 104.11 72.3095C104.11 69.2277 83.2686 66.7295 57.5598 66.7295C31.8509 66.7295 11.0098 69.2277 11.0098 72.3095C11.0098 75.3912 31.8509 77.8895 57.5598 77.8895Z" fill="#B0B0B5"/>
<path opacity="0.13" d="M57.56 77.8695C83.1473 77.8695 103.89 75.3802 103.89 72.3095C103.89 69.2388 83.1473 66.7495 57.56 66.7495C31.9726 66.7495 11.23 69.2388 11.23 72.3095C11.23 75.3802 31.9726 77.8695 57.56 77.8695Z" fill="#AFAFB4"/>
<path opacity="0.14" d="M57.5602 77.8393C83.026 77.8393 103.67 75.3634 103.67 72.3093C103.67 69.2552 83.026 66.7793 57.5602 66.7793C32.0943 66.7793 11.4502 69.2552 11.4502 72.3093C11.4502 75.3634 32.0943 77.8393 57.5602 77.8393Z" fill="#AEAEB3"/>
<path opacity="0.14" d="M57.5599 77.8096C82.9043 77.8096 103.45 75.3471 103.45 72.3096C103.45 69.272 82.9043 66.8096 57.5599 66.8096C32.2156 66.8096 11.6699 69.272 11.6699 72.3096C11.6699 75.3471 32.2156 77.8096 57.5599 77.8096Z" fill="#ADADB2"/>
<path opacity="0.14" d="M57.5601 77.7896C82.783 77.7896 103.23 75.3361 103.23 72.3096C103.23 69.2831 82.783 66.8296 57.5601 66.8296C32.3373 66.8296 11.8901 69.2831 11.8901 72.3096C11.8901 75.3361 32.3373 77.7896 57.5601 77.7896Z" fill="#ACACB1"/>
<path opacity="0.14" d="M57.5601 77.7594C82.6559 77.7594 103 75.3193 103 72.3094C103 69.2994 82.6559 66.8594 57.5601 66.8594C32.4643 66.8594 12.1201 69.2994 12.1201 72.3094C12.1201 75.3193 32.4643 77.7594 57.5601 77.7594Z" fill="#ABABB0"/>
<path opacity="0.15" d="M57.5598 77.7292C82.5342 77.7292 102.78 75.3025 102.78 72.3092C102.78 69.3158 82.5342 66.8892 57.5598 66.8892C32.5855 66.8892 12.3398 69.3158 12.3398 72.3092C12.3398 75.3025 32.5855 77.7292 57.5598 77.7292Z" fill="#AAAAAF"/>
<path opacity="0.15" d="M57.5601 77.6994C82.4129 77.6994 102.56 75.2862 102.56 72.3094C102.56 69.3326 82.4129 66.9194 57.5601 66.9194C32.7072 66.9194 12.5601 69.3326 12.5601 72.3094C12.5601 75.2862 32.7072 77.6994 57.5601 77.6994Z" fill="#A9A9AE"/>
<path opacity="0.15" d="M57.5598 77.6795C82.2911 77.6795 102.34 75.2752 102.34 72.3095C102.34 69.3437 82.2911 66.9395 57.5598 66.9395C32.8285 66.9395 12.7798 69.3437 12.7798 72.3095C12.7798 75.2752 32.8285 77.6795 57.5598 77.6795Z" fill="#A9A9AD"/>
<path opacity="0.15" d="M57.56 77.6492C82.1698 77.6492 102.12 75.2584 102.12 72.3092C102.12 69.36 82.1698 66.9692 57.56 66.9692C32.9502 66.9692 13 69.36 13 72.3092C13 75.2584 32.9502 77.6492 57.56 77.6492Z" fill="#A8A8AC"/>
<path opacity="0.16" d="M57.5602 77.6195C82.0485 77.6195 101.9 75.2421 101.9 72.3095C101.9 69.3769 82.0485 66.9995 57.5602 66.9995C33.0719 66.9995 13.2202 69.3769 13.2202 72.3095C13.2202 75.2421 33.0719 77.6195 57.5602 77.6195Z" fill="#A7A7AB"/>
<path opacity="0.16" d="M57.5599 77.5893C81.9267 77.5893 101.68 75.2254 101.68 72.3093C101.68 69.3932 81.9267 67.0293 57.5599 67.0293C33.1931 67.0293 13.4399 69.3932 13.4399 72.3093C13.4399 75.2254 33.1931 77.5893 57.5599 77.5893Z" fill="#A6A6AA"/>
<path opacity="0.16" d="M57.5602 77.5693C81.8055 77.5693 101.46 75.2143 101.46 72.3093C101.46 69.4043 81.8055 67.0493 57.5602 67.0493C33.3149 67.0493 13.6602 69.4043 13.6602 72.3093C13.6602 75.2143 33.3149 77.5693 57.5602 77.5693Z" fill="#A5A5A9"/>
<path opacity="0.16" d="M57.5599 77.5396C81.6837 77.5396 101.24 75.198 101.24 72.3096C101.24 69.4211 81.6837 67.0796 57.5599 67.0796C33.4361 67.0796 13.8799 69.4211 13.8799 72.3096C13.8799 75.198 33.4361 77.5396 57.5599 77.5396Z" fill="#A4A4A8"/>
<path opacity="0.17" d="M57.5601 77.5094C81.5624 77.5094 101.02 75.1813 101.02 72.3094C101.02 69.4375 81.5624 67.1094 57.5601 67.1094C33.5578 67.1094 14.1001 69.4375 14.1001 72.3094C14.1001 75.1813 33.5578 77.5094 57.5601 77.5094Z" fill="#A3A3A7"/>
<path opacity="0.17" d="M57.5598 77.4792C81.4406 77.4792 100.8 75.1645 100.8 72.3092C100.8 69.4538 81.4406 67.1392 57.5598 67.1392C33.679 67.1392 14.3198 69.4538 14.3198 72.3092C14.3198 75.1645 33.679 77.4792 57.5598 77.4792Z" fill="#A2A2A6"/>
<path opacity="0.17" d="M57.56 77.4592C81.3193 77.4592 100.58 75.1534 100.58 72.3092C100.58 69.4649 81.3193 67.1592 57.56 67.1592C33.8007 67.1592 14.54 69.4649 14.54 72.3092C14.54 75.1534 33.8007 77.4592 57.56 77.4592Z" fill="#A1A1A5"/>
<path opacity="0.17" d="M57.5598 77.4295C81.1976 77.4295 100.36 75.1372 100.36 72.3095C100.36 69.4818 81.1976 67.1895 57.5598 67.1895C33.922 67.1895 14.7598 69.4818 14.7598 72.3095C14.7598 75.1372 33.922 77.4295 57.5598 77.4295Z" fill="#A0A0A4"/>
<path opacity="0.18" d="M57.56 77.3992C81.0763 77.3992 100.14 75.1204 100.14 72.3092C100.14 69.4981 81.0763 67.2192 57.56 67.2192C34.0437 67.2192 14.98 69.4981 14.98 72.3092C14.98 75.1204 34.0437 77.3992 57.56 77.3992Z" fill="#9F9FA3"/>
<path opacity="0.18" d="M57.5602 77.3793C80.955 77.3793 99.9202 75.1093 99.9202 72.3093C99.9202 69.5092 80.955 67.2393 57.5602 67.2393C34.1654 67.2393 15.2002 69.5092 15.2002 72.3093C15.2002 75.1093 34.1654 77.3793 57.5602 77.3793Z" fill="#9E9EA2"/>
<path opacity="0.18" d="M57.5599 77.3495C80.8332 77.3495 99.6999 75.093 99.6999 72.3095C99.6999 69.526 80.8332 67.2695 57.5599 67.2695C34.2866 67.2695 15.4199 69.526 15.4199 72.3095C15.4199 75.093 34.2866 77.3495 57.5599 77.3495Z" fill="#9D9DA1"/>
<path opacity="0.18" d="M57.5601 77.3193C80.7119 77.3193 99.4801 75.0763 99.4801 72.3093C99.4801 69.5424 80.7119 67.2993 57.5601 67.2993C34.4084 67.2993 15.6401 69.5424 15.6401 72.3093C15.6401 75.0763 34.4084 77.3193 57.5601 77.3193Z" fill="#9C9CA0"/>
<path opacity="0.19" d="M57.5599 77.2896C80.5901 77.2896 99.2599 75.06 99.2599 72.3096C99.2599 69.5592 80.5901 67.3296 57.5599 67.3296C34.5296 67.3296 15.8599 69.5592 15.8599 72.3096C15.8599 75.06 34.5296 77.2896 57.5599 77.2896Z" fill="#9B9B9F"/>
<path opacity="0.19" d="M57.5601 77.2696C80.4689 77.2696 99.0401 75.0489 99.0401 72.3096C99.0401 69.5703 80.4689 67.3496 57.5601 67.3496C34.6513 67.3496 16.0801 69.5703 16.0801 72.3096C16.0801 75.0489 34.6513 77.2696 57.5601 77.2696Z" fill="#9A9A9E"/>
<path opacity="0.19" d="M57.5598 77.2394C80.3471 77.2394 98.8198 75.0322 98.8198 72.3094C98.8198 69.5866 80.3471 67.3794 57.5598 67.3794C34.7725 67.3794 16.2998 69.5866 16.2998 72.3094C16.2998 75.0322 34.7725 77.2394 57.5598 77.2394Z" fill="#99999D"/>
<path opacity="0.19" d="M57.56 77.2092C80.2258 77.2092 98.6 75.0154 98.6 72.3092C98.6 69.603 80.2258 67.4092 57.56 67.4092C34.8943 67.4092 16.52 69.603 16.52 72.3092C16.52 75.0154 34.8943 77.2092 57.56 77.2092Z" fill="#98989C"/>
<path opacity="0.2" d="M57.5602 77.1795C80.1045 77.1795 98.3802 74.9991 98.3802 72.3095C98.3802 69.6198 80.1045 67.4395 57.5602 67.4395C35.016 67.4395 16.7402 69.6198 16.7402 72.3095C16.7402 74.9991 35.016 77.1795 57.5602 77.1795Z" fill="#97979B"/>
<path opacity="0.2" d="M57.56 77.1595C79.9827 77.1595 98.16 74.9881 98.16 72.3095C98.16 69.6309 79.9827 67.4595 57.56 67.4595C35.1372 67.4595 16.96 69.6309 16.96 72.3095C16.96 74.9881 35.1372 77.1595 57.56 77.1595Z" fill="#96969A"/>
<path opacity="0.2" d="M57.5602 77.1293C79.8614 77.1293 97.9402 74.9713 97.9402 72.3093C97.9402 69.6472 79.8614 67.4893 57.5602 67.4893C35.2589 67.4893 17.1802 69.6472 17.1802 72.3093C17.1802 74.9713 35.2589 77.1293 57.5602 77.1293Z" fill="#959599"/>
<path opacity="0.21" d="M57.5599 77.0995C79.7397 77.0995 97.7199 74.955 97.7199 72.3095C97.7199 69.6641 79.7397 67.5195 57.5599 67.5195C35.3801 67.5195 17.3999 69.6641 17.3999 72.3095C17.3999 74.955 35.3801 77.0995 57.5599 77.0995Z" fill="#949498"/>
<path opacity="0.21" d="M57.5601 77.0796C79.6184 77.0796 97.5001 74.9439 97.5001 72.3095C97.5001 69.6751 79.6184 67.5396 57.5601 67.5396C35.5019 67.5396 17.6201 69.6751 17.6201 72.3095C17.6201 74.9439 35.5019 77.0796 57.5601 77.0796Z" fill="#939397"/>
<path opacity="0.21" d="M57.5598 77.0493C79.4966 77.0493 97.2798 74.9272 97.2798 72.3093C97.2798 69.6915 79.4966 67.5693 57.5598 67.5693C35.6231 67.5693 17.8398 69.6915 17.8398 72.3093C17.8398 74.9272 35.6231 77.0493 57.5598 77.0493Z" fill="#929296"/>
<path opacity="0.21" d="M57.5601 77.0196C79.3753 77.0196 97.0601 74.9109 97.0601 72.3096C97.0601 69.7083 79.3753 67.5996 57.5601 67.5996C35.7448 67.5996 18.0601 69.7083 18.0601 72.3096C18.0601 74.9109 35.7448 77.0196 57.5601 77.0196Z" fill="#919195"/>
<path opacity="0.22" d="M57.5598 76.9894C79.2535 76.9894 96.8398 74.8941 96.8398 72.3094C96.8398 69.7247 79.2535 67.6294 57.5598 67.6294C35.866 67.6294 18.2798 69.7247 18.2798 72.3094C18.2798 74.8941 35.866 76.9894 57.5598 76.9894Z" fill="#909094"/>
<path opacity="0.22" d="M57.56 76.9694C79.1322 76.9694 96.62 74.8831 96.62 72.3094C96.62 69.7358 79.1322 67.6494 57.56 67.6494C35.9878 67.6494 18.5 69.7358 18.5 72.3094C18.5 74.8831 35.9878 76.9694 57.56 76.9694Z" fill="#8F8F93"/>
<path opacity="0.22" d="M57.5602 76.9392C79.011 76.9392 96.4002 74.8663 96.4002 72.3092C96.4002 69.7521 79.011 67.6792 57.5602 67.6792C36.1095 67.6792 18.7202 69.7521 18.7202 72.3092C18.7202 74.8663 36.1095 76.9392 57.5602 76.9392Z" fill="#8E8E92"/>
<path opacity="0.22" d="M57.5599 76.9095C78.8892 76.9095 96.1799 74.85 96.1799 72.3095C96.1799 69.769 78.8892 67.7095 57.5599 67.7095C36.2307 67.7095 18.9399 69.769 18.9399 72.3095C18.9399 74.85 36.2307 76.9095 57.5599 76.9095Z" fill="#8D8D91"/>
<path opacity="0.23" d="M57.5602 76.8793C78.7679 76.8793 95.9602 74.8332 95.9602 72.3093C95.9602 69.7853 78.7679 67.7393 57.5602 67.7393C36.3524 67.7393 19.1602 69.7853 19.1602 72.3093C19.1602 74.8332 36.3524 76.8793 57.5602 76.8793Z" fill="#8C8C90"/>
<path opacity="0.23" d="M57.5599 76.8593C78.6461 76.8593 95.7399 74.8222 95.7399 72.3093C95.7399 69.7964 78.6461 67.7593 57.5599 67.7593C36.4737 67.7593 19.3799 69.7964 19.3799 72.3093C19.3799 74.8222 36.4737 76.8593 57.5599 76.8593Z" fill="#8B8B8F"/>
<path opacity="0.23" d="M57.5601 76.8296C78.5248 76.8296 95.5201 74.8059 95.5201 72.3095C95.5201 69.8132 78.5248 67.7896 57.5601 67.7896C36.5954 67.7896 19.6001 69.8132 19.6001 72.3095C19.6001 74.8059 36.5954 76.8296 57.5601 76.8296Z" fill="#8A8A8E"/>
<path opacity="0.23" d="M57.5601 76.7993C78.3978 76.7993 95.2901 74.7891 95.2901 72.3093C95.2901 69.8296 78.3978 67.8193 57.5601 67.8193C36.7224 67.8193 19.8301 69.8296 19.8301 72.3093C19.8301 74.7891 36.7224 76.7993 57.5601 76.7993Z" fill="#89898D"/>
<path opacity="0.24" d="M57.5598 76.7696C78.276 76.7696 95.0698 74.7728 95.0698 72.3096C95.0698 69.8464 78.276 67.8496 57.5598 67.8496C36.8436 67.8496 20.0498 69.8464 20.0498 72.3096C20.0498 74.7728 36.8436 76.7696 57.5598 76.7696Z" fill="#88888C"/>
<path opacity="0.24" d="M57.56 76.7491C78.1547 76.7491 94.85 74.7613 94.85 72.3091C94.85 69.857 78.1547 67.8691 57.56 67.8691C36.9653 67.8691 20.27 69.857 20.27 72.3091C20.27 74.7613 36.9653 76.7491 57.56 76.7491Z" fill="#87878B"/>
<path opacity="0.24" d="M57.5602 76.7194C78.0334 76.7194 94.6302 74.745 94.6302 72.3094C94.6302 69.8738 78.0334 67.8994 57.5602 67.8994C37.087 67.8994 20.4902 69.8738 20.4902 72.3094C20.4902 74.745 37.087 76.7194 57.5602 76.7194Z" fill="#86868A"/>
<path opacity="0.24" d="M57.56 76.6892C77.9117 76.6892 94.41 74.7282 94.41 72.3092C94.41 69.8902 77.9117 67.9292 57.56 67.9292C37.2083 67.9292 20.71 69.8902 20.71 72.3092C20.71 74.7282 37.2083 76.6892 57.56 76.6892Z" fill="#858589"/>
<path opacity="0.25" d="M57.5602 76.6692C77.7904 76.6692 94.1902 74.7172 94.1902 72.3092C94.1902 69.9013 77.7904 67.9492 57.5602 67.9492C37.33 67.9492 20.9302 69.9013 20.9302 72.3092C20.9302 74.7172 37.33 76.6692 57.5602 76.6692Z" fill="#848488"/>
<path opacity="0.25" d="M57.5599 76.6395C77.6686 76.6395 93.9699 74.7009 93.9699 72.3095C93.9699 69.9181 77.6686 67.9795 57.5599 67.9795C37.4512 67.9795 21.1499 69.9181 21.1499 72.3095C21.1499 74.7009 37.4512 76.6395 57.5599 76.6395Z" fill="#838387"/>
<path opacity="0.25" d="M57.5601 76.6093C77.5473 76.6093 93.7501 74.6841 93.7501 72.3093C93.7501 69.9344 77.5473 68.0093 57.5601 68.0093C37.5729 68.0093 21.3701 69.9344 21.3701 72.3093C21.3701 74.6841 37.5729 76.6093 57.5601 76.6093Z" fill="#838386"/>
<path opacity="0.25" d="M57.5598 76.5796C77.4255 76.5796 93.5298 74.6678 93.5298 72.3095C93.5298 69.9513 77.4255 68.0396 57.5598 68.0396C37.6942 68.0396 21.5898 69.9513 21.5898 72.3095C21.5898 74.6678 37.6942 76.5796 57.5598 76.5796Z" fill="#828285"/>
<path opacity="0.26" d="M57.5601 76.5596C77.3042 76.5596 93.3101 74.6568 93.3101 72.3096C93.3101 69.9624 77.3042 68.0596 57.5601 68.0596C37.8159 68.0596 21.8101 69.9624 21.8101 72.3096C21.8101 74.6568 37.8159 76.5596 57.5601 76.5596Z" fill="#818184"/>
<path opacity="0.26" d="M57.5598 76.5294C77.1825 76.5294 93.0898 74.64 93.0898 72.3094C93.0898 69.9787 77.1825 68.0894 57.5598 68.0894C37.9371 68.0894 22.0298 69.9787 22.0298 72.3094C22.0298 74.64 37.9371 76.5294 57.5598 76.5294Z" fill="#808083"/>
<path opacity="0.26" d="M57.56 76.4991C77.0612 76.4991 92.87 74.6232 92.87 72.3091C92.87 69.9951 77.0612 68.1191 57.56 68.1191C38.0588 68.1191 22.25 69.9951 22.25 72.3091C22.25 74.6232 38.0588 76.4991 57.56 76.4991Z" fill="#7F7F82"/>
<path opacity="0.26" d="M57.5602 76.4694C76.9399 76.4694 92.6502 74.6069 92.6502 72.3094C92.6502 70.0119 76.9399 68.1494 57.5602 68.1494C38.1805 68.1494 22.4702 70.0119 22.4702 72.3094C22.4702 74.6069 38.1805 76.4694 57.5602 76.4694Z" fill="#7E7E81"/>
<path opacity="0.27" d="M57.5599 76.4494C76.8181 76.4494 92.4299 74.5959 92.4299 72.3094C92.4299 70.023 76.8181 68.1694 57.5599 68.1694C38.3018 68.1694 22.6899 70.023 22.6899 72.3094C22.6899 74.5959 38.3018 76.4494 57.5599 76.4494Z" fill="#7D7D80"/>
<path opacity="0.27" d="M57.5602 76.4192C76.6968 76.4192 92.2102 74.5791 92.2102 72.3092C92.2102 70.0393 76.6968 68.1992 57.5602 68.1992C38.4235 68.1992 22.9102 70.0393 22.9102 72.3092C22.9102 74.5791 38.4235 76.4192 57.5602 76.4192Z" fill="#7C7C7F"/>
<path opacity="0.27" d="M57.5599 76.3895C76.575 76.3895 91.9899 74.5628 91.9899 72.3095C91.9899 70.0562 76.575 68.2295 57.5599 68.2295C38.5447 68.2295 23.1299 70.0562 23.1299 72.3095C23.1299 74.5628 38.5447 76.3895 57.5599 76.3895Z" fill="#7B7B7E"/>
<path opacity="0.28" d="M57.5601 76.3695C76.4538 76.3695 91.7701 74.5518 91.7701 72.3095C91.7701 70.0672 76.4538 68.2495 57.5601 68.2495C38.6664 68.2495 23.3501 70.0672 23.3501 72.3095C23.3501 74.5518 38.6664 76.3695 57.5601 76.3695Z" fill="#7A7A7D"/>
<path opacity="0.28" d="M57.5598 76.3393C76.332 76.3393 91.5498 74.535 91.5498 72.3093C91.5498 70.0836 76.332 68.2793 57.5598 68.2793C38.7877 68.2793 23.5698 70.0836 23.5698 72.3093C23.5698 74.535 38.7877 76.3393 57.5598 76.3393Z" fill="#79797C"/>
<path opacity="0.28" d="M57.56 76.3096C76.2107 76.3096 91.33 74.5187 91.33 72.3096C91.33 70.1004 76.2107 68.3096 57.56 68.3096C38.9094 68.3096 23.79 70.1004 23.79 72.3096C23.79 74.5187 38.9094 76.3096 57.56 76.3096Z" fill="#78787B"/>
<path opacity="0.28" d="M57.5598 76.2794C76.0889 76.2794 91.1098 74.5019 91.1098 72.3094C91.1098 70.1168 76.0889 68.3394 57.5598 68.3394C39.0306 68.3394 24.0098 70.1168 24.0098 72.3094C24.0098 74.5019 39.0306 76.2794 57.5598 76.2794Z" fill="#77777A"/>
<path opacity="0.29" d="M57.56 76.2594C75.9676 76.2594 90.89 74.4909 90.89 72.3094C90.89 70.1278 75.9676 68.3594 57.56 68.3594C39.1523 68.3594 24.23 70.1278 24.23 72.3094C24.23 74.4909 39.1523 76.2594 57.56 76.2594Z" fill="#767679"/>
<path opacity="0.29" d="M57.5602 76.2292C75.8463 76.2292 90.6702 74.4741 90.6702 72.3092C90.6702 70.1442 75.8463 68.3892 57.5602 68.3892C39.274 68.3892 24.4502 70.1442 24.4502 72.3092C24.4502 74.4741 39.274 76.2292 57.5602 76.2292Z" fill="#757578"/>
<path opacity="0.29" d="M57.5599 76.1994C75.7246 76.1994 90.4499 74.4578 90.4499 72.3094C90.4499 70.161 75.7246 68.4194 57.5599 68.4194C39.3953 68.4194 24.6699 70.161 24.6699 72.3094C24.6699 74.4578 39.3953 76.1994 57.5599 76.1994Z" fill="#747477"/>
<path opacity="0.29" d="M57.5601 76.1692C75.6033 76.1692 90.2301 74.441 90.2301 72.3092C90.2301 70.1774 75.6033 68.4492 57.5601 68.4492C39.517 68.4492 24.8901 70.1774 24.8901 72.3092C24.8901 74.441 39.517 76.1692 57.5601 76.1692Z" fill="#737376"/>
<path opacity="0.3" d="M57.5599 76.1492C75.4815 76.1492 90.0099 74.43 90.0099 72.3092C90.0099 70.1885 75.4815 68.4692 57.5599 68.4692C39.6382 68.4692 25.1099 70.1885 25.1099 72.3092C25.1099 74.43 39.6382 76.1492 57.5599 76.1492Z" fill="#727275"/>
<path opacity="0.3" d="M57.5601 76.1195C75.3602 76.1195 89.7901 74.4137 89.7901 72.3095C89.7901 70.2053 75.3602 68.4995 57.5601 68.4995C39.7599 68.4995 25.3301 70.2053 25.3301 72.3095C25.3301 74.4137 39.7599 76.1195 57.5601 76.1195Z" fill="#717174"/>
<path opacity="0.3" d="M57.5598 76.0893C75.2384 76.0893 89.5698 74.3969 89.5698 72.3093C89.5698 70.2217 75.2384 68.5293 57.5598 68.5293C39.8812 68.5293 25.5498 70.2217 25.5498 72.3093C25.5498 74.3969 39.8812 76.0893 57.5598 76.0893Z" fill="#707073"/>
<path opacity="0.3" d="M57.56 76.0596C75.1172 76.0596 89.35 74.3806 89.35 72.3096C89.35 70.2385 75.1172 68.5596 57.56 68.5596C40.0029 68.5596 25.77 70.2385 25.77 72.3096C25.77 74.3806 40.0029 76.0596 57.56 76.0596Z" fill="#6F6F72"/>
<path opacity="0.31" d="M57.5602 76.0396C74.9959 76.0396 89.1302 74.3696 89.1302 72.3096C89.1302 70.2496 74.9959 68.5796 57.5602 68.5796C40.1246 68.5796 25.9902 70.2496 25.9902 72.3096C25.9902 74.3696 40.1246 76.0396 57.5602 76.0396Z" fill="#6E6E71"/>
<path opacity="0.31" d="M57.56 76.0094C74.8741 76.0094 88.91 74.3528 88.91 72.3094C88.91 70.2659 74.8741 68.6094 57.56 68.6094C40.2458 68.6094 26.21 70.2659 26.21 72.3094C26.21 74.3528 40.2458 76.0094 57.56 76.0094Z" fill="#6D6D70"/>
<path opacity="0.31" d="M57.5602 75.9792C74.7528 75.9792 88.6902 74.336 88.6902 72.3092C88.6902 70.2823 74.7528 68.6392 57.5602 68.6392C40.3676 68.6392 26.4302 70.2823 26.4302 72.3092C26.4302 74.336 40.3676 75.9792 57.5602 75.9792Z" fill="#6C6C6F"/>
<path opacity="0.31" d="M57.5599 75.9592C74.631 75.9592 88.4699 74.325 88.4699 72.3092C88.4699 70.2933 74.631 68.6592 57.5599 68.6592C40.4888 68.6592 26.6499 70.2933 26.6499 72.3092C26.6499 74.325 40.4888 75.9592 57.5599 75.9592Z" fill="#6B6B6E"/>
<path opacity="0.32" d="M57.5601 75.9295C74.5097 75.9295 88.2501 74.3087 88.2501 72.3095C88.2501 70.3102 74.5097 68.6895 57.5601 68.6895C40.6105 68.6895 26.8701 70.3102 26.8701 72.3095C26.8701 74.3087 40.6105 75.9295 57.5601 75.9295Z" fill="#6A6A6D"/>
<path opacity="0.32" d="M57.5598 75.8992C74.388 75.8992 88.0298 74.2919 88.0298 72.3092C88.0298 70.3265 74.388 68.7192 57.5598 68.7192C40.7317 68.7192 27.0898 70.3265 27.0898 72.3092C27.0898 74.2919 40.7317 75.8992 57.5598 75.8992Z" fill="#69696C"/>
<path opacity="0.32" d="M57.5601 75.8695C74.2667 75.8695 87.8101 74.2756 87.8101 72.3095C87.8101 70.3434 74.2667 68.7495 57.5601 68.7495C40.8534 68.7495 27.3101 70.3434 27.3101 72.3095C27.3101 74.2756 40.8534 75.8695 57.5601 75.8695Z" fill="#68686B"/>
<path opacity="0.32" d="M57.56 75.8495C74.1396 75.8495 87.58 74.2646 87.58 72.3095C87.58 70.3544 74.1396 68.7695 57.56 68.7695C40.9805 68.7695 27.54 70.3544 27.54 72.3095C27.54 74.2646 40.9805 75.8495 57.56 75.8495Z" fill="#67676A"/>
<path opacity="0.33" d="M57.5598 75.8193C74.0179 75.8193 87.3598 74.2478 87.3598 72.3093C87.3598 70.3708 74.0179 68.7993 57.5598 68.7993C41.1017 68.7993 27.7598 70.3708 27.7598 72.3093C27.7598 74.2478 41.1017 75.8193 57.5598 75.8193Z" fill="#666669"/>
<path opacity="0.33" d="M57.56 75.7896C73.8966 75.7896 87.14 74.2315 87.14 72.3096C87.14 70.3876 73.8966 68.8296 57.56 68.8296C41.2234 68.8296 27.98 70.3876 27.98 72.3096C27.98 74.2315 41.2234 75.7896 57.56 75.7896Z" fill="#656568"/>
<path opacity="0.33" d="M57.5602 75.7594C73.7753 75.7594 86.9202 74.2148 86.9202 72.3094C86.9202 70.404 73.7753 68.8594 57.5602 68.8594C41.3451 68.8594 28.2002 70.404 28.2002 72.3094C28.2002 74.2148 41.3451 75.7594 57.5602 75.7594Z" fill="#646467"/>
<path opacity="0.34" d="M57.5599 75.7394C73.6535 75.7394 86.6999 74.2037 86.6999 72.3094C86.6999 70.4151 73.6535 68.8794 57.5599 68.8794C41.4663 68.8794 28.4199 70.4151 28.4199 72.3094C28.4199 74.2037 41.4663 75.7394 57.5599 75.7394Z" fill="#636366"/>
<path opacity="0.34" d="M57.5601 75.7092C73.5322 75.7092 86.4801 74.1869 86.4801 72.3092C86.4801 70.4314 73.5322 68.9092 57.5601 68.9092C41.5881 68.9092 28.6401 70.4314 28.6401 72.3092C28.6401 74.1869 41.5881 75.7092 57.5601 75.7092Z" fill="#626265"/>
<path opacity="0.34" d="M57.5599 75.6795C73.4104 75.6795 86.2599 74.1707 86.2599 72.3095C86.2599 70.4483 73.4104 68.9395 57.5599 68.9395C41.7093 68.9395 28.8599 70.4483 28.8599 72.3095C28.8599 74.1707 41.7093 75.6795 57.5599 75.6795Z" fill="#616164"/>
<path opacity="0.34" d="M57.5601 75.6595C73.2892 75.6595 86.0401 74.1596 86.0401 72.3095C86.0401 70.4593 73.2892 68.9595 57.5601 68.9595C41.831 68.9595 29.0801 70.4593 29.0801 72.3095C29.0801 74.1596 41.831 75.6595 57.5601 75.6595Z" fill="#606063"/>
<path opacity="0.35" d="M57.5598 75.6293C73.1674 75.6293 85.8198 74.1428 85.8198 72.3093C85.8198 70.4757 73.1674 68.9893 57.5598 68.9893C41.9522 68.9893 29.2998 70.4757 29.2998 72.3093C29.2998 74.1428 41.9522 75.6293 57.5598 75.6293Z" fill="#5F5F62"/>
<path opacity="0.35" d="M57.56 75.5995C73.0461 75.5995 85.6 74.1265 85.6 72.3095C85.6 70.4925 73.0461 69.0195 57.56 69.0195C42.074 69.0195 29.52 70.4925 29.52 72.3095C29.52 74.1265 42.074 75.5995 57.56 75.5995Z" fill="#5E5E61"/>
<path opacity="0.35" d="M57.5602 75.5693C72.9248 75.5693 85.3802 74.1098 85.3802 72.3093C85.3802 70.5089 72.9248 69.0493 57.5602 69.0493C42.1957 69.0493 29.7402 70.5089 29.7402 72.3093C29.7402 74.1098 42.1957 75.5693 57.5602 75.5693Z" fill="#5E5E60"/>
<path opacity="0.35" d="M57.56 75.5493C72.803 75.5493 85.16 74.0987 85.16 72.3093C85.16 70.5199 72.803 69.0693 57.56 69.0693C42.3169 69.0693 29.96 70.5199 29.96 72.3093C29.96 74.0987 42.3169 75.5493 57.56 75.5493Z" fill="#5D5D5F"/>
<path opacity="0.36" d="M57.5602 75.5196C72.6817 75.5196 84.9402 74.0824 84.9402 72.3096C84.9402 70.5368 72.6817 69.0996 57.5602 69.0996C42.4386 69.0996 30.1802 70.5368 30.1802 72.3096C30.1802 74.0824 42.4386 75.5196 57.5602 75.5196Z" fill="#5C5C5E"/>
<path opacity="0.36" d="M57.5599 75.4894C72.56 75.4894 84.7199 74.0657 84.7199 72.3094C84.7199 70.5531 72.56 69.1294 57.5599 69.1294C42.5599 69.1294 30.3999 70.5531 30.3999 72.3094C30.3999 74.0657 42.5599 75.4894 57.5599 75.4894Z" fill="#5B5B5D"/>
<path opacity="0.36" d="M57.5601 75.4592C72.4387 75.4592 84.5001 74.0489 84.5001 72.3092C84.5001 70.5695 72.4387 69.1592 57.5601 69.1592C42.6816 69.1592 30.6201 70.5695 30.6201 72.3092C30.6201 74.0489 42.6816 75.4592 57.5601 75.4592Z" fill="#5A5A5C"/>
<path opacity="0.36" d="M57.5598 75.4392C72.3169 75.4392 84.2798 74.0378 84.2798 72.3092C84.2798 70.5805 72.3169 69.1792 57.5598 69.1792C42.8028 69.1792 30.8398 70.5805 30.8398 72.3092C30.8398 74.0378 42.8028 75.4392 57.5598 75.4392Z" fill="#59595B"/>
<path opacity="0.37" d="M57.5601 75.4095C72.1956 75.4095 84.0601 74.0216 84.0601 72.3095C84.0601 70.5974 72.1956 69.2095 57.5601 69.2095C42.9245 69.2095 31.0601 70.5974 31.0601 72.3095C31.0601 74.0216 42.9245 75.4095 57.5601 75.4095Z" fill="#58585A"/>
<path opacity="0.37" d="M57.5598 75.3793C72.0738 75.3793 83.8398 74.0048 83.8398 72.3093C83.8398 70.6137 72.0738 69.2393 57.5598 69.2393C43.0457 69.2393 31.2798 70.6137 31.2798 72.3093C31.2798 74.0048 43.0457 75.3793 57.5598 75.3793Z" fill="#575759"/>
<path opacity="0.37" d="M57.56 75.3495C71.9525 75.3495 83.62 73.9885 83.62 72.3095C83.62 70.6306 71.9525 69.2695 57.56 69.2695C43.1675 69.2695 31.5 70.6306 31.5 72.3095C31.5 73.9885 43.1675 75.3495 57.56 75.3495Z" fill="#565658"/>
<path opacity="0.37" d="M57.5602 75.3296C71.8313 75.3296 83.4002 73.9774 83.4002 72.3095C83.4002 70.6416 71.8313 69.2896 57.5602 69.2896C43.2892 69.2896 31.7202 70.6416 31.7202 72.3095C31.7202 73.9774 43.2892 75.3296 57.5602 75.3296Z" fill="#555557"/>
<path opacity="0.38" d="M57.5599 75.2993C71.7095 75.2993 83.1799 73.9607 83.1799 72.3093C83.1799 70.658 71.7095 69.3193 57.5599 69.3193C43.4104 69.3193 31.9399 70.658 31.9399 72.3093C31.9399 73.9607 43.4104 75.2993 57.5599 75.2993Z" fill="#545456"/>
<path opacity="0.38" d="M57.5602 75.2696C71.5882 75.2696 82.9602 73.9444 82.9602 72.3096C82.9602 70.6748 71.5882 69.3496 57.5602 69.3496C43.5321 69.3496 32.1602 70.6748 32.1602 72.3096C32.1602 73.9444 43.5321 75.2696 57.5602 75.2696Z" fill="#535355"/>
<path opacity="0.38" d="M57.5599 75.2491C71.4664 75.2491 82.7399 73.9329 82.7399 72.3091C82.7399 70.6854 71.4664 69.3691 57.5599 69.3691C43.6534 69.3691 32.3799 70.6854 32.3799 72.3091C32.3799 73.9329 43.6534 75.2491 57.5599 75.2491Z" fill="#525254"/>
<path opacity="0.38" d="M57.5601 75.2194C71.3451 75.2194 82.5201 73.9166 82.5201 72.3094C82.5201 70.7023 71.3451 69.3994 57.5601 69.3994C43.7751 69.3994 32.6001 70.7023 32.6001 72.3094C32.6001 73.9166 43.7751 75.2194 57.5601 75.2194Z" fill="#515153"/>
<path opacity="0.39" d="M57.5598 75.1892C71.2234 75.1892 82.2998 73.8998 82.2998 72.3092C82.2998 70.7186 71.2234 69.4292 57.5598 69.4292C43.8963 69.4292 32.8198 70.7186 32.8198 72.3092C32.8198 73.8998 43.8963 75.1892 57.5598 75.1892Z" fill="#505052"/>
<path opacity="0.39" d="M57.56 75.1595C71.1021 75.1595 82.08 73.8835 82.08 72.3095C82.08 70.7355 71.1021 69.4595 57.56 69.4595C44.018 69.4595 33.04 70.7355 33.04 72.3095C33.04 73.8835 44.018 75.1595 57.56 75.1595Z" fill="#4F4F51"/>
<path opacity="0.39" d="M57.5598 75.1395C70.9803 75.1395 81.8598 73.8725 81.8598 72.3095C81.8598 70.7465 70.9803 69.4795 57.5598 69.4795C44.1392 69.4795 33.2598 70.7465 33.2598 72.3095C33.2598 73.8725 44.1392 75.1395 57.5598 75.1395Z" fill="#4E4E50"/>
<path opacity="0.39" d="M57.56 75.1093C70.859 75.1093 81.64 73.8557 81.64 72.3093C81.64 70.7629 70.859 69.5093 57.56 69.5093C44.261 69.5093 33.48 70.7629 33.48 72.3093C33.48 73.8557 44.261 75.1093 57.56 75.1093Z" fill="#4D4D4F"/>
<path opacity="0.4" d="M57.5602 75.0796C70.7377 75.0796 81.4202 73.8394 81.4202 72.3095C81.4202 70.7797 70.7377 69.5396 57.5602 69.5396C44.3827 69.5396 33.7002 70.7797 33.7002 72.3095C33.7002 73.8394 44.3827 75.0796 57.5602 75.0796Z" fill="#4C4C4E"/>
<path opacity="0.4" d="M57.5599 75.0493C70.6159 75.0493 81.1999 73.8226 81.1999 72.3093C81.1999 70.7961 70.6159 69.5693 57.5599 69.5693C44.5039 69.5693 33.9199 70.7961 33.9199 72.3093C33.9199 73.8226 44.5039 75.0493 57.5599 75.0493Z" fill="#4B4B4D"/>
<path opacity="0.4" d="M57.5601 75.0294C70.4946 75.0294 80.9801 73.8116 80.9801 72.3094C80.9801 70.8071 70.4946 69.5894 57.5601 69.5894C44.6256 69.5894 34.1401 70.8071 34.1401 72.3094C34.1401 73.8116 44.6256 75.0294 57.5601 75.0294Z" fill="#4A4A4C"/>
<path opacity="0.41" d="M57.5599 74.9991C70.3729 74.9991 80.7599 73.7948 80.7599 72.3091C80.7599 70.8235 70.3729 69.6191 57.5599 69.6191C44.7469 69.6191 34.3599 70.8235 34.3599 72.3091C34.3599 73.7948 44.7469 74.9991 57.5599 74.9991Z" fill="#49494B"/>
<path opacity="0.41" d="M57.5601 74.9694C70.2516 74.9694 80.5401 73.7785 80.5401 72.3094C80.5401 70.8403 70.2516 69.6494 57.5601 69.6494C44.8686 69.6494 34.5801 70.8403 34.5801 72.3094C34.5801 73.7785 44.8686 74.9694 57.5601 74.9694Z" fill="#48484A"/>
<path opacity="0.41" d="M57.5598 74.9494C70.1298 74.9494 80.3198 73.7675 80.3198 72.3094C80.3198 70.8514 70.1298 69.6694 57.5598 69.6694C44.9898 69.6694 34.7998 70.8514 34.7998 72.3094C34.7998 73.7675 44.9898 74.9494 57.5598 74.9494Z" fill="#474749"/>
<path opacity="0.41" d="M57.56 74.9192C70.0085 74.9192 80.1 73.7507 80.1 72.3092C80.1 70.8678 70.0085 69.6992 57.56 69.6992C45.1115 69.6992 35.02 70.8678 35.02 72.3092C35.02 73.7507 45.1115 74.9192 57.56 74.9192Z" fill="#464648"/>
<path opacity="0.42" d="M57.5602 74.8895C69.8872 74.8895 79.8802 73.7344 79.8802 72.3095C79.8802 70.8846 69.8872 69.7295 57.5602 69.7295C45.2332 69.7295 35.2402 70.8846 35.2402 72.3095C35.2402 73.7344 45.2332 74.8895 57.5602 74.8895Z" fill="#454547"/>
<path opacity="0.42" d="M57.5602 74.8593C69.7602 74.8593 79.6502 73.7176 79.6502 72.3093C79.6502 70.9009 69.7602 69.7593 57.5602 69.7593C45.3602 69.7593 35.4702 70.9009 35.4702 72.3093C35.4702 73.7176 45.3602 74.8593 57.5602 74.8593Z" fill="#444446"/>
<path opacity="0.42" d="M57.5599 74.8393C69.6384 74.8393 79.4299 73.7066 79.4299 72.3093C79.4299 70.912 69.6384 69.7793 57.5599 69.7793C45.4815 69.7793 35.6899 70.912 35.6899 72.3093C35.6899 73.7066 45.4815 74.8393 57.5599 74.8393Z" fill="#434345"/>
<path opacity="0.42" d="M57.5602 74.8096C69.5171 74.8096 79.2102 73.6903 79.2102 72.3096C79.2102 70.9289 69.5171 69.8096 57.5602 69.8096C45.6032 69.8096 35.9102 70.9289 35.9102 72.3096C35.9102 73.6903 45.6032 74.8096 57.5602 74.8096Z" fill="#424244"/>
<path opacity="0.43" d="M57.5599 74.7794C69.3953 74.7794 78.9899 73.6735 78.9899 72.3094C78.9899 70.9452 69.3953 69.8394 57.5599 69.8394C45.7244 69.8394 36.1299 70.9452 36.1299 72.3094C36.1299 73.6735 45.7244 74.7794 57.5599 74.7794Z" fill="#414143"/>
<path opacity="0.43" d="M57.5601 74.7491C69.2741 74.7491 78.7701 73.6567 78.7701 72.3091C78.7701 70.9616 69.2741 69.8691 57.5601 69.8691C45.8461 69.8691 36.3501 70.9616 36.3501 72.3091C36.3501 73.6567 45.8461 74.7491 57.5601 74.7491Z" fill="#404042"/>
<path opacity="0.43" d="M57.5598 74.7292C69.1523 74.7292 78.5498 73.6457 78.5498 72.3092C78.5498 70.9726 69.1523 69.8892 57.5598 69.8892C45.9674 69.8892 36.5698 70.9726 36.5698 72.3092C36.5698 73.6457 45.9674 74.7292 57.5598 74.7292Z" fill="#3F3F41"/>
<path opacity="0.43" d="M57.56 74.6994C69.031 74.6994 78.33 73.6294 78.33 72.3094C78.33 70.9895 69.031 69.9194 57.56 69.9194C46.0891 69.9194 36.79 70.9895 36.79 72.3094C36.79 73.6294 46.0891 74.6994 57.56 74.6994Z" fill="#3E3E40"/>
<path opacity="0.44" d="M57.5598 74.6692C68.9092 74.6692 78.1098 73.6126 78.1098 72.3092C78.1098 71.0058 68.9092 69.9492 57.5598 69.9492C46.2103 69.9492 37.0098 71.0058 37.0098 72.3092C37.0098 73.6126 46.2103 74.6692 57.5598 74.6692Z" fill="#3D3D3F"/>
<path opacity="0.44" d="M57.56 74.6395C68.7879 74.6395 77.89 73.5963 77.89 72.3095C77.89 71.0227 68.7879 69.9795 57.56 69.9795C46.332 69.9795 37.23 71.0227 37.23 72.3095C37.23 73.5963 46.332 74.6395 57.56 74.6395Z" fill="#3C3C3E"/>
<path opacity="0.44" d="M57.5602 74.6195C68.6666 74.6195 77.6702 73.5853 77.6702 72.3095C77.6702 71.0337 68.6666 69.9995 57.5602 69.9995C46.4537 69.9995 37.4502 71.0337 37.4502 72.3095C37.4502 73.5853 46.4537 74.6195 57.5602 74.6195Z" fill="#3B3B3D"/>
<path opacity="0.44" d="M57.5599 74.5893C68.5449 74.5893 77.4499 73.5685 77.4499 72.3093C77.4499 71.0501 68.5449 70.0293 57.5599 70.0293C46.575 70.0293 37.6699 71.0501 37.6699 72.3093C37.6699 73.5685 46.575 74.5893 57.5599 74.5893Z" fill="#3A3A3C"/>
<path opacity="0.45" d="M57.5601 74.5596C68.4236 74.5596 77.2301 73.5522 77.2301 72.3096C77.2301 71.0669 68.4236 70.0596 57.5601 70.0596C46.6967 70.0596 37.8901 71.0669 37.8901 72.3096C37.8901 73.5522 46.6967 74.5596 57.5601 74.5596Z" fill="#39393B"/>
<path opacity="0.45" d="M57.5599 74.5396C68.3018 74.5396 77.0099 73.5412 77.0099 72.3096C77.0099 71.078 68.3018 70.0796 57.5599 70.0796C46.8179 70.0796 38.1099 71.078 38.1099 72.3096C38.1099 73.5412 46.8179 74.5396 57.5599 74.5396Z" fill="#38383A"/>
<path opacity="0.45" d="M57.5601 74.5094C68.1805 74.5094 76.7901 73.5244 76.7901 72.3094C76.7901 71.0943 68.1805 70.1094 57.5601 70.1094C46.9396 70.1094 38.3301 71.0943 38.3301 72.3094C38.3301 73.5244 46.9396 74.5094 57.5601 74.5094Z" fill="#383839"/>
<path opacity="0.45" d="M57.5598 74.4792C68.0587 74.4792 76.5698 73.5076 76.5698 72.3092C76.5698 71.1107 68.0587 70.1392 57.5598 70.1392C47.0609 70.1392 38.5498 71.1107 38.5498 72.3092C38.5498 73.5076 47.0609 74.4792 57.5598 74.4792Z" fill="#373738"/>
<path opacity="0.46" d="M57.56 74.4494C67.9375 74.4494 76.35 73.4913 76.35 72.3094C76.35 71.1275 67.9375 70.1694 57.56 70.1694C47.1826 70.1694 38.77 71.1275 38.77 72.3094C38.77 73.4913 47.1826 74.4494 57.56 74.4494Z" fill="#363637"/>
<path opacity="0.46" d="M57.5602 74.4295C67.8162 74.4295 76.1302 73.4803 76.1302 72.3095C76.1302 71.1386 67.8162 70.1895 57.5602 70.1895C47.3043 70.1895 38.9902 71.1386 38.9902 72.3095C38.9902 73.4803 47.3043 74.4295 57.5602 74.4295Z" fill="#353536"/>
<path opacity="0.46" d="M57.56 74.3992C67.6944 74.3992 75.91 73.4635 75.91 72.3092C75.91 71.155 67.6944 70.2192 57.56 70.2192C47.4255 70.2192 39.21 71.155 39.21 72.3092C39.21 73.4635 47.4255 74.3992 57.56 74.3992Z" fill="#343435"/>
<path opacity="0.46" d="M57.5602 74.3695C67.5731 74.3695 75.6902 73.4472 75.6902 72.3095C75.6902 71.1718 67.5731 70.2495 57.5602 70.2495C47.5473 70.2495 39.4302 71.1718 39.4302 72.3095C39.4302 73.4472 47.5473 74.3695 57.5602 74.3695Z" fill="#333334"/>
<path opacity="0.47" d="M57.5599 74.3393C67.4513 74.3393 75.4699 73.4304 75.4699 72.3093C75.4699 71.1882 67.4513 70.2793 57.5599 70.2793C47.6685 70.2793 39.6499 71.1882 39.6499 72.3093C39.6499 73.4304 47.6685 74.3393 57.5599 74.3393Z" fill="#323233"/>
<path opacity="0.47" d="M57.5601 74.3193C67.33 74.3193 75.2501 73.4194 75.2501 72.3093C75.2501 71.1992 67.33 70.2993 57.5601 70.2993C47.7902 70.2993 39.8701 71.1992 39.8701 72.3093C39.8701 73.4194 47.7902 74.3193 57.5601 74.3193Z" fill="#313132"/>
<path opacity="0.47" d="M57.5598 74.2896C67.2083 74.2896 75.0298 73.4031 75.0298 72.3096C75.0298 71.2161 67.2083 70.3296 57.5598 70.3296C47.9114 70.3296 40.0898 71.2161 40.0898 72.3096C40.0898 73.4031 47.9114 74.2896 57.5598 74.2896Z" fill="#303031"/>
<path opacity="0.48" d="M57.5601 74.2594C67.087 74.2594 74.8101 73.3863 74.8101 72.3094C74.8101 71.2324 67.087 70.3594 57.5601 70.3594C48.0331 70.3594 40.3101 71.2324 40.3101 72.3094C40.3101 73.3863 48.0331 74.2594 57.5601 74.2594Z" fill="#2F2F30"/>
<path opacity="0.48" d="M57.5598 74.2394C66.9652 74.2394 74.5898 73.3753 74.5898 72.3094C74.5898 71.2435 66.9652 70.3794 57.5598 70.3794C48.1544 70.3794 40.5298 71.2435 40.5298 72.3094C40.5298 73.3753 48.1544 74.2394 57.5598 74.2394Z" fill="#2E2E2F"/>
<path opacity="0.48" d="M57.56 74.2092C66.8439 74.2092 74.37 73.3585 74.37 72.3092C74.37 71.2598 66.8439 70.4092 57.56 70.4092C48.2761 70.4092 40.75 71.2598 40.75 72.3092C40.75 73.3585 48.2761 74.2092 57.56 74.2092Z" fill="#2D2D2E"/>
<path opacity="0.48" d="M57.5602 74.1795C66.7226 74.1795 74.1502 73.3422 74.1502 72.3095C74.1502 71.2767 66.7226 70.4395 57.5602 70.4395C48.3978 70.4395 40.9702 71.2767 40.9702 72.3095C40.9702 73.3422 48.3978 74.1795 57.5602 74.1795Z" fill="#2C2C2D"/>
<path opacity="0.49" d="M57.5599 74.1492C66.6008 74.1492 73.9299 73.3254 73.9299 72.3092C73.9299 71.293 66.6008 70.4692 57.5599 70.4692C48.519 70.4692 41.1899 71.293 41.1899 72.3092C41.1899 73.3254 48.519 74.1492 57.5599 74.1492Z" fill="#2B2B2C"/>
<path opacity="0.49" d="M57.5602 74.1293C66.4796 74.1293 73.7102 73.3144 73.7102 72.3093C73.7102 71.3041 66.4796 70.4893 57.5602 70.4893C48.6408 70.4893 41.4102 71.3041 41.4102 72.3093C41.4102 73.3144 48.6408 74.1293 57.5602 74.1293Z" fill="#2A2A2B"/>
<path opacity="0.49" d="M57.5599 74.0995C66.3578 74.0995 73.4899 73.2981 73.4899 72.3095C73.4899 71.3209 66.3578 70.5195 57.5599 70.5195C48.762 70.5195 41.6299 71.3209 41.6299 72.3095C41.6299 73.2981 48.762 74.0995 57.5599 74.0995Z" fill="#29292A"/>
<path opacity="0.49" d="M57.5601 74.0693C66.2365 74.0693 73.2701 73.2813 73.2701 72.3093C73.2701 71.3373 66.2365 70.5493 57.5601 70.5493C48.8837 70.5493 41.8501 71.3373 41.8501 72.3093C41.8501 73.2813 48.8837 74.0693 57.5601 74.0693Z" fill="#282829"/>
<path opacity="0.5" d="M57.5598 74.0396C66.1147 74.0396 73.0498 73.265 73.0498 72.3096C73.0498 71.3541 66.1147 70.5796 57.5598 70.5796C49.0049 70.5796 42.0698 71.3541 42.0698 72.3096C42.0698 73.265 49.0049 74.0396 57.5598 74.0396Z" fill="#272728"/>
<path opacity="0.5" d="M57.56 74.0196C65.9934 74.0196 72.83 73.254 72.83 72.3096C72.83 71.3652 65.9934 70.5996 57.56 70.5996C49.1267 70.5996 42.29 71.3652 42.29 72.3096C42.29 73.254 49.1267 74.0196 57.56 74.0196Z" fill="#262627"/>
<path opacity="0.5" d="M57.5598 73.9894C65.8717 73.9894 72.6098 73.2372 72.6098 72.3094C72.6098 71.3816 65.8717 70.6294 57.5598 70.6294C49.2479 70.6294 42.5098 71.3816 42.5098 72.3094C42.5098 73.2372 49.2479 73.9894 57.5598 73.9894Z" fill="#252526"/>
<path opacity="0.5" d="M57.56 73.9592C65.7504 73.9592 72.39 73.2205 72.39 72.3092C72.39 71.3979 65.7504 70.6592 57.56 70.6592C49.3696 70.6592 42.73 71.3979 42.73 72.3092C42.73 73.2205 49.3696 73.9592 57.56 73.9592Z" fill="#242425"/>
<path opacity="0.51" d="M57.5602 73.9392C65.6291 73.9392 72.1702 73.2094 72.1702 72.3092C72.1702 71.409 65.6291 70.6792 57.5602 70.6792C49.4913 70.6792 42.9502 71.409 42.9502 72.3092C42.9502 73.2094 49.4913 73.9392 57.5602 73.9392Z" fill="#232324"/>
<path opacity="0.51" d="M57.5602 73.9095C65.502 73.9095 71.9402 73.1931 71.9402 72.3095C71.9402 71.4258 65.502 70.7095 57.5602 70.7095C49.6183 70.7095 43.1802 71.4258 43.1802 72.3095C43.1802 73.1931 49.6183 73.9095 57.5602 73.9095Z" fill="#222223"/>
<path opacity="0.51" d="M57.5599 73.8793C65.3803 73.8793 71.7199 73.1763 71.7199 72.3093C71.7199 71.4422 65.3803 70.7393 57.5599 70.7393C49.7396 70.7393 43.3999 71.4422 43.3999 72.3093C43.3999 73.1763 49.7396 73.8793 57.5599 73.8793Z" fill="#212122"/>
<path opacity="0.51" d="M57.5601 73.8495C65.259 73.8495 71.5001 73.1601 71.5001 72.3095C71.5001 71.459 65.259 70.7695 57.5601 70.7695C49.8613 70.7695 43.6201 71.459 43.6201 72.3095C43.6201 73.1601 49.8613 73.8495 57.5601 73.8495Z" fill="#202021"/>
<path opacity="0.52" d="M57.5598 73.8296C65.1372 73.8296 71.2798 73.149 71.2798 72.3095C71.2798 71.4701 65.1372 70.7896 57.5598 70.7896C49.9825 70.7896 43.8398 71.4701 43.8398 72.3095C43.8398 73.149 49.9825 73.8296 57.5598 73.8296Z" fill="#1F1F20"/>
<path opacity="0.52" d="M57.5601 73.7993C65.0159 73.7993 71.0601 73.1322 71.0601 72.3093C71.0601 71.4864 65.0159 70.8193 57.5601 70.8193C50.1042 70.8193 44.0601 71.4864 44.0601 72.3093C44.0601 73.1322 50.1042 73.7993 57.5601 73.7993Z" fill="#1E1E1F"/>
<path opacity="0.52" d="M57.5598 73.7696C64.8941 73.7696 70.8398 73.1159 70.8398 72.3096C70.8398 71.5033 64.8941 70.8496 57.5598 70.8496C50.2254 70.8496 44.2798 71.5033 44.2798 72.3096C44.2798 73.1159 50.2254 73.7696 57.5598 73.7696Z" fill="#1D1D1E"/>
<path opacity="0.52" d="M57.56 73.7394C64.7728 73.7394 70.62 73.0992 70.62 72.3094C70.62 71.5196 64.7728 70.8794 57.56 70.8794C50.3472 70.8794 44.5 71.5196 44.5 72.3094C44.5 73.0992 50.3472 73.7394 57.56 73.7394Z" fill="#1C1C1D"/>
<path opacity="0.53" d="M57.5602 73.7194C64.6516 73.7194 70.4002 73.0881 70.4002 72.3094C70.4002 71.5307 64.6516 70.8994 57.5602 70.8994C50.4689 70.8994 44.7202 71.5307 44.7202 72.3094C44.7202 73.0881 50.4689 73.7194 57.5602 73.7194Z" fill="#1B1B1C"/>
<path opacity="0.53" d="M57.5599 73.6892C64.5298 73.6892 70.1799 73.0713 70.1799 72.3092C70.1799 71.547 64.5298 70.9292 57.5599 70.9292C50.5901 70.9292 44.9399 71.547 44.9399 72.3092C44.9399 73.0713 50.5901 73.6892 57.5599 73.6892Z" fill="#1A1A1B"/>
<path opacity="0.53" d="M57.5602 73.6595C64.4085 73.6595 69.9602 73.0551 69.9602 72.3095C69.9602 71.5639 64.4085 70.9595 57.5602 70.9595C50.7118 70.9595 45.1602 71.5639 45.1602 72.3095C45.1602 73.0551 50.7118 73.6595 57.5602 73.6595Z" fill="#19191A"/>
<path opacity="0.54" d="M57.5599 73.6293C64.2867 73.6293 69.7399 73.0383 69.7399 72.3093C69.7399 71.5802 64.2867 70.9893 57.5599 70.9893C50.8331 70.9893 45.3799 71.5802 45.3799 72.3093C45.3799 73.0383 50.8331 73.6293 57.5599 73.6293Z" fill="#181819"/>
<path opacity="0.54" d="M57.5601 73.6093C64.1654 73.6093 69.5201 73.0272 69.5201 72.3093C69.5201 71.5913 64.1654 71.0093 57.5601 71.0093C50.9548 71.0093 45.6001 71.5913 45.6001 72.3093C45.6001 73.0272 50.9548 73.6093 57.5601 73.6093Z" fill="#171718"/>
<path opacity="0.54" d="M57.5598 73.5796C64.0436 73.5796 69.2998 73.0109 69.2998 72.3095C69.2998 71.6081 64.0436 71.0396 57.5598 71.0396C51.076 71.0396 45.8198 71.6081 45.8198 72.3095C45.8198 73.0109 51.076 73.5796 57.5598 73.5796Z" fill="#161617"/>
<path opacity="0.54" d="M57.56 73.5493C63.9224 73.5493 69.08 72.9942 69.08 72.3093C69.08 71.6245 63.9224 71.0693 57.56 71.0693C51.1977 71.0693 46.04 71.6245 46.04 72.3093C46.04 72.9942 51.1977 73.5493 57.56 73.5493Z" fill="#151516"/>
<path opacity="0.55" d="M57.5598 73.5294C63.8006 73.5294 68.8598 72.9831 68.8598 72.3094C68.8598 71.6356 63.8006 71.0894 57.5598 71.0894C51.319 71.0894 46.2598 71.6356 46.2598 72.3094C46.2598 72.9831 51.319 73.5294 57.5598 73.5294Z" fill="#141415"/>
<path opacity="0.55" d="M57.56 73.4991C63.6793 73.4991 68.64 72.9664 68.64 72.3091C68.64 71.6519 63.6793 71.1191 57.56 71.1191C51.4407 71.1191 46.48 71.6519 46.48 72.3091C46.48 72.9664 51.4407 73.4991 57.56 73.4991Z" fill="#131314"/>
<path opacity="0.55" d="M57.5602 73.4694C63.558 73.4694 68.4202 72.9501 68.4202 72.3094C68.4202 71.6688 63.558 71.1494 57.5602 71.1494C51.5624 71.1494 46.7002 71.6688 46.7002 72.3094C46.7002 72.9501 51.5624 73.4694 57.5602 73.4694Z" fill="#131313"/>
<path opacity="0.55" d="M57.5599 73.4392C63.4362 73.4392 68.1999 72.9333 68.1999 72.3092C68.1999 71.6851 63.4362 71.1792 57.5599 71.1792C51.6836 71.1792 46.9199 71.6851 46.9199 72.3092C46.9199 72.9333 51.6836 73.4392 57.5599 73.4392Z" fill="#121212"/>
<path opacity="0.56" d="M57.5601 73.4192C63.3149 73.4192 67.9801 72.9223 67.9801 72.3092C67.9801 71.6962 63.3149 71.1992 57.5601 71.1992C51.8053 71.1992 47.1401 71.6962 47.1401 72.3092C47.1401 72.9223 51.8053 73.4192 57.5601 73.4192Z" fill="#111111"/>
<path opacity="0.56" d="M57.5599 73.3895C63.1932 73.3895 67.7599 72.906 67.7599 72.3095C67.7599 71.713 63.1932 71.2295 57.5599 71.2295C51.9266 71.2295 47.3599 71.713 47.3599 72.3095C47.3599 72.906 51.9266 73.3895 57.5599 73.3895Z" fill="#101010"/>
<path opacity="0.56" d="M57.5601 73.3593C63.0719 73.3593 67.5401 72.8892 67.5401 72.3093C67.5401 71.7294 63.0719 71.2593 57.5601 71.2593C52.0483 71.2593 47.5801 71.7294 47.5801 72.3093C47.5801 72.8892 52.0483 73.3593 57.5601 73.3593Z" fill="#0F0F0F"/>
<path opacity="0.56" d="M57.5598 73.3296C62.9501 73.3296 67.3198 72.8729 67.3198 72.3095C67.3198 71.7462 62.9501 71.2896 57.5598 71.2896C52.1695 71.2896 47.7998 71.7462 47.7998 72.3095C47.7998 72.8729 52.1695 73.3296 57.5598 73.3296Z" fill="#0E0E0E"/>
<path opacity="0.57" d="M57.56 73.3096C62.8288 73.3096 67.1 72.8619 67.1 72.3096C67.1 71.7573 62.8288 71.3096 57.56 71.3096C52.2912 71.3096 48.02 71.7573 48.02 72.3096C48.02 72.8619 52.2912 73.3096 57.56 73.3096Z" fill="#0D0D0D"/>
<path opacity="0.57" d="M57.5602 73.2794C62.7075 73.2794 66.8802 72.8451 66.8802 72.3094C66.8802 71.7736 62.7075 71.3394 57.5602 71.3394C52.4129 71.3394 48.2402 71.7736 48.2402 72.3094C48.2402 72.8451 52.4129 73.2794 57.5602 73.2794Z" fill="#0C0C0C"/>
<path opacity="0.57" d="M57.56 73.2491C62.5858 73.2491 66.66 72.8283 66.66 72.3091C66.66 71.79 62.5858 71.3691 57.56 71.3691C52.5342 71.3691 48.46 71.79 48.46 72.3091C48.46 72.8283 52.5342 73.2491 57.56 73.2491Z" fill="#0B0B0B"/>
<path opacity="0.57" d="M57.5602 73.2292C62.4645 73.2292 66.4402 72.8173 66.4402 72.3092C66.4402 71.8011 62.4645 71.3892 57.5602 71.3892C52.6559 71.3892 48.6802 71.8011 48.6802 72.3092C48.6802 72.8173 52.6559 73.2292 57.5602 73.2292Z" fill="#0A0A0A"/>
<path opacity="0.58" d="M57.5599 73.1994C62.3427 73.1994 66.2199 72.801 66.2199 72.3094C66.2199 71.8179 62.3427 71.4194 57.5599 71.4194C52.7771 71.4194 48.8999 71.8179 48.8999 72.3094C48.8999 72.801 52.7771 73.1994 57.5599 73.1994Z" fill="#090909"/>
<path opacity="0.58" d="M57.5601 73.1692C62.2214 73.1692 66.0001 72.7842 66.0001 72.3092C66.0001 71.8343 62.2214 71.4492 57.5601 71.4492C52.8988 71.4492 49.1201 71.8343 49.1201 72.3092C49.1201 72.7842 52.8988 73.1692 57.5601 73.1692Z" fill="#080808"/>
<path opacity="0.58" d="M57.5598 73.1395C62.0996 73.1395 65.7798 72.7679 65.7798 72.3095C65.7798 71.8511 62.0996 71.4795 57.5598 71.4795C53.0201 71.4795 49.3398 71.8511 49.3398 72.3095C49.3398 72.7679 53.0201 73.1395 57.5598 73.1395Z" fill="#070707"/>
<path opacity="0.58" d="M57.5601 73.1195C61.9783 73.1195 65.5601 72.7569 65.5601 72.3095C65.5601 71.8622 61.9783 71.4995 57.5601 71.4995C53.1418 71.4995 49.5601 71.8622 49.5601 72.3095C49.5601 72.7569 53.1418 73.1195 57.5601 73.1195Z" fill="#060606"/>
<path opacity="0.59" d="M57.5598 73.0893C61.8566 73.0893 65.3398 72.7401 65.3398 72.3093C65.3398 71.8785 61.8566 71.5293 57.5598 71.5293C53.263 71.5293 49.7798 71.8785 49.7798 72.3093C49.7798 72.7401 53.263 73.0893 57.5598 73.0893Z" fill="#050505"/>
<path opacity="0.59" d="M57.56 73.0596C61.7353 73.0596 65.12 72.7238 65.12 72.3096C65.12 71.8954 61.7353 71.5596 57.56 71.5596C53.3847 71.5596 50 71.8954 50 72.3096C50 72.7238 53.3847 73.0596 57.56 73.0596Z" fill="#040404"/>
<path opacity="0.59" d="M57.5602 73.0294C61.614 73.0294 64.9002 72.707 64.9002 72.3094C64.9002 71.9117 61.614 71.5894 57.5602 71.5894C53.5064 71.5894 50.2202 71.9117 50.2202 72.3094C50.2202 72.707 53.5064 73.0294 57.5602 73.0294Z" fill="#030303"/>
<path opacity="0.59" d="M57.5599 73.0094C61.4922 73.0094 64.6799 72.696 64.6799 72.3094C64.6799 71.9228 61.4922 71.6094 57.5599 71.6094C53.6277 71.6094 50.4399 71.9228 50.4399 72.3094C50.4399 72.696 53.6277 73.0094 57.5599 73.0094Z" fill="#020202"/>
<path opacity="0.6" d="M57.5602 72.9792C61.3709 72.9792 64.4602 72.6792 64.4602 72.3092C64.4602 71.9391 61.3709 71.6392 57.5602 71.6392C53.7494 71.6392 50.6602 71.9391 50.6602 72.3092C50.6602 72.6792 53.7494 72.9792 57.5602 72.9792Z" fill="#010101"/>
<path opacity="0.6" d="M57.5601 72.9494C61.2439 72.9494 64.2301 72.6629 64.2301 72.3094C64.2301 71.956 61.2439 71.6694 57.5601 71.6694C53.8764 71.6694 50.8901 71.956 50.8901 72.3094C50.8901 72.6629 53.8764 72.9494 57.5601 72.9494Z" fill="black"/>
</g>
<path d="M43.9598 60.5103C49.6264 56.8346 49.0086 45.8204 42.5797 35.9095C36.1509 25.9986 26.3456 20.9441 20.6789 24.6198C15.0122 28.2956 15.6301 39.3098 22.0589 49.2207C28.4877 59.1315 38.2931 64.1861 43.9598 60.5103Z" fill="#00AA45"/>
<path d="M33.3599 33.6594C38.7999 47.4094 43.9499 68.1994 39.3099 69.6294C34.6699 71.0694 24.0999 63.4094 19.7199 49.2694C15.3399 35.1294 15.5599 22.4994 20.1999 21.0594C24.8399 19.6194 29.1099 22.9294 33.3599 33.6594Z" fill="#00AA45"/>
<path d="M42.5898 67.8296C43.1698 69.2896 40.0898 71.3596 35.7098 72.4496C31.3298 73.5396 27.3098 73.2396 26.7298 71.7796C26.1498 70.3196 29.2298 68.2496 33.6098 67.1596C37.9898 66.0696 42.0098 66.3696 42.5898 67.8296Z" fill="#00AA45"/>
<path d="M27.4305 71.72C31.1398 70.8963 34.0051 69.5904 33.8303 68.8032C33.6556 68.0161 30.5068 68.0457 26.7975 68.8694C23.0881 69.6931 20.2228 70.999 20.3976 71.7861C20.5724 72.5733 23.7211 72.5437 27.4305 71.72Z" fill="#00AA45"/>
<path d="M29.9798 73.9696C26.4098 75.1096 23.2098 75.4396 22.8298 74.6996C22.4498 73.9596 25.0499 72.4396 28.6199 71.2996C32.1899 70.1596 35.3898 69.8296 35.7698 70.5696C36.1498 71.3096 33.5498 72.8296 29.9798 73.9696Z" fill="#00AA45"/>
<path d="M36.9802 73.6995C34.0502 75.6795 31.0502 76.7095 30.3002 76.0095C29.5402 75.3095 31.3102 73.1295 34.2402 71.1495C37.1702 69.1695 40.1702 68.1395 40.9202 68.8395C41.6702 69.5395 39.9102 71.7195 36.9802 73.6995Z" fill="#00AA45"/>
<path d="M91.1657 49.2096C97.5945 39.2987 98.2124 28.2846 92.5457 24.6088C86.879 20.933 77.0737 25.9876 70.6448 35.8985C64.216 45.8094 63.5981 56.8235 69.2648 60.4993C74.9315 64.1751 84.7369 59.1205 91.1657 49.2096Z" fill="#00AA45"/>
<path d="M79.8698 33.6594C74.4298 47.4094 69.2798 68.1994 73.9198 69.6294C78.5598 71.0694 89.1298 63.4094 93.5098 49.2694C97.8898 35.1294 97.6698 22.4994 93.0298 21.0594C88.3898 19.6194 84.1198 22.9294 79.8698 33.6594Z" fill="#00AA45"/>
<path d="M70.64 67.8296C70.06 69.2896 73.14 71.3596 77.52 72.4496C81.9 73.5396 85.92 73.2396 86.5 71.7796C87.08 70.3196 84 68.2496 79.62 67.1596C75.24 66.0696 71.22 66.3696 70.64 67.8296Z" fill="#00AA45"/>
<path d="M92.8377 71.7974C93.0125 71.0102 90.1471 69.7043 86.4378 68.8806C82.7284 68.0569 79.5797 68.0273 79.4049 68.8145C79.2301 69.6016 82.0954 70.9075 85.8048 71.7312C89.5141 72.5549 92.6629 72.5845 92.8377 71.7974Z" fill="#00AA45"/>
<path d="M83.2502 73.9696C86.8202 75.1096 90.0202 75.4396 90.4002 74.6996C90.7802 73.9596 88.1802 72.4396 84.6102 71.2996C81.0402 70.1596 77.8402 69.8296 77.4602 70.5696C77.0802 71.3096 79.6802 72.8296 83.2502 73.9696Z" fill="#00AA45"/>
<path d="M76.25 73.6995C79.18 75.6795 82.18 76.7095 82.93 76.0095C83.68 75.3095 81.92 73.1295 78.99 71.1495C76.06 69.1695 73.06 68.1395 72.31 68.8395C71.56 69.5395 73.32 71.7195 76.25 73.6995Z" fill="#00AA45"/>
<path d="M56.6199 72.5793C74.8508 72.5793 89.6299 58.2927 89.6299 40.6693C89.6299 23.0459 74.8508 8.75928 56.6199 8.75928C38.3889 8.75928 23.6099 23.0459 23.6099 40.6693C23.6099 58.2927 38.3889 72.5793 56.6199 72.5793Z" fill="#00C200"/>
<path d="M50.397 14.6933C51.5269 8.84226 47.6997 3.18307 41.8486 2.05316C35.9976 0.923248 30.3384 4.75048 29.2085 10.6015C28.0786 16.4526 31.9058 22.1118 37.7569 23.2417C43.6079 24.3716 49.2671 20.5444 50.397 14.6933Z" fill="#00C200"/>
<path d="M84.7242 14.686C85.8541 8.83494 82.0268 3.17575 76.1758 2.04584C70.3247 0.915924 64.6655 4.74316 63.5356 10.5942C62.4057 16.4453 66.233 22.1045 72.084 23.2344C77.9351 24.3643 83.5942 20.537 84.7242 14.686Z" fill="#00C200"/>
<path d="M49.4998 12.4896C49.4998 17.7896 45.1998 22.0896 39.8998 22.0896C34.5998 22.0896 30.2998 17.7896 30.2998 12.4896C30.2998 7.18965 34.5998 2.88965 39.8998 2.88965C45.1998 2.88965 49.4998 7.18965 49.4998 12.4896Z" fill="white"/>
<path d="M39.54 6.86939C40.43 6.73939 41.3 6.81939 42.11 7.04939C41.05 7.69939 40.43 8.93939 40.61 10.2494C40.87 12.0094 42.51 13.2294 44.27 12.9694C45.16 12.8294 45.91 12.3594 46.4 11.6794C46.43 11.7994 46.47 11.9094 46.49 12.0394C46.99 15.3794 44.67 18.4894 41.33 18.9894C37.99 19.4794 34.87 17.1794 34.37 13.8394C33.87 10.4894 36.19 7.3694 39.54 6.8794V6.86939Z" fill="#FF3B8D"/>
<path d="M83.95 12.4896C83.95 17.7896 79.65 22.0896 74.35 22.0896C69.05 22.0896 64.75 17.7896 64.75 12.4896C64.75 7.18965 69.05 2.88965 74.35 2.88965C79.65 2.88965 83.95 7.18965 83.95 12.4896Z" fill="white"/>
<path d="M73.9902 6.86939C74.8802 6.73939 75.7502 6.81939 76.5602 7.04939C75.5002 7.69939 74.8802 8.93939 75.0602 10.2494C75.3202 12.0094 76.9602 13.2294 78.7202 12.9694C79.6102 12.8294 80.3602 12.3594 80.8502 11.6794C80.8802 11.7994 80.9202 11.9094 80.9402 12.0394C81.4402 15.3794 79.1202 18.4894 75.7802 18.9894C72.4402 19.4794 69.3202 17.1794 68.8202 13.8394C68.3202 10.4894 70.6402 7.3694 73.9902 6.8794V6.86939Z" fill="#FF3B8D"/>
<path d="M79.2902 60.0995C79.2902 66.6295 69.1402 72.6195 56.6202 72.6195C44.1002 72.6195 33.9502 66.6295 33.9502 60.0995C33.9502 53.5695 44.1002 48.2695 56.6202 48.2695C69.1402 48.2695 79.2902 53.5695 79.2902 60.0995Z" fill="#20D700"/>
<path d="M60.0298 13.6297C60.0298 14.1597 60.6698 14.5797 61.4698 14.5797C62.2698 14.5797 62.9098 14.1497 62.9098 13.6297C62.9098 13.1097 62.2698 12.6797 61.4698 12.6797C60.6698 12.6797 60.0298 13.1097 60.0298 13.6297Z" fill="#20D700"/>
<path d="M54.5698 10.9197C54.5698 11.4397 55.2098 11.8697 56.0098 11.8697C56.8098 11.8697 57.4498 11.4397 57.4498 10.9197C57.4498 10.3997 56.8098 9.96973 56.0098 9.96973C55.2098 9.96973 54.5698 10.3997 54.5698 10.9197Z" fill="#20D700"/>
<path d="M51.4902 14.2894C51.4902 14.8194 52.1402 15.2394 52.9302 15.2394C53.7202 15.2394 54.3702 14.8094 54.3702 14.2894C54.3702 13.7694 53.7302 13.3394 52.9302 13.3394C52.1302 13.3394 51.4902 13.7594 51.4902 14.2894Z" fill="#20D700"/>
<path d="M92.9601 23.4894C92.9601 24.1094 92.2101 24.6194 91.2801 24.6194C90.3501 24.6194 89.6001 24.1194 89.6001 23.4894C89.6001 22.8594 90.3501 22.3594 91.2801 22.3594C92.2101 22.3594 92.9601 22.8594 92.9601 23.4894Z" fill="#00C200"/>
<path d="M93.3301 26.3393C93.3301 26.7993 92.6601 27.1593 91.8301 27.1593C91.0001 27.1593 90.3301 26.7893 90.3301 26.3393C90.3301 25.8893 91.0001 25.5093 91.8301 25.5093C92.6601 25.5093 93.3301 25.8793 93.3301 26.3393Z" fill="#00C200"/>
<path d="M95.06 24.7694C95.06 25.1394 94.6 25.4494 94.04 25.4494C93.48 25.4494 93.02 25.1494 93.02 24.7694C93.02 24.3894 93.48 24.0894 94.04 24.0894C94.6 24.0894 95.06 24.3894 95.06 24.7694Z" fill="#00C200"/>
<path d="M20.7002 23.3497C20.7002 23.9697 21.4502 24.4797 22.3802 24.4797C23.3102 24.4797 24.0602 23.9797 24.0602 23.3497C24.0602 22.7297 23.3102 22.2197 22.3802 22.2197C21.4502 22.2197 20.7002 22.7197 20.7002 23.3497Z" fill="#00C200"/>
<path d="M20.3198 26.1996C20.3198 26.6596 20.9898 27.0196 21.8198 27.0196C22.6498 27.0196 23.3198 26.6496 23.3198 26.1996C23.3198 25.7396 22.6498 25.3696 21.8198 25.3696C20.9898 25.3696 20.3198 25.7396 20.3198 26.1996Z" fill="#00C200"/>
<path d="M18.6001 24.6297C18.6001 24.9997 19.0601 25.3097 19.6201 25.3097C20.1801 25.3097 20.6401 25.0097 20.6401 24.6297C20.6401 24.2497 20.1801 23.9497 19.6201 23.9497C19.0601 23.9497 18.6001 24.2497 18.6001 24.6297Z" fill="#00C200"/>
<path d="M41.81 74.7896C42.65 74.8796 43.41 74.2896 43.49 73.4896L38.54 52.6696C38.62 51.8696 38 51.1396 37.16 51.0496C36.32 50.9596 35.56 51.5496 35.48 52.3496L40.43 73.1696C40.35 73.9696 40.97 74.6996 41.81 74.7896Z" fill="#00C200"/>
<path d="M42.1612 75.8509C43.3248 75.1285 43.8455 73.862 43.3242 73.0221C42.8028 72.1822 41.4368 72.0869 40.2731 72.8092C39.1094 73.5316 38.5887 74.7981 39.1101 75.638C39.6314 76.4779 40.9975 76.5732 42.1612 75.8509Z" fill="#00C200"/>
<path d="M39.4644 75.3564C40.7796 74.2776 41.5987 73.1019 41.294 72.7304C40.9893 72.3589 39.6761 72.9323 38.3609 74.011C37.0457 75.0898 36.2265 76.2655 36.5312 76.637C36.836 77.0085 38.1492 76.4352 39.4644 75.3564Z" fill="#00C200"/>
<path d="M40.8325 76.4868C41.9336 75.1975 42.5097 73.8819 42.1191 73.5484C41.7285 73.2148 40.5193 73.9896 39.4181 75.2788C38.317 76.5681 37.7409 77.8837 38.1315 78.2173C38.5221 78.5508 39.7313 77.7761 40.8325 76.4868Z" fill="#00C200"/>
<path d="M42.9632 76.2489C43.6022 74.6963 43.7186 73.2724 43.2232 73.0685C42.7278 72.8646 41.8082 73.958 41.1692 75.5106C40.5302 77.0631 40.4138 78.4871 40.9092 78.6909C41.4046 78.8948 42.3242 77.8015 42.9632 76.2489Z" fill="#00C200"/>
<path d="M71.3802 74.7896C70.5402 74.8796 69.7802 74.2896 69.7002 73.4896L74.6502 52.6696C74.5702 51.8696 75.1902 51.1396 76.0302 51.0496C76.8702 50.9596 77.6302 51.5496 77.7102 52.3496L72.7602 73.1696C72.8402 73.9696 72.2202 74.6996 71.3802 74.7896Z" fill="#00C200"/>
<path d="M74.0742 75.6366C74.5955 74.7967 74.0749 73.5302 72.9112 72.8078C71.7475 72.0855 70.3814 72.1808 69.8601 73.0207C69.3387 73.8606 69.8594 75.1271 71.0231 75.8495C72.1868 76.5718 73.5528 76.4765 74.0742 75.6366Z" fill="#00C200"/>
<path d="M76.6597 76.6295C76.9644 76.258 76.1453 75.0823 74.8301 74.0035C73.5149 72.9247 72.2017 72.3513 71.897 72.7228C71.5922 73.0943 72.4114 74.27 73.7266 75.3488C75.0418 76.4276 76.355 77.001 76.6597 76.6295Z" fill="#00C200"/>
<path d="M75.0478 78.2182C75.4384 77.8847 74.8623 76.5691 73.7612 75.2798C72.66 73.9905 71.4508 73.2158 71.0602 73.5493C70.6696 73.8829 71.2457 75.1985 72.3468 76.4878C73.448 77.777 74.6573 78.5518 75.0478 78.2182Z" fill="#00C200"/>
<path d="M72.2891 78.6883C72.7845 78.4845 72.6681 77.0605 72.0291 75.508C71.3901 73.9554 70.4705 72.862 69.9751 73.0659C69.4797 73.2698 69.5961 74.6937 70.2351 76.2463C70.8741 77.7989 71.7937 78.8922 72.2891 78.6883Z" fill="#00C200"/>
<path d="M56.8301 46.0296C51.8601 46.0296 47.3301 45.2496 43.3601 43.7096C40.1701 42.4696 37.3301 40.7396 34.9401 38.5696C30.8401 34.8496 29.4501 31.1296 29.4001 30.9696C29.2101 30.4396 29.4801 29.8596 30.0101 29.6696C30.5401 29.4796 31.1201 29.7496 31.3101 30.2796C31.7501 31.4696 33.3801 34.4396 36.3901 37.1496C38.6001 39.1396 41.2201 40.7196 44.1701 41.8596C47.8801 43.2896 52.1401 44.0096 56.8301 44.0096C61.8501 44.0096 66.3301 43.2896 70.1501 41.8596C73.1801 40.7296 75.8001 39.1496 77.9401 37.1696C80.8601 34.4796 82.2701 31.5296 82.6101 30.3496C82.7601 29.8096 83.3301 29.4996 83.8601 29.6496C84.4001 29.7996 84.7101 30.3596 84.5601 30.8996C84.5201 31.0596 83.4301 34.8096 79.4201 38.5596C77.0901 40.7396 74.2401 42.4696 70.9501 43.7196C66.8801 45.2596 62.1301 46.0296 56.8301 46.0296Z" fill="#00820C"/>
</svg>
