<svg width="1441" height="184" viewBox="0 0 1441 184" fill="none" xmlns="http://www.w3.org/2000/svg">
<g clip-path="url(#clip0_437_9220)">
<path d="M0.213867 183.756H1440.21V129.236C1418.97 113.356 1392.48 104.136 1363.91 104.646C1324.52 105.346 1289.75 124.366 1267.57 153.436C1247.19 139.636 1222.5 131.756 1196.02 132.226C1163.89 132.796 1134.83 145.556 1113.18 166.016C1101.25 162.446 1088.57 160.626 1075.45 160.856C1058.59 161.156 1042.57 164.816 1028.03 171.176C1004.84 144.946 970.744 128.656 933.004 129.326C910.204 129.726 888.954 136.276 870.804 147.346C848.474 127.826 819.104 116.206 787.104 116.776C783.184 116.846 779.314 117.106 775.494 117.526C738.424 81.1464 687.364 59.0864 631.334 60.0764C596.464 60.6964 563.834 70.1764 535.534 86.3264C498.544 33.3764 436.724 -0.793563 367.294 0.436438C305.034 1.54644 249.904 30.8864 213.884 76.0264C181.854 59.4164 145.344 50.3064 106.734 50.9864C67.9839 51.6764 31.7139 62.1464 0.213867 79.9964V183.746L0.213867 183.756Z" fill="#FAFAFF"/>
</g>
<path d="M1440.21 183.406H0.213867V199.406H1440.21V183.406Z" fill="#0078FF"/>
<defs>
<clipPath id="clip0_437_9220">
<rect width="1440" height="183.35" fill="white" transform="translate(0.213867 0.40625)"/>
</clipPath>
</defs>
</svg>
