<svg width="59" height="59" viewBox="0 0 59 59" fill="none" xmlns="http://www.w3.org/2000/svg">
<g clip-path="url(#clip0_437_9376)">
<path d="M29.6517 58.358C45.5785 58.358 58.4898 45.4467 58.4898 29.5198C58.4898 13.5929 45.5785 0.681641 29.6517 0.681641C13.7248 0.681641 0.813477 13.5929 0.813477 29.5198C0.813477 45.4467 13.7248 58.358 29.6517 58.358Z" fill="#6BCF00"/>
<path d="M30.0362 11.9481C29.8343 11.9001 29.6229 11.8809 29.4114 11.8809C28.2675 11.9001 27.2581 12.6595 26.9313 13.7553L24.4031 22.0511L15.7325 22.2145C14.5886 22.2338 13.5792 22.9932 13.2428 24.089C12.9159 25.1849 13.3197 26.3768 14.2617 27.0305L21.3751 31.9907L18.847 40.2865C18.5105 41.3823 18.9239 42.5743 19.8659 43.228C20.1543 43.4298 20.4812 43.574 20.808 43.6413C21.5482 43.8047 22.346 43.6413 22.9805 43.1703L29.9016 37.941L37.015 42.9107C37.3034 43.1126 37.6206 43.2472 37.9571 43.3241C38.6973 43.4875 39.4951 43.3241 40.1296 42.8531C41.0428 42.1609 41.4081 40.9594 41.0428 39.8731L38.207 31.6735L45.0705 26.4922C45.5896 26.1269 45.9741 25.579 46.1183 24.9157C46.4259 23.5219 45.5704 22.128 44.1957 21.7724C44.1669 21.7724 44.1285 21.7627 44.0996 21.7531C44.0323 21.7339 43.9554 21.7243 43.8881 21.7147C43.7247 21.6955 43.5709 21.6858 43.4171 21.6955L34.8041 21.8493L31.978 13.6592C31.6704 12.7748 30.9302 12.1308 30.0458 11.9385L30.0362 11.9481Z" fill="#08B000"/>
</g>
<defs>
<clipPath id="clip0_437_9376">
<rect width="57.6763" height="57.6763" fill="white" transform="translate(0.813477 0.681641)"/>
</clipPath>
</defs>
</svg>
