<svg width="504" height="277" viewBox="0 0 504 277" fill="none" xmlns="http://www.w3.org/2000/svg">
<g clip-path="url(#clip0_175_4625)">
<path d="M274.741 163.14C288.861 184.22 283.211 212.75 262.141 226.86C241.061 240.98 212.531 235.33 198.421 214.26C184.301 193.18 182.841 147.8 203.921 133.68C225.001 119.56 260.631 142.06 274.751 163.14H274.741Z" fill="#AC3BFF"/>
<path fill-rule="evenodd" clip-rule="evenodd" d="M239.53 214.18C239.53 210.41 236.59 207.36 232.97 207.36C229.35 207.36 226.41 210.41 226.41 214.18C226.41 217.95 229.35 221 232.97 221C236.59 221 239.53 217.95 239.53 214.18Z" fill="#AC3BFF"/>
<path fill-rule="evenodd" clip-rule="evenodd" d="M203.01 237.27C202.52 233.7 202.82 232.55 204.87 231C206.91 229.45 212.25 230.06 221.37 236.56C233.52 245.23 227.71 250.11 225.02 252.01C220.07 255.52 217.05 254.74 213.3 252.36C209.54 249.97 203.51 240.83 203.01 237.27Z" fill="#AC3BFF"/>
<path fill-rule="evenodd" clip-rule="evenodd" d="M208.77 221.4C204.23 226.43 201.17 234.67 204.14 237.34C207.11 240.01 214.98 236.12 219.52 231.09C224.06 226.06 223.54 221.8 220.57 219.12C217.6 216.45 213.31 216.37 208.77 221.4Z" fill="#AC3BFF"/>
<path fill-rule="evenodd" clip-rule="evenodd" d="M242.01 247.26C239.26 244.94 238.71 243.88 239.19 241.36C239.67 238.84 244.05 235.72 255.17 234.44C270 232.74 268.95 240.26 268.23 243.47C266.9 249.4 264.14 250.83 259.75 251.58C255.36 252.33 244.76 249.58 242 247.26H242.01Z" fill="#AC3BFF"/>
<path fill-rule="evenodd" clip-rule="evenodd" d="M235.67 231.61C235.67 238.38 238.91 246.55 242.9 246.55C246.89 246.55 250.14 238.38 250.14 231.61C250.14 224.84 246.9 222.02 242.9 222.02C238.9 222.02 235.67 224.84 235.67 231.61Z" fill="#AC3BFF"/>
<path d="M183.94 153.57C184.47 154.37 184.96 155.3 185.34 156.34C186.72 160.04 186.39 163.63 184.6 164.36C183.1 164.97 181.06 163.37 179.62 160.66C179.57 160.84 179.52 161.02 179.46 161.2C178.4 164.69 175.82 167.97 173.72 168.51C171.7 169.04 170.85 166.87 171.71 163.62C169.97 164.86 168.14 165.59 166.83 165.44C164.66 165.19 164.73 162.66 166.98 159.79C167.54 159.08 168.19 158.38 168.89 157.73C167 158.06 165.25 157.96 164.2 157.35C162.31 156.26 163.38 153.97 166.58 152.22C167.65 151.64 168.89 151.14 170.12 150.78C170.24 150.53 170.37 150.28 170.51 150.04C172.67 146.42 177.17 145.13 180.56 147.16C182.82 148.51 184 150.99 183.91 153.57H183.94Z" fill="#AC3BFF"/>
<path d="M191.31 147.35C191.03 147.6 190.72 147.8 190.4 147.97C189.09 148.94 184.89 151.14 182.44 152.51C180.31 153.58 178.78 153.27 177.39 151.68C176.45 150.61 176.17 149.19 176.52 147.91C177.05 145.89 183.66 140.75 185.93 139.91C187.84 138.75 190.34 139.06 191.83 140.76C193.51 142.68 193.28 145.63 191.32 147.35H191.31Z" fill="#AC3BFF"/>
<path d="M202.65 137.61C203.97 139.12 203.87 141.47 202.32 142.73C200.99 143.8 194.66 146.55 190.35 148.25C187.71 149.14 185.85 148.46 184.71 147.16C182.99 145.2 183.22 142.18 185.22 140.42C185.24 140.4 186.43 139.53 187.72 138.95C190.1 137.88 196.37 136.04 199.89 136.39C200.91 136.39 201.92 136.78 202.64 137.61H202.65Z" fill="#AC3BFF"/>
<path d="M306.5 157.46C304.64 156.34 300.51 156.79 297.27 158.47C297.1 158.56 296.93 158.65 296.77 158.74C297.7 155.82 297.42 153.24 295.93 152.6C294.16 151.84 291.36 154.12 289.68 157.69C289.21 158.7 288.88 159.69 288.68 160.63C286.78 162.36 285.83 164.95 286.45 167.51C287.38 171.35 291.44 173.66 295.54 172.67C295.82 172.6 296.08 172.52 296.35 172.43C297.47 173.06 298.69 173.6 299.86 173.95C303.35 175.02 305.74 174.18 305.19 172.07C304.89 170.9 303.74 169.58 302.18 168.46C303.13 168.5 304.09 168.48 304.99 168.38C308.62 167.97 310.48 166.25 309.13 164.53C308.32 163.49 306.52 162.69 304.42 162.31C307.34 160.65 308.3 158.53 306.5 157.45V157.46Z" fill="#AC3BFF"/>
<path d="M279.081 159.72C279.461 159.75 279.811 159.83 280.161 159.93C281.771 160.19 286.281 161.65 288.981 162.44C291.231 163.22 292.081 164.52 291.921 166.63C291.811 168.05 290.991 169.24 289.841 169.89C288.031 170.93 279.731 169.8 277.541 168.77C275.371 168.21 273.851 166.22 274.021 163.96C274.211 161.42 276.481 159.52 279.081 159.72Z" fill="#AC3BFF"/>
<path d="M264.191 158.44C264.341 156.44 266.091 154.87 268.081 155.1C269.771 155.29 276.171 157.89 280.391 159.79C282.881 161.05 283.691 162.86 283.561 164.57C283.361 167.18 281.051 169.12 278.381 168.92C278.351 168.92 276.901 168.67 275.591 168.16C273.161 167.21 267.461 164.01 265.241 161.25C264.531 160.53 264.101 159.52 264.181 158.43L264.191 158.44Z" fill="#AC3BFF"/>
<path d="M247.101 163.17L235.371 183.11L240.711 192.06L247.651 188.76L251.671 165.11L247.101 163.17Z" fill="#FB810F"/>
<path d="M255.83 161.51C255.6 164.62 252.89 166.94 249.79 166.71C246.69 166.48 244.36 163.77 244.59 160.67C244.82 157.57 247.52 155.24 250.63 155.47C253.73 155.7 256.06 158.41 255.83 161.51Z" fill="#FB810F"/>
<path d="M238.501 188.36L247.951 186.98L248.411 184.24L237.031 185.9L238.491 188.36H238.501ZM244.001 168.43L242.291 171.35L250.821 170.1L251.281 167.36L244.001 168.42V168.43ZM235.591 182.74L235.541 183.39L235.571 183.44L248.881 181.49L249.341 178.76L236.841 180.59L235.581 182.74H235.591ZM239.001 176.95L249.931 175.35L250.401 172.61L240.721 174.03L239.001 176.95Z" fill="#6BD700"/>
<path d="M254.551 157.5L245.021 158.89C244.791 159.44 244.631 160.04 244.591 160.67C244.561 160.99 244.581 161.31 244.601 161.62L255.731 159.99C255.551 159.06 255.131 158.2 254.551 157.49V157.5ZM245.131 163.53C245.601 164.5 246.331 165.32 247.251 165.89L254.421 164.84C255.121 164.06 255.611 163.08 255.781 161.98L245.141 163.54L245.131 163.53Z" fill="#6BD700"/>
<path d="M203.181 145.49C199.921 131.98 208.221 118.38 221.741 115.12C235.251 111.86 248.851 120.17 252.111 133.67C255.371 147.18 247.061 160.78 233.551 164.04C220.041 167.3 206.441 159 203.181 145.49Z" fill="#AC3BFF"/>
<path d="M320.261 45.4C303.381 28.31 272.301 31.65 250.841 52.86C250.811 52.89 250.791 52.92 250.761 52.95C247.341 53.9 243.921 55.15 240.561 56.75C236.281 58.79 232.361 61.23 228.851 63.98C216.871 61.88 204.091 65.26 194.551 74.22C178.461 89.34 177.671 114.64 192.791 130.73C202.171 140.7 215.451 144.8 228.031 142.86C228.921 144.12 229.901 145.34 230.981 146.49C245.081 161.49 270.361 160.63 287.461 144.57C293.781 138.63 298.101 131.44 300.311 123.97C304.401 121.41 308.321 118.33 311.971 114.73C333.431 93.53 337.141 62.49 320.261 45.4Z" fill="#AC3BFF"/>
<path d="M259.072 131.83C233.992 138.69 208.742 131.18 196.102 112.6C202.252 133.73 224.982 149.59 251.712 149.71C274.292 149.81 293.502 138.65 302.042 122.48C288.112 130.76 272.862 133.96 259.072 131.82V131.83Z" fill="#5E1E81"/>
<path d="M226.03 49.15C223.11 57.03 223.99 64.62 227.99 66.11C231.99 67.61 237.6 62.43 240.52 54.55C243.44 46.67 242.56 39.08 238.57 37.58C234.56 36.09 228.95 41.27 226.03 49.14V49.15Z" fill="#AC3BFF"/>
<path d="M227.99 53C225.47 59.79 225.6 66.11 228.28 67.11C230.96 68.11 235.17 63.41 237.69 56.62C240.21 49.83 240.08 43.51 237.4 42.5C234.72 41.5 230.51 46.2 227.99 53Z" fill="#FF10FF"/>
<path d="M175.93 81.8C184.42 80.88 191.67 83.64 192.14 87.97C192.6 92.3 186.1 96.55 177.61 97.47C169.12 98.39 161.86 95.63 161.4 91.3C160.94 86.97 167.44 82.72 175.93 81.8Z" fill="#AC3BFF"/>
<path d="M179.191 84.79C186.381 84.02 192.461 85.71 192.771 88.56C193.081 91.41 187.501 94.34 180.311 95.1C173.121 95.87 167.041 94.18 166.731 91.33C166.421 88.48 172.001 85.55 179.191 84.79Z" fill="#FF10FF"/>
<path d="M217.961 65.44C213.981 61.2 214.181 54.54 218.421 50.56C222.661 46.58 229.321 46.78 233.301 51.02C237.281 55.26 237.071 61.92 232.841 65.9C228.601 69.88 221.941 69.68 217.961 65.44Z" fill="white"/>
<path d="M200.611 81.6901C196.631 77.4501 196.841 70.7901 201.081 66.8101C205.311 62.8301 211.981 63.0401 215.961 67.2701C219.941 71.5101 219.731 78.1701 215.501 82.1501C211.271 86.1301 204.601 85.9301 200.621 81.6901H200.611Z" fill="white"/>
<path d="M317.33 108.76C318.89 111.42 321.51 112.93 324.01 112.34C327.31 111.56 329.16 107.44 328.15 103.12C327.58 100.69 326.22 98.72 324.55 97.6C322.59 101.45 320.18 105.2 317.33 108.76Z" fill="white"/>
<path d="M218.531 64.19C216.251 61.76 216.371 57.94 218.801 55.65C219.341 55.14 219.961 54.75 220.621 54.47C220.071 55.49 220.191 56.8 221.031 57.7C222.071 58.81 223.831 58.87 224.941 57.82C225.841 56.97 226.051 55.66 225.541 54.61C226.201 54.92 226.801 55.36 227.331 55.92C229.621 58.35 229.491 62.17 227.061 64.45C224.631 66.74 220.811 66.62 218.521 64.19H218.531Z" fill="#F69C00"/>
<path d="M205.23 79.43C202.95 77 203.07 73.18 205.5 70.9C206.05 70.38 206.66 70 207.32 69.72C206.76 70.74 206.89 72.05 207.73 72.94C208.78 74.05 210.53 74.1 211.64 73.06C212.54 72.21 212.75 70.91 212.24 69.85C212.89 70.16 213.5 70.6 214.03 71.16C216.31 73.59 216.2 77.4 213.76 79.69C211.33 81.98 207.52 81.85 205.23 79.42V79.43Z" fill="#F69C00"/>
<path d="M265.24 132.8C265.48 133.59 265.8 134.37 266.21 135.12C269.58 141.4 277.4 143.75 283.68 140.38C288.02 138.05 290.49 133.59 290.48 128.99C282.04 132.4 273.33 133.7 265.25 132.8H265.24Z" fill="#DF0059"/>
<path fill-rule="evenodd" clip-rule="evenodd" d="M278.771 132.35C280.131 134.81 282.672 137.99 282.672 137.99C282.672 137.99 281.351 134.22 280.431 132.04C279.881 132.15 279.321 132.26 278.771 132.35Z" fill="#5E1E81"/>
<path d="M233.68 135.15C233.68 135.91 233.77 136.7 233.96 137.5C234.97 141.82 238.47 144.68 241.76 143.91C244.92 143.16 246.75 139.34 246 135.22C241.78 135.68 237.64 135.65 233.67 135.16L233.68 135.15Z" fill="white"/>
<path d="M315.391 63.76C312.101 68.49 307.091 70.68 304.201 68.66C301.311 66.65 301.651 61.18 304.951 56.46C308.251 51.73 313.261 49.54 316.141 51.56C319.021 53.58 318.681 59.04 315.381 63.76H315.391Z" fill="#FF10FF"/>
<path d="M260.67 101.25C254.92 101.57 250.1 98.9701 249.91 95.4601C249.72 91.9501 254.23 88.8501 259.99 88.5401C265.74 88.2301 270.56 90.8201 270.75 94.3401C270.94 97.8601 266.42 100.95 260.67 101.26V101.25Z" fill="#FF10FF"/>
<path d="M195.621 82.9701C190.801 79.5601 189.061 73.0501 191.811 67.6201C194.551 62.1901 200.821 59.7101 206.421 61.5701C203.161 63.5001 200.171 66.6901 198.091 70.7901C196.011 74.9001 195.231 79.2101 195.611 82.9701H195.621Z" fill="#AC3BFF"/>
<path d="M210.091 55.2C209.401 49.39 213.051 43.79 218.871 42.21C224.691 40.63 230.671 43.6 233.021 48.96C229.451 47.84 225.101 47.75 220.711 48.94C216.311 50.14 212.611 52.42 210.091 55.19V55.2Z" fill="#AC3BFF"/>
<path d="M317.602 108.7C319.162 111.36 321.782 112.87 324.282 112.28C327.582 111.5 329.432 107.38 328.422 103.06C327.852 100.63 326.492 98.66 324.822 97.54C322.862 101.39 320.452 105.14 317.602 108.7Z" fill="white"/>
<path d="M251.74 52.89C242.8 54.79 232.25 60.27 222.53 68.69C214.6 75.56 208.54 83.26 204.86 90.52C200.08 99.96 259.57 51.22 251.74 52.89Z" fill="#AC3BFF"/>
<path d="M141.95 230.5C143.25 232.04 143.06 234.35 141.51 235.65C141.51 235.65 131.31 247.31 122.39 249.83C115.61 251.74 110.08 251.98 110.08 251.98C108.06 251.98 106.43 250.34 106.43 248.32L106.49 248.79C105.97 246.84 108.07 244.67 110.09 244.67C110.09 244.67 115.11 244.04 120.63 242.74C127.44 241.13 136.81 230.07 136.81 230.07C138.35 228.77 140.66 228.97 141.96 230.51L141.95 230.5Z" fill="#6BD700"/>
<path fill-rule="evenodd" clip-rule="evenodd" d="M161.621 202.11C161.621 198.35 158.691 195.31 155.081 195.31C151.471 195.31 148.541 198.35 148.541 202.11C148.541 205.87 151.471 208.91 155.081 208.91C158.691 208.91 161.621 205.87 161.621 202.11Z" fill="#0079FF"/>
<path fill-rule="evenodd" clip-rule="evenodd" d="M159.941 225.15C159.941 221.4 157.011 218.35 153.411 218.35C149.811 218.35 146.871 221.39 146.871 225.15C146.871 228.91 149.801 231.95 153.411 231.95C157.021 231.95 159.941 228.91 159.941 225.15Z" fill="#0079FF"/>
<path fill-rule="evenodd" clip-rule="evenodd" d="M133.151 247.8C132.161 244.35 132.311 243.17 134.111 241.36C135.911 239.55 141.261 239.4 151.171 244.54C164.371 251.39 159.321 257.02 156.941 259.28C152.541 263.44 149.461 263.09 145.421 261.26C141.381 259.43 134.141 251.25 133.161 247.81L133.151 247.8Z" fill="#0079FF"/>
<path fill-rule="evenodd" clip-rule="evenodd" d="M136.621 231.34C132.851 236.94 130.981 245.49 134.281 247.72C137.581 249.95 144.811 245 148.581 239.4C152.351 233.8 151.251 229.67 147.941 227.44C144.641 225.22 140.391 225.74 136.621 231.34Z" fill="#0079FF"/>
<path fill-rule="evenodd" clip-rule="evenodd" d="M165.07 251.75C162.34 249.42 161.8 248.36 162.3 245.86C162.79 243.35 167.17 240.27 178.27 239.07C193.06 237.47 191.97 244.95 191.23 248.15C189.87 254.05 187.11 255.46 182.73 256.18C178.35 256.9 167.8 254.08 165.07 251.76V251.75Z" fill="#0079FF"/>
<path fill-rule="evenodd" clip-rule="evenodd" d="M158.85 236.12C158.81 242.87 161.98 251.03 165.96 251.06C169.94 251.08 173.22 242.97 173.27 236.22C173.31 229.47 170.1 226.64 166.12 226.61C162.14 226.58 158.89 229.37 158.85 236.12Z" fill="#0079FF"/>
<path fill-rule="evenodd" clip-rule="evenodd" d="M180.451 217.77C180.451 205.11 169.311 194.84 155.571 194.84C141.831 194.84 130.691 205.1 130.691 217.77C130.691 230.44 141.831 240.7 155.571 240.7C169.311 240.7 180.451 230.43 180.451 217.77Z" fill="#0079FF"/>
<path d="M133.9 211.74C133.83 212.11 133.71 212.45 133.56 212.78C133.12 214.34 131.14 218.63 130.04 221.21C129.01 223.35 127.62 224.04 125.55 223.63C124.16 223.36 123.07 222.41 122.57 221.19C121.76 219.28 123.85 211.2 125.12 209.15C125.93 207.07 128.08 205.79 130.29 206.23C132.78 206.72 134.4 209.19 133.89 211.74H133.9Z" fill="#0079FF"/>
<path d="M136.922 197.15C138.882 197.53 140.232 199.45 139.772 201.39C139.382 203.04 136.062 209.07 133.692 213.03C132.152 215.34 130.272 215.93 128.582 215.6C126.022 215.1 124.372 212.58 124.882 209.97C124.882 209.94 125.302 208.53 125.962 207.29C127.182 204.99 131.022 199.73 134.012 197.86C134.812 197.24 135.852 196.94 136.922 197.15Z" fill="#0079FF"/>
<path d="M182.77 195.14C183.11 194.98 183.46 194.88 183.81 194.8C185.33 194.23 189.96 193.31 192.7 192.67C195.04 192.24 196.41 192.96 197.3 194.87C197.9 196.16 197.77 197.59 197.09 198.71C196.02 200.49 188.27 203.57 185.86 203.75C183.7 204.32 181.4 203.33 180.45 201.29C179.38 198.99 180.42 196.23 182.77 195.13V195.14Z" fill="#0079FF"/>
<path d="M169.21 201.31C168.37 199.5 169.12 197.28 170.96 196.51C172.53 195.85 179.35 194.98 183.95 194.56C186.73 194.44 188.32 195.61 189.04 197.17C190.14 199.53 189.08 202.35 186.67 203.48C186.64 203.49 185.26 203.99 183.87 204.19C181.29 204.56 174.78 204.56 171.51 203.25C170.54 202.97 169.68 202.31 169.21 201.32V201.31Z" fill="#0079FF"/>
<path fill-rule="evenodd" clip-rule="evenodd" d="M146.611 213.95C147.331 210.04 149.411 206.74 152.261 204.44C155.661 201.71 160.151 200.41 164.741 201.25C173.181 202.8 178.741 211 177.161 219.57C175.591 228.13 167.471 233.81 159.031 232.26C150.591 230.71 145.031 222.51 146.601 213.95H146.611Z" fill="#6BD700"/>
<path fill-rule="evenodd" clip-rule="evenodd" d="M108.89 171.3C104.74 156.88 108.63 142.06 117.91 131.62L117.29 131.16L106.39 122.95C106.39 122.95 95.0304 138.91 102.36 160.9C104.5 167.33 107.17 172.35 110.88 176.76C110.11 175.01 109.44 173.19 108.9 171.3H108.89Z" fill="#0079FF"/>
<path fill-rule="evenodd" clip-rule="evenodd" d="M175.261 125.77C170.281 110.81 159.351 103.93 159.351 103.93L152.401 115.68L151.051 117.93C159.911 117.68 168.431 120.55 175.261 125.77Z" fill="#0079FF"/>
<path fill-rule="evenodd" clip-rule="evenodd" d="M106.4 172.02C99.5703 148.28 113.27 123.49 137.02 116.66C160.76 109.83 185.55 123.53 192.38 147.28C199.21 171.02 185.5 195.81 161.76 202.64C138.02 209.47 113.23 195.76 106.4 172.02Z" fill="#0079FF"/>
<path d="M166.601 118.35C165.661 114.6 163.381 111.27 160.101 108.42C159.231 110.33 157.671 113.01 155.941 115.38C159.621 115.93 163.201 116.93 166.591 118.35H166.601Z" fill="#6BE100"/>
<path d="M108.42 151.34C108.18 151.03 107.95 150.71 107.73 150.37C103.1 143.5 103.3 134.8 107.52 128.25C109.99 131.14 113.16 133.18 116.6 134.29C112.66 139.24 109.83 145.06 108.41 151.34H108.42Z" fill="#6BE100"/>
<path fill-rule="evenodd" clip-rule="evenodd" d="M176.491 128.34C172.261 121.11 165.681 117.13 160.621 119.21C158.701 120 157.241 121.58 156.281 123.67C149.141 119.25 139.981 119 132.731 123.79C130.171 125.49 127.381 128.47 126.541 130.1C125.701 131.73 124.721 135.73 124.721 135.75C123.681 142.39 125.881 149.98 131.261 156.01C135.851 161.16 141.821 164.13 147.651 164.73C147.771 164.73 147.881 164.75 148.001 164.75C148.001 164.75 147.981 164.76 147.971 164.76C148.011 164.76 148.041 164.76 148.081 164.77C147.991 164.8 147.891 164.82 147.801 164.85C145.991 165.8 144.041 166.55 141.951 167.03C132.061 169.3 122.201 165.12 116.771 157.25C116.791 160.58 117.221 163.97 118.101 167.35C123.601 188.46 144.431 201.3 164.641 196.04C184.841 190.78 196.771 169.41 191.271 148.3C188.891 139.16 183.461 132.71 176.491 128.33V128.34Z" fill="#6BE100"/>
<path fill-rule="evenodd" clip-rule="evenodd" d="M160.33 129.64C158.71 124 161.96 118.12 167.59 116.5C173.22 114.88 179.1 118.13 180.72 123.77C182.34 129.4 179.09 135.28 173.46 136.9C167.83 138.52 161.95 135.27 160.33 129.64Z" fill="white"/>
<path d="M161.88 128.67C160.72 125.71 162.17 122.36 165.13 121.2C165.8 120.94 166.48 120.81 167.16 120.8C166.3 121.51 165.96 122.71 166.38 123.8C166.91 125.16 168.45 125.82 169.8 125.29C170.9 124.86 171.55 123.77 171.47 122.66C171.94 123.17 172.33 123.77 172.59 124.45C173.76 127.41 172.3 130.76 169.33 131.92C166.37 133.08 163.02 131.63 161.86 128.67H161.88Z" fill="#F69C00"/>
<path fill-rule="evenodd" clip-rule="evenodd" d="M159.861 149.06C157.861 142.12 162.111 134.8 169.351 132.72C176.591 130.64 184.081 134.58 186.081 141.52C188.081 148.46 183.831 155.78 176.591 157.86C169.351 159.94 161.861 156 159.861 149.06Z" fill="#DF0059"/>
<path fill-rule="evenodd" clip-rule="evenodd" d="M169.031 136.9C175.391 135.7 181.481 139.68 182.631 145.77C182.771 146.52 182.831 147.28 182.811 148.02C183.651 146.27 183.971 144.27 183.581 142.24C182.601 137.03 177.391 133.62 171.951 134.65C169.691 135.08 167.751 136.2 166.311 137.75C167.161 137.37 168.061 137.08 169.021 136.9H169.031Z" fill="#FF3987"/>
<path fill-rule="evenodd" clip-rule="evenodd" d="M130.861 144.09C128.771 136.81 132.971 129.21 140.251 127.12C147.531 125.02 155.131 129.23 157.221 136.51C159.321 143.79 155.121 151.39 147.841 153.48C140.561 155.58 132.961 151.37 130.861 144.09Z" fill="white"/>
<path d="M136.851 143.47C135.411 140.09 136.991 136.19 140.361 134.76C141.121 134.44 141.911 134.27 142.691 134.23C141.721 135.07 141.361 136.47 141.891 137.71C142.551 139.26 144.341 139.98 145.881 139.32C147.131 138.79 147.841 137.52 147.721 136.23C148.271 136.8 148.741 137.48 149.071 138.26C150.511 141.63 148.931 145.54 145.561 146.97C142.191 148.41 138.281 146.83 136.851 143.46V143.47Z" fill="#F69C00"/>
<path d="M130.221 224.53C130.731 225.33 131.201 226.28 131.561 227.32C132.861 231.03 132.451 234.61 130.661 235.3C129.151 235.88 127.151 234.25 125.781 231.51C125.731 231.68 125.671 231.86 125.611 232.05C124.471 235.51 121.841 238.72 119.741 239.21C117.721 239.69 116.911 237.52 117.841 234.3C116.081 235.5 114.241 236.19 112.941 236.01C110.781 235.72 110.911 233.2 113.211 230.38C113.781 229.68 114.441 229 115.161 228.37C113.271 228.66 111.531 228.52 110.501 227.9C108.641 226.78 109.751 224.51 112.981 222.84C114.061 222.28 115.301 221.81 116.541 221.48C116.661 221.23 116.801 220.98 116.951 220.74C119.181 217.18 123.691 215.99 127.031 218.08C129.251 219.47 130.381 221.97 130.241 224.53H130.221Z" fill="#6BD700"/>
<path d="M211.221 184.64C210.011 184.13 208.051 184.32 206.041 185.02C207.771 182.15 207.561 179.84 205.481 179.78C203.321 179.71 199.951 182.13 197.951 185.17C197.841 185.34 197.741 185.49 197.651 185.65C197.031 182.66 195.521 180.56 193.921 180.72C192.011 180.92 190.691 184.27 190.981 188.19C191.061 189.3 191.261 190.32 191.551 191.23C190.751 193.67 191.191 196.37 192.971 198.29C195.651 201.17 200.311 201.19 203.391 198.33C203.601 198.14 203.791 197.94 203.971 197.73C205.251 197.73 206.571 197.6 207.761 197.34C211.311 196.56 212.981 194.67 211.471 193.1C210.641 192.23 209.001 191.65 207.091 191.44C207.941 191.02 208.761 190.53 209.491 190C212.441 187.88 213.211 185.47 211.211 184.63L211.221 184.64Z" fill="#6BD700"/>
<path d="M160.41 176.69C151.01 178.95 141.59 175.99 135.15 169.7C135.11 171.66 135.29 173.65 135.78 175.65C138.84 188.38 151.64 196.22 164.37 193.16C177.1 190.1 184.94 177.3 181.88 164.57C181.4 162.57 180.66 160.72 179.74 158.98C176.86 167.52 169.82 174.44 160.42 176.7L160.41 176.69Z" fill="#0079FF"/>
<path fill-rule="evenodd" clip-rule="evenodd" d="M342.161 215.09C342.161 211.32 339.231 208.27 335.601 208.27C331.971 208.27 329.041 211.32 329.041 215.09C329.041 218.86 331.971 221.91 335.601 221.91C339.231 221.91 342.161 218.86 342.161 215.09Z" fill="#FFE700"/>
<path fill-rule="evenodd" clip-rule="evenodd" d="M341.52 233.21C341.52 229.44 338.59 226.39 334.96 226.39C331.33 226.39 328.4 229.44 328.4 233.21C328.4 236.98 331.34 240.03 334.96 240.03C338.58 240.03 341.52 236.98 341.52 233.21Z" fill="#FFE700"/>
<path fill-rule="evenodd" clip-rule="evenodd" d="M337.74 156.73C336.94 153.05 333.42 150.69 329.88 151.46C326.34 152.23 324.12 155.84 324.93 159.52C325.73 163.2 329.25 165.56 332.79 164.79C336.33 164.02 338.55 160.41 337.75 156.73H337.74Z" fill="#FFE700"/>
<path d="M322.741 227.58C321.711 227.42 320.631 228.67 320.171 230.48C318.861 233.95 316.591 237.1 313.401 239.48C306.561 244.58 297.531 244.67 290.711 240.39C297.651 247.33 308.811 248.3 316.911 242.27C319.811 240.11 321.951 237.31 323.301 234.22C323.721 233.59 324.061 232.75 324.211 231.79C324.551 229.65 323.901 227.76 322.741 227.58Z" fill="#FFE700"/>
<path fill-rule="evenodd" clip-rule="evenodd" d="M315.67 228.98C315.67 217.06 324.96 207.4 336.42 207.4C347.88 207.4 357.17 217.06 357.17 228.98C357.17 240.9 347.88 250.56 336.42 250.56C324.96 250.56 315.67 240.9 315.67 228.98Z" fill="#FFE700"/>
<path fill-rule="evenodd" clip-rule="evenodd" d="M362.49 119.6C341.26 119.46 325.76 138.75 324.04 153.45C322.32 168.15 335.03 172.69 356.25 172.83C377.48 172.96 396.08 161.16 397.8 146.46C399.52 131.76 383.71 119.74 362.48 119.6H362.49Z" fill="#FF005B"/>
<path fill-rule="evenodd" clip-rule="evenodd" d="M285.59 153.21C299.87 137.36 322.69 139.02 333.26 147.77C343.82 156.52 338.13 169.05 323.85 184.9C309.57 200.75 289.44 206.5 278.87 197.76C268.31 189.01 271.31 169.07 285.59 153.22V153.21Z" fill="#FF0000"/>
<path d="M298.22 189.86C293.6 168.66 307.04 147.74 328.23 143.12C349.43 138.5 370.36 151.94 374.97 173.13C379.59 194.33 366.15 215.25 344.95 219.87C323.76 224.49 302.83 211.05 298.21 189.86H298.22Z" fill="#FFE700"/>
<path fill-rule="evenodd" clip-rule="evenodd" d="M307.271 156.88C305.921 151.28 309.371 145.65 314.971 144.31C320.571 142.96 326.191 146.41 327.541 152.01C328.881 157.61 325.441 163.24 319.841 164.58C314.241 165.92 308.621 162.47 307.271 156.88Z" fill="white"/>
<path fill-rule="evenodd" clip-rule="evenodd" d="M341.761 158.3C340.601 153.48 343.571 148.63 348.391 147.47C353.211 146.31 358.061 149.28 359.221 154.1C360.381 158.93 357.411 163.77 352.591 164.93C347.771 166.09 342.921 163.12 341.761 158.29V158.3Z" fill="white"/>
<path d="M347.112 155.56C346.362 152.45 348.282 149.32 351.392 148.57C352.092 148.4 352.792 148.37 353.472 148.46C352.522 149.04 352.002 150.19 352.282 151.34C352.622 152.76 354.052 153.64 355.482 153.3C356.632 153.02 357.432 152.03 357.512 150.91C357.912 151.48 358.202 152.14 358.382 152.85C359.132 155.96 357.212 159.09 354.102 159.83C350.992 160.58 347.872 158.66 347.122 155.55L347.112 155.56Z" fill="#00C100"/>
<path d="M309.501 158.01C308.631 154.4 310.851 150.77 314.461 149.9C315.271 149.7 316.091 149.67 316.881 149.77C315.771 150.45 315.171 151.78 315.501 153.11C315.901 154.77 317.561 155.78 319.221 155.39C320.561 155.07 321.481 153.92 321.571 152.61C322.031 153.28 322.381 154.04 322.581 154.87C323.451 158.48 321.221 162.11 317.611 162.98C314.001 163.85 310.371 161.62 309.511 158.01H309.501Z" fill="#00C100"/>
<path fill-rule="evenodd" clip-rule="evenodd" d="M327.48 172.32C326.15 166.23 330.23 160.17 336.58 158.78C342.93 157.4 349.16 161.21 350.49 167.3C351.82 173.39 347.74 179.45 341.39 180.84C335.04 182.22 328.81 178.41 327.48 172.32Z" fill="#DF0059"/>
<path fill-rule="evenodd" clip-rule="evenodd" d="M329.381 259.87C332.091 258.01 332.691 257.09 332.481 254.76C332.271 252.43 328.571 249.2 318.571 247.03C305.241 244.14 305.521 251.07 305.881 254.06C306.551 259.57 308.931 261.12 312.861 262.2C316.781 263.27 326.671 261.73 329.391 259.87H329.381Z" fill="#FFE700"/>
<path fill-rule="evenodd" clip-rule="evenodd" d="M336.562 246.22C335.952 252.38 332.262 259.51 328.632 259.15C325.002 258.79 322.792 251.07 323.402 244.91C324.012 238.75 327.212 236.48 330.852 236.84C334.482 237.2 337.172 240.05 336.562 246.22Z" fill="#FFE700"/>
<path fill-rule="evenodd" clip-rule="evenodd" d="M341.48 258.03C338.98 255.9 338.48 254.92 338.94 252.63C339.39 250.33 343.41 247.51 353.58 246.4C367.14 244.93 366.14 251.8 365.46 254.73C364.21 260.14 361.68 261.43 357.67 262.09C353.66 262.75 343.98 260.17 341.48 258.04V258.03Z" fill="#FFE700"/>
<path fill-rule="evenodd" clip-rule="evenodd" d="M335.781 243.69C335.741 249.88 338.651 257.36 342.301 257.38C345.951 257.4 348.961 249.96 349.001 243.77C349.041 237.58 346.091 234.99 342.441 234.96C338.791 234.94 335.821 237.49 335.771 243.68L335.781 243.69Z" fill="#FFE700"/>
<path d="M301.421 215.49C301.571 214.63 301.621 213.67 301.551 212.65C301.301 209.05 299.681 206.18 297.911 206.25C296.431 206.31 295.331 208.41 295.161 211.21C295.051 211.08 294.941 210.95 294.821 210.82C292.621 208.31 289.241 206.55 287.291 206.9C285.411 207.22 285.511 209.35 287.461 211.73C285.541 211.35 283.741 211.44 282.711 212.06C281.001 213.08 282.011 215.16 284.961 216.71C285.691 217.09 286.501 217.43 287.321 217.71C285.621 218.15 284.211 218.89 283.561 219.79C282.391 221.41 284.151 222.92 287.471 223.16C288.581 223.24 289.801 223.19 290.961 223.03C291.151 223.2 291.351 223.36 291.571 223.5C294.741 225.7 298.971 225.08 301.031 222.12C302.401 220.15 302.451 217.63 301.411 215.53L301.421 215.49Z" fill="#FFE700"/>
<path d="M309.89 217.89C309.56 217.79 309.23 217.74 308.9 217.72C307.45 217.4 303.12 217.16 300.56 216.94C298.38 216.85 297.23 217.68 296.67 219.53C296.29 220.78 296.59 222.06 297.36 222.99C298.56 224.47 305.99 226.26 308.21 226.11C310.24 226.35 312.2 225.16 312.8 223.18C313.48 220.95 312.18 218.58 309.9 217.89H309.89Z" fill="#FFE700"/>
<path d="M323 221.73C323.53 219.98 322.56 218.06 320.79 217.6C319.28 217.2 312.98 217.3 308.75 217.51C306.21 217.76 304.93 219.03 304.47 220.54C303.78 222.82 305.1 225.25 307.43 225.96C307.46 225.96 308.77 226.24 310.06 226.24C312.44 226.24 318.36 225.4 321.16 223.79C322.01 223.41 322.7 222.7 322.99 221.74L323 221.73Z" fill="#FFE700"/>
<path d="M374.93 245.28C373.73 245.16 372.24 244.15 370.92 242.71C371.06 245.78 369.88 247.55 368.18 246.68C366.41 245.79 364.75 242.37 364.47 239.04C364.46 238.86 364.45 238.69 364.43 238.52C362.62 240.66 360.49 241.69 359.27 240.86C357.82 239.86 358.22 236.59 360.17 233.55C360.72 232.69 361.33 231.95 361.96 231.35C362.38 229.03 363.92 227.05 366.2 226.28C369.62 225.13 373.39 227.15 374.62 230.81C374.7 231.06 374.77 231.3 374.83 231.55C375.86 232.11 376.87 232.79 377.71 233.52C380.23 235.7 380.74 237.96 378.84 238.56C377.79 238.9 376.21 238.65 374.59 237.99C375.09 238.7 375.54 239.46 375.9 240.2C377.35 243.2 376.92 245.48 374.93 245.27V245.28Z" fill="#FFE700"/>
<path d="M356.6 224.38C356.8 224.66 357.04 224.89 357.29 225.11C358.27 226.23 361.59 229.01 363.52 230.71C365.22 232.08 366.64 232.1 368.19 230.95C369.24 230.18 369.76 228.96 369.7 227.76C369.62 225.86 364.72 219.98 362.85 218.79C361.36 217.39 359.08 217.18 357.42 218.4C355.55 219.78 355.18 222.46 356.6 224.38Z" fill="#FFE700"/>
<path d="M348.371 213.48C346.901 214.57 346.531 216.69 347.681 218.11C348.661 219.33 353.781 223.01 357.301 225.36C359.491 226.67 361.281 226.42 362.541 225.48C364.461 224.06 364.841 221.32 363.391 219.36C363.371 219.34 362.481 218.33 361.441 217.57C359.521 216.15 354.281 213.3 351.071 212.92C350.171 212.72 349.181 212.88 348.381 213.47L348.371 213.48Z" fill="#FFE700"/>
<path d="M377.661 188.19C378.941 187.94 380.821 188.51 382.641 189.59C381.521 186.45 382.181 184.23 384.221 184.59C386.341 184.95 389.161 187.99 390.511 191.36C390.581 191.54 390.651 191.71 390.711 191.88C391.911 189.08 393.791 187.33 395.331 187.82C397.161 188.4 397.781 191.93 396.731 195.7C396.431 196.76 396.031 197.73 395.571 198.56C395.871 201.1 394.911 203.65 392.781 205.17C389.591 207.45 385.031 206.53 382.591 203.13C382.431 202.9 382.281 202.66 382.141 202.42C380.891 202.16 379.621 201.77 378.511 201.28C375.191 199.81 373.941 197.63 375.731 196.4C376.721 195.72 378.431 195.48 380.331 195.65C379.581 195.07 378.881 194.43 378.271 193.77C375.801 191.11 375.521 188.61 377.651 188.19H377.661Z" fill="#D900EB"/>
<path d="M403.381 204.12C403.081 203.9 402.761 203.73 402.431 203.58C401.051 202.73 396.711 200.89 394.171 199.73C391.971 198.85 390.481 199.27 389.241 200.96C388.401 202.1 388.241 203.52 388.691 204.75C389.381 206.7 396.351 211.25 398.671 211.91C400.661 212.9 403.101 212.4 404.441 210.59C405.941 208.56 405.471 205.66 403.391 204.11L403.381 204.12Z" fill="#D900EB"/>
<path d="M415.411 212.84C416.591 211.25 416.301 208.93 414.651 207.81C413.251 206.85 406.751 204.64 402.351 203.32C399.661 202.65 397.881 203.48 396.861 204.85C395.321 206.93 395.801 209.9 397.931 211.48C397.961 211.5 399.201 212.26 400.521 212.73C402.961 213.6 409.331 214.91 412.781 214.28C413.781 214.2 414.761 213.72 415.401 212.85L415.411 212.84Z" fill="#D900EB"/>
<path d="M468.48 135.94C465.52 150.46 457.12 161 449.71 159.49C442.3 157.99 438.68 145 441.64 130.49C444.6 115.97 453 105.43 460.42 106.93C467.83 108.43 471.45 121.42 468.49 135.94H468.48Z" fill="#D900EB"/>
<path d="M462.85 140.79C459.96 154.98 453.05 165.56 447.43 164.41C441.8 163.27 439.58 150.84 442.47 136.65C445.36 122.46 452.26 111.88 457.89 113.02C463.51 114.17 465.73 126.6 462.85 140.79Z" fill="#EB74EB"/>
<path d="M443.5 229.46C442.18 225.23 444.69 220.69 449.11 219.31C453.53 217.93 458.19 220.24 459.51 224.47C460.83 228.7 458.32 233.24 453.9 234.62C449.48 236 444.82 233.69 443.5 229.46Z" fill="#EB74EB"/>
<path fill-rule="evenodd" clip-rule="evenodd" d="M426.53 255.13C429.27 252.83 429.81 251.78 429.33 249.28C428.85 246.78 424.5 243.69 413.44 242.42C398.7 240.73 399.74 248.19 400.45 251.37C401.77 257.25 404.51 258.67 408.88 259.41C413.24 260.15 423.79 257.42 426.53 255.12V255.13Z" fill="#D900EB"/>
<path fill-rule="evenodd" clip-rule="evenodd" d="M432.831 239.61C432.831 246.33 429.611 254.43 425.641 254.43C421.671 254.43 418.451 246.33 418.451 239.61C418.451 232.89 421.671 230.1 425.641 230.1C429.611 230.1 432.831 232.89 432.831 239.61Z" fill="#D900EB"/>
<path fill-rule="evenodd" clip-rule="evenodd" d="M460.871 240.91C460.191 237.4 459.531 236.42 457.121 235.62C454.711 234.82 449.891 237.13 443.411 246.18C434.781 258.25 441.811 260.96 444.941 261.88C450.721 263.58 453.301 261.88 456.061 258.41C458.821 254.96 461.551 244.41 460.871 240.9V240.91Z" fill="#D900EB"/>
<path fill-rule="evenodd" clip-rule="evenodd" d="M450.36 227.87C456.24 231.13 461.76 237.87 459.83 241.34C457.9 244.81 449.261 243.7 443.381 240.44C437.501 237.18 436.621 233.01 438.551 229.53C440.471 226.06 444.48 224.6 450.36 227.86V227.87Z" fill="#D900EB"/>
<path fill-rule="evenodd" clip-rule="evenodd" d="M434.19 205.56C434.19 201.82 431.27 198.8 427.67 198.8C424.07 198.8 421.15 201.83 421.15 205.56C421.15 209.29 424.07 212.33 427.67 212.33C431.27 212.33 434.19 209.3 434.19 205.56Z" fill="#D900EB"/>
<path fill-rule="evenodd" clip-rule="evenodd" d="M437.88 226.79C437.88 223.05 434.96 220.03 431.36 220.03C427.76 220.03 424.84 223.06 424.84 226.79C424.84 230.52 427.76 233.56 431.36 233.56C434.96 233.56 437.88 230.53 437.88 226.79Z" fill="#D900EB"/>
<path fill-rule="evenodd" clip-rule="evenodd" d="M455.371 165.88C456.351 162.28 454.341 158.59 450.861 157.64C447.391 156.69 443.771 158.84 442.791 162.45C441.811 166.05 443.821 169.74 447.301 170.69C450.771 171.64 454.391 169.49 455.371 165.88Z" fill="#D900EB"/>
<path fill-rule="evenodd" clip-rule="evenodd" d="M453.191 219.75C453.191 207.4 443.551 197.4 431.651 197.4C419.751 197.4 410.111 207.4 410.111 219.75C410.111 232.1 419.751 242.1 431.651 242.1C443.551 242.1 453.191 232.1 453.191 219.75Z" fill="#D900EB"/>
<path d="M483.07 171.97C469.12 177.45 455.5 176.05 452.64 168.85C449.78 161.64 458.77 151.36 472.72 145.87C486.67 140.39 500.29 141.78 503.15 148.99C506.01 156.19 497.02 166.48 483.07 171.97Z" fill="#D900EB"/>
<path d="M479.99 170.94C468.79 175.34 457.79 174.08 455.43 168.12C453.07 162.16 460.23 153.76 471.43 149.36C482.63 144.96 493.62 146.22 495.99 152.18C498.36 158.14 491.19 166.54 479.99 170.94Z" fill="#EB74EB"/>
<path d="M402.041 168.79C408.371 151.53 427.541 142.67 444.841 149.02C462.151 155.36 471.041 174.49 464.711 191.75C458.381 209.01 439.221 217.86 421.911 211.52C404.611 205.18 395.711 186.05 402.041 168.79Z" fill="#D900EB"/>
<path d="M418.901 144.11C421.351 138.99 427.511 136.83 432.651 139.28C437.791 141.74 439.791 147.73 437.341 152.85C434.881 157.98 428.901 160.3 423.761 157.84C418.631 155.38 416.451 149.24 418.911 144.11H418.901Z" fill="#EBEBEB"/>
<path d="M423.65 147.81C425.06 144.87 428.6 143.63 431.55 145.04C432.22 145.36 432.8 145.78 433.28 146.28C432.14 146.13 430.99 146.71 430.48 147.8C429.84 149.14 430.41 150.76 431.76 151.41C432.85 151.93 434.12 151.66 434.91 150.82C434.86 151.53 434.67 152.24 434.35 152.92C432.94 155.86 429.41 157.1 426.45 155.69C423.5 154.28 422.25 150.75 423.66 147.81H423.65Z" fill="#00C100"/>
<path d="M438.5 153.1C440.89 148.11 446.88 146.01 451.89 148.4C456.89 150.8 459.01 156.78 456.62 161.77C454.23 166.76 448.24 168.87 443.23 166.47C438.23 164.08 436.11 158.09 438.5 153.1Z" fill="#EBEBEB"/>
<path d="M442.33 155.88C443.74 152.94 447.28 151.7 450.23 153.11C450.9 153.43 451.47 153.85 451.95 154.36C450.82 154.22 449.67 154.79 449.15 155.87C448.5 157.22 449.08 158.84 450.43 159.48C451.52 160 452.79 159.73 453.58 158.9C453.52 159.61 453.34 160.32 453.01 160.99C451.6 163.93 448.07 165.18 445.12 163.77C442.17 162.36 440.92 158.83 442.33 155.88Z" fill="#00C100"/>
<path d="M432.78 182.92C424.85 182.32 418.22 177.63 414.76 171.09C414.25 172.61 413.89 174.21 413.76 175.9C412.96 186.62 421.02 195.97 431.75 196.79C442.48 197.61 451.83 189.58 452.63 178.86C452.75 177.18 452.64 175.54 452.35 173.96C447.96 179.9 440.71 183.53 432.78 182.93V182.92Z" fill="#EBEBEB"/>
<path d="M407.6 152.3C408.2 148.97 411.51 146.79 414.99 147.42C418.47 148.05 420.79 151.26 420.19 154.59C419.59 157.92 416.28 160.1 412.8 159.47C409.32 158.84 407 155.63 407.6 152.3Z" fill="#EB74EB"/>
<path d="M439.551 208.37C439.551 206.38 441.161 204.7 443.151 204.77C444.851 204.84 451.381 206.93 455.711 208.48C458.271 209.54 459.211 211.27 459.211 212.98C459.211 215.57 457.061 217.67 454.411 217.67C454.381 217.67 452.921 217.54 451.581 217.13C449.101 216.38 443.211 213.64 440.801 211.08C440.041 210.42 439.541 209.46 439.541 208.37H439.551Z" fill="#D900EB"/>
<path fill-rule="evenodd" clip-rule="evenodd" d="M430.031 249.23C430.031 252.33 427.511 254.84 424.401 254.84C421.291 254.84 418.771 252.33 418.771 249.23C418.771 246.13 421.291 243.61 424.401 243.61C427.511 243.61 430.031 246.12 430.031 249.23Z" fill="#D900EB"/>
<path fill-rule="evenodd" clip-rule="evenodd" d="M453.921 245.48C456.991 245.9 459.831 243.73 460.251 240.66C460.671 237.58 458.521 234.75 455.451 234.33C452.371 233.92 449.541 236.08 449.121 239.16C448.701 242.24 450.851 245.07 453.921 245.48Z" fill="#D900EB"/>
<path d="M432.65 139.29C432.11 139.03 431.55 138.83 430.98 138.67L431.03 135.45C431.04 134.72 430.46 134.11 429.72 134.1H429.6C428.87 134.09 428.26 134.67 428.25 135.4L428.2 138.28C427.78 138.28 427.37 138.31 426.95 138.36L425.92 135.21C425.69 134.51 424.94 134.13 424.25 134.36L424.13 134.4C423.43 134.62 423.05 135.37 423.28 136.07L424.25 139.06C423.96 139.18 423.68 139.31 423.41 139.45L421.29 136.89C420.82 136.33 419.99 136.25 419.42 136.71L419.32 136.79C418.76 137.26 418.68 138.09 419.14 138.66L421.13 141.07C421.13 141.07 421.19 141.02 421.22 141C424.04 139.43 427.57 139.2 430.71 140.7C435.85 143.16 438.57 149.53 436.12 154.65C435.54 155.86 436.55 155 437.49 153.03C439.94 147.91 437.77 141.76 432.63 139.3L432.65 139.29Z" fill="#910E51"/>
<path d="M461.56 160.89L457.84 159.68C457.92 159.32 457.98 158.96 458.02 158.6L461.47 158.54C462.2 158.52 462.79 157.92 462.77 157.19V157.06C462.76 156.33 462.15 155.75 461.42 155.76L457.95 155.82C457.34 152.04 454.64 148.74 450.72 147.57C448.62 146.94 447.3 147.11 448.59 147.5C454.05 149.12 456.95 155.42 455.33 160.86C454.33 164.21 451.78 166.67 448.69 167.69C450.93 167.49 453.02 166.57 454.68 165.09L458.08 167.9C458.65 168.36 459.48 168.29 459.95 167.72L460.03 167.62C460.5 167.06 460.42 166.22 459.85 165.75L456.47 162.97C456.61 162.75 456.74 162.52 456.87 162.28L460.69 163.52C461.39 163.75 462.14 163.37 462.36 162.67L462.4 162.55C462.63 161.85 462.24 161.11 461.55 160.88L461.56 160.89Z" fill="#910E51"/>
<path d="M448.371 227.87C454.181 237.42 463.381 242.42 468.911 239.06C474.441 235.69 474.211 225.22 468.401 215.68C462.591 206.13 453.391 201.13 447.861 204.49C442.331 207.86 442.561 218.32 448.371 227.87ZM449.881 223.57C445.821 216.9 445.661 209.59 449.521 207.24C453.381 204.89 459.811 208.38 463.871 215.05C467.931 221.72 468.091 229.03 464.231 231.39C460.371 233.74 453.941 230.24 449.881 223.57Z" fill="#EB810F"/>
<path d="M452.2 238.8C456.26 245.47 463.41 245.04 470.08 240.98C476.75 236.92 480.41 230.77 476.35 224.1C472.29 217.43 462.05 212.78 455.38 216.84C448.71 220.9 448.15 232.14 452.21 238.8H452.2Z" fill="#EB810F"/>
<path fill-rule="evenodd" clip-rule="evenodd" d="M459.861 221.18C460.561 220.84 461.451 221.2 462.331 222.76C462.501 220.95 463.171 220.25 463.961 220.28C464.741 220.31 465.361 221.04 465.421 222.83C466.401 221.3 467.321 221 468.001 221.39C468.731 221.81 468.931 222.87 467.921 224.73C469.771 223.65 470.841 223.82 471.271 224.56C471.671 225.23 471.391 226.16 469.931 227.16C471.741 227.17 472.491 227.79 472.531 228.58C472.581 229.36 471.911 230.05 470.141 230.27C471.741 231.12 472.131 232.01 471.801 232.73C471.481 233.45 470.571 233.74 468.901 233.11C469.931 234.61 469.861 235.58 469.241 236.06C468.631 236.54 467.681 236.38 466.491 235.05C466.721 236.85 466.211 237.68 465.441 237.83C464.671 237.97 463.911 237.39 463.461 235.66C462.831 237.36 462.011 237.86 461.251 237.63C460.501 237.4 460.091 236.53 460.491 234.79C459.151 236.01 458.191 236.06 457.621 235.51C457.061 234.96 457.091 234 458.251 232.64C456.501 233.1 455.621 232.7 455.371 231.95C455.131 231.2 455.601 230.36 457.251 229.7C455.491 229.29 454.881 228.53 455.011 227.75C455.141 226.98 455.941 226.45 457.711 226.63C456.331 225.45 456.141 224.5 456.621 223.86C457.091 223.23 458.041 223.14 459.531 224.12C458.851 222.43 459.121 221.5 459.831 221.16L459.861 221.18Z" fill="#DF0059"/>
<path fill-rule="evenodd" clip-rule="evenodd" d="M461.681 225.9C459.921 226.95 459.341 229.24 460.391 231.01C461.441 232.78 463.721 233.37 465.481 232.32C467.241 231.27 467.821 228.98 466.771 227.21C465.721 225.44 463.441 224.85 461.681 225.9Z" fill="#EBC000"/>
<path d="M484.38 220.88C483.42 221.76 481.52 222.25 479.39 222.27C481.98 224.37 482.57 226.61 480.64 227.36C478.64 228.15 474.65 227.03 471.75 224.84C471.59 224.72 471.45 224.61 471.31 224.5C471.74 227.51 471.04 229.99 469.47 230.37C467.61 230.83 465.24 228.13 464.18 224.37C463.88 223.31 463.73 222.27 463.69 221.33C462.11 219.32 461.61 216.64 462.64 214.24C464.18 210.64 468.55 209.05 472.41 210.69C472.67 210.8 472.92 210.93 473.16 211.06C474.36 210.63 475.64 210.31 476.85 210.15C480.45 209.68 482.65 210.9 481.76 212.87C481.27 213.96 479.93 215.06 478.22 215.9C479.16 216.01 480.1 216.19 480.96 216.44C484.45 217.44 485.99 219.42 484.39 220.89L484.38 220.88Z" fill="#D900EB"/>
<path d="M454.46 208.52C454.84 208.52 455.2 208.57 455.54 208.65C457.15 208.78 461.73 209.89 464.47 210.47C466.76 211.07 467.7 212.3 467.7 214.39C467.7 215.8 466.98 217.04 465.88 217.77C464.16 218.93 455.85 218.44 453.6 217.59C451.41 217.2 449.75 215.34 449.75 213.1C449.75 210.57 451.85 208.52 454.45 208.52H454.46Z" fill="#D900EB"/>
<path d="M102.44 109.29C107.17 116.2 101.17 125.54 99.1204 132.55C93.4504 151.97 99.3904 165.93 106.63 181.3C111.26 191.13 115.66 203.05 113.66 215.44C111.82 226.82 103.73 234.59 96.7104 236.83C95.3304 237.27 92.5104 234.13 94.6204 233.45C104.3 230.35 112.03 218.27 110.24 202.61C108.79 189.91 102.01 179.8 97.4104 169.58C93.6604 161.23 92.9704 152.6 93.5504 142.76C93.9304 136.19 102.63 115.16 99.5304 110.63C97.9604 108.34 101.42 107.79 102.45 109.29H102.44Z" fill="#28D9FF"/>
<path fill-rule="evenodd" clip-rule="evenodd" d="M58.1311 45.53C58.1311 15.5 76.8511 0 99.9411 0C123.031 0 141.761 15.93 141.761 45.53C141.761 67.68 117.261 104.65 99.9411 104.65C83.6611 104.65 58.1211 67.68 58.1211 45.53H58.1311Z" fill="#F7931E"/>
<path d="M102.361 105.32C102.361 106.5 101.251 107.46 99.8709 107.46C98.4909 107.46 97.3809 106.5 97.3809 105.32C97.3809 104.14 98.5009 103.18 99.8709 103.18C101.241 103.18 102.361 104.14 102.361 105.32Z" fill="#FFAE00"/>
<path d="M104.74 108.46C104.74 109.15 102.56 108.91 99.8798 108.91C97.1998 108.91 95.0098 109.15 95.0098 108.46C95.0098 106.54 97.1898 106.41 99.8798 106.41C102.57 106.41 104.74 106.92 104.74 108.46Z" fill="#FFAE00"/>
<path fill-rule="evenodd" clip-rule="evenodd" d="M60.0098 46.24C60.0098 17.32 77.8898 2.39001 99.9398 2.39001C121.99 2.39001 139.87 17.73 139.87 46.24C139.87 67.57 116.47 103.18 99.9398 103.18C84.3998 103.18 60.0098 67.57 60.0098 46.24Z" fill="#FFAE00"/>
<path d="M103.95 108C103.95 108.21 102.09 108.14 99.8004 108.14C97.5104 108.14 95.6504 108.22 95.6504 108C95.6504 107.4 97.5104 107.36 99.8004 107.36C102.09 107.36 103.95 107.52 103.95 108Z" fill="#F7931E"/>
<path d="M102.111 105.09C102.111 105.62 101.321 106.05 100.331 106.05C99.3408 106.05 98.5508 105.62 98.5508 105.09C98.5508 104.56 99.3408 104.14 100.331 104.14C101.321 104.14 102.111 104.57 102.111 105.09Z" fill="#F7931E"/>
<path d="M102.43 105.42C102.44 106.24 102.3 105.73 103.14 105.44C103.6 105.28 103.12 105.39 102.81 105.33C101.97 105.16 101.15 104.83 100.31 104.62C98.4703 104.16 96.2503 104.36 95.3603 106.3C94.4903 108.19 98.0603 108.31 98.7703 106.79C98.6903 106.96 98.2703 107.14 98.0503 107.13C98.4303 107.15 98.8103 107.25 99.1703 107.36C100.06 107.61 100.92 107.91 101.83 108.09C103.83 108.49 106.06 107.46 106.03 105.21C106 103.27 102.41 103.74 102.43 105.44V105.42Z" fill="#28D9FF"/>
<path fill-rule="evenodd" clip-rule="evenodd" d="M62.9598 218.8C62.9598 215.03 60.0198 211.98 56.3998 211.98C52.7798 211.98 49.8398 215.03 49.8398 218.8C49.8398 222.57 52.7798 225.62 56.3998 225.62C60.0198 225.62 62.9598 222.57 62.9598 218.8Z" fill="#FFE700"/>
<path fill-rule="evenodd" clip-rule="evenodd" d="M64.7216 240.94C64.7216 237.17 61.7816 234.12 58.1616 234.12C54.5416 234.12 51.6016 237.17 51.6016 240.94C51.6016 244.71 54.5416 247.76 58.1616 247.76C61.7816 247.76 64.7216 244.71 64.7216 240.94Z" fill="#FFE700"/>
<path fill-rule="evenodd" clip-rule="evenodd" d="M65.1306 164.56C65.8206 160.86 63.5006 157.31 59.9406 156.65C56.3806 155.98 52.9306 158.44 52.2406 162.15C51.5506 165.85 53.8706 169.4 57.4306 170.06C60.9906 170.73 64.4406 168.27 65.1306 164.56Z" fill="#FFE700"/>
<path fill-rule="evenodd" clip-rule="evenodd" d="M32.6601 260.83C31.8201 257.33 32.0101 256.15 33.8801 254.41C35.7601 252.67 41.1301 252.75 50.8501 258.31C63.8001 265.73 58.5001 271.16 56.0201 273.32C51.4401 277.31 48.3601 276.83 44.3901 274.83C40.4101 272.83 33.5001 264.33 32.6601 260.83Z" fill="#FFE700"/>
<path fill-rule="evenodd" clip-rule="evenodd" d="M36.8298 244.47C32.8198 249.93 30.5898 258.42 33.7998 260.79C37.0198 263.16 44.4698 258.5 48.4798 253.05C52.4998 247.59 51.5598 243.4 48.3398 241.04C45.1198 238.67 40.8398 239.02 36.8298 244.48V244.47Z" fill="#FFE700"/>
<path fill-rule="evenodd" clip-rule="evenodd" d="M65.2202 265.81C62.4802 263.47 61.9402 262.41 62.4402 259.9C62.9302 257.39 67.3302 254.29 78.4602 253.08C93.3002 251.47 92.2002 258.99 91.4702 262.19C90.1102 268.11 87.3302 269.53 82.9402 270.24C78.5502 270.96 67.9602 268.14 65.2202 265.81Z" fill="#FFE700"/>
<path fill-rule="evenodd" clip-rule="evenodd" d="M58.9808 250.12C58.9408 256.89 62.1208 265.08 66.1208 265.11C70.1208 265.13 73.4108 256.99 73.4508 250.22C73.4908 243.45 70.2708 240.61 66.2808 240.58C62.2908 240.56 59.0308 243.35 58.9808 250.13V250.12Z" fill="#FFE700"/>
<path fill-rule="evenodd" clip-rule="evenodd" d="M78.0407 234.06C78.0407 221.61 68.3407 211.53 56.3807 211.53C44.4207 211.53 34.7207 221.62 34.7207 234.06C34.7207 246.5 44.4207 256.6 56.3807 256.6C68.3407 256.6 78.0407 246.51 78.0407 234.06Z" fill="#FFE700"/>
<path d="M20.7106 219.45C21.0606 218.56 21.3306 217.54 21.4806 216.44C22.0206 212.53 20.9206 209.09 19.0206 208.77C17.4206 208.5 15.7706 210.5 14.9606 213.46C14.8706 213.3 14.7806 213.13 14.6906 212.96C12.8906 209.78 9.67062 207.14 7.51062 207.07C5.42062 206.99 5.06062 209.29 6.60062 212.28C4.63062 211.45 2.69062 211.13 1.44062 211.56C-0.619385 212.27 -0.00938511 214.73 2.81061 217.05C3.51061 217.62 4.30061 218.17 5.12062 218.65C3.20061 218.74 1.52061 219.21 0.630615 220.03C-0.979385 221.5 0.560615 223.51 4.07062 224.52C5.25062 224.86 6.56062 225.07 7.84062 225.16C8.01062 225.38 8.19062 225.59 8.38062 225.8C11.2806 228.86 15.9506 229.15 18.8206 226.44C20.7306 224.63 21.3506 221.96 20.7006 219.46L20.7106 219.45Z" fill="#FFE700"/>
<path d="M29.2504 223.92C28.9204 223.74 28.5704 223.61 28.2304 223.51C26.7404 222.84 22.1704 221.61 19.4704 220.8C17.1604 220.22 15.7404 220.85 14.7204 222.7C14.0304 223.95 14.0704 225.4 14.6804 226.56C15.6304 228.41 23.2004 232 25.6004 232.34C27.7204 233.06 30.0904 232.22 31.1804 230.23C32.4104 228 31.5404 225.17 29.2504 223.91V223.92Z" fill="#FFE700"/>
<path d="M42.4307 230.98C43.3907 229.22 42.7907 226.95 40.9907 226.06C39.4607 225.3 32.6907 223.98 28.1107 223.26C25.3407 222.96 23.6707 224.03 22.8407 225.54C21.5807 227.83 22.4607 230.73 24.8007 232.01C24.8307 232.03 26.1707 232.61 27.5507 232.9C30.1107 233.43 36.6307 233.87 39.9907 232.76C40.9807 232.55 41.8907 231.93 42.4107 230.97L42.4307 230.98Z" fill="#FFE700"/>
<path d="M96.0907 234.84C95.9307 234.78 95.7707 234.72 95.6207 234.67C98.1007 233.58 99.6407 231.88 99.2007 230.52C98.6707 228.9 95.5207 228.38 92.1707 229.36C91.2307 229.64 90.3707 230 89.6407 230.42C87.3807 230.17 85.1207 231.06 83.7807 232.97C81.7807 235.83 82.6407 239.88 85.6907 242.02C85.9007 242.16 86.1107 242.29 86.3207 242.41C94.5007 247.45 99.1007 236 96.0907 234.85V234.84Z" fill="#FFE700"/>
<path d="M75.6998 230.51C75.8798 230.79 76.0898 231.04 76.3098 231.27C77.1598 232.43 80.1498 235.36 81.8698 237.16C83.3998 238.61 84.7698 238.74 86.3498 237.76C87.4198 237.1 88.0198 235.97 88.0598 234.8C88.1298 232.96 83.8698 226.91 82.1698 225.61C80.8498 224.14 78.6598 223.75 76.9598 224.81C75.0398 226 74.4798 228.55 75.6998 230.51Z" fill="#FFE700"/>
<path d="M68.6211 219.35C67.1111 220.28 66.5911 222.3 67.5811 223.76C68.4211 225.01 73.0711 228.97 76.2711 231.51C78.2711 232.95 80.0211 232.84 81.3111 232.05C83.2711 230.83 83.8611 228.22 82.6111 226.22C82.6011 226.2 81.8111 225.16 80.8811 224.34C79.1411 222.82 74.3111 219.65 71.2511 219.04C70.3911 218.77 69.4311 218.85 68.6111 219.36L68.6211 219.35Z" fill="#FFE700"/>
<path d="M41.9616 217.31C40.0916 217.23 38.3116 217.98 36.7516 219.34C38.1316 222.14 38.8916 225.74 38.7216 229.65C38.4716 235.31 36.3316 240.18 33.3516 242.78C35.0216 246.16 37.6016 248.37 40.5916 248.51C46.0616 248.75 50.7916 241.96 51.1716 233.34C51.5516 224.72 47.4316 217.54 41.9616 217.3V217.31Z" fill="#AC3BFF"/>
<path d="M76.7609 214.84C78.0509 214.86 79.3209 215.63 80.4609 216.91C79.6509 219.33 79.3009 222.5 79.6209 225.98C80.0809 231.03 81.8009 235.46 83.9909 237.93C83.0109 240.85 81.3409 242.69 79.2809 242.66C75.5209 242.6 71.9109 236.32 71.2109 228.64C70.5209 220.96 73.0009 214.78 76.7609 214.84Z" fill="#AC3BFF"/>
<path d="M78.8712 182.82L66.9512 156.72C68.7412 151.55 72.5612 147.1 77.9312 144.64C88.3612 139.87 100.681 144.45 105.451 154.88C110.221 165.31 105.641 177.63 95.2112 182.4C89.8412 184.86 83.9612 184.84 78.8712 182.81V182.82Z" fill="#FFE700"/>
<path d="M80.6499 178.52L72.1699 159.95C73.4499 156.27 76.1599 153.11 79.9699 151.36C87.3899 147.96 96.1599 151.23 99.5599 158.65C102.95 166.07 99.6899 174.84 92.2699 178.23C88.4499 179.98 84.2599 179.96 80.6399 178.52H80.6499Z" fill="#F69C00"/>
<path fill-rule="evenodd" clip-rule="evenodd" d="M18.2813 181.95C21.9813 159.62 42.6513 144.46 64.4713 148.07C86.2813 151.68 100.971 172.71 97.2713 195.03C93.5713 217.35 72.8913 232.52 51.0813 228.91C29.2713 225.3 14.5813 204.27 18.2813 181.95Z" fill="#FFE700"/>
<path d="M27.1199 179.31L46.8199 158.45C46.7899 152.98 44.6099 147.53 40.3199 143.48C31.9899 135.6 18.8499 135.97 10.9699 144.3C3.08991 152.63 3.45991 165.77 11.7899 173.65C16.0799 177.71 21.6599 179.58 27.1299 179.3L27.1199 179.31Z" fill="#FFE700"/>
<path d="M28.4208 164.43C31.9008 160.75 35.9308 157.9 40.2508 155.87C39.5508 153.4 38.2108 151.07 36.2008 149.17C30.2708 143.56 20.9208 143.82 15.3108 149.75C9.71083 155.68 9.96083 165.03 15.8908 170.63C17.6008 172.25 19.6108 173.37 21.7308 174.01C23.4208 170.58 25.6508 167.34 28.4108 164.41L28.4208 164.43Z" fill="#F69C00"/>
<path d="M67.2909 145.52C67.1709 150.78 62.6809 150.04 55.6809 150.07C50.0209 150.09 46.4309 149.28 46.9909 144.05C47.5509 138.82 52.5709 135.06 58.2009 135.66C63.8309 136.26 67.4209 140.16 67.2909 145.53V145.52Z" fill="#0079FF"/>
<path d="M43.7 150.99C42.21 147.74 48.52 145.14 56.07 144.81C63.62 144.47 72.41 145.54 71.33 149.67C70.69 152.11 65.12 154.6 57.58 154.94C50.03 155.27 44.75 153.28 43.7 150.99Z" fill="#0061C5"/>
<path d="M43.771 149.99C43.661 147.47 49.691 145.16 57.241 144.82C64.791 144.48 71.001 146.25 71.121 148.77C71.231 151.29 65.201 153.6 57.651 153.94C50.101 154.28 43.891 152.51 43.781 149.99H43.771Z" fill="#0079FF"/>
<path d="M47.1415 148.98C47.1415 148.9 47.1415 148.83 47.1615 148.75L47.0215 145.54L67.2315 144.64L67.3715 147.72C67.4215 147.83 67.4515 147.95 67.4515 148.07C67.4515 148.19 67.4415 148.31 67.4015 148.43V148.47C66.8315 150.03 62.6115 151.4 57.4415 151.64C52.2715 151.87 47.9415 150.88 47.2515 149.37H47.2015V149.21C47.1815 149.13 47.1615 149.06 47.1615 148.99L47.1415 148.98Z" fill="#FF0000"/>
<path d="M47.0008 145.87C46.9308 144.15 51.4108 142.56 57.0108 142.31C62.6108 142.06 67.2208 143.25 67.3008 144.97C67.3808 146.68 62.8908 148.28 57.2908 148.53C51.6908 148.78 47.0808 147.59 47.0008 145.87Z" fill="#0079FF"/>
<path d="M57.6515 200.87C48.4215 196.54 42.6215 187.89 41.4715 178.47C40.1515 180.06 38.9815 181.82 38.0715 183.78C32.2015 196.27 37.5715 211.16 50.0715 217.03C62.5615 222.9 77.4515 217.53 83.3215 205.03C84.2415 203.07 84.8615 201.05 85.2415 199.02C77.2515 204.15 66.8915 205.2 57.6715 200.87H57.6515Z" fill="#F69C00"/>
<path d="M332.881 192.24C320.871 189.22 311.961 180.26 308.381 169.3C307.181 171.5 306.191 173.87 305.561 176.42C301.471 192.68 311.331 209.17 327.581 213.26C343.831 217.36 360.331 207.49 364.421 191.24C365.061 188.69 365.331 186.14 365.311 183.63C356.971 191.6 344.881 195.26 332.871 192.24H332.881Z" fill="#F69C00"/>
<path d="M71.2613 222.94C69.4413 223.18 66.9813 225.6 64.8713 226.61C62.5713 226.19 60.0013 224.45 58.1813 224.69C54.2213 225.22 55.3813 227.16 55.7213 229.7C56.0613 232.24 55.4513 234.42 59.4113 233.89C61.2313 233.65 63.6913 230.69 65.7913 229.68C68.0913 230.1 70.6713 232.38 72.4813 232.14C76.4513 231.61 75.2813 229.67 74.9413 227.13C74.6013 224.59 75.2113 222.41 71.2513 222.94H71.2613Z" fill="#DF195B"/>
<path d="M68.8898 227.87C69.1798 230.03 67.7898 232 65.7898 232.27C63.7798 232.54 61.9298 231 61.6398 228.84C61.3498 226.68 62.7398 224.71 64.7498 224.44C66.7598 224.17 68.6098 225.71 68.8998 227.87H68.8898Z" fill="#5E1EBB"/>
<path fill-rule="evenodd" clip-rule="evenodd" d="M43.4299 169.84C44.5499 163.04 50.9799 158.44 57.7699 159.57C64.5699 160.69 69.1599 167.12 68.0399 173.92C66.9099 180.71 60.4899 185.31 53.6899 184.19C46.8999 183.06 42.2999 176.64 43.4199 169.84H43.4299Z" fill="white"/>
<path fill-rule="evenodd" clip-rule="evenodd" d="M76.2305 172.95C77.3505 166.16 83.7805 161.56 90.5805 162.68C97.3805 163.8 101.97 170.23 100.85 177.02C99.7305 183.82 93.3005 188.42 86.5105 187.29C79.7105 186.16 75.1205 179.74 76.2405 172.94L76.2305 172.95Z" fill="white"/>
<path d="M79.6105 171.5C80.1905 167.98 83.5205 165.59 87.0405 166.17C87.8405 166.3 88.5705 166.57 89.2305 166.95C87.9905 167.14 86.9705 168.1 86.7505 169.4C86.4805 171.01 87.5705 172.54 89.1905 172.81C90.5005 173.02 91.7405 172.35 92.3205 171.23C92.4805 171.99 92.5005 172.79 92.3705 173.61C91.7905 177.13 88.4605 179.52 84.9305 178.93C81.4105 178.35 79.0305 175.02 79.6105 171.5Z" fill="#0079FF"/>
<path d="M49.9003 170.34C50.4803 166.82 53.8103 164.43 57.3303 165.02C58.1303 165.15 58.8603 165.42 59.5203 165.81C58.2903 166 57.2603 166.96 57.0403 168.26C56.7703 169.88 57.8703 171.4 59.4803 171.67C60.7803 171.88 62.0303 171.21 62.6003 170.09C62.7603 170.85 62.7803 171.65 62.6503 172.47C62.0703 175.99 58.7403 178.37 55.2103 177.79C51.6903 177.2 49.3003 173.88 49.8903 170.35L49.9003 170.34Z" fill="#0079FF"/>
<path fill-rule="evenodd" clip-rule="evenodd" d="M64.0209 180.48C64.9609 174.83 70.4909 171.04 76.3809 172.01C82.2709 172.99 86.2909 178.36 85.3609 184.01C84.4209 189.66 78.8909 193.45 73.0009 192.47C67.1109 191.49 63.0909 186.12 64.0309 180.47L64.0209 180.48Z" fill="#E1134F"/>
<path d="M98.7237 232.052L84.2266 241.456L86.1476 244.417L100.645 235.013L98.7237 232.052Z" fill="#28D9FF"/>
<path d="M101.542 240.13C100.962 241.39 98.6815 241.57 96.4415 240.54C94.2015 239.51 92.8515 237.66 93.4215 236.41C94.0015 235.15 96.2815 234.97 98.5215 236C100.762 237.03 102.112 238.88 101.542 240.13Z" fill="#FFE700"/>
<path d="M90.0897 248.37C88.8197 248.91 87.0097 247.5 86.0497 245.22C85.0997 242.95 85.3497 240.67 86.6297 240.14C87.8997 239.6 89.7097 241.01 90.6697 243.29C91.6297 245.56 91.3697 247.84 90.0897 248.37Z" fill="#FFE700"/>
<path d="M94.801 245.23C93.531 245.77 91.721 244.36 90.761 242.08C89.801 239.81 90.061 237.53 91.341 236.99C92.611 236.45 94.421 237.86 95.381 240.14C96.341 242.41 96.081 244.69 94.801 245.22V245.23Z" fill="#FFE700"/>
<path d="M319.42 195.24C319.75 193.69 320.36 192.28 321.18 191.04C324.25 192.66 327.93 193.99 331.98 194.85C336.03 195.71 339.94 195.98 343.4 195.74C343.65 197.21 343.63 198.75 343.3 200.3C341.9 206.89 335.43 211.11 328.84 209.71C322.25 208.31 318.03 201.84 319.43 195.25L319.42 195.24Z" fill="#FF0000"/>
<path fill-rule="evenodd" clip-rule="evenodd" d="M331.86 195.55C331.86 195.55 330.73 198.36 330.23 200.7C329.68 203.3 329.58 207.36 329.58 207.36C329.58 207.36 331.18 203.15 331.76 201.14C332.32 199.18 331.86 195.56 331.86 195.56V195.55Z" fill="#990000"/>
<g style="mix-blend-mode:overlay" opacity="0.33">
<path d="M127.05 25.8L115.97 28.52C114.29 28.93 112.54 28.22 111.63 26.75L105.61 17.05C103.57 13.77 98.5302 15.01 98.2402 18.86L97.4102 30.24C97.2802 31.96 96.0602 33.41 94.3902 33.82L83.3102 36.54C79.5602 37.46 79.1802 42.65 82.7602 44.1L93.3302 48.41C94.9302 49.06 95.9302 50.67 95.8002 52.39L94.9702 63.77C94.6902 67.62 99.5002 69.59 101.99 66.63L109.36 57.91C110.47 56.59 112.31 56.14 113.91 56.79L124.48 61.1C128.06 62.56 131.41 58.59 129.37 55.31L123.35 45.61C122.44 44.14 122.58 42.25 123.69 40.94L131.06 32.22C133.55 29.27 130.81 24.85 127.06 25.77L127.05 25.8ZM110.42 30.37C110.48 31.28 109.66 33.43 108.44 34.02L105.12 35.63L111.06 47.85C111.98 49.69 111.25 52.35 109.17 54.2C106.8 56.31 103.58 56.55 101.98 54.75C100.38 52.95 101.01 49.78 103.38 47.68C104.68 46.53 106.23 45.94 107.63 45.93L101.44 33.2C101.28 32.88 101.3 32.51 101.44 32.21C101.45 32.19 101.46 32.17 101.47 32.14C101.47 32.14 101.47 32.14 101.47 32.13C101.5 32.09 101.53 32.04 101.56 32C101.66 31.88 101.78 31.77 101.94 31.7C101.95 31.7 101.97 31.69 101.99 31.68C102.02 31.67 102.04 31.65 102.07 31.64L109.06 28.24C110.28 27.65 110.34 29.47 110.4 30.37H110.42Z" fill="white"/>
</g>
</g>
<defs>
<clipPath id="clip0_175_4625">
<rect width="503.67" height="276.33" fill="white"/>
</clipPath>
</defs>
</svg>
