<svg width="26" height="27" viewBox="0 0 26 27" fill="none" xmlns="http://www.w3.org/2000/svg">
<path d="M25.5 13.6469C25.5 12.774 25.4293 11.9128 25.2877 11.0635H13.2551V15.9709H20.1444C19.8612 17.5516 18.9411 18.9672 17.5963 19.852V23.037H21.7015C24.108 20.8193 25.4882 17.5516 25.4882 13.6469H25.5Z" fill="#4284F3"/>
<path d="M13.2554 26.1158C16.6882 26.1158 19.602 24.9834 21.7018 23.0369L17.5966 19.8518C16.4405 20.6304 14.9777 21.0787 13.2554 21.0787C9.92876 21.0787 7.10936 18.8255 6.09485 15.8174H1.85986V19.1086C4.01865 23.3908 8.43058 26.1276 13.2436 26.1276L13.2554 26.1158Z" fill="#34A753"/>
<path d="M6.10634 15.8049C5.57549 14.2241 5.57549 12.5136 6.10634 10.9211V7.6416H1.87136C0.0428808 11.2396 0.0428808 15.4864 1.87136 19.0843L6.10634 15.8049Z" fill="#FABB04"/>
<path d="M13.2548 5.66008C15.0833 5.62469 16.8292 6.32068 18.1386 7.57113L21.772 3.93776C19.4717 1.75539 16.4281 0.575735 13.2548 0.611125C8.44181 0.611125 4.02988 3.33614 1.87109 7.6419L6.10608 10.9332C7.12059 7.90144 9.92819 5.66008 13.2666 5.66008H13.2548Z" fill="#E94335"/>
</svg>
