<svg width="330" height="201" viewBox="0 0 330 201" fill="none" xmlns="http://www.w3.org/2000/svg">
<path d="M81.22 200.21C92.818 200.21 102.22 190.808 102.22 179.21C102.22 167.612 92.818 158.21 81.22 158.21C69.622 158.21 60.22 167.612 60.22 179.21C60.22 190.808 69.622 200.21 81.22 200.21Z" fill="#FFBD00"/>
<path d="M92.08 168.55H69.97V190.66H92.08V168.55Z" fill="#FF0000"/>
<path d="M22.3301 200.21C33.9281 200.21 43.3301 190.808 43.3301 179.21C43.3301 167.612 33.9281 158.21 22.3301 158.21C10.7321 158.21 1.33008 167.612 1.33008 179.21C1.33008 190.808 10.7321 200.21 22.3301 200.21Z" fill="#99CF16"/>
<path d="M22.33 192.55C29.6975 192.55 35.67 186.578 35.67 179.21C35.67 171.843 29.6975 165.87 22.33 165.87C14.9625 165.87 8.98999 171.843 8.98999 179.21C8.98999 186.578 14.9625 192.55 22.33 192.55Z" fill="#00A84E"/>
<path d="M140.11 200.21C151.708 200.21 161.11 190.808 161.11 179.21C161.11 167.612 151.708 158.21 140.11 158.21C128.512 158.21 119.11 167.612 119.11 179.21C119.11 190.808 128.512 200.21 140.11 200.21Z" fill="#002C8D"/>
<path d="M140.11 163.9L125.81 188.66H154.4L140.11 163.9Z" fill="#2FBDEB"/>
<path d="M199 200.21C210.598 200.21 220 190.808 220 179.21C220 167.612 210.598 158.21 199 158.21C187.402 158.21 178 167.612 178 179.21C178 190.808 187.402 200.21 199 200.21Z" fill="#A220DF"/>
<path d="M188.87 190.13C187.79 190.13 186.99 189.76 186.48 189.02C185.97 188.28 185.97 187.36 186.48 186.25L195.09 167.72C195.5 166.82 196.01 166.16 196.61 165.75C197.21 165.34 197.91 165.13 198.72 165.13C199.53 165.13 200.19 165.34 200.79 165.75C201.39 166.16 201.9 166.82 202.31 167.72L210.92 186.25C211.45 187.38 211.47 188.31 210.99 189.03C210.51 189.75 209.75 190.12 208.71 190.12C207.79 190.12 207.08 189.91 206.58 189.5C206.08 189.09 205.64 188.42 205.25 187.49L204.14 184.86H193.25L192.14 187.49C191.73 188.41 191.3 189.08 190.86 189.5C190.42 189.91 189.75 190.12 188.85 190.12L188.87 190.13ZM198.65 172.08L195.33 180H202.04L198.72 172.08H198.65Z" fill="#CA8FFF"/>
<path d="M257.89 200.21C269.488 200.21 278.89 190.808 278.89 179.21C278.89 167.612 269.488 158.21 257.89 158.21C246.292 158.21 236.89 167.612 236.89 179.21C236.89 190.808 246.292 200.21 257.89 200.21Z" fill="#00A84E"/>
<path d="M251.39 191.13C249.18 191.13 248.07 190.04 248.07 187.84V170.03C248.07 167.84 249.18 166.74 251.39 166.74H259.83C262.46 166.74 264.49 167.31 265.93 168.45C267.37 169.59 268.09 171.12 268.09 173.03C268.09 174.3 267.77 175.4 267.14 176.35C266.51 177.3 265.62 178 264.49 178.46C265.85 178.87 266.9 179.57 267.64 180.55C268.38 181.53 268.75 182.75 268.75 184.2C268.75 186.34 267.98 188.03 266.45 189.27C264.92 190.5 262.82 191.12 260.17 191.12H251.39V191.13ZM254.16 176.44H258.69C259.84 176.44 260.69 176.23 261.23 175.82C261.77 175.41 262.04 174.77 262.04 173.92C262.04 173.07 261.77 172.44 261.23 172.04C260.69 171.64 259.84 171.43 258.69 171.43H254.16V176.44ZM254.16 186.46H259.31C260.49 186.46 261.34 186.24 261.89 185.79C262.43 185.34 262.7 184.67 262.7 183.77C262.7 182.87 262.43 182.2 261.89 181.76C261.35 181.32 260.49 181.1 259.31 181.1H254.16V186.46Z" fill="#BBED16"/>
<path d="M22.3301 147.47C33.9281 147.47 43.3301 138.068 43.3301 126.47C43.3301 114.872 33.9281 105.47 22.3301 105.47C10.7321 105.47 1.33008 114.872 1.33008 126.47C1.33008 138.068 10.7321 147.47 22.3301 147.47Z" fill="#FF0000"/>
<path d="M15.64 138.82C13.74 138.82 12.79 137.88 12.79 136.01C12.79 134.14 13.74 133.24 15.64 133.24H19.01V119.88L16.73 121.27C16.08 121.67 15.47 121.83 14.9 121.74C14.33 121.65 13.84 121.41 13.44 121.01C13.04 120.61 12.78 120.12 12.65 119.55C12.52 118.98 12.58 118.4 12.8 117.83C13.02 117.26 13.47 116.77 14.15 116.37L19.32 113.15C20.44 112.45 21.63 112.1 22.88 112.1C23.83 112.1 24.56 112.34 25.09 112.83C25.61 113.32 25.88 114.02 25.88 114.94V133.25H28.87C30.77 133.25 31.72 134.17 31.72 136.02C31.72 137.87 30.77 138.83 28.87 138.83H15.66L15.64 138.82Z" fill="#FFBD00"/>
<path d="M81.22 147.47C92.818 147.47 102.22 138.068 102.22 126.47C102.22 114.872 92.818 105.47 81.22 105.47C69.622 105.47 60.22 114.872 60.22 126.47C60.22 138.068 69.622 147.47 81.22 147.47Z" fill="#6600BD"/>
<path d="M75.64 139.18C74.54 139.18 73.75 138.92 73.26 138.41C72.77 137.9 72.53 137.14 72.53 136.15C72.53 135.45 72.68 134.83 72.98 134.28C73.28 133.73 73.69 133.19 74.22 132.67L80.77 125.82C81.74 124.8 82.44 123.91 82.85 123.14C83.26 122.38 83.47 121.62 83.47 120.88C83.47 118.98 82.26 118.03 79.84 118.03C79.24 118.03 78.6 118.11 77.91 118.27C77.22 118.43 76.51 118.71 75.76 119.11C75.09 119.43 74.47 119.53 73.93 119.39C73.38 119.25 72.93 118.97 72.58 118.55C72.23 118.13 72.01 117.64 71.92 117.09C71.83 116.54 71.92 116 72.16 115.46C72.41 114.92 72.86 114.48 73.51 114.13C74.66 113.53 75.85 113.09 77.08 112.8C78.32 112.51 79.56 112.37 80.8 112.37C83.84 112.37 86.17 113.03 87.78 114.35C89.39 115.67 90.19 117.58 90.19 120.08C90.19 121.68 89.83 123.2 89.1 124.65C88.38 126.1 87.17 127.66 85.47 129.33L81.2 133.6H88.65C90.55 133.6 91.49 134.52 91.49 136.37C91.49 138.22 90.54 139.18 88.65 139.18H75.62H75.64Z" fill="#E93594"/>
<path d="M140.11 147.47C151.708 147.47 161.11 138.068 161.11 126.47C161.11 114.872 151.708 105.47 140.11 105.47C128.512 105.47 119.11 114.872 119.11 126.47C119.11 138.068 128.512 147.47 140.11 147.47Z" fill="#2FBDEB"/>
<path d="M139.43 139.59C138.13 139.59 136.85 139.46 135.59 139.22C134.33 138.97 133.24 138.62 132.31 138.17C131.54 137.8 130.99 137.33 130.66 136.78C130.34 136.23 130.2 135.67 130.25 135.1C130.3 134.53 130.51 134.01 130.87 133.57C131.23 133.12 131.71 132.82 132.29 132.65C132.88 132.49 133.54 132.57 134.29 132.89C135.21 133.29 136.06 133.56 136.84 133.71C137.61 133.86 138.39 133.93 139.16 133.93C141.86 133.93 143.2 133.01 143.2 131.16C143.2 129.46 142 128.61 139.61 128.61H137.59C136.64 128.61 135.92 128.37 135.42 127.9C134.92 127.43 134.67 126.75 134.67 125.88C134.67 125.01 134.92 124.33 135.42 123.86C135.92 123.39 136.64 123.15 137.59 123.15H138.94C140.01 123.15 140.86 122.93 141.47 122.48C142.08 122.03 142.39 121.38 142.39 120.53C142.39 118.86 141.23 118.02 138.91 118.02C138.21 118.02 137.5 118.09 136.78 118.24C136.06 118.39 135.28 118.65 134.46 119.03C133.81 119.3 133.22 119.37 132.68 119.22C132.14 119.07 131.7 118.78 131.35 118.36C131 117.94 130.79 117.44 130.71 116.88C130.64 116.32 130.73 115.78 131.01 115.27C131.28 114.76 131.76 114.33 132.43 113.98C134.58 112.91 136.96 112.37 139.58 112.37C142.52 112.37 144.82 113.01 146.47 114.3C148.12 115.59 148.94 117.36 148.94 119.63C148.94 120.98 148.6 122.16 147.93 123.19C147.26 124.21 146.32 124.96 145.12 125.44C146.59 125.86 147.73 126.64 148.55 127.76C149.36 128.88 149.77 130.24 149.77 131.84C149.77 134.24 148.85 136.13 147.02 137.51C145.19 138.89 142.66 139.59 139.44 139.59H139.43Z" fill="#0078FF"/>
<path d="M257.89 147.47C269.488 147.47 278.89 138.068 278.89 126.47C278.89 114.872 269.488 105.47 257.89 105.47C246.292 105.47 236.89 114.872 236.89 126.47C236.89 138.068 246.292 147.47 257.89 147.47Z" fill="#FFBD00"/>
<path d="M268.75 115.81H246.64V137.92H268.75V115.81Z" fill="#FF0000"/>
<path d="M199 147.47C210.598 147.47 220 138.068 220 126.47C220 114.872 210.598 105.47 199 105.47C187.402 105.47 178 114.872 178 126.47C178 138.068 187.402 147.47 199 147.47Z" fill="#99CF16"/>
<path d="M199 139.81C206.367 139.81 212.34 133.837 212.34 126.47C212.34 119.102 206.367 113.13 199 113.13C191.632 113.13 185.66 119.102 185.66 126.47C185.66 133.837 191.632 139.81 199 139.81Z" fill="#00A84E"/>
<path d="M140.11 94.7402C151.708 94.7402 161.11 85.3382 161.11 73.7402C161.11 62.1423 151.708 52.7402 140.11 52.7402C128.512 52.7402 119.11 62.1423 119.11 73.7402C119.11 85.3382 128.512 94.7402 140.11 94.7402Z" fill="#0078FF"/>
<path d="M140.47 57.8901C140.28 57.8501 140.09 57.8301 139.89 57.8301C138.81 57.8501 137.87 58.5601 137.56 59.5901L135.19 67.3701L127.06 67.5201C125.98 67.5401 125.04 68.2501 124.73 69.2801C124.42 70.3101 124.8 71.4201 125.68 72.0401L132.35 76.7001L129.98 84.4801C129.67 85.5101 130.05 86.6201 130.93 87.2401C131.2 87.4301 131.5 87.5601 131.81 87.6301C132.51 87.7801 133.25 87.6301 133.85 87.1901L140.34 82.2901L147.01 86.9501C147.28 87.1401 147.58 87.2701 147.89 87.3401C148.59 87.4901 149.33 87.3401 149.92 86.9001C150.78 86.2501 151.12 85.1201 150.77 84.1101L148.11 76.4201L154.54 71.5601C155.02 71.2201 155.38 70.7001 155.52 70.0801C155.81 68.7701 155.01 67.4701 153.72 67.1401C153.69 67.1401 153.66 67.1301 153.63 67.1201C153.57 67.1101 153.5 67.0901 153.44 67.0801C153.29 67.0601 153.14 67.0501 152.99 67.0601L144.92 67.2101L142.27 59.5301C141.98 58.7001 141.29 58.1001 140.46 57.9201L140.47 57.8901Z" fill="#2FBDEB"/>
<path d="M81.22 94.7402C92.818 94.7402 102.22 85.3382 102.22 73.7402C102.22 62.1423 92.818 52.7402 81.22 52.7402C69.622 52.7402 60.22 62.1423 60.22 73.7402C60.22 85.3382 69.622 94.7402 81.22 94.7402Z" fill="#FF92FF"/>
<path d="M81.04 67.6301C81.04 67.6301 74.45 59.5201 69.24 63.6401C60.42 70.6001 81.04 87.5801 81.04 87.5801C81.04 87.5801 100.79 71.5201 92.44 64.1001C86.06 58.4301 81.04 67.6301 81.04 67.6301Z" fill="#FF0000"/>
<path d="M22.3301 94.7402C33.9281 94.7402 43.3301 85.3382 43.3301 73.7402C43.3301 62.1423 33.9281 52.7402 22.3301 52.7402C10.7321 52.7402 1.33008 62.1423 1.33008 73.7402C1.33008 85.3382 10.7321 94.7402 22.3301 94.7402Z" fill="#FFDC00"/>
<path d="M19.9101 63.2801L21.2701 75.2001C19.0801 74.7801 16.2701 75.6901 13.9901 77.8201C10.7601 80.8301 9.84008 85.0801 11.9201 87.3101C14.0001 89.5401 18.3001 88.9101 21.5301 85.9001C24.0301 83.5701 25.1301 80.5101 24.5401 78.2001L23.2401 67.6401C23.2401 67.6401 25.4101 67.4101 29.0701 65.9401C32.7301 64.4701 31.1301 57.5601 31.1301 57.5601L19.9101 63.2701V63.2801Z" fill="#FF8000"/>
<path d="M199 94.7402C210.598 94.7402 220 85.3382 220 73.7402C220 62.1423 210.598 52.7402 199 52.7402C187.402 52.7402 178 62.1423 178 73.7402C178 85.3382 187.402 94.7402 199 94.7402Z" fill="#FF0000"/>
<path d="M192.32 86.0799C190.42 86.0799 189.47 85.1399 189.47 83.2699C189.47 81.3999 190.42 80.4999 192.32 80.4999H195.69V67.1399L193.41 68.5299C192.76 68.9299 192.15 69.0899 191.58 68.9999C191.01 68.9099 190.52 68.6699 190.12 68.2699C189.72 67.8699 189.46 67.3799 189.33 66.8099C189.2 66.2399 189.26 65.6599 189.48 65.0899C189.7 64.5199 190.15 64.0299 190.83 63.6299L196 60.4099C197.12 59.7099 198.31 59.3599 199.56 59.3599C200.51 59.3599 201.24 59.5999 201.77 60.0899C202.29 60.5799 202.56 61.2799 202.56 62.1999V80.5099H205.55C207.45 80.5099 208.4 81.4299 208.4 83.2799C208.4 85.1299 207.45 86.0899 205.55 86.0899H192.34L192.32 86.0799Z" fill="#FFBD00"/>
<path d="M257.89 94.7402C269.488 94.7402 278.89 85.3382 278.89 73.7402C278.89 62.1423 269.488 52.7402 257.89 52.7402C246.292 52.7402 236.89 62.1423 236.89 73.7402C236.89 85.3382 246.292 94.7402 257.89 94.7402Z" fill="#6600BD"/>
<path d="M252.31 86.4399C251.21 86.4399 250.42 86.1799 249.93 85.6699C249.44 85.1599 249.2 84.3999 249.2 83.4099C249.2 82.7099 249.35 82.0899 249.65 81.5399C249.95 80.9899 250.36 80.4499 250.89 79.9299L257.44 73.0799C258.41 72.0599 259.11 71.1699 259.52 70.3999C259.93 69.6399 260.14 68.8799 260.14 68.1399C260.14 66.2399 258.93 65.2899 256.51 65.2899C255.91 65.2899 255.27 65.3699 254.58 65.5299C253.89 65.6899 253.18 65.9699 252.43 66.3699C251.76 66.6899 251.14 66.7899 250.6 66.6499C250.05 66.5099 249.6 66.2299 249.25 65.8099C248.9 65.3899 248.68 64.8999 248.59 64.3499C248.5 63.7999 248.59 63.2599 248.83 62.7199C249.08 62.1799 249.53 61.7399 250.18 61.3899C251.33 60.7899 252.52 60.3499 253.75 60.0599C254.99 59.7699 256.23 59.6299 257.47 59.6299C260.51 59.6299 262.84 60.2899 264.45 61.6099C266.06 62.9299 266.86 64.8399 266.86 67.3399C266.86 68.9399 266.5 70.4599 265.77 71.9099C265.05 73.3599 263.84 74.9199 262.14 76.5899L257.87 80.8599H265.32C267.22 80.8599 268.16 81.7799 268.16 83.6299C268.16 85.4799 267.21 86.4399 265.32 86.4399H252.29H252.31Z" fill="#E93594"/>
<path d="M21 42C32.598 42 42 32.598 42 21C42 9.40202 32.598 0 21 0C9.40202 0 0 9.40202 0 21C0 32.598 9.40202 42 21 42Z" fill="#A220DF"/>
<path d="M10.8699 31.9199C9.78991 31.9199 8.98991 31.5499 8.47991 30.8099C7.96991 30.0699 7.96991 29.1499 8.47991 28.0399L17.0899 9.50992C17.4999 8.60992 18.0099 7.94992 18.6099 7.53992C19.2099 7.12992 19.9099 6.91992 20.7199 6.91992C21.5299 6.91992 22.1899 7.12992 22.7899 7.53992C23.3899 7.94992 23.8999 8.60992 24.3099 9.50992L32.9199 28.0399C33.4499 29.1699 33.4699 30.0999 32.9899 30.8199C32.5099 31.5399 31.7499 31.9099 30.7099 31.9099C29.7899 31.9099 29.0799 31.6999 28.5799 31.2899C28.0799 30.8799 27.6399 30.2099 27.2499 29.2799L26.1399 26.6499H15.2499L14.1399 29.2799C13.7299 30.1999 13.2999 30.8699 12.8599 31.2899C12.4199 31.6999 11.7499 31.9099 10.8499 31.9099L10.8699 31.9199ZM20.6499 13.8699L17.3299 21.7899H24.0399L20.7199 13.8699H20.6499Z" fill="#CA8FFF"/>
<path d="M79.8899 42C91.4879 42 100.89 32.598 100.89 21C100.89 9.40202 91.4879 0 79.8899 0C68.2919 0 58.8899 9.40202 58.8899 21C58.8899 32.598 68.2919 42 79.8899 42Z" fill="#00A84E"/>
<path d="M73.3901 32.92C71.1801 32.92 70.0701 31.83 70.0701 29.63V11.83C70.0701 9.64004 71.1801 8.54004 73.3901 8.54004H81.8301C84.4601 8.54004 86.4901 9.11004 87.9301 10.25C89.3701 11.39 90.0901 12.92 90.0901 14.83C90.0901 16.1 89.7701 17.2 89.1401 18.15C88.5101 19.1 87.6201 19.8 86.4901 20.26C87.8501 20.67 88.9001 21.37 89.6401 22.35C90.3801 23.33 90.7501 24.55 90.7501 26C90.7501 28.14 89.9801 29.83 88.4501 31.07C86.9201 32.3 84.8201 32.92 82.1701 32.92H73.3901ZM76.1601 18.23H80.6901C81.8401 18.23 82.6901 18.02 83.2301 17.61C83.7701 17.2 84.0401 16.56 84.0401 15.71C84.0401 14.86 83.7701 14.23 83.2301 13.83C82.6901 13.43 81.8401 13.22 80.6901 13.22H76.1601V18.23ZM76.1601 28.25H81.3101C82.4901 28.25 83.3401 28.03 83.8901 27.58C84.4301 27.13 84.7001 26.46 84.7001 25.56C84.7001 24.66 84.4301 23.99 83.8901 23.55C83.3501 23.11 82.4901 22.89 81.3101 22.89H76.1601V28.25Z" fill="#BBED16"/>
<path d="M138.78 42C150.378 42 159.78 32.598 159.78 21C159.78 9.40202 150.378 0 138.78 0C127.182 0 117.78 9.40202 117.78 21C117.78 32.598 127.182 42 138.78 42Z" fill="#FF8000"/>
<path d="M139.33 32.9999C136.63 32.9999 134.32 32.4799 132.38 31.4399C130.44 30.3999 128.96 28.9399 127.94 27.0499C126.91 25.1599 126.4 22.9499 126.4 20.4099C126.4 17.8699 126.91 15.6699 127.94 13.7899C128.97 11.9099 130.45 10.4499 132.38 9.41986C134.32 8.37986 136.63 7.85986 139.33 7.85986C140.39 7.85986 141.49 7.97986 142.63 8.21986C143.77 8.45986 144.78 8.81986 145.66 9.30986C146.3 9.65986 146.75 10.0899 147.01 10.6199C147.26 11.1499 147.36 11.6899 147.29 12.2499C147.22 12.7999 147.02 13.2999 146.68 13.7399C146.35 14.1799 145.92 14.4699 145.42 14.6199C144.91 14.7699 144.36 14.6899 143.76 14.3999C142.4 13.7299 141.01 13.3999 139.58 13.3999C137.44 13.3999 135.82 14.0099 134.74 15.2199C133.66 16.4299 133.11 18.1699 133.11 20.4199C133.11 22.6699 133.65 24.4499 134.74 25.6599C135.82 26.8699 137.44 27.4799 139.58 27.4799C140.18 27.4799 140.82 27.4099 141.52 27.2599C142.21 27.1099 142.89 26.8699 143.56 26.5499C144.25 26.2499 144.87 26.1699 145.41 26.3099C145.95 26.4499 146.4 26.7199 146.74 27.1399C147.09 27.5499 147.3 28.0299 147.38 28.5799C147.46 29.1199 147.38 29.6599 147.16 30.1899C146.93 30.7199 146.5 31.1499 145.88 31.4699C145.07 31.9499 144.08 32.3299 142.89 32.6099C141.7 32.8899 140.52 33.0199 139.35 33.0199L139.33 32.9999Z" fill="#FFDC00"/>
<path d="M256.57 42C268.168 42 277.57 32.598 277.57 21C277.57 9.40202 268.168 0 256.57 0C244.972 0 235.57 9.40202 235.57 21C235.57 32.598 244.972 42 256.57 42Z" fill="#FF92FF"/>
<path d="M256.39 14.8898C256.39 14.8898 249.8 6.77982 244.59 10.8998C235.77 17.8598 256.39 34.8398 256.39 34.8398C256.39 34.8398 276.14 18.7798 267.79 11.3598C261.41 5.68982 256.39 14.8898 256.39 14.8898Z" fill="#FF0000"/>
<path d="M197.67 42C209.268 42 218.67 32.598 218.67 21C218.67 9.40202 209.268 0 197.67 0C186.072 0 176.67 9.40202 176.67 21C176.67 32.598 186.072 42 197.67 42Z" fill="#FFDC00"/>
<path d="M195.26 10.5501L196.62 22.4701C194.43 22.0501 191.62 22.9601 189.34 25.0901C186.11 28.1001 185.19 32.3501 187.27 34.5801C189.35 36.8101 193.65 36.1801 196.88 33.1701C199.38 30.8401 200.48 27.7801 199.89 25.4701L198.59 14.9101C198.59 14.9101 200.76 14.6801 204.42 13.2101C208.08 11.7401 206.48 4.83008 206.48 4.83008L195.26 10.5401V10.5501Z" fill="#FF8000"/>
<path d="M307 42C318.598 42 328 32.598 328 21C328 9.40202 318.598 0 307 0C295.402 0 286 9.40202 286 21C286 32.598 295.402 42 307 42Z" fill="#0078FF"/>
<path d="M307.36 5.14984C307.17 5.10984 306.98 5.08984 306.78 5.08984C305.7 5.10984 304.76 5.81984 304.45 6.84984L302.08 14.6298L293.95 14.7798C292.87 14.7998 291.93 15.5098 291.62 16.5398C291.31 17.5698 291.69 18.6798 292.57 19.2998L299.24 23.9598L296.87 31.7398C296.56 32.7698 296.94 33.8798 297.82 34.4998C298.09 34.6898 298.39 34.8198 298.7 34.8898C299.4 35.0398 300.14 34.8898 300.74 34.4498L307.23 29.5498L313.9 34.2098C314.17 34.3998 314.47 34.5298 314.78 34.5998C315.48 34.7498 316.22 34.5998 316.81 34.1598C317.67 33.5098 318.01 32.3798 317.66 31.3698L315 23.6798L321.43 18.8198C321.91 18.4798 322.27 17.9598 322.41 17.3398C322.7 16.0298 321.9 14.7298 320.61 14.3998C320.58 14.3998 320.55 14.3898 320.52 14.3798C320.46 14.3698 320.39 14.3498 320.33 14.3398C320.18 14.3198 320.03 14.3098 319.88 14.3198L311.81 14.4698L309.16 6.78984C308.87 5.95984 308.18 5.35984 307.35 5.17984L307.36 5.14984Z" fill="#2FBDEB"/>
<path d="M307 95C318.598 95 328 85.598 328 74C328 62.402 318.598 53 307 53C295.402 53 286 62.402 286 74C286 85.598 295.402 95 307 95Z" fill="#2FBDEB"/>
<path d="M306.32 87.1199C305.02 87.1199 303.74 86.9899 302.48 86.7499C301.22 86.4999 300.13 86.1499 299.2 85.6999C298.43 85.3299 297.88 84.8599 297.55 84.3099C297.23 83.7599 297.09 83.1999 297.14 82.6299C297.19 82.0599 297.4 81.5399 297.76 81.0999C298.12 80.6499 298.6 80.3499 299.18 80.1799C299.77 80.0199 300.43 80.0999 301.18 80.4199C302.1 80.8199 302.95 81.0899 303.73 81.2399C304.5 81.3899 305.28 81.4599 306.05 81.4599C308.75 81.4599 310.09 80.5399 310.09 78.6899C310.09 76.9899 308.89 76.1399 306.5 76.1399H304.48C303.53 76.1399 302.81 75.8999 302.31 75.4299C301.81 74.9599 301.56 74.2799 301.56 73.4099C301.56 72.5399 301.81 71.8599 302.31 71.3899C302.81 70.9199 303.53 70.6799 304.48 70.6799H305.83C306.9 70.6799 307.75 70.4599 308.36 70.0099C308.97 69.5599 309.28 68.9099 309.28 68.0599C309.28 66.3899 308.12 65.5499 305.8 65.5499C305.1 65.5499 304.39 65.6199 303.67 65.7699C302.95 65.9199 302.17 66.1799 301.35 66.5599C300.7 66.8299 300.11 66.8999 299.57 66.7499C299.03 66.5999 298.59 66.3099 298.24 65.8899C297.89 65.4699 297.68 64.9699 297.6 64.4099C297.53 63.8499 297.62 63.3099 297.9 62.7999C298.17 62.2899 298.65 61.8599 299.32 61.5099C301.47 60.4399 303.85 59.8999 306.47 59.8999C309.41 59.8999 311.71 60.5399 313.36 61.8299C315.01 63.1199 315.83 64.8899 315.83 67.1599C315.83 68.5099 315.49 69.6899 314.82 70.7199C314.15 71.7399 313.21 72.4899 312.01 72.9699C313.48 73.3899 314.62 74.1699 315.44 75.2899C316.25 76.4099 316.66 77.7699 316.66 79.3699C316.66 81.7699 315.74 83.6599 313.91 85.0399C312.08 86.4199 309.55 87.1199 306.33 87.1199H306.32Z" fill="#0078FF"/>
<path d="M307 147C318.598 147 328 137.598 328 126C328 114.402 318.598 105 307 105C295.402 105 286 114.402 286 126C286 137.598 295.402 147 307 147Z" fill="#002C8D"/>
<path d="M307 110.69L292.7 135.45H321.29L307 110.69Z" fill="#2FBDEB"/>
<path d="M309 200C320.598 200 330 190.598 330 179C330 167.402 320.598 158 309 158C297.402 158 288 167.402 288 179C288 190.598 297.402 200 309 200Z" fill="#FF8000"/>
<path d="M309.55 191C306.85 191 304.54 190.48 302.6 189.44C300.66 188.4 299.18 186.94 298.16 185.05C297.13 183.16 296.62 180.95 296.62 178.41C296.62 175.87 297.13 173.67 298.16 171.79C299.19 169.91 300.67 168.45 302.6 167.42C304.54 166.38 306.85 165.86 309.55 165.86C310.61 165.86 311.71 165.98 312.85 166.22C313.99 166.46 315 166.82 315.88 167.31C316.52 167.66 316.97 168.09 317.23 168.62C317.48 169.15 317.58 169.69 317.51 170.25C317.44 170.8 317.24 171.3 316.9 171.74C316.57 172.18 316.14 172.47 315.64 172.62C315.13 172.77 314.58 172.69 313.98 172.4C312.62 171.73 311.23 171.4 309.8 171.4C307.66 171.4 306.04 172.01 304.96 173.22C303.88 174.43 303.33 176.17 303.33 178.42C303.33 180.67 303.87 182.45 304.96 183.66C306.04 184.87 307.66 185.48 309.8 185.48C310.4 185.48 311.04 185.41 311.74 185.26C312.43 185.11 313.11 184.87 313.78 184.55C314.47 184.25 315.09 184.17 315.63 184.31C316.17 184.45 316.62 184.72 316.96 185.14C317.31 185.55 317.52 186.03 317.6 186.58C317.68 187.12 317.6 187.66 317.38 188.19C317.15 188.72 316.72 189.15 316.1 189.47C315.29 189.95 314.3 190.33 313.11 190.61C311.92 190.89 310.74 191.02 309.57 191.02L309.55 191Z" fill="#FFDC00"/>
</svg>
