<svg width="1401" height="201" viewBox="0 0 1401 201" fill="none" xmlns="http://www.w3.org/2000/svg">
<g opacity="0.2">
<g clip-path="url(#clip0_195_11465)">
<path d="M1143.72 200.21C1155.32 200.21 1164.72 190.808 1164.72 179.21C1164.72 167.612 1155.32 158.21 1143.72 158.21C1132.12 158.21 1122.72 167.612 1122.72 179.21C1122.72 190.808 1132.12 200.21 1143.72 200.21Z" fill="#FFBD00"/>
<path d="M1154.58 168.55H1132.47V190.66H1154.58V168.55Z" fill="#FF0000"/>
<path d="M1084.83 200.21C1096.43 200.21 1105.83 190.808 1105.83 179.21C1105.83 167.612 1096.43 158.21 1084.83 158.21C1073.23 158.21 1063.83 167.612 1063.83 179.21C1063.83 190.808 1073.23 200.21 1084.83 200.21Z" fill="#99CF16"/>
<path d="M1084.83 192.55C1092.2 192.55 1098.17 186.578 1098.17 179.21C1098.17 171.843 1092.2 165.87 1084.83 165.87C1077.46 165.87 1071.49 171.843 1071.49 179.21C1071.49 186.578 1077.46 192.55 1084.83 192.55Z" fill="#00A84E"/>
<path d="M1202.61 200.21C1214.21 200.21 1223.61 190.808 1223.61 179.21C1223.61 167.612 1214.21 158.21 1202.61 158.21C1191.01 158.21 1181.61 167.612 1181.61 179.21C1181.61 190.808 1191.01 200.21 1202.61 200.21Z" fill="#002C8D"/>
<path d="M1202.61 163.9L1188.32 188.66H1216.91L1202.61 163.9Z" fill="#2FBDEB"/>
<path d="M1261.51 200.21C1273.11 200.21 1282.51 190.808 1282.51 179.21C1282.51 167.612 1273.11 158.21 1261.51 158.21C1249.91 158.21 1240.51 167.612 1240.51 179.21C1240.51 190.808 1249.91 200.21 1261.51 200.21Z" fill="#A220DF"/>
<path d="M1251.37 190.13C1250.29 190.13 1249.49 189.76 1248.98 189.02C1248.47 188.28 1248.47 187.36 1248.98 186.25L1257.59 167.72C1258 166.82 1258.51 166.16 1259.11 165.75C1259.71 165.34 1260.41 165.13 1261.22 165.13C1262.03 165.13 1262.69 165.34 1263.29 165.75C1263.89 166.16 1264.4 166.82 1264.81 167.72L1273.42 186.25C1273.95 187.38 1273.97 188.31 1273.49 189.03C1273.01 189.75 1272.25 190.12 1271.21 190.12C1270.29 190.12 1269.58 189.91 1269.08 189.5C1268.58 189.09 1268.14 188.42 1267.75 187.49L1266.64 184.86H1255.75L1254.64 187.49C1254.23 188.41 1253.8 189.08 1253.36 189.5C1252.92 189.91 1252.25 190.12 1251.35 190.12L1251.37 190.13ZM1261.16 172.08L1257.84 180H1264.55L1261.23 172.08H1261.16Z" fill="#CA8FFF"/>
<path d="M1320.4 200.21C1332 200.21 1341.4 190.808 1341.4 179.21C1341.4 167.612 1332 158.21 1320.4 158.21C1308.8 158.21 1299.4 167.612 1299.4 179.21C1299.4 190.808 1308.8 200.21 1320.4 200.21Z" fill="#00A84E"/>
<path d="M1313.9 191.13C1311.69 191.13 1310.58 190.04 1310.58 187.84V170.03C1310.58 167.84 1311.69 166.74 1313.9 166.74H1322.34C1324.97 166.74 1327 167.31 1328.44 168.45C1329.88 169.59 1330.6 171.12 1330.6 173.03C1330.6 174.3 1330.28 175.4 1329.65 176.35C1329.02 177.3 1328.13 178 1327 178.46C1328.36 178.87 1329.41 179.57 1330.15 180.55C1330.89 181.53 1331.26 182.75 1331.26 184.2C1331.26 186.34 1330.49 188.03 1328.96 189.27C1327.43 190.5 1325.33 191.12 1322.68 191.12H1313.9V191.13ZM1316.66 176.44H1321.19C1322.34 176.44 1323.19 176.23 1323.73 175.82C1324.27 175.41 1324.54 174.77 1324.54 173.92C1324.54 173.07 1324.27 172.44 1323.73 172.04C1323.19 171.64 1322.34 171.43 1321.19 171.43H1316.66V176.44ZM1316.66 186.46H1321.81C1322.99 186.46 1323.84 186.24 1324.39 185.79C1324.93 185.34 1325.2 184.67 1325.2 183.77C1325.2 182.87 1324.93 182.2 1324.39 181.76C1323.85 181.32 1322.99 181.1 1321.81 181.1H1316.66V186.46Z" fill="#BBED16"/>
<path d="M1379.29 200.21C1390.89 200.21 1400.29 190.808 1400.29 179.21C1400.29 167.612 1390.89 158.21 1379.29 158.21C1367.69 158.21 1358.29 167.612 1358.29 179.21C1358.29 190.808 1367.69 200.21 1379.29 200.21Z" fill="#FF8000"/>
<path d="M1379.83 191.21C1377.13 191.21 1374.82 190.69 1372.88 189.65C1370.94 188.61 1369.46 187.15 1368.44 185.26C1367.41 183.37 1366.9 181.16 1366.9 178.62C1366.9 176.08 1367.41 173.88 1368.44 172C1369.47 170.12 1370.95 168.66 1372.88 167.63C1374.82 166.59 1377.13 166.07 1379.83 166.07C1380.89 166.07 1381.99 166.19 1383.13 166.43C1384.27 166.67 1385.28 167.03 1386.16 167.52C1386.8 167.87 1387.25 168.3 1387.51 168.83C1387.76 169.36 1387.86 169.9 1387.79 170.46C1387.72 171.01 1387.52 171.51 1387.18 171.95C1386.85 172.39 1386.42 172.68 1385.92 172.83C1385.41 172.98 1384.86 172.9 1384.26 172.61C1382.9 171.94 1381.51 171.61 1380.08 171.61C1377.94 171.61 1376.32 172.22 1375.24 173.43C1374.16 174.64 1373.61 176.38 1373.61 178.63C1373.61 180.88 1374.15 182.66 1375.24 183.87C1376.32 185.08 1377.94 185.69 1380.08 185.69C1380.68 185.69 1381.32 185.62 1382.02 185.47C1382.71 185.32 1383.39 185.08 1384.06 184.76C1384.75 184.46 1385.37 184.38 1385.91 184.52C1386.45 184.66 1386.9 184.93 1387.24 185.35C1387.59 185.76 1387.8 186.24 1387.88 186.79C1387.96 187.33 1387.88 187.87 1387.66 188.4C1387.43 188.93 1387 189.36 1386.38 189.68C1385.57 190.16 1384.58 190.54 1383.39 190.82C1382.2 191.1 1381.02 191.23 1379.85 191.23L1379.83 191.21Z" fill="#FFDC00"/>
<path d="M1084.83 147.47C1096.43 147.47 1105.83 138.068 1105.83 126.47C1105.83 114.872 1096.43 105.47 1084.83 105.47C1073.23 105.47 1063.83 114.872 1063.83 126.47C1063.83 138.068 1073.23 147.47 1084.83 147.47Z" fill="#FF0000"/>
<path d="M1078.15 138.82C1076.25 138.82 1075.3 137.88 1075.3 136.01C1075.3 134.14 1076.25 133.24 1078.15 133.24H1081.52V119.88L1079.24 121.27C1078.59 121.67 1077.98 121.83 1077.41 121.74C1076.84 121.65 1076.35 121.41 1075.95 121.01C1075.55 120.61 1075.29 120.12 1075.16 119.55C1075.03 118.98 1075.09 118.4 1075.31 117.83C1075.53 117.26 1075.98 116.77 1076.66 116.37L1081.83 113.15C1082.95 112.45 1084.14 112.1 1085.39 112.1C1086.34 112.1 1087.07 112.34 1087.6 112.83C1088.12 113.32 1088.39 114.02 1088.39 114.94V133.25H1091.38C1093.28 133.25 1094.23 134.17 1094.23 136.02C1094.23 137.87 1093.28 138.83 1091.38 138.83H1078.17L1078.15 138.82Z" fill="#FFBD00"/>
<path d="M1143.72 147.47C1155.32 147.47 1164.72 138.068 1164.72 126.47C1164.72 114.872 1155.32 105.47 1143.72 105.47C1132.12 105.47 1122.72 114.872 1122.72 126.47C1122.72 138.068 1132.12 147.47 1143.72 147.47Z" fill="#6600BD"/>
<path d="M1138.15 139.18C1137.05 139.18 1136.26 138.92 1135.77 138.41C1135.28 137.9 1135.04 137.14 1135.04 136.15C1135.04 135.45 1135.19 134.83 1135.49 134.28C1135.79 133.73 1136.2 133.19 1136.73 132.67L1143.28 125.82C1144.25 124.8 1144.95 123.91 1145.36 123.14C1145.77 122.38 1145.98 121.62 1145.98 120.88C1145.98 118.98 1144.77 118.03 1142.35 118.03C1141.75 118.03 1141.11 118.11 1140.42 118.27C1139.73 118.43 1139.02 118.71 1138.27 119.11C1137.6 119.43 1136.98 119.53 1136.44 119.39C1135.89 119.25 1135.44 118.97 1135.09 118.55C1134.74 118.13 1134.52 117.64 1134.43 117.09C1134.34 116.54 1134.43 116 1134.67 115.46C1134.92 114.92 1135.37 114.48 1136.02 114.13C1137.17 113.53 1138.36 113.09 1139.59 112.8C1140.83 112.51 1142.07 112.37 1143.31 112.37C1146.35 112.37 1148.68 113.03 1150.29 114.35C1151.9 115.67 1152.7 117.58 1152.7 120.08C1152.7 121.68 1152.34 123.2 1151.61 124.65C1150.89 126.1 1149.68 127.66 1147.98 129.33L1143.71 133.6H1151.16C1153.06 133.6 1154 134.52 1154 136.37C1154 138.22 1153.05 139.18 1151.16 139.18H1138.13H1138.15Z" fill="#E93594"/>
<path d="M1202.61 147.47C1214.21 147.47 1223.61 138.068 1223.61 126.47C1223.61 114.872 1214.21 105.47 1202.61 105.47C1191.01 105.47 1181.61 114.872 1181.61 126.47C1181.61 138.068 1191.01 147.47 1202.61 147.47Z" fill="#2FBDEB"/>
<path d="M1201.94 139.59C1200.64 139.59 1199.36 139.46 1198.1 139.22C1196.84 138.97 1195.75 138.62 1194.82 138.17C1194.05 137.8 1193.5 137.33 1193.17 136.78C1192.85 136.23 1192.71 135.67 1192.76 135.1C1192.81 134.53 1193.02 134.01 1193.38 133.57C1193.74 133.12 1194.22 132.82 1194.8 132.65C1195.39 132.49 1196.05 132.57 1196.8 132.89C1197.72 133.29 1198.57 133.56 1199.35 133.71C1200.12 133.86 1200.9 133.93 1201.67 133.93C1204.37 133.93 1205.71 133.01 1205.71 131.16C1205.71 129.46 1204.51 128.61 1202.12 128.61H1200.1C1199.15 128.61 1198.43 128.37 1197.93 127.9C1197.43 127.43 1197.18 126.75 1197.18 125.88C1197.18 125.01 1197.43 124.33 1197.93 123.86C1198.43 123.39 1199.15 123.15 1200.1 123.15H1201.45C1202.52 123.15 1203.37 122.93 1203.98 122.48C1204.59 122.03 1204.9 121.38 1204.9 120.53C1204.9 118.86 1203.74 118.02 1201.42 118.02C1200.72 118.02 1200.01 118.09 1199.29 118.24C1198.57 118.39 1197.79 118.65 1196.97 119.03C1196.32 119.3 1195.73 119.37 1195.19 119.22C1194.65 119.07 1194.21 118.78 1193.86 118.36C1193.51 117.94 1193.3 117.44 1193.22 116.88C1193.15 116.32 1193.24 115.78 1193.52 115.27C1193.79 114.76 1194.27 114.33 1194.94 113.98C1197.09 112.91 1199.47 112.37 1202.09 112.37C1205.03 112.37 1207.33 113.01 1208.98 114.3C1210.63 115.59 1211.45 117.36 1211.45 119.63C1211.45 120.98 1211.11 122.16 1210.44 123.19C1209.77 124.21 1208.83 124.96 1207.63 125.44C1209.1 125.86 1210.24 126.64 1211.06 127.76C1211.87 128.88 1212.28 130.24 1212.28 131.84C1212.28 134.24 1211.36 136.13 1209.53 137.51C1207.7 138.89 1205.17 139.59 1201.95 139.59H1201.94Z" fill="#0078FF"/>
<path d="M1320.4 147.47C1332 147.47 1341.4 138.068 1341.4 126.47C1341.4 114.872 1332 105.47 1320.4 105.47C1308.8 105.47 1299.4 114.872 1299.4 126.47C1299.4 138.068 1308.8 147.47 1320.4 147.47Z" fill="#FFBD00"/>
<path d="M1331.25 115.81H1309.14V137.92H1331.25V115.81Z" fill="#FF0000"/>
<path d="M1261.51 147.47C1273.11 147.47 1282.51 138.068 1282.51 126.47C1282.51 114.872 1273.11 105.47 1261.51 105.47C1249.91 105.47 1240.51 114.872 1240.51 126.47C1240.51 138.068 1249.91 147.47 1261.51 147.47Z" fill="#99CF16"/>
<path d="M1261.51 139.81C1268.88 139.81 1274.85 133.837 1274.85 126.47C1274.85 119.102 1268.88 113.13 1261.51 113.13C1254.14 113.13 1248.17 119.102 1248.17 126.47C1248.17 133.837 1254.14 139.81 1261.51 139.81Z" fill="#00A84E"/>
<path d="M1379.29 147.47C1390.89 147.47 1400.29 138.068 1400.29 126.47C1400.29 114.872 1390.89 105.47 1379.29 105.47C1367.69 105.47 1358.29 114.872 1358.29 126.47C1358.29 138.068 1367.69 147.47 1379.29 147.47Z" fill="#002C8D"/>
<path d="M1379.29 111.16L1364.99 135.92H1393.58L1379.29 111.16Z" fill="#2FBDEB"/>
<path d="M1202.61 94.7402C1214.21 94.7402 1223.61 85.3382 1223.61 73.7402C1223.61 62.1423 1214.21 52.7402 1202.61 52.7402C1191.01 52.7402 1181.61 62.1423 1181.61 73.7402C1181.61 85.3382 1191.01 94.7402 1202.61 94.7402Z" fill="#0078FF"/>
<path d="M1202.98 57.8901C1202.79 57.8501 1202.6 57.8301 1202.4 57.8301C1201.32 57.8501 1200.38 58.5601 1200.07 59.5901L1197.7 67.3701L1189.57 67.5201C1188.49 67.5401 1187.55 68.2501 1187.24 69.2801C1186.93 70.3101 1187.31 71.4201 1188.19 72.0401L1194.86 76.7001L1192.49 84.4801C1192.18 85.5101 1192.56 86.6201 1193.44 87.2401C1193.71 87.4301 1194.01 87.5601 1194.32 87.6301C1195.02 87.7801 1195.76 87.6301 1196.36 87.1901L1202.85 82.2901L1209.52 86.9501C1209.79 87.1401 1210.09 87.2701 1210.4 87.3401C1211.1 87.4901 1211.84 87.3401 1212.43 86.9001C1213.29 86.2501 1213.63 85.1201 1213.28 84.1101L1210.62 76.4201L1217.05 71.5601C1217.53 71.2201 1217.89 70.7001 1218.03 70.0801C1218.32 68.7701 1217.52 67.4701 1216.23 67.1401C1216.2 67.1401 1216.17 67.1301 1216.14 67.1201C1216.08 67.1101 1216.01 67.0901 1215.95 67.0801C1215.8 67.0601 1215.65 67.0501 1215.5 67.0601L1207.43 67.2101L1204.78 59.5301C1204.49 58.7001 1203.8 58.1001 1202.97 57.9201L1202.98 57.8901Z" fill="#2FBDEB"/>
<path d="M1143.72 94.7402C1155.32 94.7402 1164.72 85.3382 1164.72 73.7402C1164.72 62.1423 1155.32 52.7402 1143.72 52.7402C1132.12 52.7402 1122.72 62.1423 1122.72 73.7402C1122.72 85.3382 1132.12 94.7402 1143.72 94.7402Z" fill="#FF92FF"/>
<path d="M1143.54 67.6301C1143.54 67.6301 1136.95 59.5201 1131.74 63.6401C1122.92 70.6001 1143.54 87.5801 1143.54 87.5801C1143.54 87.5801 1163.29 71.5201 1154.94 64.1001C1148.56 58.4301 1143.54 67.6301 1143.54 67.6301Z" fill="#FF0000"/>
<path d="M1084.83 94.7402C1096.43 94.7402 1105.83 85.3382 1105.83 73.7402C1105.83 62.1423 1096.43 52.7402 1084.83 52.7402C1073.23 52.7402 1063.83 62.1423 1063.83 73.7402C1063.83 85.3382 1073.23 94.7402 1084.83 94.7402Z" fill="#FFDC00"/>
<path d="M1082.42 63.2796L1083.78 75.1996C1081.59 74.7796 1078.78 75.6896 1076.5 77.8196C1073.27 80.8296 1072.35 85.0796 1074.43 87.3096C1076.51 89.5396 1080.81 88.9096 1084.04 85.8996C1086.54 83.5696 1087.64 80.5096 1087.05 78.1996L1085.75 67.6396C1085.75 67.6396 1087.92 67.4096 1091.58 65.9396C1095.24 64.4696 1093.64 57.5596 1093.64 57.5596L1082.42 63.2696V63.2796Z" fill="#FF8000"/>
<path d="M1261.51 94.7402C1273.11 94.7402 1282.51 85.3382 1282.51 73.7402C1282.51 62.1423 1273.11 52.7402 1261.51 52.7402C1249.91 52.7402 1240.51 62.1423 1240.51 73.7402C1240.51 85.3382 1249.91 94.7402 1261.51 94.7402Z" fill="#FF0000"/>
<path d="M1254.82 86.0804C1252.92 86.0804 1251.97 85.1403 1251.97 83.2703C1251.97 81.4003 1252.92 80.5004 1254.82 80.5004H1258.19V67.1404L1255.91 68.5303C1255.26 68.9303 1254.65 69.0904 1254.08 69.0004C1253.51 68.9104 1253.02 68.6703 1252.62 68.2703C1252.22 67.8703 1251.96 67.3803 1251.83 66.8103C1251.7 66.2403 1251.76 65.6603 1251.98 65.0903C1252.2 64.5203 1252.65 64.0304 1253.33 63.6304L1258.5 60.4104C1259.62 59.7104 1260.81 59.3604 1262.06 59.3604C1263.01 59.3604 1263.74 59.6004 1264.27 60.0904C1264.79 60.5804 1265.06 61.2804 1265.06 62.2004V80.5104H1268.05C1269.95 80.5104 1270.9 81.4303 1270.9 83.2803C1270.9 85.1304 1269.95 86.0903 1268.05 86.0903H1254.84L1254.82 86.0804Z" fill="#FFBD00"/>
<path d="M1320.4 94.7402C1332 94.7402 1341.4 85.3382 1341.4 73.7402C1341.4 62.1423 1332 52.7402 1320.4 52.7402C1308.8 52.7402 1299.4 62.1423 1299.4 73.7402C1299.4 85.3382 1308.8 94.7402 1320.4 94.7402Z" fill="#6600BD"/>
<path d="M1314.82 86.4399C1313.72 86.4399 1312.93 86.1799 1312.44 85.6699C1311.95 85.1599 1311.71 84.3999 1311.71 83.4099C1311.71 82.7099 1311.86 82.0899 1312.16 81.5399C1312.46 80.9899 1312.87 80.4499 1313.4 79.9299L1319.95 73.0799C1320.92 72.0599 1321.62 71.1699 1322.03 70.3999C1322.44 69.6399 1322.65 68.8799 1322.65 68.1399C1322.65 66.2399 1321.44 65.2899 1319.02 65.2899C1318.42 65.2899 1317.78 65.3699 1317.09 65.5299C1316.4 65.6899 1315.69 65.9699 1314.94 66.3699C1314.27 66.6899 1313.65 66.7899 1313.11 66.6499C1312.56 66.5099 1312.11 66.2299 1311.76 65.8099C1311.41 65.3899 1311.19 64.8999 1311.1 64.3499C1311.01 63.7999 1311.1 63.2599 1311.34 62.7199C1311.59 62.1799 1312.04 61.7399 1312.69 61.3899C1313.84 60.7899 1315.03 60.3499 1316.26 60.0599C1317.5 59.7699 1318.74 59.6299 1319.98 59.6299C1323.02 59.6299 1325.35 60.2899 1326.96 61.6099C1328.57 62.9299 1329.37 64.8399 1329.37 67.3399C1329.37 68.9399 1329.01 70.4599 1328.28 71.9099C1327.56 73.3599 1326.35 74.9199 1324.65 76.5899L1320.38 80.8599H1327.83C1329.73 80.8599 1330.67 81.7799 1330.67 83.6299C1330.67 85.4799 1329.72 86.4399 1327.83 86.4399H1314.8H1314.82Z" fill="#E93594"/>
<path d="M1379.29 94.7402C1390.89 94.7402 1400.29 85.3382 1400.29 73.7402C1400.29 62.1423 1390.89 52.7402 1379.29 52.7402C1367.69 52.7402 1358.29 62.1423 1358.29 73.7402C1358.29 85.3382 1367.69 94.7402 1379.29 94.7402Z" fill="#2FBDEB"/>
<path d="M1378.61 86.8499C1377.31 86.8499 1376.03 86.7199 1374.77 86.4799C1373.51 86.2299 1372.42 85.8799 1371.49 85.4299C1370.72 85.0599 1370.17 84.5899 1369.84 84.0399C1369.52 83.4899 1369.38 82.9299 1369.43 82.3599C1369.48 81.7899 1369.69 81.2699 1370.05 80.8299C1370.41 80.3799 1370.89 80.0799 1371.47 79.9099C1372.06 79.7499 1372.72 79.8299 1373.47 80.1499C1374.39 80.5499 1375.24 80.8199 1376.02 80.9699C1376.79 81.1199 1377.57 81.1899 1378.34 81.1899C1381.04 81.1899 1382.38 80.2699 1382.38 78.4199C1382.38 76.7199 1381.18 75.8699 1378.79 75.8699H1376.77C1375.82 75.8699 1375.1 75.6299 1374.6 75.1599C1374.1 74.6899 1373.85 74.0099 1373.85 73.1399C1373.85 72.2699 1374.1 71.5899 1374.6 71.1199C1375.1 70.6499 1375.82 70.4099 1376.77 70.4099H1378.12C1379.19 70.4099 1380.04 70.1899 1380.65 69.7399C1381.26 69.2899 1381.57 68.6399 1381.57 67.7899C1381.57 66.1199 1380.41 65.2799 1378.09 65.2799C1377.39 65.2799 1376.68 65.3499 1375.96 65.4999C1375.24 65.6499 1374.46 65.9099 1373.64 66.2899C1372.99 66.5599 1372.4 66.6299 1371.86 66.4799C1371.32 66.3299 1370.88 66.0399 1370.53 65.6199C1370.18 65.1999 1369.97 64.6999 1369.89 64.1399C1369.82 63.5799 1369.91 63.0399 1370.19 62.5299C1370.46 62.0199 1370.94 61.5899 1371.61 61.2399C1373.76 60.1699 1376.14 59.6299 1378.76 59.6299C1381.7 59.6299 1384 60.2699 1385.65 61.5599C1387.3 62.8499 1388.12 64.6199 1388.12 66.8899C1388.12 68.2399 1387.78 69.4199 1387.11 70.4499C1386.44 71.4699 1385.5 72.2199 1384.3 72.6999C1385.77 73.1199 1386.91 73.8999 1387.73 75.0199C1388.54 76.1399 1388.95 77.4999 1388.95 79.0999C1388.95 81.4999 1388.03 83.3899 1386.2 84.7699C1384.37 86.1599 1381.84 86.8499 1378.62 86.8499H1378.61Z" fill="#0078FF"/>
<path d="M1083.51 42C1095.11 42 1104.51 32.598 1104.51 21C1104.51 9.40202 1095.11 0 1083.51 0C1071.91 0 1062.51 9.40202 1062.51 21C1062.51 32.598 1071.91 42 1083.51 42Z" fill="#A220DF"/>
<path d="M1073.37 31.9199C1072.29 31.9199 1071.49 31.5499 1070.98 30.8099C1070.47 30.0699 1070.47 29.1499 1070.98 28.0399L1079.59 9.50992C1080 8.60992 1080.51 7.94992 1081.11 7.53992C1081.71 7.12992 1082.41 6.91992 1083.22 6.91992C1084.03 6.91992 1084.69 7.12992 1085.29 7.53992C1085.89 7.94992 1086.4 8.60992 1086.81 9.50992L1095.42 28.0399C1095.95 29.1699 1095.97 30.0999 1095.49 30.8199C1095.01 31.5399 1094.25 31.9099 1093.21 31.9099C1092.29 31.9099 1091.58 31.6999 1091.08 31.2899C1090.58 30.8799 1090.14 30.2099 1089.75 29.2799L1088.64 26.6499H1077.75L1076.64 29.2799C1076.23 30.1999 1075.8 30.8699 1075.36 31.2899C1074.92 31.6999 1074.25 31.9099 1073.35 31.9099L1073.37 31.9199ZM1083.16 13.8699L1079.84 21.7899H1086.55L1083.23 13.8699H1083.16Z" fill="#CA8FFF"/>
<path d="M1142.4 42C1154 42 1163.4 32.598 1163.4 21C1163.4 9.40202 1154 0 1142.4 0C1130.8 0 1121.4 9.40202 1121.4 21C1121.4 32.598 1130.8 42 1142.4 42Z" fill="#00A84E"/>
<path d="M1135.9 32.92C1133.69 32.92 1132.58 31.83 1132.58 29.63V11.83C1132.58 9.64004 1133.69 8.54004 1135.9 8.54004H1144.34C1146.97 8.54004 1149 9.11004 1150.44 10.25C1151.88 11.39 1152.6 12.92 1152.6 14.83C1152.6 16.1 1152.28 17.2 1151.65 18.15C1151.02 19.1 1150.13 19.8 1149 20.26C1150.36 20.67 1151.41 21.37 1152.15 22.35C1152.89 23.33 1153.26 24.55 1153.26 26C1153.26 28.14 1152.49 29.83 1150.96 31.07C1149.43 32.3 1147.33 32.92 1144.68 32.92H1135.9ZM1138.66 18.23H1143.19C1144.34 18.23 1145.19 18.02 1145.73 17.61C1146.27 17.2 1146.54 16.56 1146.54 15.71C1146.54 14.86 1146.27 14.23 1145.73 13.83C1145.19 13.43 1144.34 13.22 1143.19 13.22H1138.66V18.23ZM1138.66 28.25H1143.81C1144.99 28.25 1145.84 28.03 1146.39 27.58C1146.93 27.13 1147.2 26.46 1147.2 25.56C1147.2 24.66 1146.93 23.99 1146.39 23.55C1145.85 23.11 1144.99 22.89 1143.81 22.89H1138.66V28.25Z" fill="#BBED16"/>
<path d="M1201.29 42C1212.89 42 1222.29 32.598 1222.29 21C1222.29 9.40202 1212.89 0 1201.29 0C1189.69 0 1180.29 9.40202 1180.29 21C1180.29 32.598 1189.69 42 1201.29 42Z" fill="#FF8000"/>
<path d="M1201.83 33.0004C1199.13 33.0004 1196.82 32.4804 1194.88 31.4404C1192.94 30.4004 1191.46 28.9403 1190.44 27.0504C1189.41 25.1604 1188.9 22.9504 1188.9 20.4104C1188.9 17.8704 1189.41 15.6704 1190.44 13.7904C1191.47 11.9104 1192.95 10.4504 1194.88 9.42035C1196.82 8.38035 1199.13 7.86035 1201.83 7.86035C1202.89 7.86035 1203.99 7.98035 1205.13 8.22035C1206.27 8.46035 1207.28 8.82035 1208.16 9.31035C1208.8 9.66035 1209.25 10.0904 1209.51 10.6204C1209.76 11.1504 1209.86 11.6904 1209.79 12.2504C1209.72 12.8004 1209.52 13.3004 1209.18 13.7404C1208.85 14.1804 1208.42 14.4704 1207.92 14.6204C1207.41 14.7704 1206.86 14.6904 1206.26 14.4004C1204.9 13.7304 1203.51 13.4004 1202.08 13.4004C1199.94 13.4004 1198.32 14.0104 1197.24 15.2204C1196.16 16.4304 1195.61 18.1704 1195.61 20.4204C1195.61 22.6704 1196.15 24.4504 1197.24 25.6604C1198.32 26.8703 1199.94 27.4804 1202.08 27.4804C1202.68 27.4804 1203.32 27.4104 1204.02 27.2604C1204.71 27.1104 1205.39 26.8703 1206.06 26.5504C1206.75 26.2504 1207.37 26.1704 1207.91 26.3104C1208.45 26.4503 1208.9 26.7204 1209.24 27.1404C1209.59 27.5504 1209.8 28.0304 1209.88 28.5804C1209.96 29.1204 1209.88 29.6604 1209.66 30.1904C1209.43 30.7204 1209 31.1504 1208.38 31.4704C1207.57 31.9503 1206.58 32.3304 1205.39 32.6104C1204.2 32.8904 1203.02 33.0204 1201.85 33.0204L1201.83 33.0004Z" fill="#FFDC00"/>
<path d="M1377.96 42C1389.56 42 1398.96 32.598 1398.96 21C1398.96 9.40202 1389.56 0 1377.96 0C1366.36 0 1356.96 9.40202 1356.96 21C1356.96 32.598 1366.36 42 1377.96 42Z" fill="#0078FF"/>
<path d="M1378.32 5.15961C1378.13 5.11961 1377.94 5.09961 1377.74 5.09961C1376.66 5.11961 1375.72 5.82961 1375.41 6.85961L1373.04 14.6396L1364.91 14.7896C1363.83 14.8096 1362.89 15.5196 1362.58 16.5496C1362.27 17.5796 1362.65 18.6896 1363.53 19.3096L1370.2 23.9696L1367.83 31.7496C1367.52 32.7796 1367.9 33.8896 1368.78 34.5096C1369.05 34.6996 1369.35 34.8296 1369.66 34.8996C1370.36 35.0496 1371.1 34.8996 1371.7 34.4596L1378.19 29.5596L1384.86 34.2196C1385.13 34.4096 1385.43 34.5396 1385.74 34.6096C1386.44 34.7596 1387.18 34.6096 1387.77 34.1696C1388.63 33.5196 1388.97 32.3896 1388.62 31.3796L1385.96 23.6896L1392.39 18.8296C1392.87 18.4896 1393.23 17.9696 1393.37 17.3496C1393.66 16.0396 1392.86 14.7396 1391.57 14.4096C1391.54 14.4096 1391.51 14.3996 1391.48 14.3896C1391.42 14.3796 1391.35 14.3596 1391.29 14.3496C1391.14 14.3296 1390.99 14.3196 1390.84 14.3296L1382.77 14.4796L1380.12 6.79961C1379.83 5.96961 1379.14 5.36961 1378.31 5.18961L1378.32 5.15961Z" fill="#2FBDEB"/>
<path d="M1319.07 42C1330.67 42 1340.07 32.598 1340.07 21C1340.07 9.40202 1330.67 0 1319.07 0C1307.47 0 1298.07 9.40202 1298.07 21C1298.07 32.598 1307.47 42 1319.07 42Z" fill="#FF92FF"/>
<path d="M1318.89 14.8898C1318.89 14.8898 1312.3 6.77982 1307.09 10.8998C1298.27 17.8598 1318.89 34.8398 1318.89 34.8398C1318.89 34.8398 1338.64 18.7798 1330.29 11.3598C1323.91 5.68982 1318.89 14.8898 1318.89 14.8898Z" fill="#FF0000"/>
<path d="M1260.18 42C1271.78 42 1281.18 32.598 1281.18 21C1281.18 9.40202 1271.78 0 1260.18 0C1248.58 0 1239.18 9.40202 1239.18 21C1239.18 32.598 1248.58 42 1260.18 42Z" fill="#FFDC00"/>
<path d="M1257.77 10.5501L1259.13 22.4701C1256.94 22.0501 1254.13 22.9601 1251.85 25.0901C1248.62 28.1001 1247.7 32.3501 1249.78 34.5801C1251.86 36.8101 1256.16 36.1801 1259.39 33.1701C1261.89 30.8401 1262.99 27.7801 1262.4 25.4701L1261.1 14.9101C1261.1 14.9101 1263.27 14.6801 1266.93 13.2101C1270.59 11.7401 1268.99 4.83008 1268.99 4.83008L1257.77 10.5401V10.5501Z" fill="#FF8000"/>
<path d="M788.78 200.21C800.378 200.21 809.78 190.808 809.78 179.21C809.78 167.612 800.378 158.21 788.78 158.21C777.182 158.21 767.78 167.612 767.78 179.21C767.78 190.808 777.182 200.21 788.78 200.21Z" fill="#FFBD00"/>
<path d="M799.64 168.55H777.53V190.66H799.64V168.55Z" fill="#FF0000"/>
<path d="M729.89 200.21C741.488 200.21 750.89 190.808 750.89 179.21C750.89 167.612 741.488 158.21 729.89 158.21C718.292 158.21 708.89 167.612 708.89 179.21C708.89 190.808 718.292 200.21 729.89 200.21Z" fill="#99CF16"/>
<path d="M729.89 192.55C737.257 192.55 743.23 186.578 743.23 179.21C743.23 171.843 737.257 165.87 729.89 165.87C722.522 165.87 716.55 171.843 716.55 179.21C716.55 186.578 722.522 192.55 729.89 192.55Z" fill="#00A84E"/>
<path d="M847.67 200.21C859.268 200.21 868.67 190.808 868.67 179.21C868.67 167.612 859.268 158.21 847.67 158.21C836.072 158.21 826.67 167.612 826.67 179.21C826.67 190.808 836.072 200.21 847.67 200.21Z" fill="#002C8D"/>
<path d="M847.67 163.9L833.38 188.66H861.96L847.67 163.9Z" fill="#2FBDEB"/>
<path d="M906.56 200.21C918.158 200.21 927.56 190.808 927.56 179.21C927.56 167.612 918.158 158.21 906.56 158.21C894.962 158.21 885.56 167.612 885.56 179.21C885.56 190.808 894.962 200.21 906.56 200.21Z" fill="#A220DF"/>
<path d="M896.43 190.13C895.35 190.13 894.55 189.76 894.04 189.02C893.53 188.28 893.53 187.36 894.04 186.25L902.65 167.72C903.06 166.82 903.57 166.16 904.17 165.75C904.77 165.34 905.47 165.13 906.28 165.13C907.09 165.13 907.75 165.34 908.35 165.75C908.95 166.16 909.46 166.82 909.87 167.72L918.48 186.25C919.01 187.38 919.03 188.31 918.55 189.03C918.07 189.75 917.31 190.12 916.27 190.12C915.35 190.12 914.64 189.91 914.14 189.5C913.64 189.09 913.2 188.42 912.81 187.49L911.7 184.86H900.81L899.7 187.49C899.29 188.41 898.86 189.08 898.42 189.5C897.98 189.91 897.31 190.12 896.41 190.12L896.43 190.13ZM906.21 172.08L902.89 180H909.6L906.28 172.08H906.21Z" fill="#CA8FFF"/>
<path d="M965.45 200.21C977.048 200.21 986.45 190.808 986.45 179.21C986.45 167.612 977.048 158.21 965.45 158.21C953.852 158.21 944.45 167.612 944.45 179.21C944.45 190.808 953.852 200.21 965.45 200.21Z" fill="#00A84E"/>
<path d="M958.95 191.13C956.74 191.13 955.63 190.04 955.63 187.84V170.03C955.63 167.84 956.74 166.74 958.95 166.74H967.39C970.02 166.74 972.05 167.31 973.49 168.45C974.93 169.59 975.65 171.12 975.65 173.03C975.65 174.3 975.33 175.4 974.7 176.35C974.07 177.3 973.18 178 972.05 178.46C973.41 178.87 974.46 179.57 975.2 180.55C975.94 181.53 976.31 182.75 976.31 184.2C976.31 186.34 975.54 188.03 974.01 189.27C972.48 190.5 970.38 191.12 967.73 191.12H958.95V191.13ZM961.72 176.44H966.25C967.4 176.44 968.25 176.23 968.79 175.82C969.33 175.41 969.6 174.77 969.6 173.92C969.6 173.07 969.33 172.44 968.79 172.04C968.25 171.64 967.4 171.43 966.25 171.43H961.72V176.44ZM961.72 186.46H966.87C968.05 186.46 968.9 186.24 969.45 185.79C969.99 185.34 970.26 184.67 970.26 183.77C970.26 182.87 969.99 182.2 969.45 181.76C968.91 181.32 968.05 181.1 966.87 181.1H961.72V186.46Z" fill="#BBED16"/>
<path d="M1024.34 200.21C1035.94 200.21 1045.34 190.808 1045.34 179.21C1045.34 167.612 1035.94 158.21 1024.34 158.21C1012.74 158.21 1003.34 167.612 1003.34 179.21C1003.34 190.808 1012.74 200.21 1024.34 200.21Z" fill="#FF8000"/>
<path d="M1024.89 191.21C1022.19 191.21 1019.88 190.69 1017.94 189.65C1016 188.61 1014.52 187.15 1013.5 185.26C1012.47 183.37 1011.96 181.16 1011.96 178.62C1011.96 176.08 1012.47 173.88 1013.5 172C1014.53 170.12 1016.01 168.66 1017.94 167.63C1019.88 166.59 1022.19 166.07 1024.89 166.07C1025.95 166.07 1027.05 166.19 1028.19 166.43C1029.33 166.67 1030.34 167.03 1031.22 167.52C1031.86 167.87 1032.31 168.3 1032.57 168.83C1032.82 169.36 1032.92 169.9 1032.85 170.46C1032.78 171.01 1032.58 171.51 1032.24 171.95C1031.91 172.39 1031.48 172.68 1030.98 172.83C1030.47 172.98 1029.92 172.9 1029.32 172.61C1027.96 171.94 1026.57 171.61 1025.14 171.61C1023 171.61 1021.38 172.22 1020.3 173.43C1019.22 174.64 1018.67 176.38 1018.67 178.63C1018.67 180.88 1019.21 182.66 1020.3 183.87C1021.38 185.08 1023 185.69 1025.14 185.69C1025.74 185.69 1026.38 185.62 1027.08 185.47C1027.77 185.32 1028.45 185.08 1029.12 184.76C1029.81 184.46 1030.43 184.38 1030.97 184.52C1031.51 184.66 1031.96 184.93 1032.3 185.35C1032.65 185.76 1032.86 186.24 1032.94 186.79C1033.02 187.33 1032.94 187.87 1032.72 188.4C1032.49 188.93 1032.06 189.36 1031.44 189.68C1030.63 190.16 1029.64 190.54 1028.45 190.82C1027.26 191.1 1026.08 191.23 1024.91 191.23L1024.89 191.21Z" fill="#FFDC00"/>
<path d="M729.89 147.47C741.488 147.47 750.89 138.068 750.89 126.47C750.89 114.872 741.488 105.47 729.89 105.47C718.292 105.47 708.89 114.872 708.89 126.47C708.89 138.068 718.292 147.47 729.89 147.47Z" fill="#FF0000"/>
<path d="M723.2 138.82C721.3 138.82 720.35 137.88 720.35 136.01C720.35 134.14 721.3 133.24 723.2 133.24H726.57V119.88L724.29 121.27C723.64 121.67 723.03 121.83 722.46 121.74C721.89 121.65 721.4 121.41 721 121.01C720.6 120.61 720.34 120.12 720.21 119.55C720.08 118.98 720.14 118.4 720.36 117.83C720.58 117.26 721.03 116.77 721.71 116.37L726.88 113.15C728 112.45 729.19 112.1 730.44 112.1C731.39 112.1 732.12 112.34 732.65 112.83C733.17 113.32 733.44 114.02 733.44 114.94V133.25H736.43C738.33 133.25 739.28 134.17 739.28 136.02C739.28 137.87 738.33 138.83 736.43 138.83H723.22L723.2 138.82Z" fill="#FFBD00"/>
<path d="M788.78 147.47C800.378 147.47 809.78 138.068 809.78 126.47C809.78 114.872 800.378 105.47 788.78 105.47C777.182 105.47 767.78 114.872 767.78 126.47C767.78 138.068 777.182 147.47 788.78 147.47Z" fill="#6600BD"/>
<path d="M783.2 139.18C782.1 139.18 781.31 138.92 780.82 138.41C780.33 137.9 780.09 137.14 780.09 136.15C780.09 135.45 780.24 134.83 780.54 134.28C780.84 133.73 781.25 133.19 781.78 132.67L788.33 125.82C789.3 124.8 790 123.91 790.41 123.14C790.82 122.38 791.03 121.62 791.03 120.88C791.03 118.98 789.82 118.03 787.4 118.03C786.8 118.03 786.16 118.11 785.47 118.27C784.78 118.43 784.07 118.71 783.32 119.11C782.65 119.43 782.03 119.53 781.49 119.39C780.94 119.25 780.49 118.97 780.14 118.55C779.79 118.13 779.57 117.64 779.48 117.09C779.39 116.54 779.48 116 779.72 115.46C779.97 114.92 780.42 114.48 781.07 114.13C782.22 113.53 783.41 113.09 784.64 112.8C785.88 112.51 787.12 112.37 788.36 112.37C791.4 112.37 793.73 113.03 795.34 114.35C796.95 115.67 797.75 117.58 797.75 120.08C797.75 121.68 797.39 123.2 796.66 124.65C795.94 126.1 794.73 127.66 793.03 129.33L788.76 133.6H796.21C798.11 133.6 799.05 134.52 799.05 136.37C799.05 138.22 798.1 139.18 796.21 139.18H783.18H783.2Z" fill="#E93594"/>
<path d="M847.67 147.47C859.268 147.47 868.67 138.068 868.67 126.47C868.67 114.872 859.268 105.47 847.67 105.47C836.072 105.47 826.67 114.872 826.67 126.47C826.67 138.068 836.072 147.47 847.67 147.47Z" fill="#2FBDEB"/>
<path d="M847 139.59C845.7 139.59 844.42 139.46 843.16 139.22C841.9 138.97 840.81 138.62 839.88 138.17C839.11 137.8 838.56 137.33 838.23 136.78C837.91 136.23 837.77 135.67 837.82 135.1C837.87 134.53 838.08 134.01 838.44 133.57C838.8 133.12 839.28 132.82 839.86 132.65C840.45 132.49 841.11 132.57 841.86 132.89C842.78 133.29 843.63 133.56 844.41 133.71C845.18 133.86 845.96 133.93 846.73 133.93C849.43 133.93 850.77 133.01 850.77 131.16C850.77 129.46 849.57 128.61 847.18 128.61H845.16C844.21 128.61 843.49 128.37 842.99 127.9C842.49 127.43 842.24 126.75 842.24 125.88C842.24 125.01 842.49 124.33 842.99 123.86C843.49 123.39 844.21 123.15 845.16 123.15H846.51C847.58 123.15 848.43 122.93 849.04 122.48C849.65 122.03 849.96 121.38 849.96 120.53C849.96 118.86 848.8 118.02 846.48 118.02C845.78 118.02 845.07 118.09 844.35 118.24C843.63 118.39 842.85 118.65 842.03 119.03C841.38 119.3 840.79 119.37 840.25 119.22C839.71 119.07 839.27 118.78 838.92 118.36C838.57 117.94 838.36 117.44 838.28 116.88C838.21 116.32 838.3 115.78 838.58 115.27C838.85 114.76 839.33 114.33 840 113.98C842.15 112.91 844.53 112.37 847.15 112.37C850.09 112.37 852.39 113.01 854.04 114.3C855.69 115.59 856.51 117.36 856.51 119.63C856.51 120.98 856.17 122.16 855.5 123.19C854.83 124.21 853.89 124.96 852.69 125.44C854.16 125.86 855.3 126.64 856.12 127.76C856.93 128.88 857.34 130.24 857.34 131.84C857.34 134.24 856.42 136.13 854.59 137.51C852.76 138.89 850.23 139.59 847.01 139.59H847Z" fill="#0078FF"/>
<path d="M965.45 147.47C977.048 147.47 986.45 138.068 986.45 126.47C986.45 114.872 977.048 105.47 965.45 105.47C953.852 105.47 944.45 114.872 944.45 126.47C944.45 138.068 953.852 147.47 965.45 147.47Z" fill="#FFBD00"/>
<path d="M976.31 115.81H954.2V137.92H976.31V115.81Z" fill="#FF0000"/>
<path d="M906.56 147.47C918.158 147.47 927.56 138.068 927.56 126.47C927.56 114.872 918.158 105.47 906.56 105.47C894.962 105.47 885.56 114.872 885.56 126.47C885.56 138.068 894.962 147.47 906.56 147.47Z" fill="#99CF16"/>
<path d="M906.56 139.81C913.927 139.81 919.9 133.837 919.9 126.47C919.9 119.102 913.927 113.13 906.56 113.13C899.192 113.13 893.22 119.102 893.22 126.47C893.22 133.837 899.192 139.81 906.56 139.81Z" fill="#00A84E"/>
<path d="M1024.34 147.47C1035.94 147.47 1045.34 138.068 1045.34 126.47C1045.34 114.872 1035.94 105.47 1024.34 105.47C1012.74 105.47 1003.34 114.872 1003.34 126.47C1003.34 138.068 1012.74 147.47 1024.34 147.47Z" fill="#002C8D"/>
<path d="M1024.34 111.16L1010.05 135.92H1038.64L1024.34 111.16Z" fill="#2FBDEB"/>
<path d="M847.67 94.7402C859.268 94.7402 868.67 85.3382 868.67 73.7402C868.67 62.1423 859.268 52.7402 847.67 52.7402C836.072 52.7402 826.67 62.1423 826.67 73.7402C826.67 85.3382 836.072 94.7402 847.67 94.7402Z" fill="#0078FF"/>
<path d="M848.03 57.8901C847.84 57.8501 847.65 57.8301 847.45 57.8301C846.37 57.8501 845.43 58.5601 845.12 59.5901L842.75 67.3701L834.62 67.5201C833.54 67.5401 832.6 68.2501 832.29 69.2801C831.98 70.3101 832.36 71.4201 833.24 72.0401L839.91 76.7001L837.54 84.4801C837.23 85.5101 837.61 86.6201 838.49 87.2401C838.76 87.4301 839.06 87.5601 839.37 87.6301C840.07 87.7801 840.81 87.6301 841.41 87.1901L847.9 82.2901L854.57 86.9501C854.84 87.1401 855.14 87.2701 855.45 87.3401C856.15 87.4901 856.89 87.3401 857.48 86.9001C858.34 86.2501 858.68 85.1201 858.33 84.1101L855.67 76.4201L862.1 71.5601C862.58 71.2201 862.94 70.7001 863.08 70.0801C863.37 68.7701 862.57 67.4701 861.28 67.1401C861.25 67.1401 861.22 67.1301 861.19 67.1201C861.13 67.1101 861.06 67.0901 861 67.0801C860.85 67.0601 860.7 67.0501 860.55 67.0601L852.48 67.2101L849.83 59.5301C849.54 58.7001 848.85 58.1001 848.02 57.9201L848.03 57.8901Z" fill="#2FBDEB"/>
<path d="M788.78 94.7402C800.378 94.7402 809.78 85.3382 809.78 73.7402C809.78 62.1423 800.378 52.7402 788.78 52.7402C777.182 52.7402 767.78 62.1423 767.78 73.7402C767.78 85.3382 777.182 94.7402 788.78 94.7402Z" fill="#FF92FF"/>
<path d="M788.6 67.6301C788.6 67.6301 782.01 59.5201 776.8 63.6401C767.98 70.6001 788.6 87.5801 788.6 87.5801C788.6 87.5801 808.35 71.5201 800 64.1001C793.62 58.4301 788.6 67.6301 788.6 67.6301Z" fill="#FF0000"/>
<path d="M729.89 94.7402C741.488 94.7402 750.89 85.3382 750.89 73.7402C750.89 62.1423 741.488 52.7402 729.89 52.7402C718.292 52.7402 708.89 62.1423 708.89 73.7402C708.89 85.3382 718.292 94.7402 729.89 94.7402Z" fill="#FFDC00"/>
<path d="M727.47 63.2796L728.83 75.1996C726.64 74.7796 723.83 75.6896 721.55 77.8196C718.32 80.8296 717.4 85.0796 719.48 87.3096C721.56 89.5396 725.86 88.9096 729.09 85.8996C731.59 83.5696 732.69 80.5096 732.1 78.1996L730.8 67.6396C730.8 67.6396 732.97 67.4096 736.63 65.9396C740.29 64.4696 738.69 57.5596 738.69 57.5596L727.47 63.2696V63.2796Z" fill="#FF8000"/>
<path d="M906.56 94.7402C918.158 94.7402 927.56 85.3382 927.56 73.7402C927.56 62.1423 918.158 52.7402 906.56 52.7402C894.962 52.7402 885.56 62.1423 885.56 73.7402C885.56 85.3382 894.962 94.7402 906.56 94.7402Z" fill="#FF0000"/>
<path d="M899.88 86.0804C897.98 86.0804 897.03 85.1403 897.03 83.2703C897.03 81.4003 897.98 80.5004 899.88 80.5004H903.25V67.1404L900.97 68.5303C900.32 68.9303 899.71 69.0904 899.14 69.0004C898.57 68.9104 898.08 68.6703 897.68 68.2703C897.28 67.8703 897.02 67.3803 896.89 66.8103C896.76 66.2403 896.82 65.6603 897.04 65.0903C897.26 64.5203 897.71 64.0304 898.39 63.6304L903.56 60.4104C904.68 59.7104 905.87 59.3604 907.12 59.3604C908.07 59.3604 908.8 59.6004 909.33 60.0904C909.85 60.5804 910.12 61.2804 910.12 62.2004V80.5104H913.11C915.01 80.5104 915.96 81.4303 915.96 83.2803C915.96 85.1304 915.01 86.0903 913.11 86.0903H899.9L899.88 86.0804Z" fill="#FFBD00"/>
<path d="M965.45 94.7402C977.048 94.7402 986.45 85.3382 986.45 73.7402C986.45 62.1423 977.048 52.7402 965.45 52.7402C953.852 52.7402 944.45 62.1423 944.45 73.7402C944.45 85.3382 953.852 94.7402 965.45 94.7402Z" fill="#6600BD"/>
<path d="M959.88 86.4399C958.78 86.4399 957.99 86.1799 957.5 85.6699C957.01 85.1599 956.77 84.3999 956.77 83.4099C956.77 82.7099 956.92 82.0899 957.22 81.5399C957.52 80.9899 957.93 80.4499 958.46 79.9299L965.01 73.0799C965.98 72.0599 966.68 71.1699 967.09 70.3999C967.5 69.6399 967.71 68.8799 967.71 68.1399C967.71 66.2399 966.5 65.2899 964.08 65.2899C963.48 65.2899 962.84 65.3699 962.15 65.5299C961.46 65.6899 960.75 65.9699 960 66.3699C959.33 66.6899 958.71 66.7899 958.17 66.6499C957.62 66.5099 957.17 66.2299 956.82 65.8099C956.47 65.3899 956.25 64.8999 956.16 64.3499C956.07 63.7999 956.16 63.2599 956.4 62.7199C956.65 62.1799 957.1 61.7399 957.75 61.3899C958.9 60.7899 960.09 60.3499 961.32 60.0599C962.56 59.7699 963.8 59.6299 965.04 59.6299C968.08 59.6299 970.41 60.2899 972.02 61.6099C973.63 62.9299 974.43 64.8399 974.43 67.3399C974.43 68.9399 974.07 70.4599 973.34 71.9099C972.62 73.3599 971.41 74.9199 969.71 76.5899L965.44 80.8599H972.89C974.79 80.8599 975.73 81.7799 975.73 83.6299C975.73 85.4799 974.78 86.4399 972.89 86.4399H959.86H959.88Z" fill="#E93594"/>
<path d="M1024.34 94.7402C1035.94 94.7402 1045.34 85.3382 1045.34 73.7402C1045.34 62.1423 1035.94 52.7402 1024.34 52.7402C1012.74 52.7402 1003.34 62.1423 1003.34 73.7402C1003.34 85.3382 1012.74 94.7402 1024.34 94.7402Z" fill="#2FBDEB"/>
<path d="M1023.67 86.8499C1022.37 86.8499 1021.09 86.7199 1019.83 86.4799C1018.57 86.2299 1017.48 85.8799 1016.55 85.4299C1015.78 85.0599 1015.23 84.5899 1014.9 84.0399C1014.58 83.4899 1014.44 82.9299 1014.49 82.3599C1014.54 81.7899 1014.75 81.2699 1015.11 80.8299C1015.47 80.3799 1015.95 80.0799 1016.53 79.9099C1017.12 79.7499 1017.78 79.8299 1018.53 80.1499C1019.45 80.5499 1020.3 80.8199 1021.08 80.9699C1021.85 81.1199 1022.63 81.1899 1023.4 81.1899C1026.1 81.1899 1027.44 80.2699 1027.44 78.4199C1027.44 76.7199 1026.24 75.8699 1023.85 75.8699H1021.83C1020.88 75.8699 1020.16 75.6299 1019.66 75.1599C1019.16 74.6899 1018.91 74.0099 1018.91 73.1399C1018.91 72.2699 1019.16 71.5899 1019.66 71.1199C1020.16 70.6499 1020.88 70.4099 1021.83 70.4099H1023.18C1024.25 70.4099 1025.1 70.1899 1025.71 69.7399C1026.32 69.2899 1026.63 68.6399 1026.63 67.7899C1026.63 66.1199 1025.47 65.2799 1023.15 65.2799C1022.45 65.2799 1021.74 65.3499 1021.02 65.4999C1020.3 65.6499 1019.52 65.9099 1018.7 66.2899C1018.05 66.5599 1017.46 66.6299 1016.92 66.4799C1016.38 66.3299 1015.94 66.0399 1015.59 65.6199C1015.24 65.1999 1015.03 64.6999 1014.95 64.1399C1014.88 63.5799 1014.97 63.0399 1015.25 62.5299C1015.52 62.0199 1016 61.5899 1016.67 61.2399C1018.82 60.1699 1021.2 59.6299 1023.82 59.6299C1026.76 59.6299 1029.06 60.2699 1030.71 61.5599C1032.36 62.8499 1033.18 64.6199 1033.18 66.8899C1033.18 68.2399 1032.84 69.4199 1032.17 70.4499C1031.5 71.4699 1030.56 72.2199 1029.36 72.6999C1030.83 73.1199 1031.97 73.8999 1032.79 75.0199C1033.6 76.1399 1034.01 77.4999 1034.01 79.0999C1034.01 81.4999 1033.09 83.3899 1031.26 84.7699C1029.43 86.1599 1026.9 86.8499 1023.68 86.8499H1023.67Z" fill="#0078FF"/>
<path d="M728.56 42C740.158 42 749.56 32.598 749.56 21C749.56 9.40202 740.158 0 728.56 0C716.962 0 707.56 9.40202 707.56 21C707.56 32.598 716.962 42 728.56 42Z" fill="#A220DF"/>
<path d="M718.43 31.9199C717.35 31.9199 716.55 31.5499 716.04 30.8099C715.53 30.0699 715.53 29.1499 716.04 28.0399L724.65 9.50992C725.06 8.60992 725.57 7.94992 726.17 7.53992C726.77 7.12992 727.47 6.91992 728.28 6.91992C729.09 6.91992 729.75 7.12992 730.35 7.53992C730.95 7.94992 731.46 8.60992 731.87 9.50992L740.48 28.0399C741.01 29.1699 741.03 30.0999 740.55 30.8199C740.07 31.5399 739.31 31.9099 738.27 31.9099C737.35 31.9099 736.64 31.6999 736.14 31.2899C735.64 30.8799 735.2 30.2099 734.81 29.2799L733.7 26.6499H722.81L721.7 29.2799C721.29 30.1999 720.86 30.8699 720.42 31.2899C719.98 31.6999 719.31 31.9099 718.41 31.9099L718.43 31.9199ZM728.22 13.8699L724.9 21.7899H731.61L728.29 13.8699H728.22Z" fill="#CA8FFF"/>
<path d="M787.45 42C799.048 42 808.45 32.598 808.45 21C808.45 9.40202 799.048 0 787.45 0C775.852 0 766.45 9.40202 766.45 21C766.45 32.598 775.852 42 787.45 42Z" fill="#00A84E"/>
<path d="M780.95 32.92C778.74 32.92 777.63 31.83 777.63 29.63V11.83C777.63 9.64004 778.74 8.54004 780.95 8.54004H789.39C792.02 8.54004 794.05 9.11004 795.49 10.25C796.93 11.39 797.65 12.92 797.65 14.83C797.65 16.1 797.33 17.2 796.7 18.15C796.07 19.1 795.18 19.8 794.05 20.26C795.41 20.67 796.46 21.37 797.2 22.35C797.94 23.33 798.31 24.55 798.31 26C798.31 28.14 797.54 29.83 796.01 31.07C794.48 32.3 792.38 32.92 789.73 32.92H780.95ZM783.72 18.23H788.25C789.4 18.23 790.25 18.02 790.79 17.61C791.33 17.2 791.6 16.56 791.6 15.71C791.6 14.86 791.33 14.23 790.79 13.83C790.25 13.43 789.4 13.22 788.25 13.22H783.72V18.23ZM783.72 28.25H788.87C790.05 28.25 790.9 28.03 791.45 27.58C791.99 27.13 792.26 26.46 792.26 25.56C792.26 24.66 791.99 23.99 791.45 23.55C790.91 23.11 790.05 22.89 788.87 22.89H783.72V28.25Z" fill="#BBED16"/>
<path d="M846.35 42C857.948 42 867.35 32.598 867.35 21C867.35 9.40202 857.948 0 846.35 0C834.752 0 825.35 9.40202 825.35 21C825.35 32.598 834.752 42 846.35 42Z" fill="#FF8000"/>
<path d="M846.89 33.0004C844.19 33.0004 841.88 32.4804 839.94 31.4404C838 30.4004 836.52 28.9403 835.5 27.0504C834.47 25.1604 833.96 22.9504 833.96 20.4104C833.96 17.8704 834.47 15.6704 835.5 13.7904C836.53 11.9104 838.01 10.4504 839.94 9.42035C841.88 8.38035 844.19 7.86035 846.89 7.86035C847.95 7.86035 849.05 7.98035 850.19 8.22035C851.33 8.46035 852.34 8.82035 853.22 9.31035C853.86 9.66035 854.31 10.0904 854.57 10.6204C854.82 11.1504 854.92 11.6904 854.85 12.2504C854.78 12.8004 854.58 13.3004 854.24 13.7404C853.91 14.1804 853.48 14.4704 852.98 14.6204C852.47 14.7704 851.92 14.6904 851.32 14.4004C849.96 13.7304 848.57 13.4004 847.14 13.4004C845 13.4004 843.38 14.0104 842.3 15.2204C841.22 16.4304 840.67 18.1704 840.67 20.4204C840.67 22.6704 841.21 24.4504 842.3 25.6604C843.38 26.8703 845 27.4804 847.14 27.4804C847.74 27.4804 848.38 27.4104 849.08 27.2604C849.77 27.1104 850.45 26.8703 851.12 26.5504C851.81 26.2504 852.43 26.1704 852.97 26.3104C853.51 26.4503 853.96 26.7204 854.3 27.1404C854.65 27.5504 854.86 28.0304 854.94 28.5804C855.02 29.1204 854.94 29.6604 854.72 30.1904C854.49 30.7204 854.06 31.1504 853.44 31.4704C852.63 31.9503 851.64 32.3304 850.45 32.6104C849.26 32.8904 848.08 33.0204 846.91 33.0204L846.89 33.0004Z" fill="#FFDC00"/>
<path d="M1023.02 42C1034.62 42 1044.02 32.598 1044.02 21C1044.02 9.40202 1034.62 0 1023.02 0C1011.42 0 1002.02 9.40202 1002.02 21C1002.02 32.598 1011.42 42 1023.02 42Z" fill="#0078FF"/>
<path d="M1023.38 5.15961C1023.19 5.11961 1023 5.09961 1022.8 5.09961C1021.72 5.11961 1020.78 5.82961 1020.47 6.85961L1018.1 14.6396L1009.97 14.7896C1008.89 14.8096 1007.95 15.5196 1007.64 16.5496C1007.33 17.5796 1007.71 18.6896 1008.59 19.3096L1015.26 23.9696L1012.89 31.7496C1012.58 32.7796 1012.96 33.8896 1013.84 34.5096C1014.11 34.6996 1014.41 34.8296 1014.72 34.8996C1015.42 35.0496 1016.16 34.8996 1016.76 34.4596L1023.25 29.5596L1029.92 34.2196C1030.19 34.4096 1030.49 34.5396 1030.8 34.6096C1031.5 34.7596 1032.24 34.6096 1032.83 34.1696C1033.69 33.5196 1034.03 32.3896 1033.68 31.3796L1031.02 23.6896L1037.45 18.8296C1037.93 18.4896 1038.29 17.9696 1038.43 17.3496C1038.72 16.0396 1037.92 14.7396 1036.63 14.4096C1036.6 14.4096 1036.57 14.3996 1036.54 14.3896C1036.48 14.3796 1036.41 14.3596 1036.35 14.3496C1036.2 14.3296 1036.05 14.3196 1035.9 14.3296L1027.83 14.4796L1025.18 6.79961C1024.89 5.96961 1024.2 5.36961 1023.37 5.18961L1023.38 5.15961Z" fill="#2FBDEB"/>
<path d="M964.13 42C975.728 42 985.13 32.598 985.13 21C985.13 9.40202 975.728 0 964.13 0C952.532 0 943.13 9.40202 943.13 21C943.13 32.598 952.532 42 964.13 42Z" fill="#FF92FF"/>
<path d="M963.95 14.8898C963.95 14.8898 957.36 6.77982 952.15 10.8998C943.33 17.8598 963.95 34.8398 963.95 34.8398C963.95 34.8398 983.7 18.7798 975.35 11.3598C968.97 5.68982 963.95 14.8898 963.95 14.8898Z" fill="#FF0000"/>
<path d="M905.24 42C916.838 42 926.24 32.598 926.24 21C926.24 9.40202 916.838 0 905.24 0C893.642 0 884.24 9.40202 884.24 21C884.24 32.598 893.642 42 905.24 42Z" fill="#FFDC00"/>
<path d="M902.82 10.5501L904.18 22.4701C901.99 22.0501 899.18 22.9601 896.9 25.0901C893.67 28.1001 892.75 32.3501 894.83 34.5801C896.91 36.8101 901.21 36.1801 904.44 33.1701C906.94 30.8401 908.04 27.7801 907.45 25.4701L906.15 14.9101C906.15 14.9101 908.32 14.6801 911.98 13.2101C915.64 11.7401 914.04 4.83008 914.04 4.83008L902.82 10.5401V10.5501Z" fill="#FF8000"/>
<path d="M436.16 200.21C447.758 200.21 457.16 190.808 457.16 179.21C457.16 167.612 447.758 158.21 436.16 158.21C424.562 158.21 415.16 167.612 415.16 179.21C415.16 190.808 424.562 200.21 436.16 200.21Z" fill="#FFBD00"/>
<path d="M447.02 168.55H424.91V190.66H447.02V168.55Z" fill="#FF0000"/>
<path d="M377.27 200.21C388.868 200.21 398.27 190.808 398.27 179.21C398.27 167.612 388.868 158.21 377.27 158.21C365.672 158.21 356.27 167.612 356.27 179.21C356.27 190.808 365.672 200.21 377.27 200.21Z" fill="#99CF16"/>
<path d="M377.27 192.55C384.638 192.55 390.61 186.578 390.61 179.21C390.61 171.843 384.638 165.87 377.27 165.87C369.903 165.87 363.93 171.843 363.93 179.21C363.93 186.578 369.903 192.55 377.27 192.55Z" fill="#00A84E"/>
<path d="M495.05 200.21C506.648 200.21 516.05 190.808 516.05 179.21C516.05 167.612 506.648 158.21 495.05 158.21C483.452 158.21 474.05 167.612 474.05 179.21C474.05 190.808 483.452 200.21 495.05 200.21Z" fill="#002C8D"/>
<path d="M495.05 163.9L480.76 188.66H509.35L495.05 163.9Z" fill="#2FBDEB"/>
<path d="M553.94 200.21C565.538 200.21 574.94 190.808 574.94 179.21C574.94 167.612 565.538 158.21 553.94 158.21C542.342 158.21 532.94 167.612 532.94 179.21C532.94 190.808 542.342 200.21 553.94 200.21Z" fill="#A220DF"/>
<path d="M543.81 190.13C542.73 190.13 541.93 189.76 541.42 189.02C540.91 188.28 540.91 187.36 541.42 186.25L550.03 167.72C550.44 166.82 550.95 166.16 551.55 165.75C552.15 165.34 552.85 165.13 553.66 165.13C554.47 165.13 555.13 165.34 555.73 165.75C556.33 166.16 556.84 166.82 557.25 167.72L565.86 186.25C566.39 187.38 566.41 188.31 565.93 189.03C565.45 189.75 564.69 190.12 563.65 190.12C562.73 190.12 562.02 189.91 561.52 189.5C561.02 189.09 560.58 188.42 560.19 187.49L559.08 184.86H548.19L547.08 187.49C546.67 188.41 546.24 189.08 545.8 189.5C545.36 189.91 544.69 190.12 543.79 190.12L543.81 190.13ZM553.6 172.08L550.28 180H556.99L553.67 172.08H553.6Z" fill="#CA8FFF"/>
<path d="M612.83 200.21C624.428 200.21 633.83 190.808 633.83 179.21C633.83 167.612 624.428 158.21 612.83 158.21C601.232 158.21 591.83 167.612 591.83 179.21C591.83 190.808 601.232 200.21 612.83 200.21Z" fill="#00A84E"/>
<path d="M606.33 191.13C604.12 191.13 603.01 190.04 603.01 187.84V170.03C603.01 167.84 604.12 166.74 606.33 166.74H614.77C617.4 166.74 619.43 167.31 620.87 168.45C622.31 169.59 623.03 171.12 623.03 173.03C623.03 174.3 622.71 175.4 622.08 176.35C621.45 177.3 620.56 178 619.43 178.46C620.79 178.87 621.84 179.57 622.58 180.55C623.32 181.53 623.69 182.75 623.69 184.2C623.69 186.34 622.92 188.03 621.39 189.27C619.86 190.5 617.76 191.12 615.11 191.12H606.33V191.13ZM609.1 176.44H613.63C614.78 176.44 615.63 176.23 616.17 175.82C616.71 175.41 616.98 174.77 616.98 173.92C616.98 173.07 616.71 172.44 616.17 172.04C615.63 171.64 614.78 171.43 613.63 171.43H609.1V176.44ZM609.1 186.46H614.25C615.43 186.46 616.28 186.24 616.83 185.79C617.37 185.34 617.64 184.67 617.64 183.77C617.64 182.87 617.37 182.2 616.83 181.76C616.29 181.32 615.43 181.1 614.25 181.1H609.1V186.46Z" fill="#BBED16"/>
<path d="M671.73 200.21C683.328 200.21 692.73 190.808 692.73 179.21C692.73 167.612 683.328 158.21 671.73 158.21C660.132 158.21 650.73 167.612 650.73 179.21C650.73 190.808 660.132 200.21 671.73 200.21Z" fill="#FF8000"/>
<path d="M672.27 191.21C669.57 191.21 667.26 190.69 665.32 189.65C663.38 188.61 661.9 187.15 660.88 185.26C659.85 183.37 659.34 181.16 659.34 178.62C659.34 176.08 659.85 173.88 660.88 172C661.91 170.12 663.39 168.66 665.32 167.63C667.26 166.59 669.57 166.07 672.27 166.07C673.33 166.07 674.43 166.19 675.57 166.43C676.71 166.67 677.72 167.03 678.6 167.52C679.24 167.87 679.69 168.3 679.95 168.83C680.2 169.36 680.3 169.9 680.23 170.46C680.16 171.01 679.96 171.51 679.62 171.95C679.29 172.39 678.86 172.68 678.36 172.83C677.85 172.98 677.3 172.9 676.7 172.61C675.34 171.94 673.95 171.61 672.52 171.61C670.38 171.61 668.76 172.22 667.68 173.43C666.6 174.64 666.05 176.38 666.05 178.63C666.05 180.88 666.59 182.66 667.68 183.87C668.76 185.08 670.38 185.69 672.52 185.69C673.12 185.69 673.76 185.62 674.46 185.47C675.15 185.32 675.83 185.08 676.5 184.76C677.19 184.46 677.81 184.38 678.35 184.52C678.89 184.66 679.34 184.93 679.68 185.35C680.03 185.76 680.24 186.24 680.32 186.79C680.4 187.33 680.32 187.87 680.1 188.4C679.87 188.93 679.44 189.36 678.82 189.68C678.01 190.16 677.02 190.54 675.83 190.82C674.64 191.1 673.46 191.23 672.29 191.23L672.27 191.21Z" fill="#FFDC00"/>
<path d="M377.27 147.47C388.868 147.47 398.27 138.068 398.27 126.47C398.27 114.872 388.868 105.47 377.27 105.47C365.672 105.47 356.27 114.872 356.27 126.47C356.27 138.068 365.672 147.47 377.27 147.47Z" fill="#FF0000"/>
<path d="M370.59 138.82C368.69 138.82 367.74 137.88 367.74 136.01C367.74 134.14 368.69 133.24 370.59 133.24H373.96V119.88L371.68 121.27C371.03 121.67 370.42 121.83 369.85 121.74C369.28 121.65 368.79 121.41 368.39 121.01C367.99 120.61 367.73 120.12 367.6 119.55C367.47 118.98 367.53 118.4 367.75 117.83C367.97 117.26 368.42 116.77 369.1 116.37L374.27 113.15C375.39 112.45 376.58 112.1 377.83 112.1C378.78 112.1 379.51 112.34 380.04 112.83C380.56 113.32 380.83 114.02 380.83 114.94V133.25H383.82C385.72 133.25 386.67 134.17 386.67 136.02C386.67 137.87 385.72 138.83 383.82 138.83H370.61L370.59 138.82Z" fill="#FFBD00"/>
<path d="M436.16 147.47C447.758 147.47 457.16 138.068 457.16 126.47C457.16 114.872 447.758 105.47 436.16 105.47C424.562 105.47 415.16 114.872 415.16 126.47C415.16 138.068 424.562 147.47 436.16 147.47Z" fill="#6600BD"/>
<path d="M430.58 139.18C429.48 139.18 428.69 138.92 428.2 138.41C427.71 137.9 427.47 137.14 427.47 136.15C427.47 135.45 427.62 134.83 427.92 134.28C428.22 133.73 428.63 133.19 429.16 132.67L435.71 125.82C436.68 124.8 437.38 123.91 437.79 123.14C438.2 122.38 438.41 121.62 438.41 120.88C438.41 118.98 437.2 118.03 434.78 118.03C434.18 118.03 433.54 118.11 432.85 118.27C432.16 118.43 431.45 118.71 430.7 119.11C430.03 119.43 429.41 119.53 428.87 119.39C428.32 119.25 427.87 118.97 427.52 118.55C427.17 118.13 426.95 117.64 426.86 117.09C426.77 116.54 426.86 116 427.1 115.46C427.35 114.92 427.8 114.48 428.45 114.13C429.6 113.53 430.79 113.09 432.02 112.8C433.26 112.51 434.5 112.37 435.74 112.37C438.78 112.37 441.11 113.03 442.72 114.35C444.33 115.67 445.13 117.58 445.13 120.08C445.13 121.68 444.77 123.2 444.04 124.65C443.32 126.1 442.11 127.66 440.41 129.33L436.14 133.6H443.59C445.49 133.6 446.43 134.52 446.43 136.37C446.43 138.22 445.48 139.18 443.59 139.18H430.56H430.58Z" fill="#E93594"/>
<path d="M495.05 147.47C506.648 147.47 516.05 138.068 516.05 126.47C516.05 114.872 506.648 105.47 495.05 105.47C483.452 105.47 474.05 114.872 474.05 126.47C474.05 138.068 483.452 147.47 495.05 147.47Z" fill="#2FBDEB"/>
<path d="M494.38 139.59C493.08 139.59 491.8 139.46 490.54 139.22C489.28 138.97 488.19 138.62 487.26 138.17C486.49 137.8 485.94 137.33 485.61 136.78C485.29 136.23 485.15 135.67 485.2 135.1C485.25 134.53 485.46 134.01 485.82 133.57C486.18 133.12 486.66 132.82 487.24 132.65C487.83 132.49 488.49 132.57 489.24 132.89C490.16 133.29 491.01 133.56 491.79 133.71C492.56 133.86 493.34 133.93 494.11 133.93C496.81 133.93 498.15 133.01 498.15 131.16C498.15 129.46 496.95 128.61 494.56 128.61H492.54C491.59 128.61 490.87 128.37 490.37 127.9C489.87 127.43 489.62 126.75 489.62 125.88C489.62 125.01 489.87 124.33 490.37 123.86C490.87 123.39 491.59 123.15 492.54 123.15H493.89C494.96 123.15 495.81 122.93 496.42 122.48C497.03 122.03 497.34 121.38 497.34 120.53C497.34 118.86 496.18 118.02 493.86 118.02C493.16 118.02 492.45 118.09 491.73 118.24C491.01 118.39 490.23 118.65 489.41 119.03C488.76 119.3 488.17 119.37 487.63 119.22C487.09 119.07 486.65 118.78 486.3 118.36C485.95 117.94 485.74 117.44 485.66 116.88C485.59 116.32 485.68 115.78 485.96 115.27C486.23 114.76 486.71 114.33 487.38 113.98C489.53 112.91 491.91 112.37 494.53 112.37C497.47 112.37 499.77 113.01 501.42 114.3C503.07 115.59 503.89 117.36 503.89 119.63C503.89 120.98 503.55 122.16 502.88 123.19C502.21 124.21 501.27 124.96 500.07 125.44C501.54 125.86 502.68 126.64 503.5 127.76C504.31 128.88 504.72 130.24 504.72 131.84C504.72 134.24 503.8 136.13 501.97 137.51C500.14 138.89 497.61 139.59 494.39 139.59H494.38Z" fill="#0078FF"/>
<path d="M612.83 147.47C624.428 147.47 633.83 138.068 633.83 126.47C633.83 114.872 624.428 105.47 612.83 105.47C601.232 105.47 591.83 114.872 591.83 126.47C591.83 138.068 601.232 147.47 612.83 147.47Z" fill="#FFBD00"/>
<path d="M623.69 115.81H601.58V137.92H623.69V115.81Z" fill="#FF0000"/>
<path d="M553.94 147.47C565.538 147.47 574.94 138.068 574.94 126.47C574.94 114.872 565.538 105.47 553.94 105.47C542.342 105.47 532.94 114.872 532.94 126.47C532.94 138.068 542.342 147.47 553.94 147.47Z" fill="#99CF16"/>
<path d="M553.94 139.81C561.308 139.81 567.28 133.837 567.28 126.47C567.28 119.102 561.308 113.13 553.94 113.13C546.573 113.13 540.6 119.102 540.6 126.47C540.6 133.837 546.573 139.81 553.94 139.81Z" fill="#00A84E"/>
<path d="M671.73 147.47C683.328 147.47 692.73 138.068 692.73 126.47C692.73 114.872 683.328 105.47 671.73 105.47C660.132 105.47 650.73 114.872 650.73 126.47C650.73 138.068 660.132 147.47 671.73 147.47Z" fill="#002C8D"/>
<path d="M671.73 111.16L657.43 135.92H686.02L671.73 111.16Z" fill="#2FBDEB"/>
<path d="M495.05 94.7402C506.648 94.7402 516.05 85.3382 516.05 73.7402C516.05 62.1423 506.648 52.7402 495.05 52.7402C483.452 52.7402 474.05 62.1423 474.05 73.7402C474.05 85.3382 483.452 94.7402 495.05 94.7402Z" fill="#0078FF"/>
<path d="M495.41 57.8901C495.22 57.8501 495.03 57.8301 494.83 57.8301C493.75 57.8501 492.81 58.5601 492.5 59.5901L490.13 67.3701L482 67.5201C480.92 67.5401 479.98 68.2501 479.67 69.2801C479.36 70.3101 479.74 71.4201 480.62 72.0401L487.29 76.7001L484.92 84.4801C484.61 85.5101 484.99 86.6201 485.87 87.2401C486.14 87.4301 486.44 87.5601 486.75 87.6301C487.45 87.7801 488.19 87.6301 488.79 87.1901L495.28 82.2901L501.95 86.9501C502.22 87.1401 502.52 87.2701 502.83 87.3401C503.53 87.4901 504.27 87.3401 504.86 86.9001C505.72 86.2501 506.06 85.1201 505.71 84.1101L503.05 76.4201L509.48 71.5601C509.96 71.2201 510.32 70.7001 510.46 70.0801C510.75 68.7701 509.95 67.4701 508.66 67.1401C508.63 67.1401 508.6 67.1301 508.57 67.1201C508.51 67.1101 508.44 67.0901 508.38 67.0801C508.23 67.0601 508.08 67.0501 507.93 67.0601L499.86 67.2101L497.21 59.5301C496.92 58.7001 496.23 58.1001 495.4 57.9201L495.41 57.8901Z" fill="#2FBDEB"/>
<path d="M436.16 94.7402C447.758 94.7402 457.16 85.3382 457.16 73.7402C457.16 62.1423 447.758 52.7402 436.16 52.7402C424.562 52.7402 415.16 62.1423 415.16 73.7402C415.16 85.3382 424.562 94.7402 436.16 94.7402Z" fill="#FF92FF"/>
<path d="M435.98 67.6301C435.98 67.6301 429.39 59.5201 424.18 63.6401C415.36 70.6001 435.98 87.5801 435.98 87.5801C435.98 87.5801 455.73 71.5201 447.38 64.1001C441 58.4301 435.98 67.6301 435.98 67.6301Z" fill="#FF0000"/>
<path d="M377.27 94.7402C388.868 94.7402 398.27 85.3382 398.27 73.7402C398.27 62.1423 388.868 52.7402 377.27 52.7402C365.672 52.7402 356.27 62.1423 356.27 73.7402C356.27 85.3382 365.672 94.7402 377.27 94.7402Z" fill="#FFDC00"/>
<path d="M374.85 63.2796L376.21 75.1996C374.02 74.7796 371.21 75.6896 368.93 77.8196C365.7 80.8296 364.78 85.0796 366.86 87.3096C368.94 89.5396 373.24 88.9096 376.47 85.8996C378.97 83.5696 380.07 80.5096 379.48 78.1996L378.18 67.6396C378.18 67.6396 380.35 67.4096 384.01 65.9396C387.67 64.4696 386.07 57.5596 386.07 57.5596L374.85 63.2696V63.2796Z" fill="#FF8000"/>
<path d="M553.94 94.7402C565.538 94.7402 574.94 85.3382 574.94 73.7402C574.94 62.1423 565.538 52.7402 553.94 52.7402C542.342 52.7402 532.94 62.1423 532.94 73.7402C532.94 85.3382 542.342 94.7402 553.94 94.7402Z" fill="#FF0000"/>
<path d="M547.26 86.0804C545.36 86.0804 544.41 85.1403 544.41 83.2703C544.41 81.4003 545.36 80.5004 547.26 80.5004H550.63V67.1404L548.35 68.5303C547.7 68.9303 547.09 69.0904 546.52 69.0004C545.95 68.9104 545.46 68.6703 545.06 68.2703C544.66 67.8703 544.4 67.3803 544.27 66.8103C544.14 66.2403 544.2 65.6603 544.42 65.0903C544.64 64.5203 545.09 64.0304 545.77 63.6304L550.94 60.4104C552.06 59.7104 553.25 59.3604 554.5 59.3604C555.45 59.3604 556.18 59.6004 556.71 60.0904C557.23 60.5804 557.5 61.2804 557.5 62.2004V80.5104H560.49C562.39 80.5104 563.34 81.4303 563.34 83.2803C563.34 85.1304 562.39 86.0903 560.49 86.0903H547.28L547.26 86.0804Z" fill="#FFBD00"/>
<path d="M612.83 94.7402C624.428 94.7402 633.83 85.3382 633.83 73.7402C633.83 62.1423 624.428 52.7402 612.83 52.7402C601.232 52.7402 591.83 62.1423 591.83 73.7402C591.83 85.3382 601.232 94.7402 612.83 94.7402Z" fill="#6600BD"/>
<path d="M607.26 86.4399C606.16 86.4399 605.37 86.1799 604.88 85.6699C604.39 85.1599 604.15 84.3999 604.15 83.4099C604.15 82.7099 604.3 82.0899 604.6 81.5399C604.9 80.9899 605.31 80.4499 605.84 79.9299L612.39 73.0799C613.36 72.0599 614.06 71.1699 614.47 70.3999C614.88 69.6399 615.09 68.8799 615.09 68.1399C615.09 66.2399 613.88 65.2899 611.46 65.2899C610.86 65.2899 610.22 65.3699 609.53 65.5299C608.84 65.6899 608.13 65.9699 607.38 66.3699C606.71 66.6899 606.09 66.7899 605.55 66.6499C605 66.5099 604.55 66.2299 604.2 65.8099C603.85 65.3899 603.63 64.8999 603.54 64.3499C603.45 63.7999 603.54 63.2599 603.78 62.7199C604.03 62.1799 604.48 61.7399 605.13 61.3899C606.28 60.7899 607.47 60.3499 608.7 60.0599C609.94 59.7699 611.18 59.6299 612.42 59.6299C615.46 59.6299 617.79 60.2899 619.4 61.6099C621.01 62.9299 621.81 64.8399 621.81 67.3399C621.81 68.9399 621.45 70.4599 620.72 71.9099C620 73.3599 618.79 74.9199 617.09 76.5899L612.82 80.8599H620.27C622.17 80.8599 623.11 81.7799 623.11 83.6299C623.11 85.4799 622.16 86.4399 620.27 86.4399H607.24H607.26Z" fill="#E93594"/>
<path d="M671.73 94.7402C683.328 94.7402 692.73 85.3382 692.73 73.7402C692.73 62.1423 683.328 52.7402 671.73 52.7402C660.132 52.7402 650.73 62.1423 650.73 73.7402C650.73 85.3382 660.132 94.7402 671.73 94.7402Z" fill="#2FBDEB"/>
<path d="M671.05 86.8499C669.75 86.8499 668.47 86.7199 667.21 86.4799C665.95 86.2299 664.86 85.8799 663.93 85.4299C663.16 85.0599 662.61 84.5899 662.28 84.0399C661.96 83.4899 661.82 82.9299 661.87 82.3599C661.92 81.7899 662.13 81.2699 662.49 80.8299C662.85 80.3799 663.33 80.0799 663.91 79.9099C664.5 79.7499 665.16 79.8299 665.91 80.1499C666.83 80.5499 667.68 80.8199 668.46 80.9699C669.23 81.1199 670.01 81.1899 670.78 81.1899C673.48 81.1899 674.82 80.2699 674.82 78.4199C674.82 76.7199 673.62 75.8699 671.23 75.8699H669.21C668.26 75.8699 667.54 75.6299 667.04 75.1599C666.54 74.6899 666.29 74.0099 666.29 73.1399C666.29 72.2699 666.54 71.5899 667.04 71.1199C667.54 70.6499 668.26 70.4099 669.21 70.4099H670.56C671.63 70.4099 672.48 70.1899 673.09 69.7399C673.7 69.2899 674.01 68.6399 674.01 67.7899C674.01 66.1199 672.85 65.2799 670.53 65.2799C669.83 65.2799 669.12 65.3499 668.4 65.4999C667.68 65.6499 666.9 65.9099 666.08 66.2899C665.43 66.5599 664.84 66.6299 664.3 66.4799C663.76 66.3299 663.32 66.0399 662.97 65.6199C662.62 65.1999 662.41 64.6999 662.33 64.1399C662.26 63.5799 662.35 63.0399 662.63 62.5299C662.9 62.0199 663.38 61.5899 664.05 61.2399C666.2 60.1699 668.58 59.6299 671.2 59.6299C674.14 59.6299 676.44 60.2699 678.09 61.5599C679.74 62.8499 680.56 64.6199 680.56 66.8899C680.56 68.2399 680.22 69.4199 679.55 70.4499C678.88 71.4699 677.94 72.2199 676.74 72.6999C678.21 73.1199 679.35 73.8999 680.17 75.0199C680.98 76.1399 681.39 77.4999 681.39 79.0999C681.39 81.4999 680.47 83.3899 678.64 84.7699C676.81 86.1599 674.28 86.8499 671.06 86.8499H671.05Z" fill="#0078FF"/>
<path d="M375.94 42C387.538 42 396.94 32.598 396.94 21C396.94 9.40202 387.538 0 375.94 0C364.342 0 354.94 9.40202 354.94 21C354.94 32.598 364.342 42 375.94 42Z" fill="#A220DF"/>
<path d="M365.81 31.9199C364.73 31.9199 363.93 31.5499 363.42 30.8099C362.91 30.0699 362.91 29.1499 363.42 28.0399L372.03 9.50992C372.44 8.60992 372.95 7.94992 373.55 7.53992C374.15 7.12992 374.85 6.91992 375.66 6.91992C376.47 6.91992 377.13 7.12992 377.73 7.53992C378.33 7.94992 378.84 8.60992 379.25 9.50992L387.86 28.0399C388.39 29.1699 388.41 30.0999 387.93 30.8199C387.45 31.5399 386.69 31.9099 385.65 31.9099C384.73 31.9099 384.02 31.6999 383.52 31.2899C383.02 30.8799 382.58 30.2099 382.19 29.2799L381.08 26.6499H370.19L369.08 29.2799C368.67 30.1999 368.24 30.8699 367.8 31.2899C367.36 31.6999 366.69 31.9099 365.79 31.9099L365.81 31.9199ZM375.6 13.8699L372.28 21.7899H378.99L375.67 13.8699H375.6Z" fill="#CA8FFF"/>
<path d="M434.84 42C446.438 42 455.84 32.598 455.84 21C455.84 9.40202 446.438 0 434.84 0C423.242 0 413.84 9.40202 413.84 21C413.84 32.598 423.242 42 434.84 42Z" fill="#00A84E"/>
<path d="M428.34 32.92C426.13 32.92 425.02 31.83 425.02 29.63V11.83C425.02 9.64004 426.13 8.54004 428.34 8.54004H436.78C439.41 8.54004 441.44 9.11004 442.88 10.25C444.32 11.39 445.04 12.92 445.04 14.83C445.04 16.1 444.72 17.2 444.09 18.15C443.46 19.1 442.57 19.8 441.44 20.26C442.8 20.67 443.85 21.37 444.59 22.35C445.33 23.33 445.7 24.55 445.7 26C445.7 28.14 444.93 29.83 443.4 31.07C441.87 32.3 439.77 32.92 437.12 32.92H428.34ZM431.1 18.23H435.63C436.78 18.23 437.63 18.02 438.17 17.61C438.71 17.2 438.98 16.56 438.98 15.71C438.98 14.86 438.71 14.23 438.17 13.83C437.63 13.43 436.78 13.22 435.63 13.22H431.1V18.23ZM431.1 28.25H436.25C437.43 28.25 438.28 28.03 438.83 27.58C439.37 27.13 439.64 26.46 439.64 25.56C439.64 24.66 439.37 23.99 438.83 23.55C438.29 23.11 437.43 22.89 436.25 22.89H431.1V28.25Z" fill="#BBED16"/>
<path d="M493.73 42C505.328 42 514.73 32.598 514.73 21C514.73 9.40202 505.328 0 493.73 0C482.132 0 472.73 9.40202 472.73 21C472.73 32.598 482.132 42 493.73 42Z" fill="#FF8000"/>
<path d="M494.27 33.0004C491.57 33.0004 489.26 32.4804 487.32 31.4404C485.38 30.4004 483.9 28.9403 482.88 27.0504C481.85 25.1604 481.34 22.9504 481.34 20.4104C481.34 17.8704 481.85 15.6704 482.88 13.7904C483.91 11.9104 485.39 10.4504 487.32 9.42035C489.26 8.38035 491.57 7.86035 494.27 7.86035C495.33 7.86035 496.43 7.98035 497.57 8.22035C498.71 8.46035 499.72 8.82035 500.6 9.31035C501.24 9.66035 501.69 10.0904 501.95 10.6204C502.2 11.1504 502.3 11.6904 502.23 12.2504C502.16 12.8004 501.96 13.3004 501.62 13.7404C501.29 14.1804 500.86 14.4704 500.36 14.6204C499.85 14.7704 499.3 14.6904 498.7 14.4004C497.34 13.7304 495.95 13.4004 494.52 13.4004C492.38 13.4004 490.76 14.0104 489.68 15.2204C488.6 16.4304 488.05 18.1704 488.05 20.4204C488.05 22.6704 488.59 24.4504 489.68 25.6604C490.76 26.8703 492.38 27.4804 494.52 27.4804C495.12 27.4804 495.76 27.4104 496.46 27.2604C497.15 27.1104 497.83 26.8703 498.5 26.5504C499.19 26.2504 499.81 26.1704 500.35 26.3104C500.89 26.4503 501.34 26.7204 501.68 27.1404C502.03 27.5504 502.24 28.0304 502.32 28.5804C502.4 29.1204 502.32 29.6604 502.1 30.1904C501.87 30.7204 501.44 31.1504 500.82 31.4704C500.01 31.9503 499.02 32.3304 497.83 32.6104C496.64 32.8904 495.46 33.0204 494.29 33.0204L494.27 33.0004Z" fill="#FFDC00"/>
<path d="M670.4 42C681.998 42 691.4 32.598 691.4 21C691.4 9.40202 681.998 0 670.4 0C658.802 0 649.4 9.40202 649.4 21C649.4 32.598 658.802 42 670.4 42Z" fill="#0078FF"/>
<path d="M670.76 5.15961C670.57 5.11961 670.38 5.09961 670.18 5.09961C669.1 5.11961 668.16 5.82961 667.85 6.85961L665.48 14.6396L657.35 14.7896C656.27 14.8096 655.33 15.5196 655.02 16.5496C654.71 17.5796 655.09 18.6896 655.97 19.3096L662.64 23.9696L660.27 31.7496C659.96 32.7796 660.34 33.8896 661.22 34.5096C661.49 34.6996 661.79 34.8296 662.1 34.8996C662.8 35.0496 663.54 34.8996 664.14 34.4596L670.63 29.5596L677.3 34.2196C677.57 34.4096 677.87 34.5396 678.18 34.6096C678.88 34.7596 679.62 34.6096 680.21 34.1696C681.07 33.5196 681.41 32.3896 681.06 31.3796L678.4 23.6896L684.83 18.8296C685.31 18.4896 685.67 17.9696 685.81 17.3496C686.1 16.0396 685.3 14.7396 684.01 14.4096C683.98 14.4096 683.95 14.3996 683.92 14.3896C683.86 14.3796 683.79 14.3596 683.73 14.3496C683.58 14.3296 683.43 14.3196 683.28 14.3296L675.21 14.4796L672.56 6.79961C672.27 5.96961 671.58 5.36961 670.75 5.18961L670.76 5.15961Z" fill="#2FBDEB"/>
<path d="M611.51 42C623.108 42 632.51 32.598 632.51 21C632.51 9.40202 623.108 0 611.51 0C599.912 0 590.51 9.40202 590.51 21C590.51 32.598 599.912 42 611.51 42Z" fill="#FF92FF"/>
<path d="M611.33 14.8898C611.33 14.8898 604.74 6.77982 599.53 10.8998C590.71 17.8598 611.33 34.8398 611.33 34.8398C611.33 34.8398 631.08 18.7798 622.73 11.3598C616.35 5.68982 611.33 14.8898 611.33 14.8898Z" fill="#FF0000"/>
<path d="M552.62 42C564.218 42 573.62 32.598 573.62 21C573.62 9.40202 564.218 0 552.62 0C541.022 0 531.62 9.40202 531.62 21C531.62 32.598 541.022 42 552.62 42Z" fill="#FFDC00"/>
<path d="M550.2 10.5501L551.56 22.4701C549.37 22.0501 546.56 22.9601 544.28 25.0901C541.05 28.1001 540.13 32.3501 542.21 34.5801C544.29 36.8101 548.59 36.1801 551.82 33.1701C554.32 30.8401 555.42 27.7801 554.83 25.4701L553.53 14.9101C553.53 14.9101 555.7 14.6801 559.36 13.2101C563.02 11.7401 561.42 4.83008 561.42 4.83008L550.2 10.5401V10.5501Z" fill="#FF8000"/>
<path d="M81.2202 200.21C92.8182 200.21 102.22 190.808 102.22 179.21C102.22 167.612 92.8182 158.21 81.2202 158.21C69.6222 158.21 60.2202 167.612 60.2202 179.21C60.2202 190.808 69.6222 200.21 81.2202 200.21Z" fill="#FFBD00"/>
<path d="M92.0802 168.55H69.9702V190.66H92.0802V168.55Z" fill="#FF0000"/>
<path d="M22.3301 200.21C33.9281 200.21 43.3301 190.808 43.3301 179.21C43.3301 167.612 33.9281 158.21 22.3301 158.21C10.7321 158.21 1.33008 167.612 1.33008 179.21C1.33008 190.808 10.7321 200.21 22.3301 200.21Z" fill="#99CF16"/>
<path d="M22.3302 192.55C29.6977 192.55 35.6702 186.578 35.6702 179.21C35.6702 171.843 29.6977 165.87 22.3302 165.87C14.9628 165.87 8.99023 171.843 8.99023 179.21C8.99023 186.578 14.9628 192.55 22.3302 192.55Z" fill="#00A84E"/>
<path d="M140.11 200.21C151.708 200.21 161.11 190.808 161.11 179.21C161.11 167.612 151.708 158.21 140.11 158.21C128.512 158.21 119.11 167.612 119.11 179.21C119.11 190.808 128.512 200.21 140.11 200.21Z" fill="#002C8D"/>
<path d="M140.11 163.9L125.81 188.66H154.4L140.11 163.9Z" fill="#2FBDEB"/>
<path d="M199 200.21C210.598 200.21 220 190.808 220 179.21C220 167.612 210.598 158.21 199 158.21C187.402 158.21 178 167.612 178 179.21C178 190.808 187.402 200.21 199 200.21Z" fill="#A220DF"/>
<path d="M188.87 190.13C187.79 190.13 186.99 189.76 186.48 189.02C185.97 188.28 185.97 187.36 186.48 186.25L195.09 167.72C195.5 166.82 196.01 166.16 196.61 165.75C197.21 165.34 197.91 165.13 198.72 165.13C199.53 165.13 200.19 165.34 200.79 165.75C201.39 166.16 201.9 166.82 202.31 167.72L210.92 186.25C211.45 187.38 211.47 188.31 210.99 189.03C210.51 189.75 209.75 190.12 208.71 190.12C207.79 190.12 207.08 189.91 206.58 189.5C206.08 189.09 205.64 188.42 205.25 187.49L204.14 184.86H193.25L192.14 187.49C191.73 188.41 191.3 189.08 190.86 189.5C190.42 189.91 189.75 190.12 188.85 190.12L188.87 190.13ZM198.65 172.08L195.33 180H202.04L198.72 172.08H198.65Z" fill="#CA8FFF"/>
<path d="M257.89 200.21C269.488 200.21 278.89 190.808 278.89 179.21C278.89 167.612 269.488 158.21 257.89 158.21C246.292 158.21 236.89 167.612 236.89 179.21C236.89 190.808 246.292 200.21 257.89 200.21Z" fill="#00A84E"/>
<path d="M251.39 191.13C249.18 191.13 248.07 190.04 248.07 187.84V170.03C248.07 167.84 249.18 166.74 251.39 166.74H259.83C262.46 166.74 264.49 167.31 265.93 168.45C267.37 169.59 268.09 171.12 268.09 173.03C268.09 174.3 267.77 175.4 267.14 176.35C266.51 177.3 265.62 178 264.49 178.46C265.85 178.87 266.9 179.57 267.64 180.55C268.38 181.53 268.75 182.75 268.75 184.2C268.75 186.34 267.98 188.03 266.45 189.27C264.92 190.5 262.82 191.12 260.17 191.12H251.39V191.13ZM254.16 176.44H258.69C259.84 176.44 260.69 176.23 261.23 175.82C261.77 175.41 262.04 174.77 262.04 173.92C262.04 173.07 261.77 172.44 261.23 172.04C260.69 171.64 259.84 171.43 258.69 171.43H254.16V176.44ZM254.16 186.46H259.31C260.49 186.46 261.34 186.24 261.89 185.79C262.43 185.34 262.7 184.67 262.7 183.77C262.7 182.87 262.43 182.2 261.89 181.76C261.35 181.32 260.49 181.1 259.31 181.1H254.16V186.46Z" fill="#BBED16"/>
<path d="M316.78 200.21C328.378 200.21 337.78 190.808 337.78 179.21C337.78 167.612 328.378 158.21 316.78 158.21C305.182 158.21 295.78 167.612 295.78 179.21C295.78 190.808 305.182 200.21 316.78 200.21Z" fill="#FF8000"/>
<path d="M317.33 191.21C314.63 191.21 312.32 190.69 310.38 189.65C308.44 188.61 306.96 187.15 305.94 185.26C304.91 183.37 304.4 181.16 304.4 178.62C304.4 176.08 304.91 173.88 305.94 172C306.97 170.12 308.45 168.66 310.38 167.63C312.32 166.59 314.63 166.07 317.33 166.07C318.39 166.07 319.49 166.19 320.63 166.43C321.77 166.67 322.78 167.03 323.66 167.52C324.3 167.87 324.75 168.3 325.01 168.83C325.26 169.36 325.36 169.9 325.29 170.46C325.22 171.01 325.02 171.51 324.68 171.95C324.35 172.39 323.92 172.68 323.42 172.83C322.91 172.98 322.36 172.9 321.76 172.61C320.4 171.94 319.01 171.61 317.58 171.61C315.44 171.61 313.82 172.22 312.74 173.43C311.66 174.64 311.11 176.38 311.11 178.63C311.11 180.88 311.65 182.66 312.74 183.87C313.82 185.08 315.44 185.69 317.58 185.69C318.18 185.69 318.82 185.62 319.52 185.47C320.21 185.32 320.89 185.08 321.56 184.76C322.25 184.46 322.87 184.38 323.41 184.52C323.95 184.66 324.4 184.93 324.74 185.35C325.09 185.76 325.3 186.24 325.38 186.79C325.46 187.33 325.38 187.87 325.16 188.4C324.93 188.93 324.5 189.36 323.88 189.68C323.07 190.16 322.08 190.54 320.89 190.82C319.7 191.1 318.52 191.23 317.35 191.23L317.33 191.21Z" fill="#FFDC00"/>
<path d="M22.3301 147.47C33.9281 147.47 43.3301 138.068 43.3301 126.47C43.3301 114.872 33.9281 105.47 22.3301 105.47C10.7321 105.47 1.33008 114.872 1.33008 126.47C1.33008 138.068 10.7321 147.47 22.3301 147.47Z" fill="#FF0000"/>
<path d="M15.64 138.82C13.74 138.82 12.79 137.88 12.79 136.01C12.79 134.14 13.74 133.24 15.64 133.24H19.01V119.88L16.73 121.27C16.08 121.67 15.47 121.83 14.9 121.74C14.33 121.65 13.84 121.41 13.44 121.01C13.04 120.61 12.78 120.12 12.65 119.55C12.52 118.98 12.58 118.4 12.8 117.83C13.02 117.26 13.47 116.77 14.15 116.37L19.32 113.15C20.44 112.45 21.63 112.1 22.88 112.1C23.83 112.1 24.56 112.34 25.09 112.83C25.61 113.32 25.88 114.02 25.88 114.94V133.25H28.87C30.77 133.25 31.72 134.17 31.72 136.02C31.72 137.87 30.77 138.83 28.87 138.83H15.66L15.64 138.82Z" fill="#FFBD00"/>
<path d="M81.2202 147.47C92.8182 147.47 102.22 138.068 102.22 126.47C102.22 114.872 92.8182 105.47 81.2202 105.47C69.6222 105.47 60.2202 114.872 60.2202 126.47C60.2202 138.068 69.6222 147.47 81.2202 147.47Z" fill="#6600BD"/>
<path d="M75.64 139.18C74.54 139.18 73.75 138.92 73.26 138.41C72.77 137.9 72.53 137.14 72.53 136.15C72.53 135.45 72.68 134.83 72.98 134.28C73.28 133.73 73.69 133.19 74.22 132.67L80.77 125.82C81.74 124.8 82.44 123.91 82.85 123.14C83.26 122.38 83.47 121.62 83.47 120.88C83.47 118.98 82.26 118.03 79.84 118.03C79.24 118.03 78.6 118.11 77.91 118.27C77.22 118.43 76.51 118.71 75.76 119.11C75.09 119.43 74.47 119.53 73.93 119.39C73.38 119.25 72.93 118.97 72.58 118.55C72.23 118.13 72.01 117.64 71.92 117.09C71.83 116.54 71.92 116 72.16 115.46C72.41 114.92 72.86 114.48 73.51 114.13C74.66 113.53 75.85 113.09 77.08 112.8C78.32 112.51 79.56 112.37 80.8 112.37C83.84 112.37 86.17 113.03 87.78 114.35C89.39 115.67 90.19 117.58 90.19 120.08C90.19 121.68 89.83 123.2 89.1 124.65C88.38 126.1 87.17 127.66 85.47 129.33L81.2 133.6H88.65C90.55 133.6 91.49 134.52 91.49 136.37C91.49 138.22 90.54 139.18 88.65 139.18H75.62H75.64Z" fill="#E93594"/>
<path d="M140.11 147.47C151.708 147.47 161.11 138.068 161.11 126.47C161.11 114.872 151.708 105.47 140.11 105.47C128.512 105.47 119.11 114.872 119.11 126.47C119.11 138.068 128.512 147.47 140.11 147.47Z" fill="#2FBDEB"/>
<path d="M139.43 139.59C138.13 139.59 136.85 139.46 135.59 139.22C134.33 138.97 133.24 138.62 132.31 138.17C131.54 137.8 130.99 137.33 130.66 136.78C130.34 136.23 130.2 135.67 130.25 135.1C130.3 134.53 130.51 134.01 130.87 133.57C131.23 133.12 131.71 132.82 132.29 132.65C132.88 132.49 133.54 132.57 134.29 132.89C135.21 133.29 136.06 133.56 136.84 133.71C137.61 133.86 138.39 133.93 139.16 133.93C141.86 133.93 143.2 133.01 143.2 131.16C143.2 129.46 142 128.61 139.61 128.61H137.59C136.64 128.61 135.92 128.37 135.42 127.9C134.92 127.43 134.67 126.75 134.67 125.88C134.67 125.01 134.92 124.33 135.42 123.86C135.92 123.39 136.64 123.15 137.59 123.15H138.94C140.01 123.15 140.86 122.93 141.47 122.48C142.08 122.03 142.39 121.38 142.39 120.53C142.39 118.86 141.23 118.02 138.91 118.02C138.21 118.02 137.5 118.09 136.78 118.24C136.06 118.39 135.28 118.65 134.46 119.03C133.81 119.3 133.22 119.37 132.68 119.22C132.14 119.07 131.7 118.78 131.35 118.36C131 117.94 130.79 117.44 130.71 116.88C130.64 116.32 130.73 115.78 131.01 115.27C131.28 114.76 131.76 114.33 132.43 113.98C134.58 112.91 136.96 112.37 139.58 112.37C142.52 112.37 144.82 113.01 146.47 114.3C148.12 115.59 148.94 117.36 148.94 119.63C148.94 120.98 148.6 122.16 147.93 123.19C147.26 124.21 146.32 124.96 145.12 125.44C146.59 125.86 147.73 126.64 148.55 127.76C149.36 128.88 149.77 130.24 149.77 131.84C149.77 134.24 148.85 136.13 147.02 137.51C145.19 138.89 142.66 139.59 139.44 139.59H139.43Z" fill="#0078FF"/>
<path d="M257.89 147.47C269.488 147.47 278.89 138.068 278.89 126.47C278.89 114.872 269.488 105.47 257.89 105.47C246.292 105.47 236.89 114.872 236.89 126.47C236.89 138.068 246.292 147.47 257.89 147.47Z" fill="#FFBD00"/>
<path d="M268.75 115.81H246.64V137.92H268.75V115.81Z" fill="#FF0000"/>
<path d="M199 147.47C210.598 147.47 220 138.068 220 126.47C220 114.872 210.598 105.47 199 105.47C187.402 105.47 178 114.872 178 126.47C178 138.068 187.402 147.47 199 147.47Z" fill="#99CF16"/>
<path d="M199 139.81C206.368 139.81 212.34 133.837 212.34 126.47C212.34 119.102 206.368 113.13 199 113.13C191.633 113.13 185.66 119.102 185.66 126.47C185.66 133.837 191.633 139.81 199 139.81Z" fill="#00A84E"/>
<path d="M316.78 147.47C328.378 147.47 337.78 138.068 337.78 126.47C337.78 114.872 328.378 105.47 316.78 105.47C305.182 105.47 295.78 114.872 295.78 126.47C295.78 138.068 305.182 147.47 316.78 147.47Z" fill="#002C8D"/>
<path d="M316.78 111.16L302.49 135.92H331.08L316.78 111.16Z" fill="#2FBDEB"/>
<path d="M140.11 94.7402C151.708 94.7402 161.11 85.3382 161.11 73.7402C161.11 62.1423 151.708 52.7402 140.11 52.7402C128.512 52.7402 119.11 62.1423 119.11 73.7402C119.11 85.3382 128.512 94.7402 140.11 94.7402Z" fill="#0078FF"/>
<path d="M140.47 57.8901C140.28 57.8501 140.09 57.8301 139.89 57.8301C138.81 57.8501 137.87 58.5601 137.56 59.5901L135.19 67.3701L127.06 67.5201C125.98 67.5401 125.04 68.2501 124.73 69.2801C124.42 70.3101 124.8 71.4201 125.68 72.0401L132.35 76.7001L129.98 84.4801C129.67 85.5101 130.05 86.6201 130.93 87.2401C131.2 87.4301 131.5 87.5601 131.81 87.6301C132.51 87.7801 133.25 87.6301 133.85 87.1901L140.34 82.2901L147.01 86.9501C147.28 87.1401 147.58 87.2701 147.89 87.3401C148.59 87.4901 149.33 87.3401 149.92 86.9001C150.78 86.2501 151.12 85.1201 150.77 84.1101L148.11 76.4201L154.54 71.5601C155.02 71.2201 155.38 70.7001 155.52 70.0801C155.81 68.7701 155.01 67.4701 153.72 67.1401C153.69 67.1401 153.66 67.1301 153.63 67.1201C153.57 67.1101 153.5 67.0901 153.44 67.0801C153.29 67.0601 153.14 67.0501 152.99 67.0601L144.92 67.2101L142.27 59.5301C141.98 58.7001 141.29 58.1001 140.46 57.9201L140.47 57.8901Z" fill="#2FBDEB"/>
<path d="M81.2202 94.7402C92.8182 94.7402 102.22 85.3382 102.22 73.7402C102.22 62.1423 92.8182 52.7402 81.2202 52.7402C69.6222 52.7402 60.2202 62.1423 60.2202 73.7402C60.2202 85.3382 69.6222 94.7402 81.2202 94.7402Z" fill="#FF92FF"/>
<path d="M81.04 67.6301C81.04 67.6301 74.45 59.5201 69.24 63.6401C60.42 70.6001 81.04 87.5801 81.04 87.5801C81.04 87.5801 100.79 71.5201 92.44 64.1001C86.06 58.4301 81.04 67.6301 81.04 67.6301Z" fill="#FF0000"/>
<path d="M22.3301 94.7402C33.9281 94.7402 43.3301 85.3382 43.3301 73.7402C43.3301 62.1423 33.9281 52.7402 22.3301 52.7402C10.7321 52.7402 1.33008 62.1423 1.33008 73.7402C1.33008 85.3382 10.7321 94.7402 22.3301 94.7402Z" fill="#FFDC00"/>
<path d="M19.9098 63.2796L21.2698 75.1996C19.0798 74.7796 16.2698 75.6896 13.9898 77.8196C10.7598 80.8296 9.83983 85.0796 11.9198 87.3096C13.9998 89.5396 18.2998 88.9096 21.5298 85.8996C24.0298 83.5696 25.1298 80.5096 24.5398 78.1996L23.2398 67.6396C23.2398 67.6396 25.4098 67.4096 29.0698 65.9396C32.7298 64.4696 31.1298 57.5596 31.1298 57.5596L19.9098 63.2696V63.2796Z" fill="#FF8000"/>
<path d="M199 94.7402C210.598 94.7402 220 85.3382 220 73.7402C220 62.1423 210.598 52.7402 199 52.7402C187.402 52.7402 178 62.1423 178 73.7402C178 85.3382 187.402 94.7402 199 94.7402Z" fill="#FF0000"/>
<path d="M192.32 86.0804C190.42 86.0804 189.47 85.1403 189.47 83.2703C189.47 81.4003 190.42 80.5004 192.32 80.5004H195.69V67.1404L193.41 68.5303C192.76 68.9303 192.15 69.0904 191.58 69.0004C191.01 68.9104 190.52 68.6703 190.12 68.2703C189.72 67.8703 189.46 67.3803 189.33 66.8103C189.2 66.2403 189.26 65.6603 189.48 65.0903C189.7 64.5203 190.15 64.0304 190.83 63.6304L196 60.4104C197.12 59.7104 198.31 59.3604 199.56 59.3604C200.51 59.3604 201.24 59.6004 201.77 60.0904C202.29 60.5804 202.56 61.2804 202.56 62.2004V80.5104H205.55C207.45 80.5104 208.4 81.4303 208.4 83.2803C208.4 85.1304 207.45 86.0903 205.55 86.0903H192.34L192.32 86.0804Z" fill="#FFBD00"/>
<path d="M257.89 94.7402C269.488 94.7402 278.89 85.3382 278.89 73.7402C278.89 62.1423 269.488 52.7402 257.89 52.7402C246.292 52.7402 236.89 62.1423 236.89 73.7402C236.89 85.3382 246.292 94.7402 257.89 94.7402Z" fill="#6600BD"/>
<path d="M252.31 86.4399C251.21 86.4399 250.42 86.1799 249.93 85.6699C249.44 85.1599 249.2 84.3999 249.2 83.4099C249.2 82.7099 249.35 82.0899 249.65 81.5399C249.95 80.9899 250.36 80.4499 250.89 79.9299L257.44 73.0799C258.41 72.0599 259.11 71.1699 259.52 70.3999C259.93 69.6399 260.14 68.8799 260.14 68.1399C260.14 66.2399 258.93 65.2899 256.51 65.2899C255.91 65.2899 255.27 65.3699 254.58 65.5299C253.89 65.6899 253.18 65.9699 252.43 66.3699C251.76 66.6899 251.14 66.7899 250.6 66.6499C250.05 66.5099 249.6 66.2299 249.25 65.8099C248.9 65.3899 248.68 64.8999 248.59 64.3499C248.5 63.7999 248.59 63.2599 248.83 62.7199C249.08 62.1799 249.53 61.7399 250.18 61.3899C251.33 60.7899 252.52 60.3499 253.75 60.0599C254.99 59.7699 256.23 59.6299 257.47 59.6299C260.51 59.6299 262.84 60.2899 264.45 61.6099C266.06 62.9299 266.86 64.8399 266.86 67.3399C266.86 68.9399 266.5 70.4599 265.77 71.9099C265.05 73.3599 263.84 74.9199 262.14 76.5899L257.87 80.8599H265.32C267.22 80.8599 268.16 81.7799 268.16 83.6299C268.16 85.4799 267.21 86.4399 265.32 86.4399H252.29H252.31Z" fill="#E93594"/>
<path d="M316.78 94.7402C328.378 94.7402 337.78 85.3382 337.78 73.7402C337.78 62.1423 328.378 52.7402 316.78 52.7402C305.182 52.7402 295.78 62.1423 295.78 73.7402C295.78 85.3382 305.182 94.7402 316.78 94.7402Z" fill="#2FBDEB"/>
<path d="M316.11 86.8499C314.81 86.8499 313.53 86.7199 312.27 86.4799C311.01 86.2299 309.92 85.8799 308.99 85.4299C308.22 85.0599 307.67 84.5899 307.34 84.0399C307.02 83.4899 306.88 82.9299 306.93 82.3599C306.98 81.7899 307.19 81.2699 307.55 80.8299C307.91 80.3799 308.39 80.0799 308.97 79.9099C309.56 79.7499 310.22 79.8299 310.97 80.1499C311.89 80.5499 312.74 80.8199 313.52 80.9699C314.29 81.1199 315.07 81.1899 315.84 81.1899C318.54 81.1899 319.88 80.2699 319.88 78.4199C319.88 76.7199 318.68 75.8699 316.29 75.8699H314.27C313.32 75.8699 312.6 75.6299 312.1 75.1599C311.6 74.6899 311.35 74.0099 311.35 73.1399C311.35 72.2699 311.6 71.5899 312.1 71.1199C312.6 70.6499 313.32 70.4099 314.27 70.4099H315.62C316.69 70.4099 317.54 70.1899 318.15 69.7399C318.76 69.2899 319.07 68.6399 319.07 67.7899C319.07 66.1199 317.91 65.2799 315.59 65.2799C314.89 65.2799 314.18 65.3499 313.46 65.4999C312.74 65.6499 311.96 65.9099 311.14 66.2899C310.49 66.5599 309.9 66.6299 309.36 66.4799C308.82 66.3299 308.38 66.0399 308.03 65.6199C307.68 65.1999 307.47 64.6999 307.39 64.1399C307.32 63.5799 307.41 63.0399 307.69 62.5299C307.96 62.0199 308.44 61.5899 309.11 61.2399C311.26 60.1699 313.64 59.6299 316.26 59.6299C319.2 59.6299 321.5 60.2699 323.15 61.5599C324.8 62.8499 325.62 64.6199 325.62 66.8899C325.62 68.2399 325.28 69.4199 324.61 70.4499C323.94 71.4699 323 72.2199 321.8 72.6999C323.27 73.1199 324.41 73.8999 325.23 75.0199C326.04 76.1399 326.45 77.4999 326.45 79.0999C326.45 81.4999 325.53 83.3899 323.7 84.7699C321.87 86.1599 319.34 86.8499 316.12 86.8499H316.11Z" fill="#0078FF"/>
<path d="M21 42C32.598 42 42 32.598 42 21C42 9.40202 32.598 0 21 0C9.40202 0 0 9.40202 0 21C0 32.598 9.40202 42 21 42Z" fill="#A220DF"/>
<path d="M10.8702 31.9199C9.79016 31.9199 8.99016 31.5499 8.48016 30.8099C7.97016 30.0699 7.97016 29.1499 8.48016 28.0399L17.0902 9.50992C17.5002 8.60992 18.0102 7.94992 18.6102 7.53992C19.2102 7.12992 19.9102 6.91992 20.7202 6.91992C21.5302 6.91992 22.1902 7.12992 22.7902 7.53992C23.3902 7.94992 23.9002 8.60992 24.3102 9.50992L32.9202 28.0399C33.4502 29.1699 33.4702 30.0999 32.9902 30.8199C32.5102 31.5399 31.7502 31.9099 30.7102 31.9099C29.7902 31.9099 29.0802 31.6999 28.5802 31.2899C28.0802 30.8799 27.6402 30.2099 27.2502 29.2799L26.1402 26.6499H15.2502L14.1402 29.2799C13.7302 30.1999 13.3002 30.8699 12.8602 31.2899C12.4202 31.6999 11.7502 31.9099 10.8502 31.9099L10.8702 31.9199ZM20.6502 13.8699L17.3302 21.7899H24.0402L20.7202 13.8699H20.6502Z" fill="#CA8FFF"/>
<path d="M79.8901 42C91.4881 42 100.89 32.598 100.89 21C100.89 9.40202 91.4881 0 79.8901 0C68.2922 0 58.8901 9.40202 58.8901 21C58.8901 32.598 68.2922 42 79.8901 42Z" fill="#00A84E"/>
<path d="M73.3898 32.92C71.1798 32.92 70.0698 31.83 70.0698 29.63V11.83C70.0698 9.64004 71.1798 8.54004 73.3898 8.54004H81.8298C84.4598 8.54004 86.4898 9.11004 87.9298 10.25C89.3698 11.39 90.0898 12.92 90.0898 14.83C90.0898 16.1 89.7698 17.2 89.1398 18.15C88.5098 19.1 87.6198 19.8 86.4898 20.26C87.8498 20.67 88.8998 21.37 89.6398 22.35C90.3798 23.33 90.7498 24.55 90.7498 26C90.7498 28.14 89.9798 29.83 88.4498 31.07C86.9198 32.3 84.8198 32.92 82.1698 32.92H73.3898ZM76.1598 18.23H80.6898C81.8398 18.23 82.6898 18.02 83.2298 17.61C83.7698 17.2 84.0398 16.56 84.0398 15.71C84.0398 14.86 83.7698 14.23 83.2298 13.83C82.6898 13.43 81.8398 13.22 80.6898 13.22H76.1598V18.23ZM76.1598 28.25H81.3098C82.4898 28.25 83.3398 28.03 83.8898 27.58C84.4298 27.13 84.6998 26.46 84.6998 25.56C84.6998 24.66 84.4298 23.99 83.8898 23.55C83.3498 23.11 82.4898 22.89 81.3098 22.89H76.1598V28.25Z" fill="#BBED16"/>
<path d="M138.78 42C150.378 42 159.78 32.598 159.78 21C159.78 9.40202 150.378 0 138.78 0C127.182 0 117.78 9.40202 117.78 21C117.78 32.598 127.182 42 138.78 42Z" fill="#FF8000"/>
<path d="M139.33 33.0004C136.63 33.0004 134.32 32.4804 132.38 31.4404C130.44 30.4004 128.96 28.9403 127.94 27.0504C126.91 25.1604 126.4 22.9504 126.4 20.4104C126.4 17.8704 126.91 15.6704 127.94 13.7904C128.97 11.9104 130.45 10.4504 132.38 9.42035C134.32 8.38035 136.63 7.86035 139.33 7.86035C140.39 7.86035 141.49 7.98035 142.63 8.22035C143.77 8.46035 144.78 8.82035 145.66 9.31035C146.3 9.66035 146.75 10.0904 147.01 10.6204C147.26 11.1504 147.36 11.6904 147.29 12.2504C147.22 12.8004 147.02 13.3004 146.68 13.7404C146.35 14.1804 145.92 14.4704 145.42 14.6204C144.91 14.7704 144.36 14.6904 143.76 14.4004C142.4 13.7304 141.01 13.4004 139.58 13.4004C137.44 13.4004 135.82 14.0104 134.74 15.2204C133.66 16.4304 133.11 18.1704 133.11 20.4204C133.11 22.6704 133.65 24.4504 134.74 25.6604C135.82 26.8703 137.44 27.4804 139.58 27.4804C140.18 27.4804 140.82 27.4104 141.52 27.2604C142.21 27.1104 142.89 26.8703 143.56 26.5504C144.25 26.2504 144.87 26.1704 145.41 26.3104C145.95 26.4503 146.4 26.7204 146.74 27.1404C147.09 27.5504 147.3 28.0304 147.38 28.5804C147.46 29.1204 147.38 29.6604 147.16 30.1904C146.93 30.7204 146.5 31.1504 145.88 31.4704C145.07 31.9503 144.08 32.3304 142.89 32.6104C141.7 32.8904 140.52 33.0204 139.35 33.0204L139.33 33.0004Z" fill="#FFDC00"/>
<path d="M315.46 42C327.058 42 336.46 32.598 336.46 21C336.46 9.40202 327.058 0 315.46 0C303.862 0 294.46 9.40202 294.46 21C294.46 32.598 303.862 42 315.46 42Z" fill="#0078FF"/>
<path d="M315.82 5.15961C315.63 5.11961 315.44 5.09961 315.24 5.09961C314.16 5.11961 313.22 5.82961 312.91 6.85961L310.54 14.6396L302.41 14.7896C301.33 14.8096 300.39 15.5196 300.08 16.5496C299.77 17.5796 300.15 18.6896 301.03 19.3096L307.7 23.9696L305.33 31.7496C305.02 32.7796 305.4 33.8896 306.28 34.5096C306.55 34.6996 306.85 34.8296 307.16 34.8996C307.86 35.0496 308.6 34.8996 309.2 34.4596L315.69 29.5596L322.36 34.2196C322.63 34.4096 322.93 34.5396 323.24 34.6096C323.94 34.7596 324.68 34.6096 325.27 34.1696C326.13 33.5196 326.47 32.3896 326.12 31.3796L323.46 23.6896L329.89 18.8296C330.37 18.4896 330.73 17.9696 330.87 17.3496C331.16 16.0396 330.36 14.7396 329.07 14.4096C329.04 14.4096 329.01 14.3996 328.98 14.3896C328.92 14.3796 328.85 14.3596 328.79 14.3496C328.64 14.3296 328.49 14.3196 328.34 14.3296L320.27 14.4796L317.62 6.79961C317.33 5.96961 316.64 5.36961 315.81 5.18961L315.82 5.15961Z" fill="#2FBDEB"/>
<path d="M256.57 42C268.168 42 277.57 32.598 277.57 21C277.57 9.40202 268.168 0 256.57 0C244.972 0 235.57 9.40202 235.57 21C235.57 32.598 244.972 42 256.57 42Z" fill="#FF92FF"/>
<path d="M256.39 14.8898C256.39 14.8898 249.8 6.77982 244.59 10.8998C235.77 17.8598 256.39 34.8398 256.39 34.8398C256.39 34.8398 276.14 18.7798 267.79 11.3598C261.41 5.68982 256.39 14.8898 256.39 14.8898Z" fill="#FF0000"/>
<path d="M197.67 42C209.268 42 218.67 32.598 218.67 21C218.67 9.40202 209.268 0 197.67 0C186.072 0 176.67 9.40202 176.67 21C176.67 32.598 186.072 42 197.67 42Z" fill="#FFDC00"/>
<path d="M195.26 10.5501L196.62 22.4701C194.43 22.0501 191.62 22.9601 189.34 25.0901C186.11 28.1001 185.19 32.3501 187.27 34.5801C189.35 36.8101 193.65 36.1801 196.88 33.1701C199.38 30.8401 200.48 27.7801 199.89 25.4701L198.59 14.9101C198.59 14.9101 200.76 14.6801 204.42 13.2101C208.08 11.7401 206.48 4.83008 206.48 4.83008L195.26 10.5401V10.5501Z" fill="#FF8000"/>
</g>
</g>
<defs>
<clipPath id="clip0_195_11465">
<rect width="1400.29" height="200.21" fill="white"/>
</clipPath>
</defs>
</svg>
