<svg width="160" height="160" viewBox="0 0 160 160" fill="none" xmlns="http://www.w3.org/2000/svg">
<rect width="160" height="160" rx="20" fill="#FF8000"/>
<g clip-path="url(#clip0_180_5723)">
<path d="M79 144C114.899 144 144 115.122 144 79.5C144 43.8776 114.899 15 79 15C43.1015 15 14 43.8776 14 79.5C14 115.122 43.1015 144 79 144Z" fill="#002C8D"/>
<path d="M79 32.4756L34.7528 108.519H123.247L79 32.4756Z" fill="#2FBDEB"/>
</g>
<path d="M46.6972 87.264C44.7932 87.264 43.1772 86.904 41.8492 86.184C40.5372 85.464 39.5372 84.456 38.8492 83.16C38.1612 81.864 37.8172 80.344 37.8172 78.6C37.8172 77.256 38.0172 76.048 38.4172 74.976C38.8332 73.888 39.4252 72.968 40.1932 72.216C40.9772 71.448 41.9212 70.856 43.0252 70.44C44.1452 70.024 45.4092 69.816 46.8172 69.816C47.6812 69.816 48.5452 69.912 49.4092 70.104C50.2732 70.296 51.1052 70.616 51.9052 71.064C52.2412 71.256 52.4652 71.504 52.5772 71.808C52.7052 72.096 52.7372 72.408 52.6732 72.744C52.6252 73.064 52.4972 73.352 52.2892 73.608C52.0972 73.848 51.8412 74.008 51.5212 74.088C51.2172 74.152 50.8652 74.088 50.4652 73.896C49.9372 73.608 49.3772 73.4 48.7852 73.272C48.1932 73.128 47.5452 73.056 46.8412 73.056C45.7052 73.056 44.7532 73.272 43.9852 73.704C43.2172 74.12 42.6412 74.744 42.2572 75.576C41.8892 76.392 41.7052 77.4 41.7052 78.6C41.7052 80.408 42.1372 81.776 43.0012 82.704C43.8812 83.632 45.1772 84.096 46.8892 84.096C47.4652 84.096 48.0572 84.04 48.6652 83.928C49.2732 83.816 49.8732 83.656 50.4652 83.448L49.7692 84.96V80.352H47.6092C47.1292 80.352 46.7612 80.232 46.5052 79.992C46.2492 79.752 46.1212 79.424 46.1212 79.008C46.1212 78.576 46.2492 78.248 46.5052 78.024C46.7612 77.784 47.1292 77.664 47.6092 77.664H51.3772C51.8572 77.664 52.2172 77.792 52.4572 78.048C52.7132 78.304 52.8412 78.672 52.8412 79.152V84.72C52.8412 85.136 52.7612 85.488 52.6012 85.776C52.4412 86.064 52.1692 86.272 51.7852 86.4C51.0652 86.656 50.2572 86.864 49.3612 87.024C48.4652 87.184 47.5772 87.264 46.6972 87.264ZM57.6937 87.216C57.0857 87.216 56.6217 87.056 56.3017 86.736C55.9817 86.416 55.8217 85.96 55.8217 85.368V76.848C55.8217 76.256 55.9737 75.808 56.2777 75.504C56.5977 75.184 57.0377 75.024 57.5977 75.024C58.1737 75.024 58.6137 75.184 58.9177 75.504C59.2217 75.808 59.3737 76.256 59.3737 76.848V78.096H59.1337C59.3257 77.136 59.7497 76.392 60.4057 75.864C61.0617 75.336 61.9097 75.04 62.9497 74.976C63.3497 74.944 63.6537 75.048 63.8617 75.288C64.0857 75.512 64.2057 75.888 64.2217 76.416C64.2537 76.912 64.1497 77.304 63.9097 77.592C63.6857 77.88 63.3017 78.056 62.7577 78.12L62.2057 78.168C61.2937 78.248 60.6137 78.512 60.1657 78.96C59.7337 79.408 59.5177 80.056 59.5177 80.904V85.368C59.5177 85.96 59.3577 86.416 59.0377 86.736C58.7337 87.056 58.2857 87.216 57.6937 87.216ZM71.1654 87.264C69.9014 87.264 68.7974 87.016 67.8534 86.52C66.9254 86.024 66.2054 85.312 65.6934 84.384C65.1814 83.456 64.9254 82.36 64.9254 81.096C64.9254 80.152 65.0694 79.304 65.3574 78.552C65.6454 77.8 66.0614 77.16 66.6054 76.632C67.1654 76.088 67.8294 75.68 68.5974 75.408C69.3654 75.12 70.2214 74.976 71.1654 74.976C72.4294 74.976 73.5254 75.224 74.4534 75.72C75.3974 76.216 76.1254 76.92 76.6374 77.832C77.1654 78.744 77.4294 79.832 77.4294 81.096C77.4294 82.056 77.2774 82.912 76.9734 83.664C76.6854 84.416 76.2694 85.064 75.7254 85.608C75.1814 86.152 74.5174 86.568 73.7334 86.856C72.9654 87.128 72.1094 87.264 71.1654 87.264ZM71.1654 84.552C71.6934 84.552 72.1494 84.424 72.5334 84.168C72.9174 83.912 73.2214 83.536 73.4454 83.04C73.6694 82.528 73.7814 81.88 73.7814 81.096C73.7814 79.928 73.5414 79.072 73.0614 78.528C72.5814 77.968 71.9494 77.688 71.1654 77.688C70.6534 77.688 70.1974 77.808 69.7974 78.048C69.4134 78.288 69.1094 78.664 68.8854 79.176C68.6774 79.672 68.5734 80.312 68.5734 81.096C68.5734 82.264 68.8134 83.136 69.2934 83.712C69.7734 84.272 70.3974 84.552 71.1654 84.552ZM84.2009 87.216C83.7209 87.216 83.3129 87.104 82.9769 86.88C82.6409 86.64 82.3689 86.264 82.1609 85.752L78.7769 77.376C78.6009 76.928 78.5449 76.536 78.6089 76.2C78.6729 75.848 78.8409 75.568 79.1129 75.36C79.4009 75.136 79.7929 75.024 80.2889 75.024C80.7049 75.024 81.0489 75.128 81.3209 75.336C81.5929 75.528 81.8249 75.904 82.0169 76.464L84.6569 83.496H84.1049L86.8409 76.152C86.9689 75.768 87.1529 75.488 87.3929 75.312C87.6489 75.12 87.9769 75.024 88.3769 75.024C88.7769 75.024 89.0969 75.12 89.3369 75.312C89.5929 75.504 89.7929 75.784 89.9369 76.152L92.6249 83.496H92.1689L94.7849 76.368C94.9769 75.856 95.2249 75.504 95.5289 75.312C95.8329 75.12 96.1609 75.024 96.5129 75.024C96.9609 75.024 97.3049 75.136 97.5449 75.36C97.8009 75.584 97.9449 75.872 97.9769 76.224C98.0249 76.576 97.9609 76.96 97.7849 77.376L94.4249 85.752C94.2329 86.248 93.9609 86.616 93.6089 86.856C93.2729 87.096 92.8649 87.216 92.3849 87.216C91.9209 87.216 91.5129 87.096 91.1609 86.856C90.8249 86.616 90.5529 86.248 90.3449 85.752L87.4649 78.264H89.0249L86.2169 85.728C86.0249 86.224 85.7609 86.6 85.4249 86.856C85.0889 87.096 84.6809 87.216 84.2009 87.216ZM106.207 87.264C105.103 87.264 104.175 87.08 103.423 86.712C102.687 86.344 102.135 85.808 101.767 85.104C101.415 84.4 101.239 83.512 101.239 82.44V77.928H100.231C99.7833 77.928 99.4313 77.808 99.1753 77.568C98.9352 77.328 98.8152 77 98.8152 76.584C98.8152 76.136 98.9352 75.8 99.1753 75.576C99.4313 75.336 99.7833 75.216 100.231 75.216H101.239V73.392C101.239 72.784 101.399 72.328 101.719 72.024C102.039 71.704 102.487 71.544 103.063 71.544C103.655 71.544 104.103 71.704 104.407 72.024C104.711 72.328 104.863 72.784 104.863 73.392V75.216H107.143C107.591 75.216 107.935 75.336 108.175 75.576C108.415 75.8 108.535 76.136 108.535 76.584C108.535 77 108.415 77.328 108.175 77.568C107.935 77.808 107.591 77.928 107.143 77.928H104.863V82.296C104.863 82.968 105.015 83.472 105.319 83.808C105.639 84.144 106.143 84.312 106.831 84.312C107.071 84.312 107.295 84.288 107.503 84.24C107.711 84.192 107.903 84.16 108.079 84.144C108.303 84.128 108.487 84.2 108.631 84.36C108.775 84.504 108.847 84.832 108.847 85.344C108.847 85.728 108.783 86.064 108.655 86.352C108.527 86.64 108.303 86.848 107.983 86.976C107.775 87.056 107.487 87.12 107.119 87.168C106.767 87.232 106.463 87.264 106.207 87.264ZM112.325 87.216C111.733 87.216 111.277 87.056 110.957 86.736C110.653 86.416 110.501 85.96 110.501 85.368V71.712C110.501 71.104 110.653 70.648 110.957 70.344C111.277 70.024 111.733 69.864 112.325 69.864C112.901 69.864 113.341 70.024 113.645 70.344C113.965 70.648 114.125 71.104 114.125 71.712V77.424H113.789C114.157 76.64 114.701 76.04 115.421 75.624C116.157 75.192 116.989 74.976 117.917 74.976C118.861 74.976 119.637 75.16 120.245 75.528C120.853 75.88 121.309 76.424 121.613 77.16C121.917 77.88 122.069 78.8 122.069 79.92V85.368C122.069 85.96 121.909 86.416 121.589 86.736C121.285 87.056 120.837 87.216 120.245 87.216C119.669 87.216 119.221 87.056 118.901 86.736C118.597 86.416 118.445 85.96 118.445 85.368V80.088C118.445 79.272 118.293 78.688 117.989 78.336C117.701 77.968 117.253 77.784 116.645 77.784C115.877 77.784 115.261 78.024 114.797 78.504C114.349 78.984 114.125 79.624 114.125 80.424V85.368C114.125 86.6 113.525 87.216 112.325 87.216Z" fill="white"/>
<defs>
<clipPath id="clip0_180_5723">
<rect width="130" height="129" fill="white" transform="translate(14 15)"/>
</clipPath>
</defs>
</svg>
