<svg width="59" height="59" viewBox="0 0 59 59" fill="none" xmlns="http://www.w3.org/2000/svg">
<g clip-path="url(#clip0_437_9381)">
<path d="M29.6512 58.2681C45.578 58.2681 58.4893 45.3569 58.4893 29.43C58.4893 13.5031 45.578 0.591797 29.6512 0.591797C13.7243 0.591797 0.812988 13.5031 0.812988 29.43C0.812988 45.3569 13.7243 58.2681 29.6512 58.2681Z" fill="#004CFF"/>
<path d="M45.4928 22.8347L30.6604 11.1937C30.074 10.7323 29.2377 10.7323 28.6513 11.1937L13.8189 22.8347C12.5981 23.7864 13.2806 25.7474 14.8282 25.7474H16.7316V41.6949C16.7316 42.5504 17.4237 43.2425 18.2792 43.2425H24.8928C25.7483 43.2425 26.4404 42.5504 26.4404 41.6949V30.1212H33.0347V41.6949C33.0347 42.5504 33.7269 43.2425 34.5824 43.2425H41.196C42.0515 43.2425 42.7436 42.5504 42.7436 41.6949V25.7474H44.4739C46.0215 25.7474 46.6944 23.796 45.4832 22.8347H45.4928Z" fill="#A3C2FF"/>
</g>
<defs>
<clipPath id="clip0_437_9381">
<rect width="57.6763" height="57.6763" fill="white" transform="translate(0.812988 0.591797)"/>
</clipPath>
</defs>
</svg>
