<svg width="332" height="431" viewBox="0 0 332 431" fill="none" xmlns="http://www.w3.org/2000/svg">
<g clip-path="url(#clip0_2164_6447)">
<path d="M202.913 430.329C221.243 428.553 234.661 412.265 232.883 393.95C231.105 375.635 214.805 362.228 196.474 364.004C178.144 365.781 164.725 382.068 166.503 400.383C168.281 418.699 184.582 432.106 202.913 430.329Z" fill="#FFD200"/>
<path d="M166.506 401.439C166.683 402.575 166.92 403.712 167.22 404.849C167.844 407.205 168.713 409.433 169.778 411.515C180.218 412.343 192.174 411.27 204.471 408.014C215.148 405.19 224.782 401.066 232.806 396.177C232.792 393.408 232.433 390.593 231.691 387.788C231.495 387.046 231.268 386.328 231.027 385.609C222.83 390.73 212.886 395.059 201.818 397.987C189.275 401.307 177.092 402.353 166.506 401.434V401.439Z" fill="#DF0059"/>
<path d="M196.374 380.234L200.02 384.545L205.035 384.904L201.371 389.234L203.269 394.581L198.582 392.485L193.512 395.886L194.213 390.316L189.252 387.024L194.836 385.496L196.374 380.234Z" fill="#DF0059"/>
<path d="M171.316 384.527L174.884 387.406L180.505 385.846L178.502 390.866L181.984 395.355L177.06 394.873L174.67 399.338L172.085 394.622L168.076 392.649L171.558 389.661L171.316 384.527Z" fill="#0079FF"/>
<path d="M213.555 375.135L214.697 379.865L211.948 383.73L216.645 384.007L219.703 389.027L221.137 384.289L226.107 383.703L222.179 379.696L222.306 375.117L218.729 376.936L213.555 375.135Z" fill="#9200FF"/>
<path d="M200.166 411.106L201.549 414.635L200.156 417.704L203.884 416.931L206.437 419.755L206.696 416.322L210.324 414.421L206.81 413.052L206.451 409.078L203.765 411.879L200.166 411.106Z" fill="#9200FF"/>
<path d="M224.669 402.988L223.549 405.849L219.753 406.803L222.589 409.068L222.052 412.838L224.76 410.923L227.64 412.733L227.577 409.127L229.256 406.649L226.239 406.058L224.669 402.988Z" fill="#0079FF"/>
<path d="M183.581 412.924L184.487 416.061L187.377 417.403L184.728 419.122L184.615 423.064L182.202 420.777L179.112 422.082L180.073 418.444L178.475 415.816L181.165 415.693L183.581 412.924Z" fill="#DF0059"/>
<path d="M196.479 377.856C204.434 375.751 211.816 372.922 218.379 369.593C217.528 369.021 216.654 368.484 215.758 367.988C209.691 370.903 202.983 373.391 195.801 375.291C187.504 377.488 179.367 378.684 171.744 378.984C171.189 379.834 170.679 380.712 170.206 381.608C178.457 381.476 187.377 380.266 196.479 377.856Z" fill="#DF0059"/>
<path d="M207.638 419.965C197.863 422.552 188.305 423.757 179.549 423.725C180.778 424.653 182.061 425.494 183.404 426.245C191.273 426.008 199.71 424.803 208.316 422.525C215.175 420.711 221.601 418.355 227.449 415.613C228.3 414.335 229.06 412.994 229.729 411.611C223.117 414.981 215.671 417.841 207.638 419.965Z" fill="#DF0059"/>
<path fill-rule="evenodd" clip-rule="evenodd" d="M217.947 341.882C217.56 337.075 216.822 335.652 213.7 334.22C210.578 332.783 203.761 335.134 193.703 346.279C180.3 361.14 189.329 365.846 193.398 367.565C200.903 370.721 204.626 368.829 208.853 364.619C213.086 360.408 218.333 346.693 217.947 341.886V341.882Z" fill="#AB3BEA"/>
<path d="M206.423 321.27L210.874 341.41" stroke="#AB3BEA" stroke-width="16" stroke-miterlimit="10" stroke-linecap="round"/>
<path d="M148.083 267.651C148.083 267.651 91.818 258.37 86.4022 257.76C82.6021 257.333 71.543 255.109 71.543 255.109" stroke="#AB3BEA" stroke-width="13" stroke-miterlimit="10" stroke-linecap="round"/>
<path d="M74.0004 245.669C73.4043 244.46 72.6124 243.214 71.6157 242.009C68.084 237.73 63.4784 235.606 61.3348 237.261C59.5326 238.657 60.0377 242.263 62.3315 245.92C62.0812 245.856 61.8263 245.788 61.5578 245.729C56.5562 244.564 50.7581 245.387 48.6236 247.561C46.5574 249.644 48.5963 252.208 53.152 253.45C50.4213 254.696 48.2413 256.406 47.5086 258.102C46.2798 260.912 49.411 262.608 54.49 261.899C55.7461 261.726 57.0568 261.426 58.3402 261.026C56.6062 263.095 55.5003 265.287 55.5003 266.983C55.4912 270.048 59.0365 270.361 63.4146 267.688C64.8846 266.796 66.3501 265.641 67.6608 264.395C68.0522 264.432 68.4436 264.45 68.8441 264.441C74.7741 264.354 79.5164 259.789 79.4344 254.246C79.3798 250.553 77.1999 247.366 74.0004 245.665V245.669Z" fill="#AB3BEA"/>
<path fill-rule="evenodd" clip-rule="evenodd" d="M251.488 284.971C250.332 263.617 228.979 247.406 203.784 248.765C178.594 250.125 159.106 268.537 160.262 289.891C161.418 311.245 182.776 327.457 207.966 326.097C233.156 324.737 252.644 306.325 251.488 284.966V284.971Z" fill="#9600EC"/>
<path d="M248.994 288.612L277.739 284.912" stroke="#AB3BEA" stroke-width="16" stroke-miterlimit="10" stroke-linecap="round"/>
<path fill-rule="evenodd" clip-rule="evenodd" d="M285.084 281.438C282.271 277.518 280.911 276.677 277.497 277.054C274.08 277.432 269.447 282.952 266.57 297.681C262.743 317.316 272.905 316.703 277.279 316.084C285.339 314.929 287.551 311.391 289.007 305.603C290.463 299.814 287.892 285.358 285.089 281.438H285.084Z" fill="#AB3BEA"/>
<path fill-rule="evenodd" clip-rule="evenodd" d="M253.177 283.621C252.021 262.267 230.667 246.056 205.472 247.416C180.282 248.775 160.794 267.187 161.95 288.542C163.106 309.896 184.464 326.107 209.655 324.747C234.845 323.388 254.333 304.976 253.177 283.617V283.621Z" fill="#AB3BEA"/>
<path d="M244.593 255.942C244.593 255.942 263.194 250.145 268.332 248.33C271.936 247.057 282.859 244.229 282.859 244.229" stroke="#9600EC" stroke-width="10" stroke-miterlimit="10" stroke-linecap="round"/>
<path d="M231.602 258.592C231.602 258.592 261.415 248.711 267.363 246.591C271.535 245.108 284.179 241.812 284.179 241.812" stroke="#AB3BEA" stroke-width="13" stroke-miterlimit="10" stroke-linecap="round"/>
<path d="M285.803 232.759C286.559 231.645 287.519 230.522 288.67 229.463C292.762 225.716 297.613 224.242 299.511 226.179C301.104 227.807 300.103 231.313 297.326 234.615C297.581 234.588 297.841 234.556 298.118 234.533C303.234 234.074 308.859 235.683 310.675 238.134C312.432 240.485 310.06 242.741 305.377 243.341C307.912 244.951 309.828 246.947 310.324 248.73C311.153 251.685 307.817 252.931 302.883 251.526C301.664 251.181 300.408 250.703 299.188 250.13C300.621 252.418 301.409 254.741 301.177 256.424C300.763 259.461 297.208 259.284 293.24 256.028C291.911 254.941 290.614 253.6 289.49 252.181C289.098 252.163 288.707 252.127 288.311 252.063C282.449 251.158 278.385 245.983 279.231 240.504C279.796 236.852 282.399 233.996 285.799 232.755L285.803 232.759Z" fill="#AB3BEA"/>
<path d="M179.595 297.259L170.611 333.578L154.3 337.898L150.004 326.22L172.113 294.33L179.595 297.259Z" fill="#EB810F"/>
<path d="M171.371 285.468C168.126 289.324 168.622 295.072 172.481 298.31C176.336 301.547 182.089 301.052 185.334 297.2C188.579 293.353 188.082 287.601 184.228 284.358C180.368 281.121 174.616 281.616 171.375 285.468H171.371Z" fill="#EB810F"/>
<path d="M165.527 334.92L154.227 320.132L151.669 323.82L161.054 336.107L165.527 334.92ZM170.001 297.377L167.439 301.069L175.908 312.156L177.228 306.84L170.001 297.382V297.377ZM171.744 328.99L159.342 312.747L156.789 316.435L169.996 333.733L170.097 333.71L170.779 332.901L171.749 328.985L171.744 328.99ZM174.702 317.026L165.099 304.448L162.542 308.141L173.387 322.346L174.702 317.031V317.026Z" fill="#6BD700"/>
<path d="M173.191 283.825L184.237 298.286C184.624 297.958 184.992 297.604 185.329 297.204C185.989 296.426 186.485 295.562 186.836 294.657L177.383 282.279C175.899 282.438 174.457 282.961 173.187 283.83L173.191 283.825ZM170.916 286.058C169.869 287.522 169.323 289.209 169.246 290.906L176.359 300.223C178.061 300.605 179.836 300.482 181.474 299.891L170.916 286.058Z" fill="#6BD700"/>
<path d="M81.355 181.634C97.789 163.108 129.988 164.818 153.267 185.454C153.298 185.481 153.321 185.513 153.353 185.54C156.93 186.327 160.521 187.423 164.071 188.882C168.595 190.742 172.763 193.039 176.532 195.672C188.751 192.843 202.104 195.613 212.426 204.302C229.839 218.968 232.059 244.96 217.382 262.358C208.276 273.14 194.827 278.097 181.761 276.801C180.914 278.147 179.972 279.456 178.926 280.702C165.236 296.922 139.154 297.441 120.649 281.866C113.809 276.105 108.962 268.947 106.268 261.381C101.912 258.975 97.7025 256.024 93.7431 252.518C70.4597 231.896 64.912 200.155 81.3505 181.629L81.355 181.634Z" fill="#AB3BEA"/>
<path d="M149.184 267.178C175.399 272.843 200.985 263.712 212.972 243.891C207.811 265.977 185.284 283.562 157.763 285.171C134.512 286.531 114.105 276.113 104.411 259.947C119.22 267.696 135.103 270.138 149.189 267.173V267.182L149.184 267.178Z" fill="#5E1E81"/>
<path d="M178.616 180.256C182.061 188.205 181.579 196.063 177.542 197.818C173.505 199.583 167.439 194.567 163.994 186.618C160.549 178.669 161.031 170.812 165.059 169.047C169.105 167.292 175.171 172.312 178.616 180.247V180.256Z" fill="#AB3BEA"/>
<path d="M176.814 184.331C179.786 191.179 180.004 197.691 177.301 198.868C174.598 200.046 170.001 195.444 167.025 188.596C164.053 181.748 163.834 175.236 166.538 174.049C169.241 172.871 173.838 177.473 176.814 184.331Z" fill="#D741EA"/>
<path d="M232.032 211.073C223.235 210.6 215.921 213.842 215.68 218.322C215.448 222.805 222.379 226.816 231.172 227.289C239.969 227.762 247.292 224.52 247.524 220.04C247.756 215.557 240.825 211.546 232.032 211.073Z" fill="#AB3BEA"/>
<path d="M228.842 214.334C221.392 213.943 215.225 216.017 215.066 218.968C214.907 221.919 220.814 224.625 228.264 225.007C235.714 225.398 241.881 223.325 242.04 220.373C242.199 217.422 236.292 214.716 228.842 214.334Z" fill="#D741EA"/>
<path d="M187.832 196.572C191.696 191.988 191.118 185.145 186.531 181.284C181.943 177.423 175.094 178.001 171.23 182.585C167.366 187.168 167.953 194.012 172.531 197.873C177.119 201.733 183.968 201.156 187.832 196.572Z" fill="white"/>
<path d="M206.605 212.333C210.469 207.749 209.882 200.905 205.295 197.045C200.716 193.184 193.858 193.771 189.994 198.345C186.13 202.929 186.717 209.773 191.295 213.633C195.874 217.494 202.732 216.916 206.596 212.333H206.605Z" fill="white"/>
<path d="M179.872 192.92C182.867 194.607 186.663 193.547 188.36 190.555C188.738 189.891 188.979 189.173 189.097 188.445C188.21 189.245 186.867 189.445 185.761 188.827C184.396 188.058 183.9 186.312 184.683 184.944C185.315 183.834 186.576 183.302 187.75 183.557C187.277 182.97 186.69 182.479 185.998 182.088C183.003 180.392 179.208 181.46 177.519 184.452C175.822 187.445 176.882 191.242 179.877 192.938V192.929L179.872 192.92Z" fill="#F69C00"/>
<path d="M195.542 208.322C198.809 209.382 202.323 207.595 203.383 204.33C203.629 203.588 203.715 202.852 203.684 202.115C202.978 203.084 201.699 203.538 200.498 203.147C199 202.656 198.186 201.047 198.668 199.555C199.064 198.341 200.188 197.577 201.399 197.586C200.825 197.118 200.147 196.74 199.392 196.49C196.124 195.431 192.615 197.204 191.55 200.483C190.481 203.752 192.274 207.249 195.546 208.318H195.537L195.542 208.322Z" fill="#F69C00"/>
<path d="M142.886 268.519C142.681 269.347 142.394 270.165 142.017 270.961C138.894 277.609 130.971 280.465 124.317 277.346C119.716 275.19 116.926 270.738 116.681 266C125.564 269.042 134.607 269.893 142.877 268.519H142.886Z" fill="#DF0059"/>
<path fill-rule="evenodd" clip-rule="evenodd" d="M128.923 268.811C127.658 271.417 125.218 274.832 125.218 274.832C125.218 274.832 126.37 270.88 127.193 268.584C127.767 268.666 128.349 268.748 128.918 268.811H128.923Z" fill="#5E1E81"/>
<path d="M175.521 269.184C175.562 269.966 175.517 270.784 175.362 271.616C174.561 276.118 171.116 279.256 167.684 278.647C164.389 278.051 162.291 274.222 162.833 269.938C167.207 270.179 171.466 269.916 175.531 269.193L175.521 269.184Z" fill="white"/>
<path d="M145.839 235.797C151.779 235.806 156.598 232.864 156.598 229.24C156.598 225.615 151.783 222.678 145.83 222.678C139.891 222.678 135.072 225.611 135.072 229.244C135.072 232.877 139.9 235.806 145.839 235.806V235.797Z" fill="#D741EA"/>
<path d="M94.79 195.458C94.5806 189.528 91.4586 184.822 87.8359 184.958C84.2132 185.09 81.4507 190.01 81.6737 195.949C81.8922 201.879 85.0051 206.585 88.6414 206.449C92.2732 206.312 95.0266 201.387 94.8036 195.458H94.7945H94.79Z" fill="#D741EA"/>
<path d="M211.816 213.37C216.59 209.591 218.019 202.797 214.888 197.363C211.766 191.929 205.167 189.724 199.506 191.947C202.969 193.752 206.228 196.867 208.599 200.974C210.97 205.089 212.012 209.482 211.83 213.37H211.821H211.816Z" fill="#AB3BEA"/>
<path d="M195.369 185.599C195.756 179.583 191.687 174.021 185.602 172.721C179.522 171.42 173.528 174.808 171.403 180.456C175.016 179.105 179.495 178.769 184.082 179.751C188.679 180.742 192.62 182.884 195.369 185.594V185.603V185.599Z" fill="#AB3BEA"/>
<path d="M152.347 185.536C161.659 186.995 172.832 192.047 183.313 200.173C191.864 206.803 198.532 214.388 202.728 221.655C208.175 231.104 144.192 184.253 152.352 185.536H152.347Z" fill="#AB3BEA"/>
<path d="M101.075 139.749C112.031 139.749 120.913 130.875 120.913 119.927C120.913 108.98 112.031 100.105 101.075 100.105C90.1187 100.105 81.2368 108.98 81.2368 119.927C81.2368 130.875 90.1187 139.749 101.075 139.749Z" fill="#0078FF"/>
<path d="M100.606 104.975C100.424 104.943 100.242 104.934 100.051 104.948C99.0359 105.02 98.1894 105.739 97.9436 106.726L96.105 114.179L88.4455 114.733C87.4307 114.806 86.5751 115.525 86.3338 116.511C86.0926 117.498 86.5113 118.526 87.376 119.062L93.9023 123.11L92.0637 130.563C91.8224 131.549 92.2411 132.577 93.1013 133.114C93.3653 133.277 93.6565 133.387 93.9524 133.437C94.6168 133.546 95.3131 133.368 95.8502 132.914L101.721 127.966L108.247 132.018C108.511 132.181 108.803 132.291 109.098 132.341C109.763 132.45 110.459 132.272 110.996 131.822C111.774 131.167 112.038 130.085 111.661 129.148L108.766 122.041L114.587 117.134C115.024 116.784 115.338 116.279 115.438 115.688C115.647 114.438 114.824 113.256 113.59 113.005C113.563 113.001 113.536 112.996 113.508 112.992C113.449 112.983 113.381 112.974 113.322 112.969C113.181 112.955 113.04 112.955 112.898 112.969L105.289 113.519L102.395 106.412C102.081 105.643 101.393 105.116 100.606 104.984V104.975Z" fill="#2FBCEA"/>
<path d="M151.059 40.1436C162.016 40.1436 170.897 31.2691 170.897 20.3218C170.897 9.37453 162.016 0.5 151.059 0.5C140.103 0.5 131.221 9.37453 131.221 20.3218C131.221 31.2691 140.103 40.1436 151.059 40.1436Z" fill="#00A74E"/>
<path d="M145.534 31.8911C143.445 32.0048 142.349 31.0271 142.235 28.9626L141.329 12.1784C141.215 10.114 142.207 9.02715 144.292 8.91346L152.252 8.48601C154.732 8.35414 156.68 8.78614 158.095 9.78655C159.511 10.787 160.271 12.1921 160.366 13.9928C160.43 15.1888 160.189 16.2483 159.638 17.1714C159.087 18.0945 158.291 18.8039 157.249 19.295C158.555 19.6179 159.579 20.2227 160.325 21.1049C161.072 21.9916 161.481 23.1193 161.554 24.4881C161.663 26.5071 161.026 28.1396 159.643 29.381C158.259 30.6224 156.316 31.3091 153.817 31.4455L145.534 31.8911ZM147.396 17.899L151.669 17.6671C152.757 17.608 153.544 17.3715 154.036 16.9531C154.527 16.5348 154.75 15.9254 154.705 15.1206C154.659 14.3157 154.372 13.7382 153.84 13.3835C153.308 13.0333 152.497 12.8833 151.41 12.9424L147.136 13.1743L147.391 17.899H147.396ZM147.905 27.3483L152.766 27.0846C153.876 27.0255 154.673 26.7708 155.16 26.3161C155.647 25.8659 155.87 25.2156 155.824 24.3698C155.779 23.524 155.488 22.9056 154.955 22.5191C154.423 22.1325 153.599 21.9734 152.493 22.0325L147.632 22.2963L147.905 27.3483Z" fill="#BAEC16"/>
<path d="M20.5982 182.733C31.5545 182.733 40.4363 173.859 40.4363 162.912C40.4363 151.964 31.5545 143.09 20.5982 143.09C9.64185 143.09 0.76001 151.964 0.76001 162.912C0.76001 173.859 9.64185 182.733 20.5982 182.733Z" fill="#6600BC"/>
<path d="M15.9879 175.167C14.9503 175.222 14.1903 175.022 13.7079 174.567C13.2209 174.112 12.9569 173.412 12.9023 172.471C12.8659 171.811 12.9751 171.216 13.23 170.684C13.4849 170.152 13.8444 169.624 14.3132 169.106L20.1431 162.317C21.0078 161.302 21.6176 160.429 21.9681 159.688C22.3185 158.951 22.4732 158.228 22.4368 157.524C22.3413 155.737 21.1489 154.904 18.8688 155.027C18.3044 155.059 17.7037 155.168 17.062 155.355C16.4249 155.541 15.7604 155.846 15.0732 156.259C14.4542 156.601 13.8808 156.719 13.3574 156.619C12.8341 156.519 12.3926 156.278 12.0422 155.891C11.6917 155.509 11.4596 155.064 11.3504 154.55C11.2412 154.036 11.2867 153.522 11.496 153.004C11.7054 152.485 12.1059 152.044 12.6975 151.68C13.7488 151.057 14.8502 150.58 16.0016 150.248C17.153 149.916 18.3136 149.716 19.4923 149.652C22.364 149.498 24.594 150.002 26.1778 151.166C27.7616 152.331 28.6217 154.09 28.7492 156.441C28.8311 157.947 28.5671 159.402 27.9573 160.802C27.3474 162.203 26.287 163.735 24.7715 165.395L20.9623 169.633L27.9891 169.256C29.7777 169.16 30.7198 169.983 30.8154 171.72C30.9109 173.457 30.0644 174.417 28.2759 174.512L15.9879 175.176V175.167Z" fill="#E83593"/>
<path d="M302.893 233.437C313.849 233.437 322.731 224.562 322.731 213.615C322.731 202.667 313.849 193.793 302.893 193.793C291.936 193.793 283.054 202.667 283.054 213.615C283.054 224.562 291.936 233.437 302.893 233.437Z" fill="#FFBC00"/>
<path d="M312.587 203.014L291.733 204.139L292.859 224.976L313.713 223.851L312.587 203.014Z" fill="#FF0000"/>
<path d="M228.482 151.439C239.439 151.439 248.321 142.564 248.321 131.617C248.321 120.669 239.439 111.795 228.482 111.795C217.526 111.795 208.644 120.669 208.644 131.617C208.644 142.564 217.526 151.439 228.482 151.439Z" fill="#FF91FF"/>
<path d="M228 125.87C228 125.87 221.374 118.562 216.663 122.709C208.704 129.717 229.015 144.673 229.015 144.673C229.015 144.673 246.823 128.535 238.568 121.964C232.264 116.948 228 125.87 228 125.87Z" fill="#FF0000"/>
<path d="M222.848 50.1241C233.804 50.1241 242.686 41.2496 242.686 30.3023C242.686 19.355 233.804 10.4805 222.848 10.4805C211.892 10.4805 203.01 19.355 203.01 30.3023C203.01 41.2496 211.892 50.1241 222.848 50.1241Z" fill="#FF8000"/>
<path d="M223.972 41.5758C221.428 41.7122 219.216 41.3439 217.337 40.4617C215.457 39.5841 213.987 38.279 212.922 36.5465C211.857 34.8185 211.261 32.7586 211.134 30.3667C211.006 27.9748 211.375 25.8694 212.249 24.0459C213.118 22.2224 214.442 20.7718 216.217 19.6986C217.992 18.6209 220.149 18.0161 222.693 17.8797C223.695 17.8251 224.737 17.8797 225.829 18.0525C226.917 18.2207 227.886 18.5118 228.737 18.9256C229.365 19.2166 229.811 19.6077 230.075 20.0942C230.339 20.5808 230.458 21.0856 230.421 21.6131C230.385 22.136 230.221 22.6135 229.925 23.0455C229.634 23.4775 229.252 23.773 228.778 23.9413C228.305 24.1095 227.782 24.0641 227.199 23.814C225.884 23.2546 224.55 23.0091 223.203 23.0818C221.182 23.191 219.69 23.8458 218.729 25.0372C217.769 26.2331 217.346 27.8975 217.46 30.0256C217.573 32.1538 218.174 33.7953 219.257 34.8822C220.34 35.969 221.892 36.4555 223.918 36.3464C224.482 36.3146 225.087 36.2145 225.734 36.0372C226.38 35.8598 227.008 35.6052 227.622 35.2641C228.259 34.9458 228.837 34.8412 229.356 34.9413C229.875 35.0459 230.307 35.2823 230.653 35.6552C230.999 36.0281 231.227 36.4692 231.331 36.9739C231.436 37.4787 231.391 37.988 231.199 38.5018C231.008 39.0157 230.63 39.4386 230.057 39.7751C229.32 40.2707 228.4 40.68 227.295 41.0029C226.189 41.3257 225.083 41.5167 223.972 41.5758Z" fill="#FFDB00"/>
<path d="M29.9097 111.937C40.866 111.937 49.7478 103.062 49.7478 92.1148C49.7478 81.1675 40.866 72.293 29.9097 72.293C18.9534 72.293 10.0715 81.1675 10.0715 92.1148C10.0715 103.062 18.9534 111.937 29.9097 111.937Z" fill="#2FBCEA"/>
<path d="M29.9415 104.512C28.7172 104.58 27.5067 104.525 26.3052 104.353C25.1037 104.18 24.0569 103.907 23.1604 103.53C22.4094 103.216 21.8679 102.811 21.5356 102.306C21.2034 101.806 21.0441 101.283 21.0623 100.738C21.0805 100.196 21.2489 99.7007 21.5675 99.2596C21.8861 98.8185 22.3184 98.5048 22.8645 98.3229C23.4107 98.141 24.0433 98.1819 24.7669 98.4502C25.6589 98.7776 26.4736 98.9959 27.2108 99.0959C27.9481 99.196 28.6808 99.2278 29.4136 99.1914C31.9576 99.055 33.1818 98.1137 33.0863 96.3766C32.9998 94.776 31.8256 94.0393 29.5683 94.1621L27.6614 94.2667C26.7648 94.3167 26.0731 94.1302 25.577 93.7073C25.0809 93.2844 24.8124 92.666 24.7669 91.8384C24.7214 91.0108 24.9216 90.3696 25.3722 89.8967C25.8182 89.4238 26.4872 89.1646 27.3838 89.1145L28.6535 89.0463C29.6639 88.9918 30.4466 88.7371 31.0019 88.2824C31.5571 87.8276 31.812 87.2001 31.7665 86.3998C31.68 84.8264 30.5422 84.0943 28.3532 84.2125C27.6932 84.2489 27.0288 84.3535 26.3507 84.5308C25.6771 84.7082 24.958 84.9947 24.2026 85.3903C23.6064 85.6813 23.0466 85.7723 22.5369 85.6586C22.0226 85.5449 21.5902 85.2948 21.2398 84.9128C20.8894 84.5308 20.6618 84.0761 20.5663 83.5532C20.4661 83.0302 20.5344 82.5164 20.7665 82.0207C20.9986 81.525 21.4264 81.093 22.0408 80.7293C24.0114 79.6106 26.2323 78.9831 28.7036 78.8467C31.4797 78.6966 33.6779 79.1877 35.2981 80.3109C36.9183 81.4386 37.783 83.0711 37.9013 85.2129C37.9696 86.4816 37.7147 87.6185 37.1276 88.6143C36.5451 89.6147 35.6986 90.3651 34.5927 90.8744C36.0035 91.2018 37.1185 91.8702 37.9423 92.8888C38.766 93.9074 39.2166 95.167 39.2985 96.6722C39.4214 98.9322 38.6522 100.76 36.9911 102.156C35.33 103.557 32.9816 104.334 29.946 104.498L29.9415 104.512Z" fill="#0078FF"/>
<path d="M286.085 97.0128C297.042 97.0128 305.924 88.1382 305.924 77.1909C305.924 66.2437 297.042 57.3691 286.085 57.3691C275.129 57.3691 266.247 66.2437 266.247 77.1909C266.247 88.1382 275.129 97.0128 286.085 97.0128Z" fill="#002C8C"/>
<path d="M285.307 62.7578L273.083 86.8177L300.048 85.3671L285.307 62.7578Z" fill="#2FBCEA"/>
<path d="M86.4068 64.3799C97.3631 64.3799 106.245 55.5054 106.245 44.5581C106.245 33.6109 97.3631 24.7363 86.4068 24.7363C75.4504 24.7363 66.5686 33.6109 66.5686 44.5581C66.5686 55.5054 75.4504 64.3799 86.4068 64.3799Z" fill="#A120DE"/>
<path d="M77.4048 55.3644C76.3808 55.4189 75.6117 55.1143 75.0974 54.4412C74.5831 53.7728 74.5331 52.9042 74.9563 51.8356L82.1334 33.9282C82.4792 33.0597 82.9253 32.414 83.4668 31.9911C84.013 31.5682 84.6638 31.3363 85.4238 31.2953C86.1838 31.2544 86.8255 31.4136 87.4126 31.7774C87.9997 32.1366 88.5094 32.7323 88.9463 33.5599L98.0121 50.5897C98.5673 51.6264 98.6401 52.4995 98.2169 53.2089C97.7936 53.9183 97.0973 54.3003 96.1188 54.3503C95.2496 54.3958 94.5715 54.2366 94.08 53.8728C93.593 53.509 93.1379 52.8997 92.7237 52.0493L91.545 49.6302L81.2687 50.1849L80.3584 52.7178C80.0126 53.6091 79.6439 54.2593 79.2525 54.6732C78.8611 55.087 78.2422 55.3143 77.3911 55.3598L77.4048 55.3644ZM85.7151 37.8526L82.989 45.483L89.315 45.142L85.7788 37.848H85.7151V37.8526Z" fill="#C98EFF"/>
<path d="M45.1741 252.099C56.1304 252.099 65.0122 243.224 65.0122 232.277C65.0122 221.33 56.1304 212.455 45.1741 212.455C34.2178 212.455 25.3359 221.33 25.3359 232.277C25.3359 243.224 34.2178 252.099 45.1741 252.099Z" fill="#FF0000"/>
<path d="M39.4989 244.25C37.7103 244.346 36.7682 243.514 36.6727 241.749C36.5771 239.985 37.4281 239.089 39.2167 238.994L42.3934 238.821L41.7107 226.225L39.6263 227.648C39.0347 228.057 38.4658 228.235 37.9196 228.18C37.3735 228.126 36.9002 227.921 36.5043 227.566C36.1083 227.212 35.8353 226.766 35.6896 226.229C35.544 225.697 35.5622 225.152 35.7442 224.597C35.9263 224.047 36.3268 223.565 36.9412 223.151L41.6515 219.854C42.6755 219.14 43.7769 218.749 44.9511 218.685C45.8476 218.635 46.553 218.831 47.0719 219.263C47.5907 219.695 47.8729 220.345 47.9229 221.214L48.8559 238.466L51.6821 238.312C53.4707 238.216 54.4128 239.039 54.5083 240.776C54.6039 242.513 53.7574 243.473 51.9688 243.568L39.5034 244.241L39.4989 244.25Z" fill="#FFBC00"/>
<path d="M311.922 158.06C322.878 158.06 331.76 149.185 331.76 138.238C331.76 127.291 322.878 118.416 311.922 118.416C300.966 118.416 292.084 127.291 292.084 138.238C292.084 149.185 300.966 158.06 311.922 158.06Z" fill="#98CE16"/>
<path d="M311.922 150.83C318.882 150.83 324.524 145.192 324.524 138.238C324.524 131.284 318.882 125.646 311.922 125.646C304.962 125.646 299.32 131.284 299.32 138.238C299.32 145.192 304.962 150.83 311.922 150.83Z" fill="#00A74E"/>
<path d="M165.332 111.046C176.288 111.046 185.17 102.171 185.17 91.2241C185.17 80.2769 176.288 71.4023 165.332 71.4023C154.375 71.4023 145.493 80.2769 145.493 91.2241C145.493 102.171 154.375 111.046 165.332 111.046Z" fill="#FFDB00"/>
<path d="M162.519 81.4922L164.408 92.6559C162.319 92.3739 159.72 93.3743 157.677 95.4934C154.787 98.4946 154.127 102.546 156.202 104.543C158.277 106.539 162.305 105.725 165.195 102.724C167.434 100.4 168.312 97.4578 167.643 95.316L165.878 85.4302C165.878 85.4302 167.912 85.1073 171.289 83.5339C174.666 81.9651 172.809 75.5352 172.809 75.5352L162.514 81.4876L162.519 81.4922Z" fill="#FF8000"/>
</g>
<defs>
<clipPath id="clip0_2164_6447">
<rect width="331" height="430" fill="white" transform="translate(0.76001 0.5)"/>
</clipPath>
</defs>
</svg>
