<svg width="232" height="342" viewBox="0 0 232 342" fill="none" xmlns="http://www.w3.org/2000/svg">
<g clip-path="url(#clip0_172_4162)">
<path d="M97.1158 279.326C97.0842 279.793 96.6825 280.144 96.2149 280.112C95.7473 280.08 95.3966 279.679 95.4282 279.211L99.3237 221.699C99.3554 221.232 99.7571 220.881 100.225 220.913C100.692 220.945 101.043 221.346 101.011 221.813L97.1158 279.326Z" fill="#471761"/>
<path d="M121.124 280.952C121.092 281.419 120.69 281.77 120.223 281.738C119.755 281.706 119.404 281.305 119.436 280.837L123.332 223.325C123.363 222.858 123.765 222.507 124.232 222.539C124.7 222.571 125.051 222.972 125.019 223.44L121.124 280.952Z" fill="#471761"/>
<path d="M188.464 190.386C232.023 152.37 236.501 86.2549 198.466 42.7129C160.43 -0.829124 94.2842 -5.30941 50.7244 32.7059C7.16469 70.7212 2.68649 136.836 40.7221 180.378C78.7577 223.921 144.904 228.401 188.464 190.386Z" fill="#DF0059"/>
<path d="M151.073 16.5389C150.887 19.2947 139.572 20.7733 125.808 19.8411C112.044 18.9088 101.033 15.9179 101.22 13.1621C101.406 10.4063 112.72 8.92766 126.484 9.85994C140.248 10.7922 151.26 13.7831 151.073 16.5389Z" fill="#910E51"/>
<path d="M165.279 20.4314C165.131 20.6318 164.972 20.8261 164.791 21.019C195.345 39.7425 214.864 77.4323 212.02 119.425C208.114 177.093 163.515 221.039 112.41 217.577C165.74 221.19 212.145 177.366 216.051 119.698C218.931 77.1735 197.901 38.9981 165.274 20.4311L165.279 20.4314Z" fill="#471761"/>
<path d="M26.9497 106.89C29.794 64.8969 54.2169 30.1834 87.0169 15.7511C86.8695 15.5361 86.7328 15.3217 86.6126 15.1031C51.7846 29.1066 25.7991 64.0921 22.9188 106.617C19.0128 164.285 59.0783 213.965 112.415 217.578C61.3088 214.116 23.0436 164.558 26.9497 106.89Z" fill="#471761"/>
<path d="M140.84 286.626C140.407 293.013 125.379 297.198 107.272 295.971C89.1656 294.745 74.8387 288.572 75.2713 282.185C75.7039 275.798 90.7324 271.613 108.839 272.84C126.946 274.066 141.272 280.239 140.84 286.626Z" fill="#E6A600"/>
<path d="M140.573 290.564C140.141 296.951 125.112 301.135 107.006 299.909C88.899 298.683 74.5721 292.51 75.0047 286.123C75.4373 279.735 90.4658 275.551 108.572 276.777C126.679 278.004 141.006 284.176 140.573 290.564Z" fill="#471761"/>
<path d="M141.134 216.447C140.289 228.91 127.332 230.892 111.585 229.826C95.8378 228.759 83.2663 225.048 84.1105 212.585C84.9546 200.122 98.403 190.887 114.15 191.953C129.897 193.02 141.978 203.984 141.134 216.447Z" fill="#DF0059"/>
<path d="M125.435 294.838C124.791 304.357 116.545 311.554 107.021 310.908C97.4976 310.263 90.2974 302.021 90.9421 292.502C91.5869 282.983 101.596 269.133 111.119 269.778C120.643 270.423 126.08 285.319 125.435 294.838Z" fill="#AC3BFF"/>
<path d="M107.35 288.691L102.441 295.876L104.219 299.369L106.909 298.305L109.021 289.533L107.35 288.691Z" fill="#FB810F"/>
<path d="M110.67 288.29C110.505 289.45 109.43 290.257 108.27 290.087C107.11 289.922 106.308 288.847 106.473 287.687C106.638 286.527 107.713 285.721 108.873 285.891C110.033 286.056 110.835 287.13 110.67 288.29Z" fill="#FB810F"/>
<path d="M103.485 297.922L107.072 297.647L107.314 296.633L102.999 296.966L103.485 297.922ZM106.055 290.584L105.336 291.636L108.571 291.386L108.812 290.372L106.05 290.584L106.055 290.584ZM102.536 295.742L102.504 295.988L102.513 296.011L107.561 295.619L107.802 294.604L103.064 294.974L102.536 295.748L102.536 295.742ZM103.963 293.653L108.11 293.33L108.351 292.315L104.682 292.601L103.963 293.653Z" fill="#6BD700"/>
<path d="M110.294 286.754L106.679 287.032C106.579 287.231 106.505 287.452 106.473 287.687C106.454 287.805 106.451 287.929 106.454 288.042L110.672 287.713C110.626 287.359 110.491 287.026 110.289 286.748L110.294 286.754ZM106.604 288.776C106.757 289.153 107.01 289.478 107.34 289.716L110.059 289.506C110.342 289.229 110.55 288.876 110.642 288.466L106.604 288.781L106.604 288.776Z" fill="#6BD700"/>
<path fill-rule="evenodd" clip-rule="evenodd" d="M104.015 314.893C105.106 314.092 105.337 313.709 105.223 312.751C105.11 311.794 103.545 310.511 99.4012 309.75C93.8766 308.734 94.0779 311.581 94.2701 312.808C94.6193 315.066 95.6202 315.673 97.2459 316.064C98.8769 316.455 102.929 315.693 104.02 314.893L104.015 314.893Z" fill="#AC3BFF"/>
<path fill-rule="evenodd" clip-rule="evenodd" d="M106.793 309.182C106.621 311.723 105.198 314.708 103.699 314.607C102.199 314.505 101.193 311.355 101.365 308.815C101.537 306.274 102.823 305.298 104.323 305.399C105.822 305.501 106.965 306.641 106.793 309.182Z" fill="#AC3BFF"/>
<path fill-rule="evenodd" clip-rule="evenodd" d="M110.238 315.314C109.265 314.374 109.083 313.962 109.329 313.029C109.571 312.096 111.295 311.036 115.508 310.841C121.12 310.579 120.536 313.373 120.186 314.563C119.535 316.753 118.462 317.22 116.798 317.388C115.129 317.556 111.217 316.255 110.244 315.314L110.238 315.314Z" fill="#AC3BFF"/>
<path fill-rule="evenodd" clip-rule="evenodd" d="M108.249 309.281C108.077 311.822 109.084 314.972 110.584 315.073C112.083 315.175 113.511 312.19 113.683 309.649C113.855 307.108 112.712 305.967 111.207 305.866C109.702 305.764 108.421 306.74 108.249 309.281Z" fill="#AC3BFF"/>
<path d="M92.9952 280.849C92.858 280.883 92.7303 280.934 92.6074 280.996C92.0224 281.183 90.4392 281.998 89.4799 282.451C88.69 282.873 88.4487 283.407 88.6339 284.18C88.7605 284.701 89.1335 285.094 89.6024 285.266C90.3341 285.542 93.3543 284.635 94.1073 284.119C94.8806 283.783 95.3258 282.95 95.1281 282.121C94.9051 281.189 93.9504 280.617 92.9952 280.849Z" fill="#AC3BFF"/>
<path d="M98.4542 279.492C98.2769 278.762 97.5374 278.28 96.8112 278.479C96.1947 278.654 93.971 279.998 92.5135 280.951C91.6618 281.568 91.4672 282.289 91.6192 282.915C91.8461 283.869 92.8266 284.459 93.7983 284.222C93.809 284.223 94.3342 284.043 94.7949 283.777C95.6439 283.279 97.5722 281.753 98.228 280.599C98.4541 280.291 98.5459 279.892 98.4545 279.487L98.4542 279.492Z" fill="#AC3BFF"/>
<path d="M125.66 281.723C125.799 281.743 125.931 281.785 126.058 281.831C126.653 281.969 128.309 282.631 129.304 283.001C130.128 283.348 130.418 283.859 130.305 284.644C130.226 285.173 129.889 285.604 129.443 285.816C128.739 286.157 125.651 285.527 124.855 285.085C124.057 284.82 123.533 284.029 123.655 283.19C123.789 282.239 124.692 281.588 125.665 281.729L125.66 281.723Z" fill="#AC3BFF"/>
<path d="M120.098 280.866C120.207 280.123 120.903 279.572 121.645 279.708C122.274 279.826 124.61 280.967 126.147 281.783C127.05 282.319 127.306 283.017 127.214 283.658C127.072 284.63 126.152 285.302 125.157 285.159C125.147 285.158 124.605 285.03 124.129 284.803C123.239 284.387 121.181 283.039 120.419 281.946C120.168 281.659 120.033 281.267 120.093 280.86L120.098 280.866Z" fill="#AC3BFF"/>
<path d="M121.595 241.626C119.02 243.459 117.691 246.014 118.618 247.323C119.549 248.633 122.386 248.204 124.961 246.371C127.537 244.538 128.87 241.984 127.938 240.68C127.007 239.37 124.165 239.793 121.589 241.631L121.595 241.626Z" fill="#AC3BFF"/>
<path d="M121.393 243.242C119.175 244.824 117.879 246.82 118.5 247.698C119.121 248.577 121.427 248.004 123.645 246.422C125.864 244.84 127.16 242.845 126.539 241.967C125.918 241.088 123.612 241.66 121.388 243.247L121.393 243.242Z" fill="#FF10FF"/>
<path d="M99.0926 241.208C101.933 242.718 103.607 245.108 102.834 246.556C102.061 247.999 99.138 247.952 96.2977 246.443C93.4574 244.934 91.7836 242.543 92.5562 241.1C93.3238 239.652 96.252 239.705 99.0923 241.214L99.0926 241.208Z" fill="#AC3BFF"/>
<path d="M99.4743 242.826C101.877 244.106 103.412 245.915 102.91 246.869C102.403 247.817 100.045 247.555 97.648 246.275C95.2456 244.995 93.7107 243.186 94.2126 242.232C94.7199 241.279 97.0774 241.547 99.4743 242.826Z" fill="#FF10FF"/>
<path d="M93.7392 261.499C92.3368 252.71 98.3279 244.449 107.126 243.053C115.919 241.652 124.184 247.641 125.581 256.429C126.983 265.218 120.992 273.479 112.2 274.875C103.407 276.276 95.1416 270.288 93.7392 261.499Z" fill="#AC3BFF"/>
<path d="M110.998 245.193C110.653 243.033 112.123 241.006 114.285 240.662C116.446 240.317 118.479 241.788 118.824 243.948C119.169 246.108 117.698 248.135 115.537 248.48C113.376 248.824 111.343 247.354 111.003 245.194L110.998 245.193Z" fill="white"/>
<path d="M101.555 245.342C101.21 243.181 102.686 241.155 104.848 240.81C107.009 240.466 109.037 241.936 109.382 244.096C109.727 246.257 108.255 248.289 106.094 248.628C103.933 248.973 101.9 247.497 101.56 245.342L101.555 245.342Z" fill="white"/>
<path d="M111.437 244.921C111.241 243.683 112.086 242.52 113.325 242.324C113.603 242.278 113.878 242.291 114.139 242.341C113.753 242.541 113.513 242.973 113.585 243.431C113.676 243.999 114.211 244.386 114.773 244.294C115.232 244.223 115.575 243.857 115.637 243.419C115.778 243.655 115.873 243.921 115.919 244.205C116.116 245.443 115.27 246.605 114.037 246.802C112.798 246.999 111.629 246.159 111.432 244.915L111.437 244.921Z" fill="#F69C00"/>
<path d="M103.47 245.617C103.273 244.379 104.118 243.216 105.357 243.02C105.635 242.974 105.91 242.982 106.171 243.037C105.78 243.237 105.545 243.669 105.617 244.127C105.708 244.695 106.243 245.082 106.811 244.991C107.269 244.919 107.607 244.554 107.674 244.121C107.809 244.357 107.91 244.623 107.956 244.906C108.153 246.145 107.313 247.308 106.068 247.504C104.829 247.706 103.666 246.861 103.47 245.617Z" fill="#F69C00"/>
<path d="M135.383 260.051C132.99 250.671 121.494 245.5 109.71 248.501C109.694 248.5 109.677 248.509 109.666 248.514C108.282 248.145 106.836 247.89 105.344 247.757C94.2163 246.798 84.5776 253.193 83.8163 262.041C83.1596 269.665 89.308 276.617 98.1354 279.012C104.997 286.681 111.602 285.045 118.375 282.471C129.746 278.147 137.782 269.431 135.389 260.051L135.383 260.051Z" fill="#AC3BFF"/>
<path d="M110.004 274.926C103.92 274.514 98.6386 271.501 95.1875 267.053C95.6512 274.634 101.723 280.879 109.565 281.41C117.406 281.941 124.265 276.572 125.747 269.123C121.727 273.065 116.088 275.338 110.004 274.926Z" fill="#5E1E81"/>
<path d="M122.449 271.889C122.117 272.093 121.863 272.259 121.534 272.41C121.568 272.547 121.602 272.76 121.652 272.898C122.24 274.584 123.764 275.588 125.053 275.136C126.341 274.689 126.913 272.952 126.325 271.266C126.094 270.603 125.716 270.049 125.268 269.646C124.502 270.512 123.497 271.253 122.455 271.889L122.449 271.889Z" fill="white"/>
<path d="M97.9799 270.156C98.2813 270.408 98.5112 270.602 98.8109 270.801C98.7588 270.932 98.6962 271.138 98.628 271.268C97.813 272.859 96.1621 273.638 94.9516 273.016C93.7357 272.394 93.4147 270.597 94.2298 269.006C94.5529 268.38 94.997 267.882 95.5005 267.543C96.1369 268.509 97.0336 269.38 97.9799 270.156Z" fill="white"/>
<path d="M104.766 275.991C104.838 275.402 105.026 274.848 105.32 274.344C106.639 274.795 108.205 275.112 109.897 275.237C111.595 275.358 113.204 275.272 114.609 275.017C114.767 275.551 114.826 276.122 114.753 276.716C114.448 279.231 111.961 281.108 109.205 280.911C106.449 280.713 104.46 278.512 104.771 275.996L104.766 275.991Z" fill="#DF0059"/>
<path fill-rule="evenodd" clip-rule="evenodd" d="M108.894 275.698C108.894 275.698 108.565 276.723 108.465 277.558C108.349 278.484 108.464 279.895 108.464 279.895C108.464 279.895 108.919 278.36 109.064 277.642C109.21 276.934 108.894 275.698 108.894 275.698Z" fill="#5E1E81"/>
<path d="M100.927 246.157C100.145 244.075 100.982 241.682 102.985 240.571C104.988 239.46 107.461 240.011 108.815 241.775C107.396 241.69 105.79 242.045 104.275 242.887C102.76 243.729 101.606 244.903 100.928 246.152L100.927 246.157Z" fill="#AC3BFF"/>
<path d="M110.956 242.374C112.213 240.564 114.644 239.903 116.676 240.91C118.708 241.916 119.652 244.247 118.97 246.343C118.247 245.134 117.048 244.027 115.507 243.265C113.971 242.502 112.36 242.22 110.956 242.374Z" fill="#AC3BFF"/>
<path d="M93.9432 260.795C96.0597 261.273 98.0047 260.616 98.2973 259.325C98.5899 258.033 97.1105 256.6 94.9944 256.117C92.8779 255.639 90.9276 256.295 90.6349 257.586C90.3423 258.878 91.8217 260.311 93.9382 260.789L93.9432 260.795Z" fill="#FF10FF"/>
<path d="M125.393 262.391C123.231 262.579 121.387 261.666 121.277 260.347C121.161 259.028 122.82 257.807 124.982 257.619C127.143 257.431 128.987 258.344 129.103 259.663C129.219 260.982 127.56 262.203 125.398 262.391L125.393 262.391Z" fill="#FF10FF"/>
<path d="M136.943 280.868C132.047 288.508 120.469 293.401 107.339 292.511C94.2093 291.622 83.4021 285.218 79.5758 276.983C76.1768 278.301 73.6667 281.483 73.4043 285.356L71.4941 313.559C71.1324 318.898 75.1709 323.522 80.5132 323.883L83.324 324.074C87.9681 329.801 95.6224 333.811 104.496 334.412C113.369 335.013 121.494 332.072 126.868 327.023L129.679 327.214C135.021 327.575 139.646 323.539 140.008 318.199L141.918 289.997C142.18 286.123 140.122 282.633 136.932 280.868L136.943 280.868Z" fill="#E6A600"/>
<path d="M79.2026 278.112C79.171 278.58 78.7693 278.93 78.3017 278.899C77.8341 278.867 77.4834 278.465 77.5151 277.998L82.1106 210.15C82.1423 209.683 82.5439 209.332 83.0115 209.364L83.0298 209.333C83.4974 209.364 83.8295 209.802 83.7982 210.264L79.2026 278.112Z" fill="#471761"/>
<path d="M138.681 282.141C138.65 282.608 138.248 282.959 137.781 282.927C137.313 282.896 136.962 282.494 136.994 282.027L141.564 214.555C141.596 214.088 141.997 213.737 142.465 213.769L142.45 213.984C142.918 214.015 143.283 214.202 143.252 214.669L138.681 282.141Z" fill="#471761"/>
<path d="M89.4836 281.761C89.3553 281.423 89.174 281.071 88.9382 280.725C88.1035 279.498 86.9293 278.819 86.3144 279.209C85.8009 279.536 85.8483 280.511 86.3671 281.539C86.3041 281.513 86.2353 281.492 86.1669 281.466C84.8627 281.032 83.2971 281.11 82.6727 281.639C82.0716 282.144 82.551 282.878 83.7359 283.32C82.9782 283.587 82.3571 283.987 82.117 284.424C81.7228 285.142 82.5131 285.671 83.8833 285.607C84.2245 285.592 84.5789 285.541 84.9348 285.468C84.4197 285.978 84.0745 286.532 84.0328 286.988C83.9556 287.808 84.8946 287.974 86.1232 287.372C86.5366 287.168 86.9543 286.9 87.3366 286.596C87.4379 286.614 87.5447 286.632 87.6522 286.639C89.2366 286.763 90.6122 285.663 90.7234 284.181C90.8011 283.194 90.2954 282.291 89.4836 281.761Z" fill="#AC3BFF"/>
<path d="M136.009 281.577C135.339 281.105 133.775 281.172 132.517 281.724C132.45 281.751 132.384 281.779 132.322 281.813C132.745 280.741 132.703 279.766 132.161 279.487C131.514 279.152 130.408 279.94 129.683 281.235C129.48 281.599 129.331 281.966 129.232 282.316C128.473 282.918 128.053 283.866 128.219 284.838C128.471 286.301 129.938 287.269 131.5 287.008C131.604 286.988 131.708 286.968 131.807 286.937C132.211 287.202 132.654 287.432 133.086 287.596C134.37 288.088 135.289 287.831 135.133 287.022C135.05 286.574 134.653 286.051 134.096 285.592C134.455 285.632 134.815 285.651 135.151 285.636C136.527 285.578 137.264 284.975 136.808 284.297C136.533 283.884 135.871 283.537 135.096 283.345C136.235 282.796 136.648 282.025 135.999 281.576L136.009 281.577Z" fill="#AC3BFF"/>
<path d="M112.412 217.615C96.7721 216.556 84.0304 213.124 82.1911 209.67C81.9823 209.963 81.854 210.262 81.8326 210.579C81.5782 214.334 95.2112 218.318 112.286 219.474C129.361 220.631 143.406 218.522 143.66 214.767C143.682 214.45 143.595 214.137 143.428 213.818C141.14 216.992 128.051 218.675 112.412 217.615Z" fill="#471761"/>
<path d="M125.247 28.13C105.27 26.7769 89.1321 20.3142 86.968 13.206C86.6832 13.8235 86.5048 14.4644 86.4601 15.1251C85.9281 22.9789 103.174 30.542 124.983 32.0193C146.793 33.4965 164.901 28.328 165.433 20.4742C165.477 19.8134 165.387 19.1543 165.188 18.5041C162.085 25.2609 145.224 29.4831 125.247 28.13Z" fill="#471761"/>
<path d="M151.817 26.9129C151.209 27.0498 150.584 27.1802 149.95 27.2991C160.984 46.9293 166.913 80.002 164.409 116.977C160.468 175.156 137.136 220.952 112.3 219.27C139.366 221.103 164.499 175.429 168.44 117.25C170.967 79.9366 164.164 46.5456 151.817 26.9129Z" fill="#471761"/>
<path d="M74.4617 110.885C76.9661 73.9096 87.3059 41.9388 100.887 23.9759C100.269 23.7668 99.673 23.5591 99.0884 23.3415C84.2072 41.1353 72.9632 73.3039 70.4362 110.612C66.4956 168.791 85.2398 217.437 112.306 219.27C87.4649 217.588 70.5264 169.064 74.467 110.885L74.4617 110.885Z" fill="#471761"/>
<path d="M218.009 147.37C221.294 138.337 223.388 128.695 224.071 118.622C224.943 105.746 223.44 93.264 219.949 81.5868C192.079 91.1399 157.686 95.6155 120.85 93.1204C84.013 90.6254 50.532 81.5524 24.2053 68.3284C19.172 79.4283 15.9994 91.5933 15.1272 104.47C14.445 114.542 15.2153 124.373 17.2566 133.772C43.9427 147.668 78.3513 157.235 116.333 159.808C154.314 162.381 189.698 157.54 218.015 147.37L218.009 147.37Z" fill="#FF9A00"/>
<path d="M53.6545 92.9349C53.4411 92.8179 53.2155 92.7216 52.9772 92.6515C51.6794 92.283 50.29 92.7879 49.5396 93.9028L43.8379 102.356L34.0342 99.5497C32.7367 99.1758 31.342 99.6804 30.5858 100.8C29.8351 101.92 29.8866 103.392 30.7161 104.457L37.0017 112.492L31.3 120.946C30.5438 122.065 30.595 123.542 31.4302 124.603C31.6832 124.933 32.0001 125.197 32.3431 125.393C33.1231 125.834 34.0722 125.931 34.9468 125.612L44.5345 122.123L50.8202 130.158C51.0735 130.482 51.39 130.752 51.7385 130.948C52.5184 131.39 53.4625 131.481 54.3422 131.168C55.6097 130.709 56.4379 129.48 56.3942 128.134L56.0371 117.942L65.5419 114.479C66.2488 114.246 66.8702 113.76 67.2683 113.064C68.1019 111.598 67.6172 109.747 66.1916 108.873C66.1604 108.855 66.1239 108.836 66.0928 108.818C66.0201 108.775 65.9416 108.737 65.8736 108.706C65.701 108.624 65.5272 108.558 65.3467 108.514L55.6068 105.722L55.2493 95.5361C55.2103 94.438 54.5964 93.4574 53.6707 92.936L53.6545 92.9349Z" fill="#FFD200"/>
<path d="M122.215 100.46C121.905 100.348 121.58 100.272 121.237 100.232C119.41 100.028 117.663 101.026 116.907 102.702L111.186 115.358L97.3809 113.83C95.5533 113.63 93.7962 114.623 93.0402 116.299C92.2896 117.975 92.691 119.939 94.0485 121.181L104.321 130.533L98.5998 143.183C97.8438 144.859 98.2503 146.829 99.6081 148.065C100.025 148.45 100.508 148.731 101.014 148.916C102.157 149.334 103.459 149.244 104.56 148.611L116.634 141.739L126.906 151.091C127.323 151.47 127.806 151.756 128.317 151.942C129.461 152.354 130.757 152.264 131.858 151.642C133.458 150.736 134.284 148.898 133.915 147.103L131.105 133.502L143.073 126.681C143.968 126.208 144.692 125.41 145.064 124.388C145.847 122.234 144.771 119.856 142.658 119.006C142.611 118.987 142.563 118.973 142.516 118.954C142.411 118.914 142.3 118.88 142.194 118.851C141.944 118.785 141.694 118.736 141.442 118.714L127.729 117.191L124.924 103.596C124.618 102.129 123.575 100.957 122.21 100.466L122.215 100.46Z" fill="#FFD200"/>
<path d="M185.795 100.719C185.551 100.735 185.31 100.778 185.068 100.848C183.778 101.241 182.888 102.428 182.861 103.775L182.682 113.984L172.919 116.965C171.623 117.363 170.728 118.544 170.706 119.897C170.685 121.245 171.532 122.457 172.808 122.9L182.464 126.22L182.286 136.423C182.265 137.771 183.111 138.989 184.388 139.426C184.783 139.561 185.19 139.615 185.586 139.593C186.48 139.541 187.331 139.102 187.894 138.357L194.045 130.204L203.706 133.53C204.096 133.664 204.508 133.719 204.904 133.692C205.798 133.639 206.643 133.2 207.207 132.456C208.019 131.377 208.044 129.895 207.271 128.79L201.413 120.428L207.506 112.341C207.972 111.757 208.227 111.014 208.179 110.212C208.077 108.527 206.663 107.238 204.987 107.276C204.95 107.273 204.911 107.281 204.874 107.279C204.792 107.284 204.705 107.294 204.623 107.305C204.438 107.33 204.252 107.372 204.08 107.43L194.383 110.394L188.529 102.033C187.894 101.132 186.847 100.645 185.785 100.708L185.795 100.719Z" fill="#FFD200"/>
<path d="M85.3059 210.717C85.2098 212.136 83.9818 213.207 82.5629 213.111C81.1441 213.015 80.0718 211.788 80.1679 210.369C80.2639 208.951 81.4919 207.879 82.9108 207.976C84.3297 208.072 85.4019 209.299 85.3059 210.717Z" fill="#471761"/>
<path d="M105.526 217.003C105.435 218.352 104.27 219.368 102.921 219.277C101.572 219.185 100.555 218.021 100.646 216.673C100.738 215.324 101.903 214.308 103.252 214.399C104.601 214.49 105.618 215.655 105.526 217.003Z" fill="#471761"/>
<path d="M124.262 218.272C124.166 219.69 122.938 220.762 121.519 220.666C120.1 220.57 119.028 219.342 119.124 217.924C119.22 216.506 120.448 215.434 121.867 215.53C123.286 215.627 124.358 216.854 124.262 218.272Z" fill="#471761"/>
<path d="M156.607 29.6875C156.446 32.0619 154.392 33.8547 152.016 33.6938C149.641 33.5329 147.847 31.4794 148.008 29.105C148.169 26.7306 150.223 24.9378 152.598 25.0987C154.974 25.2596 156.768 27.313 156.607 29.6875Z" fill="#471761"/>
<path d="M101.88 26.1966C101.72 28.571 99.6652 30.3638 97.2897 30.2029C94.9141 30.042 93.1204 27.9885 93.2812 25.6141C93.442 23.2397 95.4963 21.4469 97.8718 21.6078C100.247 21.7687 102.041 23.8221 101.88 26.1966Z" fill="#471761"/>
<path d="M167.519 20.826C167.416 22.3517 166.096 23.5089 164.564 23.4051C163.038 23.3017 161.88 21.9767 161.984 20.4511C162.087 18.9254 163.407 17.7682 164.939 17.872C166.465 17.9754 167.623 19.3004 167.519 20.826Z" fill="#471761"/>
<path d="M89.4118 16.1778C89.3085 17.7034 87.9883 18.8606 86.4566 18.7569C84.9302 18.6535 83.7728 17.3285 83.8761 15.8028C83.9794 14.2772 85.2996 13.12 86.8313 13.2237C88.3577 13.3271 89.5151 14.6521 89.4118 16.1778Z" fill="#471761"/>
<path d="M144.57 214.732C144.479 216.08 143.314 217.096 141.965 217.005C140.616 216.914 139.599 215.749 139.69 214.401C139.782 213.053 140.946 212.036 142.295 212.127C143.644 212.219 144.662 213.383 144.57 214.732Z" fill="#471761"/>
<g opacity="0.4">
<path d="M74.4617 110.885C75.0239 102.585 75.9846 94.5391 77.2829 86.8505C76.0064 86.5644 74.7361 86.2679 73.4716 85.9664C72.0474 93.8407 71.008 102.092 70.4305 110.617C69.4088 125.702 69.9153 140.145 71.6969 153.298C72.9411 153.582 74.1963 153.862 75.4577 154.131C73.8367 140.837 73.4301 126.195 74.4671 110.885L74.4617 110.885Z" fill="#FF4B00"/>
<path d="M164.409 116.977C163.372 132.287 160.99 146.735 157.596 159.694C158.882 159.598 160.158 159.49 161.434 159.377C164.974 146.584 167.423 132.34 168.445 117.256C169.022 108.731 169.11 100.42 168.756 92.4202C167.462 92.5485 166.163 92.671 164.86 92.7824C165.109 100.581 164.976 108.678 164.414 116.978L164.409 116.977Z" fill="#FF4B00"/>
<path d="M212.025 119.425C211.262 130.701 208.935 141.45 205.317 151.432C206.803 151.009 208.274 150.58 209.73 150.128C213.15 140.602 215.337 130.389 216.062 119.699C216.904 107.263 215.696 95.2003 212.758 83.8897C211.606 84.238 210.444 84.5749 209.272 84.9056C211.831 95.8343 212.841 107.457 212.031 119.426L212.025 119.425Z" fill="#FF4B00"/>
<path d="M26.9499 106.89C27.7606 94.9209 30.3293 83.5407 34.3383 73.0568C33.2212 72.571 32.1152 72.0806 31.0207 71.5801C26.5846 82.3912 23.7614 94.1805 22.9191 106.617C22.195 117.307 22.9851 127.722 25.0897 137.621C26.4718 138.26 27.8708 138.889 29.2866 139.509C27.0467 129.136 26.1912 118.171 26.9553 106.89L26.9499 106.89Z" fill="#FF4B00"/>
</g>
<g opacity="0.3">
<path d="M98.2527 308.685C98.5241 304.677 98.9875 300.785 99.617 297.072C99.0001 296.933 98.3835 296.789 97.7724 296.645C97.0826 300.451 96.5805 304.438 96.3014 308.558C95.8076 315.848 96.053 322.826 96.9129 329.182C97.5137 329.32 98.1202 329.453 98.7321 329.586C97.9525 323.16 97.7513 316.087 98.2523 308.69L98.2527 308.685Z" fill="#FF4B00"/>
<path d="M84.999 297.83C81.4129 296.012 78.0137 294.065 74.8361 292.037C74.4665 292.551 74.0972 293.061 73.723 293.564C76.959 295.688 80.4344 297.705 84.12 299.568C90.6399 302.87 97.1652 305.373 103.351 307.066C103.714 306.567 104.073 306.062 104.431 305.552C98.2085 303.76 91.618 301.182 84.999 297.83Z" fill="#FF4B00"/>
<path d="M113.472 304.643C109.462 304.927 105.543 305.007 101.776 304.903C101.722 305.536 101.669 306.164 101.605 306.786C105.471 306.939 109.492 306.888 113.61 306.589C120.901 306.069 127.781 304.862 133.961 303.133C134.014 302.516 134.066 301.899 134.108 301.275C127.852 302.94 120.872 304.113 113.472 304.643Z" fill="#FF4B00"/>
<path d="M85.6005 312.469C82.0145 310.65 78.615 308.709 75.4376 306.675C75.068 307.19 74.6988 307.699 74.3246 308.203C77.5605 310.327 81.036 312.343 84.7216 314.206C91.2414 317.508 97.7668 320.012 103.953 321.704C104.316 321.205 104.674 320.701 105.033 320.191C98.8101 318.399 92.2196 315.821 85.6005 312.469Z" fill="#FF4B00"/>
<path d="M114.388 318.288C110.427 318.986 106.544 319.473 102.783 319.758C102.794 320.39 102.806 321.022 102.812 321.649C106.673 321.403 110.662 320.928 114.733 320.211C121.93 318.939 128.647 317.02 134.616 314.661C134.604 314.045 134.592 313.423 134.569 312.801C128.517 315.106 121.694 316.997 114.393 318.294L114.388 318.288Z" fill="#FF4B00"/>
<path d="M113.054 309.687C112.553 317.084 111.4 324.065 109.761 330.328C110.38 330.278 110.999 330.228 111.613 330.172C113.322 323.99 114.506 317.109 115 309.819C115.279 305.699 115.319 301.681 115.148 297.816C114.523 297.882 113.899 297.937 113.269 297.991C113.391 301.761 113.326 305.674 113.054 309.682L113.054 309.687Z" fill="#FF4B00"/>
<path d="M128.225 310.342C127.856 315.79 126.732 320.986 124.98 325.805C125.696 325.6 126.411 325.395 127.112 325.178C128.762 320.578 129.82 315.642 130.17 310.474C130.577 304.463 129.995 298.638 128.572 293.172C128.016 293.34 127.454 293.507 126.887 293.663C128.122 298.943 128.611 304.557 128.219 310.342L128.225 310.342Z" fill="#FF4B00"/>
<path d="M83.1325 307.288C83.5244 301.503 84.7659 296.007 86.7018 290.941C86.1617 290.705 85.6269 290.469 85.0979 290.228C82.9516 295.452 81.5884 301.15 81.1816 307.156C80.8315 312.324 81.2144 317.353 82.2293 322.138C82.894 322.447 83.5752 322.753 84.2572 323.047C83.1712 318.036 82.7582 312.735 83.1271 307.288L83.1325 307.288Z" fill="#FF4B00"/>
</g>
</g>
<defs>
<clipPath id="clip0_172_4162">
<rect width="209.417" height="328.032" fill="white" transform="translate(22.2002 0.0495605) rotate(3.87491)"/>
</clipPath>
</defs>
</svg>
