<svg width="131" height="43" viewBox="0 0 131 43" fill="none" xmlns="http://www.w3.org/2000/svg">
<path d="M109.673 0.916016C98.3004 0.916016 89.0435 10.173 89.0435 21.5459C89.0435 32.9187 98.3004 42.1757 109.673 42.1757C121.046 42.1757 130.303 32.9187 130.303 21.5459C130.303 10.173 121.046 0.916016 109.673 0.916016Z" fill="white"/>
<path d="M109.673 39.5459C119.614 39.5459 127.673 31.487 127.673 21.5459C127.673 11.6048 119.614 3.5459 109.673 3.5459C99.7322 3.5459 91.6733 11.6048 91.6733 21.5459C91.6733 31.487 99.7322 39.5459 109.673 39.5459Z" fill="#0078FF"/>
<path d="M110.217 6.90884C110.044 6.87105 109.87 6.84838 109.689 6.85594C108.706 6.87105 107.852 7.52093 107.573 8.45797L105.419 15.5386L98.0209 15.6746C97.0386 15.6897 96.1847 16.3396 95.8975 17.2767C95.6179 18.2137 95.9655 19.2263 96.7665 19.7931L102.835 24.0324L100.681 31.113C100.394 32.0501 100.749 33.0627 101.55 33.6219C101.799 33.7957 102.071 33.9166 102.351 33.977C102.986 34.1206 103.666 33.977 104.202 33.5765L110.112 29.118L116.18 33.3574C116.429 33.5312 116.701 33.6445 116.981 33.7125C117.616 33.8561 118.288 33.7125 118.832 33.312C119.618 32.7226 119.928 31.6949 119.61 30.773L117.192 23.7754L123.049 19.3472C123.487 19.0374 123.82 18.5613 123.941 17.9945C124.205 16.8006 123.472 15.6217 122.301 15.3119C122.27 15.3119 122.248 15.2968 122.218 15.2968C122.157 15.2817 122.097 15.2741 122.044 15.2666C121.908 15.2515 121.772 15.2363 121.636 15.2439L114.283 15.3799L111.865 8.3824C111.6 7.62673 110.973 7.08264 110.217 6.91639V6.90884Z" fill="#2FBCEA"/>
<path d="M65.4741 0.916016C54.1012 0.916016 44.8442 10.173 44.8442 21.5459C44.8442 32.9187 54.1012 42.1757 65.4741 42.1757C76.847 42.1757 86.1039 32.9187 86.1039 21.5459C86.1039 10.173 76.847 0.916016 65.4741 0.916016Z" fill="white"/>
<path d="M65.4741 39.5459C75.4153 39.5459 83.4741 31.487 83.4741 21.5459C83.4741 11.6048 75.4153 3.5459 65.4741 3.5459C55.533 3.5459 47.4741 11.6048 47.4741 21.5459C47.4741 31.487 55.533 39.5459 65.4741 39.5459Z" fill="#FF91FF"/>
<path d="M65.308 15.9919C65.308 15.9919 59.3079 8.60903 54.5623 12.3572C46.537 18.6897 65.308 34.1583 65.308 34.1583C65.308 34.1583 83.2854 19.5436 75.6833 12.7803C69.8798 7.6191 65.308 15.9919 65.308 15.9919Z" fill="#FF0000"/>
<path d="M21.4414 0.916016C10.0685 0.916016 0.811523 10.173 0.811523 21.5459C0.811523 32.9187 10.0685 42.1757 21.4414 42.1757C32.8143 42.1757 42.0712 32.9187 42.0712 21.5459C42.0712 10.173 32.8143 0.916016 21.4414 0.916016Z" fill="white"/>
<path d="M21.4412 39.5459C31.3823 39.5459 39.4412 31.487 39.4412 21.5459C39.4412 11.6048 31.3823 3.5459 21.4412 3.5459C11.5 3.5459 3.44116 11.6048 3.44116 21.5459C3.44116 31.487 11.5 39.5459 21.4412 39.5459Z" fill="#FFDB00"/>
<path d="M19.2572 12.032L20.4889 22.8835C18.494 22.4981 15.9398 23.3293 13.8617 25.2639C10.9221 28.0069 10.0758 31.8684 11.9725 33.9012C13.8692 35.9339 17.7836 35.3596 20.7232 32.6165C22.9978 30.4931 23.9952 27.7047 23.4663 25.6115L22.2799 15.9993C22.2799 15.9993 24.2522 15.7953 27.5847 14.4577C30.9172 13.1202 29.4663 6.83301 29.4663 6.83301L19.2496 12.032H19.2572Z" fill="#FF8000"/>
</svg>
