<svg width="284" height="198" viewBox="0 0 284 198" fill="none" xmlns="http://www.w3.org/2000/svg">
<g clip-path="url(#clip0_2164_6421)">
<path d="M253.923 129C270.534 129 284 115.569 284 99.0008C284 82.4329 270.534 69.002 253.923 69.002C237.311 69.002 223.845 82.4329 223.845 99.0008C223.845 115.569 237.311 129 253.923 129Z" fill="#0078FF"/>
<path d="M254.435 76.357C254.166 76.2931 253.884 76.2676 253.603 76.2676C252.066 76.2931 250.722 77.3148 250.274 78.7834L246.88 89.8941L235.241 90.1112C233.705 90.1368 232.347 91.1584 231.899 92.6271C231.451 94.0957 232.002 95.6921 233.269 96.5733L242.821 103.227L239.428 114.338C238.98 115.806 239.531 117.403 240.798 118.284C241.182 118.552 241.618 118.744 242.053 118.833C243.052 119.05 244.115 118.833 244.973 118.194L254.268 111.196L263.82 117.85C264.205 118.118 264.64 118.309 265.088 118.399C266.087 118.616 267.15 118.399 267.995 117.773C269.224 116.853 269.71 115.232 269.211 113.788L265.408 102.806L274.627 95.8581C275.319 95.3728 275.831 94.6321 276.036 93.7382C276.458 91.8608 275.306 90.0091 273.462 89.5365C273.424 89.5365 273.373 89.511 273.334 89.511C273.244 89.4855 273.142 89.4727 273.052 89.4599C272.835 89.4344 272.63 89.4216 272.412 89.4344L260.85 89.6515L257.047 78.6685C256.637 77.4808 255.639 76.6252 254.448 76.357H254.435Z" fill="#2FBCEA"/>
<path d="M30.0774 129C46.6886 129 60.1547 115.569 60.1547 99.0008C60.1547 82.4329 46.6886 69.002 30.0774 69.002C13.4661 69.002 0 82.4329 0 99.0008C0 115.569 13.4661 129 30.0774 129Z" fill="#00A74E"/>
<path d="M20.7685 116.025C17.593 116.025 16.0181 114.467 16.0181 111.325V85.8852C16.0181 82.7564 17.6058 81.1855 20.7685 81.1855H32.8558C36.6202 81.1855 39.5396 82.0029 41.6011 83.6376C43.6626 85.2722 44.6998 87.4561 44.6998 90.189C44.6998 92.0025 44.2516 93.5861 43.3425 94.927C42.4334 96.2808 41.1658 97.2769 39.5524 97.941C41.4987 98.5284 43.0096 99.5246 44.0595 100.929C45.1223 102.334 45.6473 104.071 45.6473 106.14C45.6473 109.205 44.5461 111.619 42.3566 113.381C40.1542 115.143 37.158 116.025 33.3679 116.025H20.7813H20.7685ZM24.7378 95.0292H31.2296C32.8814 95.0292 34.0978 94.7355 34.866 94.1352C35.6471 93.5478 36.0312 92.641 36.0312 91.415C36.0312 90.189 35.6471 89.2951 34.866 88.7204C34.085 88.1457 32.8814 87.852 31.2296 87.852H24.7378V95.0164V95.0292ZM24.7378 109.358H32.1131C33.8033 109.358 35.0325 109.039 35.8008 108.4C36.5818 107.762 36.9659 106.791 36.9659 105.514C36.9659 104.237 36.5818 103.279 35.8008 102.653C35.0197 102.028 33.7905 101.721 32.1131 101.721H24.7378V109.384V109.358Z" fill="#BAEC16"/>
<path d="M104.688 129C121.299 129 134.766 115.569 134.766 99.0008C134.766 82.4329 121.299 69.002 104.688 69.002C88.0769 69.002 74.6108 82.4329 74.6108 99.0008C74.6108 115.569 88.0769 129 104.688 129Z" fill="#6600BC"/>
<path d="M96.7111 117.147C95.1362 117.147 94.0094 116.777 93.3052 116.049C92.6138 115.321 92.2552 114.236 92.2552 112.818C92.2552 111.822 92.4729 110.928 92.8955 110.149C93.318 109.37 93.9198 108.604 94.6625 107.85L104.048 98.0677C105.444 96.6118 106.43 95.3347 107.019 94.2492C107.608 93.1637 107.902 92.0782 107.902 91.0182C107.902 88.3107 106.174 86.957 102.704 86.957C101.846 86.957 100.924 87.072 99.9378 87.3018C98.9519 87.5317 97.9276 87.9404 96.852 88.5023C95.8917 88.9621 95.0082 89.1025 94.2271 88.8982C93.446 88.7066 92.793 88.298 92.2937 87.6977C91.7943 87.0975 91.4742 86.3951 91.3589 85.6161C91.2309 84.8371 91.3589 84.058 91.7047 83.2918C92.0632 82.5255 92.7034 81.887 93.6381 81.3889C95.2771 80.5333 96.9928 79.8947 98.7598 79.4861C100.527 79.0774 102.307 78.873 104.099 78.873C108.466 78.873 111.795 79.8181 114.099 81.7082C116.404 83.5983 117.557 86.3313 117.557 89.8943C117.557 92.1803 117.044 94.3514 116.007 96.4203C114.97 98.4891 113.242 100.711 110.809 103.099L104.701 109.191H115.367C118.082 109.191 119.439 110.507 119.439 113.15C119.439 115.794 118.082 117.16 115.367 117.16H96.7111V117.147Z" fill="#E83593"/>
<path d="M179.312 129C195.923 129 209.389 115.569 209.389 99.0008C209.389 82.4329 195.923 69.002 179.312 69.002C162.7 69.002 149.234 82.4329 149.234 99.0008C149.234 115.569 162.7 129 179.312 129Z" fill="#FFBC00"/>
<path d="M194.856 83.7637H163.191V115.346H194.856V83.7637Z" fill="#FF0000"/>
<path d="M253.923 197.988C270.534 197.988 284 184.557 284 167.989C284 151.421 270.534 137.99 253.923 137.99C237.311 137.99 223.845 151.421 223.845 167.989C223.845 184.557 237.311 197.988 253.923 197.988Z" fill="#FF91FF"/>
<path d="M253.666 159.266C253.666 159.266 244.23 147.683 236.765 153.558C224.14 163.506 253.666 187.771 253.666 187.771C253.666 187.771 281.951 164.834 269.992 154.222C260.862 146.125 253.666 159.266 253.666 159.266Z" fill="#FF0000"/>
<path d="M30.0774 197.988C46.6886 197.988 60.1547 184.557 60.1547 167.989C60.1547 151.421 46.6886 137.99 30.0774 137.99C13.4661 137.99 0 151.421 0 167.989C0 184.557 13.4661 197.988 30.0774 197.988Z" fill="#FF8000"/>
<path d="M30.8584 185.127C26.9915 185.127 23.6752 184.386 20.8967 182.904C18.1181 181.423 16.0054 179.329 14.5329 176.634C13.0604 173.939 12.3306 170.772 12.3306 167.145C12.3306 163.518 13.0604 160.364 14.5329 157.682C16.0054 155 18.1181 152.918 20.8967 151.437C23.6752 149.956 26.9915 149.215 30.8584 149.215C32.3821 149.215 33.9571 149.394 35.5832 149.738C37.2222 150.083 38.6563 150.607 39.9239 151.297C40.8458 151.795 41.486 152.42 41.8573 153.174C42.2159 153.927 42.3567 154.706 42.2543 155.498C42.1518 156.29 41.8701 156.992 41.3836 157.618C40.9098 158.244 40.308 158.665 39.5782 158.882C38.8483 159.1 38.0545 158.985 37.1966 158.563C35.2503 157.605 33.2528 157.133 31.2041 157.133C28.1311 157.133 25.8263 158.001 24.2642 159.725C22.7149 161.449 21.9338 163.927 21.9338 167.158C21.9338 170.389 22.7149 172.918 24.2642 174.642C25.8135 176.366 28.1311 177.234 31.2041 177.234C32.062 177.234 32.9839 177.132 33.9827 176.915C34.9686 176.698 35.9417 176.366 36.9021 175.906C37.888 175.485 38.7715 175.357 39.5526 175.561C40.3336 175.753 40.961 176.149 41.4604 176.749C41.9598 177.336 42.2671 178.026 42.3823 178.805C42.4976 179.584 42.3823 180.35 42.0622 181.104C41.7293 181.857 41.1147 182.47 40.2312 182.93C39.0788 183.62 37.6447 184.169 35.9417 184.565C34.2388 184.961 32.5486 185.152 30.8584 185.152V185.127Z" fill="#FFDB00"/>
<path d="M104.688 197.988C121.299 197.988 134.766 184.557 134.766 167.989C134.766 151.421 121.299 137.99 104.688 137.99C88.0769 137.99 74.6108 151.421 74.6108 167.989C74.6108 184.557 88.0769 197.988 104.688 197.988Z" fill="#2FBCEA"/>
<path d="M103.728 186.723C101.871 186.723 100.04 186.545 98.2348 186.187C96.4294 185.829 94.8673 185.331 93.5484 184.693C92.4344 184.156 91.6534 183.492 91.1924 182.713C90.7315 181.934 90.5266 181.13 90.6034 180.312C90.6803 179.495 90.9747 178.767 91.4869 178.116C91.9991 177.477 92.6905 177.043 93.5228 176.8C94.3679 176.57 95.3154 176.685 96.391 177.145C97.7098 177.72 98.9262 178.103 100.04 178.32C101.141 178.537 102.255 178.639 103.369 178.639C107.236 178.639 109.157 177.324 109.157 174.68C109.157 172.254 107.441 171.041 104.01 171.041H101.116C99.7585 171.041 98.7214 170.709 98.0043 170.019C97.2873 169.342 96.9288 168.384 96.9288 167.133C96.9288 165.881 97.2873 164.923 98.0043 164.247C98.7214 163.57 99.7585 163.225 101.116 163.225H103.049C104.586 163.225 105.789 162.906 106.673 162.267C107.544 161.629 107.992 160.696 107.992 159.483C107.992 157.095 106.327 155.894 103.011 155.894C102.012 155.894 100.988 155.997 99.9506 156.214C98.9134 156.431 97.7995 156.801 96.6215 157.337C95.6867 157.733 94.8417 157.823 94.0734 157.606C93.3051 157.389 92.6649 156.98 92.1656 156.38C91.6662 155.779 91.3589 155.064 91.2564 154.272C91.154 153.468 91.2949 152.702 91.6918 151.974C92.0887 151.246 92.7674 150.633 93.7277 150.135C96.8007 148.602 100.219 147.836 103.971 147.836C108.184 147.836 111.474 148.755 113.843 150.594C116.199 152.433 117.377 154.975 117.377 158.219C117.377 160.147 116.891 161.833 115.93 163.301C114.97 164.757 113.626 165.83 111.91 166.507C114.023 167.12 115.649 168.218 116.814 169.827C117.979 171.437 118.555 173.378 118.555 175.651C118.555 179.074 117.236 181.768 114.612 183.748C111.987 185.727 108.363 186.711 103.753 186.711L103.728 186.723Z" fill="#0078FF"/>
<path d="M179.312 197.988C195.923 197.988 209.389 184.557 209.389 167.989C209.389 151.421 195.923 137.99 179.312 137.99C162.7 137.99 149.234 151.421 149.234 167.989C149.234 184.557 162.7 197.988 179.312 197.988Z" fill="#002C8C"/>
<path d="M179.312 146.111L158.838 181.487H199.786L179.312 146.111Z" fill="#2FBCEA"/>
<path d="M30.0774 59.9977C46.6886 59.9977 60.1547 46.5667 60.1547 29.9988C60.1547 13.4309 46.6886 0 30.0774 0C13.4661 0 0 13.4309 0 29.9988C0 46.5667 13.4661 59.9977 30.0774 59.9977Z" fill="#A120DE"/>
<path d="M15.5701 45.605C14.0208 45.605 12.8812 45.0814 12.1514 44.0215C11.4215 42.9615 11.4215 41.6461 12.1514 40.0752L24.482 13.5884C25.071 12.2985 25.8008 11.3663 26.6587 10.766C27.5166 10.1786 28.5281 9.87207 29.6805 9.87207C30.8329 9.87207 31.7932 10.1658 32.6511 10.766C33.509 11.3535 34.2389 12.2985 34.8279 13.5884L47.1584 40.0752C47.9139 41.6844 47.9523 43.0126 47.2609 44.047C46.5694 45.0814 45.4811 45.605 43.9958 45.605C42.6769 45.605 41.6526 45.3113 40.9483 44.7111C40.2441 44.1236 39.6039 43.1658 39.0405 41.8504L37.4527 38.0958H21.8443L20.2565 41.8504C19.6675 43.1658 19.0529 44.1236 18.4255 44.7111C17.7981 45.2985 16.8378 45.605 15.5573 45.605H15.5701ZM29.5909 19.8078L24.8405 31.1228H34.4565L29.7061 19.8078H29.6037H29.5909Z" fill="#C98EFF"/>
<path d="M104.419 59.9977C121.031 59.9977 134.497 46.5667 134.497 29.9988C134.497 13.4309 121.031 0 104.419 0C87.8081 0 74.342 13.4309 74.342 29.9988C74.342 46.5667 87.8081 59.9977 104.419 59.9977Z" fill="#FF0000"/>
<path d="M94.8418 47.6352C92.1273 47.6352 90.77 46.2942 90.77 43.6251C90.77 40.956 92.1273 39.6661 94.8418 39.6661H99.669V20.5736L96.4039 22.5531C95.4692 23.1278 94.5985 23.3449 93.779 23.2172C92.9595 23.0895 92.2553 22.7447 91.6919 22.17C91.1157 21.5953 90.7444 20.9057 90.5651 20.0884C90.3859 19.271 90.4627 18.4537 90.7828 17.6236C91.1029 16.8062 91.7431 16.1038 92.7163 15.5419L100.117 10.9444C101.731 9.94826 103.421 9.4502 105.213 9.4502C106.571 9.4502 107.62 9.79501 108.376 10.4974C109.131 11.187 109.503 12.1959 109.503 13.5241V39.6789H113.792C116.507 39.6789 117.864 40.9943 117.864 43.6379C117.864 46.2815 116.507 47.648 113.792 47.648H94.8674L94.8418 47.6352Z" fill="#FFBC00"/>
<path d="M178.749 59.9977C195.36 59.9977 208.826 46.5667 208.826 29.9988C208.826 13.4309 195.36 0 178.749 0C162.137 0 148.671 13.4309 148.671 29.9988C148.671 46.5667 162.137 59.9977 178.749 59.9977Z" fill="#98CE16"/>
<path d="M178.748 49.0527C189.299 49.0527 197.852 40.5218 197.852 29.9985C197.852 19.4752 189.299 10.9443 178.748 10.9443C168.197 10.9443 159.644 19.4752 159.644 29.9985C159.644 40.5218 168.197 49.0527 178.748 49.0527Z" fill="#00A74E"/>
<path d="M253.923 59.9977C270.534 59.9977 284 46.5667 284 29.9988C284 13.4309 270.534 0 253.923 0C237.311 0 223.845 13.4309 223.845 29.9988C223.845 46.5667 237.311 59.9977 253.923 59.9977Z" fill="#FFDB00"/>
<path d="M250.453 15.0697L252.399 32.1061C249.262 31.5059 245.241 32.8085 241.976 35.848C237.354 40.1518 236.022 46.2179 239.006 49.4106C241.989 52.6034 248.148 51.6966 252.77 47.3929C256.343 44.0596 257.918 39.692 257.085 36.3971L255.229 21.3147C255.229 21.3147 258.34 20.9954 263.577 18.8882C268.827 16.7938 266.535 6.92188 266.535 6.92188L250.465 15.0825L250.453 15.0697Z" fill="#FF8000"/>
</g>
<defs>
<clipPath id="clip0_2164_6421">
<rect width="284" height="198" fill="white"/>
</clipPath>
</defs>
</svg>
