<svg width="1401" height="201" viewBox="0 0 1401 201" fill="none" xmlns="http://www.w3.org/2000/svg">
<g clip-path="url(#clip0_180_5503)">
<path d="M1144.43 200.21C1156.03 200.21 1165.43 190.808 1165.43 179.21C1165.43 167.612 1156.03 158.21 1144.43 158.21C1132.83 158.21 1123.43 167.612 1123.43 179.21C1123.43 190.808 1132.83 200.21 1144.43 200.21Z" fill="#FFBD00"/>
<path d="M1155.29 168.55H1133.18V190.66H1155.29V168.55Z" fill="#FF0000"/>
<path d="M1085.54 200.21C1097.14 200.21 1106.54 190.808 1106.54 179.21C1106.54 167.612 1097.14 158.21 1085.54 158.21C1073.94 158.21 1064.54 167.612 1064.54 179.21C1064.54 190.808 1073.94 200.21 1085.54 200.21Z" fill="#99CF16"/>
<path d="M1085.54 192.55C1092.91 192.55 1098.88 186.578 1098.88 179.21C1098.88 171.843 1092.91 165.87 1085.54 165.87C1078.17 165.87 1072.2 171.843 1072.2 179.21C1072.2 186.578 1078.17 192.55 1085.54 192.55Z" fill="#00A84E"/>
<path d="M1203.32 200.21C1214.92 200.21 1224.32 190.808 1224.32 179.21C1224.32 167.612 1214.92 158.21 1203.32 158.21C1191.72 158.21 1182.32 167.612 1182.32 179.21C1182.32 190.808 1191.72 200.21 1203.32 200.21Z" fill="#002C8D"/>
<path d="M1203.32 163.9L1189.03 188.66H1217.62L1203.32 163.9Z" fill="#2FBDEB"/>
<path d="M1262.22 200.21C1273.82 200.21 1283.22 190.808 1283.22 179.21C1283.22 167.612 1273.82 158.21 1262.22 158.21C1250.62 158.21 1241.22 167.612 1241.22 179.21C1241.22 190.808 1250.62 200.21 1262.22 200.21Z" fill="#A220DF"/>
<path d="M1252.08 190.13C1251 190.13 1250.2 189.76 1249.69 189.02C1249.18 188.28 1249.18 187.36 1249.69 186.25L1258.3 167.72C1258.71 166.82 1259.22 166.16 1259.82 165.75C1260.42 165.34 1261.12 165.13 1261.93 165.13C1262.74 165.13 1263.4 165.34 1264 165.75C1264.6 166.16 1265.11 166.82 1265.52 167.72L1274.13 186.25C1274.66 187.38 1274.68 188.31 1274.2 189.03C1273.72 189.75 1272.96 190.12 1271.92 190.12C1271 190.12 1270.29 189.91 1269.79 189.5C1269.29 189.09 1268.85 188.42 1268.46 187.49L1267.35 184.86H1256.46L1255.35 187.49C1254.94 188.41 1254.51 189.08 1254.07 189.5C1253.63 189.91 1252.96 190.12 1252.06 190.12L1252.08 190.13ZM1261.87 172.08L1258.55 180H1265.26L1261.94 172.08H1261.87Z" fill="#CA8FFF"/>
<path d="M1321.11 200.21C1332.71 200.21 1342.11 190.808 1342.11 179.21C1342.11 167.612 1332.71 158.21 1321.11 158.21C1309.51 158.21 1300.11 167.612 1300.11 179.21C1300.11 190.808 1309.51 200.21 1321.11 200.21Z" fill="#00A84E"/>
<path d="M1314.61 191.13C1312.4 191.13 1311.29 190.04 1311.29 187.84V170.03C1311.29 167.84 1312.4 166.74 1314.61 166.74H1323.05C1325.68 166.74 1327.71 167.31 1329.15 168.45C1330.59 169.59 1331.31 171.12 1331.31 173.03C1331.31 174.3 1330.99 175.4 1330.36 176.35C1329.73 177.3 1328.84 178 1327.71 178.46C1329.07 178.87 1330.12 179.57 1330.86 180.55C1331.6 181.53 1331.97 182.75 1331.97 184.2C1331.97 186.34 1331.2 188.03 1329.67 189.27C1328.14 190.5 1326.04 191.12 1323.39 191.12H1314.61V191.13ZM1317.37 176.44H1321.9C1323.05 176.44 1323.9 176.23 1324.44 175.82C1324.98 175.41 1325.25 174.77 1325.25 173.92C1325.25 173.07 1324.98 172.44 1324.44 172.04C1323.9 171.64 1323.05 171.43 1321.9 171.43H1317.37V176.44ZM1317.37 186.46H1322.52C1323.7 186.46 1324.55 186.24 1325.1 185.79C1325.64 185.34 1325.91 184.67 1325.91 183.77C1325.91 182.87 1325.64 182.2 1325.1 181.76C1324.56 181.32 1323.7 181.1 1322.52 181.1H1317.37V186.46Z" fill="#BBED16"/>
<path d="M1380 200.21C1391.6 200.21 1401 190.808 1401 179.21C1401 167.612 1391.6 158.21 1380 158.21C1368.4 158.21 1359 167.612 1359 179.21C1359 190.808 1368.4 200.21 1380 200.21Z" fill="#FF8000"/>
<path d="M1380.54 191.21C1377.84 191.21 1375.53 190.69 1373.59 189.65C1371.65 188.61 1370.17 187.15 1369.15 185.26C1368.12 183.37 1367.61 181.16 1367.61 178.62C1367.61 176.08 1368.12 173.88 1369.15 172C1370.18 170.12 1371.66 168.66 1373.59 167.63C1375.53 166.59 1377.84 166.07 1380.54 166.07C1381.6 166.07 1382.7 166.19 1383.84 166.43C1384.98 166.67 1385.99 167.03 1386.87 167.52C1387.51 167.87 1387.96 168.3 1388.22 168.83C1388.47 169.36 1388.57 169.9 1388.5 170.46C1388.43 171.01 1388.23 171.51 1387.89 171.95C1387.56 172.39 1387.13 172.68 1386.63 172.83C1386.12 172.98 1385.57 172.9 1384.97 172.61C1383.61 171.94 1382.22 171.61 1380.79 171.61C1378.65 171.61 1377.03 172.22 1375.95 173.43C1374.87 174.64 1374.32 176.38 1374.32 178.63C1374.32 180.88 1374.86 182.66 1375.95 183.87C1377.03 185.08 1378.65 185.69 1380.79 185.69C1381.39 185.69 1382.03 185.62 1382.73 185.47C1383.42 185.32 1384.1 185.08 1384.77 184.76C1385.46 184.46 1386.08 184.38 1386.62 184.52C1387.16 184.66 1387.61 184.93 1387.95 185.35C1388.3 185.76 1388.51 186.24 1388.59 186.79C1388.67 187.33 1388.59 187.87 1388.37 188.4C1388.14 188.93 1387.71 189.36 1387.09 189.68C1386.28 190.16 1385.29 190.54 1384.1 190.82C1382.91 191.1 1381.73 191.23 1380.56 191.23L1380.54 191.21Z" fill="#FFDC00"/>
<path d="M1085.54 147.47C1097.14 147.47 1106.54 138.068 1106.54 126.47C1106.54 114.872 1097.14 105.47 1085.54 105.47C1073.94 105.47 1064.54 114.872 1064.54 126.47C1064.54 138.068 1073.94 147.47 1085.54 147.47Z" fill="#FF0000"/>
<path d="M1078.86 138.82C1076.96 138.82 1076.01 137.88 1076.01 136.01C1076.01 134.14 1076.96 133.24 1078.86 133.24H1082.23V119.88L1079.95 121.27C1079.3 121.67 1078.69 121.83 1078.12 121.74C1077.55 121.65 1077.06 121.41 1076.66 121.01C1076.26 120.61 1076 120.12 1075.87 119.55C1075.74 118.98 1075.8 118.4 1076.02 117.83C1076.24 117.26 1076.69 116.77 1077.37 116.37L1082.54 113.15C1083.66 112.45 1084.85 112.1 1086.1 112.1C1087.05 112.1 1087.78 112.34 1088.31 112.83C1088.83 113.32 1089.1 114.02 1089.1 114.94V133.25H1092.09C1093.99 133.25 1094.94 134.17 1094.94 136.02C1094.94 137.87 1093.99 138.83 1092.09 138.83H1078.88L1078.86 138.82Z" fill="#FFBD00"/>
<path d="M1144.43 147.47C1156.03 147.47 1165.43 138.068 1165.43 126.47C1165.43 114.872 1156.03 105.47 1144.43 105.47C1132.83 105.47 1123.43 114.872 1123.43 126.47C1123.43 138.068 1132.83 147.47 1144.43 147.47Z" fill="#6600BD"/>
<path d="M1138.86 139.18C1137.76 139.18 1136.97 138.92 1136.48 138.41C1135.99 137.9 1135.75 137.14 1135.75 136.15C1135.75 135.45 1135.9 134.83 1136.2 134.28C1136.5 133.73 1136.91 133.19 1137.44 132.67L1143.99 125.82C1144.96 124.8 1145.66 123.91 1146.07 123.14C1146.48 122.38 1146.69 121.62 1146.69 120.88C1146.69 118.98 1145.48 118.03 1143.06 118.03C1142.46 118.03 1141.82 118.11 1141.13 118.27C1140.44 118.43 1139.73 118.71 1138.98 119.11C1138.31 119.43 1137.69 119.53 1137.15 119.39C1136.6 119.25 1136.15 118.97 1135.8 118.55C1135.45 118.13 1135.23 117.64 1135.14 117.09C1135.05 116.54 1135.14 116 1135.38 115.46C1135.63 114.92 1136.08 114.48 1136.73 114.13C1137.88 113.53 1139.07 113.09 1140.3 112.8C1141.54 112.51 1142.78 112.37 1144.02 112.37C1147.06 112.37 1149.39 113.03 1151 114.35C1152.61 115.67 1153.41 117.58 1153.41 120.08C1153.41 121.68 1153.05 123.2 1152.32 124.65C1151.6 126.1 1150.39 127.66 1148.69 129.33L1144.42 133.6H1151.87C1153.77 133.6 1154.71 134.52 1154.71 136.37C1154.71 138.22 1153.76 139.18 1151.87 139.18H1138.84H1138.86Z" fill="#E93594"/>
<path d="M1203.32 147.47C1214.92 147.47 1224.32 138.068 1224.32 126.47C1224.32 114.872 1214.92 105.47 1203.32 105.47C1191.72 105.47 1182.32 114.872 1182.32 126.47C1182.32 138.068 1191.72 147.47 1203.32 147.47Z" fill="#2FBDEB"/>
<path d="M1202.65 139.59C1201.35 139.59 1200.07 139.46 1198.81 139.22C1197.55 138.97 1196.46 138.62 1195.53 138.17C1194.76 137.8 1194.21 137.33 1193.88 136.78C1193.56 136.23 1193.42 135.67 1193.47 135.1C1193.52 134.53 1193.73 134.01 1194.09 133.57C1194.45 133.12 1194.93 132.82 1195.51 132.65C1196.1 132.49 1196.76 132.57 1197.51 132.89C1198.43 133.29 1199.28 133.56 1200.06 133.71C1200.83 133.86 1201.61 133.93 1202.38 133.93C1205.08 133.93 1206.42 133.01 1206.42 131.16C1206.42 129.46 1205.22 128.61 1202.83 128.61H1200.81C1199.86 128.61 1199.14 128.37 1198.64 127.9C1198.14 127.43 1197.89 126.75 1197.89 125.88C1197.89 125.01 1198.14 124.33 1198.64 123.86C1199.14 123.39 1199.86 123.15 1200.81 123.15H1202.16C1203.23 123.15 1204.08 122.93 1204.69 122.48C1205.3 122.03 1205.61 121.38 1205.61 120.53C1205.61 118.86 1204.45 118.02 1202.13 118.02C1201.43 118.02 1200.72 118.09 1200 118.24C1199.28 118.39 1198.5 118.65 1197.68 119.03C1197.03 119.3 1196.44 119.37 1195.9 119.22C1195.36 119.07 1194.92 118.78 1194.57 118.36C1194.22 117.94 1194.01 117.44 1193.93 116.88C1193.86 116.32 1193.95 115.78 1194.23 115.27C1194.5 114.76 1194.98 114.33 1195.65 113.98C1197.8 112.91 1200.18 112.37 1202.8 112.37C1205.74 112.37 1208.04 113.01 1209.69 114.3C1211.34 115.59 1212.16 117.36 1212.16 119.63C1212.16 120.98 1211.82 122.16 1211.15 123.19C1210.48 124.21 1209.54 124.96 1208.34 125.44C1209.81 125.86 1210.95 126.64 1211.77 127.76C1212.58 128.88 1212.99 130.24 1212.99 131.84C1212.99 134.24 1212.07 136.13 1210.24 137.51C1208.41 138.89 1205.88 139.59 1202.66 139.59H1202.65Z" fill="#0078FF"/>
<path d="M1321.11 147.47C1332.71 147.47 1342.11 138.068 1342.11 126.47C1342.11 114.872 1332.71 105.47 1321.11 105.47C1309.51 105.47 1300.11 114.872 1300.11 126.47C1300.11 138.068 1309.51 147.47 1321.11 147.47Z" fill="#FFBD00"/>
<path d="M1331.96 115.81H1309.85V137.92H1331.96V115.81Z" fill="#FF0000"/>
<path d="M1262.22 147.47C1273.82 147.47 1283.22 138.068 1283.22 126.47C1283.22 114.872 1273.82 105.47 1262.22 105.47C1250.62 105.47 1241.22 114.872 1241.22 126.47C1241.22 138.068 1250.62 147.47 1262.22 147.47Z" fill="#99CF16"/>
<path d="M1262.22 139.81C1269.59 139.81 1275.56 133.837 1275.56 126.47C1275.56 119.102 1269.59 113.13 1262.22 113.13C1254.85 113.13 1248.88 119.102 1248.88 126.47C1248.88 133.837 1254.85 139.81 1262.22 139.81Z" fill="#00A84E"/>
<path d="M1380 147.47C1391.6 147.47 1401 138.068 1401 126.47C1401 114.872 1391.6 105.47 1380 105.47C1368.4 105.47 1359 114.872 1359 126.47C1359 138.068 1368.4 147.47 1380 147.47Z" fill="#002C8D"/>
<path d="M1380 111.16L1365.7 135.92H1394.29L1380 111.16Z" fill="#2FBDEB"/>
<path d="M1203.32 94.7402C1214.92 94.7402 1224.32 85.3382 1224.32 73.7402C1224.32 62.1423 1214.92 52.7402 1203.32 52.7402C1191.72 52.7402 1182.32 62.1423 1182.32 73.7402C1182.32 85.3382 1191.72 94.7402 1203.32 94.7402Z" fill="#0078FF"/>
<path d="M1203.69 57.8901C1203.5 57.8501 1203.31 57.8301 1203.11 57.8301C1202.03 57.8501 1201.09 58.5601 1200.78 59.5901L1198.41 67.3701L1190.28 67.5201C1189.2 67.5401 1188.26 68.2501 1187.95 69.2801C1187.64 70.3101 1188.02 71.4201 1188.9 72.0401L1195.57 76.7001L1193.2 84.4801C1192.89 85.5101 1193.27 86.6201 1194.15 87.2401C1194.42 87.4301 1194.72 87.5601 1195.03 87.6301C1195.73 87.7801 1196.47 87.6301 1197.07 87.1901L1203.56 82.2901L1210.23 86.9501C1210.5 87.1401 1210.8 87.2701 1211.11 87.3401C1211.81 87.4901 1212.55 87.3401 1213.14 86.9001C1214 86.2501 1214.34 85.1201 1213.99 84.1101L1211.33 76.4201L1217.76 71.5601C1218.24 71.2201 1218.6 70.7001 1218.74 70.0801C1219.03 68.7701 1218.23 67.4701 1216.94 67.1401C1216.91 67.1401 1216.88 67.1301 1216.85 67.1201C1216.79 67.1101 1216.72 67.0901 1216.66 67.0801C1216.51 67.0601 1216.36 67.0501 1216.21 67.0601L1208.14 67.2101L1205.49 59.5301C1205.2 58.7001 1204.51 58.1001 1203.68 57.9201L1203.69 57.8901Z" fill="#2FBDEB"/>
<path d="M1144.43 94.7402C1156.03 94.7402 1165.43 85.3382 1165.43 73.7402C1165.43 62.1423 1156.03 52.7402 1144.43 52.7402C1132.83 52.7402 1123.43 62.1423 1123.43 73.7402C1123.43 85.3382 1132.83 94.7402 1144.43 94.7402Z" fill="#FF92FF"/>
<path d="M1144.25 67.6301C1144.25 67.6301 1137.66 59.5201 1132.45 63.6401C1123.63 70.6001 1144.25 87.5801 1144.25 87.5801C1144.25 87.5801 1164 71.5201 1155.65 64.1001C1149.27 58.4301 1144.25 67.6301 1144.25 67.6301Z" fill="#FF0000"/>
<path d="M1085.54 94.7402C1097.14 94.7402 1106.54 85.3382 1106.54 73.7402C1106.54 62.1423 1097.14 52.7402 1085.54 52.7402C1073.94 52.7402 1064.54 62.1423 1064.54 73.7402C1064.54 85.3382 1073.94 94.7402 1085.54 94.7402Z" fill="#FFDC00"/>
<path d="M1083.13 63.2796L1084.49 75.1996C1082.3 74.7796 1079.49 75.6896 1077.21 77.8196C1073.98 80.8296 1073.06 85.0796 1075.14 87.3096C1077.22 89.5396 1081.52 88.9096 1084.75 85.8996C1087.25 83.5696 1088.35 80.5096 1087.76 78.1996L1086.46 67.6396C1086.46 67.6396 1088.63 67.4096 1092.29 65.9396C1095.95 64.4696 1094.35 57.5596 1094.35 57.5596L1083.13 63.2696V63.2796Z" fill="#FF8000"/>
<path d="M1262.22 94.7402C1273.82 94.7402 1283.22 85.3382 1283.22 73.7402C1283.22 62.1423 1273.82 52.7402 1262.22 52.7402C1250.62 52.7402 1241.22 62.1423 1241.22 73.7402C1241.22 85.3382 1250.62 94.7402 1262.22 94.7402Z" fill="#FF0000"/>
<path d="M1255.53 86.0804C1253.63 86.0804 1252.68 85.1403 1252.68 83.2703C1252.68 81.4003 1253.63 80.5004 1255.53 80.5004H1258.9V67.1404L1256.62 68.5303C1255.97 68.9303 1255.36 69.0904 1254.79 69.0004C1254.22 68.9104 1253.73 68.6703 1253.33 68.2703C1252.93 67.8703 1252.67 67.3803 1252.54 66.8103C1252.41 66.2403 1252.47 65.6603 1252.69 65.0903C1252.91 64.5203 1253.36 64.0304 1254.04 63.6304L1259.21 60.4104C1260.33 59.7104 1261.52 59.3604 1262.77 59.3604C1263.72 59.3604 1264.45 59.6004 1264.98 60.0904C1265.5 60.5804 1265.77 61.2804 1265.77 62.2004V80.5104H1268.76C1270.66 80.5104 1271.61 81.4303 1271.61 83.2803C1271.61 85.1304 1270.66 86.0903 1268.76 86.0903H1255.55L1255.53 86.0804Z" fill="#FFBD00"/>
<path d="M1321.11 94.7402C1332.71 94.7402 1342.11 85.3382 1342.11 73.7402C1342.11 62.1423 1332.71 52.7402 1321.11 52.7402C1309.51 52.7402 1300.11 62.1423 1300.11 73.7402C1300.11 85.3382 1309.51 94.7402 1321.11 94.7402Z" fill="#6600BD"/>
<path d="M1315.53 86.4399C1314.43 86.4399 1313.64 86.1799 1313.15 85.6699C1312.66 85.1599 1312.42 84.3999 1312.42 83.4099C1312.42 82.7099 1312.57 82.0899 1312.87 81.5399C1313.17 80.9899 1313.58 80.4499 1314.11 79.9299L1320.66 73.0799C1321.63 72.0599 1322.33 71.1699 1322.74 70.3999C1323.15 69.6399 1323.36 68.8799 1323.36 68.1399C1323.36 66.2399 1322.15 65.2899 1319.73 65.2899C1319.13 65.2899 1318.49 65.3699 1317.8 65.5299C1317.11 65.6899 1316.4 65.9699 1315.65 66.3699C1314.98 66.6899 1314.36 66.7899 1313.82 66.6499C1313.27 66.5099 1312.82 66.2299 1312.47 65.8099C1312.12 65.3899 1311.9 64.8999 1311.81 64.3499C1311.72 63.7999 1311.81 63.2599 1312.05 62.7199C1312.3 62.1799 1312.75 61.7399 1313.4 61.3899C1314.55 60.7899 1315.74 60.3499 1316.97 60.0599C1318.21 59.7699 1319.45 59.6299 1320.69 59.6299C1323.73 59.6299 1326.06 60.2899 1327.67 61.6099C1329.28 62.9299 1330.08 64.8399 1330.08 67.3399C1330.08 68.9399 1329.72 70.4599 1328.99 71.9099C1328.27 73.3599 1327.06 74.9199 1325.36 76.5899L1321.09 80.8599H1328.54C1330.44 80.8599 1331.38 81.7799 1331.38 83.6299C1331.38 85.4799 1330.43 86.4399 1328.54 86.4399H1315.51H1315.53Z" fill="#E93594"/>
<path d="M1380 94.7402C1391.6 94.7402 1401 85.3382 1401 73.7402C1401 62.1423 1391.6 52.7402 1380 52.7402C1368.4 52.7402 1359 62.1423 1359 73.7402C1359 85.3382 1368.4 94.7402 1380 94.7402Z" fill="#2FBDEB"/>
<path d="M1379.32 86.8499C1378.02 86.8499 1376.74 86.7199 1375.48 86.4799C1374.22 86.2299 1373.13 85.8799 1372.2 85.4299C1371.43 85.0599 1370.88 84.5899 1370.55 84.0399C1370.23 83.4899 1370.09 82.9299 1370.14 82.3599C1370.19 81.7899 1370.4 81.2699 1370.76 80.8299C1371.12 80.3799 1371.6 80.0799 1372.18 79.9099C1372.77 79.7499 1373.43 79.8299 1374.18 80.1499C1375.1 80.5499 1375.95 80.8199 1376.73 80.9699C1377.5 81.1199 1378.28 81.1899 1379.05 81.1899C1381.75 81.1899 1383.09 80.2699 1383.09 78.4199C1383.09 76.7199 1381.89 75.8699 1379.5 75.8699H1377.48C1376.53 75.8699 1375.81 75.6299 1375.31 75.1599C1374.81 74.6899 1374.56 74.0099 1374.56 73.1399C1374.56 72.2699 1374.81 71.5899 1375.31 71.1199C1375.81 70.6499 1376.53 70.4099 1377.48 70.4099H1378.83C1379.9 70.4099 1380.75 70.1899 1381.36 69.7399C1381.97 69.2899 1382.28 68.6399 1382.28 67.7899C1382.28 66.1199 1381.12 65.2799 1378.8 65.2799C1378.1 65.2799 1377.39 65.3499 1376.67 65.4999C1375.95 65.6499 1375.17 65.9099 1374.35 66.2899C1373.7 66.5599 1373.11 66.6299 1372.57 66.4799C1372.03 66.3299 1371.59 66.0399 1371.24 65.6199C1370.89 65.1999 1370.68 64.6999 1370.6 64.1399C1370.53 63.5799 1370.62 63.0399 1370.9 62.5299C1371.17 62.0199 1371.65 61.5899 1372.32 61.2399C1374.47 60.1699 1376.85 59.6299 1379.47 59.6299C1382.41 59.6299 1384.71 60.2699 1386.36 61.5599C1388.01 62.8499 1388.83 64.6199 1388.83 66.8899C1388.83 68.2399 1388.49 69.4199 1387.82 70.4499C1387.15 71.4699 1386.21 72.2199 1385.01 72.6999C1386.48 73.1199 1387.62 73.8999 1388.44 75.0199C1389.25 76.1399 1389.66 77.4999 1389.66 79.0999C1389.66 81.4999 1388.74 83.3899 1386.91 84.7699C1385.08 86.1599 1382.55 86.8499 1379.33 86.8499H1379.32Z" fill="#0078FF"/>
<path d="M1084.22 42C1095.82 42 1105.22 32.598 1105.22 21C1105.22 9.40202 1095.82 0 1084.22 0C1072.62 0 1063.22 9.40202 1063.22 21C1063.22 32.598 1072.62 42 1084.22 42Z" fill="#A220DF"/>
<path d="M1074.08 31.9199C1073 31.9199 1072.2 31.5499 1071.69 30.8099C1071.18 30.0699 1071.18 29.1499 1071.69 28.0399L1080.3 9.50992C1080.71 8.60992 1081.22 7.94992 1081.82 7.53992C1082.42 7.12992 1083.12 6.91992 1083.93 6.91992C1084.74 6.91992 1085.4 7.12992 1086 7.53992C1086.6 7.94992 1087.11 8.60992 1087.52 9.50992L1096.13 28.0399C1096.66 29.1699 1096.68 30.0999 1096.2 30.8199C1095.72 31.5399 1094.96 31.9099 1093.92 31.9099C1093 31.9099 1092.29 31.6999 1091.79 31.2899C1091.29 30.8799 1090.85 30.2099 1090.46 29.2799L1089.35 26.6499H1078.46L1077.35 29.2799C1076.94 30.1999 1076.51 30.8699 1076.07 31.2899C1075.63 31.6999 1074.96 31.9099 1074.06 31.9099L1074.08 31.9199ZM1083.87 13.8699L1080.55 21.7899H1087.26L1083.94 13.8699H1083.87Z" fill="#CA8FFF"/>
<path d="M1143.11 42C1154.71 42 1164.11 32.598 1164.11 21C1164.11 9.40202 1154.71 0 1143.11 0C1131.51 0 1122.11 9.40202 1122.11 21C1122.11 32.598 1131.51 42 1143.11 42Z" fill="#00A84E"/>
<path d="M1136.61 32.92C1134.4 32.92 1133.29 31.83 1133.29 29.63V11.83C1133.29 9.64004 1134.4 8.54004 1136.61 8.54004H1145.05C1147.68 8.54004 1149.71 9.11004 1151.15 10.25C1152.59 11.39 1153.31 12.92 1153.31 14.83C1153.31 16.1 1152.99 17.2 1152.36 18.15C1151.73 19.1 1150.84 19.8 1149.71 20.26C1151.07 20.67 1152.12 21.37 1152.86 22.35C1153.6 23.33 1153.97 24.55 1153.97 26C1153.97 28.14 1153.2 29.83 1151.67 31.07C1150.14 32.3 1148.04 32.92 1145.39 32.92H1136.61ZM1139.37 18.23H1143.9C1145.05 18.23 1145.9 18.02 1146.44 17.61C1146.98 17.2 1147.25 16.56 1147.25 15.71C1147.25 14.86 1146.98 14.23 1146.44 13.83C1145.9 13.43 1145.05 13.22 1143.9 13.22H1139.37V18.23ZM1139.37 28.25H1144.52C1145.7 28.25 1146.55 28.03 1147.1 27.58C1147.64 27.13 1147.91 26.46 1147.91 25.56C1147.91 24.66 1147.64 23.99 1147.1 23.55C1146.56 23.11 1145.7 22.89 1144.52 22.89H1139.37V28.25Z" fill="#BBED16"/>
<path d="M1202 42C1213.6 42 1223 32.598 1223 21C1223 9.40202 1213.6 0 1202 0C1190.4 0 1181 9.40202 1181 21C1181 32.598 1190.4 42 1202 42Z" fill="#FF8000"/>
<path d="M1202.54 33.0004C1199.84 33.0004 1197.53 32.4804 1195.59 31.4404C1193.65 30.4004 1192.17 28.9403 1191.15 27.0504C1190.12 25.1604 1189.61 22.9504 1189.61 20.4104C1189.61 17.8704 1190.12 15.6704 1191.15 13.7904C1192.18 11.9104 1193.66 10.4504 1195.59 9.42035C1197.53 8.38035 1199.84 7.86035 1202.54 7.86035C1203.6 7.86035 1204.7 7.98035 1205.84 8.22035C1206.98 8.46035 1207.99 8.82035 1208.87 9.31035C1209.51 9.66035 1209.96 10.0904 1210.22 10.6204C1210.47 11.1504 1210.57 11.6904 1210.5 12.2504C1210.43 12.8004 1210.23 13.3004 1209.89 13.7404C1209.56 14.1804 1209.13 14.4704 1208.63 14.6204C1208.12 14.7704 1207.57 14.6904 1206.97 14.4004C1205.61 13.7304 1204.22 13.4004 1202.79 13.4004C1200.65 13.4004 1199.03 14.0104 1197.95 15.2204C1196.87 16.4304 1196.32 18.1704 1196.32 20.4204C1196.32 22.6704 1196.86 24.4504 1197.95 25.6604C1199.03 26.8703 1200.65 27.4804 1202.79 27.4804C1203.39 27.4804 1204.03 27.4104 1204.73 27.2604C1205.42 27.1104 1206.1 26.8703 1206.77 26.5504C1207.46 26.2504 1208.08 26.1704 1208.62 26.3104C1209.16 26.4503 1209.61 26.7204 1209.95 27.1404C1210.3 27.5504 1210.51 28.0304 1210.59 28.5804C1210.67 29.1204 1210.59 29.6604 1210.37 30.1904C1210.14 30.7204 1209.71 31.1504 1209.09 31.4704C1208.28 31.9503 1207.29 32.3304 1206.1 32.6104C1204.91 32.8904 1203.73 33.0204 1202.56 33.0204L1202.54 33.0004Z" fill="#FFDC00"/>
<path d="M1378.67 42C1390.27 42 1399.67 32.598 1399.67 21C1399.67 9.40202 1390.27 0 1378.67 0C1367.07 0 1357.67 9.40202 1357.67 21C1357.67 32.598 1367.07 42 1378.67 42Z" fill="#0078FF"/>
<path d="M1379.03 5.15961C1378.84 5.11961 1378.65 5.09961 1378.45 5.09961C1377.37 5.11961 1376.43 5.82961 1376.12 6.85961L1373.75 14.6396L1365.62 14.7896C1364.54 14.8096 1363.6 15.5196 1363.29 16.5496C1362.98 17.5796 1363.36 18.6896 1364.24 19.3096L1370.91 23.9696L1368.54 31.7496C1368.23 32.7796 1368.61 33.8896 1369.49 34.5096C1369.76 34.6996 1370.06 34.8296 1370.37 34.8996C1371.07 35.0496 1371.81 34.8996 1372.41 34.4596L1378.9 29.5596L1385.57 34.2196C1385.84 34.4096 1386.14 34.5396 1386.45 34.6096C1387.15 34.7596 1387.89 34.6096 1388.48 34.1696C1389.34 33.5196 1389.68 32.3896 1389.33 31.3796L1386.67 23.6896L1393.1 18.8296C1393.58 18.4896 1393.94 17.9696 1394.08 17.3496C1394.37 16.0396 1393.57 14.7396 1392.28 14.4096C1392.25 14.4096 1392.22 14.3996 1392.19 14.3896C1392.13 14.3796 1392.06 14.3596 1392 14.3496C1391.85 14.3296 1391.7 14.3196 1391.55 14.3296L1383.48 14.4796L1380.83 6.79961C1380.54 5.96961 1379.85 5.36961 1379.02 5.18961L1379.03 5.15961Z" fill="#2FBDEB"/>
<path d="M1319.78 42C1331.38 42 1340.78 32.598 1340.78 21C1340.78 9.40202 1331.38 0 1319.78 0C1308.18 0 1298.78 9.40202 1298.78 21C1298.78 32.598 1308.18 42 1319.78 42Z" fill="#FF92FF"/>
<path d="M1319.6 14.8898C1319.6 14.8898 1313.01 6.77982 1307.8 10.8998C1298.98 17.8598 1319.6 34.8398 1319.6 34.8398C1319.6 34.8398 1339.35 18.7798 1331 11.3598C1324.62 5.68982 1319.6 14.8898 1319.6 14.8898Z" fill="#FF0000"/>
<path d="M1260.89 42C1272.49 42 1281.89 32.598 1281.89 21C1281.89 9.40202 1272.49 0 1260.89 0C1249.29 0 1239.89 9.40202 1239.89 21C1239.89 32.598 1249.29 42 1260.89 42Z" fill="#FFDC00"/>
<path d="M1258.48 10.5501L1259.84 22.4701C1257.65 22.0501 1254.84 22.9601 1252.56 25.0901C1249.33 28.1001 1248.41 32.3501 1250.49 34.5801C1252.57 36.8101 1256.87 36.1801 1260.1 33.1701C1262.6 30.8401 1263.7 27.7801 1263.11 25.4701L1261.81 14.9101C1261.81 14.9101 1263.98 14.6801 1267.64 13.2101C1271.3 11.7401 1269.7 4.83008 1269.7 4.83008L1258.48 10.5401V10.5501Z" fill="#FF8000"/>
<path d="M789.49 200.21C801.088 200.21 810.49 190.808 810.49 179.21C810.49 167.612 801.088 158.21 789.49 158.21C777.892 158.21 768.49 167.612 768.49 179.21C768.49 190.808 777.892 200.21 789.49 200.21Z" fill="#FFBD00"/>
<path d="M800.35 168.55H778.24V190.66H800.35V168.55Z" fill="#FF0000"/>
<path d="M730.6 200.21C742.198 200.21 751.6 190.808 751.6 179.21C751.6 167.612 742.198 158.21 730.6 158.21C719.002 158.21 709.6 167.612 709.6 179.21C709.6 190.808 719.002 200.21 730.6 200.21Z" fill="#99CF16"/>
<path d="M730.6 192.55C737.968 192.55 743.94 186.578 743.94 179.21C743.94 171.843 737.968 165.87 730.6 165.87C723.233 165.87 717.26 171.843 717.26 179.21C717.26 186.578 723.233 192.55 730.6 192.55Z" fill="#00A84E"/>
<path d="M848.38 200.21C859.978 200.21 869.38 190.808 869.38 179.21C869.38 167.612 859.978 158.21 848.38 158.21C836.782 158.21 827.38 167.612 827.38 179.21C827.38 190.808 836.782 200.21 848.38 200.21Z" fill="#002C8D"/>
<path d="M848.38 163.9L834.09 188.66H862.67L848.38 163.9Z" fill="#2FBDEB"/>
<path d="M907.27 200.21C918.868 200.21 928.27 190.808 928.27 179.21C928.27 167.612 918.868 158.21 907.27 158.21C895.672 158.21 886.27 167.612 886.27 179.21C886.27 190.808 895.672 200.21 907.27 200.21Z" fill="#A220DF"/>
<path d="M897.14 190.13C896.06 190.13 895.26 189.76 894.75 189.02C894.24 188.28 894.24 187.36 894.75 186.25L903.36 167.72C903.77 166.82 904.28 166.16 904.88 165.75C905.48 165.34 906.18 165.13 906.99 165.13C907.8 165.13 908.46 165.34 909.06 165.75C909.66 166.16 910.17 166.82 910.58 167.72L919.19 186.25C919.72 187.38 919.74 188.31 919.26 189.03C918.78 189.75 918.02 190.12 916.98 190.12C916.06 190.12 915.35 189.91 914.85 189.5C914.35 189.09 913.91 188.42 913.52 187.49L912.41 184.86H901.52L900.41 187.49C900 188.41 899.57 189.08 899.13 189.5C898.69 189.91 898.02 190.12 897.12 190.12L897.14 190.13ZM906.92 172.08L903.6 180H910.31L906.99 172.08H906.92Z" fill="#CA8FFF"/>
<path d="M966.16 200.21C977.758 200.21 987.16 190.808 987.16 179.21C987.16 167.612 977.758 158.21 966.16 158.21C954.562 158.21 945.16 167.612 945.16 179.21C945.16 190.808 954.562 200.21 966.16 200.21Z" fill="#00A84E"/>
<path d="M959.66 191.13C957.45 191.13 956.34 190.04 956.34 187.84V170.03C956.34 167.84 957.45 166.74 959.66 166.74H968.1C970.73 166.74 972.76 167.31 974.2 168.45C975.64 169.59 976.36 171.12 976.36 173.03C976.36 174.3 976.04 175.4 975.41 176.35C974.78 177.3 973.89 178 972.76 178.46C974.12 178.87 975.17 179.57 975.91 180.55C976.65 181.53 977.02 182.75 977.02 184.2C977.02 186.34 976.25 188.03 974.72 189.27C973.19 190.5 971.09 191.12 968.44 191.12H959.66V191.13ZM962.43 176.44H966.96C968.11 176.44 968.96 176.23 969.5 175.82C970.04 175.41 970.31 174.77 970.31 173.92C970.31 173.07 970.04 172.44 969.5 172.04C968.96 171.64 968.11 171.43 966.96 171.43H962.43V176.44ZM962.43 186.46H967.58C968.76 186.46 969.61 186.24 970.16 185.79C970.7 185.34 970.97 184.67 970.97 183.77C970.97 182.87 970.7 182.2 970.16 181.76C969.62 181.32 968.76 181.1 967.58 181.1H962.43V186.46Z" fill="#BBED16"/>
<path d="M1025.05 200.21C1036.65 200.21 1046.05 190.808 1046.05 179.21C1046.05 167.612 1036.65 158.21 1025.05 158.21C1013.45 158.21 1004.05 167.612 1004.05 179.21C1004.05 190.808 1013.45 200.21 1025.05 200.21Z" fill="#FF8000"/>
<path d="M1025.6 191.21C1022.9 191.21 1020.59 190.69 1018.65 189.65C1016.71 188.61 1015.23 187.15 1014.21 185.26C1013.18 183.37 1012.67 181.16 1012.67 178.62C1012.67 176.08 1013.18 173.88 1014.21 172C1015.24 170.12 1016.72 168.66 1018.65 167.63C1020.59 166.59 1022.9 166.07 1025.6 166.07C1026.66 166.07 1027.76 166.19 1028.9 166.43C1030.04 166.67 1031.05 167.03 1031.93 167.52C1032.57 167.87 1033.02 168.3 1033.28 168.83C1033.53 169.36 1033.63 169.9 1033.56 170.46C1033.49 171.01 1033.29 171.51 1032.95 171.95C1032.62 172.39 1032.19 172.68 1031.69 172.83C1031.18 172.98 1030.63 172.9 1030.03 172.61C1028.67 171.94 1027.28 171.61 1025.85 171.61C1023.71 171.61 1022.09 172.22 1021.01 173.43C1019.93 174.64 1019.38 176.38 1019.38 178.63C1019.38 180.88 1019.92 182.66 1021.01 183.87C1022.09 185.08 1023.71 185.69 1025.85 185.69C1026.45 185.69 1027.09 185.62 1027.79 185.47C1028.48 185.32 1029.16 185.08 1029.83 184.76C1030.52 184.46 1031.14 184.38 1031.68 184.52C1032.22 184.66 1032.67 184.93 1033.01 185.35C1033.36 185.76 1033.57 186.24 1033.65 186.79C1033.73 187.33 1033.65 187.87 1033.43 188.4C1033.2 188.93 1032.77 189.36 1032.15 189.68C1031.34 190.16 1030.35 190.54 1029.16 190.82C1027.97 191.1 1026.79 191.23 1025.62 191.23L1025.6 191.21Z" fill="#FFDC00"/>
<path d="M730.6 147.47C742.198 147.47 751.6 138.068 751.6 126.47C751.6 114.872 742.198 105.47 730.6 105.47C719.002 105.47 709.6 114.872 709.6 126.47C709.6 138.068 719.002 147.47 730.6 147.47Z" fill="#FF0000"/>
<path d="M723.91 138.82C722.01 138.82 721.06 137.88 721.06 136.01C721.06 134.14 722.01 133.24 723.91 133.24H727.28V119.88L725 121.27C724.35 121.67 723.74 121.83 723.17 121.74C722.6 121.65 722.11 121.41 721.71 121.01C721.31 120.61 721.05 120.12 720.92 119.55C720.79 118.98 720.85 118.4 721.07 117.83C721.29 117.26 721.74 116.77 722.42 116.37L727.59 113.15C728.71 112.45 729.9 112.1 731.15 112.1C732.1 112.1 732.83 112.34 733.36 112.83C733.88 113.32 734.15 114.02 734.15 114.94V133.25H737.14C739.04 133.25 739.99 134.17 739.99 136.02C739.99 137.87 739.04 138.83 737.14 138.83H723.93L723.91 138.82Z" fill="#FFBD00"/>
<path d="M789.49 147.47C801.088 147.47 810.49 138.068 810.49 126.47C810.49 114.872 801.088 105.47 789.49 105.47C777.892 105.47 768.49 114.872 768.49 126.47C768.49 138.068 777.892 147.47 789.49 147.47Z" fill="#6600BD"/>
<path d="M783.91 139.18C782.81 139.18 782.02 138.92 781.53 138.41C781.04 137.9 780.8 137.14 780.8 136.15C780.8 135.45 780.95 134.83 781.25 134.28C781.55 133.73 781.96 133.19 782.49 132.67L789.04 125.82C790.01 124.8 790.71 123.91 791.12 123.14C791.53 122.38 791.74 121.62 791.74 120.88C791.74 118.98 790.53 118.03 788.11 118.03C787.51 118.03 786.87 118.11 786.18 118.27C785.49 118.43 784.78 118.71 784.03 119.11C783.36 119.43 782.74 119.53 782.2 119.39C781.65 119.25 781.2 118.97 780.85 118.55C780.5 118.13 780.28 117.64 780.19 117.09C780.1 116.54 780.19 116 780.43 115.46C780.68 114.92 781.13 114.48 781.78 114.13C782.93 113.53 784.12 113.09 785.35 112.8C786.59 112.51 787.83 112.37 789.07 112.37C792.11 112.37 794.44 113.03 796.05 114.35C797.66 115.67 798.46 117.58 798.46 120.08C798.46 121.68 798.1 123.2 797.37 124.65C796.65 126.1 795.44 127.66 793.74 129.33L789.47 133.6H796.92C798.82 133.6 799.76 134.52 799.76 136.37C799.76 138.22 798.81 139.18 796.92 139.18H783.89H783.91Z" fill="#E93594"/>
<path d="M848.38 147.47C859.978 147.47 869.38 138.068 869.38 126.47C869.38 114.872 859.978 105.47 848.38 105.47C836.782 105.47 827.38 114.872 827.38 126.47C827.38 138.068 836.782 147.47 848.38 147.47Z" fill="#2FBDEB"/>
<path d="M847.71 139.59C846.41 139.59 845.13 139.46 843.87 139.22C842.61 138.97 841.52 138.62 840.59 138.17C839.82 137.8 839.27 137.33 838.94 136.78C838.62 136.23 838.48 135.67 838.53 135.1C838.58 134.53 838.79 134.01 839.15 133.57C839.51 133.12 839.99 132.82 840.57 132.65C841.16 132.49 841.82 132.57 842.57 132.89C843.49 133.29 844.34 133.56 845.12 133.71C845.89 133.86 846.67 133.93 847.44 133.93C850.14 133.93 851.48 133.01 851.48 131.16C851.48 129.46 850.28 128.61 847.89 128.61H845.87C844.92 128.61 844.2 128.37 843.7 127.9C843.2 127.43 842.95 126.75 842.95 125.88C842.95 125.01 843.2 124.33 843.7 123.86C844.2 123.39 844.92 123.15 845.87 123.15H847.22C848.29 123.15 849.14 122.93 849.75 122.48C850.36 122.03 850.67 121.38 850.67 120.53C850.67 118.86 849.51 118.02 847.19 118.02C846.49 118.02 845.78 118.09 845.06 118.24C844.34 118.39 843.56 118.65 842.74 119.03C842.09 119.3 841.5 119.37 840.96 119.22C840.42 119.07 839.98 118.78 839.63 118.36C839.28 117.94 839.07 117.44 838.99 116.88C838.92 116.32 839.01 115.78 839.29 115.27C839.56 114.76 840.04 114.33 840.71 113.98C842.86 112.91 845.24 112.37 847.86 112.37C850.8 112.37 853.1 113.01 854.75 114.3C856.4 115.59 857.22 117.36 857.22 119.63C857.22 120.98 856.88 122.16 856.21 123.19C855.54 124.21 854.6 124.96 853.4 125.44C854.87 125.86 856.01 126.64 856.83 127.76C857.64 128.88 858.05 130.24 858.05 131.84C858.05 134.24 857.13 136.13 855.3 137.51C853.47 138.89 850.94 139.59 847.72 139.59H847.71Z" fill="#0078FF"/>
<path d="M966.16 147.47C977.758 147.47 987.16 138.068 987.16 126.47C987.16 114.872 977.758 105.47 966.16 105.47C954.562 105.47 945.16 114.872 945.16 126.47C945.16 138.068 954.562 147.47 966.16 147.47Z" fill="#FFBD00"/>
<path d="M977.02 115.81H954.91V137.92H977.02V115.81Z" fill="#FF0000"/>
<path d="M907.27 147.47C918.868 147.47 928.27 138.068 928.27 126.47C928.27 114.872 918.868 105.47 907.27 105.47C895.672 105.47 886.27 114.872 886.27 126.47C886.27 138.068 895.672 147.47 907.27 147.47Z" fill="#99CF16"/>
<path d="M907.27 139.81C914.637 139.81 920.61 133.837 920.61 126.47C920.61 119.102 914.637 113.13 907.27 113.13C899.902 113.13 893.93 119.102 893.93 126.47C893.93 133.837 899.902 139.81 907.27 139.81Z" fill="#00A84E"/>
<path d="M1025.05 147.47C1036.65 147.47 1046.05 138.068 1046.05 126.47C1046.05 114.872 1036.65 105.47 1025.05 105.47C1013.45 105.47 1004.05 114.872 1004.05 126.47C1004.05 138.068 1013.45 147.47 1025.05 147.47Z" fill="#002C8D"/>
<path d="M1025.05 111.16L1010.76 135.92H1039.35L1025.05 111.16Z" fill="#2FBDEB"/>
<path d="M848.38 94.7402C859.978 94.7402 869.38 85.3382 869.38 73.7402C869.38 62.1423 859.978 52.7402 848.38 52.7402C836.782 52.7402 827.38 62.1423 827.38 73.7402C827.38 85.3382 836.782 94.7402 848.38 94.7402Z" fill="#0078FF"/>
<path d="M848.74 57.8901C848.55 57.8501 848.36 57.8301 848.16 57.8301C847.08 57.8501 846.14 58.5601 845.83 59.5901L843.46 67.3701L835.33 67.5201C834.25 67.5401 833.31 68.2501 833 69.2801C832.69 70.3101 833.07 71.4201 833.95 72.0401L840.62 76.7001L838.25 84.4801C837.94 85.5101 838.32 86.6201 839.2 87.2401C839.47 87.4301 839.77 87.5601 840.08 87.6301C840.78 87.7801 841.52 87.6301 842.12 87.1901L848.61 82.2901L855.28 86.9501C855.55 87.1401 855.85 87.2701 856.16 87.3401C856.86 87.4901 857.6 87.3401 858.19 86.9001C859.05 86.2501 859.39 85.1201 859.04 84.1101L856.38 76.4201L862.81 71.5601C863.29 71.2201 863.65 70.7001 863.79 70.0801C864.08 68.7701 863.28 67.4701 861.99 67.1401C861.96 67.1401 861.93 67.1301 861.9 67.1201C861.84 67.1101 861.77 67.0901 861.71 67.0801C861.56 67.0601 861.41 67.0501 861.26 67.0601L853.19 67.2101L850.54 59.5301C850.25 58.7001 849.56 58.1001 848.73 57.9201L848.74 57.8901Z" fill="#2FBDEB"/>
<path d="M789.49 94.7402C801.088 94.7402 810.49 85.3382 810.49 73.7402C810.49 62.1423 801.088 52.7402 789.49 52.7402C777.892 52.7402 768.49 62.1423 768.49 73.7402C768.49 85.3382 777.892 94.7402 789.49 94.7402Z" fill="#FF92FF"/>
<path d="M789.31 67.6301C789.31 67.6301 782.72 59.5201 777.51 63.6401C768.69 70.6001 789.31 87.5801 789.31 87.5801C789.31 87.5801 809.06 71.5201 800.71 64.1001C794.33 58.4301 789.31 67.6301 789.31 67.6301Z" fill="#FF0000"/>
<path d="M730.6 94.7402C742.198 94.7402 751.6 85.3382 751.6 73.7402C751.6 62.1423 742.198 52.7402 730.6 52.7402C719.002 52.7402 709.6 62.1423 709.6 73.7402C709.6 85.3382 719.002 94.7402 730.6 94.7402Z" fill="#FFDC00"/>
<path d="M728.18 63.2796L729.54 75.1996C727.35 74.7796 724.54 75.6896 722.26 77.8196C719.03 80.8296 718.11 85.0796 720.19 87.3096C722.27 89.5396 726.57 88.9096 729.8 85.8996C732.3 83.5696 733.4 80.5096 732.81 78.1996L731.51 67.6396C731.51 67.6396 733.68 67.4096 737.34 65.9396C741 64.4696 739.4 57.5596 739.4 57.5596L728.18 63.2696V63.2796Z" fill="#FF8000"/>
<path d="M907.27 94.7402C918.868 94.7402 928.27 85.3382 928.27 73.7402C928.27 62.1423 918.868 52.7402 907.27 52.7402C895.672 52.7402 886.27 62.1423 886.27 73.7402C886.27 85.3382 895.672 94.7402 907.27 94.7402Z" fill="#FF0000"/>
<path d="M900.59 86.0804C898.69 86.0804 897.74 85.1403 897.74 83.2703C897.74 81.4003 898.69 80.5004 900.59 80.5004H903.96V67.1404L901.68 68.5303C901.03 68.9303 900.42 69.0904 899.85 69.0004C899.28 68.9104 898.79 68.6703 898.39 68.2703C897.99 67.8703 897.73 67.3803 897.6 66.8103C897.47 66.2403 897.53 65.6603 897.75 65.0903C897.97 64.5203 898.42 64.0304 899.1 63.6304L904.27 60.4104C905.39 59.7104 906.58 59.3604 907.83 59.3604C908.78 59.3604 909.51 59.6004 910.04 60.0904C910.56 60.5804 910.83 61.2804 910.83 62.2004V80.5104H913.82C915.72 80.5104 916.67 81.4303 916.67 83.2803C916.67 85.1304 915.72 86.0903 913.82 86.0903H900.61L900.59 86.0804Z" fill="#FFBD00"/>
<path d="M966.16 94.7402C977.758 94.7402 987.16 85.3382 987.16 73.7402C987.16 62.1423 977.758 52.7402 966.16 52.7402C954.562 52.7402 945.16 62.1423 945.16 73.7402C945.16 85.3382 954.562 94.7402 966.16 94.7402Z" fill="#6600BD"/>
<path d="M960.59 86.4399C959.49 86.4399 958.7 86.1799 958.21 85.6699C957.72 85.1599 957.48 84.3999 957.48 83.4099C957.48 82.7099 957.63 82.0899 957.93 81.5399C958.23 80.9899 958.64 80.4499 959.17 79.9299L965.72 73.0799C966.69 72.0599 967.39 71.1699 967.8 70.3999C968.21 69.6399 968.42 68.8799 968.42 68.1399C968.42 66.2399 967.21 65.2899 964.79 65.2899C964.19 65.2899 963.55 65.3699 962.86 65.5299C962.17 65.6899 961.46 65.9699 960.71 66.3699C960.04 66.6899 959.42 66.7899 958.88 66.6499C958.33 66.5099 957.88 66.2299 957.53 65.8099C957.18 65.3899 956.96 64.8999 956.87 64.3499C956.78 63.7999 956.87 63.2599 957.11 62.7199C957.36 62.1799 957.81 61.7399 958.46 61.3899C959.61 60.7899 960.8 60.3499 962.03 60.0599C963.27 59.7699 964.51 59.6299 965.75 59.6299C968.79 59.6299 971.12 60.2899 972.73 61.6099C974.34 62.9299 975.14 64.8399 975.14 67.3399C975.14 68.9399 974.78 70.4599 974.05 71.9099C973.33 73.3599 972.12 74.9199 970.42 76.5899L966.15 80.8599H973.6C975.5 80.8599 976.44 81.7799 976.44 83.6299C976.44 85.4799 975.49 86.4399 973.6 86.4399H960.57H960.59Z" fill="#E93594"/>
<path d="M1025.05 94.7402C1036.65 94.7402 1046.05 85.3382 1046.05 73.7402C1046.05 62.1423 1036.65 52.7402 1025.05 52.7402C1013.45 52.7402 1004.05 62.1423 1004.05 73.7402C1004.05 85.3382 1013.45 94.7402 1025.05 94.7402Z" fill="#2FBDEB"/>
<path d="M1024.38 86.8499C1023.08 86.8499 1021.8 86.7199 1020.54 86.4799C1019.28 86.2299 1018.19 85.8799 1017.26 85.4299C1016.49 85.0599 1015.94 84.5899 1015.61 84.0399C1015.29 83.4899 1015.15 82.9299 1015.2 82.3599C1015.25 81.7899 1015.46 81.2699 1015.82 80.8299C1016.18 80.3799 1016.66 80.0799 1017.24 79.9099C1017.83 79.7499 1018.49 79.8299 1019.24 80.1499C1020.16 80.5499 1021.01 80.8199 1021.79 80.9699C1022.56 81.1199 1023.34 81.1899 1024.11 81.1899C1026.81 81.1899 1028.15 80.2699 1028.15 78.4199C1028.15 76.7199 1026.95 75.8699 1024.56 75.8699H1022.54C1021.59 75.8699 1020.87 75.6299 1020.37 75.1599C1019.87 74.6899 1019.62 74.0099 1019.62 73.1399C1019.62 72.2699 1019.87 71.5899 1020.37 71.1199C1020.87 70.6499 1021.59 70.4099 1022.54 70.4099H1023.89C1024.96 70.4099 1025.81 70.1899 1026.42 69.7399C1027.03 69.2899 1027.34 68.6399 1027.34 67.7899C1027.34 66.1199 1026.18 65.2799 1023.86 65.2799C1023.16 65.2799 1022.45 65.3499 1021.73 65.4999C1021.01 65.6499 1020.23 65.9099 1019.41 66.2899C1018.76 66.5599 1018.17 66.6299 1017.63 66.4799C1017.09 66.3299 1016.65 66.0399 1016.3 65.6199C1015.95 65.1999 1015.74 64.6999 1015.66 64.1399C1015.59 63.5799 1015.68 63.0399 1015.96 62.5299C1016.23 62.0199 1016.71 61.5899 1017.38 61.2399C1019.53 60.1699 1021.91 59.6299 1024.53 59.6299C1027.47 59.6299 1029.77 60.2699 1031.42 61.5599C1033.07 62.8499 1033.89 64.6199 1033.89 66.8899C1033.89 68.2399 1033.55 69.4199 1032.88 70.4499C1032.21 71.4699 1031.27 72.2199 1030.07 72.6999C1031.54 73.1199 1032.68 73.8999 1033.5 75.0199C1034.31 76.1399 1034.72 77.4999 1034.72 79.0999C1034.72 81.4999 1033.8 83.3899 1031.97 84.7699C1030.14 86.1599 1027.61 86.8499 1024.39 86.8499H1024.38Z" fill="#0078FF"/>
<path d="M729.27 42C740.868 42 750.27 32.598 750.27 21C750.27 9.40202 740.868 0 729.27 0C717.672 0 708.27 9.40202 708.27 21C708.27 32.598 717.672 42 729.27 42Z" fill="#A220DF"/>
<path d="M719.14 31.9199C718.06 31.9199 717.26 31.5499 716.75 30.8099C716.24 30.0699 716.24 29.1499 716.75 28.0399L725.36 9.50992C725.77 8.60992 726.28 7.94992 726.88 7.53992C727.48 7.12992 728.18 6.91992 728.99 6.91992C729.8 6.91992 730.46 7.12992 731.06 7.53992C731.66 7.94992 732.17 8.60992 732.58 9.50992L741.19 28.0399C741.72 29.1699 741.74 30.0999 741.26 30.8199C740.78 31.5399 740.02 31.9099 738.98 31.9099C738.06 31.9099 737.35 31.6999 736.85 31.2899C736.35 30.8799 735.91 30.2099 735.52 29.2799L734.41 26.6499H723.52L722.41 29.2799C722 30.1999 721.57 30.8699 721.13 31.2899C720.69 31.6999 720.02 31.9099 719.12 31.9099L719.14 31.9199ZM728.93 13.8699L725.61 21.7899H732.32L729 13.8699H728.93Z" fill="#CA8FFF"/>
<path d="M788.16 42C799.758 42 809.16 32.598 809.16 21C809.16 9.40202 799.758 0 788.16 0C776.562 0 767.16 9.40202 767.16 21C767.16 32.598 776.562 42 788.16 42Z" fill="#00A84E"/>
<path d="M781.66 32.92C779.45 32.92 778.34 31.83 778.34 29.63V11.83C778.34 9.64004 779.45 8.54004 781.66 8.54004H790.1C792.73 8.54004 794.76 9.11004 796.2 10.25C797.64 11.39 798.36 12.92 798.36 14.83C798.36 16.1 798.04 17.2 797.41 18.15C796.78 19.1 795.89 19.8 794.76 20.26C796.12 20.67 797.17 21.37 797.91 22.35C798.65 23.33 799.02 24.55 799.02 26C799.02 28.14 798.25 29.83 796.72 31.07C795.19 32.3 793.09 32.92 790.44 32.92H781.66ZM784.43 18.23H788.96C790.11 18.23 790.96 18.02 791.5 17.61C792.04 17.2 792.31 16.56 792.31 15.71C792.31 14.86 792.04 14.23 791.5 13.83C790.96 13.43 790.11 13.22 788.96 13.22H784.43V18.23ZM784.43 28.25H789.58C790.76 28.25 791.61 28.03 792.16 27.58C792.7 27.13 792.97 26.46 792.97 25.56C792.97 24.66 792.7 23.99 792.16 23.55C791.62 23.11 790.76 22.89 789.58 22.89H784.43V28.25Z" fill="#BBED16"/>
<path d="M847.06 42C858.658 42 868.06 32.598 868.06 21C868.06 9.40202 858.658 0 847.06 0C835.462 0 826.06 9.40202 826.06 21C826.06 32.598 835.462 42 847.06 42Z" fill="#FF8000"/>
<path d="M847.6 33.0004C844.9 33.0004 842.59 32.4804 840.65 31.4404C838.71 30.4004 837.23 28.9403 836.21 27.0504C835.18 25.1604 834.67 22.9504 834.67 20.4104C834.67 17.8704 835.18 15.6704 836.21 13.7904C837.24 11.9104 838.72 10.4504 840.65 9.42035C842.59 8.38035 844.9 7.86035 847.6 7.86035C848.66 7.86035 849.76 7.98035 850.9 8.22035C852.04 8.46035 853.05 8.82035 853.93 9.31035C854.57 9.66035 855.02 10.0904 855.28 10.6204C855.53 11.1504 855.63 11.6904 855.56 12.2504C855.49 12.8004 855.29 13.3004 854.95 13.7404C854.62 14.1804 854.19 14.4704 853.69 14.6204C853.18 14.7704 852.63 14.6904 852.03 14.4004C850.67 13.7304 849.28 13.4004 847.85 13.4004C845.71 13.4004 844.09 14.0104 843.01 15.2204C841.93 16.4304 841.38 18.1704 841.38 20.4204C841.38 22.6704 841.92 24.4504 843.01 25.6604C844.09 26.8703 845.71 27.4804 847.85 27.4804C848.45 27.4804 849.09 27.4104 849.79 27.2604C850.48 27.1104 851.16 26.8703 851.83 26.5504C852.52 26.2504 853.14 26.1704 853.68 26.3104C854.22 26.4503 854.67 26.7204 855.01 27.1404C855.36 27.5504 855.57 28.0304 855.65 28.5804C855.73 29.1204 855.65 29.6604 855.43 30.1904C855.2 30.7204 854.77 31.1504 854.15 31.4704C853.34 31.9503 852.35 32.3304 851.16 32.6104C849.97 32.8904 848.79 33.0204 847.62 33.0204L847.6 33.0004Z" fill="#FFDC00"/>
<path d="M1023.73 42C1035.33 42 1044.73 32.598 1044.73 21C1044.73 9.40202 1035.33 0 1023.73 0C1012.13 0 1002.73 9.40202 1002.73 21C1002.73 32.598 1012.13 42 1023.73 42Z" fill="#0078FF"/>
<path d="M1024.09 5.15961C1023.9 5.11961 1023.71 5.09961 1023.51 5.09961C1022.43 5.11961 1021.49 5.82961 1021.18 6.85961L1018.81 14.6396L1010.68 14.7896C1009.6 14.8096 1008.66 15.5196 1008.35 16.5496C1008.04 17.5796 1008.42 18.6896 1009.3 19.3096L1015.97 23.9696L1013.6 31.7496C1013.29 32.7796 1013.67 33.8896 1014.55 34.5096C1014.82 34.6996 1015.12 34.8296 1015.43 34.8996C1016.13 35.0496 1016.87 34.8996 1017.47 34.4596L1023.96 29.5596L1030.63 34.2196C1030.9 34.4096 1031.2 34.5396 1031.51 34.6096C1032.21 34.7596 1032.95 34.6096 1033.54 34.1696C1034.4 33.5196 1034.74 32.3896 1034.39 31.3796L1031.73 23.6896L1038.16 18.8296C1038.64 18.4896 1039 17.9696 1039.14 17.3496C1039.43 16.0396 1038.63 14.7396 1037.34 14.4096C1037.31 14.4096 1037.28 14.3996 1037.25 14.3896C1037.19 14.3796 1037.12 14.3596 1037.06 14.3496C1036.91 14.3296 1036.76 14.3196 1036.61 14.3296L1028.54 14.4796L1025.89 6.79961C1025.6 5.96961 1024.91 5.36961 1024.08 5.18961L1024.09 5.15961Z" fill="#2FBDEB"/>
<path d="M964.84 42C976.438 42 985.84 32.598 985.84 21C985.84 9.40202 976.438 0 964.84 0C953.242 0 943.84 9.40202 943.84 21C943.84 32.598 953.242 42 964.84 42Z" fill="#FF92FF"/>
<path d="M964.66 14.8898C964.66 14.8898 958.07 6.77982 952.86 10.8998C944.04 17.8598 964.66 34.8398 964.66 34.8398C964.66 34.8398 984.41 18.7798 976.06 11.3598C969.68 5.68982 964.66 14.8898 964.66 14.8898Z" fill="#FF0000"/>
<path d="M905.95 42C917.548 42 926.95 32.598 926.95 21C926.95 9.40202 917.548 0 905.95 0C894.352 0 884.95 9.40202 884.95 21C884.95 32.598 894.352 42 905.95 42Z" fill="#FFDC00"/>
<path d="M903.53 10.5501L904.89 22.4701C902.7 22.0501 899.89 22.9601 897.61 25.0901C894.38 28.1001 893.46 32.3501 895.54 34.5801C897.62 36.8101 901.92 36.1801 905.15 33.1701C907.65 30.8401 908.75 27.7801 908.16 25.4701L906.86 14.9101C906.86 14.9101 909.03 14.6801 912.69 13.2101C916.35 11.7401 914.75 4.83008 914.75 4.83008L903.53 10.5401V10.5501Z" fill="#FF8000"/>
<path d="M436.87 200.21C448.468 200.21 457.87 190.808 457.87 179.21C457.87 167.612 448.468 158.21 436.87 158.21C425.272 158.21 415.87 167.612 415.87 179.21C415.87 190.808 425.272 200.21 436.87 200.21Z" fill="#FFBD00"/>
<path d="M447.73 168.55H425.62V190.66H447.73V168.55Z" fill="#FF0000"/>
<path d="M377.98 200.21C389.578 200.21 398.98 190.808 398.98 179.21C398.98 167.612 389.578 158.21 377.98 158.21C366.382 158.21 356.98 167.612 356.98 179.21C356.98 190.808 366.382 200.21 377.98 200.21Z" fill="#99CF16"/>
<path d="M377.98 192.55C385.347 192.55 391.32 186.578 391.32 179.21C391.32 171.843 385.347 165.87 377.98 165.87C370.612 165.87 364.64 171.843 364.64 179.21C364.64 186.578 370.612 192.55 377.98 192.55Z" fill="#00A84E"/>
<path d="M495.76 200.21C507.358 200.21 516.76 190.808 516.76 179.21C516.76 167.612 507.358 158.21 495.76 158.21C484.162 158.21 474.76 167.612 474.76 179.21C474.76 190.808 484.162 200.21 495.76 200.21Z" fill="#002C8D"/>
<path d="M495.76 163.9L481.47 188.66H510.06L495.76 163.9Z" fill="#2FBDEB"/>
<path d="M554.65 200.21C566.248 200.21 575.65 190.808 575.65 179.21C575.65 167.612 566.248 158.21 554.65 158.21C543.052 158.21 533.65 167.612 533.65 179.21C533.65 190.808 543.052 200.21 554.65 200.21Z" fill="#A220DF"/>
<path d="M544.52 190.13C543.44 190.13 542.64 189.76 542.13 189.02C541.62 188.28 541.62 187.36 542.13 186.25L550.74 167.72C551.15 166.82 551.66 166.16 552.26 165.75C552.86 165.34 553.56 165.13 554.37 165.13C555.18 165.13 555.84 165.34 556.44 165.75C557.04 166.16 557.55 166.82 557.96 167.72L566.57 186.25C567.1 187.38 567.12 188.31 566.64 189.03C566.16 189.75 565.4 190.12 564.36 190.12C563.44 190.12 562.73 189.91 562.23 189.5C561.73 189.09 561.29 188.42 560.9 187.49L559.79 184.86H548.9L547.79 187.49C547.38 188.41 546.95 189.08 546.51 189.5C546.07 189.91 545.4 190.12 544.5 190.12L544.52 190.13ZM554.31 172.08L550.99 180H557.7L554.38 172.08H554.31Z" fill="#CA8FFF"/>
<path d="M613.54 200.21C625.138 200.21 634.54 190.808 634.54 179.21C634.54 167.612 625.138 158.21 613.54 158.21C601.942 158.21 592.54 167.612 592.54 179.21C592.54 190.808 601.942 200.21 613.54 200.21Z" fill="#00A84E"/>
<path d="M607.04 191.13C604.83 191.13 603.72 190.04 603.72 187.84V170.03C603.72 167.84 604.83 166.74 607.04 166.74H615.48C618.11 166.74 620.14 167.31 621.58 168.45C623.02 169.59 623.74 171.12 623.74 173.03C623.74 174.3 623.42 175.4 622.79 176.35C622.16 177.3 621.27 178 620.14 178.46C621.5 178.87 622.55 179.57 623.29 180.55C624.03 181.53 624.4 182.75 624.4 184.2C624.4 186.34 623.63 188.03 622.1 189.27C620.57 190.5 618.47 191.12 615.82 191.12H607.04V191.13ZM609.81 176.44H614.34C615.49 176.44 616.34 176.23 616.88 175.82C617.42 175.41 617.69 174.77 617.69 173.92C617.69 173.07 617.42 172.44 616.88 172.04C616.34 171.64 615.49 171.43 614.34 171.43H609.81V176.44ZM609.81 186.46H614.96C616.14 186.46 616.99 186.24 617.54 185.79C618.08 185.34 618.35 184.67 618.35 183.77C618.35 182.87 618.08 182.2 617.54 181.76C617 181.32 616.14 181.1 614.96 181.1H609.81V186.46Z" fill="#BBED16"/>
<path d="M672.44 200.21C684.038 200.21 693.44 190.808 693.44 179.21C693.44 167.612 684.038 158.21 672.44 158.21C660.842 158.21 651.44 167.612 651.44 179.21C651.44 190.808 660.842 200.21 672.44 200.21Z" fill="#FF8000"/>
<path d="M672.98 191.21C670.28 191.21 667.97 190.69 666.03 189.65C664.09 188.61 662.61 187.15 661.59 185.26C660.56 183.37 660.05 181.16 660.05 178.62C660.05 176.08 660.56 173.88 661.59 172C662.62 170.12 664.1 168.66 666.03 167.63C667.97 166.59 670.28 166.07 672.98 166.07C674.04 166.07 675.14 166.19 676.28 166.43C677.42 166.67 678.43 167.03 679.31 167.52C679.95 167.87 680.4 168.3 680.66 168.83C680.91 169.36 681.01 169.9 680.94 170.46C680.87 171.01 680.67 171.51 680.33 171.95C680 172.39 679.57 172.68 679.07 172.83C678.56 172.98 678.01 172.9 677.41 172.61C676.05 171.94 674.66 171.61 673.23 171.61C671.09 171.61 669.47 172.22 668.39 173.43C667.31 174.64 666.76 176.38 666.76 178.63C666.76 180.88 667.3 182.66 668.39 183.87C669.47 185.08 671.09 185.69 673.23 185.69C673.83 185.69 674.47 185.62 675.17 185.47C675.86 185.32 676.54 185.08 677.21 184.76C677.9 184.46 678.52 184.38 679.06 184.52C679.6 184.66 680.05 184.93 680.39 185.35C680.74 185.76 680.95 186.24 681.03 186.79C681.11 187.33 681.03 187.87 680.81 188.4C680.58 188.93 680.15 189.36 679.53 189.68C678.72 190.16 677.73 190.54 676.54 190.82C675.35 191.1 674.17 191.23 673 191.23L672.98 191.21Z" fill="#FFDC00"/>
<path d="M377.98 147.47C389.578 147.47 398.98 138.068 398.98 126.47C398.98 114.872 389.578 105.47 377.98 105.47C366.382 105.47 356.98 114.872 356.98 126.47C356.98 138.068 366.382 147.47 377.98 147.47Z" fill="#FF0000"/>
<path d="M371.3 138.82C369.4 138.82 368.45 137.88 368.45 136.01C368.45 134.14 369.4 133.24 371.3 133.24H374.67V119.88L372.39 121.27C371.74 121.67 371.13 121.83 370.56 121.74C369.99 121.65 369.5 121.41 369.1 121.01C368.7 120.61 368.44 120.12 368.31 119.55C368.18 118.98 368.24 118.4 368.46 117.83C368.68 117.26 369.13 116.77 369.81 116.37L374.98 113.15C376.1 112.45 377.29 112.1 378.54 112.1C379.49 112.1 380.22 112.34 380.75 112.83C381.27 113.32 381.54 114.02 381.54 114.94V133.25H384.53C386.43 133.25 387.38 134.17 387.38 136.02C387.38 137.87 386.43 138.83 384.53 138.83H371.32L371.3 138.82Z" fill="#FFBD00"/>
<path d="M436.87 147.47C448.468 147.47 457.87 138.068 457.87 126.47C457.87 114.872 448.468 105.47 436.87 105.47C425.272 105.47 415.87 114.872 415.87 126.47C415.87 138.068 425.272 147.47 436.87 147.47Z" fill="#6600BD"/>
<path d="M431.29 139.18C430.19 139.18 429.4 138.92 428.91 138.41C428.42 137.9 428.18 137.14 428.18 136.15C428.18 135.45 428.33 134.83 428.63 134.28C428.93 133.73 429.34 133.19 429.87 132.67L436.42 125.82C437.39 124.8 438.09 123.91 438.5 123.14C438.91 122.38 439.12 121.62 439.12 120.88C439.12 118.98 437.91 118.03 435.49 118.03C434.89 118.03 434.25 118.11 433.56 118.27C432.87 118.43 432.16 118.71 431.41 119.11C430.74 119.43 430.12 119.53 429.58 119.39C429.03 119.25 428.58 118.97 428.23 118.55C427.88 118.13 427.66 117.64 427.57 117.09C427.48 116.54 427.57 116 427.81 115.46C428.06 114.92 428.51 114.48 429.16 114.13C430.31 113.53 431.5 113.09 432.73 112.8C433.97 112.51 435.21 112.37 436.45 112.37C439.49 112.37 441.82 113.03 443.43 114.35C445.04 115.67 445.84 117.58 445.84 120.08C445.84 121.68 445.48 123.2 444.75 124.65C444.03 126.1 442.82 127.66 441.12 129.33L436.85 133.6H444.3C446.2 133.6 447.14 134.52 447.14 136.37C447.14 138.22 446.19 139.18 444.3 139.18H431.27H431.29Z" fill="#E93594"/>
<path d="M495.76 147.47C507.358 147.47 516.76 138.068 516.76 126.47C516.76 114.872 507.358 105.47 495.76 105.47C484.162 105.47 474.76 114.872 474.76 126.47C474.76 138.068 484.162 147.47 495.76 147.47Z" fill="#2FBDEB"/>
<path d="M495.09 139.59C493.79 139.59 492.51 139.46 491.25 139.22C489.99 138.97 488.9 138.62 487.97 138.17C487.2 137.8 486.65 137.33 486.32 136.78C486 136.23 485.86 135.67 485.91 135.1C485.96 134.53 486.17 134.01 486.53 133.57C486.89 133.12 487.37 132.82 487.95 132.65C488.54 132.49 489.2 132.57 489.95 132.89C490.87 133.29 491.72 133.56 492.5 133.71C493.27 133.86 494.05 133.93 494.82 133.93C497.52 133.93 498.86 133.01 498.86 131.16C498.86 129.46 497.66 128.61 495.27 128.61H493.25C492.3 128.61 491.58 128.37 491.08 127.9C490.58 127.43 490.33 126.75 490.33 125.88C490.33 125.01 490.58 124.33 491.08 123.86C491.58 123.39 492.3 123.15 493.25 123.15H494.6C495.67 123.15 496.52 122.93 497.13 122.48C497.74 122.03 498.05 121.38 498.05 120.53C498.05 118.86 496.89 118.02 494.57 118.02C493.87 118.02 493.16 118.09 492.44 118.24C491.72 118.39 490.94 118.65 490.12 119.03C489.47 119.3 488.88 119.37 488.34 119.22C487.8 119.07 487.36 118.78 487.01 118.36C486.66 117.94 486.45 117.44 486.37 116.88C486.3 116.32 486.39 115.78 486.67 115.27C486.94 114.76 487.42 114.33 488.09 113.98C490.24 112.91 492.62 112.37 495.24 112.37C498.18 112.37 500.48 113.01 502.13 114.3C503.78 115.59 504.6 117.36 504.6 119.63C504.6 120.98 504.26 122.16 503.59 123.19C502.92 124.21 501.98 124.96 500.78 125.44C502.25 125.86 503.39 126.64 504.21 127.76C505.02 128.88 505.43 130.24 505.43 131.84C505.43 134.24 504.51 136.13 502.68 137.51C500.85 138.89 498.32 139.59 495.1 139.59H495.09Z" fill="#0078FF"/>
<path d="M613.54 147.47C625.138 147.47 634.54 138.068 634.54 126.47C634.54 114.872 625.138 105.47 613.54 105.47C601.942 105.47 592.54 114.872 592.54 126.47C592.54 138.068 601.942 147.47 613.54 147.47Z" fill="#FFBD00"/>
<path d="M624.4 115.81H602.29V137.92H624.4V115.81Z" fill="#FF0000"/>
<path d="M554.65 147.47C566.248 147.47 575.65 138.068 575.65 126.47C575.65 114.872 566.248 105.47 554.65 105.47C543.052 105.47 533.65 114.872 533.65 126.47C533.65 138.068 543.052 147.47 554.65 147.47Z" fill="#99CF16"/>
<path d="M554.65 139.81C562.018 139.81 567.99 133.837 567.99 126.47C567.99 119.102 562.018 113.13 554.65 113.13C547.283 113.13 541.31 119.102 541.31 126.47C541.31 133.837 547.283 139.81 554.65 139.81Z" fill="#00A84E"/>
<path d="M672.44 147.47C684.038 147.47 693.44 138.068 693.44 126.47C693.44 114.872 684.038 105.47 672.44 105.47C660.842 105.47 651.44 114.872 651.44 126.47C651.44 138.068 660.842 147.47 672.44 147.47Z" fill="#002C8D"/>
<path d="M672.44 111.16L658.14 135.92H686.73L672.44 111.16Z" fill="#2FBDEB"/>
<path d="M495.76 94.7402C507.358 94.7402 516.76 85.3382 516.76 73.7402C516.76 62.1423 507.358 52.7402 495.76 52.7402C484.162 52.7402 474.76 62.1423 474.76 73.7402C474.76 85.3382 484.162 94.7402 495.76 94.7402Z" fill="#0078FF"/>
<path d="M496.12 57.8901C495.93 57.8501 495.74 57.8301 495.54 57.8301C494.46 57.8501 493.52 58.5601 493.21 59.5901L490.84 67.3701L482.71 67.5201C481.63 67.5401 480.69 68.2501 480.38 69.2801C480.07 70.3101 480.45 71.4201 481.33 72.0401L488 76.7001L485.63 84.4801C485.32 85.5101 485.7 86.6201 486.58 87.2401C486.85 87.4301 487.15 87.5601 487.46 87.6301C488.16 87.7801 488.9 87.6301 489.5 87.1901L495.99 82.2901L502.66 86.9501C502.93 87.1401 503.23 87.2701 503.54 87.3401C504.24 87.4901 504.98 87.3401 505.57 86.9001C506.43 86.2501 506.77 85.1201 506.42 84.1101L503.76 76.4201L510.19 71.5601C510.67 71.2201 511.03 70.7001 511.17 70.0801C511.46 68.7701 510.66 67.4701 509.37 67.1401C509.34 67.1401 509.31 67.1301 509.28 67.1201C509.22 67.1101 509.15 67.0901 509.09 67.0801C508.94 67.0601 508.79 67.0501 508.64 67.0601L500.57 67.2101L497.92 59.5301C497.63 58.7001 496.94 58.1001 496.11 57.9201L496.12 57.8901Z" fill="#2FBDEB"/>
<path d="M436.87 94.7402C448.468 94.7402 457.87 85.3382 457.87 73.7402C457.87 62.1423 448.468 52.7402 436.87 52.7402C425.272 52.7402 415.87 62.1423 415.87 73.7402C415.87 85.3382 425.272 94.7402 436.87 94.7402Z" fill="#FF92FF"/>
<path d="M436.69 67.6301C436.69 67.6301 430.1 59.5201 424.89 63.6401C416.07 70.6001 436.69 87.5801 436.69 87.5801C436.69 87.5801 456.44 71.5201 448.09 64.1001C441.71 58.4301 436.69 67.6301 436.69 67.6301Z" fill="#FF0000"/>
<path d="M377.98 94.7402C389.578 94.7402 398.98 85.3382 398.98 73.7402C398.98 62.1423 389.578 52.7402 377.98 52.7402C366.382 52.7402 356.98 62.1423 356.98 73.7402C356.98 85.3382 366.382 94.7402 377.98 94.7402Z" fill="#FFDC00"/>
<path d="M375.56 63.2796L376.92 75.1996C374.73 74.7796 371.92 75.6896 369.64 77.8196C366.41 80.8296 365.49 85.0796 367.57 87.3096C369.65 89.5396 373.95 88.9096 377.18 85.8996C379.68 83.5696 380.78 80.5096 380.19 78.1996L378.89 67.6396C378.89 67.6396 381.06 67.4096 384.72 65.9396C388.38 64.4696 386.78 57.5596 386.78 57.5596L375.56 63.2696V63.2796Z" fill="#FF8000"/>
<path d="M554.65 94.7402C566.248 94.7402 575.65 85.3382 575.65 73.7402C575.65 62.1423 566.248 52.7402 554.65 52.7402C543.052 52.7402 533.65 62.1423 533.65 73.7402C533.65 85.3382 543.052 94.7402 554.65 94.7402Z" fill="#FF0000"/>
<path d="M547.97 86.0804C546.07 86.0804 545.12 85.1403 545.12 83.2703C545.12 81.4003 546.07 80.5004 547.97 80.5004H551.34V67.1404L549.06 68.5303C548.41 68.9303 547.8 69.0904 547.23 69.0004C546.66 68.9104 546.17 68.6703 545.77 68.2703C545.37 67.8703 545.11 67.3803 544.98 66.8103C544.85 66.2403 544.91 65.6603 545.13 65.0903C545.35 64.5203 545.8 64.0304 546.48 63.6304L551.65 60.4104C552.77 59.7104 553.96 59.3604 555.21 59.3604C556.16 59.3604 556.89 59.6004 557.42 60.0904C557.94 60.5804 558.21 61.2804 558.21 62.2004V80.5104H561.2C563.1 80.5104 564.05 81.4303 564.05 83.2803C564.05 85.1304 563.1 86.0903 561.2 86.0903H547.99L547.97 86.0804Z" fill="#FFBD00"/>
<path d="M613.54 94.7402C625.138 94.7402 634.54 85.3382 634.54 73.7402C634.54 62.1423 625.138 52.7402 613.54 52.7402C601.942 52.7402 592.54 62.1423 592.54 73.7402C592.54 85.3382 601.942 94.7402 613.54 94.7402Z" fill="#6600BD"/>
<path d="M607.97 86.4399C606.87 86.4399 606.08 86.1799 605.59 85.6699C605.1 85.1599 604.86 84.3999 604.86 83.4099C604.86 82.7099 605.01 82.0899 605.31 81.5399C605.61 80.9899 606.02 80.4499 606.55 79.9299L613.1 73.0799C614.07 72.0599 614.77 71.1699 615.18 70.3999C615.59 69.6399 615.8 68.8799 615.8 68.1399C615.8 66.2399 614.59 65.2899 612.17 65.2899C611.57 65.2899 610.93 65.3699 610.24 65.5299C609.55 65.6899 608.84 65.9699 608.09 66.3699C607.42 66.6899 606.8 66.7899 606.26 66.6499C605.71 66.5099 605.26 66.2299 604.91 65.8099C604.56 65.3899 604.34 64.8999 604.25 64.3499C604.16 63.7999 604.25 63.2599 604.49 62.7199C604.74 62.1799 605.19 61.7399 605.84 61.3899C606.99 60.7899 608.18 60.3499 609.41 60.0599C610.65 59.7699 611.89 59.6299 613.13 59.6299C616.17 59.6299 618.5 60.2899 620.11 61.6099C621.72 62.9299 622.52 64.8399 622.52 67.3399C622.52 68.9399 622.16 70.4599 621.43 71.9099C620.71 73.3599 619.5 74.9199 617.8 76.5899L613.53 80.8599H620.98C622.88 80.8599 623.82 81.7799 623.82 83.6299C623.82 85.4799 622.87 86.4399 620.98 86.4399H607.95H607.97Z" fill="#E93594"/>
<path d="M672.44 94.7402C684.038 94.7402 693.44 85.3382 693.44 73.7402C693.44 62.1423 684.038 52.7402 672.44 52.7402C660.842 52.7402 651.44 62.1423 651.44 73.7402C651.44 85.3382 660.842 94.7402 672.44 94.7402Z" fill="#2FBDEB"/>
<path d="M671.76 86.8499C670.46 86.8499 669.18 86.7199 667.92 86.4799C666.66 86.2299 665.57 85.8799 664.64 85.4299C663.87 85.0599 663.32 84.5899 662.99 84.0399C662.67 83.4899 662.53 82.9299 662.58 82.3599C662.63 81.7899 662.84 81.2699 663.2 80.8299C663.56 80.3799 664.04 80.0799 664.62 79.9099C665.21 79.7499 665.87 79.8299 666.62 80.1499C667.54 80.5499 668.39 80.8199 669.17 80.9699C669.94 81.1199 670.72 81.1899 671.49 81.1899C674.19 81.1899 675.53 80.2699 675.53 78.4199C675.53 76.7199 674.33 75.8699 671.94 75.8699H669.92C668.97 75.8699 668.25 75.6299 667.75 75.1599C667.25 74.6899 667 74.0099 667 73.1399C667 72.2699 667.25 71.5899 667.75 71.1199C668.25 70.6499 668.97 70.4099 669.92 70.4099H671.27C672.34 70.4099 673.19 70.1899 673.8 69.7399C674.41 69.2899 674.72 68.6399 674.72 67.7899C674.72 66.1199 673.56 65.2799 671.24 65.2799C670.54 65.2799 669.83 65.3499 669.11 65.4999C668.39 65.6499 667.61 65.9099 666.79 66.2899C666.14 66.5599 665.55 66.6299 665.01 66.4799C664.47 66.3299 664.03 66.0399 663.68 65.6199C663.33 65.1999 663.12 64.6999 663.04 64.1399C662.97 63.5799 663.06 63.0399 663.34 62.5299C663.61 62.0199 664.09 61.5899 664.76 61.2399C666.91 60.1699 669.29 59.6299 671.91 59.6299C674.85 59.6299 677.15 60.2699 678.8 61.5599C680.45 62.8499 681.27 64.6199 681.27 66.8899C681.27 68.2399 680.93 69.4199 680.26 70.4499C679.59 71.4699 678.65 72.2199 677.45 72.6999C678.92 73.1199 680.06 73.8999 680.88 75.0199C681.69 76.1399 682.1 77.4999 682.1 79.0999C682.1 81.4999 681.18 83.3899 679.35 84.7699C677.52 86.1599 674.99 86.8499 671.77 86.8499H671.76Z" fill="#0078FF"/>
<path d="M376.65 42C388.248 42 397.65 32.598 397.65 21C397.65 9.40202 388.248 0 376.65 0C365.052 0 355.65 9.40202 355.65 21C355.65 32.598 365.052 42 376.65 42Z" fill="#A220DF"/>
<path d="M366.52 31.9199C365.44 31.9199 364.64 31.5499 364.13 30.8099C363.62 30.0699 363.62 29.1499 364.13 28.0399L372.74 9.50992C373.15 8.60992 373.66 7.94992 374.26 7.53992C374.86 7.12992 375.56 6.91992 376.37 6.91992C377.18 6.91992 377.84 7.12992 378.44 7.53992C379.04 7.94992 379.55 8.60992 379.96 9.50992L388.57 28.0399C389.1 29.1699 389.12 30.0999 388.64 30.8199C388.16 31.5399 387.4 31.9099 386.36 31.9099C385.44 31.9099 384.73 31.6999 384.23 31.2899C383.73 30.8799 383.29 30.2099 382.9 29.2799L381.79 26.6499H370.9L369.79 29.2799C369.38 30.1999 368.95 30.8699 368.51 31.2899C368.07 31.6999 367.4 31.9099 366.5 31.9099L366.52 31.9199ZM376.31 13.8699L372.99 21.7899H379.7L376.38 13.8699H376.31Z" fill="#CA8FFF"/>
<path d="M435.55 42C447.148 42 456.55 32.598 456.55 21C456.55 9.40202 447.148 0 435.55 0C423.952 0 414.55 9.40202 414.55 21C414.55 32.598 423.952 42 435.55 42Z" fill="#00A84E"/>
<path d="M429.05 32.92C426.84 32.92 425.73 31.83 425.73 29.63V11.83C425.73 9.64004 426.84 8.54004 429.05 8.54004H437.49C440.12 8.54004 442.15 9.11004 443.59 10.25C445.03 11.39 445.75 12.92 445.75 14.83C445.75 16.1 445.43 17.2 444.8 18.15C444.17 19.1 443.28 19.8 442.15 20.26C443.51 20.67 444.56 21.37 445.3 22.35C446.04 23.33 446.41 24.55 446.41 26C446.41 28.14 445.64 29.83 444.11 31.07C442.58 32.3 440.48 32.92 437.83 32.92H429.05ZM431.81 18.23H436.34C437.49 18.23 438.34 18.02 438.88 17.61C439.42 17.2 439.69 16.56 439.69 15.71C439.69 14.86 439.42 14.23 438.88 13.83C438.34 13.43 437.49 13.22 436.34 13.22H431.81V18.23ZM431.81 28.25H436.96C438.14 28.25 438.99 28.03 439.54 27.58C440.08 27.13 440.35 26.46 440.35 25.56C440.35 24.66 440.08 23.99 439.54 23.55C439 23.11 438.14 22.89 436.96 22.89H431.81V28.25Z" fill="#BBED16"/>
<path d="M494.44 42C506.038 42 515.44 32.598 515.44 21C515.44 9.40202 506.038 0 494.44 0C482.842 0 473.44 9.40202 473.44 21C473.44 32.598 482.842 42 494.44 42Z" fill="#FF8000"/>
<path d="M494.98 33.0004C492.28 33.0004 489.97 32.4804 488.03 31.4404C486.09 30.4004 484.61 28.9403 483.59 27.0504C482.56 25.1604 482.05 22.9504 482.05 20.4104C482.05 17.8704 482.56 15.6704 483.59 13.7904C484.62 11.9104 486.1 10.4504 488.03 9.42035C489.97 8.38035 492.28 7.86035 494.98 7.86035C496.04 7.86035 497.14 7.98035 498.28 8.22035C499.42 8.46035 500.43 8.82035 501.31 9.31035C501.95 9.66035 502.4 10.0904 502.66 10.6204C502.91 11.1504 503.01 11.6904 502.94 12.2504C502.87 12.8004 502.67 13.3004 502.33 13.7404C502 14.1804 501.57 14.4704 501.07 14.6204C500.56 14.7704 500.01 14.6904 499.41 14.4004C498.05 13.7304 496.66 13.4004 495.23 13.4004C493.09 13.4004 491.47 14.0104 490.39 15.2204C489.31 16.4304 488.76 18.1704 488.76 20.4204C488.76 22.6704 489.3 24.4504 490.39 25.6604C491.47 26.8703 493.09 27.4804 495.23 27.4804C495.83 27.4804 496.47 27.4104 497.17 27.2604C497.86 27.1104 498.54 26.8703 499.21 26.5504C499.9 26.2504 500.52 26.1704 501.06 26.3104C501.6 26.4503 502.05 26.7204 502.39 27.1404C502.74 27.5504 502.95 28.0304 503.03 28.5804C503.11 29.1204 503.03 29.6604 502.81 30.1904C502.58 30.7204 502.15 31.1504 501.53 31.4704C500.72 31.9503 499.73 32.3304 498.54 32.6104C497.35 32.8904 496.17 33.0204 495 33.0204L494.98 33.0004Z" fill="#FFDC00"/>
<path d="M671.11 42C682.708 42 692.11 32.598 692.11 21C692.11 9.40202 682.708 0 671.11 0C659.512 0 650.11 9.40202 650.11 21C650.11 32.598 659.512 42 671.11 42Z" fill="#0078FF"/>
<path d="M671.47 5.15961C671.28 5.11961 671.09 5.09961 670.89 5.09961C669.81 5.11961 668.87 5.82961 668.56 6.85961L666.19 14.6396L658.06 14.7896C656.98 14.8096 656.04 15.5196 655.73 16.5496C655.42 17.5796 655.8 18.6896 656.68 19.3096L663.35 23.9696L660.98 31.7496C660.67 32.7796 661.05 33.8896 661.93 34.5096C662.2 34.6996 662.5 34.8296 662.81 34.8996C663.51 35.0496 664.25 34.8996 664.85 34.4596L671.34 29.5596L678.01 34.2196C678.28 34.4096 678.58 34.5396 678.89 34.6096C679.59 34.7596 680.33 34.6096 680.92 34.1696C681.78 33.5196 682.12 32.3896 681.77 31.3796L679.11 23.6896L685.54 18.8296C686.02 18.4896 686.38 17.9696 686.52 17.3496C686.81 16.0396 686.01 14.7396 684.72 14.4096C684.69 14.4096 684.66 14.3996 684.63 14.3896C684.57 14.3796 684.5 14.3596 684.44 14.3496C684.29 14.3296 684.14 14.3196 683.99 14.3296L675.92 14.4796L673.27 6.79961C672.98 5.96961 672.29 5.36961 671.46 5.18961L671.47 5.15961Z" fill="#2FBDEB"/>
<path d="M612.22 42C623.818 42 633.22 32.598 633.22 21C633.22 9.40202 623.818 0 612.22 0C600.622 0 591.22 9.40202 591.22 21C591.22 32.598 600.622 42 612.22 42Z" fill="#FF92FF"/>
<path d="M612.04 14.8898C612.04 14.8898 605.45 6.77982 600.24 10.8998C591.42 17.8598 612.04 34.8398 612.04 34.8398C612.04 34.8398 631.79 18.7798 623.44 11.3598C617.06 5.68982 612.04 14.8898 612.04 14.8898Z" fill="#FF0000"/>
<path d="M553.33 42C564.928 42 574.33 32.598 574.33 21C574.33 9.40202 564.928 0 553.33 0C541.732 0 532.33 9.40202 532.33 21C532.33 32.598 541.732 42 553.33 42Z" fill="#FFDC00"/>
<path d="M550.91 10.5501L552.27 22.4701C550.08 22.0501 547.27 22.9601 544.99 25.0901C541.76 28.1001 540.84 32.3501 542.92 34.5801C545 36.8101 549.3 36.1801 552.53 33.1701C555.03 30.8401 556.13 27.7801 555.54 25.4701L554.24 14.9101C554.24 14.9101 556.41 14.6801 560.07 13.2101C563.73 11.7401 562.13 4.83008 562.13 4.83008L550.91 10.5401V10.5501Z" fill="#FF8000"/>
<path d="M81.9299 200.21C93.5279 200.21 102.93 190.808 102.93 179.21C102.93 167.612 93.5279 158.21 81.9299 158.21C70.332 158.21 60.9299 167.612 60.9299 179.21C60.9299 190.808 70.332 200.21 81.9299 200.21Z" fill="#FFBD00"/>
<path d="M92.7899 168.55H70.6799V190.66H92.7899V168.55Z" fill="#FF0000"/>
<path d="M23.04 200.21C34.638 200.21 44.04 190.808 44.04 179.21C44.04 167.612 34.638 158.21 23.04 158.21C11.4421 158.21 2.04004 167.612 2.04004 179.21C2.04004 190.808 11.4421 200.21 23.04 200.21Z" fill="#99CF16"/>
<path d="M23.04 192.55C30.4074 192.55 36.3799 186.578 36.3799 179.21C36.3799 171.843 30.4074 165.87 23.04 165.87C15.6725 165.87 9.69995 171.843 9.69995 179.21C9.69995 186.578 15.6725 192.55 23.04 192.55Z" fill="#00A84E"/>
<path d="M140.82 200.21C152.418 200.21 161.82 190.808 161.82 179.21C161.82 167.612 152.418 158.21 140.82 158.21C129.222 158.21 119.82 167.612 119.82 179.21C119.82 190.808 129.222 200.21 140.82 200.21Z" fill="#002C8D"/>
<path d="M140.82 163.9L126.52 188.66H155.11L140.82 163.9Z" fill="#2FBDEB"/>
<path d="M199.71 200.21C211.308 200.21 220.71 190.808 220.71 179.21C220.71 167.612 211.308 158.21 199.71 158.21C188.112 158.21 178.71 167.612 178.71 179.21C178.71 190.808 188.112 200.21 199.71 200.21Z" fill="#A220DF"/>
<path d="M189.58 190.13C188.5 190.13 187.7 189.76 187.19 189.02C186.68 188.28 186.68 187.36 187.19 186.25L195.8 167.72C196.21 166.82 196.72 166.16 197.32 165.75C197.92 165.34 198.62 165.13 199.43 165.13C200.24 165.13 200.9 165.34 201.5 165.75C202.1 166.16 202.61 166.82 203.02 167.72L211.63 186.25C212.16 187.38 212.18 188.31 211.7 189.03C211.22 189.75 210.46 190.12 209.42 190.12C208.5 190.12 207.79 189.91 207.29 189.5C206.79 189.09 206.35 188.42 205.96 187.49L204.85 184.86H193.96L192.85 187.49C192.44 188.41 192.01 189.08 191.57 189.5C191.13 189.91 190.46 190.12 189.56 190.12L189.58 190.13ZM199.36 172.08L196.04 180H202.75L199.43 172.08H199.36Z" fill="#CA8FFF"/>
<path d="M258.6 200.21C270.198 200.21 279.6 190.808 279.6 179.21C279.6 167.612 270.198 158.21 258.6 158.21C247.002 158.21 237.6 167.612 237.6 179.21C237.6 190.808 247.002 200.21 258.6 200.21Z" fill="#00A84E"/>
<path d="M252.1 191.13C249.89 191.13 248.78 190.04 248.78 187.84V170.03C248.78 167.84 249.89 166.74 252.1 166.74H260.54C263.17 166.74 265.2 167.31 266.64 168.45C268.08 169.59 268.8 171.12 268.8 173.03C268.8 174.3 268.48 175.4 267.85 176.35C267.22 177.3 266.33 178 265.2 178.46C266.56 178.87 267.61 179.57 268.35 180.55C269.09 181.53 269.46 182.75 269.46 184.2C269.46 186.34 268.69 188.03 267.16 189.27C265.63 190.5 263.53 191.12 260.88 191.12H252.1V191.13ZM254.87 176.44H259.4C260.55 176.44 261.4 176.23 261.94 175.82C262.48 175.41 262.75 174.77 262.75 173.92C262.75 173.07 262.48 172.44 261.94 172.04C261.4 171.64 260.55 171.43 259.4 171.43H254.87V176.44ZM254.87 186.46H260.02C261.2 186.46 262.05 186.24 262.6 185.79C263.14 185.34 263.41 184.67 263.41 183.77C263.41 182.87 263.14 182.2 262.6 181.76C262.06 181.32 261.2 181.1 260.02 181.1H254.87V186.46Z" fill="#BBED16"/>
<path d="M317.49 200.21C329.088 200.21 338.49 190.808 338.49 179.21C338.49 167.612 329.088 158.21 317.49 158.21C305.892 158.21 296.49 167.612 296.49 179.21C296.49 190.808 305.892 200.21 317.49 200.21Z" fill="#FF8000"/>
<path d="M318.04 191.21C315.34 191.21 313.03 190.69 311.09 189.65C309.15 188.61 307.67 187.15 306.65 185.26C305.62 183.37 305.11 181.16 305.11 178.62C305.11 176.08 305.62 173.88 306.65 172C307.68 170.12 309.16 168.66 311.09 167.63C313.03 166.59 315.34 166.07 318.04 166.07C319.1 166.07 320.2 166.19 321.34 166.43C322.48 166.67 323.49 167.03 324.37 167.52C325.01 167.87 325.46 168.3 325.72 168.83C325.97 169.36 326.07 169.9 326 170.46C325.93 171.01 325.73 171.51 325.39 171.95C325.06 172.39 324.63 172.68 324.13 172.83C323.62 172.98 323.07 172.9 322.47 172.61C321.11 171.94 319.72 171.61 318.29 171.61C316.15 171.61 314.53 172.22 313.45 173.43C312.37 174.64 311.82 176.38 311.82 178.63C311.82 180.88 312.36 182.66 313.45 183.87C314.53 185.08 316.15 185.69 318.29 185.69C318.89 185.69 319.53 185.62 320.23 185.47C320.92 185.32 321.6 185.08 322.27 184.76C322.96 184.46 323.58 184.38 324.12 184.52C324.66 184.66 325.11 184.93 325.45 185.35C325.8 185.76 326.01 186.24 326.09 186.79C326.17 187.33 326.09 187.87 325.87 188.4C325.64 188.93 325.21 189.36 324.59 189.68C323.78 190.16 322.79 190.54 321.6 190.82C320.41 191.1 319.23 191.23 318.06 191.23L318.04 191.21Z" fill="#FFDC00"/>
<path d="M23.04 147.47C34.638 147.47 44.04 138.068 44.04 126.47C44.04 114.872 34.638 105.47 23.04 105.47C11.4421 105.47 2.04004 114.872 2.04004 126.47C2.04004 138.068 11.4421 147.47 23.04 147.47Z" fill="#FF0000"/>
<path d="M16.35 138.82C14.45 138.82 13.5 137.88 13.5 136.01C13.5 134.14 14.45 133.24 16.35 133.24H19.72V119.88L17.44 121.27C16.79 121.67 16.18 121.83 15.61 121.74C15.04 121.65 14.55 121.41 14.15 121.01C13.75 120.61 13.49 120.12 13.36 119.55C13.23 118.98 13.29 118.4 13.51 117.83C13.73 117.26 14.18 116.77 14.86 116.37L20.03 113.15C21.15 112.45 22.34 112.1 23.59 112.1C24.54 112.1 25.27 112.34 25.8 112.83C26.32 113.32 26.59 114.02 26.59 114.94V133.25H29.58C31.48 133.25 32.43 134.17 32.43 136.02C32.43 137.87 31.48 138.83 29.58 138.83H16.37L16.35 138.82Z" fill="#FFBD00"/>
<path d="M81.9299 147.47C93.5279 147.47 102.93 138.068 102.93 126.47C102.93 114.872 93.5279 105.47 81.9299 105.47C70.332 105.47 60.9299 114.872 60.9299 126.47C60.9299 138.068 70.332 147.47 81.9299 147.47Z" fill="#6600BD"/>
<path d="M76.3499 139.18C75.2499 139.18 74.4599 138.92 73.9699 138.41C73.4799 137.9 73.2399 137.14 73.2399 136.15C73.2399 135.45 73.3899 134.83 73.6899 134.28C73.9899 133.73 74.3999 133.19 74.9299 132.67L81.4799 125.82C82.4499 124.8 83.1499 123.91 83.5599 123.14C83.9699 122.38 84.1799 121.62 84.1799 120.88C84.1799 118.98 82.9699 118.03 80.5499 118.03C79.9499 118.03 79.3099 118.11 78.6199 118.27C77.9299 118.43 77.2199 118.71 76.4699 119.11C75.7999 119.43 75.1799 119.53 74.6399 119.39C74.0899 119.25 73.6399 118.97 73.2899 118.55C72.9399 118.13 72.7199 117.64 72.6299 117.09C72.5399 116.54 72.6299 116 72.8699 115.46C73.1199 114.92 73.5699 114.48 74.2199 114.13C75.3699 113.53 76.5599 113.09 77.7899 112.8C79.0299 112.51 80.2699 112.37 81.5099 112.37C84.5499 112.37 86.8799 113.03 88.4899 114.35C90.0999 115.67 90.8999 117.58 90.8999 120.08C90.8999 121.68 90.5399 123.2 89.8099 124.65C89.0899 126.1 87.8799 127.66 86.1799 129.33L81.9099 133.6H89.3599C91.2599 133.6 92.1999 134.52 92.1999 136.37C92.1999 138.22 91.2499 139.18 89.3599 139.18H76.3299H76.3499Z" fill="#E93594"/>
<path d="M140.82 147.47C152.418 147.47 161.82 138.068 161.82 126.47C161.82 114.872 152.418 105.47 140.82 105.47C129.222 105.47 119.82 114.872 119.82 126.47C119.82 138.068 129.222 147.47 140.82 147.47Z" fill="#2FBDEB"/>
<path d="M140.14 139.59C138.84 139.59 137.56 139.46 136.3 139.22C135.04 138.97 133.95 138.62 133.02 138.17C132.25 137.8 131.7 137.33 131.37 136.78C131.05 136.23 130.91 135.67 130.96 135.1C131.01 134.53 131.22 134.01 131.58 133.57C131.94 133.12 132.42 132.82 133 132.65C133.59 132.49 134.25 132.57 135 132.89C135.92 133.29 136.77 133.56 137.55 133.71C138.32 133.86 139.1 133.93 139.87 133.93C142.57 133.93 143.91 133.01 143.91 131.16C143.91 129.46 142.71 128.61 140.32 128.61H138.3C137.35 128.61 136.63 128.37 136.13 127.9C135.63 127.43 135.38 126.75 135.38 125.88C135.38 125.01 135.63 124.33 136.13 123.86C136.63 123.39 137.35 123.15 138.3 123.15H139.65C140.72 123.15 141.57 122.93 142.18 122.48C142.79 122.03 143.1 121.38 143.1 120.53C143.1 118.86 141.94 118.02 139.62 118.02C138.92 118.02 138.21 118.09 137.49 118.24C136.77 118.39 135.99 118.65 135.17 119.03C134.52 119.3 133.93 119.37 133.39 119.22C132.85 119.07 132.41 118.78 132.06 118.36C131.71 117.94 131.5 117.44 131.42 116.88C131.35 116.32 131.44 115.78 131.72 115.27C131.99 114.76 132.47 114.33 133.14 113.98C135.29 112.91 137.67 112.37 140.29 112.37C143.23 112.37 145.53 113.01 147.18 114.3C148.83 115.59 149.65 117.36 149.65 119.63C149.65 120.98 149.31 122.16 148.64 123.19C147.97 124.21 147.03 124.96 145.83 125.44C147.3 125.86 148.44 126.64 149.26 127.76C150.07 128.88 150.48 130.24 150.48 131.84C150.48 134.24 149.56 136.13 147.73 137.51C145.9 138.89 143.37 139.59 140.15 139.59H140.14Z" fill="#0078FF"/>
<path d="M258.6 147.47C270.198 147.47 279.6 138.068 279.6 126.47C279.6 114.872 270.198 105.47 258.6 105.47C247.002 105.47 237.6 114.872 237.6 126.47C237.6 138.068 247.002 147.47 258.6 147.47Z" fill="#FFBD00"/>
<path d="M269.46 115.81H247.35V137.92H269.46V115.81Z" fill="#FF0000"/>
<path d="M199.71 147.47C211.308 147.47 220.71 138.068 220.71 126.47C220.71 114.872 211.308 105.47 199.71 105.47C188.112 105.47 178.71 114.872 178.71 126.47C178.71 138.068 188.112 147.47 199.71 147.47Z" fill="#99CF16"/>
<path d="M199.71 139.81C207.077 139.81 213.05 133.837 213.05 126.47C213.05 119.102 207.077 113.13 199.71 113.13C192.342 113.13 186.37 119.102 186.37 126.47C186.37 133.837 192.342 139.81 199.71 139.81Z" fill="#00A84E"/>
<path d="M317.49 147.47C329.088 147.47 338.49 138.068 338.49 126.47C338.49 114.872 329.088 105.47 317.49 105.47C305.892 105.47 296.49 114.872 296.49 126.47C296.49 138.068 305.892 147.47 317.49 147.47Z" fill="#002C8D"/>
<path d="M317.49 111.16L303.2 135.92H331.79L317.49 111.16Z" fill="#2FBDEB"/>
<path d="M140.82 94.7402C152.418 94.7402 161.82 85.3382 161.82 73.7402C161.82 62.1423 152.418 52.7402 140.82 52.7402C129.222 52.7402 119.82 62.1423 119.82 73.7402C119.82 85.3382 129.222 94.7402 140.82 94.7402Z" fill="#0078FF"/>
<path d="M141.18 57.8901C140.99 57.8501 140.8 57.8301 140.6 57.8301C139.52 57.8501 138.58 58.5601 138.27 59.5901L135.9 67.3701L127.77 67.5201C126.69 67.5401 125.75 68.2501 125.44 69.2801C125.13 70.3101 125.51 71.4201 126.39 72.0401L133.06 76.7001L130.69 84.4801C130.38 85.5101 130.76 86.6201 131.64 87.2401C131.91 87.4301 132.21 87.5601 132.52 87.6301C133.22 87.7801 133.96 87.6301 134.56 87.1901L141.05 82.2901L147.72 86.9501C147.99 87.1401 148.29 87.2701 148.6 87.3401C149.3 87.4901 150.04 87.3401 150.63 86.9001C151.49 86.2501 151.83 85.1201 151.48 84.1101L148.82 76.4201L155.25 71.5601C155.73 71.2201 156.09 70.7001 156.23 70.0801C156.52 68.7701 155.72 67.4701 154.43 67.1401C154.4 67.1401 154.37 67.1301 154.34 67.1201C154.28 67.1101 154.21 67.0901 154.15 67.0801C154 67.0601 153.85 67.0501 153.7 67.0601L145.63 67.2101L142.98 59.5301C142.69 58.7001 142 58.1001 141.17 57.9201L141.18 57.8901Z" fill="#2FBDEB"/>
<path d="M81.9299 94.7402C93.5279 94.7402 102.93 85.3382 102.93 73.7402C102.93 62.1423 93.5279 52.7402 81.9299 52.7402C70.332 52.7402 60.9299 62.1423 60.9299 73.7402C60.9299 85.3382 70.332 94.7402 81.9299 94.7402Z" fill="#FF92FF"/>
<path d="M81.7499 67.6301C81.7499 67.6301 75.1599 59.5201 69.9499 63.6401C61.1299 70.6001 81.7499 87.5801 81.7499 87.5801C81.7499 87.5801 101.5 71.5201 93.1499 64.1001C86.7699 58.4301 81.7499 67.6301 81.7499 67.6301Z" fill="#FF0000"/>
<path d="M23.04 94.7402C34.638 94.7402 44.04 85.3382 44.04 73.7402C44.04 62.1423 34.638 52.7402 23.04 52.7402C11.4421 52.7402 2.04004 62.1423 2.04004 73.7402C2.04004 85.3382 11.4421 94.7402 23.04 94.7402Z" fill="#FFDC00"/>
<path d="M20.62 63.2796L21.98 75.1996C19.79 74.7796 16.98 75.6896 14.7 77.8196C11.47 80.8296 10.55 85.0796 12.63 87.3096C14.71 89.5396 19.01 88.9096 22.24 85.8996C24.74 83.5696 25.84 80.5096 25.25 78.1996L23.95 67.6396C23.95 67.6396 26.12 67.4096 29.78 65.9396C33.44 64.4696 31.84 57.5596 31.84 57.5596L20.62 63.2696V63.2796Z" fill="#FF8000"/>
<path d="M199.71 94.7402C211.308 94.7402 220.71 85.3382 220.71 73.7402C220.71 62.1423 211.308 52.7402 199.71 52.7402C188.112 52.7402 178.71 62.1423 178.71 73.7402C178.71 85.3382 188.112 94.7402 199.71 94.7402Z" fill="#FF0000"/>
<path d="M193.03 86.0804C191.13 86.0804 190.18 85.1403 190.18 83.2703C190.18 81.4003 191.13 80.5004 193.03 80.5004H196.4V67.1404L194.12 68.5303C193.47 68.9303 192.86 69.0904 192.29 69.0004C191.72 68.9104 191.23 68.6703 190.83 68.2703C190.43 67.8703 190.17 67.3803 190.04 66.8103C189.91 66.2403 189.97 65.6603 190.19 65.0903C190.41 64.5203 190.86 64.0304 191.54 63.6304L196.71 60.4104C197.83 59.7104 199.02 59.3604 200.27 59.3604C201.22 59.3604 201.95 59.6004 202.48 60.0904C203 60.5804 203.27 61.2804 203.27 62.2004V80.5104H206.26C208.16 80.5104 209.11 81.4303 209.11 83.2803C209.11 85.1304 208.16 86.0903 206.26 86.0903H193.05L193.03 86.0804Z" fill="#FFBD00"/>
<path d="M258.6 94.7402C270.198 94.7402 279.6 85.3382 279.6 73.7402C279.6 62.1423 270.198 52.7402 258.6 52.7402C247.002 52.7402 237.6 62.1423 237.6 73.7402C237.6 85.3382 247.002 94.7402 258.6 94.7402Z" fill="#6600BD"/>
<path d="M253.02 86.4399C251.92 86.4399 251.13 86.1799 250.64 85.6699C250.15 85.1599 249.91 84.3999 249.91 83.4099C249.91 82.7099 250.06 82.0899 250.36 81.5399C250.66 80.9899 251.07 80.4499 251.6 79.9299L258.15 73.0799C259.12 72.0599 259.82 71.1699 260.23 70.3999C260.64 69.6399 260.85 68.8799 260.85 68.1399C260.85 66.2399 259.64 65.2899 257.22 65.2899C256.62 65.2899 255.98 65.3699 255.29 65.5299C254.6 65.6899 253.89 65.9699 253.14 66.3699C252.47 66.6899 251.85 66.7899 251.31 66.6499C250.76 66.5099 250.31 66.2299 249.96 65.8099C249.61 65.3899 249.39 64.8999 249.3 64.3499C249.21 63.7999 249.3 63.2599 249.54 62.7199C249.79 62.1799 250.24 61.7399 250.89 61.3899C252.04 60.7899 253.23 60.3499 254.46 60.0599C255.7 59.7699 256.94 59.6299 258.18 59.6299C261.22 59.6299 263.55 60.2899 265.16 61.6099C266.77 62.9299 267.57 64.8399 267.57 67.3399C267.57 68.9399 267.21 70.4599 266.48 71.9099C265.76 73.3599 264.55 74.9199 262.85 76.5899L258.58 80.8599H266.03C267.93 80.8599 268.87 81.7799 268.87 83.6299C268.87 85.4799 267.92 86.4399 266.03 86.4399H253H253.02Z" fill="#E93594"/>
<path d="M317.49 94.7402C329.088 94.7402 338.49 85.3382 338.49 73.7402C338.49 62.1423 329.088 52.7402 317.49 52.7402C305.892 52.7402 296.49 62.1423 296.49 73.7402C296.49 85.3382 305.892 94.7402 317.49 94.7402Z" fill="#2FBDEB"/>
<path d="M316.82 86.8499C315.52 86.8499 314.24 86.7199 312.98 86.4799C311.72 86.2299 310.63 85.8799 309.7 85.4299C308.93 85.0599 308.38 84.5899 308.05 84.0399C307.73 83.4899 307.59 82.9299 307.64 82.3599C307.69 81.7899 307.9 81.2699 308.26 80.8299C308.62 80.3799 309.1 80.0799 309.68 79.9099C310.27 79.7499 310.93 79.8299 311.68 80.1499C312.6 80.5499 313.45 80.8199 314.23 80.9699C315 81.1199 315.78 81.1899 316.55 81.1899C319.25 81.1899 320.59 80.2699 320.59 78.4199C320.59 76.7199 319.39 75.8699 317 75.8699H314.98C314.03 75.8699 313.31 75.6299 312.81 75.1599C312.31 74.6899 312.06 74.0099 312.06 73.1399C312.06 72.2699 312.31 71.5899 312.81 71.1199C313.31 70.6499 314.03 70.4099 314.98 70.4099H316.33C317.4 70.4099 318.25 70.1899 318.86 69.7399C319.47 69.2899 319.78 68.6399 319.78 67.7899C319.78 66.1199 318.62 65.2799 316.3 65.2799C315.6 65.2799 314.89 65.3499 314.17 65.4999C313.45 65.6499 312.67 65.9099 311.85 66.2899C311.2 66.5599 310.61 66.6299 310.07 66.4799C309.53 66.3299 309.09 66.0399 308.74 65.6199C308.39 65.1999 308.18 64.6999 308.1 64.1399C308.03 63.5799 308.12 63.0399 308.4 62.5299C308.67 62.0199 309.15 61.5899 309.82 61.2399C311.97 60.1699 314.35 59.6299 316.97 59.6299C319.91 59.6299 322.21 60.2699 323.86 61.5599C325.51 62.8499 326.33 64.6199 326.33 66.8899C326.33 68.2399 325.99 69.4199 325.32 70.4499C324.65 71.4699 323.71 72.2199 322.51 72.6999C323.98 73.1199 325.12 73.8999 325.94 75.0199C326.75 76.1399 327.16 77.4999 327.16 79.0999C327.16 81.4999 326.24 83.3899 324.41 84.7699C322.58 86.1599 320.05 86.8499 316.83 86.8499H316.82Z" fill="#0078FF"/>
<path d="M21.71 42C33.3079 42 42.71 32.598 42.71 21C42.71 9.40202 33.3079 0 21.71 0C10.112 0 0.709961 9.40202 0.709961 21C0.709961 32.598 10.112 42 21.71 42Z" fill="#A220DF"/>
<path d="M11.5799 31.9199C10.4999 31.9199 9.69987 31.5499 9.18987 30.8099C8.67987 30.0699 8.67987 29.1499 9.18987 28.0399L17.7999 9.50992C18.2099 8.60992 18.7199 7.94992 19.3199 7.53992C19.9199 7.12992 20.6199 6.91992 21.4299 6.91992C22.2399 6.91992 22.8999 7.12992 23.4999 7.53992C24.0999 7.94992 24.6099 8.60992 25.0199 9.50992L33.6299 28.0399C34.1599 29.1699 34.1799 30.0999 33.6999 30.8199C33.2199 31.5399 32.4599 31.9099 31.4199 31.9099C30.4999 31.9099 29.7899 31.6999 29.2899 31.2899C28.7899 30.8799 28.3499 30.2099 27.9599 29.2799L26.8499 26.6499H15.9599L14.8499 29.2799C14.4399 30.1999 14.0099 30.8699 13.5699 31.2899C13.1299 31.6999 12.4599 31.9099 11.5599 31.9099L11.5799 31.9199ZM21.3599 13.8699L18.0399 21.7899H24.7499L21.4299 13.8699H21.3599Z" fill="#CA8FFF"/>
<path d="M80.5999 42C92.1978 42 101.6 32.598 101.6 21C101.6 9.40202 92.1978 0 80.5999 0C69.0019 0 59.5999 9.40202 59.5999 21C59.5999 32.598 69.0019 42 80.5999 42Z" fill="#00A84E"/>
<path d="M74.1 32.92C71.89 32.92 70.78 31.83 70.78 29.63V11.83C70.78 9.64004 71.89 8.54004 74.1 8.54004H82.54C85.17 8.54004 87.2 9.11004 88.64 10.25C90.08 11.39 90.8 12.92 90.8 14.83C90.8 16.1 90.48 17.2 89.85 18.15C89.22 19.1 88.33 19.8 87.2 20.26C88.56 20.67 89.61 21.37 90.35 22.35C91.09 23.33 91.46 24.55 91.46 26C91.46 28.14 90.69 29.83 89.16 31.07C87.63 32.3 85.53 32.92 82.88 32.92H74.1ZM76.87 18.23H81.4C82.55 18.23 83.4 18.02 83.94 17.61C84.48 17.2 84.75 16.56 84.75 15.71C84.75 14.86 84.48 14.23 83.94 13.83C83.4 13.43 82.55 13.22 81.4 13.22H76.87V18.23ZM76.87 28.25H82.02C83.2 28.25 84.05 28.03 84.6 27.58C85.14 27.13 85.41 26.46 85.41 25.56C85.41 24.66 85.14 23.99 84.6 23.55C84.06 23.11 83.2 22.89 82.02 22.89H76.87V28.25Z" fill="#BBED16"/>
<path d="M139.49 42C151.088 42 160.49 32.598 160.49 21C160.49 9.40202 151.088 0 139.49 0C127.892 0 118.49 9.40202 118.49 21C118.49 32.598 127.892 42 139.49 42Z" fill="#FF8000"/>
<path d="M140.04 33.0004C137.34 33.0004 135.03 32.4804 133.09 31.4404C131.15 30.4004 129.67 28.9403 128.65 27.0504C127.62 25.1604 127.11 22.9504 127.11 20.4104C127.11 17.8704 127.62 15.6704 128.65 13.7904C129.68 11.9104 131.16 10.4504 133.09 9.42035C135.03 8.38035 137.34 7.86035 140.04 7.86035C141.1 7.86035 142.2 7.98035 143.34 8.22035C144.48 8.46035 145.49 8.82035 146.37 9.31035C147.01 9.66035 147.46 10.0904 147.72 10.6204C147.97 11.1504 148.07 11.6904 148 12.2504C147.93 12.8004 147.73 13.3004 147.39 13.7404C147.06 14.1804 146.63 14.4704 146.13 14.6204C145.62 14.7704 145.07 14.6904 144.47 14.4004C143.11 13.7304 141.72 13.4004 140.29 13.4004C138.15 13.4004 136.53 14.0104 135.45 15.2204C134.37 16.4304 133.82 18.1704 133.82 20.4204C133.82 22.6704 134.36 24.4504 135.45 25.6604C136.53 26.8703 138.15 27.4804 140.29 27.4804C140.89 27.4804 141.53 27.4104 142.23 27.2604C142.92 27.1104 143.6 26.8703 144.27 26.5504C144.96 26.2504 145.58 26.1704 146.12 26.3104C146.66 26.4503 147.11 26.7204 147.45 27.1404C147.8 27.5504 148.01 28.0304 148.09 28.5804C148.17 29.1204 148.09 29.6604 147.87 30.1904C147.64 30.7204 147.21 31.1504 146.59 31.4704C145.78 31.9503 144.79 32.3304 143.6 32.6104C142.41 32.8904 141.23 33.0204 140.06 33.0204L140.04 33.0004Z" fill="#FFDC00"/>
<path d="M316.17 42C327.768 42 337.17 32.598 337.17 21C337.17 9.40202 327.768 0 316.17 0C304.572 0 295.17 9.40202 295.17 21C295.17 32.598 304.572 42 316.17 42Z" fill="#0078FF"/>
<path d="M316.53 5.15961C316.34 5.11961 316.15 5.09961 315.95 5.09961C314.87 5.11961 313.93 5.82961 313.62 6.85961L311.25 14.6396L303.12 14.7896C302.04 14.8096 301.1 15.5196 300.79 16.5496C300.48 17.5796 300.86 18.6896 301.74 19.3096L308.41 23.9696L306.04 31.7496C305.73 32.7796 306.11 33.8896 306.99 34.5096C307.26 34.6996 307.56 34.8296 307.87 34.8996C308.57 35.0496 309.31 34.8996 309.91 34.4596L316.4 29.5596L323.07 34.2196C323.34 34.4096 323.64 34.5396 323.95 34.6096C324.65 34.7596 325.39 34.6096 325.98 34.1696C326.84 33.5196 327.18 32.3896 326.83 31.3796L324.17 23.6896L330.6 18.8296C331.08 18.4896 331.44 17.9696 331.58 17.3496C331.87 16.0396 331.07 14.7396 329.78 14.4096C329.75 14.4096 329.72 14.3996 329.69 14.3896C329.63 14.3796 329.56 14.3596 329.5 14.3496C329.35 14.3296 329.2 14.3196 329.05 14.3296L320.98 14.4796L318.33 6.79961C318.04 5.96961 317.35 5.36961 316.52 5.18961L316.53 5.15961Z" fill="#2FBDEB"/>
<path d="M257.28 42C268.878 42 278.28 32.598 278.28 21C278.28 9.40202 268.878 0 257.28 0C245.682 0 236.28 9.40202 236.28 21C236.28 32.598 245.682 42 257.28 42Z" fill="#FF92FF"/>
<path d="M257.1 14.8898C257.1 14.8898 250.51 6.77982 245.3 10.8998C236.48 17.8598 257.1 34.8398 257.1 34.8398C257.1 34.8398 276.85 18.7798 268.5 11.3598C262.12 5.68982 257.1 14.8898 257.1 14.8898Z" fill="#FF0000"/>
<path d="M198.38 42C209.978 42 219.38 32.598 219.38 21C219.38 9.40202 209.978 0 198.38 0C186.782 0 177.38 9.40202 177.38 21C177.38 32.598 186.782 42 198.38 42Z" fill="#FFDC00"/>
<path d="M195.97 10.5501L197.33 22.4701C195.14 22.0501 192.33 22.9601 190.05 25.0901C186.82 28.1001 185.9 32.3501 187.98 34.5801C190.06 36.8101 194.36 36.1801 197.59 33.1701C200.09 30.8401 201.19 27.7801 200.6 25.4701L199.3 14.9101C199.3 14.9101 201.47 14.6801 205.13 13.2101C208.79 11.7401 207.19 4.83008 207.19 4.83008L195.97 10.5401V10.5501Z" fill="#FF8000"/>
</g>
<defs>
<clipPath id="clip0_180_5503">
<rect width="1400.29" height="200.21" fill="white" transform="translate(0.709961)"/>
</clipPath>
</defs>
</svg>
