<svg width="42" height="42" viewBox="0 0 42 42" fill="none" xmlns="http://www.w3.org/2000/svg">
<path d="M21 0.370117C9.62711 0.370117 0.370117 9.6271 0.370117 21C0.370117 32.3728 9.62711 41.6298 21 41.6298C32.3728 41.6298 41.6298 32.3728 41.6298 21C41.6298 9.6271 32.3728 0.370117 21 0.370117Z" fill="white"/>
<path d="M21 39C30.9411 39 39 30.9411 39 21C39 11.0589 30.9411 3 21 3C11.0589 3 3 11.0589 3 21C3 30.9411 11.0589 39 21 39Z" fill="#0078FF"/>
<path d="M21.5444 6.36294C21.3706 6.32515 21.1968 6.30248 21.0154 6.31004C20.0331 6.32516 19.1791 6.97503 18.8995 7.91207L16.7459 14.9927L9.34785 15.1287C8.36548 15.1439 7.51156 15.7937 7.22441 16.7308C6.94481 17.6678 7.29242 18.6804 8.09343 19.2472L14.1615 23.4865L12.0078 30.5671C11.7207 31.5042 12.0758 32.5168 12.8768 33.076C13.1262 33.2498 13.3983 33.3707 13.6778 33.4311C14.3126 33.5747 14.9927 33.4311 15.5292 33.0306L21.4386 28.5721L27.5067 32.8115C27.756 32.9853 28.0281 33.0986 28.3077 33.1666C28.9424 33.3102 29.615 33.1666 30.1591 32.7661C30.945 32.1767 31.2548 31.149 30.9374 30.2271L28.5193 23.2295L34.3757 18.8013C34.814 18.4915 35.1465 18.0154 35.2674 17.4487C35.5319 16.2547 34.7989 15.0758 33.6276 14.766C33.5974 14.766 33.5747 14.7509 33.5445 14.7509C33.484 14.7358 33.4236 14.7282 33.3707 14.7207C33.2346 14.7056 33.0986 14.6904 32.9626 14.698L25.6099 14.834L23.1918 7.8365C22.9273 7.08083 22.3001 6.53674 21.5444 6.3705V6.36294Z" fill="#2FBCEA"/>
</svg>
