<svg width="26" height="25" viewBox="0 0 26 25" fill="none" xmlns="http://www.w3.org/2000/svg">
<path d="M15.92 7.07007H9.58995C8.33995 7.07007 7.32996 8.08007 7.32996 9.33007V15.6601C7.32996 16.9101 8.33995 17.9201 9.58995 17.9201H15.92C17.17 17.9201 18.18 16.9101 18.18 15.6601V9.33007C18.18 8.08007 17.17 7.07007 15.92 7.07007ZM12.77 15.8901C10.9 15.8901 9.37995 14.3701 9.37995 12.5001C9.37995 10.6301 10.9 9.11007 12.77 9.11007C14.64 9.11007 16.16 10.6301 16.16 12.5001C16.16 14.3701 14.64 15.8901 12.77 15.8901ZM16.38 9.56007C16.01 9.56007 15.7 9.26007 15.7 8.88007C15.7 8.50007 16 8.20007 16.38 8.20007C16.76 8.20007 17.06 8.50007 17.06 8.88007C17.06 9.26007 16.76 9.56007 16.38 9.56007Z" fill="white"/>
<path d="M12.77 10.24C11.52 10.24 10.51 11.26 10.51 12.5C10.51 13.74 11.53 14.76 12.77 14.76C14.01 14.76 15.03 13.74 15.03 12.5C15.03 11.26 14.01 10.24 12.77 10.24Z" fill="white"/>
<path d="M12.76 0C5.86001 0 0.26001 5.6 0.26001 12.5C0.26001 19.4 5.86001 25 12.76 25C19.66 25 25.26 19.4 25.26 12.5C25.26 5.6 19.66 0 12.76 0ZM19.32 15.89C19.32 17.64 17.9 19.06 16.15 19.06H9.37001C7.62001 19.06 6.2 17.64 6.2 15.89V9.11C6.2 7.36 7.62001 5.94 9.37001 5.94H16.15C17.9 5.94 19.32 7.36 19.32 9.11V15.89Z" fill="white"/>
</svg>
