<svg width="26" height="25" viewBox="0 0 26 25" fill="none" xmlns="http://www.w3.org/2000/svg">
<path d="M15.9196 7.07007H9.58958C8.33958 7.07007 7.32959 8.08007 7.32959 9.33007V15.6601C7.32959 16.9101 8.33958 17.9201 9.58958 17.9201H15.9196C17.1696 17.9201 18.1796 16.9101 18.1796 15.6601V9.33007C18.1796 8.08007 17.1696 7.07007 15.9196 7.07007ZM12.7696 15.8901C10.8996 15.8901 9.37959 14.3701 9.37959 12.5001C9.37959 10.6301 10.8996 9.11007 12.7696 9.11007C14.6396 9.11007 16.1596 10.6301 16.1596 12.5001C16.1596 14.3701 14.6396 15.8901 12.7696 15.8901ZM16.3796 9.56007C16.0096 9.56007 15.6996 9.26007 15.6996 8.88007C15.6996 8.50007 15.9996 8.20007 16.3796 8.20007C16.7596 8.20007 17.0596 8.50007 17.0596 8.88007C17.0596 9.26007 16.7596 9.56007 16.3796 9.56007Z" fill="white"/>
<path d="M12.7698 10.24C11.5198 10.24 10.5098 11.26 10.5098 12.5C10.5098 13.74 11.5298 14.76 12.7698 14.76C14.0098 14.76 15.0298 13.74 15.0298 12.5C15.0298 11.26 14.0098 10.24 12.7698 10.24Z" fill="white"/>
<path d="M12.7598 0C5.85977 0 0.259766 5.6 0.259766 12.5C0.259766 19.4 5.85977 25 12.7598 25C19.6598 25 25.2598 19.4 25.2598 12.5C25.2598 5.6 19.6598 0 12.7598 0ZM19.3198 15.89C19.3198 17.64 17.8998 19.06 16.1498 19.06H9.36977C7.61977 19.06 6.19976 17.64 6.19976 15.89V9.11C6.19976 7.36 7.61977 5.94 9.36977 5.94H16.1498C17.8998 5.94 19.3198 7.36 19.3198 9.11V15.89Z" fill="white"/>
</svg>
