<svg width="190" height="68" viewBox="0 0 190 68" fill="none" xmlns="http://www.w3.org/2000/svg">
<g clip-path="url(#clip0_194_7794)">
<path d="M34.1247 68C52.9712 68 68.2494 52.7777 68.2494 34C68.2494 15.2223 52.9712 0 34.1247 0C15.2781 0 0 15.2223 0 34C0 52.7777 15.2781 68 34.1247 68Z" fill="#009BFF"/>
<path d="M87.7488 26.1071C88.8204 26.1724 89.8694 25.7737 90.6247 25.0147C91.3294 24.1207 91.6618 22.9898 91.551 21.8579V8.33097H97.7179V21.8579C97.8728 24.438 96.9045 26.9603 95.0616 28.7794C93.0239 30.487 90.4084 31.3553 87.7488 31.2085C85.0893 31.3585 82.4738 30.4902 80.4361 28.7794C78.5296 26.9903 77.4979 24.4648 77.6087 21.8579V8.33097H83.7756V21.8579C83.7024 22.9866 84.0693 24.1004 84.7998 24.9665C85.5626 25.7673 86.6439 26.1864 87.7488 26.1081V26.1071ZM110.027 31.231C108.245 31.2299 106.479 30.9094 104.811 30.2834C103.18 29.6895 101.688 28.773 100.424 27.5874L103.397 23.8474C104.272 24.6385 105.278 25.2709 106.371 25.7169C107.533 26.1821 108.776 26.4126 110.027 26.3965C110.755 26.4361 111.479 26.2764 112.123 25.9355C112.612 25.6483 112.903 25.1166 112.878 24.5517C112.869 23.9439 112.522 23.3907 111.977 23.1185C110.98 22.5611 109.915 22.1366 108.808 21.8557L107.419 21.4913C105.682 21.1171 104.081 20.2778 102.787 19.0622C101.718 17.9485 101.147 16.4499 101.203 14.9095C101.213 13.6049 101.621 12.3347 102.372 11.267C103.168 10.1876 104.247 9.34717 105.492 8.838C106.95 8.22913 108.519 7.93113 110.099 7.96329C111.77 7.9665 113.425 8.28809 114.974 8.91089C116.497 9.49939 117.908 10.3452 119.142 11.4128L116.07 15.274C115.22 14.56 114.278 13.964 113.268 13.501C112.275 13.0122 111.183 12.7549 110.074 12.7485C109.364 12.7034 108.655 12.8546 108.027 13.1858C107.515 13.4527 107.209 13.9962 107.247 14.5697C107.264 15.1175 107.545 15.6245 108.002 15.93C108.805 16.4467 109.698 16.809 110.635 16.9987L112.316 17.4597C114.256 17.8574 116.041 18.8017 117.459 20.1792C118.45 21.2779 118.99 22.709 118.971 24.1861C118.994 25.5186 118.603 26.8253 117.85 27.9261C117.047 29.0099 115.958 29.8503 114.705 30.3552C113.223 30.9683 111.629 31.2653 110.025 31.2299L110.027 31.231ZM137.619 30.7936L136.181 26.7138H127.747L126.333 30.9147H120.239L128.502 8.45102H135.668L143.81 30.7936H137.618H137.619ZM129.185 22.0508H134.524L131.989 14.1827L129.186 22.0508H129.185ZM84.3125 59.5722V42.0619H77.6098V37.2049H97.109V42.0619H90.4794V59.5722H84.3125ZM110.075 60.0095C107.973 60.0502 105.897 59.5389 104.055 58.5281C102.331 57.5494 100.908 56.1226 99.9353 54.4C98.8938 52.5648 98.3634 50.4853 98.4 48.3767C98.3753 46.7838 98.6572 45.2016 99.2284 43.7138C99.7793 42.3299 100.609 41.0736 101.666 40.022C102.727 38.9758 103.987 38.1493 105.372 37.593C108.378 36.4524 111.701 36.4524 114.707 37.593C116.092 38.1493 117.351 38.9758 118.412 40.022C119.47 41.0725 120.3 42.3299 120.85 43.7138C121.491 45.1877 121.838 46.771 121.875 48.3767C121.918 50.4831 121.397 52.5616 120.363 54.4C119.374 56.1205 117.933 57.5387 116.195 58.5045C114.327 59.5411 112.214 60.061 110.077 60.0106L110.075 60.0095ZM110.075 54.9338C111.08 54.9553 112.068 54.6669 112.903 54.1084C113.735 53.5253 114.392 52.7278 114.804 51.8016C115.292 50.7265 115.534 49.557 115.511 48.3778C115.53 47.1987 115.289 46.0292 114.804 44.954C114.406 43.9861 113.747 43.1456 112.903 42.525C111.179 41.3952 108.947 41.3952 107.223 42.525C106.378 43.1456 105.72 43.9861 105.322 44.954C104.837 46.0303 104.596 47.1987 104.615 48.3778C104.592 49.557 104.834 50.7275 105.322 51.8016C105.734 52.7278 106.392 53.5253 107.223 54.1084C108.068 54.6637 109.064 54.9435 110.075 54.9103V54.9349V54.9338ZM125.31 59.5722V37.1084H134.206C136.272 37.0656 138.313 37.5597 140.129 38.5416C141.807 39.4699 143.198 40.8388 144.151 42.5003C146.092 46.145 146.092 50.5121 144.151 54.1578C143.198 55.8182 141.807 57.1881 140.129 58.1164C138.313 59.0984 136.272 59.5925 134.206 59.5496L125.31 59.5743V59.5722ZM131.379 54.7152H134.206C135.689 54.773 137.11 54.1235 138.033 52.9668C139.017 51.6333 139.516 50.0061 139.447 48.3521C139.516 46.6992 139.017 45.0709 138.033 43.7374C137.11 42.5807 135.689 41.9311 134.206 41.989H131.379V54.7152ZM163.797 59.5722L162.384 55.3712H153.926L152.512 59.5722H146.419L154.681 37.1084H161.848L170.11 59.5722H163.797ZM155.486 50.8294H160.873L158.217 42.9613L155.487 50.8294H155.486ZM182.005 51.4854V59.5722H175.742V51.4854L167.747 37.1084H174.717L178.885 46.1428L183.029 37.2296H189.999L182.004 51.4854H182.005Z" fill="#404040"/>
</g>
<defs>
<clipPath id="clip0_194_7794">
<rect width="190" height="68" fill="white"/>
</clipPath>
</defs>
</svg>
