<svg width="515" height="340" viewBox="0 0 515 340" fill="none" xmlns="http://www.w3.org/2000/svg">
<g clip-path="url(#clip0_499_6205)">
<path d="M440.464 166.888C471.266 166.888 496.235 141.923 496.235 111.127C496.235 80.3312 471.266 55.3663 440.464 55.3663C409.663 55.3663 384.693 80.3312 384.693 111.127C384.693 141.923 409.663 166.888 440.464 166.888Z" fill="#6CD600"/>
<path d="M483.612 162.185C494.65 162.185 503.598 153.239 503.598 142.203C503.598 131.167 494.65 122.221 483.612 122.221C472.574 122.221 463.626 131.167 463.626 142.203C463.626 153.239 472.574 162.185 483.612 162.185Z" fill="#6CD600"/>
<path d="M405.324 90.8836C416.362 90.8836 425.309 81.9373 425.309 70.9015C425.309 59.8657 416.362 50.9194 405.324 50.9194C394.286 50.9194 385.338 59.8657 385.338 70.9015C385.338 81.9373 394.286 90.8836 405.324 90.8836Z" fill="#6CD600"/>
<path d="M338.184 118.146C338.184 118.146 342.951 128.781 351.771 134.993C362.019 142.209 370.88 143.434 370.88 143.434" stroke="#FFE600" stroke-width="16.01" stroke-miterlimit="10" stroke-linecap="round"/>
<path fill-rule="evenodd" clip-rule="evenodd" d="M357.322 163.073C360.881 164.473 362.153 164.444 364.26 162.725C366.374 161.001 367.071 155.329 362.635 144.293C356.718 129.576 350.22 134.36 347.579 136.653C342.713 140.891 342.771 144.2 344.298 148.682C345.825 153.164 353.768 161.674 357.322 163.079V163.073Z" fill="#6CD600"/>
<path d="M360.602 163.207C358.611 163.207 356.631 162.377 355.225 160.751C352.659 157.785 352.984 153.291 355.951 150.725L369.904 138.656C372.871 136.09 377.365 136.409 379.932 139.382C382.498 142.348 382.173 146.842 379.206 149.408L365.253 161.477C363.912 162.638 362.251 163.207 360.608 163.207H360.602Z" fill="#6CD600"/>
<path d="M391.882 126.407C391.539 126.407 391.196 126.372 390.848 126.291C390.784 126.279 384.38 124.857 379.833 124.299C376.169 123.852 375.641 123.736 369.115 122.355L366.171 121.733C363.61 121.193 361.973 118.68 362.513 116.12C363.053 113.559 365.567 111.922 368.127 112.462L371.077 113.089C377.482 114.448 377.731 114.5 380.983 114.9C385.988 115.516 392.625 116.985 392.904 117.048C395.458 117.617 397.067 120.149 396.504 122.703C396.01 124.909 394.053 126.413 391.882 126.413V126.407Z" fill="#6CD600"/>
<path fill-rule="evenodd" clip-rule="evenodd" d="M361.979 170.667C362.344 166.859 362.948 165.738 365.439 164.647C367.93 163.55 373.307 165.5 381.134 174.464C391.568 186.417 384.351 190.034 381.105 191.346C375.119 193.755 372.192 192.205 368.894 188.815C365.596 185.424 361.613 174.481 361.979 170.679V170.667Z" fill="#6CD600"/>
<path d="M369.021 177.332C366.217 177.332 363.557 175.66 362.437 172.902C360.956 169.268 362.704 165.117 366.345 163.637L383.433 156.682C387.068 155.201 391.219 156.949 392.7 160.583C394.181 164.217 392.433 168.368 388.792 169.848L371.704 176.803C370.827 177.163 369.921 177.332 369.027 177.332H369.021Z" fill="#6CD600"/>
<path fill-rule="evenodd" clip-rule="evenodd" d="M380.594 119.075C393.972 110.877 411.502 115.144 419.753 128.607C428.003 142.07 423.852 159.625 410.474 167.822C397.096 176.019 379.566 171.753 371.315 158.29C363.064 144.827 367.216 127.272 380.594 119.075Z" fill="#6CD600"/>
<path d="M369.428 108.671C368.906 107.586 368.209 106.465 367.326 105.374C364.208 101.513 360.109 99.5743 358.175 101.031C356.549 102.262 356.973 105.496 358.988 108.782C358.767 108.724 358.541 108.66 358.297 108.602C353.838 107.516 348.647 108.201 346.719 110.123C344.855 111.969 346.649 114.279 350.714 115.429C348.264 116.514 346.301 118.03 345.627 119.539C344.501 122.041 347.288 123.585 351.835 122.999C352.955 122.854 354.134 122.598 355.284 122.256C353.716 124.09 352.706 126.041 352.694 127.562C352.659 130.302 355.824 130.616 359.76 128.264C361.078 127.481 362.402 126.465 363.581 125.362C363.929 125.397 364.284 125.414 364.638 125.414C369.939 125.391 374.218 121.35 374.195 116.392C374.178 113.089 372.262 110.216 369.416 108.665L369.428 108.671Z" fill="#6CD600"/>
<path d="M410.172 185.523C409.765 185.523 409.353 185.471 408.941 185.36C406.415 184.681 404.917 182.08 405.596 179.555L406.008 178.011C408.174 169.947 408.261 169.634 409.504 166.214C411.072 161.912 412.715 155.561 412.732 155.497C413.388 152.961 415.972 151.434 418.504 152.09C421.036 152.74 422.563 155.329 421.912 157.86C421.843 158.139 420.141 164.716 418.417 169.454C417.681 171.474 416.598 175.145 415.165 180.466L414.747 182.011C414.178 184.124 412.262 185.517 410.172 185.517V185.523Z" fill="#6CD600"/>
<path d="M418.713 182.58C419.445 183.537 420.124 184.67 420.699 185.947C422.72 190.475 422.592 195.009 420.414 196.065C418.58 196.954 415.891 195.113 413.876 191.822C413.83 192.048 413.778 192.275 413.72 192.518C412.663 196.983 409.702 201.296 407.106 202.138C404.615 202.962 403.373 200.309 404.191 196.17C402.107 197.859 399.871 198.922 398.216 198.835C395.476 198.701 395.36 195.52 397.949 191.735C398.588 190.8 399.349 189.871 400.179 189C397.833 189.563 395.633 189.575 394.274 188.902C391.812 187.688 392.973 184.728 396.858 182.284C398.158 181.465 399.662 180.745 401.183 180.194C401.311 179.868 401.451 179.543 401.619 179.23C404.046 174.516 409.591 172.542 413.998 174.812C416.936 176.327 418.62 179.34 418.713 182.574V182.58Z" fill="#6CD600"/>
<path d="M480.395 96.5032C481.394 92.1027 483.989 88.2944 487.972 86.0942C494.893 82.2801 503.708 84.579 509.264 91.0926C509.044 90.605 508.8 90.1115 508.55 89.6529C503.487 80.4978 492.85 76.6779 484.796 81.119C484.308 81.4034 483.873 81.7808 483.403 82.1233C484.964 80.3643 486.782 78.8142 488.936 77.6241C497.698 72.7708 508.417 74.8434 514.856 82.0014C514.606 81.4383 507.923 71.0466 507.65 70.5706C501.989 60.3473 489.168 56.6551 478.943 62.2979C474.043 65.0091 470.692 69.4037 469.101 74.3499C470.791 68.7535 474.803 63.5635 480.761 60.2661C490.254 55.018 501.35 56.3474 507.633 62.8843C507.406 62.356 507.174 61.8393 506.901 61.3459C501.617 51.8018 488.39 49.0211 477.335 55.1283C466.297 61.2414 461.599 73.9319 466.872 83.476C467.417 84.4629 479.483 100.538 480.395 96.509V96.5032Z" fill="#6CD600"/>
<path d="M485.72 120.897C493.831 113.861 494.371 101.368 486.893 92.962C483.374 89.0085 478.706 86.6689 473.898 86.0419C473.892 81.2641 472.15 76.3934 468.626 72.44C461.153 64.0454 448.512 62.9424 440.383 69.9611C435.477 74.2106 433.351 80.463 434.083 86.5935C423.73 85.0492 412.988 87.7139 404.731 94.8661C389.455 108.091 388.456 131.608 402.519 147.405C416.571 163.195 440.348 165.268 455.631 152.049C463.789 144.984 467.871 134.987 467.76 124.793C473.95 126.471 480.703 125.24 485.726 120.892L485.72 120.897Z" fill="#FFE600"/>
<path d="M400.562 74.4544C405.631 68.8116 411.594 64.4575 418.051 61.4097C411.554 56.7074 402.42 57.5782 396.939 63.6796C392.294 68.858 391.69 76.2367 394.878 81.9956C396.527 79.3716 398.408 76.8404 400.556 74.4544H400.562Z" fill="#FFE600"/>
<path d="M488.315 138.076C484.541 144.653 479.611 150.168 473.933 154.493C481.278 157.733 490.022 154.969 494.11 147.852C497.571 141.814 496.613 134.476 492.287 129.513C491.224 132.427 489.906 135.289 488.315 138.07V138.076Z" fill="#FFE600"/>
<path d="M443.274 75.1162C437.596 81.0609 437.828 90.4772 443.762 96.1375C449.708 101.815 459.114 101.595 464.787 95.6556C470.46 89.7167 470.245 80.3062 464.294 74.6286C458.348 68.9683 448.941 69.1773 443.269 75.1162H443.274Z" fill="#EAEAEA"/>
<path d="M461.419 95.4641C455.758 101.397 455.973 110.808 461.913 116.474C467.853 122.151 477.271 121.942 482.938 116.003C488.611 110.059 488.384 100.642 482.456 94.9764C476.516 89.3104 467.092 89.5252 461.419 95.4699V95.4641Z" fill="#EAEAEA"/>
<path d="M449.748 109.409C452.895 112.422 454.893 115.992 455.572 119.272C457.57 115.231 456.838 110.204 453.406 106.918C450.335 103.992 445.986 103.296 442.281 104.718C444.819 105.606 447.414 107.185 449.748 109.409Z" fill="#E59B00"/>
<path d="M446.363 75.511C451.374 73.1076 457.384 75.2207 459.782 80.2308C460.328 81.3628 460.636 82.5413 460.734 83.7198C459.393 82.3149 457.251 81.8621 455.404 82.7445C453.111 83.8475 452.135 86.5993 453.238 88.8982C454.127 90.7501 456.101 91.7428 458.034 91.4642C457.204 92.3466 456.205 93.0897 455.05 93.647C450.045 96.0446 444.035 93.9315 441.631 88.9214C439.239 83.9114 441.347 77.9086 446.358 75.511H446.363Z" fill="#0079EA"/>
<path d="M464.189 96.0853C469.2 93.6818 475.21 95.795 477.608 100.805C478.154 101.937 478.461 103.116 478.56 104.294C477.219 102.889 475.076 102.436 473.23 103.319C470.936 104.422 469.961 107.174 471.064 109.472C471.952 111.324 473.927 112.317 475.86 112.038C475.03 112.921 474.031 113.664 472.876 114.221C467.87 116.619 461.861 114.506 459.457 109.496C457.065 104.486 459.172 98.4829 464.183 96.0853H464.189Z" fill="#0079EA"/>
<path d="M424.38 125.565C419.41 113.768 421.268 100.828 428.102 91.0636C425.536 91.4409 422.963 92.097 420.466 93.1593C404.487 99.8878 396.985 118.285 403.721 134.261C410.439 150.238 428.851 157.733 444.83 151.004C447.333 149.948 449.603 148.583 451.665 147.01C439.901 145.077 429.35 137.361 424.38 125.559V125.565Z" fill="#E59B00"/>
<path d="M267.403 318.582C267.403 325.601 261.718 323.714 254.698 323.714H252.533C245.518 323.714 239.828 325.601 239.828 318.582L253.061 13.3877C253.061 6.36895 258.757 0.679688 265.771 0.679688H267.931C274.957 0.679688 280.642 6.36895 280.642 13.3877L267.403 318.582Z" fill="#BE1E2D"/>
<path d="M263.013 318.588C263.356 325.038 260.226 323.517 254.896 323.517H248.37C243.033 323.517 238.713 325.496 238.713 318.588L251.958 14.3688C251.958 7.46619 256.284 1.86981 261.62 1.86981H263.263C268.593 1.86981 274.957 4.18035 276.258 14.3688L263.019 318.594L263.013 318.588Z" fill="#EE4036"/>
<path d="M412.599 318.582C412.599 325.601 406.903 323.714 399.889 323.714H397.723C390.697 323.714 385.013 325.601 385.013 318.582L398.251 13.3877C398.251 6.36895 403.936 0.679688 410.962 0.679688H413.122C420.136 0.679688 425.832 6.36895 425.832 13.3877L412.593 318.582H412.599Z" fill="#BE1E2D"/>
<path d="M408.436 318.588C408.883 325.932 405.085 323.511 399.755 323.511H393.571C388.241 323.511 383.915 325.49 383.915 318.588L397.154 17.3934C397.154 10.4908 401.474 2.073 406.81 2.073H408.459C413.795 2.073 421.471 3.75656 421.674 14.572L408.436 318.582V318.588Z" fill="#EE4036"/>
<path d="M433.136 237.725C433.136 243.193 428.7 247.64 423.219 247.64H234.172C228.691 247.64 224.255 243.199 224.255 237.725L229.655 29.5904C229.655 24.116 234.091 19.6749 239.572 19.6749H428.619C434.1 19.6749 438.536 24.116 438.536 29.5904L433.136 237.725Z" fill="#90278E"/>
<path d="M427.707 236.047C427.707 241.458 423.318 245.841 417.918 245.841H231.176C225.771 245.841 221.381 241.458 221.381 236.047L226.781 30.618C226.781 25.2074 231.171 20.8243 236.576 20.8243H423.318C428.723 20.8243 433.113 25.2074 433.113 30.618L427.713 236.047H427.707Z" fill="white"/>
<path d="M423.956 265.231C431.243 265.231 436.829 264.557 436.829 270.078V273.614C436.829 279.135 437.346 285.956 430.575 285.956L216.916 286.258C210.139 286.258 211.034 282.078 211.034 276.557V274.862C211.034 270.45 218.234 264.563 225.01 264.563L423.956 265.231Z" fill="#EE4036"/>
<path fill-rule="evenodd" clip-rule="evenodd" d="M253.647 259.657C253.647 259.623 253.659 259.588 253.659 259.553C253.659 255.977 247.161 253.068 239.154 253.068C231.147 253.068 224.65 255.977 224.65 259.553C224.65 259.93 224.737 260.29 224.871 260.65L226.009 268.702C229.069 271.303 233.812 272.975 239.154 272.975C244.496 272.975 249.345 271.257 252.411 268.604L253.717 259.657H253.647Z" fill="#FAAF40"/>
<path fill-rule="evenodd" clip-rule="evenodd" d="M251.865 259.239C251.865 262.38 246.175 264.929 239.149 264.929C232.123 264.929 226.433 262.374 226.433 259.239C226.433 256.105 232.123 253.556 239.149 253.556C246.175 253.556 251.865 256.099 251.865 259.239Z" fill="#F05A28"/>
<path fill-rule="evenodd" clip-rule="evenodd" d="M228.064 262.02C230.241 263.75 234.387 264.929 239.154 264.929C243.921 264.929 248.061 263.756 250.239 262.02C248.061 260.285 243.91 259.112 239.154 259.112C234.399 259.112 230.241 260.285 228.064 262.02Z" fill="#FF1E2D"/>
<path fill-rule="evenodd" clip-rule="evenodd" d="M239.155 265.98C231.664 265.98 225.504 263.443 224.731 260.186C224.946 263.646 231.31 266.427 239.155 266.427C246.999 266.427 253.357 263.646 253.572 260.186C252.8 263.437 246.645 265.98 239.155 265.98Z" fill="#F05A28"/>
<path fill-rule="evenodd" clip-rule="evenodd" d="M287.243 259.657C287.243 259.623 287.255 259.588 287.255 259.553C287.255 255.977 280.763 253.068 272.745 253.068C264.726 253.068 258.24 255.977 258.24 259.553C258.24 259.93 258.327 260.29 258.455 260.65L259.599 268.702C262.659 271.303 267.409 272.975 272.739 272.975C278.069 272.975 282.935 271.257 285.995 268.604L287.307 259.657H287.232H287.243Z" fill="#FAAF40"/>
<path fill-rule="evenodd" clip-rule="evenodd" d="M285.461 259.239C285.461 262.38 279.771 264.929 272.745 264.929C265.719 264.929 260.029 262.374 260.029 259.239C260.029 256.105 265.719 253.556 272.745 253.556C279.771 253.556 285.461 256.099 285.461 259.239Z" fill="#F05A28"/>
<path fill-rule="evenodd" clip-rule="evenodd" d="M261.66 262.02C263.838 263.75 267.983 264.929 272.745 264.929C277.506 264.929 281.652 263.756 283.829 262.02C281.652 260.285 277.506 259.112 272.745 259.112C267.983 259.112 263.838 260.285 261.66 262.02Z" fill="white"/>
<path fill-rule="evenodd" clip-rule="evenodd" d="M272.745 265.98C265.254 265.98 259.099 263.443 258.327 260.186C258.542 263.646 264.906 266.427 272.745 266.427C280.583 266.427 286.947 263.646 287.168 260.186C286.396 263.437 280.235 265.98 272.745 265.98Z" fill="#F05A28"/>
<path fill-rule="evenodd" clip-rule="evenodd" d="M320.84 259.657C320.84 259.623 320.851 259.588 320.851 259.553C320.851 255.977 314.36 253.068 306.347 253.068C298.334 253.068 291.842 255.977 291.842 259.553C291.842 259.93 291.929 260.29 292.063 260.65L293.207 268.702C296.273 271.303 301.011 272.975 306.353 272.975C311.695 272.975 316.549 271.257 319.609 268.604L320.921 259.657H320.846H320.84Z" fill="#FAAF40"/>
<path fill-rule="evenodd" clip-rule="evenodd" d="M319.063 259.239C319.063 262.38 313.367 264.929 306.347 264.929C299.327 264.929 293.63 262.374 293.63 259.239C293.63 256.105 299.327 253.556 306.347 253.556C313.367 253.556 319.063 256.099 319.063 259.239Z" fill="#F05A28"/>
<path fill-rule="evenodd" clip-rule="evenodd" d="M295.256 262.02C297.44 263.75 301.58 264.929 306.347 264.929C311.114 264.929 315.254 263.756 317.431 262.02C315.254 260.285 311.108 259.112 306.347 259.112C301.585 259.112 297.44 260.285 295.256 262.02Z" fill="#231F20"/>
<path fill-rule="evenodd" clip-rule="evenodd" d="M306.347 265.98C298.862 265.98 292.701 263.443 291.923 260.186C292.144 263.646 298.508 266.427 306.347 266.427C314.185 266.427 320.549 263.646 320.764 260.186C319.998 263.437 313.831 265.98 306.347 265.98Z" fill="#F05A28"/>
<path fill-rule="evenodd" clip-rule="evenodd" d="M354.436 259.657C354.436 259.623 354.447 259.588 354.447 259.553C354.447 255.977 347.956 253.068 339.943 253.068C331.93 253.068 325.433 255.977 325.433 259.553C325.433 259.93 325.52 260.29 325.659 260.65L326.797 268.702C329.863 271.303 334.601 272.975 339.943 272.975C345.285 272.975 350.133 271.257 353.199 268.604L354.511 259.657H354.436Z" fill="#FAAF40"/>
<path fill-rule="evenodd" clip-rule="evenodd" d="M352.653 259.239C352.653 262.38 346.963 264.929 339.937 264.929C332.911 264.929 327.221 262.374 327.221 259.239C327.221 256.105 332.917 253.556 339.937 253.556C346.957 253.556 352.653 256.099 352.653 259.239Z" fill="#F05A28"/>
<path fill-rule="evenodd" clip-rule="evenodd" d="M328.853 262.02C331.03 263.75 335.176 264.929 339.943 264.929C344.71 264.929 348.85 263.756 351.027 262.02C348.85 260.285 344.704 259.112 339.943 259.112C335.182 259.112 331.03 260.285 328.853 262.02Z" fill="#FFF100"/>
<path fill-rule="evenodd" clip-rule="evenodd" d="M339.943 265.98C332.452 265.98 326.292 263.443 325.525 260.186C325.74 263.646 332.11 266.427 339.943 266.427C347.776 266.427 354.145 263.646 354.36 260.186C353.588 263.437 347.433 265.98 339.943 265.98Z" fill="#F05A28"/>
<path fill-rule="evenodd" clip-rule="evenodd" d="M387.033 259.657C387.033 259.623 387.045 259.588 387.045 259.553C387.045 255.977 380.553 253.068 372.54 253.068C364.527 253.068 358.03 255.977 358.03 259.553C358.03 259.93 358.117 260.29 358.25 260.65L359.394 268.702C362.454 271.303 367.204 272.975 372.54 272.975C377.876 272.975 382.73 271.257 385.79 268.604L387.108 259.657H387.033Z" fill="#FAAF40"/>
<path fill-rule="evenodd" clip-rule="evenodd" d="M385.256 259.239C385.256 262.38 379.56 264.929 372.54 264.929C365.52 264.929 359.818 262.374 359.818 259.239C359.818 256.105 365.515 253.556 372.54 253.556C379.566 253.556 385.256 256.099 385.256 259.239Z" fill="#F05A28"/>
<path fill-rule="evenodd" clip-rule="evenodd" d="M361.45 262.02C363.627 263.75 367.773 264.929 372.54 264.929C377.307 264.929 381.447 263.756 383.625 262.02C381.447 260.285 377.301 259.112 372.54 259.112C367.779 259.112 363.627 260.285 361.45 262.02Z" fill="#26A9E0"/>
<path fill-rule="evenodd" clip-rule="evenodd" d="M372.54 265.98C365.05 265.98 358.889 263.443 358.117 260.186C358.332 263.646 364.696 266.427 372.54 266.427C380.385 266.427 386.743 263.646 386.964 260.186C386.191 263.437 380.025 265.98 372.54 265.98Z" fill="#F05A28"/>
<path fill-rule="evenodd" clip-rule="evenodd" d="M420.629 259.657C420.629 259.623 420.635 259.588 420.635 259.553C420.635 255.977 414.143 253.068 406.136 253.068C398.129 253.068 391.632 255.977 391.632 259.553C391.632 259.93 391.719 260.29 391.847 260.65L392.991 268.702C396.056 271.303 400.794 272.975 406.136 272.975C411.478 272.975 416.327 271.257 419.393 268.604L420.705 259.657H420.635H420.629Z" fill="#FAAF40"/>
<path fill-rule="evenodd" clip-rule="evenodd" d="M418.846 259.239C418.846 262.38 413.156 264.929 406.136 264.929C399.116 264.929 393.42 262.374 393.42 259.239C393.42 256.105 399.116 253.556 406.136 253.556C413.156 253.556 418.846 256.099 418.846 259.239Z" fill="#F05A28"/>
<path fill-rule="evenodd" clip-rule="evenodd" d="M395.046 262.02C397.223 263.75 401.369 264.929 406.136 264.929C410.903 264.929 415.043 263.756 417.221 262.02C415.043 260.285 410.898 259.112 406.136 259.112C401.375 259.112 397.223 260.285 395.046 262.02Z" fill="#00A551"/>
<path fill-rule="evenodd" clip-rule="evenodd" d="M406.136 265.98C398.646 265.98 392.491 263.443 391.713 260.186C391.934 263.646 398.297 266.427 406.136 266.427C413.975 266.427 420.339 263.646 420.554 260.186C419.775 263.437 413.621 265.98 406.136 265.98Z" fill="#F05A28"/>
<path fill-rule="evenodd" clip-rule="evenodd" d="M214.343 273.556H428.369C429.925 273.556 431.191 274.833 431.191 276.389V283.065C431.191 284.621 429.919 285.892 428.369 285.892H214.343C212.781 285.892 211.51 284.621 211.51 283.065V276.389C211.51 274.833 212.781 273.556 214.343 273.556Z" fill="#F05A28"/>
<path d="M332.662 177.384C370.169 177.384 400.574 146.984 400.574 109.484C400.574 71.9841 370.169 41.5844 332.662 41.5844C295.155 41.5844 264.75 71.9841 264.75 109.484C264.75 146.984 295.155 177.384 332.662 177.384Z" fill="#FFDC00"/>
<path d="M265.516 232.587C282.794 232.587 296.801 218.583 296.801 201.308C296.801 184.033 282.794 170.028 265.516 170.028C248.237 170.028 234.23 184.033 234.23 201.308C234.23 218.583 248.237 232.587 265.516 232.587Z" fill="#FF0000"/>
<path d="M412.924 166.888C421.191 166.888 427.893 160.187 427.893 151.921C427.893 143.656 421.191 136.955 412.924 136.955C404.657 136.955 397.955 143.656 397.955 151.921C397.955 160.187 404.657 166.888 412.924 166.888Z" fill="#0079EA"/>
<path d="M331.047 221.301C339.539 221.301 346.423 214.419 346.423 205.929C346.423 197.439 339.539 190.556 331.047 190.556C322.556 190.556 315.672 197.439 315.672 205.929C315.672 214.419 322.556 221.301 331.047 221.301Z" fill="#AC3BFF"/>
<path d="M379.734 210.405C387.745 210.405 394.239 203.912 394.239 195.903C394.239 187.894 387.745 181.401 379.734 181.401C371.724 181.401 365.23 187.894 365.23 195.903C365.23 203.912 371.724 210.405 379.734 210.405Z" fill="#99CF16"/>
<path d="M271.694 51.4477C277.142 51.4477 281.559 47.0317 281.559 41.5843C281.559 36.137 277.142 31.721 271.694 31.721C266.245 31.721 261.829 36.137 261.829 41.5843C261.829 47.0317 266.245 51.4477 271.694 51.4477Z" fill="#99CF16"/>
<path d="M412.924 61.4852C420.935 61.4852 427.428 54.9925 427.428 46.9834C427.428 38.9743 420.935 32.4816 412.924 32.4816C404.913 32.4816 398.419 38.9743 398.419 46.9834C398.419 54.9925 404.913 61.4852 412.924 61.4852Z" fill="#FF8000"/>
<path d="M278.307 114.006C276.873 114.105 275.741 113.78 274.905 113.043C274.068 112.3 273.598 111.214 273.499 109.78L271.908 86.785L264.244 87.3133C263.042 87.3946 262.096 87.145 261.416 86.5528C260.737 85.9607 260.359 85.0782 260.278 83.9114C260.197 82.7096 260.447 81.775 261.039 81.1132C261.631 80.4514 262.531 80.0798 263.733 79.9927L288.05 78.3092C289.252 78.2279 290.199 78.4717 290.872 79.0465C291.552 79.6212 291.929 80.5094 292.016 81.7169C292.097 82.8896 291.842 83.8127 291.25 84.4919C290.657 85.1711 289.763 85.5485 288.556 85.6356L280.891 86.1638L282.482 109.159C282.581 110.593 282.285 111.731 281.588 112.584C280.891 113.432 279.799 113.908 278.301 114.012L278.307 114.006Z" fill="#FF0000"/>
<path d="M298.944 112.41C297.579 112.503 296.493 112.201 295.692 111.504C294.891 110.808 294.444 109.745 294.339 108.311L292.504 81.7982C292.406 80.3643 292.702 79.2497 293.399 78.4485C294.095 77.6474 295.129 77.2004 296.493 77.1075C297.893 77.0088 299.002 77.3107 299.82 78.0073C300.639 78.704 301.098 79.7663 301.197 81.2003L301.934 91.8415L301.15 91.8938C301.824 90.3089 302.857 89.0608 304.251 88.1493C305.644 87.2379 307.27 86.7154 309.122 86.5877C311.044 86.4541 312.647 86.7096 313.936 87.3598C315.225 88.0042 316.229 89.084 316.955 90.5876C317.681 92.0912 318.122 94.0127 318.285 96.3581L318.993 106.61C319.092 108.044 318.796 109.159 318.099 109.96C317.402 110.761 316.351 111.208 314.952 111.307C313.553 111.406 312.449 111.104 311.648 110.407C310.847 109.71 310.4 108.648 310.301 107.214L309.616 97.3044C309.517 95.8414 309.192 94.8139 308.64 94.2333C308.095 93.6528 307.328 93.3916 306.353 93.4612C305.052 93.5541 304.036 94.036 303.316 94.9242C302.59 95.8066 302.277 96.9503 302.375 98.3494L303.026 107.725C303.229 110.657 301.864 112.218 298.938 112.422L298.944 112.41Z" fill="#FF0000"/>
<path d="M332.598 110.181C330.74 110.308 329.085 110.082 327.622 109.496C326.158 108.909 324.986 108.05 324.109 106.918C323.226 105.786 322.738 104.451 322.628 102.924C322.506 101.165 322.866 99.7542 323.708 98.6802C324.55 97.6062 325.967 96.7819 327.953 96.2013C329.938 95.6208 332.609 95.2144 335.966 94.9822L338.654 94.7964L338.938 98.895L336.25 99.0808C334.978 99.1679 333.939 99.3304 333.12 99.5685C332.302 99.8065 331.709 100.126 331.344 100.526C330.978 100.927 330.815 101.42 330.856 102.007C330.908 102.756 331.222 103.354 331.791 103.806C332.36 104.259 333.149 104.451 334.16 104.381C334.973 104.323 335.687 104.097 336.296 103.696C336.906 103.296 337.382 102.761 337.731 102.1C338.079 101.438 338.224 100.683 338.16 99.8355L337.766 94.1695C337.684 92.9968 337.324 92.1898 336.691 91.7428C336.053 91.2958 335.007 91.1216 333.538 91.2261C332.755 91.2784 331.884 91.4293 330.92 91.679C329.956 91.9286 328.887 92.3176 327.715 92.8575C326.861 93.2464 326.112 93.3451 325.479 93.1593C324.846 92.9736 324.335 92.6194 323.958 92.0853C323.58 91.557 323.371 90.9649 323.342 90.3147C323.313 89.6645 323.482 89.0317 323.847 88.4163C324.213 87.801 324.806 87.3017 325.63 86.9186C327.151 86.2219 328.568 85.7343 329.869 85.4498C331.175 85.1653 332.377 84.9796 333.486 84.9041C336.157 84.7183 338.387 84.9505 340.181 85.5949C341.975 86.2393 343.357 87.3191 344.333 88.8401C345.302 90.3611 345.877 92.3582 346.046 94.8313L346.731 104.695C346.829 106.129 346.562 107.243 345.929 108.039C345.296 108.834 344.333 109.275 343.026 109.368C341.691 109.461 340.646 109.159 339.896 108.456C339.142 107.754 338.718 106.692 338.619 105.258L338.532 103.986L338.875 104.648C338.782 105.705 338.474 106.622 337.94 107.412C337.406 108.201 336.68 108.84 335.768 109.327C334.851 109.815 333.794 110.099 332.586 110.187L332.598 110.181Z" fill="#FF0000"/>
<path d="M356.276 108.445C354.912 108.538 353.826 108.236 353.025 107.539C352.224 106.843 351.776 105.78 351.678 104.346L350.557 88.1842C350.458 86.7851 350.755 85.6878 351.434 84.8867C352.113 84.0856 353.141 83.6386 354.506 83.5457C355.87 83.4528 356.938 83.7547 357.711 84.4513C358.477 85.1538 358.913 86.1987 359.006 87.5978L359.162 89.8909L358.489 87.9287C359.162 86.3439 360.196 85.0957 361.589 84.1843C362.983 83.2728 364.609 82.7503 366.461 82.6226C368.383 82.4891 369.985 82.7445 371.275 83.3947C372.564 84.0391 373.568 85.1189 374.294 86.6225C375.02 88.1261 375.461 90.0477 375.624 92.3931L376.332 102.645C376.431 104.079 376.135 105.194 375.438 105.995C374.741 106.796 373.69 107.243 372.291 107.342C370.891 107.441 369.788 107.139 368.993 106.442C368.191 105.745 367.744 104.683 367.645 103.249L366.96 93.3393C366.862 91.8764 366.536 90.8488 365.985 90.2683C365.439 89.6878 364.673 89.4265 363.697 89.4962C362.396 89.5891 361.38 90.0709 360.66 90.9591C359.935 91.8415 359.621 92.9852 359.72 94.3843L360.37 103.76C360.573 106.692 359.209 108.253 356.276 108.457V108.445Z" fill="#FF0000"/>
<path d="M385.872 106.396C384.507 106.488 383.422 106.187 382.62 105.49C381.819 104.793 381.372 103.731 381.273 102.297L379.438 75.7838C379.34 74.3499 379.636 73.2353 380.333 72.4341C381.029 71.633 382.063 71.186 383.427 71.0931C384.827 70.9944 385.936 71.2963 386.755 71.9929C387.573 72.6896 388.032 73.7519 388.131 75.1859L389.246 91.2958H389.344L394.802 83.6501C395.546 82.6167 396.254 81.8388 396.922 81.3221C397.589 80.7997 398.524 80.4978 399.732 80.4165C400.934 80.3352 401.886 80.5616 402.577 81.1015C403.268 81.6414 403.663 82.3497 403.756 83.2263C403.849 84.1029 403.553 85.0086 402.862 85.9374L396.945 94.0011L396.736 90.9765L404.592 99.5568C405.37 100.416 405.724 101.287 405.655 102.158C405.585 103.028 405.219 103.748 404.551 104.317C403.889 104.886 403.018 105.205 401.944 105.281C400.644 105.374 399.581 105.205 398.768 104.787C397.955 104.369 397.119 103.684 396.271 102.727L389.646 95.6324H389.547L389.966 101.693C390.169 104.625 388.804 106.187 385.872 106.39V106.396Z" fill="#FF0000"/>
<path d="M296.528 158.685C295.518 158.754 294.687 158.551 294.031 158.075C293.375 157.599 292.945 156.937 292.742 156.101C292.539 155.265 292.614 154.36 292.974 153.384L295.756 146.075L296 149.593L286.326 131.08C285.832 130.134 285.635 129.234 285.722 128.375C285.809 127.516 286.192 126.813 286.878 126.256C287.557 125.704 288.515 125.379 289.758 125.298C290.797 125.228 291.656 125.402 292.324 125.832C292.992 126.262 293.63 127.138 294.246 128.473L300.006 140.833L298.345 140.949L302.642 127.846C303.072 126.476 303.6 125.53 304.239 125.013C304.872 124.497 305.76 124.195 306.898 124.119C307.874 124.05 308.675 124.253 309.296 124.712C309.918 125.176 310.324 125.826 310.51 126.662C310.696 127.498 310.614 128.421 310.26 129.426L300.9 155.097C300.407 156.438 299.82 157.355 299.152 157.843C298.485 158.33 297.614 158.609 296.534 158.685H296.528Z" fill="#FF0000"/>
<path d="M326.89 147.852C324.219 148.038 321.856 147.689 319.8 146.818C317.745 145.948 316.096 144.607 314.859 142.795C313.622 140.984 312.914 138.795 312.734 136.224C312.6 134.273 312.786 132.502 313.297 130.912C313.808 129.321 314.615 127.945 315.707 126.772C316.804 125.6 318.145 124.677 319.736 123.992C321.327 123.312 323.127 122.9 325.148 122.761C327.819 122.575 330.182 122.918 332.238 123.788C334.293 124.659 335.93 125.995 337.15 127.788C338.369 129.588 339.072 131.782 339.252 134.389C339.385 136.311 339.194 138.075 338.683 139.678C338.172 141.28 337.376 142.673 336.296 143.84C335.216 145.013 333.875 145.936 332.267 146.621C330.664 147.306 328.864 147.712 326.878 147.852H326.89ZM326.443 141.454C327.32 141.39 328.086 141.118 328.742 140.63C329.398 140.142 329.88 139.44 330.194 138.517C330.507 137.594 330.612 136.421 330.513 134.987C330.362 132.804 329.828 131.266 328.916 130.366C328.005 129.466 326.896 129.06 325.595 129.147C324.718 129.205 323.952 129.472 323.296 129.942C322.64 130.412 322.152 131.109 321.821 132.032C321.49 132.955 321.38 134.145 321.478 135.614C321.629 137.762 322.158 139.295 323.075 140.212C323.987 141.129 325.113 141.541 326.449 141.448L326.443 141.454Z" fill="#FF0000"/>
<path d="M353.112 146.035C351.027 146.18 349.291 145.913 347.903 145.239C346.516 144.566 345.436 143.492 344.663 142.006C343.891 140.52 343.421 138.61 343.258 136.264L342.55 126.012C342.451 124.578 342.747 123.469 343.45 122.685C344.147 121.902 345.197 121.461 346.597 121.362C347.996 121.263 349.094 121.559 349.895 122.238C350.696 122.918 351.143 123.974 351.242 125.408L351.968 135.904C352.049 137.077 352.351 137.936 352.885 138.488C353.414 139.039 354.197 139.283 355.243 139.208C356.416 139.126 357.345 138.639 358.036 137.739C358.726 136.839 359.023 135.689 358.924 134.29L358.274 124.915C358.175 123.481 358.471 122.372 359.174 121.588C359.87 120.805 360.921 120.363 362.321 120.265C363.72 120.166 364.817 120.462 365.619 121.141C366.42 121.82 366.867 122.877 366.966 124.311L368.086 140.473C368.29 143.405 366.989 144.966 364.19 145.158C362.82 145.251 361.74 144.949 360.939 144.252C360.137 143.556 359.69 142.493 359.592 141.059L359.394 138.226L360.341 140.566C359.737 142.209 358.819 143.504 357.588 144.438C356.363 145.373 354.871 145.901 353.112 146.023V146.035Z" fill="#FF0000"/>
<path d="M376.761 132.526C375.914 132.584 375.223 132.357 374.677 131.835C374.131 131.318 373.765 130.575 373.568 129.606L370.839 114.976C370.496 113.298 370.705 111.905 371.483 110.784C372.256 109.67 373.475 109.054 375.136 108.938C376.825 108.822 378.12 109.263 379.008 110.268C379.897 111.272 380.286 112.625 380.176 114.332L379.537 129.193C379.473 130.18 379.217 130.964 378.77 131.55C378.317 132.137 377.656 132.462 376.779 132.52L376.761 132.526ZM377.563 144.096C376.099 144.194 374.903 143.84 373.98 143.022C373.057 142.203 372.546 141.077 372.447 139.643C372.348 138.244 372.703 137.083 373.504 136.16C374.305 135.237 375.443 134.726 376.906 134.621C378.434 134.517 379.647 134.865 380.536 135.672C381.424 136.479 381.917 137.582 382.016 138.981C382.115 140.415 381.778 141.599 381.012 142.534C380.245 143.469 379.09 143.991 377.563 144.096Z" fill="#FF0000"/>
<path fill-rule="evenodd" clip-rule="evenodd" d="M125.18 321.531C119.71 317.409 118.566 315.441 119.222 310.617C119.878 305.787 127.88 299.407 148.887 295.848C176.892 291.111 175.667 305.503 174.633 311.679C172.711 323.07 167.607 326.083 159.345 327.94C151.076 329.804 130.649 325.647 125.18 321.531Z" fill="#0079EA"/>
<path d="M130.522 321.514C125.691 321.514 121.272 318.292 119.96 313.41L112.597 285.991C111.029 280.156 114.49 274.159 120.325 272.592C126.161 271.03 132.159 274.484 133.727 280.319L141.089 307.738C142.657 313.572 139.196 319.569 133.361 321.136C132.409 321.392 131.456 321.514 130.516 321.514H130.522Z" fill="#0079EA"/>
<path d="M147.343 234.834C144.707 234.834 142.152 233.452 140.764 230.996C138.714 227.368 139.992 222.764 143.627 220.715C155.036 214.271 174.575 202.922 178.657 199.775C181.229 197.494 193.649 181.535 203.723 167.996C206.214 164.653 210.941 163.956 214.285 166.446C217.63 168.937 218.321 173.662 215.836 177.006C208.949 186.26 192.447 208.158 188 211.63C181.851 216.425 154.189 232.088 151.053 233.858C149.88 234.52 148.603 234.834 147.349 234.834H147.343Z" fill="#0079EA"/>
<path d="M32.3634 320.283C28.4905 320.283 25.2621 317.235 25.0821 313.328C24.8963 309.311 28.0028 305.903 32.0208 305.712C32.2821 305.7 48.5925 304.777 60.7802 296.754C75.3486 287.169 81.7066 276.307 81.7705 276.197C83.7447 272.685 88.1866 271.46 91.6937 273.439C95.2008 275.413 96.4376 279.878 94.4576 283.384C94.1382 283.947 86.497 297.288 68.7931 308.934C53.1563 319.221 33.5247 320.237 32.7002 320.277C32.5841 320.277 32.4737 320.283 32.3576 320.283H32.3634Z" fill="#6BE000"/>
<path d="M96.3101 322.715C95.7991 322.715 95.2823 322.681 94.7656 322.605C88.7849 321.758 84.6217 316.225 85.4694 310.24L89.4469 282.13C90.2946 276.151 95.8281 271.982 101.815 272.836C107.795 273.683 111.958 279.216 111.111 285.201L107.133 313.311C106.361 318.774 101.675 322.715 96.3159 322.715H96.3101Z" fill="#0079EA"/>
<path fill-rule="evenodd" clip-rule="evenodd" d="M104.753 320.364C108.306 314.513 108.643 312.26 106.245 308.022C103.847 303.773 94.0515 300.812 73.2179 305.276C45.4457 311.238 51.9083 324.155 55.1599 329.508C61.1637 339.377 67.0166 340.288 75.3837 338.959C83.7508 337.63 101.193 326.21 104.753 320.364Z" fill="#0079EA"/>
<path fill-rule="evenodd" clip-rule="evenodd" d="M82.1134 265.759C74.9657 242.416 88.9012 217.464 113.23 210.016C137.559 202.567 163.079 215.455 170.226 238.793C177.374 262.136 163.439 287.094 139.11 294.536C114.781 301.985 89.2612 289.097 82.1134 265.753V265.759Z" fill="#005CEA"/>
<path fill-rule="evenodd" clip-rule="evenodd" d="M80.3656 265.254C72.9392 240.999 86.5902 215.316 110.85 207.891C135.109 200.466 160.797 214.109 168.223 238.363C175.649 262.624 161.999 288.301 137.739 295.726C113.48 303.151 87.7921 289.509 80.3656 265.248V265.254Z" fill="#0079EA"/>
<path fill-rule="evenodd" clip-rule="evenodd" d="M114.339 254.235C114.002 247.257 116.186 240.761 120.053 235.699C124.663 229.661 131.666 225.655 139.667 225.272C154.386 224.57 166.899 236.407 167.631 251.704C168.362 266.996 157.028 279.965 142.309 280.667C127.595 281.37 115.065 269.538 114.345 254.241L114.339 254.235Z" fill="#6BE000"/>
<path d="M35.4876 266.595C32.4508 266.595 29.5418 264.888 28.1482 261.968C26.2147 257.916 27.9334 253.068 31.9805 251.129C33.4437 250.427 46.4502 244.238 51.5598 242.323C56.1063 240.616 71.8824 231.13 80.7547 225.551C84.5521 223.165 89.5747 224.303 91.9611 228.105C94.3534 231.902 93.2095 236.924 89.4063 239.31C85.3418 241.864 64.6824 254.764 57.2676 257.544C53.4992 258.955 42.7921 263.983 38.9831 265.8C37.8508 266.34 36.6605 266.595 35.4876 266.595Z" fill="#0079EA"/>
<path d="M31.0107 248.099C29.5707 246.932 27.8578 245.835 25.9185 244.906C19.0378 241.603 12.0585 241.603 10.334 244.906C8.88815 247.687 11.6056 251.907 16.5759 255.147C16.2275 255.211 15.8733 255.274 15.5017 255.356C8.58622 256.79 1.8217 261.161 0.410737 265.109C-0.965391 268.905 3.05848 270.932 9.46299 269.852C6.7688 272.981 5.04428 276.383 5.10235 278.926C5.18944 283.146 10.0785 283.46 16.0127 279.64C17.4759 278.699 18.9449 277.567 20.3152 276.325C19.3456 279.912 19.2352 283.285 20.2107 285.41C21.9701 289.242 26.5746 287.593 30.4998 281.724C31.8178 279.761 32.9849 277.474 33.8965 275.164C34.4017 274.984 34.9068 274.775 35.4004 274.542C42.7514 271.013 46.0378 262.572 42.7339 255.692C40.5333 251.106 35.9694 248.383 30.9933 248.105L31.0107 248.099Z" fill="#0079EA"/>
<path fill-rule="evenodd" clip-rule="evenodd" d="M97.1927 75.0349C94.1095 71.7027 128.089 40.94 130.806 40.6439C133.524 40.3478 163.189 63.221 158.915 102.129C156.355 125.449 151.431 130.505 149.817 134.296C150.101 129.013 103.911 82.2742 97.1985 75.0349H97.1927Z" fill="#0079EA"/>
<path d="M150.287 92.7007C151.802 72.5038 134.644 51.262 131.683 52.9861C125.952 56.3184 107.127 73.0147 101.75 76.4167C112.179 82.1408 131.793 104.375 144.277 117.449C144.544 117.728 149.096 108.486 150.281 92.7007H150.287Z" fill="#6BE000"/>
<path fill-rule="evenodd" clip-rule="evenodd" d="M77.8862 100.863C80.1972 95.4931 25.6746 72.8115 22.2546 73.6184C18.8346 74.4254 -7.30604 114.988 14.6656 160.368C27.8346 187.572 35.9926 191.584 39.5868 195.485C36.9623 189.198 72.8636 112.549 77.8862 100.863Z" fill="#0079EA"/>
<path d="M21.07 145.199C10.5197 121.339 22.1732 88.1551 26.5106 88.9678C34.901 90.5411 64.9609 102.686 72.9448 104.503C62.7545 115.945 48.5461 151.393 39.0293 172.647C38.8261 173.099 29.3093 163.846 21.0642 145.199H21.07Z" fill="#6BE000"/>
<path fill-rule="evenodd" clip-rule="evenodd" d="M23.7179 169.355C11.8205 124.775 38.4373 78.9768 83.176 67.0352C127.915 55.0993 173.826 81.5486 185.724 126.128C197.621 170.702 170.999 216.512 126.266 228.454C81.5269 240.39 35.6154 213.934 23.7179 169.361V169.355Z" fill="#0079EA"/>
<path fill-rule="evenodd" clip-rule="evenodd" d="M161.122 90.4076C153.248 76.3238 140.7 68.3994 130.882 72.231C127.148 73.6881 124.28 76.6663 122.358 80.6604C108.759 71.8768 91.1074 71.0409 76.9687 80.0044C71.9694 83.1741 66.4765 88.8285 64.8042 91.9344C63.1319 95.0403 61.0939 102.721 61.0881 102.75V102.756C58.8294 115.51 62.7894 130.221 72.9332 142.046C81.5848 152.136 92.9887 158.087 104.189 159.457C104.416 159.474 104.636 159.497 104.863 159.509C104.845 159.521 104.828 159.526 104.811 159.532C104.88 159.538 104.95 159.555 105.014 159.555C104.834 159.608 104.648 159.648 104.462 159.695C100.944 161.465 97.1461 162.83 93.1048 163.671C73.961 167.671 55.119 159.242 44.9345 143.881C44.8532 150.296 45.5558 156.844 47.1294 163.393C56.9307 204.274 96.6119 229.8 135.753 220.425C174.889 211.038 198.672 170.307 188.871 129.426C184.632 111.731 174.395 99.0924 161.127 90.396L161.122 90.4076Z" fill="#6BE000"/>
<path fill-rule="evenodd" clip-rule="evenodd" d="M72.7415 124.462C66.6332 108.764 74.4022 91.081 90.1086 84.9679C105.809 78.8549 123.496 86.6341 129.604 102.332C135.718 118.03 127.949 135.713 112.249 141.832C96.5422 147.945 78.8557 140.171 72.7415 124.468V124.462Z" fill="#EAEAEA"/>
<path d="M82.2872 118.448C79.5988 110.721 83.6982 102.262 91.444 99.5511C93.1917 98.9415 94.9685 98.6745 96.7162 98.7209C94.4459 100.468 93.4182 103.522 94.4169 106.367C95.6479 109.919 99.5266 111.777 103.08 110.541C105.949 109.536 107.731 106.814 107.656 103.928C108.805 105.287 109.728 106.872 110.35 108.648C113.044 116.375 108.962 124.839 101.21 127.55C93.4646 130.256 84.993 126.18 82.293 118.453L82.2872 118.448Z" fill="#EA9B00"/>
<path fill-rule="evenodd" clip-rule="evenodd" d="M127.433 179.375C147.97 178.411 165.273 166.075 173.553 148.74C175.504 153.361 176.689 158.394 176.933 163.695C178.059 187.816 159.415 208.292 135.289 209.418C111.163 210.55 90.6837 191.903 89.5573 167.782C89.5341 167.242 89.5283 166.708 89.5225 166.174C99.6199 174.974 112.992 180.048 127.433 179.375Z" fill="#0079EA"/>
<path fill-rule="evenodd" clip-rule="evenodd" d="M101.402 160.972C59.5259 141.158 57.2556 116.317 63.2246 93.9663L35.8008 124.921C42.095 139.271 40.7595 139.631 54.2885 151.056C69.7569 164.118 101.472 161.001 101.402 160.972Z" fill="#0079EA"/>
<path fill-rule="evenodd" clip-rule="evenodd" d="M130.237 96.6774C125.511 84.5326 131.526 70.8493 143.673 66.1237C155.82 61.3923 169.5 67.4125 174.227 79.5574C178.959 91.7022 172.949 105.385 160.802 110.111C148.649 114.837 134.969 108.822 130.237 96.6774Z" fill="#EAEAEA"/>
<path d="M136.7 91.6383C135.225 85.4033 139.086 79.1452 145.334 77.6532C146.745 77.3165 148.15 77.2526 149.503 77.4268C147.593 78.6053 146.553 80.8984 147.105 83.1973C147.778 86.0652 150.653 87.8184 153.521 87.1392C155.838 86.5876 157.44 84.608 157.615 82.3555C158.398 83.505 158.996 84.8112 159.333 86.2451C160.814 92.4743 156.964 98.7441 150.705 100.236C144.457 101.722 138.186 97.8733 136.7 91.6441V91.6383Z" fill="#EA9B00"/>
<path fill-rule="evenodd" clip-rule="evenodd" d="M129.209 128.299C126.19 116.387 133.814 104.172 146.24 101.026C158.666 97.8733 171.19 104.979 174.209 116.892C177.229 128.804 169.605 141.019 157.185 144.171C144.759 147.323 132.235 140.218 129.215 128.305L129.209 128.299Z" fill="#DE0059"/>
<path d="M227.002 164.31C226.316 161.924 232.831 157.274 228.825 157.611C233.325 153.175 234.022 148.845 230.247 147.771C226.322 146.638 219.018 149.483 213.96 154.122C213.687 154.371 213.432 154.615 213.182 154.859C213.449 149.094 211.673 144.549 208.653 144.102C205.059 143.585 201.082 149.088 199.775 156.403C199.409 158.464 199.299 160.438 199.404 162.238C196.796 166.325 196.344 171.48 198.713 175.822C202.266 182.342 210.796 184.553 217.764 180.762C218.234 180.507 218.681 180.228 219.111 179.927C221.462 180.524 223.936 180.902 226.235 180.983C233.098 181.221 237.024 178.527 235.003 174.957C233.882 172.977 231.153 171.143 227.768 169.872C229.522 169.488 230.962 168.658 231.368 167.015C232.03 164.316 227.861 167.306 227.013 164.322L227.002 164.31Z" fill="#0078FF"/>
<path d="M228.401 86.7037C228.024 88.8227 230.166 92.5149 231.989 91.7428C233.807 90.9765 233.424 88.3989 234.358 90.0418C235.311 91.6847 229.208 94.57 232.466 96.0214C236.937 98.0184 237.767 93.9605 239.52 92.1085C241.268 90.2566 241.599 91.6151 239.979 94.0417C238.348 96.4684 237.546 99.8413 239.219 100.584C240.891 101.327 244.996 101.455 244.949 96.538C244.897 91.6151 245.397 85.3685 246.68 89.6064C247.957 93.8443 247.104 97.7746 246.738 99.0111C246.378 100.248 244.078 101.676 246.157 102.425C248.236 103.168 250.239 102.007 250.175 97.9487C250.106 93.9024 250.558 94.57 250.349 91.6789C250.14 88.7937 253.067 87.6384 253.7 89.1478C254.321 90.6398 250.924 93.885 250.802 96.2768C250.669 98.6686 251.633 100.12 253.729 99.998C255.825 99.8703 258.037 96.1375 257.323 93.5425C256.615 90.9533 257.3 72.1961 256.969 69.5953C256.626 67.0003 256.829 63.9641 249.595 66.5184C240.577 69.6998 228.79 84.5964 228.407 86.6979L228.401 86.7037Z" fill="white"/>
<path d="M209.646 177.593C208.833 179.433 206.679 180.269 204.832 179.456C202.986 178.638 202.156 176.49 202.969 174.644L233.087 101.206C233.905 99.3595 238.028 99.3943 239.874 100.213C241.709 101.026 244.52 104.05 243.695 105.896L209.646 177.593Z" fill="#9200FF"/>
<path d="M245.791 105.844C245.019 107.725 241.071 107.893 236.971 106.216C232.872 104.532 230.184 101.647 230.956 99.76C231.728 97.8791 235.677 97.7107 239.776 99.3943C243.875 101.072 246.57 103.963 245.797 105.85L245.791 105.844Z" fill="#95C5FF"/>
<path d="M230.671 121.577C232.703 122.413 234.701 122.784 236.292 122.726L243.457 107.609C243.817 106.732 243.399 105.728 242.522 105.368L233.412 101.896C232.535 101.536 231.531 101.949 231.171 102.831L225.457 117.977C226.502 119.295 228.366 120.63 230.677 121.577H230.671Z" fill="#95C5FF"/>
<path d="M231.792 89.1594C234.335 83.4005 248.659 70.1875 251.998 71.6678C254.919 72.9624 255.198 92.6253 252.654 98.3842C250.105 104.137 243.376 106.75 237.61 104.195C231.85 101.653 229.254 94.9242 231.798 89.1594H231.792Z" fill="#401300"/>
<path d="M233.075 93.1012C234.991 88.0448 243.289 78.4659 250.047 72.9218C244.949 75.302 234.898 86.0884 233.005 91.0752C232.396 92.6833 232.187 94.3436 232.309 95.9517C232.471 94.9996 232.721 94.0417 233.081 93.1012H233.075Z" fill="#7E2600"/>
<path d="M246.842 101.159C249.71 96.5845 252.346 84.1842 252.683 75.4529C253.862 80.9506 251.336 95.4757 248.497 99.9923C247.585 101.449 246.389 102.616 245.036 103.493C245.704 102.79 246.314 102.013 246.848 101.159H246.842Z" fill="#7E2600"/>
<path d="M238.115 99.6904C238.603 93.6528 245.176 80.7648 251.354 72.7012C246.047 76.8404 237.778 91.5686 237.296 97.5308C237.14 99.4523 237.494 101.304 238.22 102.999C238.063 101.92 238.022 100.811 238.115 99.6846V99.6904Z" fill="#7E2600"/>
<path d="M242.232 100.985C245.222 95.7544 249.914 81.7344 251.923 73.2179C252.103 78.106 246.982 94.5352 244.032 99.702C243.08 101.362 241.616 102.523 240.461 103.754C241.082 102.883 241.674 101.96 242.232 100.985Z" fill="#7E2600"/>
<path d="M229.115 118.854C228.976 119.185 228.604 119.342 228.273 119.202C227.942 119.069 227.786 118.691 227.919 118.366L233.116 105.711C233.255 105.38 233.627 105.223 233.958 105.356C234.283 105.49 234.446 105.867 234.306 106.198L229.115 118.854Z" fill="#B6F0FB"/>
<path d="M207.254 172.141C207.12 172.472 206.743 172.629 206.412 172.496C206.081 172.362 205.924 171.985 206.058 171.654L226.578 121.942C226.711 121.611 227.089 121.455 227.42 121.588C227.745 121.722 227.908 122.099 227.768 122.43L207.248 172.141H207.254Z" fill="#923BFF"/>
<path d="M235.642 104.602C235.369 104.979 234.84 105.06 234.463 104.782L233.499 104.085C233.128 103.812 233.04 103.284 233.313 102.907C233.586 102.535 234.115 102.448 234.492 102.727L235.456 103.423C235.833 103.696 235.915 104.224 235.642 104.602Z" fill="#B6F0FB"/>
<path d="M207.678 176.902C207.312 177.784 206.307 178.202 205.425 177.842C204.542 177.482 204.124 176.472 204.484 175.59C204.844 174.707 205.849 174.289 206.731 174.649C207.614 175.009 208.038 176.019 207.678 176.902Z" fill="#923BFF"/>
<path d="M225.997 118.221C225.887 118.5 225.562 118.633 225.283 118.523C225.01 118.407 224.871 118.088 224.987 117.809C225.103 117.53 225.422 117.397 225.701 117.513C225.98 117.629 226.119 117.942 225.997 118.227V118.221Z" fill="#95C5FF"/>
<path d="M236.78 122.912C236.669 123.191 236.344 123.324 236.066 123.214C235.787 123.092 235.653 122.778 235.769 122.5C235.886 122.221 236.205 122.087 236.484 122.204C236.762 122.314 236.896 122.639 236.78 122.918V122.912Z" fill="#95C5FF"/>
<path d="M230.346 86.8489C229.974 88.8053 230.474 90.6456 232.094 89.8967C233.725 89.1536 234.753 88.306 235.549 89.8038C236.356 91.2958 230.898 94.0824 233.749 95.348C236.611 96.6135 237.958 92.8168 239.544 91.0752C241.123 89.3336 242.969 91.7776 241.477 94.0476C239.985 96.3175 238.162 98.7673 239.631 99.4175C241.1 100.068 244.073 101.049 244.125 96.5264C244.177 91.9924 246.082 84.3758 247.127 88.2538C248.172 92.1318 246.662 96.6716 246.308 97.821C245.965 98.9647 243.904 100.323 245.727 100.979C247.551 101.624 250.007 102.703 250.024 98.9705C250.047 95.2435 249.78 93.6586 249.653 90.9997C249.525 88.3409 252.138 87.2204 252.666 88.5963C253.194 89.9606 252.55 91.7951 252.387 93.9953C252.225 96.2072 250.616 98.7441 252.474 98.5873C254.333 98.4306 256.365 94.9416 255.784 92.573C255.209 90.1986 256.191 72.9044 255.947 70.5184C255.697 68.1382 255.941 65.3342 249.484 67.8363C241.436 70.948 230.712 84.9099 230.329 86.8547L230.346 86.8489Z" fill="#FF0000"/>
<path d="M233.865 150.888C234.811 154.197 230.735 158.267 224.755 159.979C218.774 161.692 213.159 160.397 212.213 157.088C211.266 153.779 215.342 149.71 221.323 147.991C227.304 146.279 232.918 147.573 233.865 150.882V150.888Z" fill="#0078FF"/>
<path d="M235.212 163.039C235.421 166.731 230.184 170.034 223.512 170.417C216.84 170.8 211.266 168.113 211.057 164.42C210.842 160.734 216.08 157.425 222.751 157.047C229.417 156.664 234.997 159.346 235.212 163.039Z" fill="#0078FF"/>
<path d="M213.252 142.795C215.906 144.589 216.033 149.03 213.537 152.717C211.051 156.403 206.877 157.936 204.217 156.136C201.564 154.342 201.436 149.901 203.927 146.215C206.418 142.528 210.593 141.001 213.246 142.795H213.252Z" fill="#0078FF"/>
</g>
<defs>
<clipPath id="clip0_499_6205">
<rect width="514.701" height="338.767" fill="white" transform="translate(0.149414 0.679688)"/>
</clipPath>
</defs>
</svg>
