<svg width="131" height="43" viewBox="0 0 131 43" fill="none" xmlns="http://www.w3.org/2000/svg">
<path d="M109.86 0.923828C98.4875 0.923828 89.2305 10.1808 89.2305 21.5537C89.2305 32.9265 98.4875 42.1835 109.86 42.1835C121.233 42.1835 130.49 32.9265 130.49 21.5537C130.49 10.1808 121.233 0.923828 109.86 0.923828Z" fill="white"/>
<path d="M109.86 39.5537C119.801 39.5537 127.86 31.4948 127.86 21.5537C127.86 11.6126 119.801 3.55371 109.86 3.55371C99.9192 3.55371 91.8604 11.6126 91.8604 21.5537C91.8604 31.4948 99.9192 39.5537 109.86 39.5537Z" fill="#FF7500"/>
<path d="M110.359 32.2616C107.903 32.2616 105.795 31.7931 104.034 30.8485C102.273 29.9039 100.921 28.574 99.9912 26.851C99.0542 25.1281 98.5933 23.118 98.5933 20.8057C98.5933 18.4933 99.0618 16.4908 99.9912 14.7754C100.928 13.0676 102.273 11.7376 104.034 10.793C105.795 9.8484 107.903 9.37988 110.359 9.37988C111.326 9.37988 112.324 9.49324 113.367 9.71238C114.402 9.93153 115.324 10.264 116.125 10.7023C116.714 11.0197 117.122 11.4126 117.349 11.8963C117.583 12.3799 117.666 12.8711 117.598 13.3774C117.538 13.8837 117.349 14.3295 117.047 14.73C116.745 15.1306 116.359 15.395 115.898 15.5311C115.437 15.6671 114.931 15.5991 114.387 15.327C113.148 14.7225 111.878 14.4127 110.578 14.4127C108.629 14.4127 107.155 14.9643 106.173 16.0676C105.183 17.1709 104.692 18.7502 104.692 20.8057C104.692 22.8611 105.183 24.4707 106.173 25.5739C107.163 26.6772 108.629 27.2289 110.578 27.2289C111.122 27.2289 111.712 27.1609 112.339 27.0248C112.966 26.8888 113.586 26.6772 114.198 26.3825C114.825 26.1105 115.392 26.0349 115.883 26.1634C116.374 26.2918 116.782 26.5412 117.092 26.919C117.41 27.2969 117.598 27.7352 117.674 28.2264C117.75 28.7175 117.674 29.2087 117.47 29.6924C117.258 30.176 116.873 30.5614 116.306 30.8561C115.573 31.2944 114.666 31.642 113.586 31.8914C112.505 32.1407 111.432 32.2692 110.359 32.2692V32.2616Z" fill="#FFDB00"/>
<path d="M65.5779 0.923828C54.205 0.923828 44.948 10.1808 44.948 21.5537C44.948 32.9265 54.205 42.1835 65.5779 42.1835C76.9507 42.1835 86.2077 32.9265 86.2077 21.5537C86.2077 10.1808 76.9507 0.923828 65.5779 0.923828Z" fill="white"/>
<path d="M65.5779 39.5537C75.519 39.5537 83.5779 31.4948 83.5779 21.5537C83.5779 11.6126 75.519 3.55371 65.5779 3.55371C55.6368 3.55371 47.5779 11.6126 47.5779 21.5537C47.5779 31.4948 55.6368 39.5537 65.5779 39.5537Z" fill="#00A74E"/>
<path d="M59.6535 32.7983C57.6359 32.7983 56.6309 31.8008 56.6309 29.8059V13.5891C56.6309 11.5942 57.6359 10.5967 59.6535 10.5967H67.3312C69.7267 10.5967 71.5781 11.1181 72.8854 12.1534C74.2002 13.1886 74.8501 14.5866 74.8501 16.3247C74.8501 17.4809 74.563 18.4859 73.9811 19.3474C73.4068 20.2088 72.5982 20.8512 71.5705 21.2668C72.8098 21.6446 73.762 22.2794 74.4345 23.1711C75.1071 24.0628 75.4395 25.1736 75.4395 26.496C75.4395 28.4457 74.7443 29.9872 73.3463 31.1056C71.9483 32.2316 70.044 32.7908 67.6335 32.7908H59.6384L59.6535 32.7983ZM62.1775 19.4229H66.3035C67.3539 19.4229 68.1246 19.234 68.6158 18.8562C69.107 18.4783 69.3564 17.904 69.3564 17.1257C69.3564 16.3473 69.107 15.7806 68.6158 15.4103C68.1246 15.04 67.3539 14.8587 66.3035 14.8587H62.1775V19.4229ZM62.1775 28.5515H66.8702C67.9433 28.5515 68.7216 28.3474 69.2128 27.9394C69.704 27.5313 69.9534 26.9192 69.9534 26.0955C69.9534 25.2718 69.704 24.6673 69.2128 24.2668C68.7216 23.8663 67.9357 23.6698 66.8702 23.6698H62.1775V28.5515Z" fill="#BAEC16"/>
<path d="M21.6001 0.923828C10.2272 0.923828 0.970215 10.1808 0.970215 21.5537C0.970215 32.9265 10.2272 42.1835 21.6001 42.1835C32.9729 42.1835 42.2299 32.9265 42.2299 21.5537C42.2299 10.1808 32.9729 0.923828 21.6001 0.923828Z" fill="white"/>
<path d="M21.6001 39.5537C31.5412 39.5537 39.6001 31.4948 39.6001 21.5537C39.6001 11.6126 31.5412 3.55371 21.6001 3.55371C11.659 3.55371 3.6001 11.6126 3.6001 21.5537C3.6001 31.4948 11.659 39.5537 21.6001 39.5537Z" fill="#A120DE"/>
<path d="M12.3258 31.8832C11.3358 31.8832 10.618 31.5507 10.157 30.8781C9.69604 30.2056 9.69604 29.3668 10.157 28.3617L17.9933 11.4876C18.3712 10.6715 18.8321 10.0745 19.3762 9.69664C19.9203 9.3188 20.5626 9.12988 21.2956 9.12988C22.0286 9.12988 22.6407 9.3188 23.1848 9.69664C23.7289 10.0745 24.1898 10.6715 24.5677 11.4876L32.404 28.3617C32.8876 29.3895 32.9103 30.2358 32.4644 30.8932C32.0186 31.5507 31.3309 31.8832 30.3863 31.8832C29.5476 31.8832 28.8977 31.6943 28.4518 31.3164C27.9984 30.9386 27.5979 30.3265 27.2427 29.4877L26.2377 27.0922H16.3233L15.3182 29.4877C14.9404 30.3265 14.555 30.9386 14.1545 31.3164C13.754 31.6943 13.1495 31.8832 12.3258 31.8832ZM21.2352 15.4473L18.2125 22.6564H24.3183L21.2956 15.4473H21.2352Z" fill="#FF10FF"/>
</svg>
