<svg width="354" height="201" viewBox="0 0 354 201" fill="none" xmlns="http://www.w3.org/2000/svg">
<g opacity="0.2">
<path d="M89.2202 200.21C100.818 200.21 110.22 190.808 110.22 179.21C110.22 167.612 100.818 158.21 89.2202 158.21C77.6222 158.21 68.2202 167.612 68.2202 179.21C68.2202 190.808 77.6222 200.21 89.2202 200.21Z" fill="#FFBD00"/>
<path d="M100.08 168.55H77.9702V190.66H100.08V168.55Z" fill="#FF0000"/>
<path d="M30.3301 200.21C41.9281 200.21 51.3301 190.808 51.3301 179.21C51.3301 167.612 41.9281 158.21 30.3301 158.21C18.7321 158.21 9.33008 167.612 9.33008 179.21C9.33008 190.808 18.7321 200.21 30.3301 200.21Z" fill="#99CF16"/>
<path d="M30.3302 192.55C37.6977 192.55 43.6702 186.578 43.6702 179.21C43.6702 171.843 37.6977 165.87 30.3302 165.87C22.9628 165.87 16.9902 171.843 16.9902 179.21C16.9902 186.578 22.9628 192.55 30.3302 192.55Z" fill="#00A84E"/>
<path d="M148.11 200.21C159.708 200.21 169.11 190.808 169.11 179.21C169.11 167.612 159.708 158.21 148.11 158.21C136.512 158.21 127.11 167.612 127.11 179.21C127.11 190.808 136.512 200.21 148.11 200.21Z" fill="#002C8D"/>
<path d="M148.11 163.9L133.81 188.66H162.4L148.11 163.9Z" fill="#2FBDEB"/>
<path d="M207 200.21C218.598 200.21 228 190.808 228 179.21C228 167.612 218.598 158.21 207 158.21C195.402 158.21 186 167.612 186 179.21C186 190.808 195.402 200.21 207 200.21Z" fill="#A220DF"/>
<path d="M196.87 190.13C195.79 190.13 194.99 189.76 194.48 189.02C193.97 188.28 193.97 187.36 194.48 186.25L203.09 167.72C203.5 166.82 204.01 166.16 204.61 165.75C205.21 165.34 205.91 165.13 206.72 165.13C207.53 165.13 208.19 165.34 208.79 165.75C209.39 166.16 209.9 166.82 210.31 167.72L218.92 186.25C219.45 187.38 219.47 188.31 218.99 189.03C218.51 189.75 217.75 190.12 216.71 190.12C215.79 190.12 215.08 189.91 214.58 189.5C214.08 189.09 213.64 188.42 213.25 187.49L212.14 184.86H201.25L200.14 187.49C199.73 188.41 199.3 189.08 198.86 189.5C198.42 189.91 197.75 190.12 196.85 190.12L196.87 190.13ZM206.65 172.08L203.33 180H210.04L206.72 172.08H206.65Z" fill="#CA8FFF"/>
<path d="M265.89 200.21C277.488 200.21 286.89 190.808 286.89 179.21C286.89 167.612 277.488 158.21 265.89 158.21C254.292 158.21 244.89 167.612 244.89 179.21C244.89 190.808 254.292 200.21 265.89 200.21Z" fill="#00A84E"/>
<path d="M259.39 191.13C257.18 191.13 256.07 190.04 256.07 187.84V170.03C256.07 167.84 257.18 166.74 259.39 166.74H267.83C270.46 166.74 272.49 167.31 273.93 168.45C275.37 169.59 276.09 171.12 276.09 173.03C276.09 174.3 275.77 175.4 275.14 176.35C274.51 177.3 273.62 178 272.49 178.46C273.85 178.87 274.9 179.57 275.64 180.55C276.38 181.53 276.75 182.75 276.75 184.2C276.75 186.34 275.98 188.03 274.45 189.27C272.92 190.5 270.82 191.12 268.17 191.12H259.39V191.13ZM262.16 176.44H266.69C267.84 176.44 268.69 176.23 269.23 175.82C269.77 175.41 270.04 174.77 270.04 173.92C270.04 173.07 269.77 172.44 269.23 172.04C268.69 171.64 267.84 171.43 266.69 171.43H262.16V176.44ZM262.16 186.46H267.31C268.49 186.46 269.34 186.24 269.89 185.79C270.43 185.34 270.7 184.67 270.7 183.77C270.7 182.87 270.43 182.2 269.89 181.76C269.35 181.32 268.49 181.1 267.31 181.1H262.16V186.46Z" fill="#BBED16"/>
<path d="M324.78 200.21C336.378 200.21 345.78 190.808 345.78 179.21C345.78 167.612 336.378 158.21 324.78 158.21C313.182 158.21 303.78 167.612 303.78 179.21C303.78 190.808 313.182 200.21 324.78 200.21Z" fill="#FF8000"/>
<path d="M325.33 191.21C322.63 191.21 320.32 190.69 318.38 189.65C316.44 188.61 314.96 187.15 313.94 185.26C312.91 183.37 312.4 181.16 312.4 178.62C312.4 176.08 312.91 173.88 313.94 172C314.97 170.12 316.45 168.66 318.38 167.63C320.32 166.59 322.63 166.07 325.33 166.07C326.39 166.07 327.49 166.19 328.63 166.43C329.77 166.67 330.78 167.03 331.66 167.52C332.3 167.87 332.75 168.3 333.01 168.83C333.26 169.36 333.36 169.9 333.29 170.46C333.22 171.01 333.02 171.51 332.68 171.95C332.35 172.39 331.92 172.68 331.42 172.83C330.91 172.98 330.36 172.9 329.76 172.61C328.4 171.94 327.01 171.61 325.58 171.61C323.44 171.61 321.82 172.22 320.74 173.43C319.66 174.64 319.11 176.38 319.11 178.63C319.11 180.88 319.65 182.66 320.74 183.87C321.82 185.08 323.44 185.69 325.58 185.69C326.18 185.69 326.82 185.62 327.52 185.47C328.21 185.32 328.89 185.08 329.56 184.76C330.25 184.46 330.87 184.38 331.41 184.52C331.95 184.66 332.4 184.93 332.74 185.35C333.09 185.76 333.3 186.24 333.38 186.79C333.46 187.33 333.38 187.87 333.16 188.4C332.93 188.93 332.5 189.36 331.88 189.68C331.07 190.16 330.08 190.54 328.89 190.82C327.7 191.1 326.52 191.23 325.35 191.23L325.33 191.21Z" fill="#FFDC00"/>
<path d="M30.3301 147.47C41.9281 147.47 51.3301 138.068 51.3301 126.47C51.3301 114.872 41.9281 105.47 30.3301 105.47C18.7321 105.47 9.33008 114.872 9.33008 126.47C9.33008 138.068 18.7321 147.47 30.3301 147.47Z" fill="#FF0000"/>
<path d="M23.64 138.82C21.74 138.82 20.79 137.88 20.79 136.01C20.79 134.14 21.74 133.24 23.64 133.24H27.01V119.88L24.73 121.27C24.08 121.67 23.47 121.83 22.9 121.74C22.33 121.65 21.84 121.41 21.44 121.01C21.04 120.61 20.78 120.12 20.65 119.55C20.52 118.98 20.58 118.4 20.8 117.83C21.02 117.26 21.47 116.77 22.15 116.37L27.32 113.15C28.44 112.45 29.63 112.1 30.88 112.1C31.83 112.1 32.56 112.34 33.09 112.83C33.61 113.32 33.88 114.02 33.88 114.94V133.25H36.87C38.77 133.25 39.72 134.17 39.72 136.02C39.72 137.87 38.77 138.83 36.87 138.83H23.66L23.64 138.82Z" fill="#FFBD00"/>
<path d="M89.2202 147.47C100.818 147.47 110.22 138.068 110.22 126.47C110.22 114.872 100.818 105.47 89.2202 105.47C77.6222 105.47 68.2202 114.872 68.2202 126.47C68.2202 138.068 77.6222 147.47 89.2202 147.47Z" fill="#6600BD"/>
<path d="M83.64 139.18C82.54 139.18 81.75 138.92 81.26 138.41C80.77 137.9 80.53 137.14 80.53 136.15C80.53 135.45 80.68 134.83 80.98 134.28C81.28 133.73 81.69 133.19 82.22 132.67L88.77 125.82C89.74 124.8 90.44 123.91 90.85 123.14C91.26 122.38 91.47 121.62 91.47 120.88C91.47 118.98 90.26 118.03 87.84 118.03C87.24 118.03 86.6 118.11 85.91 118.27C85.22 118.43 84.51 118.71 83.76 119.11C83.09 119.43 82.47 119.53 81.93 119.39C81.38 119.25 80.93 118.97 80.58 118.55C80.23 118.13 80.01 117.64 79.92 117.09C79.83 116.54 79.92 116 80.16 115.46C80.41 114.92 80.86 114.48 81.51 114.13C82.66 113.53 83.85 113.09 85.08 112.8C86.32 112.51 87.56 112.37 88.8 112.37C91.84 112.37 94.17 113.03 95.78 114.35C97.39 115.67 98.19 117.58 98.19 120.08C98.19 121.68 97.83 123.2 97.1 124.65C96.38 126.1 95.17 127.66 93.47 129.33L89.2 133.6H96.65C98.55 133.6 99.49 134.52 99.49 136.37C99.49 138.22 98.54 139.18 96.65 139.18H83.62H83.64Z" fill="#E93594"/>
<path d="M148.11 147.47C159.708 147.47 169.11 138.068 169.11 126.47C169.11 114.872 159.708 105.47 148.11 105.47C136.512 105.47 127.11 114.872 127.11 126.47C127.11 138.068 136.512 147.47 148.11 147.47Z" fill="#2FBDEB"/>
<path d="M147.43 139.59C146.13 139.59 144.85 139.46 143.59 139.22C142.33 138.97 141.24 138.62 140.31 138.17C139.54 137.8 138.99 137.33 138.66 136.78C138.34 136.23 138.2 135.67 138.25 135.1C138.3 134.53 138.51 134.01 138.87 133.57C139.23 133.12 139.71 132.82 140.29 132.65C140.88 132.49 141.54 132.57 142.29 132.89C143.21 133.29 144.06 133.56 144.84 133.71C145.61 133.86 146.39 133.93 147.16 133.93C149.86 133.93 151.2 133.01 151.2 131.16C151.2 129.46 150 128.61 147.61 128.61H145.59C144.64 128.61 143.92 128.37 143.42 127.9C142.92 127.43 142.67 126.75 142.67 125.88C142.67 125.01 142.92 124.33 143.42 123.86C143.92 123.39 144.64 123.15 145.59 123.15H146.94C148.01 123.15 148.86 122.93 149.47 122.48C150.08 122.03 150.39 121.38 150.39 120.53C150.39 118.86 149.23 118.02 146.91 118.02C146.21 118.02 145.5 118.09 144.78 118.24C144.06 118.39 143.28 118.65 142.46 119.03C141.81 119.3 141.22 119.37 140.68 119.22C140.14 119.07 139.7 118.78 139.35 118.36C139 117.94 138.79 117.44 138.71 116.88C138.64 116.32 138.73 115.78 139.01 115.27C139.28 114.76 139.76 114.33 140.43 113.98C142.58 112.91 144.96 112.37 147.58 112.37C150.52 112.37 152.82 113.01 154.47 114.3C156.12 115.59 156.94 117.36 156.94 119.63C156.94 120.98 156.6 122.16 155.93 123.19C155.26 124.21 154.32 124.96 153.12 125.44C154.59 125.86 155.73 126.64 156.55 127.76C157.36 128.88 157.77 130.24 157.77 131.84C157.77 134.24 156.85 136.13 155.02 137.51C153.19 138.89 150.66 139.59 147.44 139.59H147.43Z" fill="#0078FF"/>
<path d="M265.89 147.47C277.488 147.47 286.89 138.068 286.89 126.47C286.89 114.872 277.488 105.47 265.89 105.47C254.292 105.47 244.89 114.872 244.89 126.47C244.89 138.068 254.292 147.47 265.89 147.47Z" fill="#FFBD00"/>
<path d="M276.75 115.81H254.64V137.92H276.75V115.81Z" fill="#FF0000"/>
<path d="M207 147.47C218.598 147.47 228 138.068 228 126.47C228 114.872 218.598 105.47 207 105.47C195.402 105.47 186 114.872 186 126.47C186 138.068 195.402 147.47 207 147.47Z" fill="#99CF16"/>
<path d="M207 139.81C214.368 139.81 220.34 133.837 220.34 126.47C220.34 119.102 214.368 113.13 207 113.13C199.633 113.13 193.66 119.102 193.66 126.47C193.66 133.837 199.633 139.81 207 139.81Z" fill="#00A84E"/>
<path d="M324.78 147.47C336.378 147.47 345.78 138.068 345.78 126.47C345.78 114.872 336.378 105.47 324.78 105.47C313.182 105.47 303.78 114.872 303.78 126.47C303.78 138.068 313.182 147.47 324.78 147.47Z" fill="#002C8D"/>
<path d="M324.78 111.16L310.49 135.92H339.08L324.78 111.16Z" fill="#2FBDEB"/>
<path d="M148.11 94.7402C159.708 94.7402 169.11 85.3382 169.11 73.7402C169.11 62.1423 159.708 52.7402 148.11 52.7402C136.512 52.7402 127.11 62.1423 127.11 73.7402C127.11 85.3382 136.512 94.7402 148.11 94.7402Z" fill="#0078FF"/>
<path d="M148.47 57.8901C148.28 57.8501 148.09 57.8301 147.89 57.8301C146.81 57.8501 145.87 58.5601 145.56 59.5901L143.19 67.3701L135.06 67.5201C133.98 67.5401 133.04 68.2501 132.73 69.2801C132.42 70.3101 132.8 71.4201 133.68 72.0401L140.35 76.7001L137.98 84.4801C137.67 85.5101 138.05 86.6201 138.93 87.2401C139.2 87.4301 139.5 87.5601 139.81 87.6301C140.51 87.7801 141.25 87.6301 141.85 87.1901L148.34 82.2901L155.01 86.9501C155.28 87.1401 155.58 87.2701 155.89 87.3401C156.59 87.4901 157.33 87.3401 157.92 86.9001C158.78 86.2501 159.12 85.1201 158.77 84.1101L156.11 76.4201L162.54 71.5601C163.02 71.2201 163.38 70.7001 163.52 70.0801C163.81 68.7701 163.01 67.4701 161.72 67.1401C161.69 67.1401 161.66 67.1301 161.63 67.1201C161.57 67.1101 161.5 67.0901 161.44 67.0801C161.29 67.0601 161.14 67.0501 160.99 67.0601L152.92 67.2101L150.27 59.5301C149.98 58.7001 149.29 58.1001 148.46 57.9201L148.47 57.8901Z" fill="#2FBDEB"/>
<path d="M89.2202 94.7402C100.818 94.7402 110.22 85.3382 110.22 73.7402C110.22 62.1423 100.818 52.7402 89.2202 52.7402C77.6222 52.7402 68.2202 62.1423 68.2202 73.7402C68.2202 85.3382 77.6222 94.7402 89.2202 94.7402Z" fill="#FF92FF"/>
<path d="M89.04 67.6301C89.04 67.6301 82.45 59.5201 77.24 63.6401C68.42 70.6001 89.04 87.5801 89.04 87.5801C89.04 87.5801 108.79 71.5201 100.44 64.1001C94.06 58.4301 89.04 67.6301 89.04 67.6301Z" fill="#FF0000"/>
<path d="M30.3301 94.7402C41.9281 94.7402 51.3301 85.3382 51.3301 73.7402C51.3301 62.1423 41.9281 52.7402 30.3301 52.7402C18.7321 52.7402 9.33008 62.1423 9.33008 73.7402C9.33008 85.3382 18.7321 94.7402 30.3301 94.7402Z" fill="#FFDC00"/>
<path d="M27.9098 63.2796L29.2698 75.1996C27.0798 74.7796 24.2698 75.6896 21.9898 77.8196C18.7598 80.8296 17.8398 85.0796 19.9198 87.3096C21.9998 89.5396 26.2998 88.9096 29.5298 85.8996C32.0298 83.5696 33.1298 80.5096 32.5398 78.1996L31.2398 67.6396C31.2398 67.6396 33.4098 67.4096 37.0698 65.9396C40.7298 64.4696 39.1298 57.5596 39.1298 57.5596L27.9098 63.2696V63.2796Z" fill="#FF8000"/>
<path d="M207 94.7402C218.598 94.7402 228 85.3382 228 73.7402C228 62.1423 218.598 52.7402 207 52.7402C195.402 52.7402 186 62.1423 186 73.7402C186 85.3382 195.402 94.7402 207 94.7402Z" fill="#FF0000"/>
<path d="M200.32 86.0804C198.42 86.0804 197.47 85.1403 197.47 83.2703C197.47 81.4003 198.42 80.5004 200.32 80.5004H203.69V67.1404L201.41 68.5303C200.76 68.9303 200.15 69.0904 199.58 69.0004C199.01 68.9104 198.52 68.6703 198.12 68.2703C197.72 67.8703 197.46 67.3803 197.33 66.8103C197.2 66.2403 197.26 65.6603 197.48 65.0903C197.7 64.5203 198.15 64.0304 198.83 63.6304L204 60.4104C205.12 59.7104 206.31 59.3604 207.56 59.3604C208.51 59.3604 209.24 59.6004 209.77 60.0904C210.29 60.5804 210.56 61.2804 210.56 62.2004V80.5104H213.55C215.45 80.5104 216.4 81.4303 216.4 83.2803C216.4 85.1303 215.45 86.0903 213.55 86.0903H200.34L200.32 86.0804Z" fill="#FFBD00"/>
<path d="M265.89 94.7402C277.488 94.7402 286.89 85.3382 286.89 73.7402C286.89 62.1423 277.488 52.7402 265.89 52.7402C254.292 52.7402 244.89 62.1423 244.89 73.7402C244.89 85.3382 254.292 94.7402 265.89 94.7402Z" fill="#6600BD"/>
<path d="M260.31 86.4399C259.21 86.4399 258.42 86.1799 257.93 85.6699C257.44 85.1599 257.2 84.3999 257.2 83.4099C257.2 82.7099 257.35 82.0899 257.65 81.5399C257.95 80.9899 258.36 80.4499 258.89 79.9299L265.44 73.0799C266.41 72.0599 267.11 71.1699 267.52 70.3999C267.93 69.6399 268.14 68.8799 268.14 68.1399C268.14 66.2399 266.93 65.2899 264.51 65.2899C263.91 65.2899 263.27 65.3699 262.58 65.5299C261.89 65.6899 261.18 65.9699 260.43 66.3699C259.76 66.6899 259.14 66.7899 258.6 66.6499C258.05 66.5099 257.6 66.2299 257.25 65.8099C256.9 65.3899 256.68 64.8999 256.59 64.3499C256.5 63.7999 256.59 63.2599 256.83 62.7199C257.08 62.1799 257.53 61.7399 258.18 61.3899C259.33 60.7899 260.52 60.3499 261.75 60.0599C262.99 59.7699 264.23 59.6299 265.47 59.6299C268.51 59.6299 270.84 60.2899 272.45 61.6099C274.06 62.9299 274.86 64.8399 274.86 67.3399C274.86 68.9399 274.5 70.4599 273.77 71.9099C273.05 73.3599 271.84 74.9199 270.14 76.5899L265.87 80.8599H273.32C275.22 80.8599 276.16 81.7799 276.16 83.6299C276.16 85.4799 275.21 86.4399 273.32 86.4399H260.29H260.31Z" fill="#E93594"/>
<path d="M324.78 94.7402C336.378 94.7402 345.78 85.3382 345.78 73.7402C345.78 62.1423 336.378 52.7402 324.78 52.7402C313.182 52.7402 303.78 62.1423 303.78 73.7402C303.78 85.3382 313.182 94.7402 324.78 94.7402Z" fill="#2FBDEB"/>
<path d="M324.11 86.8499C322.81 86.8499 321.53 86.7199 320.27 86.4799C319.01 86.2299 317.92 85.8799 316.99 85.4299C316.22 85.0599 315.67 84.5899 315.34 84.0399C315.02 83.4899 314.88 82.9299 314.93 82.3599C314.98 81.7899 315.19 81.2699 315.55 80.8299C315.91 80.3799 316.39 80.0799 316.97 79.9099C317.56 79.7499 318.22 79.8299 318.97 80.1499C319.89 80.5499 320.74 80.8199 321.52 80.9699C322.29 81.1199 323.07 81.1899 323.84 81.1899C326.54 81.1899 327.88 80.2699 327.88 78.4199C327.88 76.7199 326.68 75.8699 324.29 75.8699H322.27C321.32 75.8699 320.6 75.6299 320.1 75.1599C319.6 74.6899 319.35 74.0099 319.35 73.1399C319.35 72.2699 319.6 71.5899 320.1 71.1199C320.6 70.6499 321.32 70.4099 322.27 70.4099H323.62C324.69 70.4099 325.54 70.1899 326.15 69.7399C326.76 69.2899 327.07 68.6399 327.07 67.7899C327.07 66.1199 325.91 65.2799 323.59 65.2799C322.89 65.2799 322.18 65.3499 321.46 65.4999C320.74 65.6499 319.96 65.9099 319.14 66.2899C318.49 66.5599 317.9 66.6299 317.36 66.4799C316.82 66.3299 316.38 66.0399 316.03 65.6199C315.68 65.1999 315.47 64.6999 315.39 64.1399C315.32 63.5799 315.41 63.0399 315.69 62.5299C315.96 62.0199 316.44 61.5899 317.11 61.2399C319.26 60.1699 321.64 59.6299 324.26 59.6299C327.2 59.6299 329.5 60.2699 331.15 61.5599C332.8 62.8499 333.62 64.6199 333.62 66.8899C333.62 68.2399 333.28 69.4199 332.61 70.4499C331.94 71.4699 331 72.2199 329.8 72.6999C331.27 73.1199 332.41 73.8999 333.23 75.0199C334.04 76.1399 334.45 77.4999 334.45 79.0999C334.45 81.4999 333.53 83.3899 331.7 84.7699C329.87 86.1599 327.34 86.8499 324.12 86.8499H324.11Z" fill="#0078FF"/>
<path d="M29 42C40.598 42 50 32.598 50 21C50 9.40202 40.598 0 29 0C17.402 0 8 9.40202 8 21C8 32.598 17.402 42 29 42Z" fill="#A220DF"/>
<path d="M18.8702 31.9199C17.7902 31.9199 16.9902 31.5499 16.4802 30.8099C15.9702 30.0699 15.9702 29.1499 16.4802 28.0399L25.0902 9.50992C25.5002 8.60992 26.0102 7.94992 26.6102 7.53992C27.2102 7.12992 27.9102 6.91992 28.7202 6.91992C29.5302 6.91992 30.1902 7.12992 30.7902 7.53992C31.3902 7.94992 31.9002 8.60992 32.3102 9.50992L40.9202 28.0399C41.4502 29.1699 41.4702 30.0999 40.9902 30.8199C40.5102 31.5399 39.7502 31.9099 38.7102 31.9099C37.7902 31.9099 37.0802 31.6999 36.5802 31.2899C36.0802 30.8799 35.6402 30.2099 35.2502 29.2799L34.1402 26.6499H23.2502L22.1402 29.2799C21.7302 30.1999 21.3002 30.8699 20.8602 31.2899C20.4202 31.6999 19.7502 31.9099 18.8502 31.9099L18.8702 31.9199ZM28.6502 13.8699L25.3302 21.7899H32.0402L28.7202 13.8699H28.6502Z" fill="#CA8FFF"/>
<path d="M87.8901 42C99.4881 42 108.89 32.598 108.89 21C108.89 9.40202 99.4881 0 87.8901 0C76.2922 0 66.8901 9.40202 66.8901 21C66.8901 32.598 76.2922 42 87.8901 42Z" fill="#00A84E"/>
<path d="M81.3898 32.92C79.1798 32.92 78.0698 31.83 78.0698 29.63V11.83C78.0698 9.64004 79.1798 8.54004 81.3898 8.54004H89.8298C92.4598 8.54004 94.4898 9.11004 95.9298 10.25C97.3698 11.39 98.0898 12.92 98.0898 14.83C98.0898 16.1 97.7698 17.2 97.1398 18.15C96.5098 19.1 95.6198 19.8 94.4898 20.26C95.8498 20.67 96.8998 21.37 97.6398 22.35C98.3798 23.33 98.7498 24.55 98.7498 26C98.7498 28.14 97.9798 29.83 96.4498 31.07C94.9198 32.3 92.8198 32.92 90.1698 32.92H81.3898ZM84.1598 18.23H88.6898C89.8398 18.23 90.6898 18.02 91.2298 17.61C91.7698 17.2 92.0398 16.56 92.0398 15.71C92.0398 14.86 91.7698 14.23 91.2298 13.83C90.6898 13.43 89.8398 13.22 88.6898 13.22H84.1598V18.23ZM84.1598 28.25H89.3098C90.4898 28.25 91.3398 28.03 91.8898 27.58C92.4298 27.13 92.6998 26.46 92.6998 25.56C92.6998 24.66 92.4298 23.99 91.8898 23.55C91.3498 23.11 90.4898 22.89 89.3098 22.89H84.1598V28.25Z" fill="#BBED16"/>
<path d="M146.78 42C158.378 42 167.78 32.598 167.78 21C167.78 9.40202 158.378 0 146.78 0C135.182 0 125.78 9.40202 125.78 21C125.78 32.598 135.182 42 146.78 42Z" fill="#FF8000"/>
<path d="M147.33 33.0004C144.63 33.0004 142.32 32.4804 140.38 31.4404C138.44 30.4004 136.96 28.9404 135.94 27.0504C134.91 25.1604 134.4 22.9504 134.4 20.4104C134.4 17.8704 134.91 15.6704 135.94 13.7904C136.97 11.9104 138.45 10.4504 140.38 9.42035C142.32 8.38035 144.63 7.86035 147.33 7.86035C148.39 7.86035 149.49 7.98035 150.63 8.22035C151.77 8.46035 152.78 8.82035 153.66 9.31035C154.3 9.66035 154.75 10.0904 155.01 10.6204C155.26 11.1504 155.36 11.6904 155.29 12.2504C155.22 12.8004 155.02 13.3004 154.68 13.7404C154.35 14.1804 153.92 14.4704 153.42 14.6204C152.91 14.7704 152.36 14.6904 151.76 14.4004C150.4 13.7304 149.01 13.4004 147.58 13.4004C145.44 13.4004 143.82 14.0104 142.74 15.2204C141.66 16.4304 141.11 18.1704 141.11 20.4204C141.11 22.6704 141.65 24.4504 142.74 25.6604C143.82 26.8704 145.44 27.4804 147.58 27.4804C148.18 27.4804 148.82 27.4104 149.52 27.2604C150.21 27.1104 150.89 26.8704 151.56 26.5504C152.25 26.2504 152.87 26.1704 153.41 26.3104C153.95 26.4504 154.4 26.7204 154.74 27.1404C155.09 27.5504 155.3 28.0304 155.38 28.5804C155.46 29.1204 155.38 29.6604 155.16 30.1904C154.93 30.7204 154.5 31.1504 153.88 31.4704C153.07 31.9504 152.08 32.3304 150.89 32.6104C149.7 32.8904 148.52 33.0204 147.35 33.0204L147.33 33.0004Z" fill="#FFDC00"/>
<path d="M323.46 42C335.058 42 344.46 32.598 344.46 21C344.46 9.40202 335.058 0 323.46 0C311.862 0 302.46 9.40202 302.46 21C302.46 32.598 311.862 42 323.46 42Z" fill="#0078FF"/>
<path d="M323.82 5.15961C323.63 5.11961 323.44 5.09961 323.24 5.09961C322.16 5.11961 321.22 5.82961 320.91 6.85961L318.54 14.6396L310.41 14.7896C309.33 14.8096 308.39 15.5196 308.08 16.5496C307.77 17.5796 308.15 18.6896 309.03 19.3096L315.7 23.9696L313.33 31.7496C313.02 32.7796 313.4 33.8896 314.28 34.5096C314.55 34.6996 314.85 34.8296 315.16 34.8996C315.86 35.0496 316.6 34.8996 317.2 34.4596L323.69 29.5596L330.36 34.2196C330.63 34.4096 330.93 34.5396 331.24 34.6096C331.94 34.7596 332.68 34.6096 333.27 34.1696C334.13 33.5196 334.47 32.3896 334.12 31.3796L331.46 23.6896L337.89 18.8296C338.37 18.4896 338.73 17.9696 338.87 17.3496C339.16 16.0396 338.36 14.7396 337.07 14.4096C337.04 14.4096 337.01 14.3996 336.98 14.3896C336.92 14.3796 336.85 14.3596 336.79 14.3496C336.64 14.3296 336.49 14.3196 336.34 14.3296L328.27 14.4796L325.62 6.79961C325.33 5.96961 324.64 5.36961 323.81 5.18961L323.82 5.15961Z" fill="#2FBDEB"/>
<path d="M264.57 42C276.168 42 285.57 32.598 285.57 21C285.57 9.40202 276.168 0 264.57 0C252.972 0 243.57 9.40202 243.57 21C243.57 32.598 252.972 42 264.57 42Z" fill="#FF92FF"/>
<path d="M264.39 14.8898C264.39 14.8898 257.8 6.77982 252.59 10.8998C243.77 17.8598 264.39 34.8398 264.39 34.8398C264.39 34.8398 284.14 18.7798 275.79 11.3598C269.41 5.68982 264.39 14.8898 264.39 14.8898Z" fill="#FF0000"/>
<path d="M205.67 42C217.268 42 226.67 32.598 226.67 21C226.67 9.40202 217.268 0 205.67 0C194.072 0 184.67 9.40202 184.67 21C184.67 32.598 194.072 42 205.67 42Z" fill="#FFDC00"/>
<path d="M203.26 10.5501L204.62 22.4701C202.43 22.0501 199.62 22.9601 197.34 25.0901C194.11 28.1001 193.19 32.3501 195.27 34.5801C197.35 36.8101 201.65 36.1801 204.88 33.1701C207.38 30.8401 208.48 27.7801 207.89 25.4701L206.59 14.9101C206.59 14.9101 208.76 14.6801 212.42 13.2101C216.08 11.7401 214.48 4.83008 214.48 4.83008L203.26 10.5401V10.5501Z" fill="#FF8000"/>
</g>
</svg>
