<svg width="13" height="15" viewBox="0 0 13 15" fill="none" xmlns="http://www.w3.org/2000/svg">
<g clip-path="url(#clip0_160_6533)">
<path d="M2.18889 7.75705H3.3873V5.76706C3.37734 5.66191 3.37137 5.55482 3.37137 5.44773C3.37137 3.70503 4.81663 2.2914 6.59831 2.2914C8.38 2.2914 9.82525 3.70503 9.82525 5.44773C9.82525 5.55482 9.81928 5.66191 9.80933 5.76706V7.75705H11.0077V5.67554C11.0217 5.53146 11.0296 5.38542 11.0296 5.23744C11.0257 2.84439 9.0429 0.905029 6.59632 0.905029C4.14974 0.905029 2.16699 2.84439 2.16699 5.23744C2.16699 5.38542 2.17496 5.53146 2.18889 5.67554V7.75705Z" fill="#0078FF"/>
<path d="M1.84685 6.28308H11.3485C12.0373 6.28308 12.5987 6.83023 12.5987 7.50589V13.6822C12.5987 14.3579 12.0393 14.9051 11.3485 14.9051H1.84685C1.15806 14.9051 0.59668 14.3579 0.59668 13.6822V7.50589C0.59668 6.83023 1.15607 6.28308 1.84685 6.28308Z" fill="#0078FF"/>
</g>
<defs>
<clipPath id="clip0_160_6533">
<rect width="12" height="14" fill="white" transform="translate(0.59668 0.905029)"/>
</clipPath>
</defs>
</svg>
