<svg width="32" height="32" viewBox="0 0 32 32" fill="none" xmlns="http://www.w3.org/2000/svg">
<circle cx="16" cy="16" r="16" fill="#0078FF"/>
<path d="M16.0935 1.92433C15.9246 1.89189 15.7494 1.87867 15.5712 1.88694C14.614 1.93194 13.7912 2.59051 13.5377 3.51561L11.6212 10.5139L4.37368 10.8538C3.41626 10.9006 2.59372 11.5573 2.34015 12.4824C2.08633 13.4093 2.45825 14.3915 3.26142 14.9203L9.32454 18.9054L7.40807 25.9037C7.1545 26.8288 7.52592 27.8145 8.32934 28.3415C8.57714 28.5035 8.84871 28.6122 9.12616 28.665C9.75195 28.786 10.4117 28.6343 10.9309 28.2186L16.5943 23.683L22.6575 27.668C22.9035 27.8297 23.1768 27.9386 23.4543 27.9915C24.0801 28.1125 24.7419 27.9592 25.2608 27.5453C26.0097 26.9459 26.2869 25.9291 25.9489 25.0319L23.3845 18.2441L29.0008 13.7458C29.4227 13.4262 29.7322 12.956 29.8384 12.3975C30.0645 11.2222 29.3162 10.084 28.1591 9.81853C28.1325 9.81303 28.1058 9.80753 28.081 9.80228C28.0224 9.79054 27.9651 9.78263 27.9042 9.77423C27.7729 9.75978 27.6382 9.75761 27.5073 9.76693L20.3093 10.1045L17.7483 3.31896C17.4735 2.58562 16.8386 2.06727 16.0935 1.92433Z" fill="#FFC000"/>
<path d="M17.02 5.52739C16.901 5.50367 16.7764 5.49378 16.6496 5.50002C15.9716 5.53242 15.391 5.99625 15.2131 6.65071L13.8586 11.6001L8.7348 11.8405C8.05681 11.8729 7.47269 12.3363 7.29454 12.9925C7.11663 13.647 7.37849 14.342 7.94567 14.716L12.2352 17.5327L10.8807 22.4821C10.701 23.1363 10.9644 23.8334 11.5318 24.2056C11.7057 24.3208 11.8997 24.3969 12.0934 24.4346C12.5362 24.5194 13.0036 24.4123 13.371 24.118L17.3782 20.9108L21.6674 23.7294C21.8414 23.8446 22.0335 23.9204 22.2309 23.9586C22.6736 24.0434 23.1393 23.9361 23.5064 23.6436C24.0357 23.2201 24.2317 22.5007 23.9942 21.8674L22.1814 17.0669L26.1522 13.8857C26.4516 13.6605 26.6691 13.3273 26.7454 12.9326C26.9059 12.1006 26.3763 11.2956 25.5571 11.1077C25.5374 11.105 25.5197 11.1007 25.5021 11.0965C25.4611 11.089 25.4184 11.0813 25.3787 11.0776C25.2833 11.0681 25.1889 11.0642 25.0966 11.0716L20.0061 11.3093L18.1948 6.51084C17.998 5.99269 17.5485 5.62586 17.0238 5.52609L17.02 5.52739Z" fill="#FFD200"/>
<path fill-rule="evenodd" clip-rule="evenodd" d="M10.1855 13.4983C9.80735 11.9658 10.744 10.4158 12.2765 10.0377C13.8089 9.65955 15.3571 10.596 15.7353 12.1284C16.1134 13.6609 15.1785 15.2111 13.6461 15.5893C12.1136 15.9674 10.5634 15.0325 10.1855 13.4983Z" fill="white"/>
<path d="M11.1752 13.2567C10.9295 12.259 11.5394 11.2517 12.5353 11.0058C12.76 10.951 12.9845 10.9381 13.2017 10.9645C12.8965 11.1523 12.7357 11.5244 12.8257 11.8909C12.9378 12.3481 13.3994 12.6272 13.8551 12.513C14.2234 12.4232 14.4775 12.1024 14.5016 11.7425C14.6299 11.9244 14.727 12.1331 14.7828 12.3635C15.0305 13.3596 14.4207 14.367 13.4246 14.6147C12.4287 14.8606 11.4214 14.2507 11.1737 13.2546L11.1752 13.2567Z" fill="#5E1EBB"/>
<path fill-rule="evenodd" clip-rule="evenodd" d="M16.1456 12.8186C15.7674 11.2862 16.7023 9.73592 18.2365 9.35803C19.769 8.9799 21.3172 9.9163 21.6953 11.4487C22.0735 12.9812 21.1386 14.5315 19.6044 14.9094C18.0719 15.2875 16.5219 14.3508 16.1456 12.8186Z" fill="white"/>
<path fill-rule="evenodd" clip-rule="evenodd" d="M17.3109 18.4892C14.8746 18.7773 12.6861 17.957 11.3747 16.4819C11.3739 16.5932 11.3696 16.7039 11.374 16.8177C11.5044 19.8674 13.887 22.0725 16.6924 21.7422C19.1381 21.4518 21.0954 19.3307 21.4708 16.7687C20.3351 17.6707 18.8975 18.301 17.3109 18.4892Z" fill="white"/>
<path d="M17.1064 12.5223C16.8607 11.5247 17.4706 10.5173 18.4647 10.2711C18.6897 10.2146 18.9159 10.202 19.1311 10.2298C18.8257 10.4195 18.6633 10.7895 18.755 11.1563C18.8672 11.6135 19.3288 11.8925 19.7862 11.7786C20.1566 11.6873 20.4087 11.368 20.4328 11.0081C20.5608 11.1919 20.6579 11.4006 20.7158 11.6294C20.9615 12.627 20.3536 13.6329 19.356 13.8785C18.3602 14.1244 17.3528 13.5145 17.1066 12.5205L17.1064 12.5223Z" fill="#5E1EBB"/>
</svg>
