<svg width="131" height="42" viewBox="0 0 131 42" fill="none" xmlns="http://www.w3.org/2000/svg">
<path d="M109.686 0.451172C98.3134 0.451172 89.0564 9.70816 89.0564 21.081C89.0564 32.4539 98.3134 41.7109 109.686 41.7109C121.059 41.7109 130.316 32.4539 130.316 21.081C130.316 9.70816 121.059 0.451172 109.686 0.451172Z" fill="white"/>
<path d="M109.686 39.0811C119.627 39.0811 127.686 31.0222 127.686 21.0811C127.686 11.1399 119.627 3.08105 109.686 3.08105C99.7452 3.08105 91.6863 11.1399 91.6863 21.0811C91.6863 31.0222 99.7452 39.0811 109.686 39.0811Z" fill="#2FBCEA"/>
<path d="M109.218 32.8092C108.039 32.8092 106.875 32.6959 105.726 32.4692C104.578 32.2425 103.588 31.9251 102.742 31.517C102.039 31.177 101.54 30.7538 101.245 30.2551C100.951 29.7563 100.822 29.2425 100.868 28.7211C100.913 28.1996 101.102 27.7311 101.427 27.3231C101.759 26.915 102.19 26.6354 102.719 26.4918C103.255 26.3407 103.86 26.4163 104.54 26.711C105.379 27.0737 106.15 27.3231 106.86 27.4591C107.563 27.5951 108.266 27.6631 108.976 27.6631C111.432 27.6631 112.656 26.8243 112.656 25.1392C112.656 23.5976 111.568 22.8193 109.384 22.8193H107.54C106.679 22.8193 106.021 22.6001 105.56 22.1694C105.107 21.7386 104.88 21.1265 104.88 20.3255C104.88 19.5245 105.107 18.92 105.56 18.4817C106.014 18.051 106.671 17.8318 107.54 17.8318H108.764C109.739 17.8318 110.51 17.6278 111.062 17.2197C111.621 16.8117 111.9 16.2222 111.9 15.4439C111.9 13.925 110.842 13.1618 108.734 13.1618C108.099 13.1618 107.449 13.2298 106.792 13.3658C106.135 13.5018 105.432 13.7436 104.676 14.0837C104.087 14.3331 103.543 14.3935 103.059 14.2575C102.568 14.1215 102.167 13.857 101.85 13.4716C101.533 13.0862 101.336 12.6328 101.268 12.1265C101.2 11.6126 101.291 11.129 101.54 10.6605C101.789 10.192 102.22 9.80657 102.832 9.48163C104.789 8.50681 106.958 8.01562 109.339 8.01562C112.021 8.01562 114.107 8.5975 115.611 9.76879C117.107 10.9401 117.863 12.5572 117.863 14.6278C117.863 15.8519 117.553 16.9326 116.941 17.862C116.329 18.7915 115.475 19.4792 114.387 19.9099C115.724 20.2953 116.767 20.9981 117.507 22.0258C118.248 23.046 118.618 24.2853 118.618 25.7437C118.618 27.9276 117.787 29.643 116.117 30.9049C114.447 32.1669 112.15 32.7941 109.218 32.7941V32.8092Z" fill="#0078FF"/>
<path d="M65.6714 0.451172C54.2985 0.451172 45.0415 9.70816 45.0415 21.081C45.0415 32.4539 54.2985 41.7109 65.6714 41.7109C77.0442 41.7109 86.3012 32.4539 86.3012 21.081C86.3012 9.70816 77.0442 0.451172 65.6714 0.451172Z" fill="white"/>
<path d="M65.6714 39.0811C75.6125 39.0811 83.6714 31.0222 83.6714 21.0811C83.6714 11.1399 75.6125 3.08105 65.6714 3.08105C55.7303 3.08105 47.6714 11.1399 47.6714 21.0811C47.6714 31.0222 55.7303 39.0811 65.6714 39.0811Z" fill="#6600BC"/>
<path d="M60.1519 32.4312C59.1545 32.4312 58.429 32.1969 57.9907 31.736C57.5449 31.2674 57.3257 30.5798 57.3257 29.673C57.3257 29.0382 57.4617 28.4715 57.7338 27.9727C58.0058 27.474 58.3837 26.9828 58.8597 26.5067L64.822 20.2724C65.7061 19.3429 66.3409 18.5268 66.7112 17.8391C67.089 17.1439 67.2704 16.4563 67.2704 15.7762C67.2704 14.0532 66.1671 13.1842 63.9681 13.1842C63.424 13.1842 62.8346 13.2598 62.2149 13.4034C61.5877 13.5545 60.9378 13.8039 60.2577 14.1666C59.6456 14.4613 59.0864 14.5444 58.5877 14.4235C58.089 14.3026 57.6809 14.0457 57.3635 13.6603C57.0461 13.2749 56.8496 12.829 56.7665 12.3303C56.6834 11.8316 56.7665 11.3328 56.9857 10.8492C57.2124 10.358 57.6204 9.95749 58.2099 9.64011C59.2527 9.09602 60.3409 8.68796 61.4668 8.43103C62.5928 8.1741 63.7187 8.03809 64.8598 8.03809C67.6331 8.03809 69.749 8.64262 71.215 9.84414C72.681 11.0457 73.414 12.7837 73.414 15.0583C73.414 16.5092 73.0815 17.8996 72.4241 19.2145C71.7666 20.5293 70.6633 21.95 69.1218 23.4765L65.2376 27.3606H72.016C73.7389 27.3606 74.6079 28.1994 74.6079 29.8846C74.6079 31.5697 73.7465 32.4387 72.016 32.4387H60.1595L60.1519 32.4312Z" fill="#C98EFF"/>
<path d="M21.4695 0.451172C10.0966 0.451172 0.8396 9.70816 0.8396 21.081C0.8396 32.4539 10.0966 41.7109 21.4695 41.7109C32.8423 41.7109 42.0993 32.4539 42.0993 21.081C42.0993 9.70816 32.8423 0.451172 21.4695 0.451172Z" fill="white"/>
<path d="M21.4695 39.0811C31.4106 39.0811 39.4695 31.0222 39.4695 21.0811C39.4695 11.1399 31.4106 3.08105 21.4695 3.08105C11.5284 3.08105 3.46948 11.1399 3.46948 21.0811C3.46948 31.0222 11.5284 39.0811 21.4695 39.0811Z" fill="#FF0000"/>
<path d="M16.4301 32.1061C14.6996 32.1061 13.8381 31.2522 13.8381 29.5519C13.8381 27.8516 14.6996 27.028 16.4301 27.028H19.4981V14.8616L17.42 16.1236C16.8306 16.4863 16.2714 16.6299 15.75 16.5468C15.2285 16.4712 14.7827 16.2445 14.42 15.8818C14.0572 15.5191 13.8154 15.0732 13.7021 14.5518C13.5887 14.0304 13.6341 13.509 13.8381 12.9876C14.0421 12.4662 14.4502 12.0203 15.0623 11.6576L19.7626 8.72558C20.7827 8.09082 21.8633 7.77344 22.9969 7.77344C23.8583 7.77344 24.5309 7.99259 25.0069 8.43843C25.483 8.88428 25.7248 9.52659 25.7248 10.3654V27.028H28.4528C30.1757 27.028 31.0448 27.8668 31.0448 29.5519C31.0448 31.2371 30.1833 32.1061 28.4528 32.1061H16.4225H16.4301Z" fill="#FFBC00"/>
</svg>
