<svg width="91" height="70" viewBox="0 0 91 70" fill="none" xmlns="http://www.w3.org/2000/svg">
<path d="M73.7439 69.2754C83.4267 69.2754 91.2039 60.7934 91.2039 50.4154V19.3854C91.2039 9.00739 83.4267 0.525391 73.7439 0.525391H17.9839C8.30113 0.525391 0.523926 9.00739 0.523926 19.3854V50.4154C0.523926 60.7934 8.30113 69.2754 17.9839 69.2754H73.7439Z" fill="#056DE2" stroke="#056DE2"/>
<path d="M89.4036 49.5271C89.4036 59.3371 82.0636 67.2771 73.0136 67.2771H19.1136C10.0636 67.2771 2.72363 59.3271 2.72363 49.5271V19.5371C2.72363 9.73711 10.0636 1.78711 19.1136 1.78711H73.0136C82.0636 1.78711 89.4036 9.73711 89.4036 19.5371V49.5271Z" fill="#00005B"/>
<path d="M53.784 28.7157L50.914 25.8457L45.704 31.0457L40.504 25.8457L37.624 28.7157L42.834 33.9257L37.624 39.1257L40.504 41.9957L45.704 36.7957L50.914 41.9957L53.784 39.1257L48.584 33.9257L53.784 28.7157Z" fill="#F15A24"/>
<path d="M60.8141 23.646V43.986H32.9941L23.0141 34.016L33.0141 23.656H60.8041M63.5541 20.916H31.8641L19.1841 34.046L31.8641 46.726H63.5541V20.926V20.916Z" fill="#F15A24"/>
</svg>
