<svg width="1441" height="302" viewBox="0 0 1441 302" fill="none" xmlns="http://www.w3.org/2000/svg">
<rect x="0.470215" y="0.845703" width="1440" height="300" fill="#FF7500"/>
<g clip-path="url(#clip0_1753_6266)">
<path fill-rule="evenodd" clip-rule="evenodd" d="M1118.59 301.19C1162.17 237.07 1192.28 176.37 1178.35 164.97C1166.54 155.21 1125.47 183.43 1079.56 225.77C1119.66 134.3 1147.41 48.1201 1132.19 40.5801C1118.46 33.4201 1072.58 93.5801 1026.1 169.55C1034.89 110.22 1034.92 63.0301 1020.6 58.8901C1000.58 52.9601 958.78 132.69 927.64 219.05C904.02 142.91 874.11 78.7301 856.13 82.5301C839.62 85.9201 837.25 145.16 844.17 215.65C787.49 129.12 727.15 54.6301 712.1 63.4501C694.33 73.4001 745.05 194.58 803.78 301.18H1118.59V301.19Z" fill="#FF6500"/>
</g>
<g clip-path="url(#clip1_1753_6266)">
<path fill-rule="evenodd" clip-rule="evenodd" d="M0.5 1H186.9C218.83 47.98 240.89 92.45 230.68 100.8C222.02 107.95 191.93 87.28 158.3 56.25C187.68 123.26 208.02 186.4 196.86 191.93C186.8 197.18 153.19 153.1 119.14 97.44C125.58 140.91 125.6 175.49 115.11 178.52C100.44 182.86 69.82 124.45 47 61.18C32.08 109.29 13.72 150.89 0.5 159.62V1Z" fill="#FF6500"/>
</g>
<defs>
<clipPath id="clip0_1753_6266">
<rect width="473.28" height="261.19" fill="white" transform="translate(708.5 40)"/>
</clipPath>
<clipPath id="clip1_1753_6266">
<rect width="232.7" height="191.36" fill="white" transform="translate(0.5 1)"/>
</clipPath>
</defs>
</svg>
