<svg width="26" height="25" viewBox="0 0 26 25" fill="none" xmlns="http://www.w3.org/2000/svg">
<path d="M13.1499 0C6.2499 0 0.649902 5.6 0.649902 12.5C0.649902 19.4 6.2499 25 13.1499 25C20.0499 25 25.6499 19.4 25.6499 12.5C25.6499 5.6 20.0499 0 13.1499 0ZM18.7699 11.73C18.2099 14.03 16.0399 16.42 13.7999 15.87C13.2499 15.74 12.7199 15.47 12.3399 15.08L11.9399 16.74C11.4099 18.92 10.3899 19.97 10.1499 20.2L10.0699 20.17C9.94992 19.84 9.54992 18.44 10.0699 16.29L11.2199 11.61C10.9399 11.23 10.7999 10.64 10.9799 9.92C11.2799 8.67 12.2399 8.25 12.8399 8.4C13.4399 8.55 13.8099 9.16 13.6599 9.76L13.0899 12.09C12.8399 13.12 12.9399 14.03 13.8699 14.26C15.4299 14.64 16.5099 12.93 16.8899 11.37C17.4199 9.19 16.2699 7.26 14.3899 6.8C12.2099 6.27 9.6499 7.29 9.0399 9.78C8.8299 10.65 8.96991 11.57 9.59991 12.14C9.68991 12.22 9.72992 12.34 9.70992 12.45L9.45992 13.45C9.40991 13.65 9.1899 13.75 9.0099 13.65C7.2499 12.72 7.14991 10.76 7.46991 9.47C8.36991 5.79 12.0699 4.26 15.2099 5.03C17.9299 5.7 19.5799 8.54 18.7799 11.76L18.7699 11.73Z" fill="currentColor"/>
</svg>
