<svg width="32" height="32" viewBox="0 0 32 32" fill="none" xmlns="http://www.w3.org/2000/svg">
<circle cx="16" cy="16" r="16" fill="#DF0059"/>
<path d="M16.0937 1.92335C15.9247 1.89092 15.7495 1.87769 15.5713 1.88596C14.6142 1.93096 13.7914 2.58953 13.5378 3.51463L11.6213 10.5129L4.3738 10.8528C3.41638 10.8996 2.59384 11.5564 2.34027 12.4815C2.08645 13.4084 2.45837 14.3905 3.26154 14.9193L9.32466 18.9044L7.4082 25.9027C7.15462 26.8278 7.52605 27.8136 8.32947 28.3406C8.57726 28.5025 8.84883 28.6112 9.12628 28.6641C9.75208 28.7851 10.4118 28.6333 10.931 28.2176L16.5945 23.682L22.6576 27.667C22.9036 27.8288 23.1769 27.9376 23.4544 27.9905C24.0802 28.1115 24.742 27.9583 25.2609 27.5443C26.0098 26.9449 26.287 25.9282 25.949 25.031L23.3846 18.2431L29.0009 13.7448C29.4229 13.4252 29.7323 12.955 29.8386 12.3965C30.0646 11.2212 29.3163 10.083 28.1592 9.81755C28.1326 9.81205 28.106 9.80655 28.0811 9.8013C28.0225 9.78957 27.9652 9.78166 27.9043 9.77326C27.773 9.7588 27.6383 9.75663 27.5074 9.76596L20.3095 10.1035L17.7484 3.31798C17.4736 2.58464 16.8387 2.0663 16.0937 1.92335Z" fill="#FFC000"/>
<path d="M17.0202 5.52641C16.9012 5.50269 16.7766 5.4928 16.6498 5.49904C15.9718 5.53144 15.3913 5.99528 15.2134 6.64973L13.8589 11.5991L8.73504 11.8395C8.05705 11.872 7.47293 12.3353 7.29478 12.9915C7.11688 13.646 7.37874 14.341 7.94591 14.715L12.2354 17.5318L10.8809 22.4812C10.7012 23.1354 10.9646 23.8325 11.532 24.2046C11.706 24.3199 11.8999 24.3959 12.0937 24.4336C12.5364 24.5184 13.0039 24.4113 13.3712 24.117L17.3784 20.9098L21.6677 23.7284C21.8416 23.8437 22.0338 23.9195 22.2311 23.9576C22.6739 24.0424 23.1395 23.9351 23.5066 23.6426C24.0359 23.2192 24.2319 22.4997 23.9944 21.8664L22.1817 17.0659L26.1524 13.8847C26.4518 13.6596 26.6693 13.3263 26.7457 12.9317C26.9061 12.0996 26.3765 11.2946 25.5573 11.1067C25.5376 11.104 25.52 11.0998 25.5023 11.0955C25.4614 11.088 25.4186 11.0803 25.379 11.0767C25.2835 11.0671 25.1892 11.0632 25.0969 11.0706L20.0063 11.3083L18.1951 6.50986C17.9982 5.99171 17.5487 5.62488 17.024 5.52511L17.0202 5.52641Z" fill="#FFD200"/>
<path fill-rule="evenodd" clip-rule="evenodd" d="M10.1857 13.4973C9.8076 11.9649 10.7442 10.4148 12.2767 10.0367C13.8091 9.65857 15.3574 10.595 15.7355 12.1274C16.1136 13.6599 15.1788 15.2101 13.6463 15.5883C12.1139 15.9664 10.5636 15.0316 10.1857 13.4973Z" fill="white"/>
<path d="M11.1753 13.2567C10.9297 12.259 11.5396 11.2517 12.5354 11.0058C12.7602 10.951 12.9846 10.9381 13.2018 10.9645C12.8966 11.1523 12.7358 11.5244 12.8258 11.8909C12.9379 12.3481 13.3996 12.6272 13.8552 12.513C14.2235 12.4232 14.4777 12.1024 14.5018 11.7425C14.63 11.9244 14.7271 12.1331 14.783 12.3635C15.0307 13.3596 14.4208 14.367 13.4247 14.6147C12.4289 14.8606 11.4215 14.2507 11.1738 13.2546L11.1753 13.2567Z" fill="#0075FF"/>
<path fill-rule="evenodd" clip-rule="evenodd" d="M16.1459 12.8177C15.7678 11.2852 16.7026 9.73495 18.2369 9.35706C19.7693 8.97892 21.3176 9.91532 21.6957 11.4478C22.0738 12.9802 21.139 14.5305 19.6047 14.9084C18.0723 15.2865 16.5223 14.3499 16.1459 12.8177Z" fill="white"/>
<path fill-rule="evenodd" clip-rule="evenodd" d="M17.3109 18.4872C14.8746 18.7753 12.6861 17.955 11.3747 16.48C11.3739 16.5912 11.3696 16.702 11.374 16.8157C11.5044 19.8655 13.887 22.0706 16.6924 21.7403C19.1381 21.4498 21.0954 19.3287 21.4708 16.7668C20.3351 17.6687 18.8975 18.2991 17.3109 18.4872Z" fill="white"/>
<path d="M17.1065 12.5213C16.8608 11.5237 17.4707 10.5163 18.4648 10.2702C18.6898 10.2136 18.916 10.201 19.1312 10.2289C18.8258 10.4185 18.6634 10.7886 18.7552 11.1553C18.8673 11.6125 19.3289 11.8916 19.7864 11.7776C20.1567 11.6863 20.4088 11.367 20.4329 11.0071C20.5609 11.1909 20.6581 11.3996 20.7159 11.6284C20.9616 12.6261 20.3537 13.6319 19.3561 13.8775C18.3603 14.1235 17.3529 13.5136 17.1067 12.5195L17.1065 12.5213Z" fill="#0075FF"/>
</svg>
