<svg width="801" height="451" viewBox="0 0 801 451" fill="none" xmlns="http://www.w3.org/2000/svg">
<rect x="0.678223" width="800" height="450.563" fill="#D9E4FF"/>
<path d="M224.036 211.396C221.18 211.396 218.756 210.856 216.764 209.776C214.796 208.696 213.296 207.184 212.264 205.24C211.232 203.296 210.716 201.016 210.716 198.4C210.716 196.384 211.016 194.572 211.616 192.964C212.24 191.332 213.128 189.952 214.28 188.824C215.456 187.672 216.872 186.784 218.528 186.16C220.208 185.536 222.104 185.224 224.216 185.224C225.512 185.224 226.808 185.368 228.104 185.656C229.4 185.944 230.648 186.424 231.848 187.096C232.352 187.384 232.688 187.756 232.856 188.212C233.048 188.644 233.096 189.112 233 189.616C232.928 190.096 232.736 190.528 232.424 190.912C232.136 191.272 231.752 191.512 231.272 191.632C230.816 191.728 230.288 191.632 229.688 191.344C228.896 190.912 228.056 190.6 227.168 190.408C226.28 190.192 225.308 190.084 224.252 190.084C222.548 190.084 221.12 190.408 219.968 191.056C218.816 191.68 217.952 192.616 217.376 193.864C216.824 195.088 216.548 196.6 216.548 198.4C216.548 201.112 217.196 203.164 218.492 204.556C219.812 205.948 221.756 206.644 224.324 206.644C225.188 206.644 226.076 206.56 226.988 206.392C227.9 206.224 228.8 205.984 229.688 205.672L228.644 207.94V201.028H225.404C224.684 201.028 224.132 200.848 223.748 200.488C223.364 200.128 223.172 199.636 223.172 199.012C223.172 198.364 223.364 197.872 223.748 197.536C224.132 197.176 224.684 196.996 225.404 196.996H231.056C231.776 196.996 232.316 197.188 232.676 197.572C233.06 197.956 233.252 198.508 233.252 199.228V207.58C233.252 208.204 233.132 208.732 232.892 209.164C232.652 209.596 232.244 209.908 231.668 210.1C230.588 210.484 229.376 210.796 228.032 211.036C226.688 211.276 225.356 211.396 224.036 211.396ZM244.599 211.396C243.063 211.396 241.707 211.024 240.531 210.28C239.379 209.536 238.479 208.468 237.831 207.076C237.183 205.684 236.859 204.04 236.859 202.144C236.859 200.248 237.183 198.616 237.831 197.248C238.479 195.88 239.379 194.824 240.531 194.08C241.707 193.336 243.063 192.964 244.599 192.964C245.991 192.964 247.215 193.3 248.271 193.972C249.351 194.644 250.083 195.52 250.467 196.6L250.107 197.788V195.772C250.107 194.884 250.347 194.212 250.827 193.756C251.307 193.276 251.967 193.036 252.807 193.036C253.671 193.036 254.331 193.276 254.787 193.756C255.267 194.212 255.507 194.884 255.507 195.772V208.552C255.507 209.44 255.267 210.124 254.787 210.604C254.331 211.084 253.671 211.324 252.807 211.324C251.943 211.324 251.271 211.084 250.791 210.604C250.335 210.124 250.107 209.44 250.107 208.552V206.572L250.503 207.508C250.167 208.684 249.447 209.632 248.343 210.352C247.263 211.048 246.015 211.396 244.599 211.396ZM246.219 207.328C247.011 207.328 247.695 207.136 248.271 206.752C248.847 206.368 249.303 205.804 249.639 205.06C249.975 204.292 250.143 203.32 250.143 202.144C250.143 200.392 249.783 199.108 249.063 198.292C248.343 197.452 247.395 197.032 246.219 197.032C245.451 197.032 244.767 197.212 244.167 197.572C243.591 197.932 243.135 198.496 242.799 199.264C242.487 200.008 242.331 200.968 242.331 202.144C242.331 203.896 242.691 205.204 243.411 206.068C244.131 206.908 245.067 207.328 246.219 207.328ZM262.503 211.324C261.615 211.324 260.931 211.084 260.451 210.604C259.995 210.124 259.767 209.44 259.767 208.552V195.772C259.767 194.884 259.995 194.212 260.451 193.756C260.931 193.276 261.591 193.036 262.431 193.036C263.295 193.036 263.955 193.276 264.411 193.756C264.867 194.212 265.095 194.884 265.095 195.772V198.076L264.699 196.636C265.179 195.532 265.923 194.644 266.931 193.972C267.939 193.3 269.127 192.964 270.495 192.964C271.863 192.964 273.003 193.288 273.915 193.936C274.827 194.584 275.475 195.58 275.859 196.924H275.355C275.883 195.7 276.687 194.74 277.767 194.044C278.871 193.324 280.131 192.964 281.547 192.964C282.915 192.964 284.031 193.24 284.895 193.792C285.783 194.32 286.443 195.136 286.875 196.24C287.307 197.32 287.523 198.7 287.523 200.38V208.552C287.523 209.44 287.283 210.124 286.803 210.604C286.347 211.084 285.687 211.324 284.823 211.324C283.935 211.324 283.251 211.084 282.771 210.604C282.315 210.124 282.087 209.44 282.087 208.552V200.56C282.087 199.384 281.895 198.532 281.511 198.004C281.151 197.452 280.527 197.176 279.639 197.176C278.607 197.176 277.803 197.536 277.227 198.256C276.651 198.976 276.363 199.996 276.363 201.316V208.552C276.363 209.44 276.123 210.124 275.643 210.604C275.187 211.084 274.527 211.324 273.663 211.324C272.799 211.324 272.127 211.084 271.647 210.604C271.167 210.124 270.927 209.44 270.927 208.552V200.56C270.927 199.384 270.735 198.532 270.351 198.004C269.991 197.452 269.367 197.176 268.479 197.176C267.447 197.176 266.643 197.536 266.067 198.256C265.491 198.976 265.203 199.996 265.203 201.316V208.552C265.203 210.4 264.303 211.324 262.503 211.324ZM300.868 211.396C298.78 211.396 296.98 211.024 295.468 210.28C293.98 209.512 292.828 208.444 292.012 207.076C291.22 205.684 290.824 204.052 290.824 202.18C290.824 200.356 291.208 198.76 291.976 197.392C292.744 196 293.812 194.92 295.18 194.152C296.572 193.36 298.144 192.964 299.896 192.964C301.168 192.964 302.32 193.18 303.352 193.612C304.384 194.02 305.272 194.62 306.016 195.412C306.76 196.18 307.324 197.128 307.708 198.256C308.092 199.36 308.284 200.596 308.284 201.964C308.284 202.42 308.14 202.768 307.852 203.008C307.564 203.224 307.144 203.332 306.592 203.332H295.288V200.524H304.36L303.784 201.028C303.784 200.044 303.64 199.228 303.352 198.58C303.064 197.908 302.644 197.404 302.092 197.068C301.564 196.732 300.904 196.564 300.112 196.564C299.224 196.564 298.468 196.768 297.844 197.176C297.22 197.584 296.74 198.172 296.404 198.94C296.068 199.708 295.9 200.632 295.9 201.712V202C295.9 203.824 296.32 205.168 297.16 206.032C298.024 206.896 299.296 207.328 300.976 207.328C301.552 207.328 302.212 207.256 302.956 207.112C303.7 206.968 304.396 206.74 305.044 206.428C305.596 206.164 306.088 206.08 306.52 206.176C306.952 206.248 307.288 206.44 307.528 206.752C307.768 207.064 307.9 207.424 307.924 207.832C307.972 208.24 307.888 208.648 307.672 209.056C307.456 209.44 307.096 209.764 306.592 210.028C305.776 210.484 304.852 210.82 303.82 211.036C302.812 211.276 301.828 211.396 300.868 211.396ZM324.776 211.324C323.864 211.324 323.168 211.072 322.688 210.568C322.208 210.064 321.968 209.356 321.968 208.444V188.464C321.968 187.528 322.208 186.82 322.688 186.34C323.192 185.86 323.9 185.62 324.812 185.62H333.56C336.392 185.62 338.576 186.34 340.112 187.78C341.648 189.196 342.416 191.176 342.416 193.72C342.416 196.264 341.648 198.256 340.112 199.696C338.576 201.136 336.392 201.856 333.56 201.856H327.548V208.444C327.548 209.356 327.308 210.064 326.828 210.568C326.372 211.072 325.688 211.324 324.776 211.324ZM327.548 197.536H332.624C334.064 197.536 335.156 197.212 335.9 196.564C336.668 195.916 337.052 194.968 337.052 193.72C337.052 192.472 336.668 191.536 335.9 190.912C335.156 190.288 334.064 189.976 332.624 189.976H327.548V197.536ZM351.298 211.396C349.762 211.396 348.406 211.024 347.23 210.28C346.078 209.536 345.178 208.468 344.53 207.076C343.882 205.684 343.558 204.04 343.558 202.144C343.558 200.248 343.882 198.616 344.53 197.248C345.178 195.88 346.078 194.824 347.23 194.08C348.406 193.336 349.762 192.964 351.298 192.964C352.69 192.964 353.914 193.3 354.97 193.972C356.05 194.644 356.782 195.52 357.166 196.6L356.806 197.788V195.772C356.806 194.884 357.046 194.212 357.526 193.756C358.006 193.276 358.666 193.036 359.506 193.036C360.37 193.036 361.03 193.276 361.486 193.756C361.966 194.212 362.206 194.884 362.206 195.772V208.552C362.206 209.44 361.966 210.124 361.486 210.604C361.03 211.084 360.37 211.324 359.506 211.324C358.642 211.324 357.97 211.084 357.49 210.604C357.034 210.124 356.806 209.44 356.806 208.552V206.572L357.202 207.508C356.866 208.684 356.146 209.632 355.042 210.352C353.962 211.048 352.714 211.396 351.298 211.396ZM352.918 207.328C353.71 207.328 354.394 207.136 354.97 206.752C355.546 206.368 356.002 205.804 356.338 205.06C356.674 204.292 356.842 203.32 356.842 202.144C356.842 200.392 356.482 199.108 355.762 198.292C355.042 197.452 354.094 197.032 352.918 197.032C352.15 197.032 351.466 197.212 350.866 197.572C350.29 197.932 349.834 198.496 349.498 199.264C349.186 200.008 349.03 200.968 349.03 202.144C349.03 203.896 349.39 205.204 350.11 206.068C350.83 206.908 351.766 207.328 352.918 207.328ZM374.891 217.876C373.595 217.876 372.347 217.768 371.147 217.552C369.971 217.336 368.927 217.012 368.015 216.58C367.463 216.34 367.067 216.028 366.827 215.644C366.611 215.26 366.515 214.852 366.539 214.42C366.587 213.988 366.731 213.604 366.971 213.268C367.235 212.932 367.559 212.692 367.943 212.548C368.327 212.428 368.735 212.464 369.167 212.656C370.223 213.136 371.195 213.448 372.083 213.592C372.995 213.736 373.775 213.808 374.423 213.808C375.959 213.808 377.111 213.46 377.879 212.764C378.647 212.068 379.031 211 379.031 209.56V206.824H379.355C378.995 207.928 378.251 208.828 377.123 209.524C375.995 210.22 374.747 210.568 373.379 210.568C371.795 210.568 370.415 210.208 369.239 209.488C368.063 208.744 367.151 207.712 366.503 206.392C365.855 205.048 365.531 203.5 365.531 201.748C365.531 200.428 365.711 199.228 366.071 198.148C366.455 197.068 366.983 196.144 367.655 195.376C368.351 194.608 369.179 194.02 370.139 193.612C371.123 193.18 372.203 192.964 373.379 192.964C374.795 192.964 376.043 193.312 377.123 194.008C378.227 194.68 378.959 195.568 379.319 196.672L378.959 197.824V195.772C378.959 194.884 379.187 194.212 379.643 193.756C380.123 193.276 380.795 193.036 381.659 193.036C382.523 193.036 383.183 193.276 383.639 193.756C384.095 194.212 384.323 194.884 384.323 195.772V208.948C384.323 211.9 383.507 214.12 381.875 215.608C380.267 217.12 377.939 217.876 374.891 217.876ZM374.999 206.5C375.815 206.5 376.511 206.308 377.087 205.924C377.687 205.54 378.155 205 378.491 204.304C378.827 203.584 378.995 202.732 378.995 201.748C378.995 200.26 378.623 199.108 377.879 198.292C377.159 197.452 376.199 197.032 374.999 197.032C374.183 197.032 373.475 197.224 372.875 197.608C372.275 197.968 371.807 198.508 371.471 199.228C371.159 199.924 371.003 200.764 371.003 201.748C371.003 203.236 371.363 204.4 372.083 205.24C372.803 206.08 373.775 206.5 374.999 206.5ZM397.723 211.396C395.635 211.396 393.835 211.024 392.323 210.28C390.835 209.512 389.683 208.444 388.867 207.076C388.075 205.684 387.679 204.052 387.679 202.18C387.679 200.356 388.063 198.76 388.831 197.392C389.599 196 390.667 194.92 392.035 194.152C393.427 193.36 394.999 192.964 396.751 192.964C398.023 192.964 399.175 193.18 400.207 193.612C401.239 194.02 402.127 194.62 402.871 195.412C403.615 196.18 404.179 197.128 404.563 198.256C404.947 199.36 405.139 200.596 405.139 201.964C405.139 202.42 404.995 202.768 404.707 203.008C404.419 203.224 403.999 203.332 403.447 203.332H392.143V200.524H401.215L400.639 201.028C400.639 200.044 400.495 199.228 400.207 198.58C399.919 197.908 399.499 197.404 398.947 197.068C398.419 196.732 397.759 196.564 396.967 196.564C396.079 196.564 395.323 196.768 394.699 197.176C394.075 197.584 393.595 198.172 393.259 198.94C392.923 199.708 392.755 200.632 392.755 201.712V202C392.755 203.824 393.175 205.168 394.015 206.032C394.879 206.896 396.151 207.328 397.831 207.328C398.407 207.328 399.067 207.256 399.811 207.112C400.555 206.968 401.251 206.74 401.899 206.428C402.451 206.164 402.943 206.08 403.375 206.176C403.807 206.248 404.143 206.44 404.383 206.752C404.623 207.064 404.755 207.424 404.779 207.832C404.827 208.24 404.743 208.648 404.527 209.056C404.311 209.44 403.951 209.764 403.447 210.028C402.631 210.484 401.707 210.82 400.675 211.036C399.667 211.276 398.683 211.396 397.723 211.396ZM420.48 203.476C419.88 203.476 419.364 203.272 418.932 202.864C418.524 202.456 418.32 201.952 418.32 201.352C418.32 200.728 418.524 200.212 418.932 199.804C419.364 199.396 419.88 199.192 420.48 199.192H427.896C428.496 199.192 429 199.396 429.408 199.804C429.84 200.212 430.056 200.728 430.056 201.352C430.056 201.952 429.84 202.456 429.408 202.864C429 203.272 428.496 203.476 427.896 203.476H420.48ZM453.806 211.396C452.798 211.396 451.766 211.312 450.71 211.144C449.678 211 448.682 210.784 447.722 210.496C446.786 210.208 445.946 209.848 445.202 209.416C444.674 209.128 444.302 208.756 444.086 208.3C443.87 207.82 443.786 207.34 443.834 206.86C443.906 206.38 444.086 205.96 444.374 205.6C444.686 205.216 445.07 204.976 445.526 204.88C446.006 204.76 446.534 204.844 447.11 205.132C448.094 205.684 449.162 206.092 450.314 206.356C451.49 206.62 452.654 206.752 453.806 206.752C455.558 206.752 456.806 206.488 457.55 205.96C458.294 205.408 458.666 204.724 458.666 203.908C458.666 203.212 458.402 202.66 457.874 202.252C457.346 201.844 456.422 201.496 455.102 201.208L451.034 200.344C448.73 199.864 447.014 199.048 445.886 197.896C444.782 196.72 444.23 195.184 444.23 193.288C444.23 192.088 444.482 190.996 444.986 190.012C445.49 189.028 446.198 188.176 447.11 187.456C448.022 186.736 449.102 186.184 450.35 185.8C451.622 185.416 453.014 185.224 454.526 185.224C455.87 185.224 457.19 185.392 458.486 185.728C459.782 186.04 460.922 186.508 461.906 187.132C462.386 187.42 462.71 187.792 462.878 188.248C463.07 188.68 463.13 189.124 463.058 189.58C463.01 190.012 462.83 190.396 462.518 190.732C462.23 191.068 461.858 191.284 461.402 191.38C460.946 191.476 460.394 191.368 459.746 191.056C458.954 190.648 458.114 190.348 457.226 190.156C456.338 189.964 455.426 189.868 454.49 189.868C453.482 189.868 452.618 190 451.898 190.264C451.202 190.528 450.662 190.9 450.278 191.38C449.918 191.86 449.738 192.412 449.738 193.036C449.738 193.732 449.99 194.296 450.494 194.728C450.998 195.16 451.874 195.508 453.122 195.772L457.19 196.636C459.542 197.14 461.294 197.956 462.446 199.084C463.598 200.188 464.174 201.652 464.174 203.476C464.174 204.676 463.934 205.768 463.454 206.752C462.974 207.712 462.278 208.54 461.366 209.236C460.454 209.932 459.362 210.472 458.09 210.856C456.818 211.216 455.39 211.396 453.806 211.396ZM470.064 217.804C469.176 217.804 468.492 217.564 468.012 217.084C467.556 216.628 467.328 215.944 467.328 215.032V195.772C467.328 194.884 467.556 194.212 468.012 193.756C468.492 193.276 469.152 193.036 469.992 193.036C470.88 193.036 471.552 193.276 472.008 193.756C472.464 194.212 472.692 194.884 472.692 195.772V198.22L472.296 196.816C472.656 195.664 473.376 194.74 474.456 194.044C475.56 193.324 476.82 192.964 478.236 192.964C479.772 192.964 481.116 193.336 482.268 194.08C483.444 194.824 484.356 195.88 485.004 197.248C485.652 198.616 485.976 200.248 485.976 202.144C485.976 204.04 485.652 205.684 485.004 207.076C484.356 208.468 483.456 209.536 482.304 210.28C481.152 211.024 479.796 211.396 478.236 211.396C476.844 211.396 475.608 211.06 474.528 210.388C473.448 209.692 472.716 208.792 472.332 207.688H472.764V215.032C472.764 215.944 472.524 216.628 472.044 217.084C471.588 217.564 470.928 217.804 470.064 217.804ZM476.616 207.328C477.384 207.328 478.056 207.136 478.632 206.752C479.232 206.368 479.688 205.804 480 205.06C480.336 204.292 480.504 203.32 480.504 202.144C480.504 200.392 480.144 199.108 479.424 198.292C478.704 197.452 477.768 197.032 476.616 197.032C475.848 197.032 475.164 197.212 474.564 197.572C473.988 197.932 473.532 198.496 473.196 199.264C472.86 200.008 472.692 200.968 472.692 202.144C472.692 203.896 473.052 205.204 473.772 206.068C474.492 206.908 475.44 207.328 476.616 207.328ZM498.481 211.396C496.393 211.396 494.593 211.024 493.081 210.28C491.593 209.512 490.441 208.444 489.625 207.076C488.833 205.684 488.437 204.052 488.437 202.18C488.437 200.356 488.821 198.76 489.589 197.392C490.357 196 491.425 194.92 492.793 194.152C494.185 193.36 495.757 192.964 497.509 192.964C498.781 192.964 499.933 193.18 500.965 193.612C501.997 194.02 502.885 194.62 503.629 195.412C504.373 196.18 504.937 197.128 505.321 198.256C505.705 199.36 505.897 200.596 505.897 201.964C505.897 202.42 505.753 202.768 505.465 203.008C505.177 203.224 504.757 203.332 504.205 203.332H492.901V200.524H501.973L501.397 201.028C501.397 200.044 501.253 199.228 500.965 198.58C500.677 197.908 500.257 197.404 499.705 197.068C499.177 196.732 498.517 196.564 497.725 196.564C496.837 196.564 496.081 196.768 495.457 197.176C494.833 197.584 494.353 198.172 494.017 198.94C493.681 199.708 493.513 200.632 493.513 201.712V202C493.513 203.824 493.933 205.168 494.773 206.032C495.637 206.896 496.909 207.328 498.589 207.328C499.165 207.328 499.825 207.256 500.569 207.112C501.313 206.968 502.009 206.74 502.657 206.428C503.209 206.164 503.701 206.08 504.133 206.176C504.565 206.248 504.901 206.44 505.141 206.752C505.381 207.064 505.513 207.424 505.537 207.832C505.585 208.24 505.501 208.648 505.285 209.056C505.069 209.44 504.709 209.764 504.205 210.028C503.389 210.484 502.465 210.82 501.433 211.036C500.425 211.276 499.441 211.396 498.481 211.396ZM517.663 211.396C515.743 211.396 514.063 211.024 512.623 210.28C511.207 209.512 510.115 208.432 509.347 207.04C508.579 205.648 508.195 204.004 508.195 202.108C508.195 200.692 508.411 199.42 508.843 198.292C509.275 197.164 509.899 196.204 510.715 195.412C511.555 194.62 512.563 194.02 513.739 193.612C514.915 193.18 516.223 192.964 517.663 192.964C518.407 192.964 519.199 193.06 520.039 193.252C520.879 193.42 521.707 193.72 522.523 194.152C523.003 194.368 523.327 194.68 523.495 195.088C523.687 195.472 523.759 195.88 523.711 196.312C523.663 196.72 523.507 197.092 523.243 197.428C523.003 197.74 522.691 197.956 522.307 198.076C521.923 198.172 521.491 198.1 521.011 197.86C520.555 197.596 520.075 197.404 519.571 197.284C519.091 197.164 518.635 197.104 518.203 197.104C517.483 197.104 516.847 197.224 516.295 197.464C515.743 197.68 515.275 198.004 514.891 198.436C514.531 198.844 514.243 199.36 514.027 199.984C513.835 200.608 513.739 201.328 513.739 202.144C513.739 203.728 514.123 204.976 514.891 205.888C515.683 206.776 516.787 207.22 518.203 207.22C518.635 207.22 519.091 207.172 519.571 207.076C520.051 206.956 520.531 206.764 521.011 206.5C521.491 206.26 521.923 206.2 522.307 206.32C522.691 206.44 522.991 206.668 523.207 207.004C523.447 207.316 523.579 207.688 523.603 208.12C523.651 208.528 523.579 208.936 523.387 209.344C523.219 209.728 522.907 210.028 522.451 210.244C521.635 210.652 520.819 210.94 520.003 211.108C519.187 211.3 518.407 211.396 517.663 211.396ZM528.986 211.288C528.098 211.288 527.414 211.036 526.934 210.532C526.478 210.004 526.25 209.272 526.25 208.336V196.024C526.25 195.064 526.478 194.332 526.934 193.828C527.414 193.3 528.098 193.036 528.986 193.036C529.85 193.036 530.51 193.3 530.966 193.828C531.446 194.332 531.686 195.064 531.686 196.024V208.336C531.686 209.272 531.458 210.004 531.002 210.532C530.546 211.036 529.874 211.288 528.986 211.288ZM528.986 190.084C527.978 190.084 527.198 189.856 526.646 189.4C526.118 188.92 525.854 188.248 525.854 187.384C525.854 186.496 526.118 185.824 526.646 185.368C527.198 184.888 527.978 184.648 528.986 184.648C529.994 184.648 530.762 184.888 531.29 185.368C531.818 185.824 532.082 186.496 532.082 187.384C532.082 188.248 531.818 188.92 531.29 189.4C530.762 189.856 529.994 190.084 528.986 190.084ZM539.987 211.324C539.099 211.324 538.415 211.084 537.935 210.604C537.479 210.124 537.251 209.44 537.251 208.552V197.392H535.955C535.283 197.392 534.755 197.212 534.371 196.852C534.011 196.492 533.831 196 533.831 195.376C533.831 194.704 534.011 194.2 534.371 193.864C534.755 193.504 535.283 193.324 535.955 193.324H538.835L537.251 194.764V193.648C537.251 191.128 537.875 189.22 539.123 187.924C540.371 186.628 542.219 185.848 544.667 185.584L545.711 185.476C546.383 185.428 546.911 185.524 547.295 185.764C547.703 185.98 547.967 186.28 548.087 186.664C548.231 187.048 548.267 187.444 548.195 187.852C548.123 188.26 547.955 188.62 547.691 188.932C547.451 189.22 547.139 189.376 546.755 189.4L545.999 189.472C544.799 189.544 543.947 189.844 543.443 190.372C542.939 190.9 542.687 191.68 542.687 192.712V193.936L542.003 193.324H552.083C552.947 193.324 553.607 193.588 554.063 194.116C554.543 194.62 554.783 195.34 554.783 196.276V208.336C554.783 209.272 554.555 210.004 554.099 210.532C553.643 211.036 552.971 211.288 552.083 211.288C551.219 211.288 550.547 211.036 550.067 210.532C549.587 210.004 549.347 209.272 549.347 208.336V197.392H542.687V208.552C542.687 210.4 541.787 211.324 539.987 211.324ZM552.191 190.084C551.231 190.084 550.487 189.856 549.959 189.4C549.455 188.92 549.203 188.248 549.203 187.384C549.203 186.496 549.455 185.824 549.959 185.368C550.487 184.888 551.231 184.648 552.191 184.648C553.151 184.648 553.883 184.888 554.387 185.368C554.915 185.824 555.179 186.496 555.179 187.384C555.179 188.248 554.915 188.92 554.387 189.4C553.883 189.856 553.151 190.084 552.191 190.084ZM567.585 211.396C565.665 211.396 563.985 211.024 562.545 210.28C561.129 209.512 560.037 208.432 559.269 207.04C558.501 205.648 558.117 204.004 558.117 202.108C558.117 200.692 558.333 199.42 558.765 198.292C559.197 197.164 559.821 196.204 560.637 195.412C561.477 194.62 562.485 194.02 563.661 193.612C564.837 193.18 566.145 192.964 567.585 192.964C568.329 192.964 569.121 193.06 569.961 193.252C570.801 193.42 571.629 193.72 572.445 194.152C572.925 194.368 573.249 194.68 573.417 195.088C573.609 195.472 573.681 195.88 573.633 196.312C573.585 196.72 573.429 197.092 573.165 197.428C572.925 197.74 572.613 197.956 572.229 198.076C571.845 198.172 571.413 198.1 570.933 197.86C570.477 197.596 569.997 197.404 569.493 197.284C569.013 197.164 568.557 197.104 568.125 197.104C567.405 197.104 566.769 197.224 566.217 197.464C565.665 197.68 565.197 198.004 564.813 198.436C564.453 198.844 564.165 199.36 563.949 199.984C563.757 200.608 563.661 201.328 563.661 202.144C563.661 203.728 564.045 204.976 564.813 205.888C565.605 206.776 566.709 207.22 568.125 207.22C568.557 207.22 569.013 207.172 569.493 207.076C569.973 206.956 570.453 206.764 570.933 206.5C571.413 206.26 571.845 206.2 572.229 206.32C572.613 206.44 572.913 206.668 573.129 207.004C573.369 207.316 573.501 207.688 573.525 208.12C573.573 208.528 573.501 208.936 573.309 209.344C573.141 209.728 572.829 210.028 572.373 210.244C571.557 210.652 570.741 210.94 569.925 211.108C569.109 211.3 568.329 211.396 567.585 211.396Z" fill="#2638C1"/>
</svg>
