<svg width="64" height="50" viewBox="0 0 64 50" fill="none" xmlns="http://www.w3.org/2000/svg">
<g clip-path="url(#clip0_135_4179)">
<path d="M10.8298 3.51021C12.3598 1.43021 14.0598 0.280213 15.9198 0.0602132C17.7798 -0.159787 19.3898 0.200213 20.7598 1.13021C22.1298 2.06021 22.8898 3.46021 23.0598 5.31021C23.2198 7.17021 22.4298 9.14021 20.6798 11.2202C18.1598 14.1702 16.4698 17.1302 15.5898 20.0802C14.7098 23.0302 14.2798 25.6602 14.2798 27.9602L13.6198 21.4002C17.9898 21.4002 21.5498 22.6602 24.2898 25.1702C27.0198 27.6902 28.3898 31.0802 28.3898 35.3402C28.3898 39.6002 27.1298 42.7002 24.6198 45.2702C22.0998 47.8402 18.6598 49.1302 14.2798 49.1302C9.89977 49.1302 6.28977 47.6302 3.77977 44.6202C1.25977 41.6102 0.00976562 37.4302 0.00976562 32.0702C0.00976562 29.2302 0.279766 26.3002 0.829766 23.2902C1.37977 20.2802 2.43977 17.1702 4.02977 13.9402C5.60977 10.7202 7.88977 7.24021 10.8398 3.52021L10.8298 3.51021ZM45.6198 3.51021C47.1498 1.43021 48.8498 0.280213 50.7098 0.0602132C52.5698 -0.159787 54.1798 0.200213 55.5498 1.13021C56.9198 2.06021 57.6798 3.46021 57.8498 5.31021C58.0098 7.17021 57.2198 9.14021 55.4698 11.2202C52.9498 14.1702 51.2598 17.1302 50.3798 20.0802C49.4998 23.0302 49.0698 25.6602 49.0698 27.9602L48.4098 21.4002C52.7798 21.4002 56.3398 22.6602 59.0798 25.1702C61.8098 27.6902 63.1798 31.0802 63.1798 35.3402C63.1798 39.6002 61.9198 42.7002 59.4098 45.2702C56.8898 47.8402 53.4498 49.1302 49.0698 49.1302C44.6898 49.1302 41.0798 47.6302 38.5698 44.6202C36.0498 41.6102 34.7998 37.4302 34.7998 32.0702C34.7998 29.2302 35.0698 26.3002 35.6198 23.2902C36.1698 20.2802 37.2298 17.1702 38.8198 13.9402C40.3998 10.7202 42.6798 7.24021 45.6298 3.52021L45.6198 3.51021Z" fill="#FF91FF"/>
</g>
<defs>
<clipPath id="clip0_135_4179">
<rect width="63.17" height="49.12" fill="white"/>
</clipPath>
</defs>
</svg>
