<svg width="150" height="354" viewBox="0 0 150 354" fill="none" xmlns="http://www.w3.org/2000/svg">
<g clip-path="url(#clip0_175_4424)">
<path d="M65.8864 186.367C63.9571 214.65 60.0987 245.766 64.7469 255.153L68.8761 254.047C66.0443 251.441 72.5314 203.154 71.7304 181.549C70.354 144.42 50.1142 166.116 56.0259 123.684C57.831 110.71 67.4771 101.82 67.6125 83.148C67.872 46.7976 65.0741 35.0982 64.9725 22.9926C64.8484 8.52916 65.6269 7.58147 65.7735 5.20098C65.7735 5.20098 67.2402 0.564098 62.9079 0.0338462C58.5757 -0.496406 58.2936 4.39996 58.2146 6.17123C58.0341 10.165 58.5757 12.4778 59.2413 22.0111C60.0649 33.6428 61.509 46.1094 61.1705 77.3491C60.9561 97.7694 51.0393 109.548 49.3583 123.12C44.4958 162.505 67.6463 160.599 65.8864 186.367Z" fill="#FCEE21"/>
<path fill-rule="evenodd" clip-rule="evenodd" d="M77.9811 329.625C79.098 333.348 82.9001 335.48 86.4652 334.408C90.0415 333.337 92.0272 329.456 90.9102 325.744C89.7933 322.032 85.9913 319.889 82.4262 320.96C78.8498 322.032 76.8642 325.913 77.9698 329.636L77.9811 329.625Z" fill="#6BD700"/>
<path d="M79.673 341.787C82.4032 341.595 84.8175 343.276 85.1673 345.702C85.4832 347.902 84.0052 349.989 81.7376 350.801C81.8842 350.801 82.0422 350.779 82.1888 350.756C85.0996 350.327 87.1642 347.913 86.7919 345.352C86.7693 345.194 86.7129 345.047 86.6678 344.889C86.9724 345.476 87.198 346.108 87.2996 346.796C87.7057 349.583 86.0924 352.2 83.5765 353.182C83.757 353.17 87.1529 352.448 87.2996 352.426C90.5488 351.952 92.7939 348.951 92.3313 345.69C92.1057 344.134 91.2821 342.814 90.1313 341.911C91.44 342.915 92.399 344.483 92.6811 346.379C93.121 349.402 91.6657 352.178 89.319 353.193C89.477 353.193 89.6462 353.182 89.7929 353.159C92.8277 352.719 94.881 349.515 94.3621 345.995C93.8544 342.486 90.9775 339.993 87.9426 340.433C87.6267 340.478 87.3334 340.568 87.0288 340.67C86.5549 340.625 86.0698 340.614 85.5734 340.681C85.2462 340.726 83.2945 341.166 82.0535 341.471C81.6473 341.448 81.2411 341.448 80.8237 341.516C80.4063 341.572 80.0227 341.674 79.6504 341.809L79.673 341.787ZM89.8944 341.719C89.759 341.618 89.6011 341.527 89.4431 341.437C89.6011 341.527 89.7477 341.618 89.8944 341.719Z" fill="#6BD700"/>
<path fill-rule="evenodd" clip-rule="evenodd" d="M56.0944 295.948C58.5426 298.96 62.8636 299.502 65.7631 297.155C68.6625 294.809 69.0348 290.465 66.5866 287.442C64.1497 284.429 59.8175 283.888 56.918 286.234C54.0185 288.581 53.6575 292.936 56.0944 295.948Z" fill="#6BD700"/>
<path fill-rule="evenodd" clip-rule="evenodd" d="M61.4759 258.819C60.9907 262.666 63.6082 266.164 67.3086 266.626C71.0091 267.089 74.405 264.347 74.8788 260.489C75.364 256.642 72.7465 253.145 69.0461 252.682C65.3456 252.219 61.9497 254.972 61.4759 258.819Z" fill="#6BD700"/>
<path fill-rule="evenodd" clip-rule="evenodd" d="M35.5494 259.869C37.614 258.21 38.4714 257.962 40.2201 258.673C41.9688 259.383 43.6047 262.994 42.9278 271.229C42.0252 282.207 36.734 280.357 34.5114 279.386C30.4161 277.57 29.773 275.37 29.8633 272.087C29.9535 268.804 33.4735 261.527 35.5381 259.869H35.5494Z" fill="#6BD700"/>
<path fill-rule="evenodd" clip-rule="evenodd" d="M47.7787 257.533C42.8823 256.563 36.508 257.725 35.9327 260.624C35.3573 263.513 40.7952 267.033 45.7028 268.003C50.5992 268.973 53.1038 267.044 53.6792 264.144C54.2546 261.256 52.6864 258.503 47.7787 257.533Z" fill="#6BD700"/>
<path fill-rule="evenodd" clip-rule="evenodd" d="M57.5155 239.426C59.8734 240.644 60.4375 241.321 60.4939 243.216C60.5616 245.1 57.9103 248.056 50.1145 250.775C39.7126 254.397 39.2613 248.812 39.25 246.387C39.25 241.908 41.01 240.43 44.0448 239.189C47.0797 237.948 55.1576 238.207 57.5155 239.437V239.426Z" fill="#6BD700"/>
<path fill-rule="evenodd" clip-rule="evenodd" d="M64.6012 249.658C63.5069 244.785 59.8628 239.426 56.9859 240.069C54.109 240.712 53.0936 247.109 54.188 251.994C55.2823 256.868 58.069 258.379 60.9459 257.725C63.8228 257.082 65.6956 254.532 64.6012 249.658Z" fill="#6BD700"/>
<path fill-rule="evenodd" clip-rule="evenodd" d="M49.9791 264.201C48.8396 273.305 55.0221 281.586 63.7769 282.669C72.5317 283.764 80.5532 277.265 81.6927 268.15C82.8321 259.034 76.6496 250.764 67.8948 249.681C59.14 248.587 51.1186 255.085 49.9791 264.201Z" fill="#6BD700"/>
<path d="M4.17483 322.224C7.76249 323.442 13.7758 313.762 16.1788 311.901C15.1522 316.549 10.662 323.905 15.547 325.394C21.3685 327.177 23.0608 309.408 23.1172 309.126C25.3172 312.894 30.8002 316.515 32.4925 315.207C35.4033 312.95 32.5264 310.502 31.2515 307.478C30.6423 306.023 29.8977 304.748 29.0967 303.665C29.0854 300.01 27.2464 296.557 23.9747 294.786C19.0557 292.124 12.7717 294.211 9.91734 299.457C9.72555 299.807 9.55632 300.168 9.40966 300.529C7.68352 301.115 5.96866 301.883 4.47944 302.774C0.0456348 305.425 -1.33076 308.742 1.41075 310.164C2.92253 310.965 6.49891 308.866 11.3727 305.854C10.4025 306.824 4.79534 313.164 4.03945 314.214C1.02716 318.422 1.23024 321.231 4.16355 322.224H4.17483Z" fill="#6BD700"/>
<path d="M59.388 279.702C57.5941 281.158 30.1564 296.343 26.7718 298.442C23.816 300.089 22.2365 304.229 20.1719 302.074C18.7729 300.619 18.2991 298.622 18.7165 296.794C19.3483 293.906 54.4916 279.691 57.6505 278.348C59.8618 277.626 59.8279 279.443 59.388 279.702Z" fill="#6BD700"/>
<path d="M149.023 271.737C147.06 274.986 136.229 271.466 133.194 271.579C136.985 274.479 145.142 277.198 142.378 281.485C139.072 286.596 126.335 274.095 126.109 273.926C126.854 278.213 124.992 284.52 122.86 284.61C119.182 284.757 119.803 281.034 118.832 277.897C118.359 276.397 118.11 274.941 118.02 273.587C115.674 270.778 114.85 266.965 116.215 263.49C118.257 258.289 124.417 255.83 129.979 258.007C130.351 258.154 130.712 258.323 131.062 258.503C132.766 257.838 134.571 257.33 136.286 257.048C141.385 256.225 144.567 257.872 143.393 260.726C142.75 262.317 138.666 263.005 133.003 263.851C134.368 263.964 142.739 265.205 143.991 265.521C149 266.796 150.659 269.075 149.057 271.726L149.023 271.737Z" fill="#6BD700"/>
<path d="M79.3917 274.806C81.6932 274.761 112.47 268.691 116.408 268.116C119.725 267.473 123.606 269.616 123.797 266.638C123.922 264.63 122.996 262.791 121.507 261.662C119.172 259.857 83.126 271.636 79.843 272.651C77.6881 273.531 78.884 274.896 79.3804 274.806H79.3917Z" fill="#6BD700"/>
<path d="M121.112 291.605C124.327 297.81 121.901 305.436 115.708 308.652C115.076 308.979 114.433 309.238 113.767 309.453C113.711 322.077 106.817 334.25 94.8247 340.478C82.7304 346.74 68.6844 345.284 58.2937 337.895C57.7747 338.278 57.2219 338.617 56.6353 338.921C50.4415 342.125 42.8149 339.722 39.6108 333.517C36.5083 327.526 38.6631 320.193 44.4056 316.809C41.1113 301.691 48.1625 285.659 62.547 278.202C77.0443 270.688 94.3508 274.276 104.787 285.885C110.856 283.188 118.043 285.659 121.134 291.616L121.112 291.605Z" fill="#6BD700"/>
<path d="M62.7737 333.957C65.143 340.388 72.4875 343.524 79.1777 340.952C82.3254 339.745 84.7736 337.488 86.2402 334.758C89.0946 335.83 92.4002 335.886 95.5478 334.679C102.238 332.107 105.747 324.819 103.389 318.388C101.956 314.507 98.7068 311.822 94.8822 310.874C98.1314 305.041 98.9663 298.035 96.5519 291.492C92.0956 279.398 78.2864 273.497 65.6958 278.337C53.1051 283.166 46.5165 296.885 50.9615 308.99C53.342 315.443 58.3851 320.137 64.4999 322.371C62.1081 325.687 61.3184 329.997 62.785 333.968L62.7737 333.957Z" fill="#FCEE21"/>
<path d="M109.672 293.613C111.894 297.911 113.147 302.447 113.519 306.993C117.784 304.173 119.329 298.532 116.915 293.884C114.873 289.946 110.608 287.915 106.445 288.525C107.641 290.104 108.724 291.796 109.672 293.613Z" fill="#FCEE21"/>
<path d="M51.9311 331.644C48.8624 327.91 46.6737 323.724 45.3763 319.358C41.7886 323.014 41.4727 328.858 44.8009 332.897C47.6214 336.326 52.2244 337.398 56.1505 335.943C54.65 334.657 53.2398 333.224 51.9424 331.644H51.9311Z" fill="#FCEE21"/>
<path d="M99.0444 319.302C96.9347 314.913 91.666 313.074 87.2886 315.173C82.8999 317.282 81.0497 322.54 83.1481 326.928C85.2578 331.317 90.5152 333.167 94.9152 331.058C99.3039 328.948 101.154 323.691 99.0444 319.302Z" fill="white"/>
<path d="M82.0083 326.398C79.8986 322.021 74.6412 320.171 70.2525 322.269C65.8638 324.379 64.0023 329.636 66.112 334.025C68.2217 338.414 73.4904 340.264 77.8791 338.154C82.2678 336.044 84.118 330.776 82.0083 326.387V326.398Z" fill="white"/>
<path d="M77.733 315.082C75.2285 316.278 72.6449 316.673 70.5352 316.335C72.4982 318.433 75.6572 319.133 78.3987 317.824C80.8356 316.651 82.2345 314.214 82.212 311.675C81.1063 312.995 79.5833 314.191 77.733 315.082Z" fill="#F58120"/>
<path d="M70.3429 331.768C69.7336 328.497 71.8998 325.349 75.1715 324.751C75.9049 324.616 76.6382 324.616 77.3377 324.751C76.311 325.304 75.7244 326.466 75.95 327.684C76.2208 329.185 77.6648 330.178 79.1653 329.896C80.3725 329.67 81.2638 328.688 81.4105 327.526C81.794 328.147 82.0648 328.835 82.2002 329.591C82.8094 332.863 80.6433 336.01 77.3715 336.608C74.0998 337.218 70.9634 335.051 70.3541 331.78L70.3429 331.768Z" fill="#0079FF"/>
<path d="M85.518 324.277C84.9651 320.994 87.1877 317.892 90.4707 317.339C91.2153 317.215 91.9374 317.237 92.6369 317.373C91.6102 317.914 90.9897 319.065 91.1815 320.272C91.4297 321.773 92.8512 322.799 94.363 322.54C95.5815 322.337 96.4727 321.367 96.642 320.204C97.0143 320.836 97.2738 321.524 97.3979 322.28C97.9394 325.563 95.7281 328.666 92.4451 329.207C89.162 329.749 86.0595 327.538 85.518 324.255V324.277Z" fill="#0079FF"/>
<path d="M73.1971 302.582C79.0975 302.729 84.3436 304.466 87.8975 307.106C90.2441 304.793 91.6995 301.826 91.7784 298.554C91.959 290.95 84.6934 284.599 75.5437 284.384C66.394 284.159 58.8351 290.149 58.6433 297.765C58.5869 300.371 59.4105 302.83 60.8772 304.951C64.2843 303.372 68.5602 302.48 73.1858 302.593L73.1971 302.582Z" fill="#F58120"/>
</g>
<defs>
<clipPath id="clip0_175_4424">
<rect width="149.61" height="353.182" fill="white"/>
</clipPath>
</defs>
</svg>
