<svg width="131" height="42" viewBox="0 0 131 42" fill="none" xmlns="http://www.w3.org/2000/svg">
<path d="M109.549 -0.0078125C98.1764 -0.0078125 88.9194 9.24917 88.9194 20.622C88.9194 31.9949 98.1764 41.2519 109.549 41.2519C120.922 41.2519 130.179 31.9949 130.179 20.622C130.179 9.24917 120.922 -0.0078125 109.549 -0.0078125Z" fill="white"/>
<path d="M109.549 38.6211C119.49 38.6211 127.549 30.5622 127.549 20.6211C127.549 10.68 119.49 2.62109 109.549 2.62109C99.6082 2.62109 91.5493 10.68 91.5493 20.6211C91.5493 30.5622 99.6082 38.6211 109.549 38.6211Z" fill="#0078FF"/>
<path d="M110.094 5.98403C109.92 5.94625 109.746 5.92358 109.565 5.93114C108.582 5.94625 107.728 6.59613 107.449 7.53316L105.295 14.6138L97.8972 14.7498C96.9148 14.7649 96.0609 15.4148 95.7737 16.3519C95.4941 17.2889 95.8417 18.3015 96.6427 18.8682L102.711 23.1076L100.557 30.1882C100.27 31.1253 100.625 32.1379 101.426 32.6971C101.676 32.8709 101.948 32.9918 102.227 33.0522C102.862 33.1958 103.542 33.0522 104.079 32.6517L109.988 28.1932L116.056 32.4326C116.305 32.6064 116.577 32.7197 116.857 32.7877C117.492 32.9313 118.164 32.7877 118.708 32.3872C119.494 31.7978 119.804 30.7701 119.487 29.8482L117.069 22.8506L122.925 18.4224C123.363 18.1126 123.696 17.6365 123.817 17.0697C124.081 15.8758 123.348 14.6969 122.177 14.3871C122.147 14.3871 122.124 14.372 122.094 14.372C122.033 14.3569 121.973 14.3493 121.92 14.3418C121.784 14.3267 121.648 14.3115 121.512 14.3191L114.159 14.4551L111.741 7.45759C111.477 6.70192 110.849 6.15784 110.094 5.99159V5.98403Z" fill="#2FBCEA"/>
<path d="M65.3506 -0.0078125C53.9777 -0.0078125 44.7207 9.24917 44.7207 20.622C44.7207 31.9949 53.9777 41.2519 65.3506 41.2519C76.7234 41.2519 85.9804 31.9949 85.9804 20.622C85.9804 9.24917 76.7234 -0.0078125 65.3506 -0.0078125Z" fill="white"/>
<path d="M65.3506 38.623C75.2917 38.623 83.3506 30.5642 83.3506 20.623C83.3506 10.6819 75.2917 2.62305 65.3506 2.62305C55.4095 2.62305 47.3506 10.6819 47.3506 20.623C47.3506 30.5642 55.4095 38.623 65.3506 38.623Z" fill="#FF91FF"/>
<path d="M65.1842 15.0681C65.1842 15.0681 59.1841 7.6852 54.4385 11.4333C46.4133 17.7659 65.1842 33.2345 65.1842 33.2345C65.1842 33.2345 83.1616 18.6198 75.5595 11.8565C69.756 6.69527 65.1842 15.0681 65.1842 15.0681Z" fill="#FF0000"/>
<path d="M21.3174 -0.0078125C9.94449 -0.0078125 0.6875 9.24917 0.6875 20.622C0.6875 31.9949 9.94449 41.2519 21.3174 41.2519C32.6902 41.2519 41.9472 31.9949 41.9472 20.622C41.9472 9.24917 32.6902 -0.0078125 21.3174 -0.0078125Z" fill="white"/>
<path d="M21.3174 38.6211C31.2585 38.6211 39.3174 30.5622 39.3174 20.6211C39.3174 10.68 31.2585 2.62109 21.3174 2.62109C11.3763 2.62109 3.31738 10.68 3.31738 20.6211C3.31738 30.5622 11.3763 38.6211 21.3174 38.6211Z" fill="#FFDB00"/>
<path d="M19.1334 11.1072L20.3651 21.9587C18.3702 21.5733 15.816 22.4045 13.7379 24.3391C10.7983 27.0821 9.95198 30.9436 11.8487 32.9764C13.7455 35.0091 17.6598 34.4348 20.5994 31.6917C22.874 29.5683 23.8715 26.7799 23.3425 24.6867L22.1561 15.0745C22.1561 15.0745 24.1284 14.8705 27.4609 13.5329C30.7934 12.1954 29.3425 5.9082 29.3425 5.9082L19.1258 11.1072H19.1334Z" fill="#FF8000"/>
</svg>
