<svg width="20" height="20" viewBox="0 0 20 20" fill="none" xmlns="http://www.w3.org/2000/svg">
<path d="M10.2206 0.036197C10.0983 0.00904926 9.97613 0 9.84519 0C9.15556 0.0180985 8.5445 0.497709 8.34372 1.18545L6.8248 6.39783L1.56966 6.51547C0.880037 6.53357 0.268975 7.01318 0.0681976 7.70092C-0.13258 8.38867 0.120574 9.13975 0.687989 9.54697L5.00034 12.6509L3.48142 17.8632C3.28064 18.551 3.53379 19.3021 4.10121 19.7093C4.2758 19.836 4.46784 19.9265 4.66862 19.9627C5.12255 20.0622 5.60267 19.9627 5.98677 19.664L10.1682 16.3701L14.4805 19.474C14.6551 19.6007 14.8559 19.6912 15.0479 19.7274C15.5019 19.8269 15.982 19.7274 16.3661 19.4288C16.9161 18.9944 17.1343 18.2343 16.9073 17.5556L15.1789 12.4156L19.3254 9.1488C19.6396 8.91352 19.8666 8.56965 19.9539 8.15339C20.1372 7.27561 19.6222 6.40688 18.7842 6.1897C18.7667 6.1897 18.7492 6.18065 18.7318 6.1716C18.6881 6.16255 18.6445 6.1535 18.6008 6.14445C18.5048 6.1354 18.4088 6.12635 18.3128 6.1354L13.1013 6.25304L11.3728 1.11306C11.1895 0.561054 10.7356 0.153837 10.2031 0.036197H10.2206Z" fill="#FFBD00"/>
</svg>
