<svg width="40" height="40" viewBox="0 0 40 40" fill="none" xmlns="http://www.w3.org/2000/svg">
<path d="M20.0029 4.41625C20.2029 4.41625 20.4029 4.43625 20.5929 4.48625C21.4329 4.68625 22.1228 5.31625 22.4028 6.17625L24.9328 14.1262L33.1528 14.0662C33.1528 14.0662 33.2029 14.0662 33.2329 14.0662C33.3529 14.0662 33.4829 14.0763 33.6129 14.0963C33.6729 14.0963 33.7428 14.1162 33.8128 14.1362C33.8428 14.1362 33.8728 14.1462 33.9028 14.1562C35.2028 14.5162 35.9928 15.8662 35.6728 17.2162C35.5128 17.8562 35.1428 18.3862 34.6428 18.7362L27.9929 23.6663L30.5328 31.6263C30.8628 32.6763 30.4929 33.8363 29.6029 34.4963C29.1529 34.8263 28.6229 34.9963 28.1029 34.9963C27.9129 34.9963 27.7128 34.9762 27.5328 34.9263C27.2228 34.8563 26.9128 34.7163 26.6428 34.5163L19.9629 29.6362L13.2529 34.6063C12.8029 34.9363 12.2729 35.1063 11.7529 35.1063C11.5629 35.1063 11.3628 35.0863 11.1728 35.0363C10.8628 34.9663 10.5628 34.8263 10.2828 34.6263C9.39281 33.9863 9.0329 32.8262 9.3729 31.7762L11.9529 23.7862L5.2728 18.9062C4.3828 18.2563 4.02289 17.1062 4.36289 16.0562C4.70289 14.9963 5.6828 14.2763 6.7728 14.2663L15.0428 14.2062L17.6229 6.21625C17.9629 5.15625 18.9328 4.43625 20.0328 4.42625M20.0029 0.41625C20.0029 0.41625 19.9829 0.41625 19.9729 0.41625C17.1529 0.43625 14.6628 2.27625 13.7928 4.97625L12.1029 10.2163L6.72288 10.2563C3.89288 10.2663 1.40281 12.1062 0.532815 14.8162C-0.337186 17.5262 0.6128 20.4562 2.8928 22.1262L7.2429 25.2962L5.55283 30.5363C4.68283 33.2463 5.63282 36.1863 7.91282 37.8563C8.60282 38.3662 9.39291 38.7363 10.2529 38.9263C10.7029 39.0363 11.2129 39.0962 11.7329 39.0962C13.1429 39.0962 14.4829 38.6562 15.6129 37.8063L19.9529 34.5863L24.2529 37.7262C24.9629 38.2463 25.7529 38.6063 26.5929 38.7962C27.0629 38.9062 27.5729 38.9663 28.0829 38.9663C29.4829 38.9663 30.8229 38.5262 31.9629 37.6862C34.2329 36.0062 35.1829 33.0763 34.3329 30.3963L32.6628 25.1562L36.9829 21.9562C38.2729 21.0362 39.1828 19.6862 39.5628 18.1462C40.3928 14.6762 38.3829 11.2362 34.9929 10.2963C34.9029 10.2663 34.8129 10.2463 34.7129 10.2262C34.5429 10.1862 34.3629 10.1562 34.2029 10.1263C33.8829 10.0763 33.5529 10.0562 33.2429 10.0562C33.1929 10.0562 33.1429 10.0562 33.0929 10.0562L27.8729 10.0962L26.2329 4.94625C25.5329 2.77625 23.7428 1.10625 21.5428 0.58625C21.0528 0.46625 20.5528 0.40625 20.0428 0.40625H20.0228L20.0029 0.41625Z" fill="#F13E06"/>
<path d="M20.5925 4.47625C20.4025 4.42625 20.2025 4.40625 20.0025 4.40625C18.9025 4.40625 17.9325 5.13625 17.5925 6.19625L15.0124 14.1863L6.74249 14.2463C5.64249 14.2463 4.67246 14.9762 4.33246 16.0362C3.99246 17.0862 4.35249 18.2462 5.24249 18.8862L11.9224 23.7663L9.34247 31.7562C9.00247 32.8162 9.3625 33.9663 10.2525 34.6063C10.5225 34.8063 10.8324 34.9463 11.1424 35.0163C11.8424 35.1863 12.6125 35.0363 13.2225 34.5863L19.9324 29.6162L26.6125 34.4963C26.8825 34.6963 27.1925 34.8363 27.5025 34.9062C28.2025 35.0763 28.9625 34.9263 29.5825 34.4762C30.4725 33.8162 30.8424 32.6562 30.5124 31.6063L27.9725 23.6462L34.6225 18.7162C35.1225 18.3662 35.5024 17.8363 35.6524 17.1963C35.9724 15.8463 35.1924 14.4962 33.8824 14.1362C33.8524 14.1362 33.8224 14.1262 33.7924 14.1162C33.7224 14.0962 33.6625 14.0863 33.5925 14.0763C33.4425 14.0562 33.2924 14.0462 33.1424 14.0462L24.9224 14.1063L22.3924 6.15625C22.1124 5.29625 21.4225 4.66625 20.5825 4.46625L20.5925 4.47625Z" fill="url(#paint0_radial_437_9388)"/>
<defs>
<radialGradient id="paint0_radial_437_9388" cx="0" cy="0" r="1" gradientUnits="userSpaceOnUse" gradientTransform="translate(15.3124 -5.09375) scale(0.499999)">
<stop offset="0.16" stop-color="#FFE426"/>
<stop offset="0.42" stop-color="#FFD000"/>
<stop offset="0.76" stop-color="#FFBE00"/>
</radialGradient>
</defs>
</svg>
