<svg width="130" height="20" viewBox="0 0 130 20" fill="none" xmlns="http://www.w3.org/2000/svg">
<path d="M119.355 0.036197C119.233 0.00904926 119.11 0 118.979 0C118.29 0.0180985 117.679 0.497709 117.478 1.18545L115.959 6.39783L110.704 6.51547C110.014 6.53357 109.403 7.01318 109.202 7.70092C109.002 8.38867 109.255 9.13975 109.822 9.54697L114.135 12.6509L112.616 17.8632C112.415 18.551 112.668 19.3021 113.235 19.7093C113.41 19.836 113.602 19.9265 113.803 19.9627C114.257 20.0622 114.737 19.9627 115.121 19.664L119.302 16.3701L123.615 19.474C123.789 19.6007 123.99 19.6912 124.182 19.7274C124.636 19.8269 125.116 19.7274 125.5 19.4288C126.05 18.9944 126.269 18.2343 126.042 17.5556L124.313 12.4156L128.46 9.1488C128.774 8.91352 129.001 8.56965 129.088 8.15339C129.271 7.27561 128.756 6.40688 127.918 6.1897C127.901 6.1897 127.884 6.18065 127.866 6.1716C127.822 6.16255 127.779 6.1535 127.735 6.14445C127.639 6.1354 127.543 6.12635 127.447 6.1354L122.236 6.25304L120.507 1.11306C120.324 0.561054 119.87 0.153837 119.337 0.036197H119.355Z" fill="#FFBD00"/>
<path d="M92.0711 0.036197C91.9489 0.00904926 91.8267 0 91.6958 0C91.0061 0.0180985 90.3951 0.497709 90.1943 1.18545L88.6754 6.39783L83.4203 6.51547C82.7306 6.53357 82.1196 7.01318 81.9188 7.70092C81.718 8.38867 81.9712 9.13975 82.5386 9.54697L86.8509 12.6509L85.332 17.8632C85.1312 18.551 85.3844 19.3021 85.9518 19.7093C86.1264 19.836 86.3184 19.9265 86.5192 19.9627C86.9731 20.0622 87.4533 19.9627 87.8374 19.664L92.0188 16.3701L96.3311 19.474C96.5057 19.6007 96.7065 19.6912 96.8985 19.7274C97.3525 19.8269 97.8326 19.7274 98.2167 19.4288C98.7666 18.9944 98.9849 18.2343 98.7579 17.5556L97.0295 12.4156L101.176 9.1488C101.49 8.91352 101.717 8.56965 101.804 8.15339C101.988 7.27561 101.473 6.40688 100.635 6.1897C100.617 6.1897 100.6 6.18065 100.582 6.1716C100.539 6.16255 100.495 6.1535 100.451 6.14445C100.355 6.1354 100.259 6.12635 100.163 6.1354L94.9519 6.25304L93.2234 1.11306C93.0401 0.561054 92.5862 0.153837 92.0537 0.036197H92.0711Z" fill="#FFBD00"/>
<path d="M64.7875 0.036197C64.6652 0.00904926 64.543 0 64.4121 0C63.7225 0.0180985 63.1114 0.497709 62.9106 1.18545L61.3917 6.39783L56.1366 6.51547C55.4469 6.53357 54.8359 7.01318 54.6351 7.70092C54.4343 8.38867 54.6875 9.13975 55.2549 9.54697L59.5672 12.6509L58.0483 17.8632C57.8475 18.551 58.1007 19.3021 58.6681 19.7093C58.8427 19.836 59.0347 19.9265 59.2355 19.9627C59.6894 20.0622 60.1696 19.9627 60.5537 19.664L64.7351 16.3701L69.0474 19.474C69.222 19.6007 69.4228 19.6912 69.6148 19.7274C70.0688 19.8269 70.5489 19.7274 70.933 19.4288C71.4829 18.9944 71.7012 18.2343 71.4742 17.5556L69.7458 12.4156L73.8923 9.1488C74.2065 8.91352 74.4335 8.56965 74.5208 8.15339C74.7041 7.27561 74.1891 6.40688 73.351 6.1897C73.3336 6.1897 73.3161 6.18065 73.2987 6.1716C73.255 6.16255 73.2114 6.1535 73.1677 6.14445C73.0717 6.1354 72.9757 6.12635 72.8797 6.1354L67.6682 6.25304L65.9397 1.11306C65.7564 0.561054 65.3025 0.153837 64.77 0.036197H64.7875Z" fill="#FFBD00"/>
<path d="M37.5042 0.036197C37.382 0.00904926 37.2598 0 37.1289 0C36.4393 0.0180985 35.8282 0.497709 35.6274 1.18545L34.1085 6.39783L28.8534 6.51547C28.1637 6.53357 27.5527 7.01318 27.3519 7.70092C27.1511 8.38867 27.4043 9.13975 27.9717 9.54697L32.284 12.6509L30.7651 17.8632C30.5643 18.551 30.8175 19.3021 31.3849 19.7093C31.5595 19.836 31.7515 19.9265 31.9523 19.9627C32.4062 20.0622 32.8864 19.9627 33.2705 19.664L37.4519 16.3701L41.7642 19.474C41.9388 19.6007 42.1396 19.6912 42.3316 19.7274C42.7856 19.8269 43.2657 19.7274 43.6498 19.4288C44.1997 18.9944 44.418 18.2343 44.191 17.5556L42.4626 12.4156L46.6091 9.1488C46.9233 8.91352 47.1503 8.56965 47.2376 8.15339C47.4209 7.27561 46.9059 6.40688 46.0678 6.1897C46.0504 6.1897 46.0329 6.18065 46.0155 6.1716C45.9718 6.16255 45.9282 6.1535 45.8845 6.14445C45.7885 6.1354 45.6925 6.12635 45.5965 6.1354L40.385 6.25304L38.6565 1.11306C38.4732 0.561054 38.0193 0.153837 37.4868 0.036197H37.5042Z" fill="#FFBD00"/>
<path d="M10.2206 0.036197C10.0983 0.00904926 9.97613 0 9.84519 0C9.15556 0.0180985 8.5445 0.497709 8.34372 1.18545L6.8248 6.39783L1.56966 6.51547C0.880037 6.53357 0.268975 7.01318 0.0681976 7.70092C-0.13258 8.38867 0.120574 9.13975 0.687989 9.54697L5.00034 12.6509L3.48142 17.8632C3.28064 18.551 3.53379 19.3021 4.10121 19.7093C4.2758 19.836 4.46784 19.9265 4.66862 19.9627C5.12255 20.0622 5.60267 19.9627 5.98677 19.664L10.1682 16.3701L14.4805 19.474C14.6551 19.6007 14.8559 19.6912 15.0479 19.7274C15.5019 19.8269 15.982 19.7274 16.3661 19.4288C16.9161 18.9944 17.1343 18.2343 16.9073 17.5556L15.1789 12.4156L19.3254 9.1488C19.6396 8.91352 19.8666 8.56965 19.9539 8.15339C20.1372 7.27561 19.6222 6.40688 18.7842 6.1897C18.7667 6.1897 18.7492 6.18065 18.7318 6.1716C18.6881 6.16255 18.6445 6.1535 18.6008 6.14445C18.5048 6.1354 18.4088 6.12635 18.3128 6.1354L13.1013 6.25304L11.3728 1.11306C11.1895 0.561054 10.7356 0.153837 10.2031 0.036197H10.2206Z" fill="#FFBD00"/>
</svg>
