<svg width="223" height="223" viewBox="0 0 223 223" fill="none" xmlns="http://www.w3.org/2000/svg">
<g filter="url(#filter0_d_2146_6891)">
<path d="M190.648 47.4706C190.648 47.4706 190.546 47.4681 190.502 47.4669C190.181 47.4296 189.918 47.4084 189.656 47.3871C189.057 47.3428 188.517 47.3145 187.976 47.3009C187.742 47.295 187.523 47.2894 187.289 47.2835C187.246 47.2824 187.216 47.2817 187.172 47.2806C185.49 47.2966 183.82 47.4446 182.218 47.7259L145.805 53.5631L128.789 20.3188C124.219 11.3417 115.116 5.24797 105.031 4.46705C104.52 4.42491 104.009 4.39739 103.498 4.38449C101.729 4.33987 99.9423 4.45563 98.1805 4.73289C85.5533 6.75401 75.7862 16.5538 73.8312 29.1245L68.0599 66.02L31.177 71.9184C18.5937 73.9407 8.84122 83.7409 6.87195 96.2965C4.90269 108.852 11.2018 121.163 22.536 126.918L55.8601 143.83L50.0741 180.725C48.1045 193.296 54.4036 205.607 65.7524 211.362C69.2177 213.117 72.9061 214.146 76.7302 214.432C77.2117 214.474 77.7375 214.502 78.2636 214.515C86.2575 214.717 94.087 211.58 99.7287 205.902L126.089 179.456L159.399 196.367C162.821 198.106 166.523 199.15 170.377 199.437C170.873 199.479 171.384 199.507 171.91 199.52C179.889 199.721 187.719 196.599 193.374 190.937C202.361 181.921 204.505 168.259 198.736 156.941L181.706 123.667L207.677 97.6053C212.833 92.6318 215.969 85.9842 216.53 78.8329C217.762 63.0268 206.396 49.2572 190.663 47.471L190.648 47.4706Z" fill="white"/>
</g>
<path d="M103.888 19.0326C102.75 18.9453 101.593 18.9893 100.434 19.1647C94.1789 20.1622 89.2579 25.0977 88.266 31.3753L80.8404 78.7725L33.4741 86.3514C27.219 87.3634 22.2983 92.2843 21.3213 98.5477C20.344 104.826 23.5076 111.004 29.1674 113.881L71.9487 135.594L64.5231 182.991C63.5462 189.255 66.7091 195.462 72.3688 198.339C74.1161 199.217 75.9749 199.732 77.8429 199.881C82.0463 200.207 86.2657 198.734 89.3716 195.609L123.234 161.631L166.015 183.344C167.748 184.221 169.636 184.737 171.489 184.886C175.693 185.212 179.927 183.724 183.032 180.63C187.503 176.136 188.584 169.261 185.699 163.617L163.847 120.906L197.425 87.1981C199.957 84.7907 201.649 81.47 201.934 77.719C202.558 69.8234 196.795 62.9074 188.994 62.0232C188.818 62.0188 188.644 61.9852 188.469 61.9661C188.074 61.9415 187.68 61.917 187.285 61.9216C186.422 61.9291 185.528 62.0089 184.676 62.1629L137.633 69.6914L115.766 26.9949C113.411 22.3876 108.864 19.4506 103.858 19.0611L103.888 19.0326Z" fill="#FFC000"/>
<path d="M112.623 42.0362C111.82 41.972 111.001 41.9952 110.179 42.1353C105.744 42.8423 102.279 46.323 101.582 50.7656L96.3342 84.2816L62.8427 89.6515C58.4086 90.3585 54.9131 93.853 54.2311 98.2813C53.549 102.71 55.7785 107.08 59.7776 109.126L90.0411 124.469L84.7937 157.985C84.097 162.413 86.3407 166.798 90.3402 168.829C91.5673 169.46 92.889 169.815 94.2025 169.921C97.1651 170.157 100.16 169.106 102.351 166.909L126.311 142.874L156.574 158.231C157.801 158.862 159.123 159.217 160.451 159.324C163.413 159.559 166.408 158.509 168.599 156.312C171.765 153.131 172.531 148.266 170.496 144.281L155.041 114.074L178.792 90.2375C180.589 88.5427 181.774 86.189 181.987 83.5475C182.421 77.9577 178.362 73.0588 172.836 72.4367C172.704 72.4334 172.588 72.4159 172.456 72.3979C172.179 72.3909 171.887 72.3689 171.638 72.3773C171.009 72.376 170.379 72.4333 169.777 72.5497L136.506 77.8666L121.065 47.6744C119.392 44.4151 116.169 42.345 112.637 42.0657L112.623 42.0362Z" fill="#FFD200"/>
<path fill-rule="evenodd" clip-rule="evenodd" d="M73.6071 99.443C69.9934 89.6564 74.9911 78.7858 84.7926 75.1579C94.5791 71.5442 105.449 76.5565 109.063 86.343C112.677 96.1295 107.679 107 97.8925 110.614C88.106 114.227 77.2353 109.23 73.6074 99.4283L73.6071 99.443Z" fill="white"/>
<path d="M82.745 94.8622C81.1019 90.4337 83.376 85.5045 87.8044 83.8615C88.8082 83.492 89.8359 83.3278 90.8301 83.3383C89.5321 84.3584 88.9898 86.1434 89.5923 87.7672C90.3452 89.8042 92.6003 90.8409 94.6227 90.0876C96.2611 89.4855 97.2665 87.8877 97.1913 86.2334C97.8736 87.011 98.4214 87.9022 98.8048 88.9355C100.448 93.364 98.1739 98.2932 93.7454 99.9363C89.3169 101.579 84.3877 99.3053 82.7446 94.8768L82.745 94.8622Z" fill="#5E1EBB"/>
<path fill-rule="evenodd" clip-rule="evenodd" d="M112.26 90.5913C108.647 80.8048 113.644 69.9341 123.446 66.3062C133.232 62.6926 144.103 67.6903 147.716 77.4914C151.33 87.2779 146.332 98.1486 136.531 101.762C126.745 105.375 115.874 100.378 112.261 90.5767L112.26 90.5913Z" fill="white"/>
<path fill-rule="evenodd" clip-rule="evenodd" d="M126.077 124.31C115.26 128.775 104.169 127.852 96.2394 122.783C96.3727 123.298 96.5059 123.813 96.6687 124.314C101.219 138.146 114.992 145.176 127.435 140.036C138.281 135.542 144.528 123.27 142.921 111.033C138.876 116.634 133.096 121.387 126.062 124.31L126.077 124.31Z" fill="white"/>
<path d="M121.399 85.9961C119.771 81.5533 122.03 76.6384 126.458 74.9953C127.462 74.6258 128.49 74.447 129.484 74.4575C128.186 75.4776 127.629 77.2623 128.246 78.8864C128.999 80.9234 131.254 81.9601 133.277 81.2068C134.915 80.6048 135.921 79.0069 135.831 77.3522C136.513 78.1299 137.061 79.0357 137.444 80.0544C139.072 84.4971 136.813 89.4121 132.37 91.0548C127.942 92.6832 123.013 90.4238 121.384 85.9957L121.399 85.9961Z" fill="#5E1EBB"/>
<defs>
<filter id="filter0_d_2146_6891" x="0.514648" y="0.375183" width="222.106" height="222.149" filterUnits="userSpaceOnUse" color-interpolation-filters="sRGB">
<feFlood flood-opacity="0" result="BackgroundImageFix"/>
<feColorMatrix in="SourceAlpha" type="matrix" values="0 0 0 0 0 0 0 0 0 0 0 0 0 0 0 0 0 0 127 0" result="hardAlpha"/>
<feOffset dy="2"/>
<feGaussianBlur stdDeviation="3"/>
<feComposite in2="hardAlpha" operator="out"/>
<feColorMatrix type="matrix" values="0 0 0 0 0 0 0 0 0 0 0 0 0 0 0 0 0 0 0.25 0"/>
<feBlend mode="normal" in2="BackgroundImageFix" result="effect1_dropShadow_2146_6891"/>
<feBlend mode="normal" in="SourceGraphic" in2="effect1_dropShadow_2146_6891" result="shape"/>
</filter>
</defs>
</svg>
