<svg width="364" height="144" viewBox="0 0 364 144" fill="none" xmlns="http://www.w3.org/2000/svg">
<g filter="url(#filter0_d_513_7302)">
<path d="M214.039 20.8885C214.039 20.8885 214.003 20.8885 213.988 20.8885C213.876 20.8784 213.785 20.8733 213.694 20.8683C213.486 20.8582 213.298 20.8532 213.11 20.8532C213.029 20.8532 212.953 20.8532 212.872 20.8532C212.857 20.8532 212.846 20.8532 212.831 20.8532C212.248 20.8733 211.669 20.9389 211.116 21.0498L198.535 23.3796L192.34 12.0637C190.676 9.00785 187.465 6.98573 183.959 6.80419C183.781 6.79411 183.604 6.78906 183.426 6.78906C182.812 6.78906 182.193 6.84453 181.585 6.95547C177.222 7.7623 173.919 11.2266 173.351 15.5785L171.671 28.3517L158.927 30.7066C154.579 31.5135 151.282 34.9778 150.708 39.3246C150.135 43.6714 152.428 47.8619 156.411 49.7479L168.12 55.2898L166.436 68.063C165.862 72.4148 168.155 76.6053 172.143 78.4913C173.361 79.0662 174.649 79.3889 175.979 79.4545C176.146 79.4646 176.329 79.4696 176.511 79.4696C179.286 79.4696 181.975 78.3199 183.883 76.3129L192.797 66.9637L204.501 72.5056C205.703 73.0754 206.997 73.4032 208.336 73.4688C208.509 73.4789 208.686 73.4839 208.869 73.4839C211.639 73.4839 214.328 72.3392 216.241 70.3372C219.279 67.1503 219.903 62.4202 217.803 58.5676L211.603 47.2417L220.385 38.0286C222.131 36.2687 223.161 33.9491 223.292 31.4782C223.582 26.0169 219.518 21.3675 214.044 20.8885H214.039Z" fill="white"/>
</g>
<path d="M183.69 11.8368C183.294 11.8166 182.893 11.8418 182.493 11.9124C180.331 12.3108 178.667 14.0554 178.378 16.2287L176.217 32.6365L159.85 35.6619C157.689 36.0653 156.025 37.8049 155.741 39.9732C155.457 42.1464 156.609 44.2491 158.597 45.192L173.63 52.3068L171.468 68.7146C171.184 70.8828 172.336 72.9955 174.325 73.9385C174.938 74.2259 175.588 74.3872 176.237 74.4225C177.698 74.4982 179.149 73.9536 180.2 72.8493L191.65 60.8384L206.682 67.9532C207.291 68.2406 207.951 68.402 208.595 68.4373C210.056 68.5129 211.512 67.9633 212.562 66.8691C214.074 65.2807 214.389 62.9007 213.339 60.9796L205.384 46.4425L216.738 34.5274C217.595 33.6752 218.153 32.5155 218.219 31.2196C218.366 28.4917 216.306 26.1571 213.592 25.9201C213.531 25.9201 213.47 25.91 213.41 25.905C213.273 25.8999 213.136 25.8949 212.999 25.8999C212.699 25.91 212.39 25.9453 212.096 26.0058L195.841 29.0111L187.881 14.479C187.023 12.9108 185.42 11.9376 183.68 11.8469L183.69 11.8368Z" fill="#FFC000"/>
<path d="M186.922 19.693C186.643 19.6779 186.359 19.693 186.074 19.7485C184.542 20.0309 183.37 21.2612 183.167 22.7991L181.64 34.4016L170.068 36.5446C168.536 36.827 167.354 38.0623 167.156 39.5952C166.958 41.1281 167.77 42.6156 169.175 43.2862L179.809 48.3134L178.282 59.9159C178.079 61.4488 178.896 62.9413 180.301 63.6069C180.732 63.8136 181.194 63.9246 181.65 63.9498C182.68 64.0053 183.71 63.617 184.451 62.8405L192.553 54.3441L203.187 59.3764C203.618 59.5831 204.08 59.694 204.541 59.7193C205.571 59.7747 206.601 59.3865 207.342 58.6099C208.412 57.4855 208.635 55.8013 207.895 54.445L202.268 44.1636L210.3 35.7378C210.908 35.1378 211.299 34.3159 211.35 33.4032C211.451 31.472 210 29.8181 208.077 29.6517C208.032 29.6517 207.991 29.6466 207.946 29.6416C207.849 29.6416 207.748 29.6366 207.661 29.6416C207.443 29.6466 207.225 29.6719 207.017 29.7172L195.521 31.8401L189.9 21.5637C189.291 20.4544 188.154 19.7687 186.927 19.7031L186.922 19.693Z" fill="#FFD200"/>
<path fill-rule="evenodd" clip-rule="evenodd" d="M173.888 39.8254C172.549 36.4823 174.188 32.6904 177.556 31.3542C180.92 30.023 184.735 31.6567 186.075 34.9998C187.414 38.3429 185.775 42.1348 182.412 43.4659C179.048 44.7971 175.233 43.1684 173.888 39.8203V39.8254Z" fill="white"/>
<path d="M177.019 38.167C176.41 36.6543 177.156 34.9349 178.678 34.3298C179.023 34.1936 179.378 34.1281 179.723 34.123C179.282 34.4861 179.109 35.1063 179.332 35.661C179.611 36.3568 180.403 36.6946 181.098 36.4173C181.661 36.1955 181.996 35.6358 181.955 35.066C182.199 35.3282 182.397 35.6307 182.539 35.9837C183.148 37.4964 182.402 39.2158 180.88 39.8209C179.358 40.426 177.628 39.6848 177.019 38.1721V38.167Z" fill="#5E1EBB"/>
<path fill-rule="evenodd" clip-rule="evenodd" d="M187.221 36.4373C185.882 33.0943 187.52 29.3024 190.889 27.9662C194.253 26.635 198.068 28.2637 199.407 31.6118C200.746 34.9549 199.108 38.7467 195.739 40.0779C192.375 41.4091 188.56 39.7804 187.221 36.4323V36.4373Z" fill="white"/>
<path fill-rule="evenodd" clip-rule="evenodd" d="M192.31 47.9454C188.596 49.5791 184.74 49.3573 181.945 47.6781C181.996 47.8546 182.046 48.0311 182.107 48.2026C183.807 52.9323 188.647 55.2366 192.918 53.3558C196.642 51.712 198.702 47.426 198.037 43.2207C196.683 45.1872 194.719 46.8764 192.305 47.9454H192.31Z" fill="white"/>
<path d="M190.351 34.7736C189.748 33.2559 190.488 31.5415 192.01 30.9364C192.355 30.8002 192.71 30.7297 193.055 30.7246C192.614 31.0877 192.436 31.7079 192.665 32.2625C192.944 32.9584 193.735 33.2962 194.43 33.0189C194.993 32.797 195.328 32.2373 195.283 31.6675C195.526 31.9297 195.724 32.2373 195.866 32.5852C196.47 34.103 195.729 35.8174 194.202 36.4225C192.68 37.0225 190.95 36.2863 190.346 34.7736H190.351Z" fill="#5E1EBB"/>
<g filter="url(#filter1_d_513_7302)">
<path d="M289.002 103.425C289.799 102.723 290.277 101.881 290.392 100.958C290.537 99.7697 290.014 98.613 288.999 97.874C288.809 97.7325 288.6 97.6055 288.369 97.4978C288.365 97.227 288.334 96.9584 288.264 96.6984C287.981 95.5693 287.156 94.7182 285.998 94.3597C285.95 94.3451 285.903 94.3305 285.861 94.3173C284.637 93.9853 283.244 94.2488 281.955 94.8138C281.49 94.1725 280.887 93.7112 280.163 93.4716C281.305 90.8195 281.911 87.955 281.928 85.0219C281.943 82.8295 281.628 80.6802 281.004 78.6113C281.569 77.8741 281.954 77.0139 282.12 76.0755C282.518 73.8513 281.597 71.6541 279.864 70.3044C279.94 70.2449 280.01 70.1838 280.082 70.1181C280.707 69.5393 281.066 68.7486 281.096 67.8977C281.131 66.9136 280.705 65.9944 279.991 65.3742C280.021 65.2748 280.043 65.1726 280.058 65.0736C280.204 64.2328 280.019 63.3881 279.53 62.6926C279.128 62.1172 278.536 61.6854 277.86 61.4762C277.713 61.4308 277.568 61.3964 277.42 61.3714C277.196 60.5714 276.661 59.8565 275.87 59.4305C275.688 59.3327 275.491 59.2509 275.292 59.1894C274.673 58.9977 274.032 59.0069 273.44 59.1811C273.068 58.7758 272.585 58.4605 272.031 58.2894C271.762 58.2059 271.481 58.1604 271.199 58.1508C270.429 58.1252 269.71 58.3742 269.143 58.8155C269.057 57.3017 268.853 55.7513 268.534 54.2018C267.776 50.5214 266.443 47.1447 264.675 44.432C262.796 41.5134 260.55 39.5955 258.194 38.8668C257.036 38.5083 255.879 38.4457 254.757 38.6736C251.735 39.2934 249.442 41.9001 248.311 46.0066C247.37 49.4154 247.303 53.6179 248.122 57.8872C247.811 57.7546 247.498 57.6267 247.181 57.4974C246.418 57.1992 245.643 56.9232 244.868 56.6833C240.985 55.482 237.095 55.1075 233.914 55.6259C230.168 56.2442 227.537 58.0472 226.499 60.7159C225.36 63.6279 226.288 67.0086 229.112 70.2402C231.558 73.0385 235.238 75.4984 239.481 77.1741C239.578 77.2143 239.68 77.2512 239.776 77.2914C239.306 78.5605 238.952 79.8709 238.72 81.2085C238.114 80.0363 237.231 79.2037 236.172 78.8759C235.827 78.7691 235.47 78.7157 235.11 78.7236C234.135 78.7431 233.241 79.1712 232.545 79.93C232.009 79.6191 231.457 79.3759 230.918 79.2091C230.133 78.9662 229.393 78.8977 228.712 79.0032C227.498 79.1924 226.517 79.9512 226.088 81.0362C225.978 81.3079 225.906 81.5913 225.873 81.8817C225.64 81.965 225.417 82.0669 225.202 82.1922C224.113 82.8139 223.466 83.8989 223.478 85.0996C223.486 86.0295 223.87 86.9153 224.579 87.7047C224.132 88.5145 224.033 89.4374 224.315 90.3018C224.535 90.9813 225.203 92.2195 227.194 92.8355C227.686 92.9876 228.224 93.0918 228.803 93.1466C229.277 93.1896 229.786 93.202 230.3 93.1799C230.786 93.4857 231.308 93.7249 231.852 93.8931C232.396 94.0614 232.943 94.1529 233.499 94.18C234.568 95.2982 235.739 96.5051 236.411 97.1122C237.055 97.6948 238.459 98.9843 239.85 100.265C239.552 100.893 239.296 101.539 239.089 102.206C238.883 102.872 238.724 103.554 238.62 104.242C237.147 104.765 235.876 105.725 234.979 107.033C233.849 108.673 233.429 110.668 233.795 112.651C234.18 114.724 235.36 116.535 237.125 117.749C237.8 118.212 238.534 118.569 239.31 118.809C239.953 119.008 240.607 119.122 241.265 119.155L240.02 126.143C239.966 126.437 239.941 126.735 239.94 127.041C239.674 129.456 240.975 130.745 242.34 131.862C243.073 132.456 244.243 133.01 245.823 133.499C247.979 134.166 251.238 134.806 253.326 134.421C255.849 133.953 258.558 132.869 259.5 128.351C260.553 123.273 257.2 121.65 255.715 121.19C254.66 120.864 253.42 120.734 251.956 120.794L251.964 120.735C254.495 120.88 257.029 120.343 259.294 119.184L264.789 124.552C265.06 124.817 265.359 125.055 265.68 125.258C266.113 125.584 266.563 125.821 267.04 125.969C268.294 126.357 269.536 126.078 270.603 125.792C272.25 125.343 274.27 123.724 275.328 122.797C276.387 121.871 278.28 120.057 279.082 118.352C280.175 116.027 280.865 113.193 277.744 109.797C277.383 109.406 276.9 108.925 276.286 108.496C276.642 108.451 276.978 108.405 277.293 108.357C277.512 108.456 277.74 108.537 277.972 108.609C279.523 109.089 281.229 108.953 282.713 108.241C283.222 108.321 283.727 108.363 284.207 108.372C286.395 108.417 288.037 107.697 288.822 106.349C289.34 105.462 289.403 104.404 289.004 103.436L289.002 103.425Z" fill="white"/>
</g>
<path d="M250.619 57.8726C252.348 66.2685 257.226 72.3585 261.512 71.4717C265.798 70.5958 267.871 63.0758 266.142 54.6799C264.41 46.2936 259.532 40.2035 255.245 41.0794C250.957 41.96 248.885 49.4753 250.615 57.8712L250.619 57.8726Z" fill="#D703EA"/>
<path d="M253.933 60.9642C255.649 69.2679 259.477 75.5514 262.548 74.9211C265.619 74.2908 266.724 67.0517 265.006 58.7527C263.295 50.4504 259.415 44.2338 256.341 44.8579C253.27 45.4882 252.22 52.6667 253.931 60.9689L253.933 60.9642Z" fill="#E774E9"/>
<path d="M240.375 74.886C248.408 78.0501 256.236 77.2336 257.863 73.0631C259.49 68.8925 254.298 62.9487 246.27 59.7861C238.238 56.622 230.41 57.4385 228.782 61.609C227.155 65.7796 232.343 71.722 240.375 74.886Z" fill="#D703EA"/>
<path d="M242.056 72.8037C248.433 74.8183 259.613 73.6395 260.411 72.1817C262.022 69.2344 253.229 64.1249 246.85 62.115C240.478 60.1018 234.588 60.6476 233.137 63.6807C231.687 66.7091 235.682 70.7953 242.059 72.8099L242.056 72.8037Z" fill="#E774E9"/>
<path d="M279.472 85.0027C279.534 74.3681 270.944 65.6889 260.279 65.6227C249.615 65.5565 240.927 74.1235 240.864 84.7628C240.801 95.3975 249.392 104.077 260.051 104.141C270.711 104.206 279.408 95.6421 279.47 85.0075L279.472 85.0027Z" fill="#D703EA"/>
<path d="M260.593 86.1978C264.414 87.7481 268.579 87.0988 271.703 84.8577C271.592 85.6837 271.388 86.5117 271.059 87.3221C268.953 92.4895 263.052 94.9802 257.872 92.8801C252.692 90.78 250.197 84.8935 252.304 79.7261C252.632 78.9158 253.067 78.1798 253.565 77.5098C254.236 81.2876 256.765 84.6509 260.593 86.1978Z" fill="#EAEAEA"/>
<path d="M245.873 114.528C247.49 112.184 246.811 108.916 244.357 107.235C241.909 105.55 238.609 106.083 236.993 108.428C235.376 110.772 236.056 114.035 238.508 115.721C240.961 117.408 244.256 116.873 245.873 114.528Z" fill="#E774E9"/>
<path d="M247.391 115.537L245.336 127.084" stroke="#D703EA" stroke-width="8" stroke-miterlimit="10" stroke-linecap="round"/>
<path d="M246.297 100.197C246.297 100.197 240.867 95.1693 239.368 93.8192C238.314 92.8713 235.462 89.8125 235.462 89.8125" stroke="#D703EA" stroke-width="5" stroke-miterlimit="10" stroke-linecap="round"/>
<path d="M260.837 113.127L268.56 120.673" stroke="#D703EA" stroke-width="8" stroke-miterlimit="10" stroke-linecap="round"/>
<path d="M256.448 100.414C261.228 103.271 265.243 104.161 268.047 104.443C272.089 104.844 278.354 103.689 278.354 103.689" stroke="#D703EA" stroke-width="5" stroke-miterlimit="10" stroke-linecap="round"/>
<path fill-rule="evenodd" clip-rule="evenodd" d="M243.884 129.951C242.478 128.801 242.191 128.272 242.418 127C242.641 125.727 244.828 124.119 250.427 123.39C257.894 122.42 257.424 126.218 257.086 127.844C256.459 130.842 255.077 131.591 252.869 131.996C250.659 132.405 245.291 131.097 243.884 129.951Z" fill="#D703EA"/>
<path fill-rule="evenodd" clip-rule="evenodd" d="M269.953 123.404C268.201 123.877 267.602 123.801 266.696 122.878C265.79 121.955 265.753 119.244 268.424 114.262C271.985 107.627 274.799 110.223 275.924 111.442C277.999 113.696 277.801 115.256 276.846 117.287C275.89 119.323 271.703 122.925 269.949 123.403L269.953 123.404Z" fill="#D703EA"/>
<path fill-rule="evenodd" clip-rule="evenodd" d="M241.436 102.926C243.372 96.6692 250.01 93.1682 256.271 95.1055C262.533 97.0428 266.034 103.681 264.098 109.938C262.162 116.194 255.518 119.698 249.261 117.763C243.004 115.827 239.499 109.187 241.436 102.926Z" fill="#D703EA"/>
<path d="M237.051 86.4855C237.14 85.995 237.18 85.4477 237.152 84.869C237.052 82.8121 236.154 81.1609 235.149 81.1764C234.305 81.19 233.653 82.377 233.526 83.9752C233.467 83.8998 233.407 83.8244 233.338 83.746C232.109 82.293 230.203 81.2524 229.087 81.4254C228.01 81.5896 228.049 82.8038 229.126 84.1787C228.038 83.9455 227.01 83.9694 226.416 84.3142C225.427 84.879 225.984 86.0773 227.65 86.9916C228.062 87.2175 228.517 87.4206 228.989 87.5873C228.015 87.8198 227.2 88.2258 226.826 88.7318C226.146 89.6406 227.128 90.5197 229.022 90.6962C229.656 90.7576 230.346 90.738 231.013 90.6593C231.123 90.7556 231.234 90.8471 231.352 90.9354C233.135 92.2229 235.557 91.9152 236.763 90.2465C237.567 89.1377 237.622 87.7038 237.049 86.4902L237.051 86.4855Z" fill="#D703EA"/>
<path d="M276.741 100.829C276.704 100.33 276.728 99.7834 276.822 99.2114C277.156 97.1796 278.228 95.6406 279.225 95.7678C280.062 95.8764 280.576 97.1289 280.526 98.7302C280.593 98.663 280.661 98.5957 280.739 98.5267C282.123 97.219 284.133 96.4004 285.223 96.6961C286.275 96.9802 286.101 98.1803 284.875 99.4282C285.983 99.3149 287.001 99.4588 287.554 99.8633C288.475 100.537 287.791 101.662 286.028 102.386C285.594 102.563 285.117 102.716 284.633 102.825C285.575 103.163 286.339 103.658 286.657 104.203C287.234 105.184 286.16 105.945 284.253 105.91C283.614 105.899 282.929 105.801 282.278 105.646C282.159 105.728 282.035 105.809 281.909 105.884C279.994 106.965 277.623 106.387 276.612 104.598C275.939 103.405 276.04 101.975 276.746 100.83L276.741 100.829Z" fill="#D703EA"/>
<path d="M258.169 68.7415L258.358 63.2243L258.407 61.7936C258.421 61.394 258.102 61.0518 257.703 61.037C257.303 61.0222 256.961 61.3412 256.946 61.7408L256.895 63.1965C256.462 63.2388 256.041 63.3262 255.634 63.454L255.03 62.1378C254.864 61.7703 254.427 61.6091 254.064 61.7767C253.702 61.9442 253.536 62.38 253.703 62.7427L254.297 64.0404C253.904 64.2713 253.536 64.5408 253.199 64.8565L252.114 63.9766C251.803 63.725 251.338 63.7727 251.086 64.0835C250.834 64.3942 250.882 64.8598 251.193 65.1114L252.25 65.9669C252.077 66.2243 251.921 66.4923 251.785 66.7818C251.742 66.872 251.709 66.9604 251.67 67.052L250.465 67.0109C250.066 66.996 249.724 67.315 249.709 67.7146C249.694 68.1142 250.013 68.4565 250.412 68.4713L251.254 68.4985L258.17 68.7368L258.169 68.7415Z" fill="#900E51"/>
<path d="M278.64 67.8115C278.655 67.4119 278.336 67.0697 277.937 67.0549L276.732 67.0137C276.698 66.9204 276.67 66.8287 276.636 66.7355C276.52 66.4405 276.384 66.16 276.228 65.8941L277.34 65.1137C277.67 64.8842 277.75 64.4268 277.52 64.0967C277.291 63.7666 276.833 63.6873 276.503 63.9168L275.359 64.7182C275.043 64.3822 274.694 64.0876 274.322 63.8326L275.001 62.5762C275.193 62.2213 275.062 61.7763 274.707 61.5836C274.352 61.3909 273.907 61.5226 273.714 61.8776L273.025 63.1514C272.622 62.9957 272.208 62.8779 271.783 62.8088L271.835 61.3531C271.85 60.9535 271.531 60.6112 271.131 60.5964C270.731 60.5816 270.389 60.9006 270.374 61.3002L270.23 65.4996L270.137 68.2481L277.053 68.4864L277.895 68.5135C278.294 68.5283 278.636 68.2093 278.651 67.8097L278.64 67.8115Z" fill="#900E51"/>
<path d="M262.774 71.9965C264.146 69.1045 262.906 65.6428 260.004 64.2683C257.103 62.8938 253.644 64.1244 252.277 67.0179C250.906 69.9099 252.146 73.3716 255.047 74.746C257.942 76.1238 261.407 74.8899 262.774 71.9965Z" fill="#EAEAEA"/>
<path d="M254.058 69.419C254.462 67.5751 256.285 66.4082 258.135 66.8097C258.552 66.9024 258.932 67.0617 259.269 67.2798C258.61 67.3505 258.043 67.8279 257.896 68.5028C257.711 69.3523 258.247 70.1815 259.097 70.3666C259.781 70.5162 260.461 70.193 260.795 69.6174C260.855 70.0247 260.849 70.4476 260.755 70.8693C260.355 72.7146 258.531 73.8863 256.681 73.4848C254.831 73.0834 253.659 71.2596 254.059 69.4143L254.058 69.419Z" fill="#00C000"/>
<path d="M276.505 69.0525C276.401 65.7713 273.645 63.188 270.354 63.2891C267.062 63.3949 264.605 66.096 264.709 69.3772C264.816 72.6646 267.439 75.2899 270.736 75.1855C274.028 75.0797 276.613 72.3351 276.506 69.0477L276.505 69.0525Z" fill="#EAEAEA"/>
<path d="M265.752 68.5857C266.156 66.7418 267.979 65.5749 269.829 65.9763C270.247 66.0643 270.633 66.2251 270.968 66.448C270.309 66.5186 269.737 66.9945 269.593 67.6756C269.41 68.5204 269.944 69.3544 270.794 69.5395C271.478 69.6891 272.159 69.3658 272.487 68.7888C272.553 69.1976 272.541 69.619 272.45 70.0469C272.046 71.8908 270.223 73.0577 268.373 72.6562C266.528 72.2563 265.35 70.4358 265.755 68.5919L265.752 68.5857Z" fill="#00C000"/>
<path d="M279.701 75.638C280.048 73.7139 278.698 71.8611 276.685 71.5024C274.671 71.1436 272.76 72.4127 272.414 74.3367C272.067 76.2607 273.421 78.115 275.435 78.4738C277.448 78.8325 279.359 77.5635 279.706 75.6394L279.701 75.638Z" fill="#E774E9"/>
<g filter="url(#filter2_d_513_7302)">
<path d="M351.239 18.6661C350.37 18.0986 349.298 17.8842 348.226 18.0608C347.424 18.1927 345.545 18.5022 340.727 23.5181C339.473 24.826 338.225 26.2396 337.043 27.6898C335.245 24.3258 333.293 21.319 331.272 18.8269C328.79 15.7652 326.252 13.5122 323.69 12.0921C324.051 8.67479 322.541 5.90318 319.838 5.27634C319.253 5.14166 318.652 5.12223 318.052 5.22097C316.91 5.40895 315.873 6.01214 315.023 6.92792C314.47 6.81156 313.91 6.79125 313.345 6.88429C312.832 6.96878 312.346 7.14363 311.897 7.40118C310.891 7.98138 310.166 8.94159 309.86 10.0996C309.621 10.9916 309.644 11.9888 309.904 12.9941C304.188 17.6307 301.129 27.5331 299.993 37.4325C293.689 35.1895 286.277 33.6917 283.06 34.2215C280.707 34.6088 279.79 36.0509 279.452 36.8764C278.371 39.5181 279.671 42.2355 283.321 44.945C285.596 46.6373 288.768 48.3535 292.26 49.7802C294.61 50.7436 296.743 51.8669 298.461 52.7685C298.896 52.999 299.311 53.215 299.712 53.4213C299.887 55.7081 300.154 57.9441 300.51 60.1005C301.968 68.9569 304.787 75.6113 308.931 79.9923C304.013 82.638 301.521 86.495 302.691 90.146C303.904 93.9142 308.439 95.6311 314.533 94.6276C315.698 94.4358 316.882 94.1461 318.058 93.7689C323.52 92.0168 327.261 88.9845 328.376 85.7214C329.042 85.5997 329.694 85.4569 330.335 85.2862C331.214 85.9825 332.301 86.5793 333.575 87.0506C335.808 87.8792 338.482 88.2917 341.311 88.2463C342.545 88.2267 343.76 88.1215 344.925 87.9297C351.013 86.9271 354.764 83.8459 354.699 79.8888C354.636 75.8721 350.693 72.9324 344.743 72.1532C346.535 66.9604 346.795 60.4447 345.518 52.6896C345.072 49.9796 344.454 47.1973 343.673 44.4002C343.983 43.834 344.308 43.2179 344.649 42.5576C345.545 40.8407 346.662 38.7025 348.051 36.5668C350.106 33.4035 351.744 30.1846 352.652 27.5003C354.111 23.1974 353.634 20.2261 351.245 18.6652L351.239 18.6661Z" fill="white"/>
</g>
<path d="M313.95 12.9671C314.523 13.9625 315.382 14.5434 315.869 14.262C316.356 13.9805 316.281 12.9505 315.708 11.9551C315.136 10.9597 314.276 10.3787 313.79 10.6602C313.303 10.9417 313.379 11.9774 313.951 12.9728L313.95 12.9671Z" fill="#000049"/>
<path d="M306.279 88.9936C307.019 91.294 311.775 91.8316 316.898 90.1826C322.028 88.5383 325.582 85.3357 324.841 83.0296C324.101 80.7292 319.345 80.1916 314.222 81.8406C309.092 83.4906 305.538 86.6875 306.279 88.9936Z" fill="#F69C00"/>
<path d="M350.923 79.9428C350.96 82.3589 346.628 84.3928 341.246 84.4736C335.86 84.561 331.467 82.6666 331.431 80.2505C331.394 77.8343 335.726 75.8004 341.108 75.7197C346.489 75.6331 350.887 77.5266 350.923 79.9428Z" fill="#F69C00"/>
<path d="M341.792 53.2967C344.984 72.6816 337.618 80.3852 327.239 82.0941C316.861 83.803 307.414 78.8679 304.222 59.483C301.03 40.0981 305.678 15.8512 316.051 14.1432C326.424 12.4352 338.601 33.9176 341.792 53.2967Z" fill="#000049"/>
<path d="M340.428 63.0339C342.281 74.2831 335.77 79.1276 326.989 80.5735C318.207 82.0194 310.488 79.5238 308.635 68.2688C306.782 57.0138 311.499 41.2777 320.28 39.8317C329.062 38.3858 338.576 51.7847 340.428 63.0339Z" fill="white"/>
<path fill-rule="evenodd" clip-rule="evenodd" d="M312.305 21.6066C315.265 20.9889 318.165 22.8862 318.789 25.8453C319.406 28.8054 317.51 31.7115 314.55 32.3292C311.591 32.9527 308.69 31.0497 308.066 28.0906C307.448 25.1305 309.345 22.2243 312.305 21.6066Z" fill="white"/>
<path d="M313.777 27.3107C315.08 26.8771 315.777 25.4653 315.339 24.1694C315.236 23.8724 315.093 23.6118 314.908 23.3876C314.91 23.867 314.61 24.3131 314.133 24.4745C313.538 24.6732 312.893 24.353 312.695 23.7579C312.532 23.2753 312.715 22.7656 313.1 22.4772C312.802 22.467 312.494 22.5058 312.196 22.6022C310.901 23.0406 310.201 24.4409 310.635 25.7434C311.068 27.0402 312.474 27.7385 313.776 27.3049L313.777 27.3107Z" fill="#0079FF"/>
<path fill-rule="evenodd" clip-rule="evenodd" d="M321.512 21.4172C323.932 20.7168 326.464 22.1061 327.17 24.5245C327.871 26.9439 326.482 29.4764 324.062 30.1768C321.643 30.8772 319.11 29.4879 318.41 27.0685C317.704 24.6501 319.099 22.1167 321.517 21.4105L321.512 21.4172Z" fill="white"/>
<path d="M323.02 26.0023C324.071 25.5567 324.565 24.3443 324.119 23.2925C324.021 23.054 323.88 22.8462 323.715 22.672C323.745 23.0698 323.525 23.4613 323.138 23.6258C322.656 23.8295 322.104 23.6065 321.895 23.1258C321.73 22.7383 321.847 22.2985 322.153 22.0349C321.905 22.0402 321.654 22.0935 321.41 22.1987C320.358 22.6443 319.865 23.8567 320.311 24.9085C320.755 25.9546 321.968 26.4479 323.02 26.0023Z" fill="#0079FF"/>
<path d="M309.103 33.4866C309.496 35.8737 314.122 37.1018 319.433 36.2274C324.743 35.3531 328.731 32.7065 328.338 30.3194C327.945 27.9324 323.32 26.71 318.01 27.5844C312.699 28.4588 308.71 31.0995 309.103 33.4866Z" fill="#F69C00"/>
<path d="M316.693 11.7818C316.285 13.5487 316.648 15.1412 317.51 15.3427C318.372 15.5442 319.4 14.2676 319.808 12.5007C320.216 10.7339 319.853 9.14137 318.99 8.93986C318.129 8.74412 317.101 10.015 316.693 11.7818Z" fill="#000049"/>
<path d="M306.94 45.0601C300.715 40.1629 283.641 36.6019 282.943 38.298C282.252 39.999 287.063 43.5715 293.686 46.283C300.316 48.9993 304.766 52.6077 305.458 50.9125C306.15 49.2173 312.567 49.4873 306.94 45.0601Z" fill="#000049"/>
<path d="M333.293 41.0284C335.63 33.46 347.65 20.8209 349.183 21.824C350.722 22.8261 348.796 28.5028 344.887 34.506C340.978 40.5093 339.372 46.0089 337.839 45.0058C336.3 44.0037 331.181 47.8729 333.294 41.0342L333.293 41.0284Z" fill="#000049"/>
<path d="M321.351 31.4047C318.883 32.8534 316.191 33.5926 313.519 33.6892C315.65 36.0211 319.187 36.641 322.022 34.9778C324.479 33.5368 325.705 30.8003 325.344 28.1414C324.218 29.3987 322.879 30.5076 321.345 31.4057L321.351 31.4047Z" fill="#000049"/>
<g filter="url(#filter3_d_513_7302)">
<path d="M95.3898 15.9783C95.0778 13.9358 93.317 12.4609 91.2944 12.4609C91.1495 12.4609 91.0102 12.4665 90.8653 12.4832C90.3917 12.5333 79.0804 13.7688 65.5291 20.8091C57.5722 24.9443 50.4623 30.237 44.3999 36.5427C37.1617 44.0672 31.4114 53.0443 27.2936 63.2513C20.9916 66.9245 17.5927 73.2692 15.8597 77.9052C15.2078 78.267 14.6283 78.7623 14.1603 79.3689C12.2602 81.8344 12.7617 85.4074 15.2691 87.3387C16.2888 88.1234 17.5481 88.5519 18.8185 88.5519C19.0247 88.5519 19.2253 88.5408 19.4259 88.5185C16.5172 89.9989 14.8456 93.3048 15.5811 96.633C15.6591 97.0003 15.7762 97.3509 15.9099 97.6904C14.5837 98.336 13.5362 99.3934 12.8898 100.668C12.8397 100.679 12.7951 100.679 12.745 100.69C11.2739 101.013 10.0091 101.892 9.19555 103.172C8.69963 103.946 8.40989 104.809 8.33188 105.699C7.8694 106.066 7.46821 106.512 7.13946 107.024C6.34822 108.259 6.09191 109.729 6.40952 111.159C6.96115 113.647 9.21227 115.455 11.7643 115.455C12.1655 115.455 12.5611 115.411 12.9511 115.327C14.3776 115.01 15.6034 114.159 16.3891 112.923C16.6677 112.489 16.8739 112.021 17.0187 111.543C18.0273 112.867 19.6153 113.691 21.3817 113.691C21.7773 113.691 22.1673 113.647 22.5518 113.563C24.0785 113.224 25.3155 112.277 26.0678 111.036C26.7253 111.198 27.4106 111.287 28.1071 111.287C28.7424 111.287 29.3776 111.214 30.0016 111.081C34.5429 110.074 37.4682 105.688 36.7327 101.158C38.9559 100.356 40.7892 98.8926 42.0262 97.0281L42.8285 97.6459C42.8007 97.7461 42.7672 97.8407 42.7338 97.9353C41.8701 98.3026 41.1123 98.887 40.5217 99.655C39.619 100.824 39.2234 102.293 39.4129 103.779C39.6079 105.287 40.4158 106.684 41.6361 107.625C42.6447 108.404 43.9095 108.838 45.1799 108.838C46.9407 108.838 48.5622 108.048 49.6265 106.668C50.1335 106.011 50.4734 105.271 50.6461 104.497C54.5912 101.709 59.6952 96.9892 61.7624 90.2383C69.0395 84.7618 78.7572 75.9684 85.9897 63.9192C94.8382 49.1763 97.9975 33.0476 95.3898 15.9783Z" fill="white"/>
</g>
<path d="M26.7978 92.4931C27.5333 95.8157 30.9434 97.886 34.4092 97.118C37.875 96.35 40.0927 93.0385 39.3572 89.7159C38.6217 86.3933 35.2116 84.323 31.7458 85.0855C28.2799 85.8535 26.0623 89.1649 26.7978 92.4875V92.4931ZM26.6585 92.5265C25.8728 88.9869 28.1128 85.4806 31.6566 84.6959C35.2004 83.9111 38.7108 86.1485 39.4965 89.6881C40.2822 93.2277 38.0422 96.734 34.4984 97.5187C30.9545 98.3034 27.4441 96.0661 26.6585 92.5265Z" fill="#009AFF"/>
<path fill-rule="evenodd" clip-rule="evenodd" d="M26.7979 92.4918C26.0623 89.1692 28.2745 85.8577 31.7458 85.0897C35.2117 84.3217 38.6218 86.392 39.3573 89.7202C40.0928 93.0428 37.8751 96.3542 34.4093 97.1222C30.9435 97.8903 27.5334 95.8144 26.7979 92.4973V92.4918Z" fill="#3071FF"/>
<path d="M37.8415 89.348C36.6714 86.7991 33.4006 85.7973 30.5477 87.1052C30.3415 87.1998 30.1465 87.3055 29.957 87.4168C30.3638 86.9605 30.8764 86.5764 31.4671 86.3037C33.7795 85.2463 36.5154 86.2592 37.574 88.5689C37.7022 88.8472 37.8025 89.1366 37.8694 89.426C37.8582 89.4037 37.8526 89.3759 37.8415 89.3536V89.348Z" fill="#95C5FF"/>
<path d="M19.6988 95.7317C20.0554 97.3512 21.7159 98.3586 23.4042 97.9857C25.0926 97.6128 26.1735 95.9988 25.8114 94.3793C25.4547 92.7653 23.7943 91.7524 22.1059 92.1253C20.4176 92.4982 19.3366 94.1121 19.6988 95.7317ZM19.6264 95.7428C19.2419 94.0175 20.334 92.3145 22.0614 91.9305C23.7887 91.5465 25.4993 92.6373 25.8782 94.3626C26.2627 96.0879 25.1706 97.7965 23.4432 98.1749C21.7159 98.5534 20.0053 97.4681 19.6264 95.7428Z" fill="#009AFF"/>
<path fill-rule="evenodd" clip-rule="evenodd" d="M19.6991 95.7309C19.3425 94.1113 20.4179 92.4973 22.1063 92.1244C23.7946 91.7516 25.4551 92.7589 25.8117 94.3785C26.1683 95.998 25.0929 97.612 23.4046 97.9849C21.7162 98.3578 20.0557 97.3504 19.6991 95.7309Z" fill="#3071FF"/>
<path d="M25.0762 94.201C24.5078 92.9599 22.9142 92.4702 21.5212 93.1102C21.4209 93.1547 21.3262 93.2048 21.2314 93.2605C21.432 93.0378 21.6772 92.8486 21.967 92.715C23.0925 92.1975 24.4242 92.6928 24.9424 93.817C25.0037 93.9561 25.0539 94.0953 25.0873 94.2344C25.0873 94.2233 25.0762 94.2122 25.0706 94.201H25.0762Z" fill="#95C5FF"/>
<path d="M16.4335 104.185C16.7121 105.448 18.0104 106.238 19.331 105.943C20.6516 105.654 21.4985 104.391 21.2143 103.127C20.9357 101.864 19.6374 101.074 18.3169 101.369C16.9963 101.658 16.1549 102.921 16.4335 104.185ZM16.3778 104.196C16.0769 102.849 16.9294 101.513 18.2834 101.213C19.6319 100.912 20.9692 101.764 21.2701 103.116C21.571 104.463 20.7184 105.799 19.3644 106.099C18.016 106.4 16.6787 105.548 16.3778 104.196Z" fill="#009AFF"/>
<path fill-rule="evenodd" clip-rule="evenodd" d="M16.4337 104.186C16.155 102.923 16.9964 101.66 18.317 101.37C19.6376 101.075 20.9359 101.866 21.2145 103.129C21.4931 104.392 20.6517 105.656 19.3311 105.945C18.0105 106.235 16.7123 105.45 16.4337 104.186Z" fill="#3071FF"/>
<path d="M20.6352 102.988C20.1894 102.02 18.9468 101.636 17.8547 102.131C17.7767 102.17 17.7043 102.209 17.6318 102.248C17.7879 102.07 17.9829 101.925 18.2058 101.825C19.0861 101.419 20.1281 101.808 20.5293 102.688C20.5795 102.794 20.6185 102.905 20.6408 103.016C20.6408 103.005 20.6296 102.994 20.6296 102.988H20.6352Z" fill="#95C5FF"/>
<path d="M10.4827 110.263C10.6332 110.942 11.3297 111.365 12.0318 111.204C12.7394 111.048 13.1907 110.374 13.0403 109.695C12.8898 109.016 12.1933 108.599 11.4857 108.755C10.778 108.911 10.3267 109.584 10.4771 110.263H10.4827ZM10.4549 110.269C10.2933 109.545 10.7502 108.833 11.4745 108.677C12.1989 108.516 12.9121 108.972 13.0737 109.695C13.2353 110.413 12.7784 111.131 12.054 111.293C11.3297 111.454 10.6164 110.998 10.4549 110.274V110.269Z" fill="#009AFF"/>
<path fill-rule="evenodd" clip-rule="evenodd" d="M10.4825 110.263C10.3321 109.584 10.7834 108.911 11.4911 108.755C12.1987 108.599 12.8952 109.022 13.0457 109.696C13.1961 110.375 12.7448 111.048 12.0371 111.204C11.3295 111.36 10.6386 110.937 10.4881 110.263H10.4825Z" fill="#3071FF"/>
<path d="M12.7339 109.624C12.4943 109.106 11.8312 108.9 11.2461 109.167C11.2015 109.19 11.1625 109.206 11.1235 109.229C11.2071 109.134 11.3074 109.056 11.43 109C11.9036 108.783 12.4553 108.989 12.6726 109.462C12.7004 109.518 12.7171 109.579 12.7339 109.635C12.7339 109.635 12.7339 109.624 12.7283 109.618L12.7339 109.624Z" fill="#95C5FF"/>
<path d="M12.5219 106.54C12.6891 107.302 13.4748 107.781 14.2771 107.603C15.0739 107.425 15.5866 106.662 15.4138 105.9C15.2411 105.137 14.461 104.659 13.6586 104.837C12.8563 105.015 12.3492 105.777 12.5219 106.54ZM12.4885 106.545C12.3102 105.727 12.8228 104.92 13.6419 104.742C14.461 104.558 15.269 105.076 15.4473 105.894C15.6312 106.707 15.113 107.519 14.2939 107.697C13.4748 107.875 12.6668 107.363 12.4885 106.545Z" fill="#009AFF"/>
<path fill-rule="evenodd" clip-rule="evenodd" d="M12.5223 106.539C12.3495 105.771 12.8622 105.009 13.659 104.836C14.4558 104.658 15.2414 105.137 15.4142 105.899C15.5813 106.662 15.0743 107.43 14.2775 107.602C13.4807 107.78 12.695 107.302 12.5223 106.539Z" fill="#3071FF"/>
<path d="M15.0684 105.816C14.801 105.226 14.0432 104.998 13.3857 105.298C13.3355 105.321 13.291 105.343 13.252 105.371C13.3467 105.265 13.4637 105.176 13.603 105.115C14.1323 104.87 14.7676 105.104 15.0127 105.638C15.0406 105.705 15.0629 105.771 15.0796 105.833C15.0796 105.833 15.0796 105.822 15.074 105.816H15.0684Z" fill="#95C5FF"/>
<path d="M20.1004 108.493C20.2508 109.172 20.9473 109.59 21.655 109.439C22.3627 109.284 22.814 108.61 22.6635 107.931C22.5131 107.252 21.8166 106.835 21.1145 106.985C20.4069 107.141 19.9555 107.82 20.106 108.493H20.1004ZM20.0725 108.499C19.9109 107.775 20.3679 107.063 21.0922 106.902C21.8166 106.74 22.5298 107.197 22.6914 107.92C22.853 108.644 22.3961 109.356 21.6717 109.517C20.9473 109.673 20.2341 109.217 20.0725 108.499Z" fill="#009AFF"/>
<path fill-rule="evenodd" clip-rule="evenodd" d="M20.1002 108.494C19.9498 107.815 20.4011 107.141 21.1088 106.985C21.8164 106.83 22.5073 107.253 22.6578 107.932C22.8082 108.611 22.3569 109.284 21.6492 109.44C20.9416 109.596 20.2507 109.173 20.0946 108.494H20.1002Z" fill="#3071FF"/>
<path d="M22.3511 107.853C22.1115 107.335 21.4484 107.129 20.8633 107.396C20.8187 107.418 20.7797 107.435 20.7407 107.463C20.8243 107.368 20.9302 107.29 21.0472 107.235C21.5208 107.018 22.078 107.224 22.2953 107.697C22.3232 107.752 22.3399 107.814 22.3566 107.869C22.3566 107.869 22.3566 107.858 22.3511 107.853Z" fill="#95C5FF"/>
<path d="M23.7221 103.529C24.2348 105.856 26.6196 107.303 29.0435 106.769C31.4673 106.234 33.0163 103.913 32.5037 101.593C31.9911 99.2719 29.6062 97.8193 27.1768 98.3592C24.753 98.8934 23.2039 101.214 23.7221 103.535V103.529ZM23.6218 103.552C23.0702 101.075 24.636 98.6263 27.1155 98.0753C29.5951 97.5243 32.0468 99.0882 32.5984 101.565C33.1445 104.041 31.5843 106.496 29.1048 107.041C26.6252 107.587 24.1735 106.028 23.6218 103.552Z" fill="#009AFF"/>
<path fill-rule="evenodd" clip-rule="evenodd" d="M23.7218 103.529C23.2092 101.208 24.7526 98.8874 27.1765 98.3531C29.6003 97.8188 31.9852 99.2659 32.5034 101.587C33.016 103.907 31.467 106.228 29.0431 106.763C26.6193 107.297 24.2344 105.85 23.7218 103.523V103.529Z" fill="#3071FF"/>
<path d="M31.4449 101.33C30.6258 99.5431 28.3412 98.8418 26.3464 99.7601C26.2015 99.8269 26.0622 99.8993 25.9341 99.9772C26.2183 99.6544 26.5749 99.3873 26.9928 99.198C28.6087 98.4578 30.5255 99.1646 31.2665 100.779C31.3557 100.973 31.4226 101.174 31.4727 101.38C31.4671 101.363 31.4616 101.346 31.4504 101.33H31.4449Z" fill="#95C5FF"/>
<path d="M91.2942 16.6016C91.2942 16.6016 39.6968 21.9277 26.5635 79.469L46.8458 94.7963C50.3729 93.199 99.0393 67.2973 91.2886 16.6016H91.2942Z" fill="#DB0000"/>
<path d="M80.6293 30.5878C79.4146 29.664 78.0327 28.9516 76.5617 28.5175C73.1126 27.5046 68.1033 28.601 64.9328 30.0146C61.1215 31.7121 57.7559 34.4224 54.4907 36.9714C45.7426 43.8002 38.1479 51.8813 33.0048 61.7934C31.545 64.6039 30.3024 67.5202 29.2103 70.4922C28.8871 71.366 25.711 79.2856 26.1679 79.6251C26.1679 79.6251 46.8013 94.9468 46.8013 94.9524C47.2526 95.2863 51.5208 92.1029 51.922 91.8246C55.3488 89.4927 58.5973 86.8992 61.662 84.1109C67.8748 78.4564 73.3466 71.9337 77.5256 64.6318C79.9328 60.4298 81.8997 55.9719 83.3206 51.3414C84.7025 46.8445 86.2905 42.1083 85.1426 37.3666C84.4907 34.6673 82.8358 32.2797 80.6293 30.5934V30.5878Z" fill="#FF0000"/>
<path d="M26.6396 76.5605L25.229 78.3906L48.6609 96.4077L50.0715 94.5776L26.6396 76.5605Z" fill="#DB0000"/>
<path d="M26.4023 76.869L24.9917 78.6992L48.4236 96.7163L49.8342 94.8862L26.4023 76.869Z" fill="#F69C00"/>
<path d="M25.3525 78.2357L24.9922 78.7031L48.4241 96.7202L48.7844 96.2528L25.3525 78.2357Z" fill="#F58120"/>
<path d="M18.3838 83.9651C18.3838 83.9651 21.4373 68.3651 33.8853 65.5156C33.8853 65.5156 35.139 69.0998 29.1546 77.8709C29.1546 77.8709 21.6825 78.4442 18.3838 83.9651Z" fill="#FFB33D"/>
<path d="M18.5176 83.4319C18.5176 83.4319 21.5711 67.8319 34.0191 64.9824C34.0191 64.9824 35.1 68.8838 29.1156 77.6605C29.1156 77.6605 21.8162 77.9166 18.5176 83.4319Z" fill="#FFE800"/>
<path d="M90.2636 20.0352C90.2636 20.0352 96.1087 44.6512 67.7413 78.8899C67.7413 78.8899 61.7124 80.1811 54.9312 86.6426C54.9312 86.6426 84.6247 62.5887 90.2636 20.0352Z" fill="#FB810F"/>
<path d="M30.8262 94.8138C30.3804 95.1922 39.2567 77.1379 45.4919 75.791C45.4919 75.791 46.3277 81.6181 30.8262 94.8138Z" fill="#FFB33D"/>
<path d="M31.9742 93.3274C31.5284 93.7059 40.4047 75.6515 46.6398 74.3047C46.6398 74.3047 47.4756 80.1317 31.9742 93.3274Z" fill="#FFE800"/>
<path d="M35.9137 88.9866C34.5263 90.7341 39.452 85.4247 40.8339 83.6716C42.5835 81.4454 44.5059 79.3194 45.5534 76.6591C45.6147 76.5033 45.8766 75.635 45.6704 75.5905C44.2718 75.3122 42.7674 77.9725 41.536 79.5698C41.536 79.5698 43.592 76.7871 44.2328 77.3659C44.2328 77.3659 44.8903 77.6943 35.9137 88.9866Z" fill="white"/>
<path d="M57.416 59.9116C57.416 59.9116 69.5854 48.8474 80.3674 30.3145C80.3674 30.3145 67.5349 42.7644 57.416 59.9116Z" fill="#FB810F"/>
<path d="M26.8979 70.4019C26.8979 70.4019 30.0629 67.0571 33.2055 67.1016C33.2055 67.1016 29.3051 66.1165 26.8979 70.4019Z" fill="white"/>
<path d="M79.8271 53.1549C75.1243 59.2547 66.3594 60.3956 60.2525 55.6984C54.1455 51.0011 53.0032 42.2466 57.706 36.1469C62.4089 30.0471 71.1737 28.9062 77.2807 33.6035C83.3877 38.3007 84.5299 47.0552 79.8271 53.1549Z" fill="#FFE800"/>
<path d="M78.4395 52.0699C74.3273 57.4016 66.6602 58.3978 61.3221 54.2905C55.9785 50.1832 54.9811 42.5251 59.0933 37.1934C63.2055 31.8561 70.8727 30.8655 76.2107 34.9728C81.5543 39.0801 82.5461 46.7382 78.434 52.0699H78.4395Z" fill="#0F0E58"/>
<path d="M76.272 34.1055C76.272 34.1055 84.8585 39.7989 80.6795 50.3511C80.6795 50.3511 86.7307 40.528 76.272 34.1055Z" fill="white"/>
<mask id="mask0_513_7302" style="mask-type:luminance" maskUnits="userSpaceOnUse" x="56" y="32" width="25" height="25">
<path d="M80.908 43.361C81.6101 50.0562 76.7401 56.0558 70.0369 56.7571C63.3337 57.4583 57.327 52.5941 56.6249 45.8988C55.9228 39.2036 60.7928 33.204 67.496 32.5028C74.1992 31.8015 80.2059 36.6657 80.908 43.361Z" fill="white"/>
</mask>
<g mask="url(#mask0_513_7302)">
<path d="M66.9777 46.2504C67.8525 49.5229 69.9197 51.8159 71.5913 51.3707C73.2685 50.9254 73.9149 47.9145 73.0401 44.6364C72.1653 41.364 70.098 39.071 68.4264 39.5162C66.7548 39.9615 66.1029 42.9779 66.9777 46.2504Z" fill="#D703EA"/>
<path d="M68.3594 47.3911C69.2286 50.6302 70.8835 53.0234 72.0815 52.7061C73.2795 52.3889 73.5525 49.506 72.6833 46.2669C71.8196 43.0278 70.1424 40.6625 68.9444 40.9797C67.7464 41.2969 67.4957 44.1576 68.3594 47.3911Z" fill="#E774E9"/>
<path d="M63.3223 53.1965C66.5653 54.2651 69.6411 53.7642 70.1927 52.0779C70.7388 50.3971 68.5545 48.1653 65.306 47.1023C62.0575 46.0393 58.9873 46.5347 58.4356 48.221C57.884 49.9018 60.0738 52.1335 63.3168 53.1965H63.3223Z" fill="#D703EA"/>
<path d="M63.9354 52.3392C66.4986 52.9904 70.8949 52.2669 71.1736 51.6769C71.7419 50.4748 68.1535 48.6604 65.5848 48.0093C63.0216 47.3581 60.7036 47.7087 60.2022 48.9387C59.7007 50.1687 61.3723 51.688 63.9354 52.3392Z" fill="#E774E9"/>
<path d="M79.0022 56.3013C78.7849 52.0994 75.1909 48.8714 70.9784 49.0885C66.7659 49.3055 63.523 52.8841 63.7403 57.086C63.9576 61.288 67.5516 64.5159 71.7641 64.2989C75.9766 64.0818 79.2195 60.5032 79.0022 56.3013Z" fill="#D703EA"/>
<path d="M70.215 50.3691L70.1649 48.1875L70.1538 47.6198C70.1538 47.4584 70.0145 47.3359 69.8584 47.3359C69.7024 47.3359 69.5743 47.4751 69.5743 47.6309L69.5854 48.2042C69.4182 48.232 69.2511 48.2765 69.0895 48.3322L68.822 47.8257C68.7496 47.6866 68.5713 47.6309 68.432 47.7033C68.2927 47.7756 68.237 47.9537 68.3094 48.0928L68.5713 48.5937C68.4208 48.6939 68.2815 48.8108 68.159 48.9388L67.7076 48.616C67.5795 48.5214 67.3956 48.5548 67.3064 48.6828C67.2117 48.8108 67.2451 48.9944 67.3733 49.0835L67.8079 49.3952C67.7466 49.5009 67.6909 49.6122 67.6408 49.7291C67.624 49.768 67.6129 49.8014 67.6017 49.8404L67.1226 49.8515C66.961 49.8515 66.8384 49.9907 66.8384 50.1465C66.8384 50.3079 66.9777 50.4303 67.1337 50.4303H67.468V50.4248L70.2039 50.3635L70.215 50.3691Z" fill="#900E51"/>
<path d="M78.2834 49.5344C78.2834 49.373 78.144 49.2506 77.988 49.2506L77.5088 49.2617C77.4921 49.2283 77.481 49.1894 77.4643 49.156C77.4141 49.0391 77.3528 48.9333 77.286 48.8332L77.7094 48.4992C77.832 48.3991 77.8543 48.2154 77.7596 48.093C77.6593 47.9705 77.4754 47.9483 77.3528 48.0429L76.9182 48.3879C76.7845 48.2655 76.6396 48.1542 76.4891 48.0596L76.7287 47.5475C76.7956 47.4028 76.7287 47.2303 76.5894 47.1635C76.4446 47.0967 76.2718 47.1635 76.205 47.3027L75.9598 47.8202C75.7982 47.7702 75.6311 47.7312 75.4583 47.7145L75.4472 47.1413C75.4472 46.9799 75.3079 46.8574 75.1519 46.8574C74.9903 46.8574 74.8677 46.9966 74.8677 47.1524L74.9067 48.8165L74.9345 49.9017L77.6704 49.8405H78.0047C78.1663 49.8294 78.2889 49.6958 78.2889 49.54L78.2834 49.5344Z" fill="#900E51"/>
<path d="M72.1039 51.5492C72.5775 50.3749 72.0092 49.0391 70.8335 48.5605C69.6578 48.0819 68.3149 48.6496 67.8413 49.8239C67.3677 50.9982 67.936 52.3339 69.1117 52.8125C70.2874 53.2912 71.6303 52.7235 72.1039 51.5492Z" fill="#EAEAEA"/>
<path d="M68.6048 50.725C68.7219 49.9903 69.4184 49.4839 70.1595 49.6008C70.3266 49.6286 70.4826 49.6842 70.6164 49.7622C70.36 49.8067 70.1427 50.007 70.1037 50.2797C70.048 50.6192 70.282 50.9365 70.6219 50.9866C70.895 51.0311 71.1569 50.8864 71.2739 50.6526C71.3073 50.8085 71.3129 50.981 71.285 51.148C71.168 51.8826 70.4771 52.3891 69.736 52.2722C68.9949 52.1553 68.4934 51.4652 68.6048 50.725Z" fill="#00C000"/>
<path d="M77.4644 50.0737C77.3473 48.7825 76.1995 47.8252 74.9012 47.9365C73.6029 48.0534 72.6947 49.1776 72.8061 50.4688C72.9231 51.7656 74.0208 52.7395 75.3191 52.6227C76.6174 52.5058 77.5758 51.3649 77.4588 50.0681L77.4644 50.0737Z" fill="#EAEAEA"/>
<path d="M73.2074 50.1351C73.3244 49.4005 74.0209 48.894 74.7564 49.0109C74.9236 49.0387 75.0796 49.0944 75.2189 49.1723C74.9626 49.2168 74.7453 49.4172 74.7007 49.6899C74.645 50.0294 74.879 50.3466 75.2189 50.3967C75.4919 50.4412 75.7538 50.2965 75.8708 50.0628C75.9042 50.2242 75.9098 50.3912 75.882 50.5581C75.7649 51.2928 75.0684 51.7992 74.3329 51.6823C73.5918 51.5655 73.0904 50.8753 73.2074 50.1351Z" fill="#00C000"/>
<path d="M78.8797 52.6C78.9744 51.832 78.3949 51.1308 77.5925 51.0361C76.7902 50.9415 76.0602 51.4814 75.9711 52.2494C75.8764 53.0175 76.4558 53.7187 77.2582 53.8133C78.0606 53.9079 78.7905 53.3681 78.8797 52.6Z" fill="#E774E9"/>
<path fill-rule="evenodd" clip-rule="evenodd" d="M73.3132 57.5934C70.7389 57.3541 68.6661 56.0295 67.6352 54.2207C67.6074 54.3376 67.5795 54.4489 67.5628 54.5658C67.0279 57.7325 68.9948 60.5264 71.9592 60.8046C74.5446 61.044 77.0297 59.2908 77.9826 56.7363C76.6118 57.4153 74.9904 57.7492 73.3188 57.5934H73.3132Z" fill="white"/>
</g>
<path d="M41.6975 62.2719C41.196 62.923 40.2153 63.0176 39.5132 62.4778C38.8112 61.9379 38.6496 60.9696 39.1566 60.3184C39.6581 59.6672 40.6388 59.5726 41.3409 60.1125C42.043 60.6523 42.2045 61.6207 41.6975 62.2719Z" fill="#FFE800"/>
<path d="M40.9951 60.3848C40.9951 60.3848 41.5077 61.5869 41.0397 62.3048C41.0397 62.3048 42.3658 61.1695 40.9951 60.3848Z" fill="white"/>
<path d="M44.4167 58.1645C43.9097 58.8212 42.9346 58.9102 42.2325 58.3704C41.5304 57.8305 41.3688 56.8621 41.8759 56.211C42.3774 55.5598 43.358 55.4652 44.0601 56.0051C44.7622 56.5449 44.9238 57.5133 44.4167 58.1645Z" fill="#FFE800"/>
<path d="M43.709 56.2734C43.709 56.2734 44.2216 57.4756 43.7591 58.1935C43.7591 58.1935 45.0853 57.0582 43.709 56.2734Z" fill="white"/>
<path d="M47.4587 54.2131C46.9572 54.8699 45.9765 54.9589 45.2745 54.419C44.5724 53.8792 44.4108 52.9108 44.9179 52.2597C45.4193 51.6029 46.4 51.5139 47.1021 52.0537C47.8042 52.5936 47.9658 53.562 47.4587 54.2131Z" fill="#FFE800"/>
<path d="M46.7515 52.3262C46.7515 52.3262 47.2641 53.5283 46.796 54.2518C46.796 54.2518 48.1222 53.1165 46.7515 52.3262Z" fill="white"/>
<path d="M19.9831 83.8539C19.4816 84.5106 18.501 84.5997 17.7989 84.0598C17.0968 83.52 16.9352 82.5516 17.4423 81.9004C17.9438 81.2493 18.9244 81.1547 19.6265 81.6945C20.3286 82.2344 20.4902 83.2027 19.9831 83.8539Z" fill="#FFE800"/>
<path d="M19.2812 81.9688C19.2812 81.9688 19.7939 83.1709 19.3314 83.8888C19.3314 83.8888 20.6576 82.7535 19.2812 81.9688Z" fill="white"/>
<path d="M32.6706 95.0081C32.1691 95.6592 31.1885 95.7538 30.4864 95.214C29.7843 94.6741 29.6227 93.7057 30.1298 93.0546C30.6313 92.3978 31.6119 92.3088 32.314 92.8487C33.0161 93.3885 33.1777 94.3569 32.6706 95.0081Z" fill="#FFE800"/>
<path d="M31.9688 93.1211C31.9688 93.1211 32.4814 94.3232 32.0189 95.0412C32.0189 95.0412 33.3451 93.9058 31.9688 93.1211Z" fill="white"/>
<path d="M29.4447 80.5093C29.2497 80.7597 28.8763 80.7931 28.6033 80.5872C28.3303 80.3812 28.2745 80.0084 28.464 79.7579C28.659 79.5075 29.0323 79.4685 29.3054 79.68C29.5728 79.8859 29.6397 80.2588 29.4447 80.5148V80.5093Z" fill="#FFE800"/>
<path d="M29.1714 79.7852C29.1714 79.7852 29.3664 80.2471 29.1881 80.5254C29.1881 80.5254 29.7007 80.0857 29.1714 79.7852Z" fill="white"/>
<path d="M31.2612 81.9077C31.0662 82.1581 30.6929 82.1971 30.4198 81.9856C30.1524 81.7797 30.0911 81.4068 30.2861 81.1564C30.4811 80.9059 30.8544 80.8669 31.1275 81.0784C31.3949 81.2844 31.4618 81.6572 31.2668 81.9077H31.2612Z" fill="#FFE800"/>
<path d="M30.9937 81.1777C30.9937 81.1777 31.1942 81.6397 31.0104 81.9179C31.0104 81.9179 31.523 81.4783 30.9937 81.1777Z" fill="white"/>
<path d="M33.0774 83.3097C32.8824 83.5602 32.509 83.5936 32.236 83.3877C31.9685 83.1817 31.9073 82.8088 32.0967 82.5528C32.2917 82.3024 32.6651 82.2634 32.9381 82.4749C33.2055 82.6808 33.2668 83.0537 33.0718 83.3097H33.0774Z" fill="#FFE800"/>
<path d="M32.8101 82.5801C32.8101 82.5801 33.0051 83.042 32.8268 83.3203C32.8268 83.3203 33.3394 82.8806 32.8101 82.5801Z" fill="white"/>
<path d="M34.8997 84.7065C34.7046 84.957 34.3313 84.9959 34.0583 84.79C33.7908 84.5841 33.7295 84.2112 33.919 83.9552C34.114 83.7047 34.4873 83.6658 34.7604 83.8773C35.0334 84.0832 35.0891 84.4561 34.8997 84.7065Z" fill="#FFE800"/>
<path d="M34.6265 83.9766C34.6265 83.9766 34.8215 84.4385 34.6432 84.7168C34.6432 84.7168 35.1558 84.2771 34.6265 83.9766Z" fill="white"/>
<path d="M40.4939 89.0092C40.2989 89.2597 39.9255 89.2987 39.6525 89.0872C39.3851 88.8812 39.3238 88.5084 39.5132 88.2579C39.7082 88.0075 40.0816 87.9685 40.3546 88.18C40.622 88.3859 40.6833 88.7588 40.4939 89.0148V89.0092Z" fill="#FFE800"/>
<path d="M40.2207 88.2793C40.2207 88.2793 40.4157 88.7412 40.2374 89.0195C40.2374 89.0195 40.7445 88.5854 40.2207 88.2793Z" fill="white"/>
<path d="M42.3103 90.4048C42.1153 90.6552 41.7419 90.6942 41.4689 90.4827C41.2015 90.2768 41.1402 89.9039 41.3296 89.6534C41.5246 89.403 41.898 89.364 42.171 89.57C42.4385 89.7759 42.4997 90.1488 42.3103 90.3992V90.4048Z" fill="#FFE800"/>
<path d="M42.0371 89.6758C42.0371 89.6758 42.2321 90.1377 42.0538 90.416C42.0538 90.416 42.5665 89.9763 42.0371 89.6758Z" fill="white"/>
<path d="M44.1267 91.8022C43.9317 92.0527 43.5584 92.0916 43.2853 91.8801C43.0179 91.6742 42.9566 91.3013 43.146 91.0509C43.341 90.8004 43.7144 90.7615 43.9874 90.973C44.2604 91.1789 44.3162 91.5518 44.1267 91.8022Z" fill="#FFE800"/>
<path d="M43.8594 91.0742C43.8594 91.0742 44.0544 91.5362 43.8761 91.8144C43.8761 91.8144 44.3831 91.3748 43.8594 91.0742Z" fill="white"/>
<path d="M45.949 93.2C45.7539 93.4505 45.3806 93.4894 45.1076 93.2779C44.8401 93.072 44.7732 92.6991 44.9683 92.4431C45.1633 92.1927 45.5366 92.1593 45.8096 92.3652C46.0771 92.5767 46.1384 92.944 45.949 93.2Z" fill="#FFE800"/>
<path d="M45.6758 92.4766C45.6758 92.4766 45.8708 92.9385 45.6925 93.2168C45.6925 93.2168 46.2051 92.7771 45.6758 92.4766Z" fill="white"/>
<path d="M73.5696 24.2085C73.3745 24.4589 73.0012 24.4979 72.7282 24.2864C72.4607 24.0805 72.3939 23.7076 72.5889 23.4571C72.7839 23.2067 73.1572 23.1677 73.4303 23.3792C73.6977 23.5851 73.7646 23.958 73.5696 24.2085Z" fill="#FFE800"/>
<path d="M73.2969 23.4805C73.2969 23.4805 73.4919 23.9424 73.3136 24.2207C73.3136 24.2207 73.8206 23.7866 73.2969 23.4805Z" fill="white"/>
<path d="M75.3861 25.6069C75.1911 25.8574 74.8177 25.8963 74.5447 25.6848C74.2717 25.4789 74.216 25.106 74.4054 24.8556C74.6004 24.6051 74.9738 24.5662 75.2468 24.7777C75.5142 24.9836 75.5811 25.3565 75.3861 25.6069Z" fill="#FFE800"/>
<path d="M75.1133 24.877C75.1133 24.877 75.3083 25.3389 75.13 25.6172C75.13 25.6172 75.6426 25.1831 75.1133 24.877Z" fill="white"/>
<path d="M77.2024 27.0034C77.0074 27.2538 76.634 27.2928 76.361 27.0813C76.0935 26.8754 76.0267 26.5025 76.2217 26.2521C76.4167 26.0016 76.79 25.9627 77.0631 26.1741C77.3305 26.3801 77.3974 26.7529 77.2024 27.0034Z" fill="#FFE800"/>
<path d="M76.9351 26.2734C76.9351 26.2734 77.1301 26.7354 76.9518 27.0136C76.9518 27.0136 77.4644 26.574 76.9351 26.2734Z" fill="white"/>
<path d="M79.0193 28.3999C78.8242 28.6503 78.4509 28.6893 78.1779 28.4778C77.9104 28.2719 77.8436 27.899 78.0386 27.6485C78.2336 27.3981 78.6069 27.3591 78.88 27.5706C79.1474 27.7765 79.2143 28.1494 79.0193 28.3999Z" fill="#FFE800"/>
<path d="M78.752 27.6758C78.752 27.6758 78.947 28.1377 78.7687 28.416C78.7687 28.416 79.2757 27.9819 78.752 27.6758Z" fill="white"/>
<path d="M84.6135 32.7026C84.4185 32.9531 84.0452 32.992 83.7721 32.7805C83.5047 32.5746 83.4378 32.2017 83.6328 31.9513C83.8278 31.7008 84.2012 31.6619 84.4742 31.8734C84.7417 32.0793 84.803 32.4522 84.6135 32.7082V32.7026Z" fill="#FFE800"/>
<path d="M84.3462 31.9785C84.3462 31.9785 84.5412 32.4404 84.3629 32.7187C84.3629 32.7187 84.8755 32.2846 84.3462 31.9785Z" fill="white"/>
<path d="M86.4355 34.0991C86.2405 34.3495 85.8672 34.3829 85.5941 34.177C85.3267 33.9711 85.2654 33.5982 85.4604 33.3478C85.6554 33.0973 86.0288 33.0584 86.3018 33.2698C86.5692 33.4758 86.6305 33.8486 86.4411 34.1047L86.4355 34.0991Z" fill="#FFE800"/>
<path d="M86.1626 33.375C86.1626 33.375 86.3576 33.8369 86.1793 34.1152C86.1793 34.1152 86.6864 33.6755 86.1626 33.375Z" fill="white"/>
<path d="M81.0417 29.9526C80.8467 30.2031 80.4734 30.242 80.2003 30.0305C79.9329 29.8246 79.866 29.4517 80.061 29.2013C80.2561 28.9508 80.6294 28.9119 80.9024 29.1234C81.1755 29.3293 81.2367 29.7022 81.0417 29.9582V29.9526Z" fill="#FFE800"/>
<path d="M80.7686 29.2246C80.7686 29.2246 80.9636 29.6865 80.7853 29.9648C80.7853 29.9648 81.2979 29.5251 80.7686 29.2246Z" fill="white"/>
<path d="M82.8582 31.3491C82.6631 31.5995 82.2898 31.6385 82.0168 31.427C81.7493 31.2211 81.688 30.8482 81.8775 30.5978C82.0725 30.3473 82.4458 30.3084 82.7189 30.5198C82.9863 30.7258 83.0532 31.0986 82.8582 31.3491Z" fill="#FFE800"/>
<path d="M82.5854 30.627C82.5854 30.627 82.7805 31.0889 82.6022 31.3672C82.6022 31.3672 83.1092 30.9275 82.5854 30.627Z" fill="white"/>
<path d="M88.2522 35.5014C88.0572 35.7519 87.6838 35.7853 87.4108 35.5794C87.1434 35.3734 87.0821 35.0005 87.2715 34.7501C87.4665 34.4997 87.8399 34.4607 88.1129 34.6722C88.3803 34.8781 88.4416 35.251 88.2522 35.507V35.5014Z" fill="#FFE800"/>
<path d="M87.979 34.7734C87.979 34.7734 88.1796 35.2354 87.9957 35.5136C87.9957 35.5136 88.5084 35.074 87.979 34.7734Z" fill="white"/>
<path d="M90.0686 36.8999C89.8736 37.1503 89.5002 37.1893 89.2272 36.9778C88.9598 36.7719 88.8985 36.399 89.0879 36.1485C89.2829 35.8981 89.6563 35.8591 89.9293 36.0706C90.1968 36.2765 90.2581 36.6494 90.0686 36.8999Z" fill="#FFE800"/>
<path d="M89.8013 36.1699C89.8013 36.1699 89.9963 36.6319 89.818 36.9101C89.818 36.9101 90.325 36.4705 89.8013 36.1699Z" fill="white"/>
<path d="M61.651 77.338C61.1105 77.9613 60.1299 78.0003 59.4612 77.4215C58.7926 76.8427 58.6867 75.8631 59.2272 75.2398C59.7677 74.6165 60.7484 74.5775 61.417 75.1563C62.0856 75.7351 62.1915 76.7091 61.651 77.3324V77.338Z" fill="#FFE800"/>
<path d="M61.0547 75.4121C61.0547 75.4121 61.4949 76.6421 60.9878 77.3322C60.9878 77.3322 62.3752 76.2748 61.0547 75.4121Z" fill="white"/>
<path d="M64.5988 73.391C64.0583 74.0143 63.0776 74.0533 62.409 73.4745C61.7403 72.8957 61.6344 71.9217 62.1749 71.2984C62.7154 70.6751 63.6961 70.6361 64.3648 71.2149C65.0334 71.7937 65.1393 72.7732 64.5988 73.391Z" fill="#FFE800"/>
<path d="M64.0022 71.4648C64.0022 71.4648 64.448 72.6948 63.9409 73.3849C63.9409 73.3849 65.3284 72.3275 64.0022 71.4648Z" fill="white"/>
<path d="M67.8639 69.6231C67.3234 70.2465 66.3427 70.2854 65.6741 69.7066C65.0054 69.1278 64.8996 68.1539 65.4401 67.525C65.9806 66.9016 66.9612 66.8627 67.6299 67.4415C68.2985 68.0203 68.4044 68.9942 67.8639 69.6176V69.6231Z" fill="#FFE800"/>
<path d="M67.2678 67.6992C67.2678 67.6992 67.7136 68.9292 67.2065 69.6193C67.2065 69.6193 68.594 68.5619 67.2678 67.6992Z" fill="white"/>
<path d="M44.0547 103.618C44.0547 103.618 58.3693 96.6777 57.9514 83.9327C57.9514 83.9327 54.3073 83.66 47.3478 91.6799C47.3478 91.6799 48.5569 99.0263 44.0603 103.618H44.0547Z" fill="#FFB33D"/>
<path d="M44.6338 103.333C44.6338 103.333 58.9484 96.3933 58.5249 83.6484C58.5249 83.6484 54.4741 83.6039 47.509 91.6238C47.509 91.6238 49.1304 98.7364 44.6338 103.333Z" fill="#FFE800"/>
<path d="M57.1042 84.8066C57.1042 84.8066 58.3356 89.1199 48.9634 99.3826C48.9634 99.3826 59.7453 90.4778 57.1042 84.8066Z" fill="white"/>
<path d="M46.3557 104.135C45.8486 104.786 44.8735 104.881 44.1714 104.341C43.4694 103.801 43.3078 102.833 43.8148 102.182C44.3163 101.525 45.297 101.436 45.9991 101.976C46.7012 102.515 46.8627 103.484 46.3557 104.135Z" fill="#FFE800"/>
<path d="M45.6538 102.248C45.6538 102.248 46.1664 103.45 45.6984 104.174C45.6984 104.174 47.0245 103.038 45.6538 102.248Z" fill="white"/>
<g filter="url(#filter4_d_513_7302)">
<path d="M154.403 71.995C154.019 70.7451 153.394 69.5603 152.554 68.5122C150.543 66.0058 147.542 64.5736 144.332 64.5736C142.308 64.5736 140.342 65.1465 138.643 66.2402C138.558 66.2857 138.473 66.3313 138.395 66.3834C137.1 65.7714 135.759 65.2702 134.385 64.8861C134.593 63.2195 134.463 61.6116 133.968 60.1663C133.291 58.1808 131.944 56.6314 130.173 55.7981C129.21 55.3489 128.181 55.1211 127.1 55.1211C123.37 55.1211 119.529 57.8488 117.329 62.0803C116.964 62.7768 116.593 63.5385 116.268 64.3392C114.178 62.7248 111.633 61.7483 108.918 61.6116C108.592 61.592 108.267 61.5855 107.941 61.5855C100.605 61.5855 95.0386 65.7389 94.9866 71.2529C94.9475 75.6406 98.5345 79.4685 103.723 81.122C103.118 82.9253 102.707 84.8002 102.519 86.6881C102.336 87.8794 102.239 89.0642 102.232 90.249C101.737 90.0277 101.197 89.904 100.65 89.904C100.325 89.904 99.9862 89.9431 99.6607 90.0342C98.4955 90.3467 97.3953 90.913 96.4578 91.6747C95.7352 91.8244 95.0452 92.0914 94.4072 92.4559C93.6715 92.5015 92.9424 92.6577 92.2589 92.9311C88.6523 93.3087 85.7033 96.121 85.2346 99.7601C85.2151 99.8903 85.202 100.014 85.1955 100.151C83.5094 101.01 82.1293 102.416 81.3286 104.193C80.9185 105.092 80.313 106.433 80.3716 108.731C80.4432 111.602 82.2986 115.293 85.7098 116.784C86.823 117.272 87.9948 117.513 89.1992 117.513C91.38 117.513 93.4307 116.699 94.9931 115.306C96.3276 118.216 98.7624 120.566 101.822 121.783C102.493 122.05 103.176 122.259 103.886 122.415L103.918 122.806C102.89 124.231 102.382 125.995 102.538 127.779C102.883 131.633 106.073 134.537 109.966 134.537C110.187 134.537 110.409 134.523 110.63 134.51C110.943 134.484 111.242 134.439 111.541 134.374C112.564 134.777 113.657 134.992 114.764 134.992C115.024 134.992 115.285 134.979 115.539 134.96C117.602 134.777 119.536 133.866 120.981 132.395C121.027 132.349 121.066 132.31 121.105 132.265C121.111 132.258 121.131 132.238 121.144 132.225C121.228 132.134 121.339 132.017 121.456 131.867C121.547 131.757 121.638 131.646 121.73 131.529C121.749 131.503 121.762 131.483 121.782 131.457C121.814 131.412 121.84 131.379 121.866 131.34C122.68 130.188 123.194 128.853 123.37 127.46C123.735 127.519 124.112 127.551 124.49 127.551C124.679 127.551 124.874 127.545 125.063 127.525C126.124 127.974 127.263 128.209 128.435 128.209C128.682 128.209 128.93 128.196 129.177 128.176C133.916 127.773 137.445 123.587 137.041 118.841C137.035 118.737 137.022 118.646 137.009 118.554C137.009 118.47 137.002 118.366 136.989 118.262C136.872 116.927 136.449 115.684 135.791 114.59C139.059 113.516 142.36 111.699 145.654 109.148C152.235 106.928 157.222 101.446 158.804 94.6498C158.837 94.5521 158.869 94.4545 158.902 94.3568C159.299 94.1095 159.676 93.8425 160.034 93.5496C160.666 93.0418 161.252 92.4624 161.786 91.8114C166.076 87.5083 166.525 80.8551 162.808 76.2265C160.751 73.6681 157.71 72.1447 154.403 71.9885V71.995Z" fill="white"/>
</g>
<path fill-rule="evenodd" clip-rule="evenodd" d="M133.154 118.601C132.927 115.958 130.609 114.005 127.966 114.233C126.931 114.324 126.007 114.734 125.271 115.359L120.161 111.974C118.741 111.036 116.834 111.42 115.896 112.833L115.818 112.95C115.525 113.393 115.363 113.881 115.317 114.376C114.777 115.704 115.232 117.266 116.469 118.093L121.378 121.348C121.782 122.813 123.181 123.828 124.757 123.698C125.069 123.672 125.375 123.6 125.655 123.49C126.547 124.121 127.66 124.453 128.832 124.356C131.468 124.134 133.428 121.81 133.2 119.174C133.194 119.076 133.174 118.985 133.161 118.887C133.161 118.79 133.161 118.698 133.148 118.601H133.154Z" fill="#910E51"/>
<path fill-rule="evenodd" clip-rule="evenodd" d="M127.693 119.765C127.836 121.412 126.612 122.857 124.971 122.994C123.324 123.131 121.879 121.913 121.742 120.273C121.606 118.632 122.823 117.18 124.464 117.044C126.104 116.907 127.556 118.124 127.693 119.765Z" fill="#F69C00"/>
<path fill-rule="evenodd" clip-rule="evenodd" d="M125.212 116.198C126.456 117.024 126.794 118.697 125.967 119.941L125.896 120.045C125.069 121.288 123.396 121.627 122.159 120.8L117.661 117.819C116.417 116.992 116.079 115.319 116.905 114.075L116.977 113.971C117.797 112.728 119.477 112.389 120.714 113.216L125.212 116.204V116.198Z" fill="#F69C00"/>
<path fill-rule="evenodd" clip-rule="evenodd" d="M132.1 118.906C132.295 121.152 130.583 123.131 128.285 123.326C125.987 123.522 123.969 121.862 123.774 119.616C123.585 117.37 125.29 115.391 127.588 115.195C129.886 115 131.905 116.66 132.1 118.906Z" fill="#F69C00"/>
<path fill-rule="evenodd" clip-rule="evenodd" d="M114.94 113.523C113.052 117.95 107.811 120.053 103.241 118.223C98.6711 116.394 96.4968 111.329 98.3847 106.902C100.273 102.482 105.513 100.373 110.083 102.202C114.653 104.032 116.828 109.096 114.94 113.523Z" fill="#910E51"/>
<path fill-rule="evenodd" clip-rule="evenodd" d="M104.237 100.079L99.8495 96.1276C98.6387 95.034 96.7508 95.1251 95.6376 96.3294L95.5855 96.3815C95.4488 96.349 95.3186 96.3229 95.1754 96.3034C94.4658 96.2188 93.7757 96.388 93.2028 96.7266C91.1326 96.668 89.3098 98.1783 89.0429 100.248C89.0104 100.476 89.0104 100.698 89.0169 100.919C88.8867 103.184 90.5533 105.229 92.8383 105.548C94.9084 105.834 96.7898 104.597 97.3757 102.703L100.305 105.496C101.549 106.687 103.463 106.622 104.576 105.352L104.667 105.248C105.487 104.311 105.643 102.983 105.168 101.869C105.084 101.205 104.771 100.567 104.231 100.079H104.237Z" fill="#910E51"/>
<path fill-rule="evenodd" clip-rule="evenodd" d="M97.265 101.44C97.0371 103.308 95.3445 104.63 93.4762 104.402C91.6078 104.174 90.2863 102.475 90.5076 100.613C90.7354 98.7448 92.4346 97.4167 94.2964 97.6446C96.1583 97.8724 97.4863 99.5715 97.2585 101.433L97.265 101.44Z" fill="#F69C00"/>
<path fill-rule="evenodd" clip-rule="evenodd" d="M97.9352 100.202C97.7594 101.641 96.4509 102.663 95.0122 102.487C93.5735 102.312 92.5514 101.003 92.7272 99.5644C92.903 98.1257 94.2115 97.1037 95.6502 97.2794C97.0889 97.4552 98.1175 98.7637 97.9417 100.202H97.9352Z" fill="#F69C00"/>
<path fill-rule="evenodd" clip-rule="evenodd" d="M103.365 100.712C104.432 101.689 104.55 103.297 103.625 104.306L103.547 104.39C102.623 105.399 101.008 105.425 99.9405 104.449L96.0085 100.855C94.9409 99.8789 94.7651 98.2188 95.683 97.2033L95.7611 97.1187C96.679 96.1031 98.3651 96.1356 99.4328 97.1187L103.358 100.712H103.365Z" fill="#F69C00"/>
<path fill-rule="evenodd" clip-rule="evenodd" d="M101.926 102.17C99.9337 101.565 98.508 99.6767 98.5861 97.4958C98.6382 95.9269 99.4519 94.5664 100.65 93.7461C98.6903 94.2669 97.219 96.0181 97.1474 98.1534C97.0628 100.601 98.8595 102.671 101.236 102.99C101.366 102.678 101.607 102.391 101.926 102.17Z" fill="#910E51"/>
<path fill-rule="evenodd" clip-rule="evenodd" d="M121.853 107.67C123.787 111.492 121.267 116.524 116.228 118.913C111.19 121.296 105.539 120.13 103.606 116.309C101.672 112.488 104.191 107.455 109.23 105.066C114.269 102.684 119.92 103.849 121.853 107.67Z" fill="#910E51"/>
<path fill-rule="evenodd" clip-rule="evenodd" d="M114.64 112.279C112.785 116.771 107.635 118.906 103.144 117.051C98.6517 115.196 96.5164 110.046 98.3717 105.561C100.227 101.069 105.376 98.9272 109.868 100.789C114.36 102.644 116.496 107.794 114.64 112.286V112.279Z" fill="#910E51"/>
<path fill-rule="evenodd" clip-rule="evenodd" d="M121.065 106.811C122.856 110.47 120.525 115.287 115.857 117.572C111.19 119.857 105.956 118.738 104.166 115.079C102.375 111.42 104.706 106.603 109.374 104.318C114.041 102.033 119.275 103.153 121.065 106.811Z" fill="#F69C00"/>
<path fill-rule="evenodd" clip-rule="evenodd" d="M114.53 112.494C112.798 116.68 108.007 118.672 103.814 116.941C99.6282 115.209 97.6361 110.411 99.3613 106.225C101.093 102.039 105.891 100.047 110.077 101.779C114.263 103.511 116.255 108.302 114.53 112.494Z" fill="#F69C00"/>
<path fill-rule="evenodd" clip-rule="evenodd" d="M104.589 108.289C104.419 106.864 103.28 105.431 101.542 104.683C100.455 104.214 99.3285 104.097 98.3325 104.279L95.39 103.198C95.0645 102.652 94.5632 102.196 93.9252 101.916C92.4605 101.285 90.7744 101.818 89.9476 103.101C87.8579 102.749 85.7031 103.797 84.8112 105.77C84.4727 106.506 84.1602 107.196 84.1928 108.628C84.2253 109.917 85.1497 112.358 87.2329 113.269C89.6807 114.337 92.5321 113.243 93.6127 110.822C93.6843 110.659 93.7494 110.49 93.8015 110.32L97.0695 111.544C97.5448 112 98.1242 112.391 98.7882 112.684C101.223 113.751 103.892 113.074 104.738 111.173C105.148 110.262 105.051 109.227 104.582 108.289H104.589Z" fill="#910E51"/>
<path fill-rule="evenodd" clip-rule="evenodd" d="M95.7414 106.407C95.1165 107.832 93.502 108.496 92.1349 107.891C90.7678 107.292 90.1689 105.645 90.8003 104.226C91.4318 102.8 93.0463 102.136 94.4069 102.742C95.774 103.347 96.3664 104.988 95.7414 106.407Z" fill="#F69C00"/>
<path fill-rule="evenodd" clip-rule="evenodd" d="M93.8082 110.001C92.7926 112.305 90.1756 113.38 87.9687 112.403C85.7618 111.427 84.7918 108.771 85.8074 106.466C86.823 104.161 89.44 103.087 91.6469 104.064C93.8538 105.04 94.8237 107.696 93.8082 110.001Z" fill="#F69C00"/>
<path fill-rule="evenodd" clip-rule="evenodd" d="M105.832 107.638C106.093 109.871 104.166 111.935 101.529 112.241C98.8925 112.553 96.5359 110.991 96.2755 108.758C96.0151 106.525 97.9421 104.462 100.579 104.156C103.215 103.85 105.572 105.406 105.832 107.638Z" fill="#F69C00"/>
<path fill-rule="evenodd" clip-rule="evenodd" d="M100.878 105.796C102.284 106.349 102.981 107.937 102.427 109.35L102.382 109.467C101.828 110.88 100.24 111.57 98.8272 111.017L93.7168 109.011C92.3041 108.458 91.6141 106.87 92.1674 105.457L92.213 105.34C92.7664 103.927 94.3548 103.237 95.7675 103.79L100.878 105.796Z" fill="#F69C00"/>
<path fill-rule="evenodd" clip-rule="evenodd" d="M118.67 129.199C118.67 129.199 118.702 129.153 118.722 129.127C119.347 128.248 119.679 127.142 119.574 125.963C119.353 123.45 117.25 121.589 114.855 121.751L114.542 118.223C114.392 116.53 112.902 115.28 111.209 115.43L111.066 115.443C110.949 115.456 110.831 115.476 110.714 115.502C110.597 115.502 110.473 115.502 110.356 115.508L110.213 115.521C108.52 115.671 107.271 117.168 107.42 118.854L107.895 124.206C106.873 124.922 106.248 126.133 106.366 127.448C106.541 129.414 108.299 130.865 110.298 130.69C110.871 130.637 111.391 130.455 111.854 130.182C112.765 130.878 113.95 131.249 115.206 131.139C116.417 131.035 117.478 130.494 118.253 129.7C118.285 129.667 118.311 129.635 118.344 129.602C118.396 129.55 118.448 129.492 118.494 129.433C118.559 129.355 118.617 129.283 118.676 129.199H118.67Z" fill="#910E51"/>
<path fill-rule="evenodd" clip-rule="evenodd" d="M113.104 126.471C113.24 128.013 112.101 129.381 110.558 129.517C109.015 129.654 107.648 128.515 107.512 126.972C107.375 125.429 108.514 124.062 110.057 123.925C111.6 123.788 112.967 124.928 113.104 126.471Z" fill="#F69C00"/>
<path fill-rule="evenodd" clip-rule="evenodd" d="M114.314 122.422C114.451 123.932 113.331 125.266 111.821 125.397L111.697 125.41C110.187 125.546 108.852 124.427 108.722 122.916L108.234 117.474C108.097 115.964 109.217 114.636 110.727 114.499L110.851 114.486C112.361 114.349 113.689 115.469 113.826 116.979L114.308 122.422H114.314Z" fill="#F69C00"/>
<path fill-rule="evenodd" clip-rule="evenodd" d="M118.305 125.754C118.494 127.857 116.938 129.712 114.835 129.901C112.733 130.09 110.877 128.534 110.688 126.431C110.5 124.328 112.055 122.473 114.158 122.284C116.261 122.102 118.116 123.651 118.305 125.754Z" fill="#F69C00"/>
<path fill-rule="evenodd" clip-rule="evenodd" d="M116.697 108.536C112.635 106.446 110.701 101.889 111.847 97.7617C111.469 98.2304 111.131 98.7447 110.844 99.2981C108.52 103.803 110.395 109.389 115.024 111.778C119.653 114.16 125.29 112.448 127.608 107.943C127.894 107.39 128.116 106.817 128.278 106.238C125.583 109.571 120.753 110.632 116.697 108.542V108.536Z" fill="#910E51"/>
<path fill-rule="evenodd" clip-rule="evenodd" d="M117.309 109.335C113.65 107.454 111.261 104.14 110.584 100.586C109.432 104.713 111.365 109.27 115.428 111.366C118.754 113.079 122.602 112.675 125.362 110.644C122.758 111.08 119.926 110.683 117.309 109.335Z" fill="#008A00"/>
<path fill-rule="evenodd" clip-rule="evenodd" d="M118.227 116.081C119.119 116.211 119.978 115.417 120.141 114.297C120.31 113.177 119.718 112.162 118.826 112.032C117.934 111.901 117.075 112.696 116.912 113.815C116.749 114.935 117.335 115.944 118.227 116.081Z" fill="#990000"/>
<path fill-rule="evenodd" clip-rule="evenodd" d="M118.52 112.525C118.806 112.564 119.08 112.311 119.132 111.953C119.184 111.594 118.995 111.275 118.715 111.23C118.429 111.184 118.155 111.438 118.103 111.796C118.051 112.154 118.24 112.473 118.52 112.519V112.525Z" fill="#990000"/>
<path fill-rule="evenodd" clip-rule="evenodd" d="M118.709 111.256C118.462 111.217 118.227 111.445 118.175 111.765C118.13 112.077 118.292 112.364 118.533 112.403C118.781 112.442 119.016 112.214 119.061 111.901C119.107 111.589 118.944 111.302 118.703 111.263L118.709 111.256ZM118.84 111.862C118.82 112.012 118.703 112.123 118.586 112.103C118.468 112.084 118.39 111.947 118.41 111.797C118.436 111.647 118.547 111.536 118.664 111.556C118.781 111.576 118.859 111.712 118.833 111.862H118.84Z" fill="#FFD200"/>
<path fill-rule="evenodd" clip-rule="evenodd" d="M118.285 115.69C119.06 115.807 119.802 115.098 119.952 114.115C120.095 113.125 119.587 112.233 118.819 112.116C118.045 111.999 117.302 112.709 117.153 113.698C117.003 114.688 117.511 115.579 118.285 115.69Z" fill="#FFD200"/>
<path fill-rule="evenodd" clip-rule="evenodd" d="M129.431 67.9326C127.523 71.5912 123.168 72.3854 120.766 71.2592C118.364 70.133 118.826 67.5094 120.733 63.8508C122.641 60.1922 126.137 58.1416 128.539 59.2678C130.941 60.394 131.345 64.274 129.437 67.9326H129.431Z" fill="#910E51"/>
<path d="M154.247 81.5327C152.366 79.3323 150.224 78.6227 146.292 79.3258C141.318 71.0255 131.136 66.8461 121.411 69.8277C109.972 73.3366 103.534 85.3801 107.01 96.727C109.855 105.997 118.442 111.934 127.725 111.889C132.823 112.208 138.48 110.248 144.794 104.917C147.086 102.983 150.393 101.421 152.007 99.3049C156.851 92.9772 157.287 85.0936 154.253 81.5327H154.247Z" fill="#910E51"/>
<path d="M128.389 110.97C127.667 110.97 126.97 110.911 126.326 110.794C117.361 110.28 109.536 104.134 106.893 95.5151C105.194 89.9816 105.754 84.1161 108.469 78.9993C111.183 73.8824 115.727 70.1326 121.261 68.4335C123.331 67.7956 125.473 67.4766 127.615 67.4766C135.173 67.4766 142.262 71.4867 146.162 77.9511C147.027 77.8144 147.874 77.7428 148.661 77.7428C151.474 77.7428 153.7 78.6152 155.106 80.2687C159.214 85.1121 155.119 95.3719 145.973 103.132C140.198 108.034 133.623 110.957 128.383 110.957L128.389 110.97Z" fill="#910E51"/>
<path d="M127.614 67.7838C135.12 67.7838 142.164 71.7744 146.012 78.2909C146.936 78.1347 147.821 78.0566 148.668 78.0566C151.304 78.0566 153.492 78.8378 154.885 80.4783C158.895 85.2046 154.82 95.256 145.784 102.925C139.892 107.924 133.343 110.678 128.389 110.678C127.686 110.678 127.009 110.62 126.378 110.509C117.713 110.008 109.868 104.22 107.173 95.4318C103.71 84.1434 110.057 72.1911 121.345 68.7278C123.428 68.0898 125.538 67.7838 127.614 67.7838ZM127.614 67.1914C125.44 67.1914 123.272 67.5169 121.176 68.1614C109.595 71.7159 103.059 84.0263 106.613 95.6075C109.289 104.337 117.205 110.554 126.312 111.101C126.963 111.212 127.666 111.271 128.389 111.271C133.695 111.271 140.341 108.322 146.168 103.374C150.608 99.6047 154.019 95.1453 155.777 90.8162C157.58 86.3633 157.424 82.555 155.334 80.0877C153.869 78.3691 151.565 77.4577 148.661 77.4577C147.913 77.4577 147.125 77.5163 146.311 77.6399C142.34 71.182 135.212 67.1914 127.614 67.1914Z" fill="#910E51"/>
<path d="M152.229 81.0764C150.412 78.9346 149.931 77.906 146.155 78.5505C141.305 70.3284 131.286 66.175 121.755 69.098C110.584 72.5223 104.309 84.3509 107.733 95.5091C110.395 104.2 118.155 109.922 126.729 110.417C131.761 111.315 138.792 108.731 145.452 103.08C147.561 101.296 150.712 100.313 152.229 98.3669C157.163 92.0392 155.256 84.6569 152.229 81.0829V81.0764Z" fill="#F69C00"/>
<path fill-rule="evenodd" clip-rule="evenodd" d="M135.309 96.2657C137.034 98.8957 135.101 103.205 130.993 105.9C126.885 108.596 122.159 108.648 120.434 106.018C118.709 103.388 120.642 99.0715 124.744 96.3763C128.851 93.6812 133.578 93.6291 135.303 96.2592L135.309 96.2657Z" fill="#FF0000"/>
<path fill-rule="evenodd" clip-rule="evenodd" d="M128.532 100.443C124.985 100.548 122.146 102.598 122.101 105.163C122.101 105.248 122.107 105.332 122.114 105.417C122.66 103.099 125.167 101.218 128.532 100.45V100.443Z" fill="#9A1B1F"/>
<path fill-rule="evenodd" clip-rule="evenodd" d="M154.709 91.142C154.579 99.2534 147.418 105.711 138.721 105.568C130.023 105.425 123.077 98.7392 123.214 90.6277C123.344 82.5163 130.505 76.0583 139.202 76.2016C147.9 76.3448 154.846 83.0305 154.709 91.142Z" fill="#F69C00"/>
<path fill-rule="evenodd" clip-rule="evenodd" d="M120.108 86.6289C117.179 82.9768 117.765 77.6386 121.41 74.7091C125.063 71.7796 130.401 72.3655 133.33 76.0111C136.26 79.6567 135.68 84.9949 132.028 87.9309C128.376 90.8604 123.044 90.281 120.108 86.6289Z" fill="#910E51"/>
<path fill-rule="evenodd" clip-rule="evenodd" d="M138.473 79.8472C136.116 76.9047 136.579 72.6081 139.521 70.2449C142.464 67.8883 146.754 68.357 149.117 71.2996C151.48 74.2356 151.005 78.5322 148.069 80.8953C145.126 83.2519 140.83 82.7832 138.473 79.8472Z" fill="#910E51"/>
<path fill-rule="evenodd" clip-rule="evenodd" d="M120.779 86.1211C117.849 82.469 118.435 77.1308 122.081 74.2013C125.733 71.2719 131.065 71.8512 133.994 75.5033C136.924 79.1489 136.344 84.4936 132.692 87.4231C129.047 90.3526 123.708 89.7733 120.772 86.1211H120.779Z" fill="white"/>
<path d="M127.159 81.2594C125.83 79.6058 126.097 77.1841 127.751 75.8626C128.122 75.5631 128.532 75.3418 128.962 75.2051C128.558 75.8235 128.571 76.6568 129.066 77.2687C129.678 78.0239 130.785 78.1476 131.54 77.5357C132.152 77.0474 132.353 76.2271 132.08 75.5306C132.477 75.7584 132.842 76.0709 133.148 76.455C134.476 78.1085 134.215 80.5237 132.562 81.8518C130.908 83.1798 128.493 82.9129 127.165 81.2659L127.159 81.2594Z" fill="#0079FF"/>
<path fill-rule="evenodd" clip-rule="evenodd" d="M139.098 79.3128C136.774 76.4224 137.236 72.2039 140.127 69.8863C143.011 67.5688 147.236 68.031 149.553 70.9149C151.871 73.7989 151.409 78.0238 148.525 80.3414C145.634 82.659 141.416 82.1967 139.098 79.3128Z" fill="white"/>
<path d="M144.625 75.3871C143.57 74.0785 143.785 72.1646 145.087 71.1165C145.387 70.8756 145.706 70.7064 146.051 70.5957C145.732 71.0905 145.745 71.748 146.129 72.2297C146.61 72.8286 147.483 72.9263 148.088 72.4445C148.57 72.0539 148.733 71.4095 148.518 70.8561C148.837 71.0384 149.123 71.2858 149.364 71.5852C150.412 72.8937 150.204 74.8012 148.895 75.8558C147.593 76.9039 145.68 76.6956 144.631 75.3871H144.625Z" fill="#0079FF"/>
<path fill-rule="evenodd" clip-rule="evenodd" d="M108.723 65.4463C114.158 65.7197 117.511 70.5046 117.479 74.0069C117.446 77.5093 114.048 78.4012 108.612 78.1213C103.176 77.8478 98.7949 74.7816 98.8209 71.2858C98.8535 67.7834 103.287 65.1664 108.723 65.4463Z" fill="#910E51"/>
<path d="M120.896 98.4254C120.74 95.6652 122.699 93.4843 125.271 93.5559C125.459 93.5559 125.642 93.5755 125.817 93.6015C125.342 93.3476 124.828 93.1979 124.288 93.1849C122.204 93.1263 120.629 95.1118 120.772 97.6117C120.792 97.9176 120.831 98.2106 120.896 98.5035C120.896 98.4775 120.896 98.4514 120.889 98.4254H120.896Z" fill="#910E51"/>
<path fill-rule="evenodd" clip-rule="evenodd" d="M146.467 89.5797C143.785 86.2401 144.436 81.2664 147.913 78.4736C151.395 75.6809 156.389 76.117 159.071 79.4567C161.753 82.7963 161.102 87.7699 157.619 90.5627C154.136 93.3555 149.136 92.9193 146.461 89.5797H146.467Z" fill="#910E51"/>
<path d="M123.637 94.6758C123.552 94.3893 123.481 94.0964 123.409 93.81C126.248 101.895 134.951 106.433 143.278 104.005C151.597 101.576 156.499 93.0743 154.546 84.7285C154.644 85.0084 154.735 85.2949 154.82 85.5813C157.333 94.194 152.385 103.21 143.779 105.723C135.166 108.236 126.15 103.289 123.631 94.6758H123.637Z" fill="#910E51"/>
<path fill-rule="evenodd" clip-rule="evenodd" d="M147.21 88.7594C144.527 85.4263 145.172 80.4461 148.655 77.6533C152.138 74.8605 157.131 75.2967 159.813 78.6363C162.495 81.976 161.844 86.9496 158.361 89.7424C154.878 92.5352 149.885 92.099 147.203 88.7594H147.21Z" fill="#FF0000"/>
<path fill-rule="evenodd" clip-rule="evenodd" d="M149.189 80.7646C152.177 78.3624 156.473 78.74 158.778 81.6109C159.064 81.9689 159.305 82.3465 159.5 82.7371C159.455 81.5848 159.058 80.4521 158.296 79.5016C156.33 77.0474 152.652 76.7219 150.093 78.779C149.032 79.6318 148.323 80.7646 148.01 81.9689C148.349 81.5328 148.739 81.1291 149.189 80.7646Z" fill="white"/>
<defs>
<filter id="filter0_d_513_7302" x="144.621" y="2.78906" width="84.686" height="84.6797" filterUnits="userSpaceOnUse" color-interpolation-filters="sRGB">
<feFlood flood-opacity="0" result="BackgroundImageFix"/>
<feColorMatrix in="SourceAlpha" type="matrix" values="0 0 0 0 0 0 0 0 0 0 0 0 0 0 0 0 0 0 127 0" result="hardAlpha"/>
<feOffset dy="2"/>
<feGaussianBlur stdDeviation="3"/>
<feComposite in2="hardAlpha" operator="out"/>
<feColorMatrix type="matrix" values="0 0 0 0 0 0 0 0 0 0 0 0 0 0 0 0 0 0 0.25 0"/>
<feBlend mode="normal" in2="BackgroundImageFix" result="effect1_dropShadow_513_7302"/>
<feBlend mode="normal" in="SourceGraphic" in2="effect1_dropShadow_513_7302" result="shape"/>
</filter>
<filter id="filter1_d_513_7302" x="217.479" y="34.5391" width="78.937" height="107.998" filterUnits="userSpaceOnUse" color-interpolation-filters="sRGB">
<feFlood flood-opacity="0" result="BackgroundImageFix"/>
<feColorMatrix in="SourceAlpha" type="matrix" values="0 0 0 0 0 0 0 0 0 0 0 0 0 0 0 0 0 0 127 0" result="hardAlpha"/>
<feOffset dy="2"/>
<feGaussianBlur stdDeviation="3"/>
<feComposite in2="hardAlpha" operator="out"/>
<feColorMatrix type="matrix" values="0 0 0 0 0 0 0 0 0 0 0 0 0 0 0 0 0 0 0.25 0"/>
<feBlend mode="normal" in2="BackgroundImageFix" result="effect1_dropShadow_513_7302"/>
<feBlend mode="normal" in="SourceGraphic" in2="effect1_dropShadow_513_7302" result="shape"/>
</filter>
<filter id="filter2_d_513_7302" x="273.083" y="1.1582" width="87.6162" height="101.752" filterUnits="userSpaceOnUse" color-interpolation-filters="sRGB">
<feFlood flood-opacity="0" result="BackgroundImageFix"/>
<feColorMatrix in="SourceAlpha" type="matrix" values="0 0 0 0 0 0 0 0 0 0 0 0 0 0 0 0 0 0 127 0" result="hardAlpha"/>
<feOffset dy="2"/>
<feGaussianBlur stdDeviation="3"/>
<feComposite in2="hardAlpha" operator="out"/>
<feColorMatrix type="matrix" values="0 0 0 0 0 0 0 0 0 0 0 0 0 0 0 0 0 0 0.25 0"/>
<feBlend mode="normal" in2="BackgroundImageFix" result="effect1_dropShadow_513_7302"/>
<feBlend mode="normal" in="SourceGraphic" in2="effect1_dropShadow_513_7302" result="shape"/>
</filter>
<filter id="filter3_d_513_7302" x="0.276855" y="8.46094" width="101.998" height="114.994" filterUnits="userSpaceOnUse" color-interpolation-filters="sRGB">
<feFlood flood-opacity="0" result="BackgroundImageFix"/>
<feColorMatrix in="SourceAlpha" type="matrix" values="0 0 0 0 0 0 0 0 0 0 0 0 0 0 0 0 0 0 127 0" result="hardAlpha"/>
<feOffset dy="2"/>
<feGaussianBlur stdDeviation="3"/>
<feComposite in2="hardAlpha" operator="out"/>
<feColorMatrix type="matrix" values="0 0 0 0 0 0 0 0 0 0 0 0 0 0 0 0 0 0 0.25 0"/>
<feBlend mode="normal" in2="BackgroundImageFix" result="effect1_dropShadow_513_7302"/>
<feBlend mode="normal" in="SourceGraphic" in2="effect1_dropShadow_513_7302" result="shape"/>
</filter>
<filter id="filter4_d_513_7302" x="74.3677" y="51.1211" width="96.957" height="91.8711" filterUnits="userSpaceOnUse" color-interpolation-filters="sRGB">
<feFlood flood-opacity="0" result="BackgroundImageFix"/>
<feColorMatrix in="SourceAlpha" type="matrix" values="0 0 0 0 0 0 0 0 0 0 0 0 0 0 0 0 0 0 127 0" result="hardAlpha"/>
<feOffset dy="2"/>
<feGaussianBlur stdDeviation="3"/>
<feComposite in2="hardAlpha" operator="out"/>
<feColorMatrix type="matrix" values="0 0 0 0 0 0 0 0 0 0 0 0 0 0 0 0 0 0 0.25 0"/>
<feBlend mode="normal" in2="BackgroundImageFix" result="effect1_dropShadow_513_7302"/>
<feBlend mode="normal" in="SourceGraphic" in2="effect1_dropShadow_513_7302" result="shape"/>
</filter>
</defs>
</svg>
