<svg width="41" height="41" viewBox="0 0 41 41" fill="none" xmlns="http://www.w3.org/2000/svg">
<g clip-path="url(#clip0_140_7300)">
<path d="M20.5 40.8457C31.5457 40.8457 40.5 31.8914 40.5 20.8457C40.5 9.80001 31.5457 0.845703 20.5 0.845703C9.45431 0.845703 0.5 9.80001 0.5 20.8457C0.5 31.8914 9.45431 40.8457 20.5 40.8457Z" fill="#12208C"/>
<path d="M31.7238 16.6931H19.433L22.5083 13.6177C23.9379 12.1882 23.9379 9.866 22.5083 8.43643C21.0788 7.00687 18.7566 7.00687 17.327 8.43643L7.99649 17.767C6.56692 19.1965 6.56692 21.5187 7.99649 22.9483L17.3305 32.2823C18.0453 32.9971 18.9832 33.3562 19.9212 33.3562C20.8591 33.3562 21.797 32.9971 22.5118 32.2823C23.9414 30.8528 23.9414 28.5306 22.5118 27.101L19.433 24.0222H31.7238C33.7461 24.0222 35.3884 22.3799 35.3884 20.3576C35.3884 18.3353 33.7461 16.6931 31.7238 16.6931Z" fill="#2B3FDA"/>
</g>
<defs>
<clipPath id="clip0_140_7300">
<rect width="40" height="40" fill="white" transform="translate(0.5 0.845703)"/>
</clipPath>
</defs>
</svg>
