<svg width="119" height="119" viewBox="0 0 119 119" fill="none" xmlns="http://www.w3.org/2000/svg">
<g filter="url(#filter0_d_513_7629)">
<circle cx="59.428" cy="55.7917" r="54.905" fill="white"/>
</g>
<circle cx="59.4281" cy="55.7909" r="49.0292" fill="#FFD000"/>
<g clip-path="url(#clip0_513_7629)">
<path d="M62.9535 30.8079C57.3735 40.7879 56.9735 51.1879 62.0735 54.0379C67.1635 56.8979 75.8235 51.1179 81.4035 41.1379C86.9835 31.1579 87.3835 20.7579 82.2835 17.8979C77.1935 15.0479 68.5335 20.8179 62.9535 30.7979V30.8079Z" fill="#D703EA"/>
<path d="M63.5936 36.8177C58.0736 46.6877 56.4536 56.3777 60.1036 58.4177C63.7536 60.4677 71.1836 54.1177 76.7036 44.2477C82.2236 34.3777 83.7336 24.7077 80.0836 22.6677C76.4336 20.6277 69.1136 26.9477 63.5936 36.8177Z" fill="#E774E9"/>
<path d="M35.8439 41.2277C41.1839 51.4277 49.7939 57.4377 55.0839 54.6577C60.3639 51.8677 60.3139 41.3377 54.9739 31.1377C49.6239 20.9377 41.0139 14.9177 35.7339 17.7077C30.4539 20.4877 30.5039 31.0177 35.8439 41.2277Z" fill="#D703EA"/>
<path d="M39.3535 40.5877C44.0335 48.1877 56.3435 56.7577 58.4235 55.9777C62.6235 54.4077 58.2035 41.5777 53.5235 33.9777C48.8435 26.3877 42.4235 21.7977 38.3235 23.5877C34.2135 25.3777 34.6835 32.9877 39.3535 40.5877Z" fill="#E774E9"/>
<path d="M82.1336 68.6376C81.0136 55.4976 69.4236 45.7476 56.2436 46.8576C43.0636 47.9776 33.2936 59.5376 34.4136 72.6876C35.5336 85.8276 47.1236 95.5776 60.3036 94.4676C73.4836 93.3476 83.2536 81.7876 82.1336 68.6376Z" fill="#D703EA"/>
<path d="M56.8936 74.3565C62.1636 75.9565 67.6136 74.5865 71.4936 71.2265C71.4436 72.3365 71.2736 73.4665 70.9336 74.5765C68.7636 81.6965 61.2236 85.7165 54.0836 83.5565C46.9436 81.3965 42.9236 73.8765 45.0936 66.7465C45.4336 65.6265 45.9136 64.5965 46.5036 63.6465C47.8536 68.5865 51.6236 72.7465 56.8936 74.3365V74.3565Z" fill="#EAEAEA"/>
<path d="M52.2337 42.1773C52.2337 41.636 51.7972 41.1973 51.2587 41.1973C50.7202 41.1973 50.2837 41.636 50.2837 42.1773V47.7773C50.2837 48.3185 50.7202 48.7573 51.2587 48.7573C51.7972 48.7573 52.2337 48.3185 52.2337 47.7773V42.1773Z" fill="#900E51"/>
<path d="M47.7522 42.7972C47.5106 42.3129 46.9241 42.1152 46.4422 42.3557C45.9604 42.5961 45.7657 43.1836 46.0074 43.6679L48.5079 48.6787C48.7495 49.1629 49.336 49.3606 49.8179 49.1202C50.2997 48.8798 50.4943 48.2923 50.2527 47.808L47.7522 42.7972Z" fill="#900E51"/>
<path d="M43.9379 45.3807C43.5055 45.0553 42.8924 45.1403 42.5686 45.5705C42.2449 46.0008 42.333 46.6134 42.7655 46.9388L47.2402 50.3059C47.6727 50.6313 48.2857 50.5463 48.6095 50.116C48.9333 49.6858 48.8451 49.0731 48.4127 48.7477L43.9379 45.3807Z" fill="#900E51"/>
<path d="M41.8838 49.507C41.3426 49.507 40.9038 49.9436 40.9038 50.482C40.9038 51.0205 41.3426 51.457 41.8838 51.457H47.4838C48.025 51.457 48.4638 51.0205 48.4638 50.482C48.4638 49.9436 48.025 49.507 47.4838 49.507H41.8838Z" fill="#900E51"/>
<path d="M52.2339 51.4476V44.0776C48.6639 43.7176 45.1239 45.6676 43.6339 49.1276C43.3039 49.8876 43.1039 50.6676 43.0039 51.4476H52.2339Z" fill="#900E51"/>
<path d="M68.1638 46.5669C68.1638 47.1081 68.6003 47.5469 69.1388 47.5469C69.6772 47.5469 70.1138 47.1081 70.1138 46.5669V40.9669C70.1138 40.4256 69.6772 39.9869 69.1388 39.9869C68.6003 39.9869 68.1638 40.4256 68.1638 40.9669V46.5669Z" fill="#900E51"/>
<path d="M70.142 46.5981C69.9003 47.0824 70.095 47.6699 70.5768 47.9104C71.0586 48.1508 71.6451 47.9531 71.8868 47.4688L74.3873 42.4581C74.6289 41.9738 74.4342 41.3863 73.9524 41.1458C73.4706 40.9054 72.8841 41.1031 72.6424 41.5874L70.142 46.5981Z" fill="#900E51"/>
<path d="M71.9793 47.544C71.5468 47.8694 71.4587 48.4821 71.7824 48.9123C72.1062 49.3426 72.7192 49.4276 73.1517 49.1022L77.6264 45.7351C78.0589 45.4097 78.147 44.7971 77.8233 44.3668C77.4995 43.9365 76.8865 43.8516 76.454 44.177L71.9793 47.544Z" fill="#900E51"/>
<path d="M72.9038 48.2883C72.3626 48.2883 71.9238 48.7248 71.9238 49.2633C71.9238 49.8018 72.3626 50.2383 72.9038 50.2383H78.5038C79.0451 50.2383 79.4838 49.8018 79.4838 49.2633C79.4838 48.7248 79.0451 48.2883 78.5038 48.2883H72.9038Z" fill="#900E51"/>
<path d="M68.1538 50.2464V42.8764C71.7238 42.5164 75.2638 44.4664 76.7538 47.9264C77.0838 48.6864 77.2838 49.4664 77.3838 50.2464H68.1538Z" fill="#900E51"/>
<path d="M58.5139 55.5765C60.2039 51.6565 58.3939 47.0965 54.4639 45.3965C50.5339 43.6965 45.9739 45.4965 44.2839 49.4165C42.5939 53.3365 44.4039 57.8965 48.3339 59.5965C52.2639 61.2965 56.8139 59.4965 58.5139 55.5765Z" fill="#EAEAEA"/>
<path d="M47.6436 51.3166C48.0936 48.8366 50.4736 47.1966 52.9636 47.6466C53.5236 47.7466 54.0436 47.9466 54.5036 48.2266C53.6336 48.3466 52.8936 49.0066 52.7236 49.9266C52.5136 51.0666 53.2736 52.1466 54.4136 52.3566C55.3336 52.5266 56.2236 52.0666 56.6436 51.2766C56.7436 51.8166 56.7536 52.3766 56.6436 52.9466C56.1936 55.4266 53.8136 57.0666 51.3336 56.6166C48.8536 56.1666 47.2036 53.7866 47.6536 51.3066L47.6436 51.3166Z" fill="#00C000"/>
<path d="M76.6936 51.027C76.4036 46.657 72.6136 43.337 68.2236 43.627C63.8336 43.917 60.6836 47.637 60.9736 52.007C61.2636 56.387 64.8936 59.767 69.2736 59.477C73.6536 59.187 76.9736 55.407 76.6836 51.027H76.6936Z" fill="#EAEAEA"/>
<path d="M63.1936 50.547C63.6436 48.067 66.0236 46.427 68.5136 46.877C69.0736 46.977 69.5936 47.177 70.0536 47.447C69.1736 47.567 68.4436 48.237 68.2736 49.147C68.0636 50.277 68.8236 51.367 69.9636 51.577C70.8836 51.747 71.7736 51.287 72.1936 50.497C72.3036 51.037 72.3036 51.607 72.1936 52.177C71.7436 54.657 69.3636 56.297 66.8736 55.847C64.3936 55.397 62.7436 53.027 63.1936 50.547Z" fill="#00C000"/>
<path d="M65.7636 59.1683C65.9936 56.5683 63.9736 54.2683 61.2536 54.0383C58.5336 53.8083 56.1536 55.7183 55.9236 58.3183C55.6936 60.9183 57.7136 63.2183 60.4336 63.4483C63.1536 63.6783 65.5336 61.7683 65.7636 59.1683Z" fill="#E774E9"/>
</g>
<defs>
<filter id="filter0_d_513_7629" x="0.522949" y="0.886719" width="117.81" height="117.811" filterUnits="userSpaceOnUse" color-interpolation-filters="sRGB">
<feFlood flood-opacity="0" result="BackgroundImageFix"/>
<feColorMatrix in="SourceAlpha" type="matrix" values="0 0 0 0 0 0 0 0 0 0 0 0 0 0 0 0 0 0 127 0" result="hardAlpha"/>
<feOffset dy="4"/>
<feGaussianBlur stdDeviation="2"/>
<feComposite in2="hardAlpha" operator="out"/>
<feColorMatrix type="matrix" values="0 0 0 0 0 0 0 0 0 0 0 0 0 0 0 0 0 0 0.25 0"/>
<feBlend mode="normal" in2="BackgroundImageFix" result="effect1_dropShadow_513_7629"/>
<feBlend mode="normal" in="SourceGraphic" in2="effect1_dropShadow_513_7629" result="shape"/>
</filter>
<clipPath id="clip0_513_7629">
<rect width="54.05" height="77.53" fill="white" transform="translate(31.8037 17.0273)"/>
</clipPath>
</defs>
</svg>
