<svg width="32" height="32" viewBox="0 0 32 32" fill="none" xmlns="http://www.w3.org/2000/svg">
<circle cx="16" cy="16" r="16" fill="#00A84E"/>
<path d="M16.0937 1.92433C15.9247 1.89189 15.7495 1.87867 15.5713 1.88694C14.6142 1.93194 13.7914 2.59051 13.5378 3.51561L11.6213 10.5139L4.3738 10.8538C3.41638 10.9006 2.59384 11.5573 2.34027 12.4824C2.08645 13.4093 2.45837 14.3915 3.26154 14.9203L9.32466 18.9054L7.4082 25.9037C7.15462 26.8288 7.52605 27.8145 8.32947 28.3415C8.57726 28.5035 8.84883 28.6122 9.12628 28.665C9.75208 28.786 10.4118 28.6343 10.931 28.2186L16.5945 23.683L22.6576 27.668C22.9036 27.8297 23.1769 27.9386 23.4544 27.9915C24.0802 28.1125 24.742 27.9592 25.2609 27.5453C26.0098 26.9459 26.287 25.9291 25.949 25.0319L23.3846 18.2441L29.0009 13.7458C29.4229 13.4262 29.7323 12.956 29.8386 12.3975C30.0646 11.2222 29.3163 10.084 28.1592 9.81853C28.1326 9.81303 28.106 9.80753 28.0811 9.80228C28.0225 9.79054 27.9652 9.78263 27.9043 9.77423C27.773 9.75978 27.6383 9.75761 27.5074 9.76693L20.3095 10.1045L17.7484 3.31896C17.4736 2.58562 16.8387 2.06727 16.0937 1.92433Z" fill="#FFC000"/>
<path d="M17.0202 5.52739C16.9012 5.50367 16.7766 5.49378 16.6498 5.50002C15.9718 5.53242 15.3913 5.99625 15.2134 6.65071L13.8589 11.6001L8.73504 11.8405C8.05705 11.8729 7.47293 12.3363 7.29478 12.9925C7.11688 13.647 7.37874 14.342 7.94591 14.716L12.2354 17.5327L10.8809 22.4821C10.7012 23.1363 10.9646 23.8334 11.532 24.2056C11.706 24.3208 11.8999 24.3969 12.0937 24.4346C12.5364 24.5194 13.0039 24.4123 13.3712 24.118L17.3784 20.9108L21.6677 23.7294C21.8416 23.8446 22.0338 23.9204 22.2311 23.9586C22.6739 24.0434 23.1395 23.9361 23.5066 23.6436C24.0359 23.2201 24.2319 22.5007 23.9944 21.8674L22.1817 17.0669L26.1524 13.8857C26.4518 13.6605 26.6693 13.3273 26.7457 12.9326C26.9061 12.1006 26.3765 11.2956 25.5573 11.1077C25.5376 11.105 25.52 11.1007 25.5023 11.0965C25.4614 11.089 25.4186 11.0813 25.379 11.0776C25.2835 11.0681 25.1892 11.0642 25.0969 11.0716L20.0063 11.3093L18.1951 6.51084C17.9982 5.99269 17.5487 5.62586 17.024 5.52609L17.0202 5.52739Z" fill="#FFD200"/>
<path fill-rule="evenodd" clip-rule="evenodd" d="M10.1857 13.4983C9.8076 11.9658 10.7442 10.4158 12.2767 10.0377C13.8091 9.65955 15.3574 10.596 15.7355 12.1284C16.1136 13.6609 15.1788 15.2111 13.6463 15.5893C12.1139 15.9674 10.5636 15.0325 10.1857 13.4983Z" fill="white"/>
<path d="M11.1753 13.2567C10.9297 12.259 11.5396 11.2517 12.5354 11.0058C12.7602 10.951 12.9846 10.9381 13.2018 10.9645C12.8966 11.1523 12.7358 11.5244 12.8258 11.8909C12.9379 12.3481 13.3996 12.6272 13.8552 12.513C14.2235 12.4232 14.4777 12.1024 14.5018 11.7425C14.63 11.9244 14.7271 12.1331 14.783 12.3635C15.0307 13.3596 14.4208 14.367 13.4247 14.6147C12.4289 14.8606 11.4215 14.2507 11.1738 13.2546L11.1753 13.2567Z" fill="#FF8000"/>
<path fill-rule="evenodd" clip-rule="evenodd" d="M16.1459 12.8186C15.7678 11.2862 16.7026 9.73592 18.2369 9.35803C19.7693 8.9799 21.3176 9.9163 21.6957 11.4487C22.0738 12.9812 21.139 14.5315 19.6047 14.9094C18.0723 15.2875 16.5223 14.3508 16.1459 12.8186Z" fill="white"/>
<path fill-rule="evenodd" clip-rule="evenodd" d="M17.3109 18.4892C14.8746 18.7773 12.6861 17.957 11.3747 16.4819C11.3739 16.5932 11.3696 16.7039 11.374 16.8177C11.5044 19.8674 13.887 22.0725 16.6924 21.7422C19.1381 21.4518 21.0954 19.3307 21.4708 16.7687C20.3351 17.6707 18.8975 18.301 17.3109 18.4892Z" fill="white"/>
<path d="M17.1065 12.5223C16.8608 11.5247 17.4707 10.5173 18.4648 10.2711C18.6898 10.2146 18.916 10.202 19.1312 10.2298C18.8258 10.4195 18.6634 10.7895 18.7552 11.1563C18.8673 11.6135 19.3289 11.8925 19.7864 11.7786C20.1567 11.6873 20.4088 11.368 20.4329 11.0081C20.5609 11.1919 20.6581 11.4006 20.7159 11.6294C20.9616 12.627 20.3537 13.6329 19.3561 13.8785C18.3603 14.1244 17.3529 13.5145 17.1067 12.5205L17.1065 12.5223Z" fill="#FF8000"/>
</svg>
