<svg width="130" height="42" viewBox="0 0 130 42" fill="none" xmlns="http://www.w3.org/2000/svg">
<path d="M109.053 0.648438C97.68 0.648438 88.423 9.90542 88.423 21.2783C88.423 32.6512 97.68 41.9081 109.053 41.9081C120.426 41.9081 129.683 32.6512 129.683 21.2783C129.683 9.90542 120.426 0.648438 109.053 0.648438Z" fill="white"/>
<path d="M109.053 39.2773C118.994 39.2773 127.053 31.2185 127.053 21.2773C127.053 11.3362 118.994 3.27734 109.053 3.27734C99.1117 3.27734 91.0529 11.3362 91.0529 21.2773C91.0529 31.2185 99.1117 39.2773 109.053 39.2773Z" fill="#2FBCEA"/>
<path d="M108.584 33.0065C107.405 33.0065 106.242 32.8932 105.093 32.6664C103.944 32.4397 102.955 32.1224 102.108 31.7143C101.405 31.3743 100.907 30.9511 100.612 30.4523C100.317 29.9536 100.189 29.4397 100.234 28.9183C100.279 28.3969 100.468 27.9284 100.793 27.5203C101.126 27.1123 101.557 26.8327 102.086 26.6891C102.622 26.538 103.227 26.6135 103.907 26.9082C104.745 27.271 105.516 27.5203 106.227 27.6563C106.929 27.7924 107.632 27.8604 108.342 27.8604C110.798 27.8604 112.023 27.0216 112.023 25.3364C112.023 23.7949 110.934 23.0165 108.751 23.0165H106.907C106.045 23.0165 105.388 22.7974 104.927 22.3666C104.473 21.9359 104.247 21.3238 104.247 20.5228C104.247 19.7218 104.473 19.1172 104.927 18.679C105.38 18.2482 106.038 18.0291 106.907 18.0291H108.131C109.106 18.0291 109.876 17.825 110.428 17.417C110.987 17.0089 111.267 16.4195 111.267 15.6412C111.267 14.1222 110.209 13.359 108.101 13.359C107.466 13.359 106.816 13.427 106.159 13.5631C105.501 13.6991 104.798 13.9409 104.043 14.281C103.453 14.5303 102.909 14.5908 102.426 14.4548C101.934 14.3187 101.534 14.0542 101.216 13.6688C100.899 13.2835 100.703 12.8301 100.635 12.3238C100.567 11.8099 100.657 11.3263 100.907 10.8577C101.156 10.3892 101.587 10.0038 102.199 9.6789C104.156 8.70408 106.325 8.21289 108.705 8.21289C111.388 8.21289 113.473 8.79476 114.977 9.96606C116.474 11.1373 117.229 12.7545 117.229 14.825C117.229 16.0492 116.919 17.1298 116.307 18.0593C115.695 18.9888 114.841 19.6764 113.753 20.1072C115.091 20.4926 116.133 21.1953 116.874 22.2231C117.615 23.2432 117.985 24.4825 117.985 25.941C117.985 28.1249 117.154 29.8402 115.484 31.1022C113.814 32.3642 111.516 32.9914 108.584 32.9914V33.0065Z" fill="#0078FF"/>
<path d="M65.0378 0.648438C53.6649 0.648438 44.408 9.90542 44.408 21.2783C44.408 32.6512 53.6649 41.9081 65.0378 41.9081C76.4107 41.9081 85.6677 32.6512 85.6677 21.2783C85.6677 9.90542 76.4107 0.648438 65.0378 0.648438Z" fill="white"/>
<path d="M65.0378 39.2773C74.979 39.2773 83.0378 31.2185 83.0378 21.2773C83.0378 11.3362 74.979 3.27734 65.0378 3.27734C55.0967 3.27734 47.0378 11.3362 47.0378 21.2773C47.0378 31.2185 55.0967 39.2773 65.0378 39.2773Z" fill="#6600BC"/>
<path d="M59.5184 32.6294C58.5209 32.6294 57.7955 32.3952 57.3572 31.9342C56.9113 31.4657 56.6922 30.778 56.6922 29.8712C56.6922 29.2365 56.8282 28.6697 57.1002 28.171C57.3723 27.6722 57.7501 27.181 58.2262 26.705L64.1884 20.4707C65.0726 19.5412 65.7073 18.725 66.0776 18.0374C66.4555 17.3422 66.6368 16.6545 66.6368 15.9744C66.6368 14.2515 65.5335 13.3825 63.3345 13.3825C62.7905 13.3825 62.201 13.458 61.5814 13.6016C60.9542 13.7527 60.3043 14.0021 59.6242 14.3648C59.0121 14.6595 58.4529 14.7427 57.9542 14.6218C57.4554 14.5008 57.0473 14.2439 56.73 13.8585C56.4126 13.4731 56.2161 13.0273 56.133 12.5285C56.0499 12.0298 56.133 11.531 56.3521 11.0474C56.5788 10.5562 56.9869 10.1557 57.5763 9.83835C58.6191 9.29427 59.7073 8.8862 60.8333 8.62927C61.9592 8.37234 63.0852 8.23633 64.2262 8.23633C66.9995 8.23633 69.1154 8.84087 70.5814 10.0424C72.0474 11.2439 72.7804 12.9819 72.7804 15.2565C72.7804 16.7074 72.4479 18.0978 71.7905 19.4127C71.1331 20.7276 70.0298 22.1483 68.4882 23.6747L64.6041 27.5589H71.3824C73.1054 27.5589 73.9744 28.3977 73.9744 30.0828C73.9744 31.768 73.1129 32.637 71.3824 32.637H59.5259L59.5184 32.6294Z" fill="#C98EFF"/>
<path d="M20.8359 0.648438C9.46304 0.648438 0.206055 9.90542 0.206055 21.2783C0.206055 32.6512 9.46304 41.9081 20.8359 41.9081C32.2088 41.9081 41.4658 32.6512 41.4658 21.2783C41.4658 9.90542 32.2088 0.648438 20.8359 0.648438Z" fill="white"/>
<path d="M20.8359 39.2773C30.7771 39.2773 38.8359 31.2185 38.8359 21.2773C38.8359 11.3362 30.7771 3.27734 20.8359 3.27734C10.8948 3.27734 2.83594 11.3362 2.83594 21.2773C2.83594 31.2185 10.8948 39.2773 20.8359 39.2773Z" fill="#FF0000"/>
<path d="M15.7965 32.3034C14.066 32.3034 13.2046 31.4494 13.2046 29.7492C13.2046 28.0489 14.066 27.2252 15.7965 27.2252H18.8645V15.0589L16.7864 16.3209C16.197 16.6836 15.6378 16.8272 15.1164 16.7441C14.595 16.6685 14.1491 16.4418 13.7864 16.0791C13.4237 15.7163 13.1819 15.2705 13.0685 14.7491C12.9552 14.2277 13.0005 13.7063 13.2046 13.1848C13.4086 12.6634 13.8167 12.2176 14.4287 11.8549L19.129 8.92285C20.1492 8.28808 21.2298 7.9707 22.3633 7.9707C23.2248 7.9707 23.8973 8.18985 24.3734 8.6357C24.8495 9.08155 25.0913 9.72386 25.0913 10.5627V27.2252H27.8193C29.5422 27.2252 30.4112 28.064 30.4112 29.7492C30.4112 31.4343 29.5497 32.3034 27.8193 32.3034H15.789H15.7965Z" fill="#FFBC00"/>
</svg>
