<svg width="131" height="42" viewBox="0 0 131 42" fill="none" xmlns="http://www.w3.org/2000/svg">
<path d="M109.626 0.648438C98.2531 0.648438 88.9961 9.90542 88.9961 21.2783C88.9961 32.6512 98.2531 41.9081 109.626 41.9081C120.999 41.9081 130.256 32.6512 130.256 21.2783C130.256 9.90542 120.999 0.648438 109.626 0.648438Z" fill="white"/>
<path d="M109.626 39.2773C119.567 39.2773 127.626 31.2185 127.626 21.2773C127.626 11.3362 119.567 3.27734 109.626 3.27734C99.6849 3.27734 91.626 11.3362 91.626 21.2773C91.626 31.2185 99.6849 39.2773 109.626 39.2773Z" fill="#0078FF"/>
<path d="M110.17 6.64028C109.996 6.6025 109.823 6.57983 109.641 6.58739C108.659 6.6025 107.805 7.25238 107.525 8.18941L105.372 15.2701L97.9736 15.4061C96.9912 15.4212 96.1373 16.0711 95.8501 17.0081C95.5705 17.9451 95.9182 18.9577 96.7192 19.5245L102.787 23.7638L100.634 30.8445C100.346 31.7815 100.702 32.7941 101.503 33.3533C101.752 33.5271 102.024 33.648 102.304 33.7085C102.938 33.852 103.618 33.7085 104.155 33.308L110.064 28.8495L116.132 33.0888C116.382 33.2626 116.654 33.376 116.933 33.444C117.568 33.5876 118.241 33.444 118.785 33.0435C119.571 32.4541 119.881 31.4263 119.563 30.5044L117.145 23.5069L123.001 19.0786C123.44 18.7688 123.772 18.2927 123.893 17.726C124.158 16.532 123.425 15.3532 122.253 15.0434C122.223 15.0434 122.2 15.0282 122.17 15.0282C122.11 15.0131 122.049 15.0056 121.996 14.998C121.86 14.9829 121.724 14.9678 121.588 14.9753L114.236 15.1114L111.817 8.11384C111.553 7.35817 110.926 6.81409 110.17 6.64784V6.64028Z" fill="#2FBCEA"/>
<path d="M65.4267 0.648438C54.0539 0.648438 44.7969 9.90542 44.7969 21.2783C44.7969 32.6512 54.0539 41.9081 65.4267 41.9081C76.7996 41.9081 86.0566 32.6512 86.0566 21.2783C86.0566 9.90542 76.7996 0.648438 65.4267 0.648438Z" fill="white"/>
<path d="M65.4268 39.2793C75.3679 39.2793 83.4268 31.2204 83.4268 21.2793C83.4268 11.3382 75.3679 3.2793 65.4268 3.2793C55.4856 3.2793 47.4268 11.3382 47.4268 21.2793C47.4268 31.2204 55.4856 39.2793 65.4268 39.2793Z" fill="#FF91FF"/>
<path d="M65.2606 15.7244C65.2606 15.7244 59.2605 8.34145 54.5149 12.0896C46.4897 18.4221 65.2606 33.8907 65.2606 33.8907C65.2606 33.8907 83.238 19.276 75.636 12.5128C69.8324 7.35152 65.2606 15.7244 65.2606 15.7244Z" fill="#FF0000"/>
<path d="M21.394 0.648438C10.0211 0.648438 0.76416 9.90542 0.76416 21.2783C0.76416 32.6512 10.0211 41.9081 21.394 41.9081C32.7669 41.9081 42.0239 32.6512 42.0239 21.2783C42.0239 9.90542 32.7669 0.648438 21.394 0.648438Z" fill="white"/>
<path d="M21.3938 39.2773C31.3349 39.2773 39.3938 31.2185 39.3938 21.2773C39.3938 11.3362 31.3349 3.27734 21.3938 3.27734C11.4527 3.27734 3.3938 11.3362 3.3938 21.2773C3.3938 31.2185 11.4527 39.2773 21.3938 39.2773Z" fill="#FFDB00"/>
<path d="M19.2098 11.7635L20.4416 22.6149C18.4466 22.2295 15.8924 23.0608 13.8143 24.9953C10.8748 27.7384 10.0284 31.5999 11.9251 33.6326C13.8219 35.6654 17.7363 35.0911 20.6758 32.348C22.9504 30.2246 23.9479 27.4361 23.4189 25.3429L22.2325 15.7308C22.2325 15.7308 24.2048 15.5267 27.5373 14.1892C30.8698 12.8516 29.419 6.56445 29.419 6.56445L19.2023 11.7635H19.2098Z" fill="#FF8000"/>
</svg>
