<svg width="130" height="42" viewBox="0 0 130 42" fill="none" xmlns="http://www.w3.org/2000/svg">
<path d="M109.361 0.648438C97.9882 0.648438 88.7312 9.90542 88.7312 21.2783C88.7312 32.6512 97.9882 41.9081 109.361 41.9081C120.734 41.9081 129.991 32.6512 129.991 21.2783C129.991 9.90542 120.734 0.648438 109.361 0.648438Z" fill="white"/>
<path d="M109.361 39.2773C119.302 39.2773 127.361 31.2185 127.361 21.2773C127.361 11.3362 119.302 3.27734 109.361 3.27734C99.42 3.27734 91.3611 11.3362 91.3611 21.2773C91.3611 31.2185 99.42 39.2773 109.361 39.2773Z" fill="#FF7500"/>
<path d="M109.86 31.9853C107.404 31.9853 105.296 31.5168 103.535 30.5722C101.774 29.6276 100.421 28.2976 99.492 26.5747C98.5549 24.8517 98.094 22.8416 98.094 20.5293C98.094 18.2169 98.5625 16.2144 99.492 14.499C100.429 12.7912 101.774 11.4612 103.535 10.5166C105.296 9.57203 107.404 9.10352 109.86 9.10352C110.827 9.10352 111.825 9.21687 112.867 9.43601C113.903 9.65516 114.825 9.98765 115.626 10.4259C116.215 10.7433 116.623 11.1363 116.85 11.6199C117.084 12.1035 117.167 12.5947 117.099 13.101C117.039 13.6073 116.85 14.0532 116.548 14.4537C116.245 14.8542 115.86 15.1187 115.399 15.2547C114.938 15.3907 114.432 15.3227 113.888 15.0507C112.648 14.4461 111.379 14.1363 110.079 14.1363C108.129 14.1363 106.656 14.6879 105.673 15.7912C104.683 16.8945 104.192 18.4739 104.192 20.5293C104.192 22.5847 104.683 24.1943 105.673 25.2976C106.663 26.4009 108.129 26.9525 110.079 26.9525C110.623 26.9525 111.212 26.8845 111.84 26.7485C112.467 26.6125 113.087 26.4009 113.699 26.1061C114.326 25.8341 114.893 25.7585 115.384 25.887C115.875 26.0155 116.283 26.2648 116.593 26.6427C116.91 27.0205 117.099 27.4588 117.175 27.95C117.25 28.4412 117.175 28.9324 116.971 29.416C116.759 29.8996 116.374 30.285 115.807 30.5797C115.074 31.018 114.167 31.3656 113.087 31.615C112.006 31.8644 110.933 31.9928 109.86 31.9928V31.9853Z" fill="#FFDB00"/>
<path d="M65.0786 0.648438C53.7057 0.648438 44.4487 9.90542 44.4487 21.2783C44.4487 32.6512 53.7057 41.9081 65.0786 41.9081C76.4515 41.9081 85.7084 32.6512 85.7084 21.2783C85.7084 9.90542 76.4515 0.648438 65.0786 0.648438Z" fill="white"/>
<path d="M65.0786 39.2773C75.0197 39.2773 83.0786 31.2185 83.0786 21.2773C83.0786 11.3362 75.0197 3.27734 65.0786 3.27734C55.1375 3.27734 47.0786 11.3362 47.0786 21.2773C47.0786 31.2185 55.1375 39.2773 65.0786 39.2773Z" fill="#00A74E"/>
<path d="M59.1543 32.522C57.1366 32.522 56.1316 31.5245 56.1316 29.5295V13.3128C56.1316 11.3178 57.1366 10.3203 59.1543 10.3203H66.8319C69.2274 10.3203 71.0788 10.8417 72.3861 11.877C73.701 12.9123 74.3509 14.3103 74.3509 16.0483C74.3509 17.2045 74.0637 18.2095 73.4818 19.071C72.9075 19.9325 72.099 20.5748 71.0712 20.9904C72.3105 21.3682 73.2627 22.003 73.9352 22.8947C74.6078 23.7864 74.9403 24.8972 74.9403 26.2197C74.9403 28.1693 74.2451 29.7109 72.8471 30.8293C71.4491 31.9552 69.5448 32.5144 67.1342 32.5144H59.1392L59.1543 32.522ZM61.6782 19.1466H65.8042C66.8546 19.1466 67.6254 18.9576 68.1166 18.5798C68.6077 18.202 68.8571 17.6277 68.8571 16.8493C68.8571 16.071 68.6077 15.5042 68.1166 15.1339C67.6254 14.7637 66.8546 14.5823 65.8042 14.5823H61.6782V19.1466ZM61.6782 28.2751H66.371C67.444 28.2751 68.2224 28.0711 68.7135 27.663C69.2047 27.2549 69.4541 26.6428 69.4541 25.8192C69.4541 24.9955 69.2047 24.3909 68.7135 23.9904C68.2224 23.5899 67.4365 23.3934 66.371 23.3934H61.6782V28.2751Z" fill="#BAEC16"/>
<path d="M21.1008 0.648438C9.72794 0.648438 0.470947 9.90542 0.470947 21.2783C0.470947 32.6512 9.72794 41.9081 21.1008 41.9081C32.4737 41.9081 41.7307 32.6512 41.7307 21.2783C41.7307 9.90542 32.4737 0.648438 21.1008 0.648438Z" fill="white"/>
<path d="M21.1008 39.2773C31.042 39.2773 39.1008 31.2185 39.1008 21.2773C39.1008 11.3362 31.042 3.27734 21.1008 3.27734C11.1597 3.27734 3.10083 11.3362 3.10083 21.2773C3.10083 31.2185 11.1597 39.2773 21.1008 39.2773Z" fill="#A120DE"/>
<path d="M11.8265 31.6088C10.8366 31.6088 10.1187 31.2763 9.65773 30.6037C9.19677 29.9312 9.19677 29.0924 9.65773 28.0873L17.4941 11.2132C17.8719 10.397 18.3329 9.80006 18.8769 9.42222C19.421 9.04439 20.0633 8.85547 20.7963 8.85547C21.5293 8.85547 22.1414 9.04439 22.6855 9.42222C23.2296 9.80006 23.6906 10.397 24.0684 11.2132L31.9047 28.0873C32.3884 29.115 32.411 29.9614 31.9652 30.6188C31.5193 31.2763 30.8317 31.6088 29.8871 31.6088C29.0483 31.6088 28.3984 31.4198 27.9526 31.042C27.4992 30.6642 27.0986 30.0521 26.7435 29.2133L25.7384 26.8178H15.824L14.819 29.2133C14.4411 30.0521 14.0557 30.6642 13.6552 31.042C13.2547 31.4198 12.6502 31.6088 11.8265 31.6088ZM20.7359 15.1729L17.7132 22.382H23.819L20.7963 15.1729H20.7359Z" fill="#FF10FF"/>
</svg>
