<svg width="132" height="42" viewBox="0 0 132 42" fill="none" xmlns="http://www.w3.org/2000/svg">
<path d="M110.888 0.648438C99.515 0.648438 90.2581 9.90542 90.2581 21.2783C90.2581 32.6512 99.515 41.9081 110.888 41.9081C122.261 41.9081 131.518 32.6512 131.518 21.2783C131.518 9.90542 122.261 0.648438 110.888 0.648438Z" fill="white"/>
<path d="M110.888 39.2773C120.829 39.2773 128.888 31.2185 128.888 21.2773C128.888 11.3362 120.829 3.27734 110.888 3.27734C100.947 3.27734 92.8879 11.3362 92.8879 21.2773C92.8879 31.2185 100.947 39.2773 110.888 39.2773Z" fill="#FFBC00"/>
<path d="M65.8498 0.648438C54.477 0.648438 45.22 9.90542 45.22 21.2783C45.22 32.6512 54.477 41.9081 65.8498 41.9081C77.2227 41.9081 86.4797 32.6512 86.4797 21.2783C86.4797 9.90542 77.2227 0.648438 65.8498 0.648438Z" fill="white"/>
<path d="M65.8499 39.2773C75.791 39.2773 83.8499 31.2185 83.8499 21.2773C83.8499 11.3362 75.791 3.27734 65.8499 3.27734C55.9087 3.27734 47.8499 11.3362 47.8499 21.2773C47.8499 31.2185 55.9087 39.2773 65.8499 39.2773Z" fill="#0078FF"/>
<path d="M21.5671 0.648438C10.1942 0.648438 0.937256 9.90542 0.937256 21.2783C0.937256 32.6512 10.1942 41.9081 21.5671 41.9081C32.94 41.9081 42.197 32.6512 42.197 21.2783C42.197 9.90542 32.94 0.648438 21.5671 0.648438Z" fill="white"/>
<path d="M21.5671 39.2773C31.5083 39.2773 39.5671 31.2185 39.5671 21.2773C39.5671 11.3362 31.5083 3.27734 21.5671 3.27734C11.626 3.27734 3.56714 11.3362 3.56714 21.2773C3.56714 31.2185 11.626 39.2773 21.5671 39.2773Z" fill="#FF0000"/>
</svg>
