<svg width="131" height="42" viewBox="0 0 131 42" fill="none" xmlns="http://www.w3.org/2000/svg">
<path d="M110.092 0.648438C98.7195 0.648438 89.4625 9.90542 89.4625 21.2783C89.4625 32.6512 98.7195 41.9081 110.092 41.9081C121.465 41.9081 130.722 32.6512 130.722 21.2783C130.722 9.90542 121.465 0.648438 110.092 0.648438Z" fill="white"/>
<path d="M110.092 39.2773C120.034 39.2773 128.092 31.2185 128.092 21.2773C128.092 11.3362 120.034 3.27734 110.092 3.27734C100.151 3.27734 92.0924 11.3362 92.0924 21.2773C92.0924 31.2185 100.151 39.2773 110.092 39.2773Z" fill="#002C8C"/>
<path d="M110.092 7.13281L97.0797 29.667H123.105L110.092 7.13281Z" fill="#2FBCEA"/>
<path d="M65.6247 0.648438C54.2519 0.648438 44.9949 9.90542 44.9949 21.2783C44.9949 32.6512 54.2519 41.9081 65.6247 41.9081C76.9976 41.9081 86.2546 32.6512 86.2546 21.2783C86.2546 9.90542 76.9976 0.648438 65.6247 0.648438Z" fill="white"/>
<path d="M65.6248 39.2773C75.5659 39.2773 83.6248 31.2185 83.6248 21.2773C83.6248 11.3362 75.5659 3.27734 65.6248 3.27734C55.6836 3.27734 47.6248 11.3362 47.6248 21.2773C47.6248 31.2185 55.6836 39.2773 65.6248 39.2773Z" fill="#FFBC00"/>
<path d="M75.6865 11.2168H55.563V31.3404H75.6865V11.2168Z" fill="#FF0000"/>
<path d="M21.5276 0.648438C10.1547 0.648438 0.897705 9.90542 0.897705 21.2783C0.897705 32.6512 10.1547 41.9081 21.5276 41.9081C32.9004 41.9081 42.1574 32.6512 42.1574 21.2783C42.1574 9.90542 32.9004 0.648438 21.5276 0.648438Z" fill="white"/>
<path d="M21.5276 39.2773C31.4687 39.2773 39.5276 31.2185 39.5276 21.2773C39.5276 11.3362 31.4687 3.27734 21.5276 3.27734C11.5865 3.27734 3.52759 11.3362 3.52759 21.2773C3.52759 31.2185 11.5865 39.2773 21.5276 39.2773Z" fill="#98CE16"/>
<path d="M21.5276 33.4221C28.2343 33.4221 33.6712 27.9852 33.6712 21.2784C33.6712 14.5717 28.2343 9.13477 21.5276 9.13477C14.8208 9.13477 9.38391 14.5717 9.38391 21.2784C9.38391 27.9852 14.8208 33.4221 21.5276 33.4221Z" fill="#00A74E"/>
</svg>
