<svg width="26" height="25" viewBox="0 0 26 25" fill="none" xmlns="http://www.w3.org/2000/svg">
<path d="M13.02 0C6.12002 0 0.52002 5.6 0.52002 12.5C0.52002 19.4 6.12002 25 13.02 25C19.92 25 25.52 19.4 25.52 12.5C25.52 5.6 19.92 0 13.02 0ZM18.96 10.52C18.96 10.65 18.85 10.77 18.71 10.76C16.19 10.69 15.49 9.52 15.49 9.52V15.47C15.49 17.8 13.6 19.68 11.28 19.68C8.80001 19.68 6.81001 17.53 7.09001 14.99C7.30001 13.06 8.86001 11.51 10.78 11.29C11.04 11.26 11.3 11.25 11.55 11.27C11.67 11.27 11.77 11.39 11.77 11.51V13.26C11.77 13.41 11.64 13.51 11.5 13.5C11.34 13.48 11.17 13.48 10.99 13.5C10.12 13.62 9.41001 14.34 9.31001 15.21C9.16001 16.45 10.15 17.5 11.37 17.44C12.44 17.39 13.26 16.46 13.26 15.39V5.56C13.26 5.43 13.37 5.32 13.5 5.32H15.5C15.63 5.32 15.74 5.42 15.75 5.54C15.84 6.92 16.77 8.42 18.73 8.53C18.86 8.53 18.96 8.64 18.96 8.77V10.52Z" fill="white"/>
</svg>
