<svg width="504" height="353" viewBox="0 0 504 353" fill="none" xmlns="http://www.w3.org/2000/svg">
<g clip-path="url(#clip0_437_7011)">
<path d="M131.811 167.24C126.933 167.416 121.864 167.357 117.03 167.108C113.09 166.727 109.589 166.376 105.751 167.313C102.777 168.339 100.653 169.672 99.0566 172.397C97.4892 174.888 97.3573 176.206 97.9872 178.697C101.532 178.609 103.187 173.027 106.879 173.613C106.923 175.386 103.451 179.239 105.473 181.202C107.465 183.385 110.365 176.382 111.566 175.401C112.68 177.496 111.698 180.719 115.185 181.276C118.026 181.554 117.104 177.496 117.294 175.518C117.602 172.456 119.564 172.646 122.187 172.91C124.809 173.174 127.196 173.628 129.818 173.892C132.44 174.155 138.593 174.536 139.003 170.39C139.296 167.328 133.817 164.793 131.855 166.801" fill="#C61C24"/>
<path d="M275.087 191.547C267.148 195.181 247.621 206.564 240.971 237.859C234.321 269.168 247.006 280.127 251.972 287.804C256.938 295.466 261.362 300.448 256.323 303.891C251.284 307.334 238.642 299.935 222.807 302.118C206.972 304.301 206.181 307.759 204.994 312.286C203.91 316.403 212.553 310.176 223.803 310.909C235.053 311.641 232.387 312.505 228.403 314.322C224.433 316.139 215.629 315.758 210.824 321.53C204.789 328.753 203.705 331.977 214.428 329.076C226.791 325.735 244.531 323.875 245.278 323.435C246.025 322.996 231.64 329.852 229.618 331.698C225.634 335.332 224.477 342.833 226.616 344.357C228.754 345.88 238.32 338.145 246.127 333.837C253.935 329.53 268.071 331.552 274.707 325.677C281.342 319.802 281.298 304.843 279.453 292.155C277.299 277.299 300.649 253.872 310.566 235.515C320.483 217.142 332.905 195.313 313.51 190.522C294.116 185.731 283.056 187.899 275.117 191.533L275.087 191.547Z" fill="#C61C24"/>
<path d="M337.534 226.328C331.074 257.857 285.649 275.16 236.079 265.007C186.508 254.839 151.557 221.039 158.017 189.525C175.082 106.249 307.9 134.613 326.445 138.422C376.016 148.59 344.009 194.814 337.534 226.343V226.328Z" fill="#EC1C24"/>
<path d="M130.155 88.1551C127.416 101.136 120.209 132.005 129.628 156.663C139.047 181.321 160.214 220.321 172.9 232.13C185.571 243.939 232.651 220.922 240.268 197.29C247.885 173.658 268.203 133.998 255.283 131.39C242.363 128.797 185.527 144.488 176.313 131.053C167.099 117.618 153.271 110.893 161.342 89.2833C169.413 67.6731 132.895 75.1597 130.155 88.1551Z" fill="#EC1C24"/>
<path d="M312.969 248.202C312.969 248.202 328.496 231.295 358.071 217.362C388.364 203.106 445.406 214.929 463.526 221.391C481.646 227.852 503.956 236.481 503.956 236.481C503.956 236.481 480.972 200.821 441.905 177.907C402.837 154.978 316.001 133.075 295.478 135.726C274.941 138.378 233.618 163.08 266.826 205.465C300.034 247.865 312.983 248.216 312.983 248.216L312.969 248.202Z" fill="#EC1C24"/>
<path d="M486.582 224.189C479.214 219.193 441.187 204.527 404.844 203.077C375.972 201.92 363.125 203.648 336.743 210.842C310.361 218.021 286.953 243.001 237.28 236.76C187.607 230.504 175.038 206.52 167.245 199.136C159.438 191.752 134.828 127.419 132.938 123.259C131.561 120.226 128.764 120.123 125.116 121.5C124.516 133.001 125.35 145.484 129.628 156.692C139.047 181.35 160.214 220.35 172.899 232.159C173.017 232.262 173.134 232.364 173.251 232.452C187.299 247.411 209.609 259.586 236.078 265.021C284.14 274.881 328.32 258.897 336.845 229.185C342.837 225.302 349.927 221.229 358.1 217.391C388.393 203.136 445.435 214.959 463.555 221.42C473.369 224.922 490.786 231.295 498.843 234.357C496.851 230.562 489.776 226.372 486.597 224.218L486.582 224.189Z" fill="#FF3D44"/>
<path d="M281.913 202.578C278.017 210.402 270.004 231.529 284.536 260.054C299.052 288.579 315.825 289.107 324.511 291.949C333.198 294.777 339.76 295.875 338.003 301.721C336.259 307.567 321.772 309.779 310.844 321.441C299.916 333.104 301.469 336.283 303.403 340.561C305.146 344.443 307.944 334.158 317.143 327.653C326.342 321.148 324.819 323.493 322.871 327.419C320.922 331.331 313.847 336.576 313.73 344.077C313.584 353.483 314.77 356.677 321.274 347.681C328.774 337.308 341.401 324.694 341.709 323.888C342.016 323.082 335.146 337.455 334.736 340.165C333.93 345.498 337.739 352.062 340.361 351.901C342.983 351.725 345.547 339.711 348.916 331.448C352.27 323.185 364.531 315.859 365.981 307.113C367.431 298.366 357.983 286.777 348.579 278.075C337.563 267.892 340.976 234.986 337.124 214.46C333.286 193.949 329.199 169.159 311.108 177.642C293.017 186.125 285.795 194.769 281.899 202.593L281.913 202.578Z" fill="#EC1C24"/>
<path d="M150.165 185.994C146.137 190.316 141.757 194.594 137.392 198.506C133.686 201.538 130.404 204.234 127.914 208.322C126.244 211.75 125.585 214.695 126.537 218.387C127.328 221.859 128.339 223.104 131.005 224.687C133.964 221.581 130.609 215.398 134.271 212.732C135.824 214.211 136.146 220.467 139.545 220.438C143.119 220.599 139.618 212.131 139.809 210.256C142.563 211.105 144.467 214.695 147.924 212.204C150.59 210.021 146.327 207.325 144.818 205.479C142.46 202.593 144.32 201.084 146.781 199.062C149.242 197.04 151.674 195.4 154.149 193.378C156.61 191.356 168.212 173.247 165.019 169.335C162.66 166.449 155.805 168.984 155.849 172.383" fill="#EC1C24"/>
<path d="M121.967 98.9675C125.028 102.835 129.35 104.52 131.591 102.733C133.847 100.945 133.187 96.3596 130.126 92.4918C127.064 88.6239 122.743 86.9391 120.502 88.7265C118.246 90.5139 118.905 95.0997 121.967 98.9675Z" fill="#DAE5FF"/>
<path d="M113.676 102.263C116.737 106.131 121.059 107.816 123.3 106.029C125.556 104.241 124.896 99.6555 121.835 95.7877C118.773 91.9198 114.452 90.235 112.211 92.0224C109.955 93.8098 110.614 98.3956 113.676 102.263Z" fill="#DAE5FF"/>
<path d="M106.674 107.817C109.735 111.685 114.057 113.37 116.298 111.582C118.554 109.795 117.895 105.209 114.833 101.341C111.771 97.4736 107.45 95.7887 105.209 97.5761C102.953 99.3635 103.612 103.949 106.674 107.817Z" fill="#DAE5FF"/>
<path d="M99.6863 113.369C102.748 117.237 107.069 118.922 109.31 117.134C111.566 115.347 110.907 110.761 107.846 106.893C104.784 103.025 100.463 101.34 98.2215 103.128C95.9656 104.915 96.6248 109.501 99.6863 113.369Z" fill="#DAE5FF"/>
<path d="M92.6849 118.908C95.7464 122.776 100.068 124.461 102.309 122.673C104.565 120.886 103.906 116.3 100.844 112.432C97.7826 108.564 93.4613 106.88 91.22 108.667C88.9642 110.454 89.6233 115.04 92.6849 118.908Z" fill="#DAE5FF"/>
<path d="M85.6824 124.46C88.744 128.328 93.0653 130.012 95.3065 128.225C97.5624 126.438 96.9032 121.852 93.8417 117.984C90.7801 114.116 86.4588 112.431 84.2176 114.219C81.9617 116.006 82.6209 120.592 85.6824 124.46Z" fill="#DAE5FF"/>
<path d="M78.6951 130.013C81.7567 133.881 86.078 135.566 88.3192 133.779C90.5751 131.991 89.9159 127.406 86.8543 123.538C83.7928 119.67 79.4715 117.985 77.2303 119.772C74.9744 121.56 75.6336 126.146 78.6951 130.013Z" fill="#DAE5FF"/>
<path d="M71.6932 135.565C74.7547 139.433 79.076 141.118 81.3172 139.33C83.5731 137.543 82.9139 132.957 79.8524 129.089C76.7909 125.222 72.4696 123.537 70.2283 125.324C67.9725 127.112 68.6316 131.697 71.6932 135.565Z" fill="#DAE5FF"/>
<path d="M64.6907 141.103C67.7523 144.971 72.0736 146.656 74.3148 144.869C76.5707 143.081 75.9115 138.495 72.85 134.628C69.7884 130.76 65.4671 129.075 63.2259 130.862C60.97 132.65 61.6292 137.235 64.6907 141.103Z" fill="#DAE5FF"/>
<path d="M53.3383 144.677C54.7446 140.37 57.2494 139.124 64.5883 134.465C100.77 111.449 120.897 95.992 125.467 89.9704C127.987 86.6593 138.3 60.859 140.438 57.6798C155.98 34.6924 166.674 71.73 151.542 97.7062C131.415 132.282 92.523 154.332 71.7222 157.218C54.4076 159.636 51.9174 148.999 53.3237 144.677H53.3383Z" fill="#EC1C24"/>
<path d="M37.8697 85.3716C36.7271 90.1625 38.0601 94.6017 40.858 95.2756C43.6559 95.9496 46.8492 92.5945 48.0065 87.8037C49.1491 83.0128 47.816 78.5736 45.0182 77.8996C42.2203 77.2257 39.0269 80.5807 37.8697 85.3716Z" fill="#DAE5FF"/>
<path d="M33.6659 83.3056L28.3339 83.4961C27.7333 87.7741 29.1103 91.3929 31.5859 91.979C34.3691 92.6382 37.5917 89.2685 38.7343 84.507C39.8769 79.7454 38.5292 75.2769 35.746 74.6029C32.9628 73.9436 29.7401 77.3134 28.5976 82.0749L33.6659 83.2909V83.3056Z" fill="#DAE5FF"/>
<path d="M20.5988 77.606C19.4563 82.3968 20.7893 86.8361 23.5871 87.51C26.385 88.184 29.5784 84.8289 30.7356 80.038C31.8782 75.2472 30.5452 70.8079 27.7473 70.134C24.9494 69.46 21.7561 72.8151 20.5988 77.606Z" fill="#DAE5FF"/>
<path d="M46.9812 87.6861C46.615 92.6088 48.6511 96.7697 51.5222 96.9748C54.3933 97.18 57.0154 93.3707 57.367 88.448C57.7332 83.5253 55.697 79.3644 52.8259 79.1593C49.9548 78.9542 47.3328 82.7634 46.9812 87.6861Z" fill="#DAE5FF"/>
<path d="M56.1807 88.8589C56.8106 93.7523 59.6231 97.4151 62.4796 97.0488C65.336 96.6825 67.1378 92.4191 66.5079 87.5257C65.878 82.6323 63.0655 78.9695 60.2091 79.3358C57.3526 79.7021 55.5508 83.9655 56.1807 88.8589Z" fill="#DAE5FF"/>
<path d="M65.5848 89.1655C66.2147 94.059 69.0272 97.7217 71.8836 97.3554C74.7401 96.9891 76.5418 92.7257 75.912 87.8323C75.2821 82.9389 72.4696 79.2762 69.6131 79.6424C66.7566 80.0087 64.9549 84.2721 65.5848 89.1655Z" fill="#DAE5FF"/>
<path d="M74.9893 89.4888C75.6192 94.3822 78.4317 98.0449 81.2882 97.6787C84.1446 97.3124 85.9464 93.049 85.3165 88.1555C84.6866 83.2621 81.8741 79.5994 79.0176 79.9657C76.1612 80.3319 74.3594 84.5954 74.9893 89.4888Z" fill="#DAE5FF"/>
<path d="M83.9832 88.3599C84.6131 93.2533 87.4256 96.916 90.2821 96.5498C93.1385 96.1835 94.9403 91.9201 94.3104 87.0266C93.6805 82.1332 90.868 78.4705 88.0115 78.8368C85.1551 79.203 83.3533 83.4665 83.9832 88.3599Z" fill="#DAE5FF"/>
<path d="M93.0066 87.5544C93.9295 92.4039 96.9617 95.8908 99.7889 95.3634C102.616 94.8359 104.169 90.47 103.246 85.6205C102.323 80.771 99.2908 77.2841 96.4637 77.8115C93.6365 78.339 92.0838 82.705 93.0066 87.5544Z" fill="#DAE5FF"/>
<path d="M101.898 86.382C103.085 91.1729 106.308 94.4986 109.091 93.81C111.889 93.1214 113.192 88.6822 112.006 83.8913C110.819 79.1005 107.597 75.7747 104.813 76.4633C102.016 77.1519 100.712 81.5911 101.898 86.382Z" fill="#DAE5FF"/>
<path d="M109.545 83.7892C110.731 88.5801 113.954 91.9059 116.737 91.2173C119.535 90.5287 120.839 86.0894 119.652 81.2986C118.466 76.5077 115.243 73.1819 112.46 73.8705C109.662 74.5591 108.358 78.9984 109.545 83.7892Z" fill="#DAE5FF"/>
<path d="M117.25 79.7453C118.436 84.5361 121.659 87.8619 124.442 87.1733C127.24 86.4847 128.544 82.0455 127.357 77.2546C126.171 72.4638 122.948 69.138 120.165 69.8266C117.367 70.5152 116.063 74.9544 117.25 79.7453Z" fill="#DAE5FF"/>
<path d="M155.922 15.8815C137.787 4.6882 114.555 10.8562 114.555 10.8562C114.555 10.8562 10.8725 -24.2328 2.56684 31.7339C0.589293 45.0809 -11.5397 92.2569 80.863 90.7332C93.783 90.5135 114.159 89.5319 119.901 86.5431C125.629 83.5543 130.712 80.9464 131.796 77.2837C132.719 74.1777 136.278 92.4181 139.75 93.0334C144.818 93.9271 149.652 94.3227 152.509 93.429C168.666 88.3451 191.591 37.9019 155.937 15.8669L155.922 15.8815Z" fill="#EC1C24"/>
<path fill-rule="evenodd" clip-rule="evenodd" d="M116.474 23.442C121.146 17.3325 119.975 8.60056 113.881 3.94156C107.772 -0.717445 99.0272 0.454631 94.3544 6.54943C89.6961 12.6589 90.868 21.3908 96.9764 26.0645C103.085 30.7235 111.815 29.5514 116.474 23.442Z" fill="white"/>
<path d="M99.1884 13.0687C101.005 8.70274 106.029 6.6223 110.394 8.45367C111.376 8.8639 112.255 9.43529 112.973 10.1239C111.332 10.0067 109.706 10.915 109.032 12.5413C108.197 14.5485 109.135 16.834 111.156 17.6838C112.782 18.3577 114.599 17.8596 115.668 16.5996C115.639 17.6252 115.434 18.6654 115.009 19.6763C113.192 24.0423 108.168 26.1081 103.803 24.2913C99.452 22.4746 97.3573 17.464 99.1884 13.0834V13.0687Z" fill="#3FB200"/>
<path fill-rule="evenodd" clip-rule="evenodd" d="M144.364 40.597C150.224 32.8906 148.774 21.9024 141.083 16.0273C133.393 10.1523 122.392 11.6174 116.518 19.3238C110.629 27.0155 112.108 38.0038 119.784 43.8788C127.489 49.7538 138.49 48.2887 144.364 40.597Z" fill="white"/>
<path d="M121.161 27.0162C123.007 21.8591 128.676 19.178 133.817 21.0093C134.989 21.4196 136.015 22.0203 136.908 22.7821C135.019 22.7381 133.188 23.8956 132.514 25.7855C131.679 28.159 132.909 30.7522 135.282 31.602C137.172 32.2759 139.252 31.602 140.409 30.0636C140.453 31.265 140.263 32.481 139.838 33.6531C137.992 38.8102 132.338 41.506 127.182 39.66C122.025 37.8286 119.359 32.1587 121.176 27.0016L121.161 27.0162Z" fill="#3FB200"/>
<path d="M137.089 65.1039C147.902 64.1311 156.226 58.4295 155.681 52.3692C155.136 46.3089 145.928 42.1846 135.115 43.1575C124.301 44.1303 115.977 49.8318 116.522 55.8922C117.067 61.9525 126.275 66.0767 137.089 65.1039Z" fill="#EC1C24"/>
<path d="M172.299 66.1777C172.299 66.1777 152.699 72.7121 152.084 73.9574C151.161 75.862 161.327 86.9674 162.309 85.7075C169.882 76.1404 172.299 66.1631 172.299 66.1631V66.1777Z" fill="#D5005E"/>
<path d="M172.797 36.9785C172.797 36.9785 159.95 45.1244 159.716 46.8826C159.511 48.4209 174.321 56.8306 174.467 55.7317C175.903 45.3589 172.797 36.9639 172.797 36.9639V36.9785Z" fill="#D5005E"/>
<path d="M159.452 95.8174C159.452 95.8174 159.086 107.948 162.807 113.911C164.565 116.739 146.474 116.358 146.21 114.673C145.434 109.838 159.467 95.8174 159.467 95.8174H159.452Z" fill="#D5005E"/>
<path d="M172.577 126.145C172.577 126.145 177.719 132.269 179.828 133.265C187.724 137.03 194.198 136.503 194.198 136.503C194.198 136.503 178.598 155.578 173.749 154.934C168.901 154.289 172.592 126.145 172.592 126.145H172.577Z" fill="#D5005E"/>
<path d="M209.521 135.829C209.521 135.829 214.443 134.906 224.404 133.397C236.928 131.492 241.762 131.316 241.762 131.316C241.762 131.316 238.613 161.131 230.527 164.413C222.441 167.709 209.535 135.829 209.535 135.829H209.521Z" fill="#D5005E"/>
<path d="M258.022 130.701C258.022 130.701 264.922 129.881 281.504 131.595C304.971 134.012 310.01 135.287 310.01 135.287C310.01 135.287 290.263 176.573 279.424 175.123C272.451 174.185 258.037 130.701 258.037 130.701H258.022Z" fill="#D5005E"/>
<path d="M329.668 139.154C329.668 139.154 334.736 140.224 346.089 143.037C361.733 146.919 364.487 147.96 364.487 147.96C364.487 147.96 346.235 176.968 339.101 174.727C334.516 173.276 329.668 139.154 329.668 139.154Z" fill="#D5005E"/>
<path d="M381.289 152.97C381.289 152.97 384.116 153.732 390.386 155.827C399.028 158.728 400.537 159.489 400.537 159.489C400.537 159.489 388.862 180.352 384.951 178.682C382.432 177.613 381.304 152.97 381.304 152.97H381.289Z" fill="#D5005E"/>
<path d="M414.526 164.867C414.526 164.867 416.841 165.746 421.997 167.959C429.102 171.021 430.318 171.782 430.318 171.782C430.318 171.782 418.921 189.671 415.728 187.972C413.677 186.873 414.526 164.853 414.526 164.853V164.867Z" fill="#D5005E"/>
<path d="M442.036 178.038C442.036 178.038 443.677 178.932 447.281 181.144C452.246 184.177 453.081 184.88 453.081 184.88C453.081 184.88 442.696 196.967 440.484 195.356C439.063 194.315 442.036 178.038 442.036 178.038Z" fill="#D5005E"/>
<path d="M463.921 193.261C463.921 193.261 465.049 194.096 467.51 196.118C470.894 198.901 471.436 199.502 471.436 199.502C471.436 199.502 462.266 207.985 460.801 206.549C459.849 205.626 463.921 193.261 463.921 193.261Z" fill="#D5005E"/>
<path d="M32.6777 50.9592C36.538 49.0013 38.6796 45.466 37.4611 43.0629C36.2427 40.6597 32.1256 40.2988 28.2653 42.2567C24.4051 44.2146 22.2635 47.7499 23.482 50.153C24.7004 52.5561 28.8175 52.9171 32.6777 50.9592Z" fill="#BD102D"/>
<path d="M8.33862 35.3629C8.72488 32.4676 7.80286 29.9556 6.27924 29.7522C4.75562 29.5489 3.20735 31.7312 2.82109 34.6266C2.43483 37.522 3.35684 40.034 4.88047 40.2373C6.40409 40.4406 7.95236 38.2583 8.33862 35.3629Z" fill="#BD102D"/>
</g>
<defs>
<clipPath id="clip0_437_7011">
<rect width="503" height="353" fill="white" transform="translate(0.970215)"/>
</clipPath>
</defs>
</svg>
