<svg width="153" height="154" viewBox="0 0 153 154" fill="none" xmlns="http://www.w3.org/2000/svg">
<g filter="url(#filter0_d_437_7163)">
<ellipse cx="76.5" cy="73" rx="72.5" ry="73" fill="white"/>
</g>
<ellipse cx="76.5" cy="73.0001" rx="66.5083" ry="66.9669" fill="#FFD200"/>
<g clip-path="url(#clip0_437_7163)">
<path fill-rule="evenodd" clip-rule="evenodd" d="M72.1922 46.6185C74.6026 44.3155 51.2473 20.0726 49.2709 19.731C47.2945 19.3894 24.5546 34.7597 25.8208 63.5592C26.5782 80.8222 29.9447 84.7762 30.9369 87.6429C30.9819 83.7532 66.9376 51.6193 72.1922 46.6185Z" fill="#0079EA"/>
<path d="M32.5726 57.0339C32.4334 42.1247 45.9585 27.3311 48.0463 28.7361C52.0662 31.4592 65.0303 44.6424 68.8002 47.4009C60.9162 51.1059 45.5218 66.5069 35.7845 75.5172C35.577 75.7088 32.6955 68.702 32.5726 57.0339Z" fill="#6BE000"/>
<path fill-rule="evenodd" clip-rule="evenodd" d="M86.6212 46.5675C84.6746 43.8539 112.178 24.5109 114.168 24.5322C116.158 24.5534 135.623 44.0173 128.964 72.0606C124.974 88.8652 120.935 92.11 119.413 94.7292C120.102 90.9013 90.8314 52.4776 86.6212 46.5675Z" fill="#0079EA"/>
<path d="M123.559 64.3824C126.502 49.7639 115.99 32.6531 113.69 33.64C109.22 35.5483 94.0282 46.014 89.8121 48.0012C96.8648 53.1392 109.076 71.2031 116.945 81.9161C117.113 82.1518 121.262 75.8101 123.574 64.3862L123.559 64.3824Z" fill="#6BE000"/>
<path fill-rule="evenodd" clip-rule="evenodd" d="M27.2052 76.5907C29.4234 49.5405 53.2501 29.4367 80.4371 31.705C107.624 33.9732 127.861 57.7388 125.655 84.808C123.433 111.874 99.6062 131.977 72.4192 129.709C45.2322 127.441 24.9948 103.675 27.2015 76.606L27.2052 76.5907Z" fill="#0079EA"/>
<path d="M108.047 94.2244C115.654 87.4242 119.177 71.087 114.163 59.2168C109.764 48.7927 101.255 41.9035 93.0374 41.1562C85.2284 40.9142 83.2949 43.8365 80.3886 46.26C78.3681 43.9166 75.3299 41.1928 72.1703 39.9606C71.6842 39.776 71.1755 39.6182 70.6594 39.491C70.4317 39.4348 70.2003 39.3939 69.9804 39.3721C69.9956 39.3758 70.0145 39.3643 70.0333 39.3528C61.3827 37.5436 50.7406 42.9965 44.1939 53.3762C37.3314 64.2607 38.1428 80.9705 44.5426 88.9257C40.2594 87.3517 36.3204 84.8914 33.0485 81.6729C33.034 81.7988 33.0157 81.94 33.0164 82.0696C31.0731 105.74 48.8283 126.547 72.6747 128.525C96.3315 130.49 117.095 113.191 119.293 89.7944C115.866 91.9763 112.031 93.4584 108.051 94.2091L108.047 94.2244Z" fill="#6BE000"/>
<path fill-rule="evenodd" clip-rule="evenodd" d="M40.4748 62.2518C40.086 52.7356 47.4405 44.7241 56.8989 44.3369C66.3573 43.9497 74.3234 51.3523 74.7122 60.8685C75.101 70.3846 67.7465 78.3962 58.3033 78.7871C48.845 79.1743 40.8636 71.7679 40.49 62.2555L40.4748 62.2518Z" fill="#EAEAEA"/>
<path fill-rule="evenodd" clip-rule="evenodd" d="M80.427 62.2459C80.0382 52.7298 87.3927 44.7182 96.8511 44.331C106.309 43.9438 114.276 51.3465 114.664 60.8626C115.053 70.3787 107.699 78.3903 98.2555 78.7812C88.7971 79.1684 80.8158 71.762 80.4422 62.2497L80.427 62.2459Z" fill="#EAEAEA"/>
<path fill-rule="evenodd" clip-rule="evenodd" d="M66.1544 75.7021C66.7512 68.4846 73.2815 63.1347 80.7702 63.7672C88.2438 64.396 93.8283 70.742 93.2466 77.9632C92.665 85.1844 86.1196 90.5306 78.6309 89.8981C71.1421 89.2656 65.5728 82.9234 66.1544 75.7021Z" fill="#DE0059"/>
<path fill-rule="evenodd" clip-rule="evenodd" d="M70.5607 100.998C84.3801 103.282 97.648 97.4738 105.618 87.0262C106.256 90.4042 106.346 93.9443 105.751 97.5351C103.103 113.858 87.7776 124.941 71.5538 122.255C55.3278 119.588 44.3076 104.167 46.9743 87.8467C47.0186 87.4725 47.0978 87.1215 47.1771 86.7705C52.6652 94.1079 60.8456 99.4154 70.5585 101.017L70.5607 100.998Z" fill="#0079EA"/>
<path d="M94.4202 58.6703C95.6294 54.1612 100.255 51.4818 104.772 52.6925C105.785 52.9585 106.704 53.4118 107.511 53.9991C105.881 54.083 104.435 55.1994 103.981 56.8679C103.427 58.9487 104.65 61.0632 106.715 61.637C108.393 62.083 110.095 61.3696 110.978 59.9851C111.086 60.9989 111.008 62.048 110.74 63.0826C109.531 67.5917 104.901 70.2863 100.404 69.0641C95.9064 67.8419 93.2224 63.1984 94.4353 58.674L94.4202 58.6703Z" fill="#EA9B00"/>
<path d="M56.3889 58.5834C57.5981 54.0743 62.2239 51.3949 66.7403 52.6056C67.7536 52.8716 68.6731 53.3249 69.4795 53.9122C67.8502 53.9961 66.4041 55.1125 65.9501 56.781C65.3958 58.8618 66.6192 60.9763 68.684 61.5501C70.3615 61.9961 72.0635 61.2827 72.9472 59.8982C73.0547 60.912 72.9765 61.961 72.7088 62.9957C71.4996 67.5048 66.8701 70.1994 62.3726 68.9772C57.8751 67.755 55.1912 63.1115 56.4041 58.5871L56.3889 58.5834Z" fill="#EA9B00"/>
</g>
<defs>
<filter id="filter0_d_437_7163" x="0" y="0" width="153" height="154" filterUnits="userSpaceOnUse" color-interpolation-filters="sRGB">
<feFlood flood-opacity="0" result="BackgroundImageFix"/>
<feColorMatrix in="SourceAlpha" type="matrix" values="0 0 0 0 0 0 0 0 0 0 0 0 0 0 0 0 0 0 127 0" result="hardAlpha"/>
<feOffset dy="4"/>
<feGaussianBlur stdDeviation="2"/>
<feComposite in2="hardAlpha" operator="out"/>
<feColorMatrix type="matrix" values="0 0 0 0 0 0 0 0 0 0 0 0 0 0 0 0 0 0 0.25 0"/>
<feBlend mode="normal" in2="BackgroundImageFix" result="effect1_dropShadow_437_7163"/>
<feBlend mode="normal" in="SourceGraphic" in2="effect1_dropShadow_437_7163" result="shape"/>
</filter>
<clipPath id="clip0_437_7163">
<rect width="104.655" height="112.727" fill="white" transform="matrix(0.970923 0.239392 -0.236307 0.971678 37.8149 5.70605)"/>
</clipPath>
</defs>
</svg>
