<svg width="1440" height="184" viewBox="0 0 1440 184" fill="none" xmlns="http://www.w3.org/2000/svg">
<path d="M0 183.35H1440V128.83C1418.76 112.95 1392.27 103.73 1363.7 104.24C1324.31 104.94 1289.54 123.96 1267.36 153.03C1246.98 139.23 1222.29 131.35 1195.81 131.82C1163.68 132.39 1134.62 145.15 1112.97 165.61C1101.04 162.04 1088.36 160.22 1075.24 160.45C1058.38 160.75 1042.36 164.41 1027.82 170.77C1004.63 144.54 970.53 128.25 932.79 128.92C909.99 129.32 888.74 135.87 870.59 146.94C848.26 127.42 818.89 115.8 786.89 116.37C782.97 116.44 779.1 116.7 775.28 117.12C738.21 80.7399 687.15 58.6799 631.12 59.6699C596.25 60.2899 563.62 69.7699 535.32 85.9199C498.33 32.9699 436.51 -1.20006 367.08 0.0299434C304.82 1.13994 249.69 30.4799 213.67 75.6199C181.64 59.0099 145.13 49.8999 106.52 50.5799C67.77 51.2699 31.5 61.7399 0 79.5899V183.34L0 183.35Z" fill="#FAFAFF"/>
</svg>
