<svg width="36" height="36" viewBox="0 0 36 36" fill="none" xmlns="http://www.w3.org/2000/svg">
<path d="M17.9416 35.5492C27.4977 35.5492 35.2445 27.8024 35.2445 18.2463C35.2445 8.69013 27.4977 0.943359 17.9416 0.943359C8.38545 0.943359 0.638672 8.69013 0.638672 18.2463C0.638672 27.8024 8.38545 35.5492 17.9416 35.5492Z" fill="#FFDB00"/>
<path d="M15.8424 9.1012L17.0264 19.5324C15.1087 19.1619 12.6534 19.961 10.6558 21.8206C7.83008 24.4574 7.01651 28.1694 8.83979 30.1234C10.6631 32.0775 14.4259 31.5254 17.2516 28.8885C19.4381 26.8473 20.3969 24.1669 19.8884 22.1547L18.748 12.9148C18.748 12.9148 20.6439 12.7187 23.8474 11.433C27.0508 10.1472 25.6561 4.10352 25.6561 4.10352L15.8351 9.1012H15.8424Z" fill="#FF8000"/>
</svg>
