<svg width="26" height="25" viewBox="0 0 26 25" fill="none" xmlns="http://www.w3.org/2000/svg">
<path d="M14.6201 12.04L11.6201 10.54C11.2701 10.37 10.8701 10.62 10.8701 11V13.99C10.8701 14.38 11.2801 14.63 11.6201 14.45L14.6201 12.95C15.0001 12.76 15.0001 12.21 14.6201 12.02V12.04Z" fill="white"/>
<path d="M12.8901 0C5.99014 0 0.390137 5.6 0.390137 12.5C0.390137 19.4 5.99014 25 12.8901 25C19.7901 25 25.3901 19.4 25.3901 12.5C25.3901 5.6 19.7901 0 12.8901 0ZM20.2001 15.87C20.2001 16.93 19.3401 17.8 18.2701 17.8H7.50014C6.44014 17.8 5.57014 16.94 5.57014 15.87V9.13C5.57014 8.07 6.43014 7.2 7.50014 7.2H18.2701C19.3301 7.2 20.2001 8.06 20.2001 9.13V15.87Z" fill="white"/>
</svg>
